<svg width="25" height="24" viewBox="0 0 25 24" fill="none" xmlns="http://www.w3.org/2000/svg">
<rect x="0.333496" width="24" height="24" rx="4" fill="#FE4D3C" fill-opacity="0.1"/>
<path d="M22.8335 18V16.5H21.2577C21.161 16.0305 20.9746 15.5841 20.7087 15.1852L21.8262 14.0677L20.7657 13.0073L19.6482 14.1248C19.2494 13.8589 18.803 13.6725 18.3335 13.5757V12H16.8335V13.5757C16.364 13.6725 15.9176 13.8589 15.5187 14.1248L14.4012 13.0073L13.3407 14.0677L14.4582 15.1852C14.1924 15.5841 14.006 16.0305 13.9092 16.5H12.3335V18H13.9092C14.006 18.4695 14.1924 18.9159 14.4582 19.3148L13.3407 20.4323L14.4012 21.4928L15.5187 20.3752C15.9176 20.6411 16.364 20.8275 16.8335 20.9242V22.5H18.3335V20.9242C18.803 20.8275 19.2494 20.6411 19.6482 20.3752L20.7657 21.4928L21.8262 20.4323L20.7087 19.3148C20.9746 18.9159 21.161 18.4695 21.2577 18H22.8335ZM17.5835 19.5C17.1385 19.5 16.7035 19.368 16.3335 19.1208C15.9635 18.8736 15.6751 18.5222 15.5048 18.111C15.3345 17.6999 15.2899 17.2475 15.3767 16.811C15.4635 16.3746 15.6778 15.9737 15.9925 15.659C16.3072 15.3443 16.7081 15.13 17.1445 15.0432C17.581 14.9564 18.0334 15.001 18.4445 15.1713C18.8557 15.3416 19.2071 15.63 19.4543 16C19.7015 16.37 19.8335 16.805 19.8335 17.25C19.8329 17.8466 19.5957 18.4185 19.1738 18.8403C18.752 19.2622 18.1801 19.4994 17.5835 19.5Z" fill="#FE4D3C"/>
<path d="M21.3335 3H3.3335C2.93579 3.0004 2.55449 3.15856 2.27327 3.43978C1.99206 3.721 1.83389 4.1023 1.8335 4.5V19.5C1.83389 19.8977 1.99206 20.279 2.27327 20.5602C2.55449 20.8414 2.93579 20.9996 3.3335 21H10.8335V19.5H3.3335V9H21.3335V11.25H22.8335V4.5C22.8331 4.1023 22.6749 3.721 22.3937 3.43978C22.1125 3.15856 21.7312 3.0004 21.3335 3ZM21.3335 7.5H3.3335V4.5H21.3335V7.5Z" fill="#FE4D3C"/>
<path d="M15.3335 6.75C15.7477 6.75 16.0835 6.41421 16.0835 6C16.0835 5.58579 15.7477 5.25 15.3335 5.25C14.9193 5.25 14.5835 5.58579 14.5835 6C14.5835 6.41421 14.9193 6.75 15.3335 6.75Z" fill="#FE4D3C"/>
<path d="M17.5835 6.75C17.9977 6.75 18.3335 6.41421 18.3335 6C18.3335 5.58579 17.9977 5.25 17.5835 5.25C17.1693 5.25 16.8335 5.58579 16.8335 6C16.8335 6.41421 17.1693 6.75 17.5835 6.75Z" fill="#FE4D3C"/>
<path d="M19.8335 6.75C20.2477 6.75 20.5835 6.41421 20.5835 6C20.5835 5.58579 20.2477 5.25 19.8335 5.25C19.4193 5.25 19.0835 5.58579 19.0835 6C19.0835 6.41421 19.4193 6.75 19.8335 6.75Z" fill="#FE4D3C"/>
</svg>
