<svg width="25" height="24" viewBox="0 0 25 24" fill="none" xmlns="http://www.w3.org/2000/svg">
<rect x="0.333496" width="24" height="24" rx="4" fill="#FE4D3C" fill-opacity="0.1"/>
<path d="M3.3335 5.625C3.3335 4.175 4.5085 3 5.9585 3H18.7085C20.1585 3 21.3335 4.175 21.3335 5.625V12.022C20.9435 11.772 20.5245 11.5625 20.0835 11.4V5.625C20.0835 5.26033 19.9386 4.91059 19.6808 4.65273C19.4229 4.39487 19.0732 4.25 18.7085 4.25H5.9585C5.59382 4.25 5.24409 4.39487 4.98622 4.65273C4.72836 4.91059 4.5835 5.26033 4.5835 5.625V18.375C4.5835 18.7397 4.72836 19.0894 4.98622 19.3473C5.24409 19.6051 5.59382 19.75 5.9585 19.75H11.7335C11.896 20.191 12.1055 20.61 12.3555 21H5.9585C5.2623 21 4.59462 20.7234 4.10234 20.2312C3.61006 19.7389 3.3335 19.0712 3.3335 18.375V5.625Z" fill="#FE4D3C"/>
<path d="M5.3335 10.75C5.3335 10.1533 5.57055 9.58097 5.99251 9.15901C6.41446 8.73705 6.98676 8.5 7.5835 8.5C8.18023 8.5 8.75253 8.73705 9.17449 9.15901C9.59644 9.58097 9.8335 10.1533 9.8335 10.75C9.8335 11.3467 9.59644 11.919 9.17449 12.341C8.75253 12.7629 8.18023 13 7.5835 13C6.98676 13 6.41446 12.7629 5.99251 12.341C5.57055 11.919 5.3335 11.3467 5.3335 10.75ZM7.5835 9.75C7.31828 9.75 7.06393 9.85536 6.87639 10.0429C6.68885 10.2304 6.5835 10.4848 6.5835 10.75C6.5835 11.0152 6.68885 11.2696 6.87639 11.4571C7.06393 11.6446 7.31828 11.75 7.5835 11.75C7.84871 11.75 8.10307 11.6446 8.2906 11.4571C8.47814 11.2696 8.5835 11.0152 8.5835 10.75C8.5835 10.4848 8.47814 10.2304 8.2906 10.0429C8.10307 9.85536 7.84871 9.75 7.5835 9.75Z" fill="#FE4D3C"/>
<path d="M7.5835 14.5C6.98676 14.5 6.41446 14.7371 5.99251 15.159C5.57055 15.581 5.3335 16.1533 5.3335 16.75C5.3335 17.3467 5.57055 17.919 5.99251 18.341C6.41446 18.7629 6.98676 19 7.5835 19C8.18023 19 8.75253 18.7629 9.17449 18.341C9.59644 17.919 9.8335 17.3467 9.8335 16.75C9.8335 16.1533 9.59644 15.581 9.17449 15.159C8.75253 14.7371 8.18023 14.5 7.5835 14.5ZM6.5835 16.75C6.5835 16.4848 6.68885 16.2304 6.87639 16.0429C7.06393 15.8554 7.31828 15.75 7.5835 15.75C7.84871 15.75 8.10307 15.8554 8.2906 16.0429C8.47814 16.2304 8.5835 16.4848 8.5835 16.75C8.5835 17.0152 8.47814 17.2696 8.2906 17.4571C8.10307 17.6446 7.84871 17.75 7.5835 17.75C7.31828 17.75 7.06393 17.6446 6.87639 17.4571C6.68885 17.2696 6.5835 17.0152 6.5835 16.75Z" fill="#FE4D3C"/>
<path d="M10.834 10.125C10.834 9.78 11.114 9.5 11.459 9.5H18.7085C18.7906 9.5 18.8718 9.51617 18.9477 9.54757C19.0235 9.57898 19.0924 9.62502 19.1504 9.68306C19.2085 9.74109 19.2545 9.80999 19.2859 9.88582C19.3173 9.96165 19.3335 10.0429 19.3335 10.125C19.3335 10.2071 19.3173 10.2883 19.2859 10.3642C19.2545 10.44 19.2085 10.5089 19.1504 10.5669C19.0924 10.625 19.0235 10.671 18.9477 10.7024C18.8718 10.7338 18.7906 10.75 18.7085 10.75H11.459C11.114 10.75 10.834 10.47 10.834 10.125Z" fill="#FE4D3C"/>
<path d="M5.96484 5.54688C5.79908 5.54688 5.64011 5.61272 5.5229 5.72993C5.40569 5.84714 5.33984 6.00611 5.33984 6.17188C5.33984 6.33764 5.40569 6.49661 5.5229 6.61382C5.64011 6.73103 5.79908 6.79688 5.96484 6.79688H18.6983C18.8641 6.79688 19.0231 6.73103 19.1403 6.61382C19.2575 6.49661 19.3233 6.33764 19.3233 6.17188C19.3233 6.00611 19.2575 5.84714 19.1403 5.72993C19.0231 5.61272 18.8641 5.54688 18.6983 5.54688H5.96484Z" fill="#FE4D3C"/>
<path d="M23.3335 17.5C23.3335 20.5375 20.871 23 17.8335 23C14.796 23 12.3335 20.5375 12.3335 17.5C12.3335 14.4625 14.796 12 17.8335 12C20.871 12 23.3335 14.4625 23.3335 17.5ZM18.3335 14C18.3335 13.8674 18.2808 13.7402 18.187 13.6464C18.0933 13.5527 17.9661 13.5 17.8335 13.5C17.7009 13.5 17.5737 13.5527 17.4799 13.6464C17.3862 13.7402 17.3335 13.8674 17.3335 14V17H14.3335C14.2009 17 14.0737 17.0527 13.9799 17.1464C13.8862 17.2402 13.8335 17.3674 13.8335 17.5C13.8335 17.6326 13.8862 17.7598 13.9799 17.8536C14.0737 17.9473 14.2009 18 14.3335 18H17.3335V21C17.3335 21.1326 17.3862 21.2598 17.4799 21.3536C17.5737 21.4473 17.7009 21.5 17.8335 21.5C17.9661 21.5 18.0933 21.4473 18.187 21.3536C18.2808 21.2598 18.3335 21.1326 18.3335 21V18H21.3335C21.4661 18 21.5933 17.9473 21.687 17.8536C21.7808 17.7598 21.8335 17.6326 21.8335 17.5C21.8335 17.3674 21.7808 17.2402 21.687 17.1464C21.5933 17.0527 21.4661 17 21.3335 17H18.3335V14Z" fill="#FE4D3C"/>
</svg>
