<svg width="25" height="25" viewBox="0 0 25 25" fill="none" xmlns="http://www.w3.org/2000/svg">
<path fill-rule="evenodd" clip-rule="evenodd" d="M12.4445 5.35439C12.3204 4.81602 12.0027 4.34208 11.5518 4.02281C11.1009 3.70354 10.5484 3.56124 9.99935 3.623C9.45033 3.68477 8.9432 3.94628 8.57452 4.35775C8.20583 4.76922 8.00135 5.30191 8 5.85439C7.99972 6.40777 8.20338 6.94184 8.57205 7.35452C8.94071 7.7672 9.44853 8.02955 9.99844 8.09142C10.5483 8.1533 11.1018 8.01035 11.5529 7.6899C12.0041 7.36946 12.3213 6.89399 12.444 6.35439H12.5C12.5206 6.35433 12.5411 6.35299 12.5615 6.35039C12.6765 6.79389 12.9415 7.10439 13.25 7.10439C13.664 7.10439 14 6.54439 14 5.85439C14 5.16439 13.664 4.60439 13.25 4.60439C12.9415 4.60439 12.6765 4.91439 12.5615 5.35789C12.5411 5.35548 12.5206 5.35431 12.5 5.35439H12.4445ZM11.383 6.38389C11.27 6.62604 11.0824 6.82561 10.8477 6.95333C10.613 7.08105 10.3436 7.1302 10.0789 7.09357C9.81419 7.05694 9.56821 6.93646 9.37702 6.7498C9.18582 6.56314 9.05947 6.32012 9.0165 6.05639C9.8305 6.41639 10.531 6.41439 11.3825 6.38389H11.383ZM9.2735 5.07389C9.40922 4.90398 9.58693 4.77242 9.78905 4.6922C9.99118 4.61199 10.2107 4.58589 10.426 4.61649C10.6413 4.64708 10.8449 4.73332 11.0167 4.86668C11.1885 5.00003 11.3225 5.1759 11.4055 5.37689L11.3925 5.37739C10.4715 5.40889 9.9665 5.42589 9.2735 5.07389Z" fill="#FE4D3C"/>
<path fill-rule="evenodd" clip-rule="evenodd" d="M4.8135 10.354C5.64 9.36349 6.88 8.60449 8.38 8.60449C8.69982 8.60449 9.01127 8.70672 9.26889 8.89624C9.5265 9.08577 9.7168 9.35267 9.812 9.65799L10.4495 11.703H11C11.3978 11.703 11.7794 11.861 12.0607 12.1423C12.342 12.4236 12.5 12.8052 12.5 13.203C12.5 13.6008 12.342 13.9823 12.0607 14.2637C11.7794 14.545 11.3978 14.703 11 14.703H9.3455C9.0297 14.7029 8.72199 14.6031 8.46621 14.4179C8.21043 14.2327 8.01963 13.9715 7.921 13.6715C7.70929 14.2326 7.56789 14.8177 7.5 15.4135V20.1045C7.5 20.3015 7.4612 20.4965 7.38582 20.6785C7.31044 20.8605 7.19995 21.0259 7.06066 21.1652C6.92137 21.3044 6.75601 21.4149 6.57403 21.4903C6.39204 21.5657 6.19698 21.6045 6 21.6045C5.80302 21.6045 5.60796 21.5657 5.42597 21.4903C5.24399 21.4149 5.07863 21.3044 4.93934 21.1652C4.80005 21.0259 4.68956 20.8605 4.61418 20.6785C4.5388 20.4965 4.5 20.3015 4.5 20.1045V16.6105C4.4035 16.4575 4.285 16.26 4.164 16.039C4.00492 15.7513 3.8656 15.4531 3.747 15.1465C3.633 14.8445 3.5 14.4125 3.5 13.9495C3.5 12.6355 3.994 11.337 4.8135 10.354ZM8.38 9.60449C7.237 9.60449 6.26 10.181 5.5815 10.9945C4.906 11.8045 4.5 12.8785 4.5 13.9495C4.5 14.2345 4.5845 14.534 4.6825 14.7935C4.7835 15.0615 4.9155 15.3285 5.042 15.5605C5.15993 15.7759 5.28585 15.9869 5.4195 16.193C5.47203 16.274 5.49999 16.3685 5.5 16.465V20.1045C5.5 20.2371 5.55268 20.3643 5.64645 20.458C5.74021 20.5518 5.86739 20.6045 6 20.6045C6.13261 20.6045 6.25979 20.5518 6.35355 20.458C6.44732 20.3643 6.5 20.2371 6.5 20.1045V15.387C6.5 15.369 6.501 15.352 6.5025 15.3345C6.6365 14.0695 7.079 12.9325 7.577 12.0435C7.6248 11.9583 7.69653 11.8889 7.78332 11.844C7.87012 11.7991 7.96816 11.7806 8.06535 11.7908C8.16253 11.801 8.25459 11.8395 8.33015 11.9015C8.40571 11.9634 8.46146 12.0462 8.4905 12.1395L8.8685 13.3515C8.90025 13.4532 8.96364 13.5421 9.04944 13.6052C9.13524 13.6683 9.23897 13.7024 9.3455 13.7025H11C11.1326 13.7025 11.2598 13.6498 11.3536 13.556C11.4473 13.4623 11.5 13.3351 11.5 13.2025C11.5 13.0699 11.4473 12.9427 11.3536 12.8489C11.2598 12.7552 11.1326 12.7025 11 12.7025H10.0815C9.97489 12.7025 9.87105 12.6685 9.78514 12.6054C9.69924 12.5422 9.63577 12.4533 9.604 12.3515L8.8575 9.95549C8.82573 9.85372 8.76226 9.76477 8.67636 9.70162C8.59045 9.63848 8.48661 9.60445 8.38 9.60449Z" fill="#FE4D3C"/>
<path fill-rule="evenodd" clip-rule="evenodd" d="M19.25 9.60449C19.8467 9.60449 20.419 9.36744 20.841 8.94548C21.2629 8.52353 21.5 7.95123 21.5 7.35449C21.5 6.75776 21.2629 6.18546 20.841 5.7635C20.419 5.34155 19.8467 5.10449 19.25 5.10449C18.6533 5.10449 18.081 5.34155 17.659 5.7635C17.2371 6.18546 17 6.75776 17 7.35449C17 7.95123 17.2371 8.52353 17.659 8.94548C18.081 9.36744 18.6533 9.60449 19.25 9.60449ZM19.25 8.60449C19.5815 8.60449 19.8995 8.4728 20.1339 8.23838C20.3683 8.00396 20.5 7.68601 20.5 7.35449C20.5 7.02297 20.3683 6.70503 20.1339 6.47061C19.8995 6.23619 19.5815 6.10449 19.25 6.10449C18.9185 6.10449 18.6005 6.23619 18.3661 6.47061C18.1317 6.70503 18 7.02297 18 7.35449C18 7.68601 18.1317 8.00396 18.3661 8.23838C18.6005 8.4728 18.9185 8.60449 19.25 8.60449Z" fill="#FE4D3C"/>
<path fill-rule="evenodd" clip-rule="evenodd" d="M17.6895 9.48917C17.5499 9.17852 17.3087 8.92463 17.0057 8.76924C16.7026 8.61385 16.3557 8.56621 16.022 8.63417L16.0045 8.63817H16.003L15.9955 8.64017L15.985 8.64267H15.9835C15.8969 8.66235 15.8115 8.6874 15.728 8.71767C15.5671 8.77432 15.4107 8.84285 15.26 8.92267C14.8965 9.11417 14.4545 9.42267 14.0295 9.91117C13.16 10.9087 12.5 12.4942 12.5 14.9377C12.5 15.1927 12.5495 16.0742 13.427 16.5062C13.512 16.5482 13.5945 16.5802 13.673 16.6042H8.5V21.6042H9.5V18.1042H15V21.6042H16V17.3742C16.4386 17.6795 16.8634 18.0043 17.273 18.3477C17.312 18.4097 17.363 18.4927 17.4235 18.5947C17.5615 18.8257 17.7335 19.1227 17.912 19.4317L18.1645 19.8717L18.166 19.8742L18.1795 19.8972V19.8982H18.18C18.43 20.3337 18.672 20.7557 18.771 20.9107C18.9849 21.2461 19.3233 21.4828 19.7117 21.5688C20.1002 21.6547 20.5068 21.5828 20.8423 21.3689C21.1777 21.155 21.4144 20.8166 21.5003 20.4282C21.5863 20.0398 21.5144 19.6331 21.3005 19.2977C21.1329 19.0168 20.9685 18.7339 20.8075 18.4492L20.8065 18.4477L20.5115 17.9342C20.3325 17.6242 20.15 17.3092 19.9995 17.0572C19.9313 16.9424 19.8617 16.8286 19.7905 16.7157L19.788 16.7112C19.746 16.6452 19.651 16.4952 19.5455 16.3737C19.4689 16.2883 19.3867 16.2081 19.2995 16.1337L19.2905 16.1257C19.2032 16.0501 19.1149 15.9757 19.0255 15.9027C18.7026 15.6378 18.3718 15.3827 18.0335 15.1377H20C20.3978 15.1377 20.7794 14.9796 21.0607 14.6983C21.342 14.417 21.5 14.0355 21.5 13.6377C21.5 13.2398 21.342 12.8583 21.0607 12.577C20.7794 12.2957 20.3978 12.1377 20 12.1377H18.8805L17.69 9.48917H17.6895ZM16.2645 16.3472C16.2451 16.3346 16.2249 16.3234 16.204 16.3137C16.1865 16.2989 16.1679 16.2854 16.1485 16.2732C15.857 16.0887 15.5645 15.9232 15.3065 15.8152C14.906 15.6472 14.6275 15.6637 14.4035 15.6767L14.3835 15.6782C14.3174 15.6829 14.2512 15.6846 14.185 15.6832C14.0754 15.6812 13.9676 15.656 13.8685 15.6092C13.5425 15.4492 13.5 15.1222 13.5 14.9377C13.5 12.6782 14.1075 11.3447 14.7835 10.5677C15.0478 10.2583 15.3672 10.0006 15.7255 9.80767C15.8525 9.74042 15.9852 9.68454 16.122 9.64067C16.182 9.63967 16.2425 9.62767 16.2995 9.60467C16.3995 9.60027 16.4985 9.62599 16.5837 9.67849C16.669 9.731 16.7365 9.80787 16.7775 9.89917L18.1015 12.8427C18.141 12.9305 18.2051 13.0051 18.286 13.0575C18.3669 13.1098 18.4612 13.1377 18.5575 13.1377H20C20.1326 13.1377 20.2598 13.1903 20.3536 13.2841C20.4473 13.3779 20.5 13.5051 20.5 13.6377C20.5 13.7703 20.4473 13.8975 20.3536 13.9912C20.2598 14.085 20.1326 14.1377 20 14.1377H17.9105C17.8141 14.1377 17.7199 14.1098 17.639 14.0575C17.5581 14.0051 17.494 13.9305 17.4545 13.8427L16.943 12.7052C16.9029 12.616 16.8375 12.5406 16.755 12.4883C16.6724 12.4359 16.5764 12.4089 16.4786 12.4105C16.3809 12.4122 16.2858 12.4424 16.2051 12.4975C16.1244 12.5527 16.0616 12.6302 16.0245 12.7207C15.8001 13.2674 15.6401 13.8384 15.548 14.4222C15.5309 14.5297 15.5493 14.64 15.6006 14.7361C15.6519 14.8322 15.7331 14.909 15.832 14.9547C16.426 15.2292 17.1055 15.6927 17.6385 16.0882C17.9335 16.3072 18.1955 16.5147 18.391 16.6752C18.4885 16.7552 18.571 16.8252 18.633 16.8792L18.638 16.8837C18.6585 16.9017 18.6865 16.9262 18.7165 16.9537C18.7475 16.9832 18.773 17.0087 18.789 17.0272C18.812 17.0537 18.8395 17.0912 18.8695 17.1342C18.899 17.1767 18.9245 17.2177 18.9465 17.2512C19.0015 17.3382 19.068 17.4472 19.141 17.5697C19.2875 17.8147 19.466 18.1237 19.645 18.4332L19.94 18.9472L19.941 18.9487L19.958 18.9787C20.1895 19.3812 20.3855 19.7227 20.4575 19.8357C20.4928 19.8911 20.5168 19.9528 20.5282 20.0175C20.5397 20.0822 20.5382 20.1485 20.524 20.2126C20.5098 20.2767 20.4831 20.3374 20.4454 20.3912C20.4078 20.445 20.3599 20.4909 20.3045 20.5262C20.2491 20.5615 20.1873 20.5855 20.1226 20.5969C20.058 20.6083 19.9917 20.6069 19.9276 20.5927C19.8634 20.5785 19.8028 20.5518 19.7489 20.5141C19.6951 20.4764 19.6493 20.4286 19.614 20.3732C19.4157 20.0429 19.2219 19.7101 19.0325 19.3747V19.3742C18.948 19.2277 18.8625 19.0777 18.7785 18.9327C18.6 18.6232 18.4245 18.3202 18.2825 18.0827C18.2147 17.9686 18.1452 17.8556 18.074 17.7437C18.0489 17.7054 18.0186 17.6707 17.984 17.6407L17.976 17.6332C17.9035 17.5705 17.8302 17.5088 17.756 17.4482C17.5225 17.2568 17.2844 17.0711 17.042 16.8912C16.7883 16.7019 16.5289 16.5205 16.264 16.3472H16.2645Z" fill="#FE4D3C"/>
</svg>
