<svg width="33" height="50" viewBox="0 0 33 50" fill="none" xmlns="http://www.w3.org/2000/svg">
<path d="M6.08317 22.9168V12.5002C6.08317 6.25016 10.2498 2.0835 16.4998 2.0835C22.7498 2.0835 26.9165 6.25016 26.9165 12.5002V22.9168H6.08317ZM16.4998 47.9168C20.3676 47.9168 24.0769 46.3804 26.8118 43.6455C29.5467 40.9106 31.0832 37.2012 31.0832 33.3335C31.0832 29.4658 29.5467 25.7564 26.8118 23.0215C24.0769 20.2866 20.3676 18.7502 16.4998 18.7502C12.6321 18.7502 8.92277 20.2866 6.18786 23.0215C3.45296 25.7564 1.9165 29.4658 1.9165 33.3335C1.9165 37.2012 3.45296 40.9106 6.18786 43.6455C8.92277 46.3804 12.6321 47.9168 16.4998 47.9168V47.9168ZM16.4998 31.2502V39.5835V31.2502ZM16.4998 33.3335C17.0524 33.3335 17.5823 33.114 17.973 32.7233C18.3637 32.3326 18.5832 31.8027 18.5832 31.2502C18.5832 30.6976 18.3637 30.1677 17.973 29.777C17.5823 29.3863 17.0524 29.1668 16.4998 29.1668C15.9473 29.1668 15.4174 29.3863 15.0267 29.777C14.636 30.1677 14.4165 30.6976 14.4165 31.2502C14.4165 31.8027 14.636 32.3326 15.0267 32.7233C15.4174 33.114 15.9473 33.3335 16.4998 33.3335V33.3335Z" stroke="#080056" stroke-width="3"/>
</svg>
