<svg width="39" height="40" viewBox="0 0 39 40" fill="none" xmlns="http://www.w3.org/2000/svg">
<path d="M7.95724 0V13.2621V0ZM29.1766 0V13.2621V0ZM6.63103 19.8931H14.5883H6.63103ZM30.5028 19.8931H22.5455H30.5028ZM6.63103 27.8503H14.5883H6.63103ZM22.5455 27.8503H30.5028H22.5455ZM2.65241 6.63103H34.4814C35.1848 6.63103 35.8595 6.91048 36.3569 7.40791C36.8543 7.90533 37.1338 8.57998 37.1338 9.28345V35.8076C37.1338 36.5111 36.8543 37.1857 36.3569 37.6831C35.8595 38.1806 35.1848 38.46 34.4814 38.46H2.65241C1.94895 38.46 1.2743 38.1806 0.776874 37.6831C0.27945 37.1857 0 36.5111 0 35.8076V9.28345C0 8.57998 0.27945 7.90533 0.776874 7.40791C1.2743 6.91048 1.94895 6.63103 2.65241 6.63103V6.63103Z" stroke="white" stroke-width="3"/>
</svg>
