<svg width="50" height="50" viewBox="0 0 50 50" fill="none" xmlns="http://www.w3.org/2000/svg">
<g clip-path="url(#clip0_11308_191996)">
<path d="M7.95724 7V20.2621V7ZM29.1766 7V20.2621V7ZM6.63103 26.8931H14.5883H6.63103ZM30.5028 26.8931H22.5455H30.5028ZM6.63103 34.8503H14.5883H6.63103ZM22.5455 34.8503H30.5028H22.5455ZM2.65241 13.631H34.4814C35.1848 13.631 35.8595 13.9105 36.3569 14.4079C36.8543 14.9053 37.1338 15.58 37.1338 16.2834V42.8076C37.1338 43.5111 36.8543 44.1857 36.3569 44.6831C35.8595 45.1806 35.1848 45.46 34.4814 45.46H2.65241C1.94895 45.46 1.2743 45.1806 0.776874 44.6831C0.27945 44.1857 0 43.5111 0 42.8076V16.2834C0 15.58 0.27945 14.9053 0.776874 14.4079C1.2743 13.9105 1.94895 13.631 2.65241 13.631V13.631Z" stroke="white" stroke-width="3"/>
</g>
<defs>
<clipPath id="clip0_11308_191996">
<rect width="50" height="50" fill="white"/>
</clipPath>
</defs>
</svg>
