<svg width="25" height="24" viewBox="0 0 25 24" fill="none" xmlns="http://www.w3.org/2000/svg">
<path d="M17.237 21.9982C17.5026 21.9997 17.7659 21.9483 18.0114 21.847C18.2569 21.7457 18.4798 21.5966 18.667 21.4082L21.377 18.6982C21.5633 18.5108 21.6678 18.2574 21.6678 17.9932C21.6678 17.729 21.5633 17.4756 21.377 17.2882L17.377 13.2882C17.1897 13.1019 16.9362 12.9974 16.672 12.9974C16.4078 12.9974 16.1544 13.1019 15.967 13.2882L14.367 14.8782C13.2593 14.5828 12.2333 14.0391 11.367 13.2882C10.6181 12.4205 10.0747 11.395 9.77703 10.2882L11.367 8.68819C11.5533 8.50083 11.6578 8.24737 11.6578 7.98319C11.6578 7.719 11.5533 7.46555 11.367 7.27819L7.36703 3.27819C7.17966 3.09194 6.92621 2.9874 6.66203 2.9874C6.39784 2.9874 6.14439 3.09194 5.95703 3.27819L3.25703 5.99819C3.06866 6.18543 2.91947 6.40832 2.81817 6.65384C2.71687 6.89936 2.66549 7.1626 2.66703 7.42819C2.75775 11.2705 4.2931 14.9375 6.96703 17.6982C9.72774 20.3721 13.3947 21.9075 17.237 21.9982ZM6.66703 5.40819L9.25703 7.99819L7.96703 9.28819C7.84485 9.40264 7.75335 9.54593 7.70094 9.70492C7.64852 9.86391 7.63686 10.0335 7.66703 10.1982C8.04079 11.8686 8.83214 13.4168 9.96703 14.6982C11.2474 15.8345 12.7961 16.6261 14.467 16.9982C14.6292 17.0321 14.7973 17.0252 14.9561 16.978C15.1149 16.9309 15.2596 16.8451 15.377 16.7282L16.667 15.4082L19.257 17.9982L17.257 19.9982C13.9408 19.9128 10.7765 18.5893 8.38703 16.2882C6.07994 13.8977 4.75263 10.7293 4.66703 7.40819L6.66703 5.40819ZM20.667 10.9982H22.667C22.693 9.80919 22.4779 8.62725 22.0348 7.52359C21.5917 6.41994 20.9297 5.41743 20.0887 4.57648C19.2478 3.73553 18.2453 3.07355 17.1416 2.63044C16.038 2.18733 14.856 1.97226 13.667 1.99819V3.99819C14.5949 3.96609 15.5195 4.1252 16.3833 4.46562C17.2471 4.80605 18.0317 5.32051 18.6882 5.97703C19.3447 6.63355 19.8592 7.41809 20.1996 8.28189C20.54 9.14569 20.6991 10.0703 20.667 10.9982Z" fill="white"/>
<path d="M13.667 8C15.767 8 16.667 8.9 16.667 11H18.667C18.667 7.78 16.887 6 13.667 6V8Z" fill="white"/>
</svg>
