<svg width="50" height="50" viewBox="0 0 50 50" fill="none" xmlns="http://www.w3.org/2000/svg">
<path fill-rule="evenodd" clip-rule="evenodd" d="M14.5832 6.24984C14.0306 6.24984 13.5007 6.46933 13.11 6.86003C12.7193 7.25073 12.4998 7.78064 12.4998 8.33317V37.4998C12.4998 38.0524 12.7193 38.5823 13.11 38.973C13.5007 39.3637 14.0306 39.5832 14.5832 39.5832H26.0415V41.6665H14.5832C13.4781 41.6665 12.4183 41.2275 11.6369 40.4461C10.8555 39.6647 10.4165 38.6049 10.4165 37.4998V8.33317C10.4165 7.2281 10.8555 6.16829 11.6369 5.38689C12.4183 4.60549 13.4781 4.1665 14.5832 4.1665H35.4165C36.5216 4.1665 37.5814 4.60549 38.3628 5.38689C39.1442 6.16829 39.5832 7.2281 39.5832 8.33317V37.4998C39.5832 38.6049 39.1442 39.6647 38.3628 40.4461C37.5814 41.2275 36.5216 41.6665 35.4165 41.6665H26.0415V39.5832H35.4165C35.969 39.5832 36.4989 39.3637 36.8896 38.973C37.2803 38.5823 37.4998 38.0524 37.4998 37.4998V8.33317C37.4998 7.78064 37.2803 7.25073 36.8896 6.86003C36.4989 6.46933 35.969 6.24984 35.4165 6.24984H14.5832Z" fill="#080056"/>
<path fill-rule="evenodd" clip-rule="evenodd" d="M18.5 11C18.5 10.7348 18.6141 10.4804 18.8173 10.2929C19.0205 10.1054 19.296 10 19.5833 10H30.4167C30.704 10 30.9795 10.1054 31.1827 10.2929C31.3859 10.4804 31.5 10.7348 31.5 11C31.5 11.2652 31.3859 11.5196 31.1827 11.7071C30.9795 11.8946 30.704 12 30.4167 12H19.5833C19.296 12 19.0205 11.8946 18.8173 11.7071C18.6141 11.5196 18.5 11.2652 18.5 11Z" fill="#080056"/>
<path fill-rule="evenodd" clip-rule="evenodd" d="M14.5 17C14.5 16.7348 14.6106 16.4804 14.8075 16.2929C15.0045 16.1054 15.2715 16 15.55 16H34.45C34.7285 16 34.9955 16.1054 35.1925 16.2929C35.3894 16.4804 35.5 16.7348 35.5 17C35.5 17.2652 35.3894 17.5196 35.1925 17.7071C34.9955 17.8946 34.7285 18 34.45 18H15.55C15.2715 18 15.0045 17.8946 14.8075 17.7071C14.6106 17.5196 14.5 17.2652 14.5 17Z" fill="#080056"/>
<path fill-rule="evenodd" clip-rule="evenodd" d="M14.5 21C14.5 20.7348 14.6106 20.4804 14.8075 20.2929C15.0045 20.1054 15.2715 20 15.55 20H34.45C34.7285 20 34.9955 20.1054 35.1925 20.2929C35.3894 20.4804 35.5 20.7348 35.5 21C35.5 21.2652 35.3894 21.5196 35.1925 21.7071C34.9955 21.8946 34.7285 22 34.45 22H15.55C15.2715 22 15.0045 21.8946 14.8075 21.7071C14.6106 21.5196 14.5 21.2652 14.5 21Z" fill="#080056"/>
<path fill-rule="evenodd" clip-rule="evenodd" d="M14.5 25C14.5 24.7348 14.6106 24.4804 14.8075 24.2929C15.0045 24.1054 15.2715 24 15.55 24H34.45C34.7285 24 34.9955 24.1054 35.1925 24.2929C35.3894 24.4804 35.5 24.7348 35.5 25C35.5 25.2652 35.3894 25.5196 35.1925 25.7071C34.9955 25.8946 34.7285 26 34.45 26H15.55C15.2715 26 15.0045 25.8946 14.8075 25.7071C14.6106 25.5196 14.5 25.2652 14.5 25Z" fill="#080056"/>
<path fill-rule="evenodd" clip-rule="evenodd" d="M14.5 28C14.5 27.7348 14.6106 27.4804 14.8075 27.2929C15.0045 27.1054 15.2715 27 15.55 27H34.45C34.7285 27 34.9955 27.1054 35.1925 27.2929C35.3894 27.4804 35.5 27.7348 35.5 28C35.5 28.2652 35.3894 28.5196 35.1925 28.7071C34.9955 28.8946 34.7285 29 34.45 29H15.55C15.2715 29 15.0045 28.8946 14.8075 28.7071C14.6106 28.5196 14.5 28.2652 14.5 28Z" fill="#080056"/>
<path fill-rule="evenodd" clip-rule="evenodd" d="M14.5 32C14.5 31.7348 14.6106 31.4804 14.8075 31.2929C15.0045 31.1054 15.2715 31 15.55 31H34.45C34.7285 31 34.9955 31.1054 35.1925 31.2929C35.3894 31.4804 35.5 31.7348 35.5 32C35.5 32.2652 35.3894 32.5196 35.1925 32.7071C34.9955 32.8946 34.7285 33 34.45 33H15.55C15.2715 33 15.0045 32.8946 14.8075 32.7071C14.6106 32.5196 14.5 32.2652 14.5 32Z" fill="#080056"/>
</svg>
