<svg width="50" height="50" viewBox="0 0 50 50" fill="none" xmlns="http://www.w3.org/2000/svg">
<path d="M28.125 35.9375H25V32.8125C24.9988 31.5697 24.5045 30.3781 23.6257 29.4993C22.7469 28.6205 21.5553 28.1262 20.3125 28.125H14.0625C12.8197 28.1262 11.6281 28.6205 10.7493 29.4993C9.8705 30.3781 9.37624 31.5697 9.375 32.8125V35.9375H6.25V32.8125C6.25248 30.7413 7.07638 28.7556 8.54097 27.291C10.0056 25.8264 11.9913 25.0025 14.0625 25H20.3125C22.3837 25.0025 24.3694 25.8264 25.834 27.291C27.2986 28.7556 28.1225 30.7413 28.125 32.8125V35.9375Z" fill="#080056"/>
<path d="M17.1875 9.375C18.1146 9.375 19.0209 9.64992 19.7917 10.165C20.5626 10.6801 21.1634 11.4121 21.5182 12.2687C21.873 13.1252 21.9658 14.0677 21.7849 14.977C21.6041 15.8863 21.1576 16.7215 20.5021 17.3771C19.8465 18.0326 19.0113 18.4791 18.102 18.6599C17.1927 18.8408 16.2502 18.748 15.3937 18.3932C14.5371 18.0384 13.8051 17.4376 13.29 16.6667C12.7749 15.8959 12.5 14.9896 12.5 14.0625C12.5 12.8193 12.9939 11.627 13.8729 10.7479C14.752 9.86886 15.9443 9.375 17.1875 9.375ZM17.1875 6.25C15.6423 6.25 14.1319 6.70819 12.8471 7.56664C11.5624 8.42509 10.561 9.64524 9.96969 11.0728C9.37839 12.5003 9.22367 14.0712 9.52512 15.5866C9.82657 17.1021 10.5706 18.4942 11.6632 19.5868C12.7558 20.6794 14.1479 21.4234 15.6634 21.7249C17.1788 22.0263 18.7497 21.8716 20.1772 21.2803C21.6048 20.689 22.8249 19.6877 23.6834 18.4029C24.5418 17.1181 25 15.6077 25 14.0625C25 11.9905 24.1769 10.0034 22.7118 8.53823C21.2466 7.0731 19.2595 6.25 17.1875 6.25Z" fill="#080056"/>
<path d="M3.125 40.625H46.875V43.75H3.125V40.625Z" fill="#080056"/>
<path d="M42.6605 12.5001C42.1046 12.5002 41.5544 12.6117 41.0423 12.828C40.5303 13.0443 40.0668 13.361 39.6792 13.7595L39.062 14.3908L38.4449 13.758C38.0573 13.3596 37.5937 13.0429 37.0817 12.8267C36.5696 12.6104 36.0194 12.499 35.4636 12.499C34.9078 12.499 34.3576 12.6104 33.8455 12.8267C33.3335 13.0429 32.87 13.3596 32.4824 13.758C31.6919 14.574 31.25 15.6656 31.25 16.8017C31.25 17.9378 31.6919 19.0294 32.4824 19.8455L39.062 26.5626L45.6402 19.847C46.4306 19.0309 46.8725 17.9394 46.8725 16.8033C46.8725 15.6672 46.4306 14.5756 45.6402 13.7595C45.253 13.3614 44.79 13.0449 44.2785 12.8286C43.767 12.6123 43.2174 12.5006 42.662 12.5001H42.6605Z" fill="#080056"/>
</svg>
