<svg width="51" height="50" viewBox="0 0 51 50" fill="none" xmlns="http://www.w3.org/2000/svg">
<path d="M34.7658 3.125H12.7886C12.0601 3.125 11.3613 3.41443 10.8461 3.92962C10.3309 4.44481 10.0415 5.14356 10.0415 5.87214V11.3664C10.0415 12.095 10.3309 12.7938 10.8461 13.309C11.3613 13.8241 12.0601 14.1136 12.7886 14.1136V38.8379C12.7886 39.5664 13.0781 40.2652 13.5933 40.7804C14.1085 41.2956 14.8072 41.585 15.5358 41.585H32.0186C32.7472 41.585 33.446 41.2956 33.9612 40.7804C34.4764 40.2652 34.7658 39.5664 34.7658 38.8379V14.1136C35.4944 14.1136 36.1931 13.8241 36.7083 13.309C37.2235 12.7938 37.5129 12.095 37.5129 11.3664V5.87214C37.5129 5.14356 37.2235 4.44481 36.7083 3.92962C36.1931 3.41443 35.4944 3.125 34.7658 3.125ZM15.5358 19.6079H19.6565V33.3436H15.5358V19.6079ZM32.0186 38.8379H15.5358V36.0907H22.4036V16.8607H15.5358V14.1136H32.0186V38.8379ZM12.7886 11.3664V5.87214H34.7658V11.3664H12.7886Z" fill="white"/>
</svg>
