<svg width="25" height="24" viewBox="0 0 25 24" fill="none" xmlns="http://www.w3.org/2000/svg">
<path d="M12.1667 14.2512C11.3004 14.252 10.4474 14.038 9.68398 13.6285C8.92055 13.219 8.27052 12.6266 7.79199 11.9045L9.04149 11.0742C9.38354 11.59 9.84793 12.0131 10.3932 12.3058C10.9386 12.5985 11.5478 12.7517 12.1667 12.7517C12.7856 12.7517 13.3949 12.5985 13.9402 12.3058C14.4856 12.0131 14.9499 11.59 15.292 11.0742L16.5415 11.9045C16.063 12.6266 15.4129 13.219 14.6495 13.6285C13.8861 14.038 13.0331 14.252 12.1667 14.2512Z" fill="#080056"/>
<path d="M15.167 6.00008C14.8703 6.00008 14.5803 6.08805 14.3336 6.25287C14.087 6.41769 13.8947 6.65196 13.7812 6.92605C13.6676 7.20014 13.6379 7.50174 13.6958 7.79271C13.7537 8.08368 13.8966 8.35096 14.1063 8.56074C14.3161 8.77052 14.5834 8.91338 14.8744 8.97125C15.1653 9.02913 15.4669 8.99943 15.741 8.8859C16.0151 8.77236 16.2494 8.58011 16.4142 8.33343C16.579 8.08676 16.667 7.79675 16.667 7.50008C16.669 7.30254 16.6316 7.10658 16.5569 6.92369C16.4822 6.74079 16.3718 6.57464 16.2321 6.43495C16.0924 6.29526 15.9263 6.18484 15.7434 6.11017C15.5605 6.0355 15.3645 5.99807 15.167 6.00008Z" fill="#080056"/>
<path d="M9.16699 6.00008C8.87032 6.00008 8.58031 6.08805 8.33364 6.25287C8.08696 6.41769 7.8947 6.65196 7.78117 6.92605C7.66764 7.20014 7.63794 7.50174 7.69581 7.79271C7.75369 8.08368 7.89655 8.35096 8.10633 8.56074C8.31611 8.77052 8.58339 8.91338 8.87436 8.97125C9.16533 9.02913 9.46693 8.99943 9.74102 8.8859C10.0151 8.77236 10.2494 8.58011 10.4142 8.33343C10.579 8.08676 10.667 7.79675 10.667 7.50008C10.669 7.30254 10.6316 7.10658 10.5569 6.92369C10.4822 6.74079 10.3718 6.57464 10.2321 6.43495C10.0924 6.29526 9.92628 6.18484 9.74338 6.11017C9.56049 6.0355 9.36453 5.99807 9.16699 6.00008Z" fill="#080056"/>
<path d="M13.469 22.5L12.167 21.75L15.167 16.5H19.667C19.8641 16.5003 20.0592 16.4617 20.2414 16.3864C20.4235 16.3111 20.589 16.2007 20.7283 16.0613C20.8677 15.922 20.9781 15.7565 21.0534 15.5744C21.1287 15.3923 21.1673 15.1971 21.167 15V4.5C21.1673 4.30293 21.1287 4.10775 21.0534 3.92562C20.9781 3.7435 20.8677 3.57803 20.7283 3.43868C20.589 3.29933 20.4235 3.18885 20.2414 3.11358C20.0592 3.0383 19.8641 2.9997 19.667 3H4.66699C4.46993 2.9997 4.27474 3.0383 4.09262 3.11358C3.91049 3.18885 3.74502 3.29933 3.60567 3.43868C3.46632 3.57803 3.35585 3.7435 3.28057 3.92562C3.20529 4.10775 3.1667 4.30293 3.16699 4.5V15C3.1667 15.1971 3.20529 15.3923 3.28057 15.5744C3.35585 15.7565 3.46632 15.922 3.60567 16.0613C3.74502 16.2007 3.91049 16.3111 4.09262 16.3864C4.27474 16.4617 4.46993 16.5003 4.66699 16.5H11.417V18H4.66699C3.87134 18 3.10828 17.6839 2.54567 17.1213C1.98306 16.5587 1.66699 15.7956 1.66699 15V4.5C1.66689 4.10601 1.74442 3.71585 1.89515 3.35183C2.04588 2.98781 2.26686 2.65706 2.54545 2.37846C2.82405 2.09986 3.1548 1.87889 3.51883 1.72816C3.88285 1.57743 4.273 1.4999 4.66699 1.5H19.667C20.061 1.4999 20.4511 1.57743 20.8152 1.72816C21.1792 1.87889 21.5099 2.09986 21.7885 2.37846C22.0671 2.65706 22.2881 2.98781 22.4388 3.35183C22.5896 3.71585 22.6671 4.10601 22.667 4.5V15C22.667 15.7956 22.3509 16.5587 21.7883 17.1213C21.2257 17.6839 20.4626 18 19.667 18H16.0407L13.469 22.5Z" fill="#080056"/>
</svg>
