<svg width="51" height="50" viewBox="0 0 51 50" fill="none" xmlns="http://www.w3.org/2000/svg">
<path d="M20.5078 31.9702H31.4964V34.7174H20.5078V31.9702Z" fill="white"/>
<path d="M15.0137 31.9702H17.7608V34.7174H15.0137V31.9702Z" fill="white"/>
<path d="M20.5078 25.1021H31.4964V27.8492H20.5078V25.1021Z" fill="white"/>
<path d="M15.0137 25.1021H17.7608V27.8492H15.0137V25.1021Z" fill="white"/>
<path d="M20.5078 18.2344H31.4964V20.9815H20.5078V18.2344Z" fill="white"/>
<path d="M15.0137 18.2344H17.7608V20.9815H15.0137V18.2344Z" fill="white"/>
<path d="M35.6169 7.24571H31.4962V5.87214C31.4962 5.14356 31.2068 4.44481 30.6916 3.92962C30.1764 3.41443 29.4777 3.125 28.7491 3.125H17.7605C17.0319 3.125 16.3332 3.41443 15.818 3.92962C15.3028 4.44481 15.0134 5.14356 15.0134 5.87214V7.24571H10.8927C10.1641 7.24571 9.46532 7.53514 8.95013 8.05033C8.43494 8.56552 8.14551 9.26427 8.14551 9.99286V38.8379C8.14551 39.5664 8.43494 40.2652 8.95013 40.7804C9.46532 41.2956 10.1641 41.585 10.8927 41.585H35.6169C36.3455 41.585 37.0443 41.2956 37.5595 40.7804C38.0746 40.2652 38.3641 39.5664 38.3641 38.8379V9.99286C38.3641 9.26427 38.0746 8.56552 37.5595 8.05033C37.0443 7.53514 36.3455 7.24571 35.6169 7.24571ZM17.7605 5.87214H28.7491V11.3664H17.7605V5.87214ZM35.6169 38.8379H10.8927V9.99286H15.0134V14.1136H31.4962V9.99286H35.6169V38.8379Z" fill="white"/>
</svg>
