<svg width="50" height="50" viewBox="0 0 50 50" fill="none" xmlns="http://www.w3.org/2000/svg">
<path fill-rule="evenodd" clip-rule="evenodd" d="M18.3929 30.2163C18.0772 30.2351 17.9002 30.2809 17.8335 30.3101C17.1731 30.6122 15.0054 31.3986 13.5418 31.9226V39.3184C14.2918 39.284 15.1356 39.2549 15.6095 39.2736C17.7158 39.358 19.3064 39.8486 20.7929 40.3205L20.9241 40.3621C22.3595 40.8184 23.6991 41.2444 25.4606 41.3778C26.0012 41.4194 26.4731 41.4663 26.9147 41.5111C27.4396 41.5692 27.9658 41.6141 28.4929 41.6455C29.3887 41.6913 30.0762 41.6424 30.6325 41.4382C31.32 41.1861 33.7991 40.0267 36.2887 38.7632C37.4381 38.1846 38.5745 37.5807 39.697 36.9517C40.1084 36.7216 40.513 36.4799 40.9106 36.2267C41.2512 36.0049 41.4158 35.8726 41.4606 35.8267C41.646 35.6361 41.7783 35.1101 41.5356 34.6361C41.3668 34.3059 40.896 33.8226 39.5731 34.0413C38.0418 34.2944 36.221 35.0413 34.4325 35.7747C33.5647 36.1309 32.7012 36.484 31.9377 36.7392C31.2043 36.984 30.4168 37.1913 29.7418 37.1507C28.7627 37.0913 27.0377 36.833 25.6064 36.5997C24.7852 36.4657 23.965 36.3254 23.146 36.1788L22.9866 36.1507L22.9314 36.1403L23.1179 35.1153L22.9304 36.1403L23.1304 34.0736L28.7137 34.1413C28.7189 34.1413 28.7262 34.1413 28.7366 34.1392C28.7741 34.1361 28.8491 34.1267 28.9575 34.0986C29.17 34.0434 29.52 33.9142 29.9533 33.6038C30.1033 33.4965 30.2866 33.3101 30.4522 33.0684C30.5877 32.8705 30.6887 32.6715 30.7481 32.5028C29.9158 32.4788 29.0991 32.3392 28.4897 32.2059C28.1318 32.1275 27.7767 32.0365 27.4252 31.933L27.3772 31.9184L20.5377 30.384H20.5356C20.4269 30.3647 20.3178 30.3473 20.2085 30.3319C19.9877 30.2997 19.6845 30.2611 19.3564 30.2351C19.036 30.2078 18.7141 30.2015 18.3929 30.2163ZM20.745 29.3622L20.9356 28.3392L20.9543 28.3424L27.921 29.9049L27.9637 29.9194L27.9762 29.9236L28.0241 29.9382L28.22 29.9944C28.3918 30.0424 28.6397 30.1059 28.9345 30.1705C29.5325 30.3017 30.2866 30.4226 30.9908 30.4226C31.6408 30.4226 32.3127 30.6653 32.672 31.3236C32.9804 31.8882 32.9085 32.509 32.7929 32.9382C32.6491 33.4736 32.3512 34.0361 31.9731 34.5142C32.4835 34.3215 33.0418 34.0934 33.6418 33.8476L33.7699 33.7955C35.4606 33.1007 37.4647 32.2778 39.2324 31.9861C41.2533 31.6517 42.7231 32.3851 43.3897 33.6861C43.9835 34.8444 43.846 36.3642 42.9522 37.2799C42.7283 37.5101 42.3866 37.7517 42.0439 37.9736C41.612 38.2501 41.1722 38.514 40.7252 38.7653C39.5744 39.4098 38.4096 40.0287 37.2314 40.6215C34.7616 41.8746 32.172 43.0934 31.3491 43.3944C30.395 43.7434 29.37 43.7767 28.3856 43.7257C27.7915 43.6888 27.1983 43.6384 26.6064 43.5746C26.1585 43.5299 25.7127 43.4861 25.3043 43.4549C23.296 43.3028 21.7543 42.8121 20.3356 42.3611L20.1627 42.3059C18.697 41.8403 17.3335 41.4278 15.5262 41.3549C14.9116 41.3309 13.3835 41.4101 12.5606 41.458L11.4585 41.5226V30.4528L12.1512 30.2069C13.5627 29.7049 16.2991 28.7205 16.9689 28.4153C17.3877 28.2247 17.872 28.1601 18.2731 28.1361C18.688 28.1159 19.1039 28.1232 19.5179 28.158C19.9811 28.1949 20.4423 28.2533 20.9002 28.333L20.9252 28.3372L20.9314 28.3382H20.9356L20.745 29.3632V29.3622Z" fill="#080056"/>
<path fill-rule="evenodd" clip-rule="evenodd" d="M6.25 30.2083C6.25 29.6558 6.46949 29.1259 6.86019 28.7352C7.25089 28.3445 7.7808 28.125 8.33333 28.125H11.4583C12.0109 28.125 12.5408 28.3445 12.9315 28.7352C13.3222 29.1259 13.5417 29.6558 13.5417 30.2083V41.6625C13.5417 42.215 13.3222 42.7449 12.9315 43.1356C12.5408 43.5263 12.0109 43.7458 11.4583 43.7458H8.33333C7.7808 43.7458 7.25089 43.5263 6.86019 43.1356C6.46949 42.7449 6.25 42.215 6.25 41.6625V30.2094V30.2083ZM8.33333 30.2083V41.6625H11.4583V30.2094H8.33333V30.2083Z" fill="#080056"/>
<path fill-rule="evenodd" clip-rule="evenodd" d="M20.1035 19.873L20.1243 19.8521C20.2496 19.726 20.3197 19.5553 20.3191 19.3775C20.3185 19.1998 20.2473 19.0295 20.1212 18.9042C19.9951 18.7789 19.8244 18.7089 19.6466 18.7095C19.4688 18.71 19.2986 18.7812 19.1733 18.9073L17.1316 20.9626C16.9378 21.1575 16.7073 21.3122 16.4535 21.4177C16.1996 21.5232 15.9274 21.5774 15.6525 21.5771H12.9598C12.7821 21.5771 12.6118 21.6477 12.4862 21.7733C12.3605 21.8989 12.29 22.0693 12.29 22.2469C12.29 22.4246 12.3605 22.5949 12.4862 22.7205C12.6118 22.8462 12.7821 22.9167 12.9598 22.9167H15.8348C16.2541 22.9167 16.6691 22.8323 17.0551 22.6686C17.4411 22.5048 17.7902 22.2651 18.0816 21.9636L20.1025 19.873H20.1035ZM15.6535 19.4928H12.9587C12.2284 19.4928 11.528 19.7829 11.0116 20.2993C10.4952 20.8157 10.2051 21.5161 10.2051 22.2464C10.2051 22.9767 10.4952 23.6771 11.0116 24.1935C11.528 24.7099 12.2284 25.0001 12.9587 25.0001H15.8337C16.5325 25.0002 17.2241 24.8597 17.8675 24.587C18.5108 24.3142 19.0927 23.9148 19.5785 23.4126L21.5993 21.3219C22.1143 20.8042 22.4025 20.1031 22.4006 19.3729C22.3986 18.6427 22.1067 17.9431 21.5889 17.4282C21.0712 16.9132 20.3701 16.625 19.6399 16.627C18.9097 16.6289 18.2101 16.9209 17.6952 17.4386L15.6525 19.4928H15.6535Z" fill="#080056"/>
<path fill-rule="evenodd" clip-rule="evenodd" d="M34.1044 13.5395C34.4525 13.5493 34.799 13.4893 35.1234 13.3629C35.4478 13.2365 35.7436 13.0463 35.9933 12.8036C36.2429 12.5609 36.4414 12.2706 36.5769 11.9499C36.7124 11.6292 36.7822 11.2845 36.7822 10.9363C36.7822 10.5882 36.7124 10.2435 36.5769 9.92278C36.4414 9.60205 36.2429 9.31175 35.9933 9.06906C35.7436 8.82636 35.4478 8.6362 35.1234 8.50981C34.799 8.38342 34.4525 8.32337 34.1044 8.33322C33.4268 8.35239 32.7833 8.63505 32.3108 9.12114C31.8383 9.60723 31.5739 10.2584 31.5739 10.9363C31.5739 11.6143 31.8383 12.2654 32.3108 12.7515C32.7833 13.2376 33.4268 13.5203 34.1044 13.5395ZM38.7919 10.9363C38.8051 11.5601 38.6936 12.1802 38.464 12.7603C38.2344 13.3404 37.8913 13.8688 37.4548 14.3146C37.0183 14.7604 36.4972 15.1145 35.9221 15.3563C35.347 15.5981 34.7294 15.7227 34.1055 15.7227C33.4816 15.7227 32.864 15.5981 32.2888 15.3563C31.7137 15.1145 31.1926 14.7604 30.7562 14.3146C30.3197 13.8688 29.9766 13.3404 29.747 12.7603C29.5174 12.1802 29.4059 11.5601 29.419 10.9363C29.4449 9.71052 29.95 8.54363 30.826 7.68584C31.7021 6.82805 32.8794 6.34766 34.1055 6.34766C35.3316 6.34766 36.5088 6.82805 37.3849 7.68584C38.261 8.54363 38.7661 9.71052 38.7919 10.9363Z" fill="#080056"/>
<path fill-rule="evenodd" clip-rule="evenodd" d="M30.9562 24.2643L31.0322 24.3393C31.4907 24.7706 32.1009 25.0034 32.7301 24.9872L32.7707 24.9904C32.7832 24.9924 32.7968 24.9945 32.8114 24.9945L36.0791 24.9904C36.8159 24.9897 37.5222 24.6963 38.0427 24.1748C38.5632 23.6533 38.8553 22.9464 38.8546 22.2096C38.8539 21.4728 38.5605 20.7665 38.0391 20.246C37.5176 19.7255 36.8107 19.4334 36.0739 19.4341H34.0364C33.828 19.4341 32.3176 17.8435 31.1926 16.6247C30.7969 16.1941 30.3164 15.8501 29.7813 15.6142C29.2462 15.3782 28.668 15.2556 28.0832 15.2539H23.0249L23.5124 24.9935H26.7239C27.3739 24.9928 28.0173 24.8613 28.6155 24.607C29.2134 24.3518 30.1301 23.5872 30.2051 23.5122C30.2759 23.4414 30.8864 24.1799 30.9509 24.2581L30.9562 24.2643ZM27.7978 22.6914L27.8468 22.6654C27.8832 22.6445 27.9312 22.6164 27.9884 22.5799C28.1051 22.507 28.2353 22.4154 28.3645 22.3195C28.5079 22.2128 28.6482 22.102 28.7853 21.9872C29.4937 21.3237 30.3322 21.4008 30.6603 21.4706C31.002 21.5435 31.2447 21.6852 31.3332 21.7383C31.4831 21.83 31.6237 21.936 31.753 22.0549C31.9072 22.1935 32.0551 22.3539 32.1541 22.4633C32.2645 22.5852 32.3676 22.7049 32.4405 22.7914L32.4822 22.8414C32.5038 22.8585 32.5276 22.8725 32.553 22.8831L27.7978 22.6914ZM27.7978 22.6904C27.4572 22.8352 27.0916 22.9091 26.7218 22.9112H25.4937L25.2155 17.3372H28.0832C28.6707 17.3372 29.2447 17.5872 29.6614 18.0383C30.2291 18.6529 30.9072 19.3758 31.478 19.9518C31.7593 20.2362 32.0384 20.5091 32.2759 20.7216C32.3905 20.8227 32.5312 20.9445 32.6801 21.0518C32.752 21.1039 32.8687 21.1841 33.0155 21.2612L33.0218 21.2643C33.1072 21.3102 33.5009 21.5174 34.0364 21.5174H36.0739C36.2581 21.5172 36.435 21.5901 36.5655 21.7202C36.696 21.8503 36.7694 22.0269 36.7697 22.2112C36.77 22.3955 36.697 22.5723 36.5669 22.7028C36.4368 22.8333 36.2602 22.9068 36.0759 22.907L32.9093 22.9102C32.8497 22.9058 32.7899 22.9037 32.7301 22.9039H32.6759C32.634 22.9055 32.5921 22.8984 32.553 22.8831" fill="#080056"/>
</svg>
