<svg width="25" height="24" viewBox="0 0 25 24" fill="none" xmlns="http://www.w3.org/2000/svg">
<g clip-path="url(#clip0_11321_189201)">
<path d="M24.8624 21.3431C24.8624 22.0269 24.5908 22.6827 24.1073 23.1663C23.6239 23.6498 22.9681 23.9215 22.2843 23.9216H3.51855C2.83476 23.9215 2.179 23.6498 1.69552 23.1663C1.21204 22.6827 0.94043 22.0269 0.94043 21.3431L0.94043 2.57812C0.940728 1.89446 1.21245 1.23887 1.69587 0.755445C2.1793 0.272017 2.83489 0.000298134 3.51855 0L22.2843 0C22.968 0.000198808 23.6236 0.271886 24.1071 0.755335C24.5905 1.23878 24.8622 1.89442 24.8624 2.57812V21.3431Z" fill="#FE4D3C" fill-opacity="0.1"/>
<path d="M21.1407 5.30261C20.7888 5.00202 20.3319 4.85347 19.8704 4.88961C19.409 4.92576 18.9808 5.14363 18.68 5.49536L11.165 14.2842L7.12208 10.9092C6.96203 10.7716 6.77621 10.6671 6.57542 10.6018C6.37463 10.5366 6.16288 10.5119 5.95247 10.5293C5.74207 10.5466 5.5372 10.6056 5.34979 10.7028C5.16238 10.8 4.99616 10.9335 4.8608 11.0955C4.72543 11.2575 4.62362 11.4448 4.56127 11.6465C4.49893 11.8482 4.4773 12.0603 4.49765 12.2704C4.51799 12.4805 4.57991 12.6845 4.67979 12.8705C4.77967 13.0565 4.91552 13.2208 5.07945 13.3539L10.496 17.8764C10.663 18.0156 10.8569 18.119 11.0656 18.18C11.2743 18.241 11.4933 18.2584 11.7091 18.2311C11.9379 18.2134 12.1609 18.1508 12.3655 18.0468C12.57 17.9428 12.7521 17.7995 12.9012 17.6251L21.3323 7.76261C21.6326 7.41049 21.7809 6.95363 21.7447 6.49229C21.7085 6.03095 21.4907 5.60282 21.1392 5.30185" fill="#FE4D3C"/>
</g>
<defs>
<clipPath id="clip0_11321_189201">
<rect width="24" height="24" fill="white" transform="translate(0.94043)"/>
</clipPath>
</defs>
</svg>
