<svg width="24" height="25" viewBox="0 0 24 25" fill="none" xmlns="http://www.w3.org/2000/svg">
<path d="M11.9023 6.51172C11.309 6.51172 10.729 6.68767 10.2356 7.01731C9.74229 7.34695 9.35777 7.81549 9.13071 8.36367C8.90364 8.91185 8.84423 9.51505 8.95999 10.097C9.07574 10.6789 9.36147 11.2135 9.78102 11.633C10.2006 12.0526 10.7351 12.3383 11.3171 12.4541C11.899 12.5698 12.5022 12.5104 13.0504 12.2834C13.5986 12.0563 14.0671 11.6718 14.3968 11.1784C14.7264 10.6851 14.9023 10.1051 14.9023 9.51172C14.9014 8.71635 14.5851 7.95381 14.0227 7.3914C13.4603 6.82899 12.6977 6.51262 11.9023 6.51172ZM11.9023 11.0117C11.6057 11.0117 11.3157 10.9237 11.069 10.7589C10.8223 10.5941 10.6301 10.3598 10.5165 10.0857C10.403 9.81165 10.3733 9.51005 10.4312 9.21908C10.489 8.92811 10.6319 8.66084 10.8417 8.45106C11.0515 8.24128 11.3187 8.09842 11.6097 8.04054C11.9007 7.98266 12.2023 8.01237 12.4764 8.1259C12.7505 8.23943 12.9847 8.43169 13.1495 8.67836C13.3144 8.92504 13.4023 9.21505 13.4023 9.51172C13.4019 9.9094 13.2437 10.2907 12.9625 10.5719C12.6813 10.8531 12.3 11.0113 11.9023 11.0117Z" fill="#667499"/>
<path d="M17.6666 3.74258C16.2413 2.3176 14.3386 1.47111 12.3259 1.36647C10.3131 1.26183 8.33293 1.90647 6.76751 3.17597C5.20209 4.44547 4.16241 6.24984 3.84912 8.24082C3.53583 10.2318 3.97114 12.2683 5.07105 13.9572L10.7386 22.6578C10.8647 22.8514 11.0371 23.0104 11.2403 23.1206C11.4434 23.2307 11.6708 23.2883 11.9019 23.2883C12.1329 23.2883 12.3604 23.2307 12.5635 23.1206C12.7666 23.0104 12.9391 22.8514 13.0652 22.6578L18.7329 13.9572C19.7535 12.3905 20.2045 10.5206 20.0104 8.66087C19.8163 6.80118 18.9888 5.06473 17.6666 3.74258ZM17.4761 13.1384L11.9019 21.6954L6.32767 13.1384C4.62142 10.5191 4.98737 7.01376 7.19781 4.80323C7.81556 4.18546 8.54893 3.69543 9.35606 3.3611C10.1632 3.02677 11.0283 2.85469 11.9019 2.85469C12.7755 2.85469 13.6406 3.02677 14.4478 3.3611C15.2549 3.69543 15.9883 4.18546 16.606 4.80323C18.8164 7.01376 19.1823 10.5191 17.4761 13.1384Z" fill="#667499"/>
</svg>
