<svg width="24" height="24" viewBox="0 0 24 24" fill="none" xmlns="http://www.w3.org/2000/svg">
<path d="M10.9528 11.1268C10.0298 11.1268 9.12757 10.8531 8.36014 10.3403C7.59271 9.82754 6.99457 9.0987 6.64136 8.24598C6.28815 7.39326 6.19574 6.45495 6.3758 5.5497C6.55587 4.64446 7.00032 3.81294 7.65297 3.16029C8.30562 2.50765 9.13714 2.06319 10.0424 1.88313C10.9476 1.70306 11.8859 1.79548 12.7387 2.14869C13.5914 2.5019 14.3202 3.10004 14.833 3.86746C15.3458 4.63489 15.6195 5.53715 15.6195 6.46013C15.6195 7.6978 15.1278 8.88479 14.2526 9.75996C13.3775 10.6351 12.1905 11.1268 10.9528 11.1268ZM10.9528 3.18013C10.2935 3.18013 9.64907 3.37562 9.1009 3.74189C8.55274 4.10817 8.1255 4.62876 7.8732 5.23785C7.62091 5.84693 7.5549 6.51716 7.68352 7.16376C7.81213 7.81036 8.1296 8.40431 8.59578 8.87048C9.06195 9.33666 9.6559 9.65413 10.3025 9.78274C10.9491 9.91136 11.6193 9.84535 12.2284 9.59306C12.8375 9.34077 13.3581 8.91352 13.7244 8.36536C14.0906 7.8172 14.2861 7.17273 14.2861 6.51346C14.2861 6.07572 14.1999 5.64227 14.0324 5.23785C13.8649 4.83343 13.6194 4.46597 13.3098 4.15644C13.0003 3.84691 12.6328 3.60138 12.2284 3.43386C11.824 3.26635 11.3905 3.18013 10.9528 3.18013Z" fill="#FE4D3C"/>
<path d="M14.6666 11.9333C11.0589 11.1215 7.28459 11.5125 3.91991 13.0466C3.45717 13.2676 3.06675 13.6156 2.7941 14.0499C2.52146 14.4843 2.37782 14.9871 2.37991 15.4999V19.4666C2.37991 19.5542 2.39715 19.6408 2.43065 19.7217C2.46416 19.8026 2.51326 19.8761 2.57517 19.938C2.63707 19.9999 2.71057 20.049 2.79145 20.0825C2.87233 20.116 2.95902 20.1333 3.04657 20.1333C3.13412 20.1333 3.22081 20.116 3.30169 20.0825C3.38258 20.049 3.45607 19.9999 3.51798 19.938C3.57988 19.8761 3.62899 19.8026 3.66249 19.7217C3.69599 19.6408 3.71324 19.5542 3.71324 19.4666V15.4999C3.70743 15.2404 3.77752 14.9848 3.91489 14.7646C4.05226 14.5443 4.25095 14.3689 4.48657 14.2599C6.51342 13.3241 8.72078 12.8439 10.9532 12.8533C12.2041 12.8517 13.4507 12.9994 14.6666 13.2933V11.9333Z" fill="#FE4D3C"/>
<path d="M14.7598 18.2734H18.8531V19.2068H14.7598V18.2734Z" fill="#FE4D3C"/>
<path d="M22.1137 14.3137H18.667V15.647H21.447V21.227H12.0003V15.647H16.2003V15.927C16.2003 16.1038 16.2706 16.2734 16.3956 16.3984C16.5206 16.5234 16.6902 16.5937 16.867 16.5937C17.0438 16.5937 17.2134 16.5234 17.3384 16.3984C17.4634 16.2734 17.5337 16.1038 17.5337 15.927V13.3337C17.5337 13.1568 17.4634 12.9873 17.3384 12.8623C17.2134 12.7372 17.0438 12.667 16.867 12.667C16.6902 12.667 16.5206 12.7372 16.3956 12.8623C16.2706 12.9873 16.2003 13.1568 16.2003 13.3337V14.3137H11.3337C11.1568 14.3137 10.9873 14.3839 10.8623 14.5089C10.7372 14.6339 10.667 14.8035 10.667 14.9803V21.8937C10.667 22.0705 10.7372 22.24 10.8623 22.3651C10.9873 22.4901 11.1568 22.5603 11.3337 22.5603H22.1137C22.2905 22.5603 22.46 22.4901 22.5851 22.3651C22.7101 22.24 22.7803 22.0705 22.7803 21.8937V14.9803C22.7803 14.8035 22.7101 14.6339 22.5851 14.5089C22.46 14.3839 22.2905 14.3137 22.1137 14.3137Z" fill="#FE4D3C"/>
</svg>
