<svg width="38" height="39" viewBox="0 0 38 39" fill="none" xmlns="http://www.w3.org/2000/svg">
<path fill-rule="evenodd" clip-rule="evenodd" d="M11.5931 4.71444L11.6504 4.46444C11.7597 3.99986 11.9389 3.31652 12.3087 2.64361C12.6858 1.95819 13.2702 1.2634 14.1868 0.806107C15.1004 0.350899 16.2452 0.181107 17.6608 0.368607C19.2233 0.576941 22.3618 1.09361 25.1347 2.50402C27.9233 3.92277 30.5358 6.3634 30.5358 10.428C30.5358 12.528 29.7233 14.7811 28.9358 16.2499C28.5577 16.9561 28.1087 17.6311 27.6587 17.9947C27.5556 18.078 27.4087 18.1822 27.2264 18.2551C26.7264 19.8984 25.731 21.3471 24.3764 22.4032C23.0217 23.4594 21.374 24.0713 19.6584 24.1555C17.9427 24.2396 16.243 23.7918 14.7915 22.8732C13.3401 21.9547 12.2077 20.6103 11.5493 19.0238L11.5243 19.028L11.1545 18.579L11.9587 17.9165L11.1545 18.579L11.1535 18.5769L11.1514 18.5749L11.1462 18.5676L11.1285 18.5467C11.0393 18.4358 10.9535 18.3222 10.8712 18.2061C10.6463 17.8941 10.4343 17.573 10.2358 17.2436C9.7462 16.4332 9.15558 15.279 8.77745 13.9321C8.40037 12.5853 8.22745 11.0061 8.62328 9.37694C9.0087 7.79152 9.91808 6.23111 11.565 4.83736L11.5931 4.71444ZM13.3431 17.879C13.7949 19.1782 14.6624 20.2922 15.8114 21.0485C16.9603 21.8047 18.3266 22.161 19.6986 22.0622C21.0705 21.9634 22.3716 21.4149 23.4003 20.5018C24.4291 19.5887 25.128 18.3619 25.3889 17.0113L25.5066 17.0509C25.5025 16.992 25.5004 16.9329 25.5004 16.8738C25.5004 15.1499 25.2608 13.9467 25.0379 13.1967C24.9943 13.0507 24.946 12.9062 24.8931 12.7634L24.8504 12.7655H24.8087C24.0298 12.7823 23.2511 12.723 22.4837 12.5884C20.6952 12.2863 18.2733 11.5322 15.4212 9.78527C15.3587 9.92486 15.2962 10.0822 15.2337 10.2571C15.0295 10.8353 14.8618 11.5217 14.717 12.2467C14.5889 12.8853 14.4837 13.528 14.3837 14.1301L14.3452 14.3676C14.2379 15.0134 14.1306 15.6478 14.0056 16.1072C13.7868 16.9051 13.5639 17.4717 13.3431 17.878V17.879ZM11.8847 15.9384C11.492 15.2551 11.0629 14.3655 10.7847 13.3707C10.4733 12.2603 10.3587 11.0582 10.6483 9.86965C10.9295 8.7134 11.6097 7.49777 13.0087 6.34569C13.2608 6.17486 13.3754 5.94569 13.4066 5.88423V5.88319C13.4613 5.77057 13.5053 5.65303 13.5379 5.53215C13.5712 5.4134 13.6077 5.2509 13.642 5.10507L13.6785 4.94152C13.7774 4.52173 13.9056 4.06444 14.1347 3.64673C14.3577 3.24257 14.6629 2.89673 15.117 2.67069C15.5733 2.44257 16.2795 2.28632 17.3858 2.43423C18.8993 2.63527 21.7462 3.11757 24.19 4.36132C26.617 5.59569 28.4525 7.46444 28.4525 10.428C28.4525 11.7926 27.9941 13.3446 27.442 14.5686C27.3379 13.7707 27.1879 13.1186 27.0337 12.6019C26.9262 12.2327 26.7922 11.8717 26.6327 11.5217C26.5725 11.392 26.5065 11.2652 26.4347 11.1415L26.417 11.1134L26.4108 11.103L26.4077 11.0978L26.4056 11.0947L25.5306 11.6572L26.4056 11.0947L26.0202 10.4967L25.3306 10.6353L25.316 10.6384L25.215 10.6519C25.0599 10.6692 24.9042 10.6796 24.7483 10.6832C24.106 10.6956 23.4641 10.6454 22.8316 10.5332C21.1514 10.2499 18.6827 9.47798 15.6837 7.48111L14.9545 6.99465L14.3514 7.63007C13.8545 8.15298 13.517 8.86652 13.2702 9.56132C13.0181 10.2749 12.8275 11.0717 12.6743 11.8363C12.5389 12.5134 12.4264 13.1936 12.3285 13.7946L12.2889 14.028C12.1774 14.7061 12.0868 15.2238 11.9952 15.5592C11.9577 15.6967 11.9212 15.8238 11.8847 15.9384ZM26.3441 16.378L26.3483 16.3759L26.3441 16.378ZM26.3483 16.3759L26.3441 16.378L26.3472 16.3759H26.3483Z" fill="white"/>
<path fill-rule="evenodd" clip-rule="evenodd" d="M12.9104 25.0568C12.6896 24.6172 12.4177 24.0745 11.9583 24.1797C6.32917 25.461 0.5 29.16 0.5 33.0933V38.7495H38V33.0933C38 29.9954 34.3833 27.0422 30.0969 25.3016L30.0917 25.2912C30.0869 25.2818 30.082 25.2724 30.0771 25.2631L30.0427 25.2797C28.9042 24.8214 27.7187 24.4464 26.5417 24.1797C26.0177 24.06 25.476 24.7808 25.2396 25.2318H13C12.9708 25.1777 12.9417 25.1172 12.9104 25.0568ZM26.9615 26.4318C27.4167 26.5579 27.8698 26.6995 28.3167 26.8558C28.3292 27.212 28.3021 27.6329 28.2437 28.062C28.1844 28.5064 28.0896 28.9453 27.9604 29.3745H26.5417C26.3483 29.3746 26.1587 29.4286 25.9942 29.5303C25.8298 29.6321 25.6969 29.7776 25.6104 29.9506L24.5688 32.0339C24.4963 32.1785 24.4585 32.3379 24.4583 32.4995V34.5829C24.4583 34.8591 24.5681 35.1241 24.7634 35.3194C24.9588 35.5148 25.2237 35.6245 25.5 35.6245H27.5833V33.5412H26.5417V32.7454L27.1854 31.4579H30.0646L30.7083 32.7454V33.5412H29.6667V35.6245H31.75C32.0263 35.6245 32.2912 35.5148 32.4866 35.3194C32.6819 35.1241 32.7917 34.8591 32.7917 34.5829V32.4995C32.7915 32.3379 32.7537 32.1785 32.6813 32.0339L31.6396 29.9506C31.5531 29.7776 31.4202 29.6321 31.2558 29.5303C31.0913 29.4286 30.9017 29.3746 30.7083 29.3745H30.1187C30.2475 28.8233 30.3338 28.2629 30.3771 27.6985C31.3927 28.1787 32.3365 28.7297 33.1542 29.3256C35.1562 30.786 35.9167 32.1527 35.9167 33.0933V36.6662H2.58333V33.0933C2.58333 32.1527 3.34375 30.786 5.34583 29.3256C6.35208 28.5912 7.55312 27.9266 8.84062 27.3766C8.85417 27.6995 8.88542 28.0266 8.92812 28.3433C9 28.8641 9.10729 29.3829 9.2375 29.8287L9.24583 29.8579C8.62309 30.2518 8.1596 30.8532 7.93722 31.5558C7.71485 32.2583 7.74791 33.0168 8.03054 33.6974C8.31318 34.3779 8.82723 34.9367 9.48188 35.275C10.1365 35.6133 10.8897 35.7094 11.6083 35.5462C12.3269 35.3831 12.9648 34.9713 13.4092 34.3835C13.8536 33.7957 14.0761 33.0698 14.0372 32.3339C13.9983 31.598 13.7006 30.8996 13.1967 30.3619C12.6928 29.8242 12.0151 29.4819 11.2833 29.3954C11.1502 28.9595 11.0527 28.5136 10.9917 28.062C10.9337 27.6582 10.9096 27.2501 10.9198 26.8423C10.9229 26.7548 10.9292 26.6777 10.9354 26.6089C11.0604 26.5704 11.1854 26.5329 11.3104 26.4975L11.7427 27.3162H26.4969L26.9615 26.4329V26.4318ZM10.9167 33.5579C11.4771 33.5579 11.9583 33.0995 11.9583 32.5006C11.9583 31.9027 11.4771 31.4433 10.9167 31.4433C10.3562 31.4433 9.875 31.9016 9.875 32.5006C9.875 33.0985 10.3562 33.5579 10.9167 33.5579Z" fill="white"/>
</svg>
