<svg width="51" height="50" viewBox="0 0 51 50" fill="none" xmlns="http://www.w3.org/2000/svg">
<path fill-rule="evenodd" clip-rule="evenodd" d="M41.125 8.33333H9.875C9.59873 8.33333 9.33378 8.44308 9.13843 8.63843C8.94308 8.83378 8.83333 9.09873 8.83333 9.375V40.625C8.83333 40.9013 8.94308 41.1662 9.13843 41.3616C9.33378 41.5569 9.59873 41.6667 9.875 41.6667H41.125C41.4013 41.6667 41.6662 41.5569 41.8616 41.3616C42.0569 41.1662 42.1667 40.9013 42.1667 40.625V9.375C42.1667 9.09873 42.0569 8.83378 41.8616 8.63843C41.6662 8.44308 41.4013 8.33333 41.125 8.33333ZM9.875 6.25C9.0462 6.25 8.25134 6.57924 7.66529 7.16529C7.07924 7.75134 6.75 8.5462 6.75 9.375V40.625C6.75 41.4538 7.07924 42.2487 7.66529 42.8347C8.25134 43.4208 9.0462 43.75 9.875 43.75H41.125C41.9538 43.75 42.7487 43.4208 43.3347 42.8347C43.9208 42.2487 44.25 41.4538 44.25 40.625V9.375C44.25 8.5462 43.9208 7.75134 43.3347 7.16529C42.7487 6.57924 41.9538 6.25 41.125 6.25H9.875Z" fill="#080056"/>
<path fill-rule="evenodd" clip-rule="evenodd" d="M13.1981 21.1208C13.1981 16.6479 16.0939 12.5 20.0627 12.5C22.8158 12.5 24.8585 14.3615 26.12 17C27.3804 14.3615 29.4231 12.5 32.1772 12.5C36.145 12.5 39.0418 16.6479 39.0418 21.1208C39.0418 30.6937 26.12 37.5 26.12 37.5C26.12 37.5 17.5106 33.2396 14.346 26.2448H18.2772L20.021 23.1958L22.0585 30.2083L26.8293 24.1771H31.7095C31.8506 24.1783 31.9905 24.1517 32.1213 24.0988C32.2521 24.0459 32.3712 23.9677 32.4717 23.8687C32.5722 23.7698 32.6522 23.6519 32.7072 23.522C32.7621 23.392 32.7909 23.2525 32.7918 23.1115C32.7907 22.9705 32.7619 22.8311 32.7069 22.7013C32.6519 22.5714 32.5718 22.4537 32.4713 22.3549C32.3708 22.256 32.2518 22.1779 32.1211 22.125C31.9904 22.0722 31.8505 22.0456 31.7095 22.0469H25.771L22.9679 25.5917L20.6762 17.7073L17.0116 24.1156H13.5877C13.3377 23.1573 13.197 22.1583 13.197 21.1198L13.1981 21.1208ZM13.5772 24.1167H8.8335V26.2448H14.3387L13.5783 24.1167H13.5772Z" fill="#080056"/>
</svg>
