<svg width="212" height="212" viewBox="0 0 212 212" fill="none" xmlns="http://www.w3.org/2000/svg">
<path d="M70.0402 32.1185C70.0402 32.1185 37.9138 48.4892 21.8908 73.7129C5.86785 98.9367 7.13561 131.377 26.6057 155.452C46.0758 179.526 83.2902 176.385 114.45 191.649C145.61 206.913 179.988 203.766 194.722 171.441C209.456 139.115 187.238 127.018 183.422 89.6172C179.606 52.2161 145.885 -2.54349 70.0402 32.1185Z" fill="#C2C7D6"/>
<path opacity="0.7" d="M70.0402 32.1185C70.0402 32.1185 37.9138 48.4892 21.8908 73.7129C5.86785 98.9367 7.13561 131.377 26.6057 155.452C46.0758 179.526 83.2902 176.385 114.45 191.649C145.61 206.913 179.988 203.766 194.722 171.441C209.456 139.115 187.238 127.018 183.422 89.6172C179.606 52.2161 145.885 -2.54349 70.0402 32.1185Z" fill="white"/>
<path d="M198.093 115.965H196.333V115.664C196.332 114.842 196.005 114.055 195.424 113.473C194.843 112.892 194.056 112.566 193.234 112.564H192.043C191.22 112.564 190.431 112.891 189.849 113.472C189.267 114.053 188.94 114.841 188.939 115.664V115.965H187.183C186.949 115.964 186.717 116.01 186.5 116.1C186.283 116.189 186.086 116.321 185.92 116.487C185.754 116.652 185.623 116.849 185.533 117.066C185.444 117.283 185.398 117.515 185.398 117.75V125.882C185.398 126.356 185.587 126.81 185.921 127.144C186.256 127.479 186.71 127.667 187.183 127.667H198.093C198.566 127.666 199.019 127.478 199.354 127.143C199.688 126.809 199.877 126.355 199.878 125.882V117.75C199.878 117.277 199.69 116.823 199.355 116.488C199.02 116.153 198.566 115.965 198.093 115.965ZM189.787 115.664C189.788 115.066 190.026 114.494 190.449 114.072C190.872 113.65 191.445 113.412 192.043 113.412H193.234C193.831 113.412 194.404 113.65 194.826 114.072C195.248 114.494 195.485 115.067 195.485 115.664V115.965H189.787V115.664Z" fill="#263238"/>
<path d="M195.887 120.985H193.64V118.742H191.63V120.985H189.383V122.999H191.63V125.242H193.64V122.999H195.887V120.985Z" fill="white"/>
<path d="M194.612 67.5015C194.262 67.5015 193.916 67.4326 193.593 67.2987C193.27 67.1648 192.977 66.9686 192.73 66.7213C192.483 66.474 192.288 66.1804 192.154 65.8574C192.021 65.5344 191.953 65.1882 191.953 64.8388V57.6647C191.953 57.3152 192.021 56.969 192.154 56.646C192.288 56.323 192.483 56.0294 192.73 55.7821C192.977 55.5348 193.27 55.3386 193.593 55.2047C193.916 55.0709 194.262 55.002 194.612 55.002C194.961 55.002 195.307 55.0709 195.63 55.2047C195.953 55.3386 196.246 55.5348 196.493 55.7821C196.74 56.0294 196.936 56.323 197.069 56.646C197.202 56.969 197.271 57.3152 197.27 57.6647V64.826C197.272 65.1766 197.205 65.5241 197.073 65.8486C196.94 66.1731 196.745 66.4682 196.497 66.7168C196.25 66.9655 195.957 67.1628 195.633 67.2975C195.309 67.4322 194.962 67.5015 194.612 67.5015Z" fill="white" stroke="#263238" stroke-linecap="round" stroke-linejoin="round"/>
<path d="M194.612 67.5014C194.262 67.5014 193.916 67.4325 193.593 67.2986C193.27 67.1647 192.977 66.9685 192.73 66.7212C192.483 66.4739 192.288 66.1803 192.154 65.8573C192.021 65.5343 191.953 65.1881 191.953 64.8387V61.2559H197.27V64.8387C197.271 65.1881 197.202 65.5343 197.069 65.8573C196.936 66.1803 196.74 66.4739 196.493 66.7212C196.246 66.9685 195.953 67.1647 195.63 67.2986C195.307 67.4325 194.961 67.5014 194.612 67.5014Z" fill="#263238" stroke="#263238" stroke-linecap="round" stroke-linejoin="round"/>
<path d="M181.239 56.9357C181.02 56.6627 180.857 56.3492 180.76 56.0131C180.663 55.6771 180.634 55.3252 180.673 54.9777C180.713 54.6302 180.82 54.2939 180.99 53.9881C181.16 53.6824 181.388 53.4132 181.663 53.196L187.247 48.7101C187.8 48.2705 188.504 48.0683 189.206 48.1478C189.908 48.2273 190.55 48.582 190.991 49.1341C191.43 49.6864 191.632 50.3905 191.553 51.0917C191.473 51.7929 191.118 52.4339 190.567 52.8738L184.978 57.3555C184.705 57.5738 184.392 57.7361 184.056 57.8331C183.72 57.9302 183.369 57.9601 183.021 57.9211C182.674 57.8821 182.338 57.775 182.032 57.6059C181.726 57.4368 181.456 57.2091 181.239 56.9357Z" fill="white" stroke="#263238" stroke-linecap="round" stroke-linejoin="round"/>
<path d="M181.239 56.9358C181.02 56.6627 180.857 56.3492 180.76 56.0132C180.663 55.6772 180.634 55.3253 180.673 54.9778C180.713 54.6303 180.82 54.294 180.99 53.9882C181.16 53.6824 181.388 53.4132 181.663 53.1961L184.457 50.9531L187.785 55.1041L184.991 57.3428C184.718 57.5638 184.405 57.7286 184.068 57.8278C183.732 57.927 183.379 57.9586 183.03 57.9208C182.681 57.8829 182.343 57.7764 182.036 57.6073C181.728 57.4383 181.457 57.21 181.239 56.9358Z" fill="#263238" stroke="#263238" stroke-linecap="round" stroke-linejoin="round"/>
<path d="M154.65 37.4145C154.319 37.4147 153.995 37.5185 153.726 37.7113L147.548 32.9159C147.851 32.3556 147.993 31.7224 147.958 31.0864C147.924 30.4504 147.715 29.8363 147.353 29.3119L151.127 24.4868C151.446 24.6099 151.796 24.6276 152.127 24.5372C152.457 24.4468 152.749 24.2531 152.961 23.9845C153.173 23.7158 153.294 23.3863 153.305 23.0443C153.316 22.7022 153.218 22.3655 153.024 22.0834C152.83 21.8014 152.551 21.5888 152.228 21.4768C151.904 21.3649 151.553 21.3594 151.226 21.4612C150.9 21.5631 150.614 21.7668 150.412 22.0427C150.209 22.3185 150.1 22.652 150.101 22.9943C150.099 23.3242 150.201 23.6462 150.393 23.9144L146.721 28.6165C146.229 28.2019 145.631 27.9327 144.994 27.8391C144.357 27.7455 143.707 27.8312 143.116 28.0865C142.525 28.3419 142.017 28.7569 141.649 29.2849C141.28 29.8129 141.067 30.433 141.031 31.0757H136.74C136.693 30.6949 136.511 30.3434 136.227 30.0854C135.944 29.8273 135.576 29.6797 135.193 29.6693C134.809 29.659 134.435 29.7867 134.137 30.0291C133.84 30.2715 133.639 30.6127 133.572 30.9905C133.504 31.3683 133.575 31.7577 133.77 32.0879C133.966 32.4181 134.273 32.6673 134.637 32.79C135.001 32.9127 135.396 32.9009 135.752 32.7568C136.107 32.6126 136.399 32.3456 136.575 32.0043H141.112C141.244 32.6208 141.543 33.1894 141.975 33.6491C142.406 34.1087 142.955 34.4419 143.562 34.6128C144.169 34.7837 144.811 34.786 145.42 34.6192C146.028 34.4524 146.579 34.123 147.014 33.6664L153.158 38.4449C153.036 38.7636 153.02 39.1127 153.112 39.4413C153.203 39.7698 153.397 40.0605 153.665 40.2709C153.934 40.4813 154.262 40.6004 154.603 40.6108C154.944 40.6211 155.279 40.5222 155.56 40.3285C155.84 40.1348 156.052 39.8564 156.163 39.534C156.274 39.2116 156.279 38.8622 156.178 38.5366C156.076 38.2111 155.873 37.9267 155.598 37.7248C155.323 37.5229 154.991 37.4142 154.65 37.4145Z" fill="#263238"/>
<path d="M29.1642 67.5516C28.6507 67.5505 28.1585 67.346 27.7953 66.9829C27.4322 66.6197 27.2277 66.1275 27.2266 65.614V49.502H31.1019V65.614C31.1019 66.1279 30.8978 66.6207 30.5344 66.9841C30.171 67.3475 29.6781 67.5516 29.1642 67.5516Z" fill="white" stroke="#263238" stroke-linecap="round" stroke-linejoin="round"/>
<path d="M29.1642 67.5516C28.6507 67.5505 28.1585 67.346 27.7953 66.9829C27.4322 66.6197 27.2277 66.1275 27.2266 65.614V55.7051H31.1019V65.614C31.1019 66.1279 30.8978 66.6207 30.5344 66.9841C30.171 67.3475 29.6781 67.5516 29.1642 67.5516Z" fill="#263238" stroke="#263238" stroke-linecap="round" stroke-linejoin="round"/>
<path d="M31.6539 48.5605H26.6719V49.9725H31.6539V48.5605Z" fill="white" stroke="#263238" stroke-linecap="round" stroke-linejoin="round"/>
<path d="M23.2892 67.5516C22.7757 67.5505 22.2835 67.346 21.9203 66.9829C21.5572 66.6197 21.3527 66.1275 21.3516 65.614V49.502H25.2269V65.614C25.2269 66.1279 25.0228 66.6207 24.6594 66.9841C24.296 67.3475 23.8031 67.5516 23.2892 67.5516Z" fill="white" stroke="#263238" stroke-linecap="round" stroke-linejoin="round"/>
<path d="M23.2892 67.5516C22.7757 67.5505 22.2835 67.346 21.9203 66.9829C21.5572 66.6197 21.3527 66.1275 21.3516 65.614V55.7051H25.2269V65.614C25.2269 66.1279 25.0228 66.6207 24.6594 66.9841C24.296 67.3475 23.8031 67.5516 23.2892 67.5516Z" fill="#263238" stroke="#263238" stroke-linecap="round" stroke-linejoin="round"/>
<path d="M25.7789 48.5605H20.7969V49.9725H25.7789V48.5605Z" fill="white" stroke="#263238" stroke-linecap="round" stroke-linejoin="round"/>
<path d="M79.1928 32.6787L80.7362 28.973C80.7624 28.9133 80.8059 28.8628 80.861 28.828C80.9162 28.7933 80.9805 28.7758 81.0457 28.7779C81.111 28.7812 81.1738 28.8045 81.2254 28.8447C81.2769 28.8849 81.3149 28.9401 81.334 29.0027L83.2038 35.1676L84.6285 30.6266C84.6481 30.5627 84.6873 30.5066 84.7406 30.4662C84.7938 30.4259 84.8585 30.4034 84.9253 30.4019C84.9913 30.4037 85.0553 30.4247 85.1095 30.4623C85.1638 30.5 85.2058 30.5526 85.2306 30.6139L86.0234 32.895H90.3101C91.1873 31.9782 91.6973 30.7711 91.7432 29.503C91.7513 28.3185 91.3216 27.1728 90.5365 26.2858C89.7514 25.3989 88.6663 24.8333 87.4895 24.6976C86.3128 24.562 85.1275 24.8658 84.1612 25.5509C83.1948 26.2359 82.5157 27.2538 82.2541 28.4091C81.9847 27.2619 81.3031 26.2538 80.3389 25.5764C79.3747 24.899 78.1951 24.5996 77.0246 24.7352C75.8541 24.8708 74.7742 25.4319 73.9904 26.3117C73.2065 27.1916 72.7734 28.3289 72.7734 29.5072C72.8206 30.6816 73.2611 31.8061 74.0242 32.6999L79.1928 32.6787Z" fill="#263238"/>
<path d="M85.8005 33.5312C85.7345 33.5315 85.6701 33.5112 85.6162 33.4732C85.5622 33.4352 85.5214 33.3814 85.4995 33.3192L84.9483 31.7334L83.5024 36.3423C83.4818 36.4072 83.4412 36.4639 83.3863 36.5043C83.3315 36.5447 83.2652 36.5666 83.1971 36.567C83.1289 36.5668 83.0626 36.5443 83.0082 36.503C82.9539 36.4617 82.9145 36.4038 82.8961 36.3381L80.9839 30.0332L79.7119 33.1199C79.6877 33.1776 79.647 33.2269 79.595 33.2616C79.543 33.2962 79.4818 33.3148 79.4193 33.315H74.5391C75.5863 34.4852 76.8923 35.5198 77.8675 36.4822C79.343 37.9408 80.7888 39.4502 82.294 40.8579C84.2232 38.9542 86.1651 37.0419 88.0774 35.1382C88.6074 34.6082 89.184 34.0824 89.7183 33.5312H85.8005Z" fill="#263238"/>
<path d="M14.2725 128.3L16.3516 129.021L18.6012 122.536L16.5221 121.815L14.2725 128.3Z" fill="white" stroke="#263238" stroke-miterlimit="10"/>
<path d="M13.2913 129.33L16.5 130.443L16.9238 129.222L13.7151 128.109L13.2913 129.33Z" fill="white" stroke="#263238" stroke-miterlimit="10"/>
<path d="M14.2355 123.485L19.375 125.268L23.4504 113.518L18.3109 111.736L14.2355 123.485Z" fill="white" stroke="#263238" stroke-miterlimit="10"/>
<path d="M16.7299 118.458L20.5234 119.773L22.773 113.288L18.9795 111.972L16.7299 118.458Z" fill="#263238" stroke="#263238" stroke-miterlimit="10"/>
<path d="M16.0616 123.16L18.1406 123.881L20.3902 117.395L18.3112 116.674L16.0616 123.16Z" fill="#263238" stroke="#263238" stroke-miterlimit="10"/>
<path d="M13.8696 123.361L19.7422 125.398L20.2521 123.928L14.3796 121.891L13.8696 123.361Z" fill="white" stroke="#263238" stroke-miterlimit="10"/>
<path d="M19.5567 111.489L22.6172 112.551L23.2967 110.592L20.2362 109.53L19.5567 111.489Z" fill="white" stroke="#263238" stroke-miterlimit="10"/>
<path d="M17.8149 111.979L23.6875 114.016L24.1974 112.545L18.3249 110.508L17.8149 111.979Z" fill="white" stroke="#263238" stroke-miterlimit="10"/>
<path d="M21.8047 109.795L24.2639 102.697" stroke="#263238" stroke-miterlimit="10"/>
<path d="M158.532 198.008C170.786 198.008 180.72 195.768 180.72 193.005C180.72 190.242 170.786 188.002 158.532 188.002C146.278 188.002 136.344 190.242 136.344 193.005C136.344 195.768 146.278 198.008 158.532 198.008Z" fill="#263238" stroke="#263238" stroke-linecap="round" stroke-linejoin="round"/>
<path d="M141.422 79.916C141.422 79.916 138.42 81.7519 138.454 82.5575C138.488 83.3631 137.335 98.0547 137.203 99.8907C137.072 101.727 135.325 105.517 135.189 107.239C135.054 108.96 135.486 110.686 135.991 111.479C136.495 112.271 138.348 114.807 138.348 114.807L143.33 107.111C143.452 105.431 143.478 103.745 143.406 102.062C143.33 98.3939 141.422 79.916 141.422 79.916Z" fill="white" stroke="#263238" stroke-linecap="round" stroke-linejoin="round"/>
<path d="M160.592 43.5112C160.592 43.5112 155.292 43.172 152.273 46.848C149.255 50.5241 149.903 56.1464 149.882 57.8721C149.861 59.5977 144.735 64.6561 145.303 66.7167C145.871 68.7773 147.381 69.0105 146.897 70.732C146.414 72.4534 143.259 73.488 143.717 75.6716C144.175 77.8552 145.837 80.9504 145.837 80.9504L176.365 81.1581C176.365 81.1581 177.455 77.9442 176.293 75.5317C175.131 73.1191 173.482 72.322 173.749 71.1729C174.016 70.0239 175.492 67.2679 174.924 65.203C174.355 63.1381 172.38 62.5657 172.172 58.8897C171.964 55.2136 171.421 49.1377 168.504 46.1697C165.587 43.2017 160.592 43.5112 160.592 43.5112Z" fill="#263238" stroke="#263238" stroke-linecap="round" stroke-linejoin="round"/>
<path d="M151.203 185.174C150.265 186.981 149.127 188.676 147.811 190.228C145.86 192.412 143.969 193.561 144.033 194.71C144.096 195.859 148.353 196.084 150.605 195.278C152.856 194.472 154.493 192.865 154.947 192.734C155.4 192.602 156.668 192.734 156.698 191.123C156.727 189.512 156.481 184.924 156.481 184.924L151.203 185.174Z" fill="white" stroke="#263238" stroke-linecap="round" stroke-linejoin="round"/>
<path d="M150.601 195.278C152.856 194.473 154.489 192.866 154.942 192.734C155.396 192.603 156.664 192.734 156.693 191.123C156.693 190.275 156.647 188.579 156.587 187.193C156.254 187.818 155.76 188.344 155.157 188.717C154.553 189.089 153.862 189.295 153.153 189.313C153.153 189.313 153.111 188.507 151.881 187.133C151.088 186.235 150.287 186.943 149.82 187.557L149.443 188.126L149.413 188.181C148.924 188.903 148.389 189.592 147.811 190.246C145.86 192.429 143.969 193.578 144.033 194.727C144.096 195.876 148.349 196.084 150.601 195.278Z" fill="white" stroke="#263238" stroke-linecap="round" stroke-linejoin="round"/>
<path d="M166.914 185.166C168.054 186.979 169.375 188.671 170.857 190.216C173.041 192.395 175.055 193.54 175.097 194.689C175.14 195.838 170.925 196.067 168.585 195.266C166.244 194.464 164.438 192.857 163.976 192.743C163.514 192.629 162.25 192.743 162.051 191.14C161.852 189.538 161.602 184.941 161.602 184.941L166.914 185.166Z" fill="white" stroke="#263238" stroke-linecap="round" stroke-linejoin="round"/>
<path d="M168.598 195.265C166.261 194.464 164.451 192.857 163.989 192.742C163.527 192.628 162.263 192.742 162.064 191.14C161.958 190.292 161.839 188.596 161.75 187.205C162.142 187.827 162.681 188.343 163.319 188.708C163.957 189.073 164.674 189.276 165.409 189.3C165.409 189.3 165.367 188.494 166.439 187.116C167.139 186.221 168.017 186.925 168.559 187.54C168.699 187.726 168.844 187.913 168.983 188.108L169.022 188.163C169.591 188.884 170.2 189.573 170.845 190.228C173.028 192.407 175.042 193.552 175.085 194.701C175.127 195.85 170.938 196.067 168.598 195.265Z" fill="white" stroke="#263238" stroke-linecap="round" stroke-linejoin="round"/>
<path d="M141.984 124.572C141.984 124.572 142.692 148.448 143.634 153.154C144.575 157.861 148.777 184.836 148.777 184.836C150.061 185.379 151.444 185.65 152.839 185.633H157.431L157.855 165.544L158.012 136.385L160.314 185.743C160.314 185.743 166.64 185.968 167.323 185.853C168.005 185.739 168.573 185.624 168.573 185.624L172.64 154.397L174.967 133.621L175.095 125.357C175.095 125.357 155.658 124.683 150.011 124.225C144.363 123.767 142.039 123.652 142.039 123.652L141.984 124.572Z" fill="#C2C7D6" stroke="#263238" stroke-linecap="round" stroke-linejoin="round"/>
<path d="M168.224 166.725C168.173 167.123 168.122 167.492 168.062 167.831" stroke="#263238" stroke-linecap="round" stroke-linejoin="round"/>
<path d="M168.75 137.982C168.75 137.982 169.144 154.993 168.453 164.228" stroke="#263238" stroke-linecap="round" stroke-linejoin="round"/>
<path d="M147.906 136.617C147.906 136.617 148.394 147.87 148.877 150.393" stroke="#263238" stroke-linecap="round" stroke-linejoin="round"/>
<path d="M166.023 129.447V138.038C167.124 138.334 168.25 138.528 169.386 138.618C171.128 138.733 174.38 138.618 174.38 138.618L174.614 135.366L166.023 129.447Z" fill="#263238" stroke="#263238" stroke-linecap="round" stroke-linejoin="round"/>
<path d="M142.343 136.063C142.343 136.063 146.756 137.458 148.614 137.572C150.471 137.687 152.209 137.92 152.209 137.92L151.98 135.6L142.109 134.672L142.343 136.063Z" fill="#263238" stroke="#263238" stroke-linecap="round" stroke-linejoin="round"/>
<path d="M155.744 70.8379L152.28 74.7429L142.672 81.7516L144.72 124.232C144.72 124.232 152.377 126.293 158.949 126.865C165.521 127.438 173.972 125.932 173.972 125.932L172.729 81.4124C172.729 81.4124 168.99 75.9004 167.073 74.4122C165.157 72.924 164.279 71.546 161.739 71.317C159.199 71.088 155.744 70.8379 155.744 70.8379Z" fill="#C2C7D6" stroke="#263238" stroke-linecap="round" stroke-linejoin="round"/>
<path d="M151.724 72.9281L141.425 79.9368L143.04 105.763L142.493 108.358L138.164 113.344L140.008 122.104L139.186 134.463C139.186 134.463 143.278 135.841 146.05 136.18C148.115 136.402 150.19 136.516 152.266 136.524L152.622 119.649C152.622 119.649 153.992 91.635 154.153 90.3927C154.314 89.1504 155.743 70.8887 155.743 70.8887L151.724 72.9281Z" fill="white" stroke="#263238" stroke-linecap="round" stroke-linejoin="round"/>
<path d="M151.885 73.9844L146.898 86.4881L152.279 88.7226L147.199 89.6469L151.698 107.273" stroke="#263238" stroke-linecap="round" stroke-linejoin="round"/>
<path d="M154.875 67.5098C154.875 67.5098 156.664 79.4454 158.072 82.2014C159.48 84.9574 159.878 85.8732 159.878 85.8732C159.878 85.8732 162.939 76.5706 163.554 75.1926C164.169 73.8146 164.826 68.8793 164.826 68.8793C164.826 68.8793 158.725 70.8339 154.875 67.5098Z" fill="white" stroke="#263238" stroke-linecap="round" stroke-linejoin="round"/>
<path d="M154.875 67.5098C154.875 67.5098 155.036 68.5952 155.299 70.1852C156.194 70.8678 158.564 72.5554 160.315 72.6444C161.651 72.7122 163.347 71.8473 164.474 71.1562C164.678 69.9054 164.818 68.8793 164.818 68.8793C164.818 68.8793 158.725 70.8339 154.875 67.5098Z" fill="#263238" stroke="#263238" stroke-linecap="round" stroke-linejoin="round"/>
<path d="M152.444 59.259C152.444 59.259 151.222 57.5206 150.4 59.259C149.577 60.9974 151.672 63.571 152.257 63.923C153.919 64.9109 153.478 63.075 153.478 63.075L152.444 59.259Z" fill="white" stroke="#263238" stroke-linecap="round" stroke-linejoin="round"/>
<path d="M167.61 60.0097C167.61 60.0097 168.64 58.212 169.649 59.908C170.658 61.604 168.839 64.2709 168.297 64.6483C166.745 65.721 166.991 63.8808 166.991 63.8808L167.61 60.0097Z" fill="white" stroke="#263238" stroke-linecap="round" stroke-linejoin="round"/>
<path d="M152.156 57.7237C152.156 57.7237 156.583 56.6891 158.813 55.3705C160.179 54.5454 161.37 53.4607 162.32 52.1777C162.32 52.1777 164.236 55.7987 165.924 57.2657C167.611 58.7328 167.963 58.8176 167.963 58.8176C167.963 58.8176 167.153 65.1564 166.237 67.3612C165.321 69.566 162.332 71.7114 159.542 71.0924C157.957 70.7447 155.209 69.5999 154.412 67.6707C153.615 65.7415 152.156 57.7237 152.156 57.7237Z" fill="white" stroke="#263238" stroke-linecap="round" stroke-linejoin="round"/>
<path d="M163.452 62.5947C162.079 62.6286 157.478 62.6371 155.104 61.204C154.152 60.6499 153.261 59.9976 152.445 59.2578C152.53 59.6818 152.632 60.2118 152.742 60.763L153.259 61.1404L154.557 66.0418L153.951 66.1733C154.078 66.6743 154.233 67.1682 154.413 67.653C155.21 69.5822 157.957 70.727 159.543 71.0747C162.329 71.6895 165.309 69.5568 166.234 67.3562C166.016 66.9287 165.951 66.4391 166.051 65.9697C166.319 64.5833 166.649 62.1537 166.649 62.1537L167.595 61.3057C167.646 60.9962 167.688 60.6994 167.731 60.4281C166.586 61.2209 164.44 62.5693 163.452 62.5947Z" fill="#C2C7D6" stroke="#263238" stroke-linecap="round" stroke-linejoin="round"/>
<path d="M158.406 60.5474C158.406 60.5474 156.926 58.7497 154.984 58.915" stroke="#263238" stroke-linecap="round" stroke-linejoin="round"/>
<path d="M162.219 60.9031C162.691 60.4066 163.277 60.0335 163.927 59.8162C164.577 59.5989 165.27 59.544 165.946 59.6565" stroke="#263238" stroke-linecap="round" stroke-linejoin="round"/>
<path d="M154.133 58.0169C154.133 58.0169 156.253 57.1689 158.131 57.5675" stroke="#263238" stroke-linecap="round" stroke-linejoin="round"/>
<path d="M162.391 58.0282C162.949 57.7428 163.582 57.6361 164.203 57.7226C164.824 57.809 165.404 58.0845 165.863 58.5115" stroke="#263238" stroke-linecap="round" stroke-linejoin="round"/>
<path d="M156.982 59.9591C156.992 60.0242 156.988 60.0907 156.972 60.1545C156.956 60.2184 156.928 60.2784 156.888 60.3312C156.849 60.384 156.799 60.4285 156.743 60.4621C156.686 60.4958 156.623 60.5179 156.558 60.5272C156.426 60.5123 156.304 60.4475 156.217 60.3459C156.13 60.2443 156.086 60.1136 156.092 59.9803C156.082 59.915 156.085 59.8484 156.101 59.7843C156.116 59.7202 156.145 59.66 156.184 59.6071C156.224 59.5541 156.274 59.5096 156.33 59.4762C156.387 59.4427 156.45 59.4209 156.516 59.4121C156.648 59.428 156.77 59.4931 156.856 59.5944C156.942 59.6958 156.987 59.826 156.982 59.9591Z" fill="#263238"/>
<path d="M164.655 60.5095C164.667 60.5749 164.665 60.6419 164.649 60.7065C164.634 60.771 164.606 60.8318 164.566 60.885C164.526 60.9382 164.476 60.9827 164.419 61.0158C164.361 61.049 164.297 61.07 164.231 61.0777C164.099 61.0638 163.977 60.9998 163.891 60.8989C163.804 60.798 163.759 60.6678 163.765 60.535C163.754 60.4696 163.756 60.4026 163.771 60.338C163.787 60.2734 163.815 60.2127 163.855 60.1595C163.894 60.1063 163.944 60.0618 164.002 60.0287C164.059 59.9955 164.123 59.9745 164.189 59.9668C164.321 59.9807 164.443 60.0447 164.53 60.1455C164.617 60.2464 164.662 60.3766 164.655 60.5095Z" fill="#263238"/>
<path d="M176.078 77.4824C176.078 77.4824 178.55 78.6272 179.47 80.4504C180.39 82.2736 187.747 102.028 187.713 103.52C187.679 105.013 185.245 106.734 182.964 106.967C180.683 107.201 177.359 103.067 176.863 102.38C176.366 101.693 176.277 93.6538 176.277 93.6538L176.078 77.4824Z" fill="white" stroke="#263238" stroke-linecap="round" stroke-linejoin="round"/>
<path d="M164.422 72.207L165.626 111.698L166.05 136.608C168.359 137.176 170.724 137.482 173.101 137.52C175.084 137.562 177.055 137.21 178.901 136.485C178.901 136.485 178.181 120.988 178.053 118.461C177.926 115.934 177.087 111.113 177.087 111.113L176.086 77.4816C176.086 77.4816 166.771 73.1229 164.422 72.207Z" fill="white" stroke="#263238" stroke-linecap="round" stroke-linejoin="round"/>
<path d="M167.067 74.3867L171.337 88.3151L167.445 89.3709L171.231 91.2068L166.508 106.212" fill="white"/>
<path d="M167.067 74.3867L171.337 88.3151L167.445 89.3709L171.231 91.2068L166.508 106.212" stroke="#263238" stroke-linecap="round" stroke-linejoin="round"/>
<path d="M170.046 87.1289L164.75 112.501C164.75 112.501 168.371 113.646 171.017 113.773C173.662 113.9 179.174 113.883 179.174 113.883L184.686 90.2326C184.686 90.2326 173.836 89.1938 170.046 87.1289Z" fill="#263238" stroke="#263238" stroke-linecap="round" stroke-linejoin="round"/>
<path d="M171.891 110.775L172.064 102.846L176.266 103.732C176.266 103.732 173.489 109.85 171.891 110.775Z" fill="white" stroke="#263238" stroke-linecap="round" stroke-linejoin="round"/>
<path d="M175.107 99.9797C175.107 99.9797 173.988 98.3769 173.628 98.0293C173.267 97.6816 171.486 96.6555 171.143 96.6555C170.8 96.6555 168.955 96.541 168.599 96.541C168.243 96.541 167.84 97.3466 168.205 97.6901C168.569 98.0335 169.837 98.148 169.837 98.148L170.706 99.42L166.784 99.0765C166.784 99.0765 166.131 99.7677 166.28 100.349C166.391 100.742 166.533 101.126 166.704 101.498C166.689 102.341 166.733 103.184 166.835 104.02C166.988 104.711 167.683 104.94 168.637 105.513C169.591 106.085 172.784 105.742 172.784 105.742H174.259L175.107 99.9797Z" fill="white" stroke="#263238" stroke-linecap="round" stroke-linejoin="round"/>
<path d="M184.67 100.776L174.494 99.4062C174.494 99.4062 173.701 105.953 172.9 108.132C172.098 110.312 171.891 110.774 171.891 110.774C171.891 110.774 182.554 110.536 185.069 110.307C187.583 110.078 188.995 108.582 188.885 106.517C188.774 104.452 187.515 102.383 187.515 102.383" fill="white"/>
<path d="M184.67 100.776L174.494 99.4062C174.494 99.4062 173.701 105.953 172.9 108.132C172.098 110.312 171.891 110.774 171.891 110.774C171.891 110.774 182.554 110.536 185.069 110.307C187.583 110.078 188.995 108.582 188.885 106.517C188.774 104.452 187.515 102.383 187.515 102.383" stroke="#263238" stroke-linecap="round" stroke-linejoin="round"/>
<path d="M142.234 107.926C142.234 107.926 144.608 109.414 145.202 109.876C145.795 110.338 145.846 113.319 146.223 113.891C146.601 114.464 146.156 114.812 145.469 114.812C144.782 114.812 143.743 112.632 143.743 112.632L143.701 111.827L138.85 113.438L137.578 111.258C137.578 111.258 139.02 107.926 142.234 107.926Z" fill="white" stroke="#263238" stroke-linecap="round" stroke-linejoin="round"/>
<path d="M106.907 198.008C119.161 198.008 129.095 195.768 129.095 193.005C129.095 190.242 119.161 188.002 106.907 188.002C94.6526 188.002 84.7188 190.242 84.7188 193.005C84.7188 195.768 94.6526 198.008 106.907 198.008Z" fill="#263238" stroke="#263238" stroke-linecap="round" stroke-linejoin="round"/>
<path d="M124.237 74.1113C124.237 74.1113 127.146 88.7096 127.663 91.4105C128.181 94.1114 129.13 100.531 130.207 103.346C131.284 106.161 130.932 109.765 130.394 110.779C129.854 111.659 129.233 112.488 128.541 113.255L124.928 108.544C124.928 108.544 122.779 85.4618 122.698 82.1928C122.618 78.9237 124.237 74.1113 124.237 74.1113Z" fill="white" stroke="#263238" stroke-linecap="round" stroke-linejoin="round"/>
<path d="M126.153 107.967C126.153 107.967 128.443 109.396 128.846 110.002C129.249 110.608 129.537 111.38 129.223 112.037C128.909 112.694 127.201 114.679 126.768 115.065C126.336 115.45 125.971 113.911 125.92 112.588C125.869 111.266 126.153 107.967 126.153 107.967Z" fill="white" stroke="#263238" stroke-linecap="round" stroke-linejoin="round"/>
<path d="M113.841 188.02C113.841 188.02 121.02 191.509 121.473 192.188C121.927 192.866 120.29 193.769 116.012 193.769C111.734 193.769 111.607 193.205 109.907 192.756C108.206 192.306 104.819 192.641 104.361 191.628C103.903 190.615 104.7 187.125 104.7 187.125L113.841 188.02Z" fill="white" stroke="#263238" stroke-linecap="round" stroke-linejoin="round"/>
<path d="M104.307 189.821C104.307 189.821 110.243 193.425 109.722 194.663C109.2 195.901 104.909 195.901 102.649 195.562C100.389 195.223 95.5855 192.17 95.3311 191.059C95.0767 189.948 95.7127 188.244 99.1937 187.909C102.675 187.574 104.307 189.821 104.307 189.821Z" fill="white" stroke="#263238" stroke-linecap="round" stroke-linejoin="round"/>
<path d="M122.323 130.931C122.323 130.931 118.931 157.053 118.342 160.882C117.753 164.711 115.883 170.791 114.874 175.408C114.302 178.124 113.877 180.868 113.602 183.63C113.498 184.415 113.517 185.212 113.657 185.991C113.801 187.119 113.822 188.018 113.822 188.018C112.312 188.397 110.776 188.661 109.226 188.807C107.314 188.921 104.723 188.921 104.723 188.921L103.875 181.603C103.875 181.603 104.507 170.791 104.88 167.641C105.253 164.49 105.652 139.716 105.635 139.038C105.618 138.359 105.469 132.394 105.469 132.394L117.023 131.155C117.023 131.155 118.601 126.653 120.971 126.877C123.341 127.102 122.323 130.931 122.323 130.931Z" fill="white" stroke="#263238" stroke-linecap="round" stroke-linejoin="round"/>
<path d="M120.991 126.877C118.621 126.653 117.043 131.155 117.043 131.155L105.477 132.394C105.477 132.394 105.515 133.979 105.553 135.607C106.787 135.718 107.927 135.781 108.902 135.781C112.608 135.775 116.311 135.567 119.994 135.158L120.49 129.968L121.266 135.256L121.801 135.082C122.131 132.563 122.343 130.922 122.343 130.922C122.343 130.922 123.361 127.102 120.991 126.877Z" fill="#263238" stroke="#263238" stroke-linecap="round" stroke-linejoin="round"/>
<path d="M93.4141 131.721C93.4141 131.721 93.4141 131.882 93.4395 132.174C93.5964 135.253 94.5292 153.09 94.8133 156.381C95.1313 159.985 93.5413 163.924 93.6218 167.188C93.7024 170.453 94.4698 188.134 94.4698 188.134L95.3178 191.059C95.3178 191.059 97.3106 189.711 99.2229 189.711C101.135 189.711 104.311 189.821 104.311 189.821C104.311 189.821 104.476 187.456 104.459 186.671C104.442 185.887 104.37 183.067 104.37 183.067C104.37 183.067 107.605 168.316 107.8 167.078C107.995 165.84 110.506 144.445 110.489 143.758C110.472 143.071 111.019 133.51 111.019 133.51L93.4141 131.721Z" fill="white" stroke="#263238" stroke-linecap="round" stroke-linejoin="round"/>
<path d="M110.9 135.761C110.972 134.456 111.023 133.523 111.023 133.523L93.4141 131.721C93.4141 131.721 93.4141 131.882 93.4395 132.174C93.4395 132.548 93.4861 133.137 93.5285 133.87C97.6456 134.608 104.79 135.77 108.907 135.77C109.585 135.783 110.247 135.774 110.9 135.761Z" fill="#263238" stroke="#263238" stroke-linecap="round" stroke-linejoin="round"/>
<path d="M106.388 62.5827C106.388 62.5827 104.526 62.8965 103.818 63.7275C103.109 64.5358 102.47 65.404 101.91 66.3224C101.813 66.6361 90.865 73.2802 90.865 73.2802L91.6537 104.962C91.6537 104.962 91.9801 109.842 91.3993 111.504C90.418 114.772 89.9419 118.171 89.9873 121.582C90.0891 125.632 90.352 132.182 90.352 132.182C90.352 132.182 102.881 134.675 108.906 134.675C112.612 134.667 116.315 134.456 119.998 134.044L120.494 128.85L121.249 134.15L123.823 133.302L125.943 117.614C125.943 117.614 127.418 114.29 127.401 113.56C127.384 112.831 127.774 111.898 127.346 111.275C126.918 110.652 126.155 109.405 126.155 109.405C126.155 109.405 124.238 75.0483 124.238 74.1113C124.238 73.1742 118.569 67.6749 118.149 67.4672C117.73 67.2594 115.143 63.4137 111.789 62.3792C108.436 61.3446 106.388 62.5827 106.388 62.5827Z" fill="white" stroke="#263238" stroke-linecap="round" stroke-linejoin="round"/>
<path d="M102.974 67.3613L101.719 78.7712L106.875 81.1668L105.586 85.0379L118.479 107.696" stroke="#263238" stroke-linecap="round" stroke-linejoin="round"/>
<path d="M117.375 68.6426L121.242 77.6695L119.584 79.8786L122.349 83.7455L121.242 108.617" stroke="#263238" stroke-linecap="round" stroke-linejoin="round"/>
<path d="M105.906 64.1437C106 66.3696 106.404 68.5716 107.106 70.686C108.221 73.8024 115.612 95.3035 115.612 95.3035L120.39 112.128C120.39 112.128 119.758 94.9897 119.741 94.2647C119.724 93.5396 116.12 69.749 116.12 69.749C116.12 69.749 115.506 65.9075 114.535 64.4532C113.564 62.9989 107.055 60.298 105.906 64.1437Z" fill="#C2C7D6" stroke="#263238" stroke-linecap="round" stroke-linejoin="round"/>
<path d="M105.445 62.4805C105.445 62.4805 102.439 62.79 102.969 67.3607C103.499 71.9314 104.199 75.0478 104.199 75.0478" stroke="#263238" stroke-width="2" stroke-linecap="round" stroke-linejoin="round"/>
<path d="M103.836 81.0742C103.836 81.0742 105.108 86.37 105.977 87.8243C106.846 89.2786 109.475 90.7329 111.345 90.7329" stroke="#263238" stroke-linecap="round" stroke-linejoin="round"/>
<path d="M107.852 79.8262C107.852 79.8262 109.251 85.953 109.484 87.0978C109.718 88.2426 108.946 90.4177 107.648 92.6098" stroke="#263238" stroke-linecap="round" stroke-linejoin="round"/>
<path d="M107.275 93.3347C107.142 93.2613 107.043 93.138 107 92.9918C106.957 92.8457 106.974 92.6885 107.046 92.5545L107.195 92.2832C107.231 92.2183 107.28 92.1614 107.339 92.1158C107.398 92.0701 107.465 92.0366 107.537 92.0173C107.609 91.9979 107.684 91.9931 107.758 92.0031C107.831 92.0131 107.902 92.0377 107.966 92.0754C108.1 92.1489 108.199 92.2719 108.243 92.4178C108.286 92.5637 108.271 92.7209 108.2 92.8556L108.051 93.1227C108.015 93.1881 107.965 93.2455 107.906 93.2916C107.847 93.3377 107.78 93.3716 107.708 93.3914C107.635 93.4111 107.56 93.4163 107.486 93.4065C107.412 93.3968 107.34 93.3724 107.275 93.3347Z" fill="#263238"/>
<path d="M112.04 90.8472C112.04 90.922 112.025 90.996 111.996 91.0648C111.967 91.1336 111.924 91.1958 111.87 91.2477C111.816 91.2996 111.753 91.34 111.683 91.3666C111.613 91.3933 111.538 91.4055 111.464 91.4027H111.154C111.002 91.3994 110.856 91.3361 110.75 91.2266C110.644 91.1171 110.585 90.9702 110.586 90.8176C110.585 90.743 110.6 90.6691 110.629 90.6003C110.657 90.5315 110.7 90.4693 110.753 90.4173C110.807 90.3654 110.87 90.3249 110.94 90.2982C111.01 90.2715 111.084 90.2593 111.158 90.2621H111.468C111.621 90.2665 111.765 90.33 111.872 90.4391C111.979 90.5482 112.039 90.6946 112.04 90.8472Z" fill="#263238"/>
<path d="M103.84 81.4892L103.128 76.9736C103.049 76.508 103.149 76.0296 103.41 75.6358C103.671 75.2419 104.072 74.9622 104.532 74.8536V74.8536C105.027 74.7409 105.547 74.8247 105.981 75.0872C106.416 75.3497 106.732 75.7705 106.864 76.2613L108.08 80.7557" stroke="#263238" stroke-width="2" stroke-linecap="round" stroke-linejoin="round"/>
<path d="M120.603 84.5408C121.623 84.4386 122.355 83.4019 122.237 82.2252C122.119 81.0485 121.197 80.1775 120.176 80.2797C119.155 80.382 118.424 81.4187 118.542 82.5954C118.659 83.772 119.582 84.6431 120.603 84.5408Z" fill="white" stroke="#263238" stroke-linecap="round" stroke-linejoin="round"/>
<path d="M115.383 64.3848C115.383 64.3848 119.466 70.13 120.768 81.8408" stroke="#263238" stroke-width="2" stroke-linecap="round" stroke-linejoin="round"/>
<path d="M120.876 83.1975C121.434 83.1457 121.836 82.5764 121.776 81.9259C121.715 81.2753 121.215 80.79 120.657 80.8418C120.1 80.8936 119.697 81.4629 119.758 82.1134C119.818 82.764 120.319 83.2493 120.876 83.1975Z" fill="white" stroke="#263238" stroke-linecap="round" stroke-linejoin="round"/>
<path d="M126.845 108.863C126.594 109.639 126.389 110.429 126.23 111.229C126.23 111.568 126.149 112.582 125.357 112.353C124.564 112.124 124.801 108.075 124.903 107.625C125.005 107.176 126.934 108.63 126.934 108.63" fill="white"/>
<path d="M126.845 108.863C126.594 109.639 126.389 110.429 126.23 111.229C126.23 111.568 126.149 112.582 125.357 112.353C124.564 112.124 124.801 108.075 124.903 107.625C125.005 107.176 126.934 108.63 126.934 108.63" stroke="#263238" stroke-linecap="round" stroke-linejoin="round"/>
<path d="M101.108 105.275C101.813 105.664 102.601 105.877 103.406 105.899C104.652 105.899 106.929 105.475 107.764 105.691C108.6 105.907 110.732 108.595 110.732 108.595C110.732 108.595 111.368 109.219 111.067 109.532C110.766 109.846 110.152 110.38 109.728 110.05C109.304 109.719 107.184 107.972 107.184 107.972L101.837 110.156L99.6406 109.011L101.108 105.275Z" fill="white" stroke="#263238" stroke-linecap="round" stroke-linejoin="round"/>
<path d="M92.9227 72.5547C92.9227 72.5547 89.3993 72.9787 88.8015 73.903C88.2036 74.8273 78.5491 96.0273 78.5703 96.9644C78.5915 97.9014 97.8751 113.076 97.8751 113.076L102.039 105.152L91.6211 95.4931L96.1409 85.0033" fill="white"/>
<path d="M92.9227 72.5547C92.9227 72.5547 89.3993 72.9787 88.8015 73.903C88.2036 74.8273 78.5491 96.0273 78.5703 96.9644C78.5915 97.9014 97.8751 113.076 97.8751 113.076L102.039 105.152L91.6211 95.4931L96.1409 85.0033" stroke="#263238" stroke-linecap="round" stroke-linejoin="round"/>
<path d="M99.4219 116.906L109.606 117.114L109.555 110.779" stroke="#263238" stroke-linecap="round" stroke-linejoin="round"/>
<path d="M101.849 110.156L99.1562 111.161" stroke="#263238" stroke-linecap="round" stroke-linejoin="round"/>
<path d="M104.92 58.0122C104.92 58.0122 106.077 67.0518 106.84 68.4002C107.604 69.7485 113.031 75.1502 113.031 75.1502C113.031 75.1502 114.727 68.9217 114.918 67.4673C115.108 66.013 115.257 60.1957 115.257 60.1957L104.898 57.2871L104.92 58.0122Z" fill="white" stroke="#263238" stroke-linecap="round" stroke-linejoin="round"/>
<path d="M104.92 58.0122C104.92 58.0122 105.055 59.0721 105.263 60.518C106.075 61.274 107.002 61.8952 108.011 62.3582C109.346 62.9475 112.908 63.2782 115.159 63.0153C115.219 61.4932 115.257 60.1957 115.257 60.1957L104.898 57.2871L104.92 58.0122Z" fill="#263238" stroke="#263238" stroke-linecap="round" stroke-linejoin="round"/>
<path d="M101.917 50.1221C101.917 50.1221 100.531 48.6677 99.8441 50.3256C99.1572 51.9834 100.692 54.4808 101.51 54.5868C101.996 54.6501 102.489 54.614 102.961 54.4808C102.961 54.4808 103.541 56.8721 104.076 57.5972C105.127 58.9267 106.474 59.9924 108.01 60.7093C109.901 61.5573 116.232 61.8584 117.033 60.7093C117.834 59.5603 117.788 53.4377 117.775 52.9205C117.762 52.4032 117.673 45.0001 117.673 45.0001C117.673 45.0001 118.241 42.4307 117.47 40.6626C116.698 38.8945 108.952 36.4226 107.005 37.4445C105.059 38.4663 102.816 40.2471 102.664 42.5325C102.511 44.8178 102.604 48.5575 102.604 48.5575L101.917 50.1221Z" fill="white" stroke="#263238" stroke-linecap="round" stroke-linejoin="round"/>
<path d="M113.37 46.8984C113.37 46.8984 114.663 52.8344 114.366 53.5468C114.07 54.2591 113.141 54.2718 111.979 53.6485C110.817 53.0252 111.424 52.1942 111.424 52.1942" stroke="#263238" stroke-linecap="round" stroke-linejoin="round"/>
<path d="M108.867 53.7559C108.867 53.7559 109.427 55.3119 110.466 55.4179C111.504 55.5239 114.112 55.7275 114.112 55.7275" stroke="#263238" stroke-linecap="round" stroke-linejoin="round"/>
<path d="M105.156 47.1064L105.322 49.5996C105.322 49.5996 106.271 50.1211 108.451 50.1211C110.63 50.1211 111.347 49.5996 111.347 49.5996L111.287 47.1064C111.287 47.1064 108.124 45.2366 105.156 47.1064Z" stroke="#263238" stroke-linecap="round" stroke-linejoin="round"/>
<path d="M113.375 47.1062L114.164 49.7053C114.164 49.7053 114.486 50.1293 116.669 50.1293C118.853 50.1293 119.57 49.6078 119.57 49.6078L119.506 47.1147C119.506 47.1147 116.339 45.2364 113.375 47.1062Z" stroke="#263238" stroke-linecap="round" stroke-linejoin="round"/>
<path d="M111.297 47.1074H113.374" stroke="#263238" stroke-linecap="round" stroke-linejoin="round"/>
<path d="M105.166 47.1074L101.07 49.4988" stroke="#263238" stroke-linecap="round" stroke-linejoin="round"/>
<path d="M106.18 45.8594C106.18 45.8594 107.291 44.6128 109.809 45.6516" stroke="#263238" stroke-linecap="round" stroke-linejoin="round"/>
<path d="M113.758 45.8606C114.132 45.5605 114.583 45.3722 115.059 45.3174C115.536 45.2627 116.018 45.3436 116.45 45.551" stroke="#263238" stroke-linecap="round" stroke-linejoin="round"/>
<path d="M108.834 48.2523C108.834 48.7102 108.669 49.1003 108.44 49.1003C108.211 49.1003 108.016 48.7272 108.016 48.2523C108.016 47.7774 108.181 47.4043 108.414 47.4043C108.647 47.4043 108.825 47.7901 108.834 48.2523Z" fill="#263238"/>
<path d="M115.482 48.1449C115.482 48.6028 115.317 48.9929 115.088 48.9929C114.859 48.9929 114.664 48.6198 114.664 48.1449C114.664 47.67 114.829 47.2969 115.058 47.2969C115.287 47.2969 115.47 47.687 115.482 48.1449Z" fill="#263238"/>
<path d="M108.367 38.5378C108.367 38.5378 109.367 40.7468 108.125 41.5524C107.742 41.7742 107.306 41.8911 106.864 41.8911C106.421 41.8911 105.986 41.7742 105.602 41.5524C105.932 42.0086 106.117 42.5542 106.131 43.1172C106.146 43.6803 105.989 44.2345 105.683 44.707C105.074 45.7217 104.363 46.6721 103.563 47.5435C103.563 47.5435 103.787 50.2274 103.321 50.5412C102.855 50.855 101.583 50.3843 101.561 49.5957C101.54 48.807 101.031 47.2298 101.01 46.4411C100.989 45.6525 100.624 43.6003 100.624 43.6003C100.624 43.6003 97.4359 42.1799 99.1277 40.4458C100.819 38.7116 104.411 37.2912 104.411 37.2912C104.411 37.2912 104.491 34.1366 106.675 33.1911C108.858 32.2456 113.556 30.8252 113.595 32.4025C113.654 33.2142 113.509 34.0279 113.171 34.7684C113.171 34.7684 117.11 34.6115 119.857 37.3124C122.605 40.0133 122.511 42.5191 121.091 42.5191C119.67 42.5191 119.208 42.8329 119.208 42.8329C119.208 42.8329 121.926 44.4102 120.527 45.1988C119.128 45.9874 117.686 45.0419 117.686 45.0419C117.686 45.0419 118.288 43.9395 116.516 42.4979C114.744 41.0563 108.367 38.5378 108.367 38.5378Z" fill="#263238" stroke="#263238" stroke-linecap="round" stroke-linejoin="round"/>
<path d="M54.5629 198.008C66.817 198.008 76.7508 195.768 76.7508 193.005C76.7508 190.242 66.817 188.002 54.5629 188.002C42.3089 188.002 32.375 190.242 32.375 193.005C32.375 195.768 42.3089 198.008 54.5629 198.008Z" fill="#263238" stroke="#263238" stroke-linecap="round" stroke-linejoin="round"/>
<path d="M69.1719 89.519V93.5725L75.0655 96.2733C75.0655 96.2733 75.6803 93.5725 75.1884 88.7812L69.1719 89.519Z" fill="#999999" stroke="#263238" stroke-linecap="round" stroke-linejoin="round"/>
<path d="M39.9183 186.788C38.5694 187.946 37.2948 189.188 36.1023 190.506C34.4063 192.418 34.0756 194.322 35.6529 195.234C37.2302 196.145 39.7063 195.908 42.4072 194.22C45.1081 192.533 44.9979 191.854 46.5751 191.295C48.1524 190.735 49.1658 189.599 49.1658 187.801C49.1658 186.003 43.4206 185.774 42.1825 185.681C40.9444 185.588 39.9183 186.788 39.9183 186.788Z" fill="white" stroke="#263238" stroke-linecap="round" stroke-linejoin="round"/>
<path d="M49.1512 187.803C49.1512 187.803 46.6072 188.931 45.3734 189.957C44.1396 190.983 41.6804 194.676 38.8056 194.676C37.3417 194.677 35.902 194.302 34.625 193.586C34.6269 193.927 34.7223 194.262 34.901 194.552C35.0797 194.843 35.3347 195.08 35.6384 195.235C37.2156 196.134 39.6918 195.91 42.3927 194.222C45.0936 192.535 44.9833 191.856 46.5606 191.297C48.1379 190.737 49.1512 189.605 49.1512 187.803Z" stroke="#263238" stroke-linecap="round" stroke-linejoin="round"/>
<path d="M68.4974 186.788C69.8464 187.946 71.1209 189.188 72.3134 190.506C74.0094 192.418 74.3402 194.322 72.7629 195.234C71.1856 196.145 68.7094 195.908 66.0086 194.22C63.3077 192.533 63.4179 191.854 61.8406 191.295C60.2634 190.735 59.25 189.599 59.25 187.801C59.25 186.003 64.9952 185.774 66.2333 185.681C67.4714 185.588 68.4974 186.788 68.4974 186.788Z" fill="white" stroke="#263238" stroke-linecap="round" stroke-linejoin="round"/>
<path d="M59.2578 187.803C59.2578 187.803 61.8018 188.931 63.0357 189.957C64.2695 190.983 66.7287 194.676 69.6034 194.676C71.0674 194.677 72.507 194.302 73.7841 193.586C73.7822 193.927 73.6867 194.262 73.508 194.552C73.3294 194.843 73.0743 195.08 72.7707 195.235C71.1934 196.134 68.7173 195.91 66.0164 194.222C63.3155 192.535 63.4257 191.856 61.8485 191.297C60.2712 190.737 59.2578 189.605 59.2578 187.803Z" stroke="#263238" stroke-linecap="round" stroke-linejoin="round"/>
<path d="M36.6562 122.832C36.6562 122.832 37.3304 148.166 37.6696 151.885C38.0088 155.603 39.0095 164.045 39.0095 164.512C39.0095 164.978 39.5691 183.655 39.5691 183.655L38.5558 185.351L38.895 187.717L43.3979 188.616C45.6493 189.066 48.5791 189.744 49.0286 189.294C49.478 188.845 49.5925 187.942 49.8172 186.704C50.0419 185.466 50.4914 183.21 50.0419 181.412C49.5925 179.615 50.6059 160.467 50.7203 160.017C50.8348 159.568 53.4255 141.073 53.4255 141.073C53.4255 141.073 55.1214 156.278 56.351 160.891C57.5806 165.504 57.1397 172.377 57.5891 175.078C58.0386 177.779 58.9417 186.903 59.0562 187.577C59.1707 188.251 59.3911 189.273 59.3911 189.273C59.3911 189.273 65.0219 188.485 66.0352 188.031C67.0626 187.652 68.1171 187.352 69.1898 187.132C69.1898 187.132 69.5247 180.713 69.0753 178.122C68.7478 176.302 68.5593 174.459 68.5114 172.61C68.5114 171.821 69.0753 146.827 69.0753 146.827L68.5114 122.616C68.5114 122.616 53.311 124.194 47.4555 123.066C41.6001 121.938 36.7707 121.264 36.7707 121.264L36.6562 122.832Z" fill="#C2C7D6" stroke="#263238" stroke-linecap="round" stroke-linejoin="round"/>
<path d="M47.464 123.057C41.6086 121.934 36.7707 121.264 36.7707 121.264L36.6562 122.837C36.6562 122.837 36.6944 124.291 36.758 126.547C39.4419 127.297 44.8946 128.616 50.1649 128.616C55.7362 128.616 64.6106 126.92 68.6047 126.11L68.5199 122.612C68.5199 122.612 53.3195 124.185 47.464 123.057Z" fill="#263238" stroke="#263238" stroke-linecap="round" stroke-linejoin="round"/>
<path d="M67.0234 180.111C67.0955 180.887 67.1422 181.332 67.1422 181.332" stroke="#263238" stroke-linecap="round" stroke-linejoin="round"/>
<path d="M65.2969 128.777C65.2969 128.777 65.7209 150.537 65.7209 158.75C65.7209 164.432 66.4078 173.056 66.8318 177.83" stroke="#263238" stroke-linecap="round" stroke-linejoin="round"/>
<path d="M42.5078 127.547L43.5339 151.155" stroke="#263238" stroke-linecap="round" stroke-linejoin="round"/>
<path d="M43.3281 153V156.901" stroke="#263238" stroke-linecap="round" stroke-linejoin="round"/>
<path d="M48.6598 63.3623C48.1054 63.3653 47.5597 63.5003 47.0679 63.7562C46.5761 64.012 46.1523 64.3814 45.8317 64.8336C45.1305 65.7588 44.3502 66.6214 43.4997 67.4115L33.4297 72.8175L34.4134 111.257L34.7822 124.401C34.7822 124.401 42.516 126.979 49.8851 126.979C57.2543 126.979 70.394 124.011 70.394 124.011C70.394 124.011 69.2916 72.8006 69.6605 72.8006C70.0294 72.8006 62.4143 66.1862 58.9757 64.4478C55.5371 62.7094 48.6598 63.3623 48.6598 63.3623Z" fill="#C2C7D6" stroke="#263238" stroke-linecap="round" stroke-linejoin="round"/>
<path d="M45.7891 68.0098C45.7891 68.0098 49.6899 75.1966 51.335 78.4826C52.9801 81.7686 56.0499 86.4962 56.0499 86.4962L61.1845 72.7416" stroke="#263238" stroke-linecap="round" stroke-linejoin="round"/>
<path d="M48.6778 113.593L48.4785 107.856L36.8906 107.182C36.8906 107.182 37.0051 115.628 37.2298 116.086" stroke="#263238" stroke-linecap="round" stroke-linejoin="round"/>
<path d="M48.8129 117.656L48.7578 116.045" stroke="#263238" stroke-linecap="round" stroke-linejoin="round"/>
<path d="M62.5501 116.753L62.2109 107.297C62.2109 107.297 66.2644 107.632 69.6437 105.381" stroke="#263238" stroke-linecap="round" stroke-linejoin="round"/>
<path d="M45.18 84.7653C45.5361 85.8889 46.6216 86.5504 47.601 86.2366C48.5805 85.9229 49.0765 84.7569 48.7161 83.6333C48.3557 82.5097 47.2745 81.8482 46.2951 82.162C45.3157 82.4757 44.8196 83.6417 45.18 84.7653Z" stroke="#263238" stroke-linecap="round" stroke-linejoin="round"/>
<path d="M45.2929 65.0918C45.2929 65.0918 43.9912 70.095 46.9507 83.6757" stroke="#263238" stroke-width="2" stroke-linecap="round" stroke-linejoin="round"/>
<path d="M47.8594 84.1422C47.7721 84.3181 47.6362 84.4653 47.4678 84.5662C47.2994 84.6672 47.1055 84.7178 46.9093 84.7118C46.713 84.7059 46.5225 84.6438 46.3605 84.5329C46.1985 84.422 46.0717 84.2669 45.9952 84.086C45.9186 83.9052 45.8956 83.7062 45.9289 83.5127C45.9621 83.3191 46.0501 83.1392 46.1826 82.9942C46.315 82.8492 46.4863 82.7453 46.676 82.6947C46.8658 82.6442 47.066 82.6492 47.2531 82.709C47.5224 82.82 47.7371 83.0327 47.8506 83.301C47.9641 83.5693 47.9673 83.8716 47.8594 84.1422V84.1422Z" stroke="#263238" stroke-linecap="round" stroke-linejoin="round"/>
<path d="M69.1753 72.0801C69.1753 72.0801 71.0154 73.4326 71.1384 73.9245C71.2613 74.4163 77.5238 89.3962 77.5238 89.3962L68.4375 90.7361L68.5605 81.8914" fill="#C2C7D6"/>
<path d="M69.1753 72.0801C69.1753 72.0801 71.0154 73.4326 71.1384 73.9245C71.2613 74.4163 77.5238 89.3962 77.5238 89.3962L68.4375 90.7361L68.5605 81.8914" stroke="#263238" stroke-linecap="round" stroke-linejoin="round"/>
<path d="M34.6626 72.3262C34.6626 72.3262 32.5723 72.5721 32.0805 74.1663C31.5886 75.7606 28.0312 91.9743 28.0312 91.9743L41.048 90.7363L39.8185 78.5759" fill="#C2C7D6"/>
<path d="M34.6626 72.3262C34.6626 72.3262 32.5723 72.5721 32.0805 74.1663C31.5886 75.7606 28.0312 91.9743 28.0312 91.9743L41.048 90.7363L39.8185 78.5759" stroke="#263238" stroke-linecap="round" stroke-linejoin="round"/>
<path d="M59.8047 64.3281C59.8047 64.3281 63.0313 66.1683 63.3493 70.7475C63.6673 75.3267 63.3493 76.4884 63.3493 76.4884" stroke="#263238" stroke-width="2" stroke-linecap="round" stroke-linejoin="round"/>
<path d="M64.8117 82.3535C64.8117 82.3535 64.5234 87.768 63.9341 89.3326C63.3447 90.8971 61.0127 92.75 59.1641 93.0468" stroke="#263238" stroke-linecap="round" stroke-linejoin="round"/>
<path d="M60.636 81.7676C60.636 81.7676 60.3774 88.0131 60.352 89.1749C60.3265 90.3366 61.4968 92.3591 63.1758 94.2968" stroke="#263238" stroke-linecap="round" stroke-linejoin="round"/>
<path d="M63.6574 94.9769L63.7068 94.9368C63.9377 94.7495 63.9732 94.4104 63.7858 94.1794L63.5481 93.8863C63.3608 93.6553 63.0217 93.6199 62.7907 93.8072L62.7413 93.8473C62.5104 94.0346 62.4749 94.3737 62.6623 94.6047L62.9 94.8978C63.0873 95.1288 63.4264 95.1642 63.6574 94.9769Z" fill="#263238"/>
<path d="M58.4973 93.2444L58.5091 93.3069C58.5645 93.5991 58.8462 93.7911 59.1384 93.7357L59.5092 93.6654C59.8014 93.6101 59.9934 93.3283 59.938 93.0361L59.9262 92.9736C59.8708 92.6814 59.589 92.4894 59.2969 92.5448L58.9261 92.6151C58.6339 92.6704 58.4419 92.9522 58.4973 93.2444Z" fill="#263238"/>
<path d="M64.8752 82.7635L64.7523 78.214C64.7408 77.7394 64.5529 77.2862 64.2252 76.9428C63.8974 76.5994 63.4535 76.3905 62.98 76.3568V76.3568C62.477 76.3194 61.9798 76.4826 61.5968 76.8107C61.2138 77.1388 60.9764 77.6052 60.9363 78.108L60.5547 82.7211" stroke="#263238" stroke-width="2" stroke-linecap="round" stroke-linejoin="round"/>
<path d="M75.431 93.2023L72.5012 92.5875L62.1852 90.8703L47.7184 88.1143L44.2882 86.6006C44.2882 86.6006 41.0446 82.3606 40.7648 81.9366C40.4849 81.5126 36.8173 82.9924 36.9488 83.5563C37.0802 84.1202 37.5127 89.7552 37.7968 90.1113C38.0808 90.4675 41.2481 90.4633 41.2481 90.4633C41.2481 90.4633 56.3595 97.7561 56.987 98.0232C65.7087 101.699 69.9148 101.665 71.403 101.907C72.8912 102.149 73.8622 101.547 74.7187 100.563C75.5752 99.5793 75.431 93.2023 75.431 93.2023Z" fill="#999999" stroke="#263238" stroke-linecap="round" stroke-linejoin="round"/>
<path d="M40.3235 81.8789C40.3235 81.8789 38.5639 81.951 35.9563 83.7106C34.9854 84.3678 34.4766 84.8384 34.4766 85.1225C34.5321 85.4605 34.6275 85.7906 34.7606 86.1062C36.4512 85.2921 38.2217 84.6555 40.0437 84.2067" fill="#999999"/>
<path d="M40.3235 81.8789C40.3235 81.8789 38.5639 81.951 35.9563 83.7106C34.9854 84.3678 34.4766 84.8384 34.4766 85.1225C34.5321 85.4605 34.6275 85.7906 34.7606 86.1062C36.4512 85.2921 38.2217 84.6555 40.0437 84.2067" stroke="#263238" stroke-linecap="round" stroke-linejoin="round"/>
<path d="M41.0334 86.3885C41.0334 86.3885 36.2464 87.5842 35.4705 87.7283C34.6946 87.8725 34.5547 87.0923 34.5547 86.8125C34.5547 86.5327 34.7667 86.1044 35.6104 85.6847C36.4542 85.2649 40.6985 84.1328 40.6985 84.1328" fill="#999999"/>
<path d="M41.0334 86.3885C41.0334 86.3885 36.2464 87.5842 35.4705 87.7283C34.6946 87.8725 34.5547 87.0923 34.5547 86.8125C34.5547 86.5327 34.7667 86.1044 35.6104 85.6847C36.4542 85.2649 40.6985 84.1328 40.6985 84.1328" stroke="#263238" stroke-linecap="round" stroke-linejoin="round"/>
<path d="M41.5294 88.5737C41.5294 88.5737 35.9623 89.1376 35.5383 88.7857C35.4086 88.6444 35.3102 88.4774 35.2495 88.2954C35.1889 88.1135 35.1674 87.9208 35.1864 87.7299L40.1896 86.6699" fill="#999999"/>
<path d="M41.5294 88.5737C41.5294 88.5737 35.9623 89.1376 35.5383 88.7857C35.4086 88.6444 35.3102 88.4774 35.2495 88.2954C35.1889 88.1135 35.1674 87.9208 35.1864 87.7299L40.1896 86.6699" stroke="#263238" stroke-linecap="round" stroke-linejoin="round"/>
<path d="M39.9748 88.8535L35.6797 89.0655C35.6797 89.0655 35.8874 89.7015 36.1037 89.7694C37.1212 90.0207 38.158 90.1866 39.2031 90.2654C39.8885 90.2879 40.5714 90.3588 41.2468 90.4774" fill="#999999"/>
<path d="M39.9748 88.8535L35.6797 89.0655C35.6797 89.0655 35.8874 89.7015 36.1037 89.7694C37.1212 90.0207 38.158 90.1866 39.2031 90.2654C39.8885 90.2879 40.5714 90.3588 41.2468 90.4774" stroke="#263238" stroke-linecap="round" stroke-linejoin="round"/>
<path d="M30.7344 91.7281C30.7344 91.7281 32.6975 100.208 33.1893 100.819C33.6812 101.429 37.7346 100.819 41.7881 99.589C45.8415 98.3594 63.0347 90.9946 63.0347 90.9946L65.4897 91.4822C65.4897 91.4822 64.506 88.4124 62.7888 88.2894C61.0716 88.1665 41.0503 90.7359 41.0503 90.7359L30.7344 91.7281Z" fill="#999999" stroke="#263238" stroke-linecap="round" stroke-linejoin="round"/>
<path d="M47.9141 57.9551C47.9141 57.9551 47.9141 58.1374 47.9141 58.4469C47.9522 60.0624 48.1091 65.1928 48.5204 66.4308C49.0122 67.9021 55.6436 80.3084 56.1524 79.3247C56.6612 78.341 59.714 64.9553 59.714 64.9553V59.6765C59.714 59.6765 58.1155 61.0248 55.1687 61.0248C52.2219 61.0248 47.9141 57.9551 47.9141 57.9551Z" fill="#999999" stroke="#263238" stroke-linecap="round" stroke-linejoin="round"/>
<path d="M57.7509 65.2309C58.4385 64.811 59.0959 64.3435 59.7182 63.8317V59.6765C59.7182 59.6765 58.1197 61.0248 55.1729 61.0248C52.2261 61.0248 47.9141 57.9551 47.9141 57.9551C47.9141 57.9551 47.9141 58.1374 47.9141 58.4469C47.9141 59.0151 47.9565 60.02 48.0073 61.1393C48.1236 61.3257 48.254 61.5029 48.3974 61.6693C49.2454 62.6488 53.3073 65.108 54.291 65.3539C55.2747 65.5998 56.6442 65.8415 57.7509 65.2309Z" fill="#263238" stroke="#263238" stroke-linecap="round" stroke-linejoin="round"/>
<path d="M62.6641 50.8337C62.6641 50.8337 64.6272 49.7271 64.6272 51.8174C64.6272 53.9077 62.787 56.3627 62.787 56.3627L62.6641 50.8337Z" fill="#999999" stroke="#263238" stroke-linecap="round" stroke-linejoin="round"/>
<path d="M45.1036 50.9558C45.1036 50.9558 42.3984 50.218 42.3984 52.6772C42.3984 55.1364 44.8576 56.7264 44.8576 56.7264H46.5536C46.5536 56.7264 47.5373 59.1856 48.398 60.1651C49.2588 61.1445 53.308 63.6037 54.2916 63.8496C55.2753 64.0955 56.6236 64.3415 57.7303 63.7267C59.1206 62.8599 60.4018 61.8293 61.5463 60.6569C62.0381 60.0463 62.8988 55.87 62.8988 55.87C62.8988 55.87 63.1448 48.3779 62.6529 45.7999C62.1611 43.222 58.9684 39.1686 54.546 38.6768C50.1237 38.1849 45.9473 41.7465 45.3368 44.5704C44.7262 47.3942 45.1036 50.9558 45.1036 50.9558Z" fill="#999999" stroke="#263238" stroke-linecap="round" stroke-linejoin="round"/>
<path d="M53.0804 52.9238C53.0804 52.9238 52.2324 54.641 53.6952 55.1329C55.158 55.6247 57.0109 55.5017 57.3798 54.764C57.7486 54.0262 57.1338 53.1697 57.1338 53.1697" stroke="#263238" stroke-linecap="round" stroke-linejoin="round"/>
<path d="M51.6094 55.9922C51.6094 55.9922 54.6791 58.5701 58.8555 56.1152" stroke="#263238" stroke-linecap="round" stroke-linejoin="round"/>
<path d="M53.3281 58.324C53.3281 58.324 55.9103 59.7996 57.6275 58.0781" stroke="#263238" stroke-linecap="round" stroke-linejoin="round"/>
<path d="M51.857 51.4478C52.1965 51.4478 52.4718 51.0074 52.4718 50.4641C52.4718 49.9209 52.1965 49.4805 51.857 49.4805C51.5174 49.4805 51.2422 49.9209 51.2422 50.4641C51.2422 51.0074 51.5174 51.4478 51.857 51.4478Z" fill="#263238"/>
<path d="M58.4874 50.3408C58.4874 50.8835 58.2118 51.3245 57.8726 51.3245C57.5334 51.3245 57.2578 50.9005 57.2578 50.3408C57.2578 49.7811 57.5334 49.3613 57.8726 49.3613C58.2118 49.3613 58.4874 49.7981 58.4874 50.3408Z" fill="#263238"/>
<path d="M50.1328 49.1155C50.1328 49.1155 50.7476 48.1319 53.1008 48.5007" stroke="#263238" stroke-linecap="round" stroke-linejoin="round"/>
<path d="M56.8906 48.6245C56.8906 48.6245 57.9973 46.903 59.7187 48.6245" stroke="#263238" stroke-linecap="round" stroke-linejoin="round"/>
<path d="M62.6622 45.7918C62.5027 45.0625 62.2263 44.3638 61.8439 43.7227C61.7008 44.4024 61.6509 45.0985 61.6955 45.7918C61.8735 46.6907 62.5053 47.9457 62.5053 48.5732C62.5053 49.2007 62.412 51.7151 62.8615 51.3589C62.906 51.3118 62.9419 51.2573 62.9675 51.1978C62.9955 49.3908 62.8935 47.5841 62.6622 45.7918Z" fill="#263238" stroke="#263238" stroke-linecap="round" stroke-linejoin="round"/>
<path d="M56.4889 40.7038C57.2773 40.662 58.0621 40.5671 58.8378 40.4197C57.5851 39.4819 56.1087 38.8884 54.5554 38.6982C50.1331 38.2064 45.9567 41.768 45.3461 44.5918C44.7356 47.4157 45.1002 50.9773 45.1002 50.9773C45.1002 50.9773 46.0754 51.6557 46.4358 50.9391C46.7962 50.2226 46.4358 49.0523 46.7962 47.7973C47.1566 46.5422 47.6909 45.9105 47.7799 44.9226C47.8689 43.9346 47.2414 42.5015 47.6018 41.6917C47.9622 40.8818 50.2052 39.3597 51.6425 39.8982C53.189 40.4839 54.8361 40.7577 56.4889 40.7038Z" fill="#263238" stroke="#263238" stroke-linecap="round" stroke-linejoin="round"/>
</svg>
