<svg width="150" height="150" viewBox="0 0 150 150" fill="none" xmlns="http://www.w3.org/2000/svg">
<path d="M142.044 143.556C142.044 143.598 112.026 143.634 75.003 143.634C37.98 143.634 7.95605 143.598 7.95605 143.556C7.95605 143.514 37.9561 143.478 75.003 143.478C112.05 143.478 142.044 143.511 142.044 143.556Z" fill="#263238"/>
<path d="M62.6071 61.8481L59.7181 64.8331L59.5981 67.4341L62.9551 68.2081H63.1261L63.3421 66.5281L65.2771 63.9571L62.6071 61.8481Z" fill="#AE7461"/>
<path d="M57.9418 66.8369L53.9578 63.1079L51.2578 67.3949C51.3118 67.7789 54.7498 75.1949 56.2378 76.7219C57.9388 78.4739 60.2518 78.3389 61.2748 75.9179C62.0788 74.0129 63.4168 68.1419 63.4168 68.1419L57.9418 66.8369Z" fill="#E0E0E0"/>
<path d="M53.7002 55.6228C54.6512 55.9648 56.8382 57.1618 57.4772 57.9448C57.7956 58.325 58.0656 58.7432 58.2812 59.1898C58.7702 60.2998 59.7182 68.3998 59.7182 68.3998L55.4762 71.4718L52.3892 57.3118L52.4552 54.1528L53.7002 55.6228Z" fill="#E0E0E0"/>
<path d="M55.8178 74.7002C55.8178 74.7002 57.4078 80.6492 58.4368 86.8472C59.4658 93.0452 58.6768 109.74 58.6768 109.74L32.3818 106.527L46.9258 76.7762L55.8178 74.7002Z" fill="#E0E0E0"/>
<path d="M55.8569 58.9023C55.9042 58.9542 55.9464 59.0104 55.9829 59.0703C56.0579 59.1843 56.1839 59.3463 56.3129 59.5713C56.7023 60.2027 57.0326 60.8685 57.2999 61.5603C58.1907 63.851 58.4184 66.3463 57.9569 68.7603C57.6779 70.1673 57.2309 71.4603 56.9099 72.6423C56.5987 73.6865 56.4134 74.7642 56.3579 75.8523C56.3273 76.5853 56.4082 77.3187 56.5979 78.0273C56.7389 78.5283 56.8679 78.7893 56.8529 78.7953C56.8138 78.7373 56.7816 78.6749 56.7569 78.6093C56.672 78.4265 56.5999 78.2381 56.5409 78.0453C56.3233 77.3343 56.2219 76.5927 56.2409 75.8493C56.281 74.7508 56.4574 73.6615 56.7659 72.6063C57.0809 71.4063 57.5219 70.1223 57.7979 68.7303C58.0469 67.4204 58.0975 66.0804 57.9479 64.7553C57.8219 63.6742 57.5681 62.6118 57.1919 61.5903C56.9368 60.9011 56.6257 60.2339 56.2619 59.5953C56.1389 59.3643 56.0219 59.1963 55.9619 59.0763C55.9207 59.0223 55.8855 58.964 55.8569 58.9023V58.9023Z" fill="#263238"/>
<path d="M55.3557 75.045C55.366 74.9734 55.38 74.9023 55.3977 74.832L55.5417 74.232C55.6677 73.701 55.8417 72.936 56.0577 71.982C56.2737 71.028 56.5047 69.882 56.6997 68.625C56.8017 67.989 56.8797 67.32 56.9217 66.624C56.9448 65.9056 56.8854 65.1869 56.7447 64.482C56.3897 62.3751 55.9048 60.2921 55.2927 58.245L55.3257 58.284L54.2997 57.819L54.0927 57.729L54.3177 57.711L55.0527 57.66L55.0137 57.735L54.0357 56.187L53.7807 55.77C53.7486 55.724 53.7214 55.6748 53.6997 55.623C53.7391 55.6634 53.7743 55.7076 53.8047 55.755C53.8737 55.86 53.9667 55.992 54.0807 56.157C54.3267 56.526 54.6807 57.042 55.0977 57.681L55.1427 57.75H55.0587L54.3267 57.813L54.3447 57.708L55.3857 58.149H55.4127V58.176C56.0521 60.2231 56.5532 62.3108 56.9127 64.425C56.9727 64.791 57.0207 65.157 57.0657 65.517C57.0837 65.7 57.0867 65.883 57.0987 66.063C57.1107 66.243 57.0987 66.423 57.0987 66.597C57.0558 67.2727 56.9777 67.9456 56.8647 68.613C56.6607 69.888 56.4117 71.013 56.1897 71.976C55.9677 72.939 55.7697 73.689 55.6257 74.214L55.4517 74.814C55.4297 74.8948 55.3974 74.9724 55.3557 75.045V75.045Z" fill="#263238"/>
<path d="M55.5779 41.0161C55.5779 41.0161 56.9549 46.1641 57.0779 49.8031L57.1169 51.0181C57.1169 51.0181 54.0809 53.5381 51.5339 53.6941L49.3979 48.4441L55.5779 41.0161Z" fill="#263238"/>
<path d="M42.0868 44.1721C42.6688 41.6641 42.8908 38.7421 44.9788 37.1041C46.5268 35.9041 48.2788 35.5531 50.2588 35.6341C51.2863 35.7375 52.2781 36.0674 53.1628 36.6001C54.3208 37.2541 54.8098 38.5801 55.3678 39.7861C56.4868 42.2041 56.3428 45.4861 55.5868 46.3861L45.4888 51.7171C43.4728 50.6671 42.2098 50.2501 41.8888 47.5621C41.7579 46.4292 41.8249 45.2821 42.0868 44.1721V44.1721Z" fill="#263238"/>
<path d="M45.087 39.099L51.441 37.224C53.487 36.924 54.954 39.405 55.164 41.46C55.398 43.746 55.596 46.56 55.392 48.267C54.981 51.729 52.362 52.269 52.362 52.269C52.362 52.269 52.362 52.32 52.377 53.343L52.443 54.999C52.4815 55.67 52.2841 56.3333 51.885 56.874C50.946 58.074 49.239 58.251 47.226 57.504C46.056 57.072 45.246 56.205 45.156 55.02L44.052 40.368C44.0317 40.0647 44.1273 39.7651 44.3194 39.5295C44.5115 39.294 44.7858 39.1401 45.087 39.099Z" fill="#AE7461"/>
<path d="M54.5611 44.5921C54.5661 44.707 54.5264 44.8193 54.4503 44.9054C54.3742 44.9916 54.2676 45.0449 54.1531 45.0541C54.097 45.0608 54.0402 45.0561 53.9859 45.0404C53.9317 45.0248 53.8811 44.9984 53.8372 44.9629C53.7933 44.9274 53.757 44.8835 53.7303 44.8337C53.7037 44.7839 53.6873 44.7293 53.6821 44.6731C53.677 44.5583 53.7167 44.4459 53.7928 44.3598C53.8689 44.2736 53.9755 44.2203 54.0901 44.2111C54.1461 44.2049 54.2027 44.2098 54.2568 44.2256C54.3109 44.2415 54.3613 44.2679 54.4051 44.3033C54.4489 44.3387 54.4852 44.3825 54.512 44.4321C54.5388 44.4817 54.5555 44.536 54.5611 44.5921V44.5921Z" fill="#263238"/>
<path d="M54.7439 43.5362C54.6899 43.5932 54.3479 43.3592 53.8739 43.3802C53.3999 43.4012 53.0609 43.6502 53.0069 43.5962C52.9529 43.5422 53.0309 43.4642 53.1779 43.3472C53.3792 43.1983 53.6207 43.1136 53.8709 43.1042C54.1174 43.0961 54.3604 43.1642 54.5669 43.2992C54.7169 43.4072 54.7709 43.5002 54.7439 43.5362Z" fill="#263238"/>
<path d="M50.3999 44.6608C50.405 44.7756 50.3653 44.888 50.2892 44.9741C50.2131 45.0603 50.1065 45.1136 49.9919 45.1228C49.9359 45.1294 49.879 45.1248 49.8248 45.1091C49.7705 45.0935 49.72 45.0671 49.6761 45.0316C49.6322 44.9961 49.5959 44.9522 49.5692 44.9024C49.5426 44.8526 49.5261 44.798 49.5209 44.7418C49.5159 44.6269 49.5556 44.5146 49.6317 44.4285C49.7078 44.3423 49.8143 44.289 49.9289 44.2798C49.985 44.2732 50.0418 44.2778 50.0961 44.2935C50.1503 44.3091 50.2009 44.3355 50.2448 44.371C50.2887 44.4065 50.325 44.4504 50.3517 44.5002C50.3783 44.55 50.3947 44.6046 50.3999 44.6608V44.6608Z" fill="#263238"/>
<path d="M50.0759 43.5903C50.0219 43.6503 49.6799 43.4163 49.2059 43.4373C48.7319 43.4583 48.3929 43.7073 48.3389 43.6503C48.2849 43.5933 48.3629 43.5213 48.5099 43.4043C48.7099 43.2529 48.9522 43.1679 49.2029 43.1613C49.4495 43.1532 49.6925 43.2213 49.8989 43.3563C50.0489 43.4613 50.0999 43.5633 50.0759 43.5903Z" fill="#263238"/>
<path d="M51.9242 46.6678C52.1711 46.5794 52.4281 46.522 52.6892 46.4968C52.8092 46.4818 52.9232 46.4518 52.9412 46.3678C52.946 46.2419 52.9125 46.1174 52.8452 46.0108C52.7192 45.7108 52.5902 45.4108 52.4522 45.1108C51.9032 43.8148 51.4982 42.7498 51.5522 42.7288C51.6062 42.7078 52.0922 43.7368 52.6412 45.0328L53.0222 45.9328C53.1035 46.0755 53.1321 46.2422 53.1032 46.4038C53.0878 46.4476 53.0624 46.4871 53.0291 46.5194C52.9958 46.5517 52.9554 46.5758 52.9112 46.5898C52.844 46.6105 52.7744 46.6226 52.7042 46.6258C52.447 46.6726 52.1849 46.6867 51.9242 46.6678V46.6678Z" fill="#263238"/>
<path d="M52.3772 52.2687C50.7582 52.357 49.1465 51.9946 47.7212 51.2217C47.7212 51.2217 48.9542 53.5827 52.3832 53.1267L52.3772 52.2687Z" fill="#6F4439"/>
<path d="M50.3998 47.7212C50.4582 47.6234 50.5401 47.5417 50.6381 47.4835C50.736 47.4253 50.847 47.3926 50.9608 47.3882C51.1199 47.3707 51.2808 47.396 51.4268 47.4614C51.5729 47.5267 51.6989 47.6299 51.7918 47.7602C51.8576 47.8823 51.8757 48.0245 51.8428 48.1592C51.8158 48.2282 51.8428 48.1952 51.7858 48.2432C51.6155 48.433 51.4012 48.5782 51.1618 48.6662C51.0322 48.7041 50.8942 48.702 50.7657 48.6602C50.6373 48.6185 50.5244 48.539 50.4418 48.4322C50.3708 48.3287 50.3294 48.2078 50.322 48.0825C50.3146 47.9573 50.3415 47.8323 50.3998 47.7212Z" fill="#6F4439"/>
<path d="M50.4569 47.0703C50.5319 47.0703 50.5559 47.5773 51.0149 47.9223C51.4739 48.2673 52.0169 48.1893 52.0229 48.2613C52.0289 48.3333 51.9059 48.3663 51.6749 48.3813C51.373 48.3995 51.0744 48.3102 50.8319 48.1293C50.5994 47.9571 50.4433 47.7009 50.3969 47.4153C50.3669 47.1993 50.4209 47.0703 50.4569 47.0703Z" fill="#263238"/>
<path d="M50.2561 41.8528C50.2201 41.9878 49.7431 41.9728 49.1941 42.0928C48.6451 42.2128 48.213 42.4078 48.129 42.2998C48.09 42.2488 48.1561 42.1198 48.3241 41.9758C48.5509 41.7994 48.8151 41.6772 49.0963 41.6185C49.3776 41.5597 49.6686 41.566 49.9471 41.6368C50.1571 41.6998 50.2681 41.7898 50.2561 41.8528Z" fill="#263238"/>
<path d="M54.705 42.2581C54.597 42.3511 54.252 42.1891 53.805 42.1201C53.358 42.0511 52.992 42.0751 52.923 41.9521C52.893 41.8921 52.9679 41.7931 53.1419 41.7151C53.3795 41.6222 53.6384 41.5982 53.889 41.6461C54.1403 41.6846 54.3755 41.7938 54.567 41.9611C54.717 42.0931 54.753 42.2101 54.705 42.2581Z" fill="#263238"/>
<path d="M51.4619 36.855C51.4619 36.879 51.4619 36.903 51.4769 36.93L51.4619 36.855Z" fill="#263238"/>
<path d="M47.0193 53.6581C46.9233 52.7581 47.2863 51.8581 47.1813 50.9581C47.0673 50.0041 46.4493 49.1851 46.1973 48.2581C45.7893 46.7581 46.3473 45.1951 46.5513 43.6591C47.4297 43.5164 48.2256 43.0577 48.7893 42.3691C49.4763 41.5651 49.8933 40.5691 50.2893 39.5881C50.2625 40.5547 49.9353 41.4889 49.3533 42.2611C49.5466 42.2911 49.7443 42.2752 49.9303 42.2148C50.1164 42.1543 50.2856 42.051 50.4243 41.9131C50.6998 41.6354 50.9144 41.3033 51.0543 40.9381C51.4231 40.0662 51.6265 39.1333 51.6543 38.1871C51.7822 39.5428 51.629 40.9103 51.2043 42.2041C51.4523 42.1577 51.7074 42.1669 51.9513 42.2311C52.0739 42.2625 52.202 42.2653 52.3258 42.2393C52.4496 42.2133 52.5658 42.1592 52.6653 42.0811C52.7714 41.949 52.8389 41.7901 52.8603 41.6221C53.0976 40.4701 53.1361 39.2861 52.9743 38.1211C53.2992 38.7412 53.5634 39.3912 53.7633 40.0621C53.9567 40.7385 53.9567 41.4556 53.7633 42.1321C53.7913 42.1607 53.8246 42.1834 53.8615 42.1989C53.8983 42.2144 53.9379 42.2223 53.9778 42.2223C54.0178 42.2223 54.0574 42.2144 54.0942 42.1989C54.131 42.1834 54.1644 42.1607 54.1923 42.1321C54.3006 42.0127 54.366 41.8607 54.3783 41.7001C54.4363 41.1168 54.3977 40.5279 54.2643 39.9571C54.6093 40.5571 54.7233 41.2741 54.9123 41.9461C55.1013 42.6181 55.4073 43.3111 55.9923 43.6951C56.0919 42.8155 56.0626 41.9262 55.9053 41.0551C55.7487 40.3218 55.4881 39.6146 55.1313 38.9551C54.7966 38.2238 54.3228 37.5645 53.7363 37.0141C52.7253 36.1141 52.3023 36.5101 51.6543 36.8461L51.5763 36.8791C51.5763 36.8791 51.5763 36.8461 51.5763 36.8311L51.5463 36.6931C49.8553 36.3178 48.0947 36.4006 46.4463 36.9331C45.0615 37.4723 43.8889 38.446 43.1043 39.7081L43.0683 39.7711C41.6313 42.3661 40.6683 45.3751 40.6113 51.8791L47.0193 53.6581Z" fill="#263238"/>
<path d="M55.005 79.08L54.738 76.98C55.2322 74.669 55.6057 72.3339 55.857 69.984C56.334 64.815 54.987 61.602 54.801 61.056C54.696 60.756 52.437 55.371 52.437 55.371C52.437 55.371 52.389 56.745 50.052 56.328C46.794 55.746 45.102 53.895 45.102 53.895L40.353 54.921C40.353 54.921 38.715 61.521 38.472 63.693C38.343 64.863 38.67 70.893 38.67 70.893L37.401 75.192C37.326 75.375 38.481 80.451 38.706 80.661C38.931 80.871 42.969 81.807 43.02 81.981C43.071 82.155 50.721 85.356 50.715 85.227C50.709 85.098 54.396 80.727 54.396 80.727L55.005 79.08Z" fill="#407BFF"/>
<path d="M40.3143 76.866C40.2975 76.9504 40.2671 77.0315 40.2243 77.106C40.1294 77.3206 40.0212 77.529 39.9003 77.73C39.5032 78.3928 39.0178 78.9984 38.4573 79.53C37.8949 80.0626 37.2632 80.5167 36.5793 80.88C36.3729 80.9915 36.1606 81.0917 35.9433 81.18C35.8656 81.218 35.7827 81.2443 35.6973 81.258C35.6973 81.234 36.0183 81.087 36.5253 80.793C37.8479 80.0237 38.972 78.9551 39.8073 77.673C40.1253 77.181 40.2903 76.854 40.3143 76.866Z" fill="#455A64"/>
<path d="M41.1389 58.7549C41.1234 59.0157 41.0719 59.2731 40.9859 59.5199C40.8153 60.1239 40.5789 60.7074 40.2809 61.2599C39.9853 61.8147 39.6302 62.3358 39.2219 62.8139C39.0631 63.0206 38.8775 63.2052 38.6699 63.3629C38.8106 63.1465 38.9659 62.94 39.1349 62.7449C39.8928 61.7627 40.4827 60.6618 40.8809 59.4869C40.9507 59.2374 41.0369 58.9929 41.1389 58.7549V58.7549Z" fill="#263238"/>
<path d="M36.6658 78.186C35.9098 79.467 34.3798 82.95 33.4798 85.386C29.6758 95.655 27.8728 113.67 26.9998 116.802C25.8568 120.975 23.2918 130.416 21.9868 136.704L28.2538 139.437C28.2538 139.437 37.5538 117.105 39.7888 111.672C42.1108 106.041 45.7528 96.12 45.7528 96.12L47.1268 137.766L53.1268 137.949C53.1268 137.949 55.1788 126.081 55.9948 118.986C56.8108 111.891 57.5608 97.281 57.7468 93.579C57.9328 89.877 54.9598 78.909 54.9598 78.909C54.9598 78.909 52.6198 80.667 48.2308 79.995C44.7478 79.458 37.4998 76.77 37.4998 76.77L36.6658 78.186Z" fill="#263238"/>
<path d="M48.8671 81.4561C48.8694 81.6188 48.8573 81.7814 48.8311 81.9421C48.8011 82.2421 48.7471 82.6981 48.6721 83.2501C48.5251 84.3571 48.2971 85.8811 47.9971 87.5551C47.6971 89.2291 47.3971 90.7411 47.1391 91.8271C47.0161 92.3731 46.9111 92.8111 46.8391 93.1141C46.8091 93.273 46.7639 93.4287 46.7041 93.5791C46.7176 93.4173 46.7437 93.2568 46.7821 93.0991C46.8451 92.7661 46.9321 92.3311 47.0371 91.8061C47.2531 90.7111 47.5501 89.2021 47.8471 87.5281C48.1441 85.8541 48.3931 84.3361 48.5701 83.2351C48.6541 82.7071 48.7231 82.2661 48.7771 81.9331C48.7945 81.7719 48.8246 81.6124 48.8671 81.4561V81.4561Z" fill="#455A64"/>
<path d="M46.7249 81.3693C46.7249 81.3693 46.7249 81.2943 46.8419 81.2463C46.99 81.1957 47.1498 81.1905 47.3009 81.2313C47.4074 81.2542 47.5089 81.2959 47.6009 81.3543C47.6551 81.3937 47.701 81.4434 47.736 81.5005C47.771 81.5576 47.7944 81.6211 47.8049 81.6873C47.8268 81.834 47.8059 81.984 47.7447 82.1192C47.6835 82.2543 47.5846 82.3689 47.4599 82.4493C47.338 82.5336 47.1947 82.5817 47.0466 82.5881C46.8985 82.5945 46.7516 82.5588 46.6229 82.4853C46.5131 82.4155 46.4313 82.3093 46.3919 82.1853C46.3631 82.0788 46.3559 81.9676 46.3709 81.8583C46.3875 81.7019 46.4587 81.5564 46.5719 81.4473C46.6589 81.3753 46.7249 81.3693 46.7249 81.3783C46.7249 81.3873 46.6769 81.4143 46.6169 81.4893C46.5326 81.5988 46.4853 81.7322 46.4819 81.8703C46.4686 81.9663 46.482 82.0641 46.5206 82.153C46.5593 82.2419 46.6216 82.3185 46.7009 82.3743C46.8074 82.4273 46.9262 82.4509 47.0449 82.4424C47.1636 82.434 47.2779 82.3939 47.3759 82.3263C47.4771 82.2644 47.5589 82.1754 47.6119 82.0693C47.6649 81.9632 47.6871 81.8444 47.6759 81.7263C47.6712 81.6771 47.6566 81.6294 47.6329 81.5861C47.6091 81.5427 47.5768 81.5047 47.5379 81.4743C47.4615 81.42 47.3762 81.3794 47.2859 81.3543C47.1552 81.3078 47.0147 81.2954 46.8779 81.3183C46.7699 81.3243 46.7369 81.3753 46.7249 81.3693Z" fill="#455A64"/>
<path d="M50.5652 92.0791C50.3363 92.2634 50.0936 92.4299 49.8392 92.5771C49.3862 92.8771 48.7652 93.2941 48.0992 93.7771C47.4332 94.2601 46.8512 94.7401 46.4312 95.0851C46.2161 95.2852 45.9854 95.4678 45.7412 95.6311C45.9251 95.4005 46.1322 95.1894 46.3592 95.0011C46.8849 94.5233 47.4346 94.0728 48.0062 93.6511C48.5773 93.2293 49.1701 92.8378 49.7822 92.4781C50.0293 92.3194 50.2916 92.1857 50.5652 92.0791Z" fill="#455A64"/>
<path d="M35.3669 114.867C35.2806 114.883 35.1923 114.883 35.1059 114.867C34.9409 114.867 34.7009 114.846 34.4039 114.813C33.6313 114.722 32.8689 114.558 32.1269 114.324C31.3849 114.091 30.6658 113.789 29.9789 113.424C29.7149 113.28 29.5079 113.16 29.3789 113.067C29.3022 113.025 29.2315 112.972 29.1689 112.911C29.4657 113.032 29.7552 113.17 30.0359 113.325C30.7311 113.656 31.4477 113.94 32.1809 114.174C32.9168 114.401 33.6676 114.577 34.4279 114.699C35.0039 114.807 35.3669 114.843 35.3669 114.867Z" fill="#455A64"/>
<path d="M34.3502 114.228C34.1439 114.199 33.9422 114.144 33.7502 114.063C33.3782 113.94 32.8712 113.745 32.3252 113.499C31.8579 113.291 31.4013 113.06 30.9572 112.806C30.7656 112.714 30.5878 112.596 30.4292 112.455C30.4502 112.416 31.3022 112.872 32.3882 113.355C33.4742 113.838 34.3652 114.183 34.3502 114.228Z" fill="#455A64"/>
<path d="M53.178 133.581L53.211 139.836C53.211 139.836 59.577 141.9 59.7 143.058L47.574 143.556L47.124 133.8L53.178 133.581Z" fill="#263238"/>
<path d="M49.4401 139.464C49.3245 139.504 49.2278 139.585 49.1685 139.692C49.1093 139.799 49.0916 139.924 49.1191 140.043C49.1559 140.159 49.2356 140.257 49.3421 140.317C49.4485 140.377 49.5736 140.394 49.6921 140.364C49.8138 140.321 49.9153 140.234 49.9768 140.121C50.0383 140.007 50.0555 139.875 50.0251 139.749C49.9752 139.632 49.8816 139.538 49.7641 139.488C49.6465 139.438 49.5142 139.436 49.3951 139.482" fill="#E0E0E0"/>
<path d="M47.5708 143.556V142.572L59.1988 142.464C59.1988 142.464 59.7478 142.677 59.7028 143.064L47.5708 143.556Z" fill="#455A64"/>
<path d="M53.3998 139.767C53.3998 139.824 53.0998 139.863 52.8238 140.067C52.5478 140.271 52.3948 140.523 52.3378 140.502C52.2808 140.481 52.3588 140.136 52.7038 139.902C53.0488 139.668 53.4148 139.71 53.3998 139.767Z" fill="white"/>
<path d="M54.696 140.238C54.714 140.295 54.462 140.406 54.27 140.667C54.078 140.928 54.033 141.192 53.97 141.192C53.907 141.192 53.859 140.859 54.102 140.541C54.345 140.223 54.693 140.184 54.696 140.238Z" fill="white"/>
<path d="M55.4819 141.732C55.4279 141.747 55.3349 141.453 55.4819 141.132C55.6289 140.811 55.8929 140.661 55.9199 140.709C55.9469 140.757 55.7819 140.94 55.6709 141.213C55.5599 141.486 55.5389 141.723 55.4819 141.732Z" fill="white"/>
<path d="M53.2376 138.342C53.2166 138.396 52.9376 138.327 52.6076 138.363C52.2776 138.399 52.0076 138.516 51.9836 138.465C51.9596 138.414 52.1936 138.195 52.5836 138.165C52.9736 138.135 53.2646 138.3 53.2376 138.342Z" fill="white"/>
<path d="M24.546 132.924L22.224 140.124L18.744 145.29C18.6845 145.378 18.6437 145.477 18.6243 145.582C18.6049 145.686 18.6073 145.794 18.6312 145.897C18.6551 146.001 18.7001 146.098 18.7634 146.184C18.8267 146.269 18.9069 146.341 18.999 146.394V146.394C19.1057 146.456 19.2257 146.491 19.349 146.497C19.4722 146.503 19.595 146.479 19.707 146.427C21.162 145.761 26.499 143.283 26.64 142.746C26.802 142.125 29.595 135.315 29.595 135.315L24.546 132.924Z" fill="#263238"/>
<path d="M18.9987 146.4L26.7987 142.272L26.6937 142.572C26.6035 142.834 26.4226 143.055 26.1837 143.196C25.5447 143.571 23.7567 144.567 19.7187 146.439C19.6031 146.492 19.4761 146.516 19.349 146.509C19.2219 146.502 19.0985 146.463 18.9897 146.397L18.9987 146.4Z" fill="#455A64"/>
<g opacity="0.6">
<path opacity="0.6" d="M26.1447 139.452C26.0345 139.486 25.9408 139.56 25.8811 139.659C25.8215 139.758 25.8 139.875 25.8207 139.989C25.8504 140.1 25.9218 140.196 26.02 140.256C26.1183 140.316 26.2359 140.337 26.3487 140.313C26.4661 140.277 26.5659 140.199 26.6286 140.093C26.6913 139.988 26.7124 139.863 26.6877 139.743C26.6445 139.627 26.5571 139.533 26.4446 139.481C26.3322 139.429 26.2038 139.424 26.0877 139.467" fill="white"/>
</g>
<path d="M21.7167 143.844C21.6293 143.561 21.4876 143.299 21.2997 143.07C21.0747 142.874 20.814 142.723 20.5317 142.626C20.5317 142.605 20.6427 142.581 20.8317 142.626C21.0598 142.679 21.2681 142.796 21.4327 142.963C21.5972 143.13 21.7113 143.339 21.7617 143.568C21.7617 143.733 21.7377 143.844 21.7167 143.844Z" fill="white"/>
<path d="M20.8771 144.621C20.8321 144.642 20.6821 144.321 20.3491 144.096C20.1344 143.971 19.9119 143.86 19.6831 143.763C19.8171 143.732 19.9568 143.733 20.09 143.768C20.2233 143.802 20.3462 143.869 20.4481 143.961C20.8261 144.231 20.9191 144.615 20.8771 144.621Z" fill="white"/>
<path d="M23.0997 142.947C22.8703 142.638 22.6175 142.347 22.3437 142.077C22.0339 141.853 21.708 141.653 21.3687 141.477C21.7677 141.53 22.1431 141.697 22.45 141.958C22.7569 142.219 22.9824 142.562 23.0997 142.947V142.947Z" fill="white"/>
<path d="M23.982 140.817C23.946 140.853 23.61 140.55 23.103 140.352C22.596 140.154 22.146 140.136 22.146 140.088C22.4893 140.033 22.8412 140.071 23.1644 140.2C23.4876 140.328 23.7701 140.541 23.982 140.817V140.817Z" fill="white"/>
<path d="M24.7168 138.72C24.4422 138.51 24.1392 138.339 23.8168 138.213C23.4836 138.136 23.1415 138.105 22.7998 138.12C22.7998 138.102 22.9018 138.039 23.0998 138C23.3604 137.956 23.6277 137.975 23.8798 138.054C24.1314 138.133 24.3614 138.268 24.5518 138.45C24.6778 138.6 24.7318 138.708 24.7168 138.72Z" fill="white"/>
<path d="M23.967 137.817C23.975 137.721 24.0037 137.628 24.051 137.544C24.1611 137.304 24.3182 137.089 24.513 136.911C24.6424 136.767 24.8169 136.67 25.008 136.638C25.0706 136.633 25.1332 136.647 25.187 136.68C25.2408 136.712 25.2831 136.76 25.308 136.818C25.3514 136.935 25.3514 137.064 25.308 137.181C25.2079 137.415 25.0296 137.607 24.8036 137.724C24.5776 137.841 24.3179 137.876 24.069 137.823C23.8276 137.764 23.6087 137.636 23.4392 137.454C23.2697 137.272 23.157 137.045 23.115 136.8C23.1053 136.737 23.1094 136.673 23.127 136.612C23.1446 136.551 23.1753 136.494 23.217 136.446C23.2631 136.401 23.3224 136.372 23.3861 136.364C23.4498 136.355 23.5147 136.367 23.571 136.398C23.7331 136.496 23.8666 136.634 23.958 136.8C24.1005 137.022 24.2022 137.268 24.258 137.526C24.287 137.618 24.2952 137.715 24.282 137.811C24.1922 137.477 24.0516 137.158 23.865 136.866C23.782 136.715 23.661 136.589 23.514 136.5C23.4838 136.482 23.4487 136.475 23.4139 136.479C23.3792 136.484 23.3469 136.499 23.322 136.524C23.297 136.558 23.2792 136.596 23.2699 136.637C23.2606 136.678 23.26 136.72 23.268 136.761C23.3071 136.976 23.4074 137.176 23.5569 137.335C23.7064 137.495 23.8988 137.608 24.111 137.661C24.3217 137.706 24.5415 137.679 24.7344 137.583C24.9273 137.487 25.082 137.328 25.173 137.133C25.2028 137.052 25.2028 136.962 25.173 136.881C25.1601 136.848 25.1366 136.82 25.1063 136.802C25.0759 136.783 25.0403 136.775 25.005 136.779C24.8442 136.807 24.6962 136.884 24.582 137.001C24.3304 137.235 24.1222 137.511 23.967 137.817V137.817Z" fill="white"/>
<path d="M39.8371 67.2417L36.6661 78.1857C36.6661 78.1857 34.3471 81.9627 33.4021 84.3597C32.4841 86.6817 31.7461 89.6547 31.1401 92.0787L28.1401 106.032L41.1421 109.734L47.1001 71.2197L39.8371 67.2417Z" fill="#E0E0E0"/>
<path d="M40.4488 54.7587L44.1598 53.9997L45.4648 52.7217C45.4648 52.7217 47.3008 56.0517 47.5498 57.9417C48.4498 64.8927 45.7498 79.9797 45.7498 79.9797L36.9658 75.2997L40.4488 54.7587Z" fill="#E0E0E0"/>
<path d="M45.7437 70.3409C45.7364 70.2771 45.7364 70.2127 45.7437 70.1489C45.7437 70.0049 45.7647 69.8249 45.7827 69.5969C45.8127 69.1199 45.8577 68.4299 45.8847 67.5749C45.9117 66.7199 45.9177 65.7029 45.8847 64.5749C45.8547 64.0109 45.8397 63.4169 45.7587 62.8079C45.6777 62.1989 45.5967 61.5659 45.5127 60.9209C45.4227 60.2129 45.3327 59.5259 45.2487 58.8629L45.2157 58.6169V58.4939V58.4639C45.2113 58.4482 45.2113 58.4316 45.2157 58.4159C45.2213 58.3944 45.2339 58.3754 45.2517 58.3619L45.3147 58.3259C45.4634 58.2553 45.6156 58.1922 45.7707 58.1369C46.065 58.0176 46.372 57.9321 46.6857 57.8819V58.0229H46.4787C46.4092 58.0201 46.34 58.0121 46.2717 57.9989L45.8907 57.9509L45.1587 57.8759H45.1047V57.8219C44.9976 56.8734 44.7966 55.9378 44.5047 55.0289C44.4027 54.7289 44.3217 54.4619 44.2617 54.2699C44.2275 54.1832 44.2004 54.094 44.1807 54.0029C44.2279 54.0839 44.2671 54.1693 44.2977 54.2579C44.3637 54.4289 44.4627 54.6809 44.5737 55.0049C44.896 55.913 45.1183 56.8536 45.2367 57.8099L45.1767 57.7529L45.9147 57.8189C46.0407 57.8189 46.1697 57.8459 46.3017 57.8669C46.363 57.8786 46.4252 57.8846 46.4877 57.8849C46.5477 57.8849 46.6167 57.8849 46.6827 57.8849V58.0259C46.3849 58.0803 46.0934 58.1647 45.8127 58.2779C45.6634 58.3319 45.5172 58.394 45.3747 58.4639L45.3327 58.4879L45.3027 58.4519C45.3027 58.4519 45.3027 58.4519 45.3567 58.4519V58.4819V58.6049L45.3897 58.8539C45.4767 59.5169 45.5667 60.2069 45.6567 60.9149C45.7407 61.5649 45.8217 62.1969 45.8997 62.8109C45.9807 63.4109 45.9957 64.0109 46.0197 64.5869C46.0557 65.7179 46.0377 66.7409 45.9957 67.5869C45.9537 68.4329 45.8967 69.1349 45.8457 69.6119C45.8187 69.8519 45.7947 70.0349 45.7767 70.1609C45.7726 70.222 45.7615 70.2824 45.7437 70.3409V70.3409Z" fill="#263238"/>
<path d="M33.801 93.1621C33.7971 93.1869 33.79 93.2111 33.78 93.2341L33.708 93.4381C33.648 93.6151 33.555 93.8791 33.444 94.2211C33.1275 95.1859 32.8867 96.1739 32.724 97.1761C32.6107 97.8649 32.5735 98.5641 32.613 99.2611C32.6339 99.6476 32.7044 100.03 32.823 100.398C32.9433 100.785 33.1483 101.141 33.423 101.439C33.7168 101.748 34.0907 101.969 34.503 102.078C34.9356 102.191 35.3823 102.241 35.829 102.225C36.7764 102.192 37.6838 101.835 38.4 101.214C39.2331 100.443 39.876 99.4888 40.278 98.4271C40.6648 97.4748 40.9367 96.4798 41.088 95.4631L41.136 95.5351L35.847 93.8401L34.347 93.3481L33.948 93.2161L33.807 93.1621L33.939 93.1951L34.332 93.3091L35.832 93.7591L41.175 95.4001L41.232 95.4181V95.4751C41.0853 96.504 40.8143 97.5114 40.425 98.4751C40.0167 99.5614 39.3602 100.537 38.508 101.325C37.7655 101.969 36.8236 102.338 35.841 102.369C35.378 102.383 34.9153 102.33 34.467 102.213C34.031 102.095 33.6363 101.858 33.327 101.529C33.039 101.218 32.8247 100.846 32.7 100.44C32.5786 100.061 32.508 99.6677 32.49 99.2701C32.4561 98.5674 32.5004 97.8631 32.622 97.1701C32.7946 96.165 33.0525 95.1764 33.393 94.2151C33.513 93.8731 33.615 93.6151 33.693 93.4381C33.726 93.3571 33.756 93.2911 33.777 93.2401C33.7815 93.2131 33.7895 93.1869 33.801 93.1621Z" fill="#263238"/>
<g opacity="0.3">
<path opacity="0.3" d="M40.3652 85.3226C42.5582 85.9226 44.9192 85.0016 46.7042 83.6006C48.4892 82.1996 49.8512 80.3366 51.3632 78.6416C53.2802 76.4906 55.4702 74.5826 57.2942 72.3416C59.1182 70.1006 60.5942 67.4576 60.7682 64.5776L40.3652 85.3226Z" fill="black"/>
</g>
<path d="M60.6541 36.204C61.3854 32.5384 62.9721 29.0974 65.2852 26.1613C67.5983 23.2251 70.5723 20.877 73.9648 19.308C77.3574 17.739 81.0726 16.9937 84.8078 17.1326C88.543 17.2716 92.1926 18.2909 95.4592 20.1076C98.7258 21.9243 101.517 24.4869 103.606 27.5868C105.694 30.6866 107.021 34.236 107.478 37.9458C107.935 41.6556 107.509 45.4208 106.235 48.9347C104.961 52.4487 102.874 55.612 100.146 58.1669V58.1669C96.4786 61.6042 91.8142 63.788 86.8256 64.4033C81.8369 65.0187 76.7816 64.0338 72.3888 61.5908C67.9959 59.1478 64.4924 55.3728 62.3834 50.8101C60.2744 46.2475 59.6689 41.1329 60.6541 36.204V36.204ZM105.63 45.1769C106.661 40.0023 105.809 34.6296 103.228 30.0276C100.648 25.4256 96.5074 21.8971 91.5545 20.0783C86.6015 18.2595 81.1617 18.2701 76.2159 20.1082C71.2701 21.9463 67.1438 25.4909 64.5809 30.103C62.018 34.715 61.1872 40.091 62.2383 45.2616C63.2894 50.4321 66.1532 55.0571 70.3134 58.3024C74.4736 61.5477 79.6565 63.2 84.9274 62.9611C90.1983 62.7223 95.2105 60.6082 99.0601 56.9999C102.43 53.8411 104.728 49.707 105.63 45.1769V45.1769Z" fill="#455A64"/>
<path d="M60.6541 36.204C61.3854 32.5384 62.9721 29.0974 65.2852 26.1613C67.5983 23.2251 70.5723 20.877 73.9648 19.308C77.3574 17.739 81.0726 16.9937 84.8078 17.1326C88.543 17.2716 92.1926 18.2909 95.4592 20.1076C98.7258 21.9243 101.517 24.4869 103.606 27.5868C105.694 30.6866 107.021 34.236 107.478 37.9458C107.935 41.6556 107.509 45.4208 106.235 48.9347C104.961 52.4487 102.874 55.612 100.146 58.1669V58.1669C96.4786 61.6042 91.8142 63.788 86.8256 64.4033C81.8369 65.0187 76.7816 64.0338 72.3888 61.5908C67.9959 59.1478 64.4924 55.3728 62.3834 50.8101C60.2744 46.2475 59.6689 41.1329 60.6541 36.204V36.204ZM105.63 45.1769C106.661 40.0023 105.809 34.6296 103.228 30.0276C100.648 25.4256 96.5074 21.8971 91.5545 20.0783C86.6015 18.2595 81.1617 18.2701 76.2159 20.1082C71.2701 21.9463 67.1438 25.4909 64.5809 30.103C62.018 34.715 61.1872 40.091 62.2383 45.2616C63.2894 50.4321 66.1532 55.0571 70.3134 58.3024C74.4736 61.5477 79.6565 63.2 84.9274 62.9611C90.1983 62.7223 95.2105 60.6082 99.0601 56.9999C102.43 53.8411 104.728 49.707 105.63 45.1769V45.1769Z" fill="#263238"/>
<path d="M60.0721 35.0609C60.8033 31.3953 62.3901 27.9543 64.7032 25.0182C67.0163 22.0821 69.9902 19.7339 73.3828 18.1649C76.7753 16.596 80.4905 15.8506 84.2258 15.9895C87.961 16.1285 91.6105 17.1478 94.8771 18.9645C98.1438 20.7812 100.935 23.3439 103.024 26.4437C105.112 29.5436 106.439 33.093 106.896 36.8027C107.353 40.5125 106.927 44.2777 105.653 47.7917C104.378 51.3056 102.292 54.4689 99.5641 57.0239V57.0239C95.8966 60.4612 91.2322 62.6449 86.2435 63.2603C81.2548 63.8756 76.1996 62.8908 71.8068 60.4477C67.4139 58.0047 63.9104 54.2297 61.8014 49.6671C59.6924 45.1044 59.0868 39.9899 60.0721 35.0609V35.0609ZM105.048 44.0339C106.075 38.8613 105.221 33.4919 102.639 28.8938C100.056 24.2956 95.9166 20.7711 90.9654 18.9556C86.0142 17.1401 80.5773 17.1532 75.6348 18.9923C70.6923 20.8314 66.5694 24.3757 64.0093 28.9862C61.4492 33.5967 60.6204 38.97 61.6722 44.1377C62.724 49.3053 65.5873 53.9272 69.7459 57.1701C73.9044 60.4131 79.0847 62.0638 84.3529 61.8247C89.621 61.5855 94.6305 59.4723 98.4781 55.8659C101.85 52.7046 104.147 48.5671 105.048 44.0339V44.0339Z" fill="#455A64"/>
<path d="M39.6688 85.8899L38.9128 85.1579C38.2378 84.5069 38.6128 83.0159 39.3238 82.2929L65.8378 54.8999L69.3838 58.3289L42.8998 85.6829C42.0148 86.5589 40.5358 86.7269 39.6688 85.8899Z" fill="#455A64"/>
<path d="M47.778 70.2721L48.312 70.1581L51.102 67.7791L52.629 66.4981C52.7567 66.3901 52.9111 66.3186 53.076 66.2911L54.576 66.0391C54.6386 66.2372 54.6272 66.4513 54.5439 66.6416C54.4606 66.832 54.311 66.9856 54.123 67.0741L53.307 67.5001L52.548 68.4001L52.644 68.5951C52.644 68.5951 57.612 69.3661 57.924 69.7441C57.9749 69.802 58.0121 69.8706 58.033 69.9449C58.0539 70.0191 58.0578 70.0971 58.0446 70.1731C58.0314 70.2491 58.0013 70.3211 57.9565 70.3839C57.9118 70.4467 57.8535 70.4987 57.786 70.5361C57.6635 70.5777 57.5328 70.589 57.405 70.5691C57.405 70.5691 57.648 71.1691 56.925 71.6371C56.925 71.6371 57.474 72.3631 56.511 72.7081C56.3314 73.0412 56.0373 73.298 55.683 73.4311C54.4181 73.6712 53.1413 73.8434 51.858 73.9471H48.297L47.583 74.0641L47.778 70.2721Z" fill="#AE7461"/>
<path d="M57.5221 70.5778C57.0721 70.6833 56.607 70.7087 56.1481 70.6528C55.6876 70.642 55.2301 70.5745 54.7861 70.4518C55.2434 70.4185 55.703 70.4335 56.1571 70.4968C56.6132 70.501 57.0688 70.528 57.5221 70.5778V70.5778Z" fill="#6F4439"/>
<path d="M56.9249 71.6371C56.9249 71.6611 56.7959 71.6791 56.5889 71.7061C56.3819 71.7331 56.0939 71.7721 55.7699 71.7931C55.4958 71.8035 55.2213 71.7975 54.9479 71.7751C54.8341 71.7784 54.7203 71.7683 54.6089 71.7451C54.6089 71.7211 54.7349 71.6791 54.9449 71.6641C55.1549 71.6491 55.4489 71.6641 55.7609 71.6371C56.0729 71.6101 56.3609 71.5921 56.5799 71.5951C56.7989 71.5981 56.9249 71.6161 56.9249 71.6371Z" fill="#6F4439"/>
<path d="M56.61 72.684C56.1715 72.796 55.7215 72.8564 55.269 72.864C54.9637 72.8685 54.6605 72.917 54.369 73.008C54.15 73.089 54.051 73.206 54.03 73.188C54.009 73.17 54.09 73.026 54.33 72.906C54.6307 72.7773 54.954 72.7099 55.281 72.708C55.7217 72.6503 56.1675 72.6422 56.61 72.684V72.684Z" fill="#6F4439"/>
<path d="M40.4491 54.7588C40.4491 54.7588 38.2531 55.2868 36.6631 58.4158C35.7811 60.1468 31.6711 70.5448 31.4251 71.4568C30.3841 75.3568 32.4031 77.8738 34.3471 78.0568C36.4861 78.2458 47.4511 76.6588 47.4511 76.6588L47.7961 69.9448L37.7401 71.6488L42.5401 62.0638C42.5401 62.0638 42.8311 55.6168 40.4491 54.7588Z" fill="#E0E0E0"/>
<path d="M34.9497 78.0567H35.0097L35.1867 78.0387L35.8767 77.9727L38.4627 77.7207C40.6767 77.4957 43.7967 77.0967 47.4387 76.5867L47.3757 76.6557C47.4807 74.5827 47.5977 72.3117 47.7177 69.9417L47.8077 70.0227L37.8267 71.5617L37.7037 71.5797L37.7577 71.4687L40.5717 65.3997C40.9107 64.6767 41.1717 64.1067 41.3697 63.7077L41.5827 63.2667C41.6069 63.2152 41.634 63.1652 41.6637 63.1167C41.6475 63.1711 41.6274 63.2242 41.6037 63.2757L41.4057 63.7257L40.6407 65.4297L37.8687 71.5167L37.7967 71.4237L47.7747 69.8607L47.8707 69.8457V69.9417C47.7477 72.3117 47.6277 74.5827 47.5197 76.6527V76.7157H47.4597C43.8147 77.2167 40.6887 77.5947 38.4597 77.7957C37.3527 77.9007 36.4707 77.9667 35.8677 78.0057L35.1777 78.0477H34.9977L34.9497 78.0567Z" fill="#263238"/>
<path d="M34.3081 74.052C34.3544 73.8259 34.4463 73.6116 34.5781 73.422C34.8728 72.9498 35.2594 72.5417 35.7151 72.222C36.1652 71.8983 36.675 71.6668 37.2151 71.541C37.4376 71.4794 37.67 71.4621 37.8991 71.49C37.8991 71.517 37.6411 71.535 37.2421 71.649C36.7237 71.7991 36.2347 72.0365 35.7961 72.351C35.3567 72.6646 34.9733 73.05 34.6621 73.491C34.4341 73.821 34.3321 74.061 34.3081 74.052Z" fill="#263238"/>
<path d="M42.45 60.2997C42.3018 58.5741 41.6203 56.9375 40.5 55.6167C40.7051 55.7687 40.8861 55.9508 41.037 56.1567C41.8163 57.1219 42.3034 58.2898 42.441 59.5227C42.4831 59.7798 42.4861 60.0417 42.45 60.2997V60.2997Z" fill="#263238"/>
<path d="M65.1239 64.1133C65.4719 63.9363 65.5739 63.4863 65.5739 63.0963C65.5699 62.1736 65.2061 61.2889 64.5598 60.6303C64.4789 60.5342 64.376 60.459 64.2598 60.4112C64.19 60.3973 64.1178 60.3998 64.0491 60.4185C63.9804 60.4373 63.9169 60.4717 63.8639 60.5192C63.7951 60.591 63.7501 60.6822 63.735 60.7805C63.72 60.8787 63.7357 60.9792 63.7799 61.0682C64.2929 62.4842 63.9988 62.4512 64.2028 63.2672C64.2508 63.4622 64.6169 63.7262 64.7399 63.8852C64.7982 63.9669 64.8797 64.0291 64.9739 64.0639C65.068 64.0987 65.1704 64.1044 65.2679 64.0803" fill="#AE7461"/>
<path d="M63.945 61.6772C63.8454 61.4835 63.7123 61.3088 63.552 61.1612C63.4857 61.0935 63.4033 61.0437 63.3126 61.0164C63.2218 60.9891 63.1256 60.9853 63.033 61.0052C62.76 61.0892 62.628 61.4822 62.658 61.8482C62.712 62.2108 62.8266 62.5617 62.997 62.8862L63.969 64.9863L64.158 64.8483C64.1895 64.8758 64.2271 64.8956 64.2676 64.906C64.3082 64.9163 64.3506 64.917 64.3915 64.908C64.4324 64.8989 64.4706 64.8804 64.503 64.8539C64.5354 64.8273 64.5611 64.7936 64.578 64.7553C64.6591 64.5758 64.6912 64.3781 64.671 64.1823C64.6329 63.3012 64.3839 62.4421 63.945 61.6772Z" fill="#AE7461"/>
<path d="M63.468 63.777C63.2174 63.2918 62.8891 62.851 62.496 62.472C62.3745 62.3234 62.2192 62.2061 62.043 62.13C61.954 62.0937 61.8554 62.0887 61.7632 62.116C61.671 62.1433 61.5909 62.2011 61.536 62.28C61.508 62.3657 61.4997 62.4565 61.5116 62.5459C61.5236 62.6352 61.5555 62.7207 61.605 62.796C62.0931 63.8126 62.6515 64.794 63.276 65.733L63.858 65.133C64.122 64.674 63.69 64.272 63.468 63.777Z" fill="#AE7461"/>
</svg>
