<svg width="51" height="50" viewBox="0 0 51 50" fill="none" xmlns="http://www.w3.org/2000/svg">
<path d="M35.394 4.1665H44.8815L45.0898 4.19567L45.2961 4.254L45.4211 4.30817C45.5878 4.379 45.7398 4.48525 45.8773 4.62067L45.9607 4.71234L46.0523 4.83109L46.1648 5.01859L46.2461 5.20609L46.2857 5.33942L46.3148 5.47275L46.3336 5.67067V15.1123C46.3335 15.5082 46.1831 15.8893 45.9128 16.1786C45.6425 16.4678 45.2726 16.6437 44.8776 16.6707C44.4826 16.6977 44.0921 16.5738 43.785 16.3239C43.478 16.0741 43.2771 15.717 43.2232 15.3248L43.2086 15.1123V9.49775L29.7919 22.9144C29.5274 23.179 29.1766 23.3399 28.8035 23.3678C28.4303 23.3958 28.0596 23.2888 27.7586 23.0665L27.5836 22.9165L21.2711 16.854L9.41692 28.7061C9.13812 28.9857 8.76381 29.1493 8.36927 29.1641C7.97472 29.179 7.58918 29.0439 7.29017 28.7861C6.99116 28.5282 6.80085 28.1667 6.7575 27.7743C6.71415 27.3819 6.82098 26.9876 7.0565 26.6707L7.20859 26.4957L20.1669 13.5373C20.4317 13.273 20.7826 13.1125 21.1558 13.085C21.5289 13.0575 21.8995 13.1648 22.2003 13.3873L22.3753 13.5373L28.6878 19.5998L40.9961 7.2915H35.3919C35.0147 7.29099 34.6504 7.15402 34.3663 6.90589C34.0822 6.65776 33.8974 6.31522 33.8461 5.9415L33.8315 5.729C33.8315 5.35143 33.9683 4.98662 34.2164 4.70207C34.4646 4.41751 34.8074 4.23244 35.1815 4.18109L35.3961 4.1665H35.394ZM8.31275 35.4165C8.72716 35.4165 9.12458 35.5811 9.41761 35.8742C9.71063 36.1672 9.87525 36.5646 9.87525 36.979V44.2707C9.87525 44.6851 9.71063 45.0825 9.41761 45.3755C9.12458 45.6686 8.72716 45.8332 8.31275 45.8332C7.89835 45.8332 7.50093 45.6686 7.2079 45.3755C6.91487 45.0825 6.75025 44.6851 6.75025 44.2707V36.979C6.75025 36.5646 6.91487 36.1672 7.2079 35.8742C7.50093 35.5811 7.89835 35.4165 8.31275 35.4165V35.4165ZM20.2919 28.6457C20.2919 28.2313 20.1273 27.8338 19.8343 27.5408C19.5412 27.2478 19.1438 27.0832 18.7294 27.0832C18.315 27.0832 17.9176 27.2478 17.6246 27.5408C17.3315 27.8338 17.1669 28.2313 17.1669 28.6457V44.2707C17.1669 44.6851 17.3315 45.0825 17.6246 45.3755C17.9176 45.6686 18.315 45.8332 18.7294 45.8332C19.1438 45.8332 19.5412 45.6686 19.8343 45.3755C20.1273 45.0825 20.2919 44.6851 20.2919 44.2707V28.6457ZM29.1461 31.2498C29.5605 31.2498 29.9579 31.4145 30.2509 31.7075C30.544 32.0005 30.7086 32.3979 30.7086 32.8123V44.2707C30.7086 44.6851 30.544 45.0825 30.2509 45.3755C29.9579 45.6686 29.5605 45.8332 29.1461 45.8332C28.7317 45.8332 28.3343 45.6686 28.0412 45.3755C27.7482 45.0825 27.5836 44.6851 27.5836 44.2707V32.8123C27.5836 32.3979 27.7482 32.0005 28.0412 31.7075C28.3343 31.4145 28.7317 31.2498 29.1461 31.2498ZM41.1253 22.3957C41.1253 21.9813 40.9606 21.5838 40.6676 21.2908C40.3746 20.9978 39.9772 20.8332 39.5628 20.8332C39.1484 20.8332 38.7509 20.9978 38.4579 21.2908C38.1649 21.5838 38.0003 21.9813 38.0003 22.3957V44.2707C38.0003 44.6851 38.1649 45.0825 38.4579 45.3755C38.7509 45.6686 39.1484 45.8332 39.5628 45.8332C39.9772 45.8332 40.3746 45.6686 40.6676 45.3755C40.9606 45.0825 41.1253 44.6851 41.1253 44.2707V22.3957Z" fill="#080056"/>
</svg>
