<svg width="425" height="48" viewBox="0 0 425 48" fill="none" xmlns="http://www.w3.org/2000/svg">
<path d="M6.46855 20.0982H20.4706V17.2939H6.46855C2.91873 17.2939 0 20.2608 0 23.9592V24.0405C0 27.6982 2.87929 30.7057 6.46855 30.7057H10.2156V29.649V27.9014H6.46855C4.41754 27.9014 2.72152 26.1945 2.72152 24.0405V23.9592C2.76096 21.8458 4.41754 20.0982 6.46855 20.0982Z" fill="#F7B538"/>
<path d="M29.5313 17.2939H25.7843V20.0982H29.5313C31.5824 20.0982 33.2784 21.8052 33.2784 23.9592V24.0405C33.2784 26.1538 31.6218 27.9014 29.5313 27.9014H15.5293V29.649V30.7057H29.5313C33.0812 30.7057 35.9999 27.7389 35.9999 24.0405V23.9592C35.9999 20.3014 33.0812 17.2939 29.5313 17.2939Z" fill="#3454D1"/>
<path d="M22.3078 26.4706H24.7057V12.4685C24.7057 8.91873 21.7389 6 18.0405 6H17.9592C14.3014 6 11.2939 8.87929 11.2939 12.4685V16.2156H11.8223H14.0982V12.4685C14.0982 10.4175 15.8052 8.72152 17.9592 8.72152H18.0405C20.1538 8.72152 21.9014 10.3781 21.9014 12.4685V26.4706H22.3078Z" fill="#FE4D3C"/>
<path d="M23.1207 31.7843H22.7143H21.9014V35.5313C21.9014 37.5823 20.1945 39.2784 18.0405 39.2784H17.9592C15.8458 39.2784 14.0982 37.6218 14.0982 35.5313V21.5293H12.3913H11.8629H11.2939V35.5313C11.2939 39.0811 14.2608 41.9999 17.9592 41.9999H18.0405C21.6982 41.9999 24.7057 39.1206 24.7057 35.5313V31.7843H23.1207Z" fill="#35BA83"/>
<path d="M60.9176 21.6562H57.1847C57.1165 21.1733 56.9773 20.7443 56.767 20.3693C56.5568 19.9886 56.2869 19.6648 55.9574 19.3977C55.6278 19.1307 55.2472 18.9261 54.8153 18.7841C54.3892 18.642 53.9261 18.571 53.4261 18.571C52.5227 18.571 51.7358 18.7955 51.0653 19.2443C50.3949 19.6875 49.875 20.3352 49.5057 21.1875C49.1364 22.0341 48.9517 23.0625 48.9517 24.2727C48.9517 25.517 49.1364 26.5625 49.5057 27.4091C49.8807 28.2557 50.4034 28.8949 51.0739 29.3267C51.7443 29.7585 52.5199 29.9744 53.4006 29.9744C53.8949 29.9744 54.3523 29.9091 54.7727 29.7784C55.1989 29.6477 55.5767 29.4574 55.9062 29.2074C56.2358 28.9517 56.5085 28.642 56.7244 28.2784C56.946 27.9148 57.0994 27.5 57.1847 27.0341L60.9176 27.0511C60.821 27.8523 60.5795 28.625 60.1932 29.3693C59.8125 30.108 59.2983 30.7699 58.6506 31.3551C58.0085 31.9347 57.2415 32.3949 56.3494 32.7358C55.4631 33.071 54.4602 33.2386 53.3409 33.2386C51.7841 33.2386 50.392 32.8864 49.1648 32.1818C47.9432 31.4773 46.9773 30.4574 46.267 29.1222C45.5625 27.7869 45.2102 26.1705 45.2102 24.2727C45.2102 22.3693 45.5682 20.75 46.2841 19.4148C47 18.0795 47.9716 17.0625 49.1989 16.3636C50.4261 15.6591 51.8068 15.3068 53.3409 15.3068C54.3523 15.3068 55.2898 15.4489 56.1534 15.733C57.0227 16.017 57.7926 16.4318 58.4631 16.9773C59.1335 17.517 59.679 18.179 60.0994 18.9631C60.5256 19.7472 60.7983 20.6449 60.9176 21.6562ZM69.4105 33.2557C68.0866 33.2557 66.9418 32.9744 65.9759 32.4119C65.0156 31.8437 64.2741 31.054 63.7514 30.0426C63.2287 29.0256 62.9673 27.8466 62.9673 26.5057C62.9673 25.1534 63.2287 23.9716 63.7514 22.9602C64.2741 21.9432 65.0156 21.1534 65.9759 20.5909C66.9418 20.0227 68.0866 19.7386 69.4105 19.7386C70.7344 19.7386 71.8764 20.0227 72.8366 20.5909C73.8026 21.1534 74.5469 21.9432 75.0696 22.9602C75.5923 23.9716 75.8537 25.1534 75.8537 26.5057C75.8537 27.8466 75.5923 29.0256 75.0696 30.0426C74.5469 31.054 73.8026 31.8437 72.8366 32.4119C71.8764 32.9744 70.7344 33.2557 69.4105 33.2557ZM69.4276 30.4432C70.0298 30.4432 70.5327 30.2727 70.9361 29.9318C71.3395 29.5852 71.6435 29.1136 71.848 28.517C72.0582 27.9205 72.1634 27.2415 72.1634 26.4801C72.1634 25.7188 72.0582 25.0398 71.848 24.4432C71.6435 23.8466 71.3395 23.375 70.9361 23.0284C70.5327 22.6818 70.0298 22.5085 69.4276 22.5085C68.8196 22.5085 68.3082 22.6818 67.8935 23.0284C67.4844 23.375 67.1747 23.8466 66.9645 24.4432C66.7599 25.0398 66.6577 25.7188 66.6577 26.4801C66.6577 27.2415 66.7599 27.9205 66.9645 28.517C67.1747 29.1136 67.4844 29.5852 67.8935 29.9318C68.3082 30.2727 68.8196 30.4432 69.4276 30.4432ZM78.2145 33V19.9091H81.7344V22.1932H81.8707C82.1094 21.3807 82.5099 20.767 83.0724 20.3523C83.6349 19.9318 84.2827 19.7216 85.0156 19.7216C85.1974 19.7216 85.3935 19.733 85.6037 19.7557C85.8139 19.7784 85.9986 19.8097 86.1577 19.8494V23.071C85.9872 23.0199 85.7514 22.9744 85.4503 22.9347C85.1491 22.8949 84.8736 22.875 84.6236 22.875C84.0895 22.875 83.6122 22.9915 83.1918 23.2244C82.777 23.4517 82.4474 23.7699 82.2031 24.179C81.9645 24.5881 81.8452 25.0597 81.8452 25.5938V33H78.2145ZM91.6655 25.4318V33H88.0348V19.9091H91.495V22.2188H91.6484C91.9382 21.4574 92.424 20.8551 93.1058 20.4119C93.7876 19.9631 94.6143 19.7386 95.5859 19.7386C96.495 19.7386 97.2876 19.9375 97.9638 20.3352C98.6399 20.733 99.1655 21.3011 99.5405 22.0398C99.9155 22.7727 100.103 23.6477 100.103 24.6648V33H96.4723V25.3125C96.478 24.5114 96.2734 23.8864 95.8587 23.4375C95.4439 22.983 94.8729 22.7557 94.1456 22.7557C93.657 22.7557 93.2251 22.8608 92.8501 23.071C92.4808 23.2812 92.1911 23.5881 91.9808 23.9915C91.7763 24.3892 91.6712 24.8693 91.6655 25.4318ZM102.964 33V19.9091H106.595V33H102.964ZM104.788 18.2216C104.249 18.2216 103.786 18.0426 103.399 17.6847C103.018 17.321 102.828 16.8864 102.828 16.3807C102.828 15.8807 103.018 15.4517 103.399 15.0938C103.786 14.7301 104.249 14.5483 104.788 14.5483C105.328 14.5483 105.788 14.7301 106.169 15.0938C106.555 15.4517 106.749 15.8807 106.749 16.3807C106.749 16.8864 106.555 17.321 106.169 17.6847C105.788 18.0426 105.328 18.2216 104.788 18.2216ZM115.469 33.2557C114.123 33.2557 112.964 32.983 111.992 32.4375C111.026 31.8864 110.282 31.108 109.759 30.1023C109.237 29.0909 108.975 27.8949 108.975 26.5142C108.975 25.1676 109.237 23.9858 109.759 22.9688C110.282 21.9517 111.018 21.1591 111.967 20.5909C112.921 20.0227 114.04 19.7386 115.325 19.7386C116.188 19.7386 116.992 19.8778 117.737 20.1562C118.487 20.429 119.14 20.8409 119.697 21.392C120.259 21.9432 120.697 22.6364 121.009 23.4716C121.322 24.3011 121.478 25.2727 121.478 26.3864V27.3835H110.424V25.1335H118.06C118.06 24.6108 117.947 24.1477 117.719 23.7443C117.492 23.3409 117.177 23.0256 116.773 22.7983C116.376 22.5653 115.913 22.4489 115.384 22.4489C114.833 22.4489 114.344 22.5767 113.918 22.8324C113.498 23.0824 113.168 23.4205 112.93 23.8466C112.691 24.267 112.569 24.7358 112.563 25.2528V27.392C112.563 28.0398 112.683 28.5994 112.921 29.071C113.165 29.5426 113.509 29.9062 113.952 30.1619C114.396 30.4176 114.921 30.5455 115.529 30.5455C115.933 30.5455 116.302 30.4886 116.637 30.375C116.972 30.2614 117.259 30.0909 117.498 29.8636C117.737 29.6364 117.918 29.358 118.043 29.0284L121.401 29.25C121.231 30.0568 120.881 30.7614 120.353 31.3636C119.83 31.9602 119.154 32.4261 118.325 32.7614C117.501 33.0909 116.549 33.2557 115.469 33.2557ZM123.915 33V15.5455H127.606V22.7472H135.097V15.5455H138.779V33H135.097V25.7898H127.606V33H123.915ZM147.719 33.2557C146.373 33.2557 145.214 32.983 144.242 32.4375C143.276 31.8864 142.532 31.108 142.009 30.1023C141.487 29.0909 141.225 27.8949 141.225 26.5142C141.225 25.1676 141.487 23.9858 142.009 22.9688C142.532 21.9517 143.268 21.1591 144.217 20.5909C145.171 20.0227 146.29 19.7386 147.575 19.7386C148.438 19.7386 149.242 19.8778 149.987 20.1562C150.737 20.429 151.39 20.8409 151.947 21.392C152.509 21.9432 152.947 22.6364 153.259 23.4716C153.572 24.3011 153.728 25.2727 153.728 26.3864V27.3835H142.674V25.1335H150.31C150.31 24.6108 150.197 24.1477 149.969 23.7443C149.742 23.3409 149.427 23.0256 149.023 22.7983C148.626 22.5653 148.163 22.4489 147.634 22.4489C147.083 22.4489 146.594 22.5767 146.168 22.8324C145.748 23.0824 145.418 23.4205 145.18 23.8466C144.941 24.267 144.819 24.7358 144.813 25.2528V27.392C144.813 28.0398 144.933 28.5994 145.171 29.071C145.415 29.5426 145.759 29.9062 146.202 30.1619C146.646 30.4176 147.171 30.5455 147.779 30.5455C148.183 30.5455 148.552 30.4886 148.887 30.375C149.222 30.2614 149.509 30.0909 149.748 29.8636C149.987 29.6364 150.168 29.358 150.293 29.0284L153.651 29.25C153.481 30.0568 153.131 30.7614 152.603 31.3636C152.08 31.9602 151.404 32.4261 150.575 32.7614C149.751 33.0909 148.799 33.2557 147.719 33.2557ZM159.83 33.2472C158.995 33.2472 158.251 33.1023 157.597 32.8125C156.944 32.517 156.427 32.0824 156.046 31.5085C155.671 30.929 155.484 30.2074 155.484 29.3438C155.484 28.6165 155.617 28.0057 155.884 27.5114C156.151 27.017 156.515 26.6193 156.975 26.3182C157.435 26.017 157.958 25.7898 158.543 25.6364C159.134 25.483 159.754 25.375 160.401 25.3125C161.163 25.233 161.776 25.1591 162.242 25.0909C162.708 25.017 163.046 24.9091 163.256 24.767C163.467 24.625 163.572 24.4148 163.572 24.1364V24.0852C163.572 23.5455 163.401 23.1278 163.06 22.8324C162.725 22.5369 162.248 22.3892 161.629 22.3892C160.975 22.3892 160.455 22.5341 160.069 22.8239C159.683 23.108 159.427 23.4659 159.302 23.8977L155.944 23.625C156.114 22.8295 156.45 22.142 156.95 21.5625C157.45 20.9773 158.094 20.5284 158.884 20.2159C159.68 19.8977 160.6 19.7386 161.646 19.7386C162.373 19.7386 163.069 19.8239 163.734 19.9943C164.404 20.1648 164.998 20.429 165.515 20.7869C166.038 21.1449 166.45 21.6051 166.751 22.1676C167.052 22.7244 167.202 23.392 167.202 24.1705V33H163.759V31.1847H163.657C163.447 31.5938 163.165 31.9545 162.813 32.267C162.461 32.5739 162.038 32.8153 161.543 32.9915C161.049 33.1619 160.478 33.2472 159.83 33.2472ZM160.87 30.7415C161.404 30.7415 161.876 30.6364 162.285 30.4261C162.694 30.2102 163.015 29.9205 163.248 29.5568C163.481 29.1932 163.597 28.7812 163.597 28.321V26.9318C163.484 27.0057 163.327 27.0739 163.129 27.1364C162.935 27.1932 162.717 27.2472 162.472 27.2983C162.228 27.3437 161.984 27.3864 161.739 27.4261C161.495 27.4602 161.273 27.4915 161.075 27.5199C160.648 27.5824 160.276 27.6818 159.958 27.8182C159.64 27.9545 159.393 28.1392 159.217 28.3722C159.04 28.5994 158.952 28.8835 158.952 29.2244C158.952 29.7188 159.131 30.0966 159.489 30.358C159.853 30.6136 160.313 30.7415 160.87 30.7415ZM173.65 15.5455V33H170.019V15.5455H173.65ZM183.521 19.9091V22.6364H175.638V19.9091H183.521ZM177.428 16.7727H181.058V28.9773C181.058 29.3125 181.109 29.5739 181.212 29.7614C181.314 29.9432 181.456 30.071 181.638 30.1449C181.825 30.2187 182.041 30.2557 182.286 30.2557C182.456 30.2557 182.626 30.2415 182.797 30.2131C182.967 30.179 183.098 30.1534 183.189 30.1364L183.76 32.8381C183.578 32.8949 183.322 32.9602 182.993 33.0341C182.663 33.1136 182.263 33.1619 181.791 33.179C180.916 33.2131 180.149 33.0966 179.49 32.8295C178.837 32.5625 178.328 32.1477 177.964 31.5852C177.601 31.0227 177.422 30.3125 177.428 29.4545V16.7727ZM189.798 25.4318V33H186.168V15.5455H189.696V22.2188H189.849C190.145 21.446 190.622 20.8409 191.281 20.4034C191.94 19.9602 192.767 19.7386 193.761 19.7386C194.67 19.7386 195.463 19.9375 196.139 20.3352C196.821 20.7273 197.349 21.2926 197.724 22.0312C198.105 22.7642 198.293 23.642 198.287 24.6648V33H194.656V25.3125C194.662 24.5057 194.457 23.8778 194.043 23.429C193.634 22.9801 193.06 22.7557 192.321 22.7557C191.827 22.7557 191.389 22.8608 191.009 23.071C190.634 23.2812 190.338 23.5881 190.122 23.9915C189.912 24.3892 189.804 24.8693 189.798 25.4318Z" fill="white"/>
</svg>
