<svg width="90" height="132" viewBox="0 0 90 132" fill="none" xmlns="http://www.w3.org/2000/svg">
<path d="M44.6071 46.8481L41.7181 49.8331L41.5981 52.4341L44.9551 53.2081H45.1261L45.3421 51.5281L47.2771 48.9571L44.6071 46.8481Z" fill="#AE7461"/>
<path d="M39.9418 51.8369L35.9578 48.1079L33.2578 52.3949C33.3118 52.7789 36.7498 60.1949 38.2378 61.7219C39.9388 63.4739 42.2518 63.3389 43.2748 60.9179C44.0788 59.0129 45.4168 53.1419 45.4168 53.1419L39.9418 51.8369Z" fill="#E0E0E0"/>
<path d="M35.7002 40.6228C36.6512 40.9648 38.8382 42.1618 39.4772 42.9448C39.7956 43.325 40.0656 43.7432 40.2812 44.1898C40.7702 45.2998 41.7182 53.3998 41.7182 53.3998L37.4762 56.4718L34.3892 42.3118L34.4552 39.1528L35.7002 40.6228Z" fill="#E0E0E0"/>
<path d="M37.8178 59.7002C37.8178 59.7002 39.4078 65.6492 40.4368 71.8472C41.4658 78.0452 40.6768 94.7402 40.6768 94.7402L14.3818 91.5272L28.9258 61.7762L37.8178 59.7002Z" fill="#E0E0E0"/>
<path d="M37.8569 43.9023C37.9042 43.9542 37.9464 44.0104 37.9829 44.0703C38.0579 44.1843 38.1839 44.3463 38.3129 44.5713C38.7023 45.2027 39.0326 45.8685 39.2999 46.5603C40.1907 48.851 40.4184 51.3463 39.9569 53.7603C39.6779 55.1673 39.2309 56.4603 38.9099 57.6423C38.5987 58.6865 38.4134 59.7642 38.3579 60.8523C38.3273 61.5853 38.4082 62.3187 38.5979 63.0273C38.7389 63.5283 38.8679 63.7893 38.8529 63.7953C38.8138 63.7373 38.7816 63.6749 38.7569 63.6093C38.672 63.4265 38.5999 63.2381 38.5409 63.0453C38.3233 62.3343 38.2219 61.5927 38.2409 60.8493C38.281 59.7508 38.4574 58.6615 38.7659 57.6063C39.0809 56.4063 39.5219 55.1223 39.7979 53.7303C40.0469 52.4204 40.0975 51.0804 39.9479 49.7553C39.8219 48.6742 39.5681 47.6118 39.1919 46.5903C38.9368 45.9011 38.6257 45.2339 38.2619 44.5953C38.1389 44.3643 38.0219 44.1963 37.9619 44.0763C37.9207 44.0223 37.8855 43.964 37.8569 43.9023Z" fill="#263238"/>
<path d="M37.3557 60.045C37.366 59.9734 37.38 59.9023 37.3977 59.832L37.5417 59.232C37.6677 58.701 37.8417 57.936 38.0577 56.982C38.2737 56.028 38.5047 54.882 38.6997 53.625C38.8017 52.989 38.8797 52.32 38.9217 51.624C38.9448 50.9056 38.8854 50.1869 38.7447 49.482C38.3897 47.3751 37.9048 45.2921 37.2927 43.245L37.3257 43.284L36.2997 42.819L36.0927 42.729L36.3177 42.711L37.0527 42.66L37.0137 42.735L36.0357 41.187L35.7807 40.77C35.7486 40.724 35.7214 40.6748 35.6997 40.623C35.7391 40.6634 35.7743 40.7076 35.8047 40.755C35.8737 40.86 35.9667 40.992 36.0807 41.157C36.3267 41.526 36.6807 42.042 37.0977 42.681L37.1427 42.75H37.0587L36.3267 42.813L36.3447 42.708L37.3857 43.149H37.4127V43.176C38.0521 45.2231 38.5532 47.3108 38.9127 49.425C38.9727 49.791 39.0207 50.157 39.0657 50.517C39.0837 50.7 39.0867 50.883 39.0987 51.063C39.1107 51.243 39.0987 51.423 39.0987 51.597C39.0558 52.2727 38.9777 52.9456 38.8647 53.613C38.6607 54.888 38.4117 56.013 38.1897 56.976C37.9677 57.939 37.7697 58.689 37.6257 59.214L37.4517 59.814C37.4297 59.8948 37.3974 59.9724 37.3557 60.045Z" fill="#263238"/>
<path d="M37.5779 26.0161C37.5779 26.0161 38.9549 31.1641 39.0779 34.8031L39.1169 36.0181C39.1169 36.0181 36.0809 38.5381 33.5339 38.6941L31.3979 33.4441L37.5779 26.0161Z" fill="#263238"/>
<path d="M24.0868 29.1721C24.6688 26.6641 24.8908 23.7421 26.9788 22.1041C28.5268 20.9041 30.2788 20.5531 32.2588 20.6341C33.2863 20.7375 34.2781 21.0674 35.1628 21.6001C36.3208 22.2541 36.8098 23.5801 37.3678 24.7861C38.4868 27.2041 38.3428 30.4861 37.5868 31.3861L27.4888 36.7171C25.4728 35.6671 24.2098 35.2501 23.8888 32.5621C23.7579 31.4292 23.8249 30.2821 24.0868 29.1721Z" fill="#263238"/>
<path d="M27.087 24.099L33.441 22.224C35.487 21.924 36.954 24.405 37.164 26.46C37.398 28.746 37.596 31.56 37.392 33.267C36.981 36.729 34.362 37.269 34.362 37.269C34.362 37.269 34.362 37.32 34.377 38.343L34.443 39.999C34.4815 40.67 34.2841 41.3333 33.885 41.874C32.946 43.074 31.239 43.251 29.226 42.504C28.056 42.072 27.246 41.205 27.156 40.02L26.052 25.368C26.0317 25.0647 26.1273 24.7651 26.3194 24.5295C26.5115 24.294 26.7858 24.1401 27.087 24.099Z" fill="#AE7461"/>
<path d="M36.5611 29.5921C36.5661 29.707 36.5264 29.8193 36.4503 29.9054C36.3742 29.9916 36.2676 30.0449 36.1531 30.0541C36.097 30.0608 36.0402 30.0561 35.9859 30.0404C35.9317 30.0248 35.8811 29.9984 35.8372 29.9629C35.7933 29.9274 35.757 29.8835 35.7303 29.8337C35.7037 29.7839 35.6873 29.7293 35.6821 29.6731C35.677 29.5583 35.7167 29.4459 35.7928 29.3598C35.8689 29.2736 35.9755 29.2203 36.0901 29.2111C36.1461 29.2049 36.2027 29.2098 36.2568 29.2256C36.3109 29.2415 36.3613 29.2679 36.4051 29.3033C36.4489 29.3387 36.4852 29.3825 36.512 29.4321C36.5388 29.4817 36.5555 29.536 36.5611 29.5921Z" fill="#263238"/>
<path d="M36.7439 28.5362C36.6899 28.5932 36.3479 28.3592 35.8739 28.3802C35.3999 28.4012 35.0609 28.6502 35.0069 28.5962C34.9529 28.5422 35.0309 28.4642 35.1779 28.3472C35.3792 28.1983 35.6207 28.1136 35.8709 28.1042C36.1174 28.0961 36.3604 28.1642 36.5669 28.2992C36.7169 28.4072 36.7709 28.5002 36.7439 28.5362Z" fill="#263238"/>
<path d="M32.3999 29.6608C32.405 29.7756 32.3653 29.888 32.2892 29.9741C32.2131 30.0603 32.1065 30.1136 31.9919 30.1228C31.9359 30.1294 31.879 30.1248 31.8248 30.1091C31.7705 30.0935 31.72 30.0671 31.6761 30.0316C31.6322 29.9961 31.5959 29.9522 31.5692 29.9024C31.5426 29.8526 31.5261 29.798 31.5209 29.7418C31.5159 29.6269 31.5556 29.5146 31.6317 29.4285C31.7078 29.3423 31.8143 29.289 31.9289 29.2798C31.985 29.2732 32.0418 29.2778 32.0961 29.2935C32.1503 29.3091 32.2009 29.3355 32.2448 29.371C32.2887 29.4065 32.325 29.4504 32.3517 29.5002C32.3783 29.55 32.3947 29.6046 32.3999 29.6608Z" fill="#263238"/>
<path d="M32.0759 28.5903C32.0219 28.6503 31.6799 28.4163 31.2059 28.4373C30.7319 28.4583 30.3929 28.7073 30.3389 28.6503C30.2849 28.5933 30.3629 28.5213 30.5099 28.4043C30.7099 28.2529 30.9522 28.1679 31.2029 28.1613C31.4495 28.1532 31.6925 28.2213 31.8989 28.3563C32.0489 28.4613 32.0999 28.5633 32.0759 28.5903Z" fill="#263238"/>
<path d="M33.9242 31.6678C34.1711 31.5794 34.4281 31.522 34.6892 31.4968C34.8092 31.4818 34.9232 31.4518 34.9412 31.3678C34.946 31.2419 34.9125 31.1174 34.8452 31.0108C34.7192 30.7108 34.5902 30.4108 34.4522 30.1108C33.9032 28.8148 33.4982 27.7498 33.5522 27.7288C33.6062 27.7078 34.0922 28.7368 34.6412 30.0328L35.0222 30.9328C35.1035 31.0755 35.1321 31.2422 35.1032 31.4038C35.0878 31.4476 35.0624 31.4871 35.0291 31.5194C34.9958 31.5517 34.9554 31.5758 34.9112 31.5898C34.844 31.6105 34.7744 31.6226 34.7042 31.6258C34.447 31.6726 34.1849 31.6867 33.9242 31.6678Z" fill="#263238"/>
<path d="M34.3772 37.2687C32.7582 37.357 31.1465 36.9946 29.7212 36.2217C29.7212 36.2217 30.9542 38.5827 34.3832 38.1267L34.3772 37.2687Z" fill="#6F4439"/>
<path d="M32.3998 32.7212C32.4582 32.6234 32.5401 32.5417 32.6381 32.4835C32.736 32.4253 32.847 32.3926 32.9608 32.3882C33.1199 32.3707 33.2808 32.396 33.4268 32.4614C33.5729 32.5267 33.6989 32.6299 33.7918 32.7602C33.8576 32.8823 33.8757 33.0245 33.8428 33.1592C33.8158 33.2282 33.8428 33.1952 33.7858 33.2432C33.6155 33.433 33.4012 33.5782 33.1618 33.6662C33.0322 33.7041 32.8942 33.702 32.7657 33.6602C32.6373 33.6185 32.5244 33.539 32.4418 33.4322C32.3708 33.3287 32.3294 33.2078 32.322 33.0825C32.3146 32.9573 32.3415 32.8323 32.3998 32.7212Z" fill="#6F4439"/>
<path d="M32.4569 32.0703C32.5319 32.0703 32.5559 32.5773 33.0149 32.9223C33.4739 33.2673 34.0169 33.1893 34.0229 33.2613C34.0289 33.3333 33.9059 33.3663 33.6749 33.3813C33.373 33.3995 33.0744 33.3102 32.8319 33.1293C32.5994 32.9571 32.4433 32.7009 32.3969 32.4153C32.3669 32.1993 32.4209 32.0703 32.4569 32.0703Z" fill="#263238"/>
<path d="M32.2561 26.8528C32.2201 26.9878 31.7431 26.9728 31.1941 27.0928C30.6451 27.2128 30.213 27.4078 30.129 27.2998C30.09 27.2488 30.1561 27.1198 30.3241 26.9758C30.5509 26.7994 30.8151 26.6772 31.0963 26.6185C31.3776 26.5597 31.6686 26.566 31.9471 26.6368C32.1571 26.6998 32.2681 26.7898 32.2561 26.8528Z" fill="#263238"/>
<path d="M36.705 27.2581C36.597 27.3511 36.252 27.1891 35.805 27.1201C35.358 27.0511 34.992 27.0751 34.923 26.9521C34.893 26.8921 34.9679 26.7931 35.1419 26.7151C35.3795 26.6222 35.6384 26.5982 35.889 26.6461C36.1403 26.6846 36.3755 26.7938 36.567 26.9611C36.717 27.0931 36.753 27.2101 36.705 27.2581Z" fill="#263238"/>
<path d="M33.4619 21.855C33.4619 21.879 33.4619 21.903 33.4769 21.93L33.4619 21.855Z" fill="#263238"/>
<path d="M29.0193 38.6581C28.9233 37.7581 29.2863 36.8581 29.1813 35.9581C29.0673 35.0041 28.4493 34.1851 28.1973 33.2581C27.7893 31.7581 28.3473 30.1951 28.5513 28.6591C29.4297 28.5164 30.2256 28.0577 30.7893 27.3691C31.4763 26.5651 31.8933 25.5691 32.2893 24.5881C32.2625 25.5547 31.9353 26.4889 31.3533 27.2611C31.5466 27.2911 31.7443 27.2752 31.9303 27.2148C32.1164 27.1543 32.2856 27.051 32.4243 26.9131C32.6998 26.6354 32.9144 26.3033 33.0543 25.9381C33.4231 25.0662 33.6265 24.1333 33.6543 23.1871C33.7822 24.5428 33.629 25.9103 33.2043 27.2041C33.4523 27.1577 33.7074 27.1669 33.9513 27.2311C34.0739 27.2625 34.202 27.2653 34.3258 27.2393C34.4496 27.2133 34.5658 27.1592 34.6653 27.0811C34.7714 26.949 34.8389 26.7901 34.8603 26.6221C35.0976 25.4701 35.1361 24.2861 34.9743 23.1211C35.2992 23.7412 35.5634 24.3912 35.7633 25.0621C35.9567 25.7385 35.9567 26.4556 35.7633 27.1321C35.7913 27.1607 35.8246 27.1834 35.8615 27.1989C35.8983 27.2144 35.9379 27.2223 35.9778 27.2223C36.0178 27.2223 36.0574 27.2144 36.0942 27.1989C36.131 27.1834 36.1644 27.1607 36.1923 27.1321C36.3006 27.0127 36.366 26.8607 36.3783 26.7001C36.4363 26.1168 36.3977 25.5279 36.2643 24.9571C36.6093 25.5571 36.7233 26.2741 36.9123 26.9461C37.1013 27.6181 37.4073 28.3111 37.9923 28.6951C38.0919 27.8155 38.0626 26.9262 37.9053 26.0551C37.7487 25.3218 37.4881 24.6146 37.1313 23.9551C36.7966 23.2238 36.3228 22.5645 35.7363 22.0141C34.7253 21.1141 34.3023 21.5101 33.6543 21.8461L33.5763 21.8791C33.5763 21.8791 33.5763 21.8461 33.5763 21.8311L33.5463 21.6931C31.8553 21.3178 30.0947 21.4006 28.4463 21.9331C27.0615 22.4723 25.8889 23.446 25.1043 24.7081L25.0683 24.7711C23.6313 27.3661 22.6683 30.3751 22.6113 36.8791L29.0193 38.6581Z" fill="#263238"/>
<path d="M37.005 64.08L36.738 61.98C37.2322 59.669 37.6057 57.3339 37.857 54.984C38.334 49.815 36.987 46.602 36.801 46.056C36.696 45.756 34.437 40.371 34.437 40.371C34.437 40.371 34.389 41.745 32.052 41.328C28.794 40.746 27.102 38.895 27.102 38.895L22.353 39.921C22.353 39.921 20.715 46.521 20.472 48.693C20.343 49.863 20.67 55.893 20.67 55.893L19.401 60.192C19.326 60.375 20.481 65.451 20.706 65.661C20.931 65.871 24.969 66.807 25.02 66.981C25.071 67.155 32.721 70.356 32.715 70.227C32.709 70.098 36.396 65.727 36.396 65.727L37.005 64.08Z" fill="#407BFF"/>
<path d="M22.3143 61.866C22.2975 61.9504 22.2671 62.0315 22.2243 62.106C22.1294 62.3206 22.0212 62.529 21.9003 62.73C21.5032 63.3928 21.0178 63.9984 20.4573 64.53C19.8949 65.0626 19.2632 65.5167 18.5793 65.88C18.3729 65.9915 18.1606 66.0917 17.9433 66.18C17.8656 66.218 17.7827 66.2443 17.6973 66.258C17.6973 66.234 18.0183 66.087 18.5253 65.793C19.8479 65.0237 20.972 63.9551 21.8073 62.673C22.1253 62.181 22.2903 61.854 22.3143 61.866Z" fill="#455A64"/>
<path d="M23.1389 43.7549C23.1234 44.0157 23.0719 44.2731 22.9859 44.5199C22.8153 45.1239 22.5789 45.7074 22.2809 46.2599C21.9853 46.8147 21.6302 47.3358 21.2219 47.8139C21.0631 48.0206 20.8775 48.2052 20.6699 48.3629C20.8106 48.1465 20.9659 47.94 21.1349 47.7449C21.8928 46.7627 22.4827 45.6618 22.8809 44.4869C22.9507 44.2374 23.0369 43.9929 23.1389 43.7549Z" fill="#263238"/>
<path d="M18.6658 63.186C17.9098 64.467 16.3798 67.95 15.4798 70.386C11.6758 80.655 9.87282 98.67 8.99982 101.802C7.85682 105.975 5.29182 115.416 3.98682 121.704L10.2538 124.437C10.2538 124.437 19.5538 102.105 21.7888 96.672C24.1108 91.041 27.7528 81.12 27.7528 81.12L29.1268 122.766L35.1268 122.949C35.1268 122.949 37.1788 111.081 37.9948 103.986C38.8108 96.891 39.5608 82.281 39.7468 78.579C39.9328 74.877 36.9598 63.909 36.9598 63.909C36.9598 63.909 34.6198 65.667 30.2308 64.995C26.7478 64.458 19.4998 61.77 19.4998 61.77L18.6658 63.186Z" fill="#263238"/>
<path d="M30.8671 66.4561C30.8694 66.6188 30.8573 66.7814 30.8311 66.9421C30.8011 67.2421 30.7471 67.6981 30.6721 68.2501C30.5251 69.3571 30.2971 70.8811 29.9971 72.5551C29.6971 74.2291 29.3971 75.7411 29.1391 76.8271C29.0161 77.3731 28.9111 77.8111 28.8391 78.1141C28.8091 78.273 28.7639 78.4287 28.7041 78.5791C28.7176 78.4173 28.7437 78.2568 28.7821 78.0991C28.8451 77.7661 28.9321 77.3311 29.0371 76.8061C29.2531 75.7111 29.5501 74.2021 29.8471 72.5281C30.1441 70.8541 30.3931 69.3361 30.5701 68.2351C30.6541 67.7071 30.7231 67.2661 30.7771 66.9331C30.7945 66.7719 30.8246 66.6124 30.8671 66.4561Z" fill="#455A64"/>
<path d="M28.7249 66.3693C28.7249 66.3693 28.7249 66.2943 28.8419 66.2463C28.99 66.1957 29.1498 66.1905 29.3009 66.2313C29.4074 66.2542 29.5089 66.2959 29.6009 66.3543C29.6551 66.3937 29.701 66.4434 29.736 66.5005C29.771 66.5576 29.7944 66.6211 29.8049 66.6873C29.8268 66.834 29.8059 66.984 29.7447 67.1192C29.6835 67.2543 29.5846 67.3689 29.4599 67.4493C29.338 67.5336 29.1947 67.5817 29.0466 67.5881C28.8985 67.5945 28.7516 67.5588 28.6229 67.4853C28.5131 67.4155 28.4313 67.3093 28.3919 67.1853C28.3631 67.0788 28.3559 66.9676 28.3709 66.8583C28.3875 66.7019 28.4587 66.5564 28.5719 66.4473C28.6589 66.3753 28.7249 66.3693 28.7249 66.3783C28.7249 66.3873 28.6769 66.4143 28.6169 66.4893C28.5326 66.5988 28.4853 66.7322 28.4819 66.8703C28.4686 66.9663 28.482 67.0641 28.5206 67.153C28.5593 67.2419 28.6216 67.3185 28.7009 67.3743C28.8074 67.4273 28.9262 67.4509 29.0449 67.4424C29.1636 67.434 29.2779 67.3939 29.3759 67.3263C29.4771 67.2644 29.5589 67.1754 29.6119 67.0693C29.6649 66.9632 29.6871 66.8444 29.6759 66.7263C29.6712 66.6771 29.6566 66.6294 29.6329 66.5861C29.6091 66.5427 29.5768 66.5047 29.5379 66.4743C29.4615 66.42 29.3762 66.3794 29.2859 66.3543C29.1552 66.3078 29.0147 66.2954 28.8779 66.3183C28.7699 66.3243 28.7369 66.3753 28.7249 66.3693Z" fill="#455A64"/>
<path d="M32.5652 77.0791C32.3363 77.2634 32.0936 77.4299 31.8392 77.5771C31.3862 77.8771 30.7652 78.2941 30.0992 78.7771C29.4332 79.2601 28.8512 79.7401 28.4312 80.0851C28.2161 80.2852 27.9854 80.4678 27.7412 80.6311C27.9251 80.4005 28.1322 80.1894 28.3592 80.0011C28.8849 79.5233 29.4346 79.0728 30.0062 78.6511C30.5773 78.2293 31.1701 77.8378 31.7822 77.4781C32.0293 77.3194 32.2916 77.1857 32.5652 77.0791Z" fill="#455A64"/>
<path d="M17.3669 99.8671C17.2806 99.8825 17.1923 99.8825 17.1059 99.8671C16.9409 99.8671 16.7009 99.8461 16.4039 99.8131C15.6313 99.7218 14.8689 99.5581 14.1269 99.3241C13.3849 99.0906 12.6658 98.7894 11.9789 98.4241C11.7149 98.2801 11.5079 98.1601 11.3789 98.0671C11.3022 98.0249 11.2315 97.9724 11.1689 97.9111C11.4657 98.0322 11.7552 98.1705 12.0359 98.3251C12.7311 98.6559 13.4477 98.9396 14.1809 99.1741C14.9168 99.4013 15.6676 99.5768 16.4279 99.6991C17.0039 99.8071 17.3669 99.8431 17.3669 99.8671Z" fill="#455A64"/>
<path d="M16.3502 99.228C16.1439 99.1992 15.9422 99.1438 15.7502 99.063C15.3782 98.94 14.8712 98.745 14.3252 98.499C13.8579 98.291 13.4013 98.0597 12.9572 97.806C12.7656 97.7143 12.5878 97.5962 12.4292 97.455C12.4502 97.416 13.3022 97.872 14.3882 98.355C15.4742 98.838 16.3652 99.183 16.3502 99.228Z" fill="#455A64"/>
<path d="M35.178 118.581L35.211 124.836C35.211 124.836 41.577 126.9 41.7 128.058L29.574 128.556L29.124 118.8L35.178 118.581Z" fill="#263238"/>
<path d="M31.4401 124.464C31.3245 124.504 31.2278 124.585 31.1685 124.692C31.1093 124.799 31.0916 124.924 31.1191 125.043C31.1559 125.159 31.2356 125.257 31.3421 125.317C31.4485 125.377 31.5736 125.394 31.6921 125.364C31.8138 125.321 31.9153 125.234 31.9768 125.121C32.0383 125.007 32.0555 124.875 32.0251 124.749C31.9752 124.632 31.8816 124.538 31.7641 124.488C31.6465 124.438 31.5142 124.436 31.3951 124.482" fill="#E0E0E0"/>
<path d="M29.5708 128.556V127.572L41.1988 127.464C41.1988 127.464 41.7478 127.677 41.7028 128.064L29.5708 128.556Z" fill="#455A64"/>
<path d="M35.3998 124.767C35.3998 124.824 35.0998 124.863 34.8238 125.067C34.5478 125.271 34.3948 125.523 34.3378 125.502C34.2808 125.481 34.3588 125.136 34.7038 124.902C35.0488 124.668 35.4148 124.71 35.3998 124.767Z" fill="white"/>
<path d="M36.696 125.238C36.714 125.295 36.462 125.406 36.27 125.667C36.078 125.928 36.033 126.192 35.97 126.192C35.907 126.192 35.859 125.859 36.102 125.541C36.345 125.223 36.693 125.184 36.696 125.238Z" fill="white"/>
<path d="M37.4819 126.732C37.4279 126.747 37.3349 126.453 37.4819 126.132C37.6289 125.811 37.8929 125.661 37.9199 125.709C37.9469 125.757 37.7819 125.94 37.6709 126.213C37.5599 126.486 37.5389 126.723 37.4819 126.732Z" fill="white"/>
<path d="M35.2376 123.342C35.2166 123.396 34.9376 123.327 34.6076 123.363C34.2776 123.399 34.0076 123.516 33.9836 123.465C33.9596 123.414 34.1936 123.195 34.5836 123.165C34.9736 123.135 35.2646 123.3 35.2376 123.342Z" fill="white"/>
<path d="M6.54599 117.924L4.22399 125.124L0.74399 130.29C0.684475 130.378 0.643744 130.477 0.624336 130.582C0.604928 130.686 0.60726 130.794 0.631184 130.897C0.655109 131.001 0.700114 131.098 0.763394 131.184C0.826675 131.269 0.906874 131.341 0.99899 131.394C1.10567 131.456 1.22572 131.491 1.34896 131.497C1.47219 131.503 1.595 131.479 1.70699 131.427C3.16199 130.761 8.49899 128.283 8.63999 127.746C8.80199 127.125 11.595 120.315 11.595 120.315L6.54599 117.924Z" fill="#263238"/>
<path d="M0.998747 131.4L8.79874 127.272L8.69374 127.572C8.60347 127.834 8.42262 128.055 8.18374 128.196C7.54474 128.571 5.75675 129.567 1.71875 131.439C1.60309 131.492 1.47612 131.516 1.349 131.509C1.22189 131.502 1.09852 131.463 0.989746 131.397L0.998747 131.4Z" fill="#455A64"/>
<g opacity="0.6">
<path opacity="0.6" d="M8.14465 124.452C8.0345 124.486 7.9408 124.56 7.88114 124.659C7.82148 124.758 7.79997 124.875 7.82065 124.989C7.85042 125.1 7.92179 125.196 8.02003 125.256C8.11827 125.316 8.2359 125.337 8.34865 125.313C8.46606 125.277 8.56591 125.199 8.62863 125.093C8.69134 124.988 8.7124 124.863 8.68766 124.743C8.64447 124.627 8.55709 124.533 8.44464 124.481C8.33219 124.429 8.20383 124.424 8.08765 124.467" fill="white"/>
</g>
<path d="M3.71674 128.844C3.62927 128.561 3.48764 128.299 3.29974 128.07C3.07474 127.874 2.81396 127.723 2.53174 127.626C2.53174 127.605 2.64274 127.581 2.83174 127.626C3.05981 127.679 3.26814 127.796 3.43269 127.963C3.59725 128.13 3.71132 128.339 3.76174 128.568C3.76174 128.733 3.73774 128.844 3.71674 128.844Z" fill="white"/>
<path d="M2.8771 129.621C2.8321 129.642 2.6821 129.321 2.3491 129.096C2.13437 128.971 1.91192 128.86 1.68311 128.763C1.81712 128.732 1.95678 128.733 2.09005 128.768C2.22331 128.802 2.3462 128.869 2.44811 128.961C2.8261 129.231 2.9191 129.615 2.8771 129.621Z" fill="white"/>
<path d="M5.09965 127.947C4.87028 127.638 4.61754 127.347 4.34365 127.077C4.03387 126.853 3.70799 126.653 3.36865 126.477C3.76774 126.53 4.1431 126.697 4.45 126.958C4.7569 127.219 4.9824 127.562 5.09965 127.947Z" fill="white"/>
<path d="M5.982 125.817C5.946 125.853 5.61 125.55 5.103 125.352C4.596 125.154 4.146 125.136 4.146 125.088C4.48932 125.033 4.8412 125.071 5.1644 125.2C5.48759 125.328 5.77009 125.541 5.982 125.817Z" fill="white"/>
<path d="M6.7168 123.72C6.44217 123.51 6.13918 123.339 5.8168 123.213C5.48362 123.136 5.14146 123.105 4.7998 123.12C4.7998 123.102 4.9018 123.039 5.0998 123C5.36043 122.956 5.62769 122.975 5.8798 123.054C6.13136 123.133 6.36137 123.268 6.5518 123.45C6.6778 123.6 6.7318 123.708 6.7168 123.72Z" fill="white"/>
<path d="M5.96702 122.817C5.97504 122.721 6.00369 122.628 6.05102 122.544C6.16109 122.304 6.3182 122.089 6.51302 121.911C6.64244 121.767 6.81692 121.67 7.00802 121.638C7.07057 121.633 7.13316 121.647 7.18698 121.68C7.24079 121.712 7.28313 121.76 7.30802 121.818C7.35145 121.935 7.35145 122.064 7.30802 122.181C7.20793 122.415 7.02963 122.607 6.80362 122.724C6.57762 122.841 6.31794 122.876 6.06902 122.823C5.8276 122.764 5.60869 122.636 5.4392 122.454C5.26971 122.272 5.15703 122.045 5.11501 121.8C5.10529 121.737 5.10937 121.673 5.12699 121.612C5.1446 121.551 5.17532 121.494 5.21701 121.446C5.26308 121.401 5.32235 121.372 5.38609 121.364C5.44983 121.355 5.51466 121.367 5.57101 121.398C5.73309 121.496 5.86657 121.634 5.95802 121.8C6.10055 122.022 6.20215 122.268 6.25802 122.526C6.28704 122.618 6.29524 122.715 6.28202 122.811C6.19219 122.477 6.05156 122.158 5.86502 121.866C5.782 121.715 5.66098 121.589 5.51401 121.5C5.48383 121.482 5.44866 121.475 5.41394 121.479C5.37923 121.484 5.34692 121.499 5.32201 121.524C5.29697 121.558 5.27924 121.596 5.26994 121.637C5.26064 121.678 5.25998 121.72 5.26801 121.761C5.30708 121.976 5.40738 122.176 5.55691 122.335C5.70643 122.495 5.89882 122.608 6.11102 122.661C6.32167 122.706 6.54147 122.679 6.73441 122.583C6.92735 122.487 7.082 122.328 7.17302 122.133C7.20285 122.052 7.20285 121.962 7.17302 121.881C7.16007 121.848 7.13661 121.82 7.10625 121.802C7.0759 121.783 7.04033 121.775 7.00502 121.779C6.8442 121.807 6.69621 121.884 6.58202 122.001C6.33045 122.235 6.12223 122.511 5.96702 122.817Z" fill="white"/>
<path d="M21.8371 52.2417L18.6661 63.1857C18.6661 63.1857 16.3471 66.9627 15.4021 69.3597C14.4841 71.6817 13.7461 74.6547 13.1401 77.0787L10.1401 91.0317L23.1421 94.7337L29.1001 56.2197L21.8371 52.2417Z" fill="#E0E0E0"/>
<path d="M22.4488 39.7587L26.1598 38.9997L27.4648 37.7217C27.4648 37.7217 29.3008 41.0517 29.5498 42.9417C30.4498 49.8927 27.7498 64.9797 27.7498 64.9797L18.9658 60.2997L22.4488 39.7587Z" fill="#E0E0E0"/>
<path d="M27.7437 55.3409C27.7364 55.2771 27.7364 55.2127 27.7437 55.1489C27.7437 55.0049 27.7647 54.8249 27.7827 54.5969C27.8127 54.1199 27.8577 53.4299 27.8847 52.5749C27.9117 51.7199 27.9177 50.7029 27.8847 49.5749C27.8547 49.0109 27.8397 48.4169 27.7587 47.8079C27.6777 47.1989 27.5967 46.5659 27.5127 45.9209C27.4227 45.2129 27.3327 44.5259 27.2487 43.8629L27.2157 43.6169V43.4939V43.4639C27.2113 43.4482 27.2113 43.4316 27.2157 43.4159C27.2213 43.3944 27.2339 43.3754 27.2517 43.3619L27.3147 43.3259C27.4634 43.2553 27.6156 43.1922 27.7707 43.1369C28.065 43.0176 28.372 42.9321 28.6857 42.8819V43.0229H28.4787C28.4092 43.0201 28.34 43.0121 28.2717 42.9989L27.8907 42.9509L27.1587 42.8759H27.1047V42.8219C26.9976 41.8734 26.7966 40.9378 26.5047 40.0289C26.4027 39.7289 26.3217 39.4619 26.2617 39.2699C26.2275 39.1832 26.2004 39.094 26.1807 39.0029C26.2279 39.0839 26.2671 39.1693 26.2977 39.2579C26.3637 39.4289 26.4627 39.6809 26.5737 40.0049C26.896 40.913 27.1183 41.8536 27.2367 42.8099L27.1767 42.7529L27.9147 42.8189C28.0407 42.8189 28.1697 42.8459 28.3017 42.8669C28.363 42.8786 28.4252 42.8846 28.4877 42.8849C28.5477 42.8849 28.6167 42.8849 28.6827 42.8849V43.0259C28.3849 43.0803 28.0934 43.1647 27.8127 43.2779C27.6634 43.3319 27.5172 43.394 27.3747 43.4639L27.3327 43.4879L27.3027 43.4519C27.3027 43.4519 27.3027 43.4519 27.3567 43.4519V43.4819V43.6049L27.3897 43.8539C27.4767 44.5169 27.5667 45.2069 27.6567 45.9149C27.7407 46.5649 27.8217 47.1969 27.8997 47.8109C27.9807 48.4109 27.9957 49.0109 28.0197 49.5869C28.0557 50.7179 28.0377 51.7409 27.9957 52.5869C27.9537 53.4329 27.8967 54.1349 27.8457 54.6119C27.8187 54.8519 27.7947 55.0349 27.7767 55.1609C27.7726 55.222 27.7615 55.2824 27.7437 55.3409Z" fill="#263238"/>
<path d="M15.801 78.1621C15.7971 78.1869 15.79 78.2111 15.78 78.2341L15.708 78.4381C15.648 78.6151 15.555 78.8791 15.444 79.2211C15.1275 80.1859 14.8867 81.1739 14.724 82.1761C14.6107 82.8649 14.5735 83.5641 14.613 84.2611C14.6339 84.6476 14.7044 85.0297 14.823 85.3981C14.9433 85.7853 15.1483 86.1409 15.423 86.4391C15.7168 86.7482 16.0907 86.9694 16.503 87.0781C16.9356 87.1912 17.3823 87.2407 17.829 87.2251C18.7764 87.1919 19.6838 86.8351 20.4 86.2141C21.2331 85.4428 21.876 84.4888 22.278 83.4271C22.6648 82.4748 22.9367 81.4798 23.088 80.4631L23.136 80.5351L17.847 78.8401L16.347 78.3481L15.948 78.2161L15.807 78.1621L15.939 78.1951L16.332 78.3091L17.832 78.7591L23.175 80.4001L23.232 80.4181V80.4751C23.0853 81.504 22.8143 82.5114 22.425 83.4751C22.0167 84.5614 21.3602 85.5373 20.508 86.3251C19.7655 86.9694 18.8236 87.3381 17.841 87.3691C17.378 87.3827 16.9153 87.3302 16.467 87.2131C16.031 87.0952 15.6363 86.8584 15.327 86.5291C15.039 86.2178 14.8247 85.8456 14.7 85.4401C14.5786 85.0611 14.508 84.6677 14.49 84.2701C14.4561 83.5674 14.5004 82.8631 14.622 82.1701C14.7946 81.165 15.0525 80.1764 15.393 79.2151C15.513 78.8731 15.615 78.6151 15.693 78.4381C15.726 78.3571 15.756 78.2911 15.777 78.2401C15.7815 78.2131 15.7895 78.1869 15.801 78.1621Z" fill="#263238"/>
<g opacity="0.3">
<path opacity="0.3" d="M22.3652 70.3226C24.5582 70.9226 26.9192 70.0016 28.7042 68.6006C30.4892 67.1996 31.8512 65.3366 33.3632 63.6416C35.2802 61.4906 37.4702 59.5826 39.2942 57.3416C41.1182 55.1006 42.5942 52.4576 42.7682 49.5776L22.3652 70.3226Z" fill="black"/>
</g>
<path d="M42.6541 21.204C43.3854 17.5384 44.9721 14.0974 47.2852 11.1613C49.5983 8.22515 52.5723 5.87696 55.9648 4.308C59.3574 2.73903 63.0726 1.99366 66.8078 2.13262C70.543 2.27157 74.1926 3.2909 77.4592 5.10759C80.7258 6.92428 83.517 9.48693 85.6056 12.5868C87.6941 15.6866 89.0209 19.236 89.4777 22.9458C89.9346 26.6556 89.5086 30.4208 88.2346 33.9347C86.9605 37.4487 84.8744 40.612 82.1461 43.167C78.4786 46.6042 73.8142 48.788 68.8256 49.4033C63.8369 50.0187 58.7816 49.0338 54.3888 46.5908C49.9959 44.1478 46.4924 40.3728 44.3834 35.8101C42.2744 31.2475 41.6689 26.1329 42.6541 21.204ZM87.6301 30.1769C88.6611 25.0023 87.8093 19.6296 85.2284 15.0276C82.6476 10.4256 78.5074 6.89705 73.5545 5.07825C68.6015 3.25945 63.1617 3.27006 58.2159 5.10817C53.2701 6.94627 49.1438 10.4909 46.5809 15.103C44.018 19.715 43.1872 25.091 44.2383 30.2616C45.2894 35.4322 48.1532 40.0571 52.3134 43.3024C56.4736 46.5477 61.6565 48.2 66.9274 47.9611C72.1983 47.7223 77.2105 45.6082 81.0601 42C84.4303 38.8411 86.7276 34.707 87.6301 30.1769Z" fill="#455A64"/>
<path d="M42.6541 21.204C43.3854 17.5384 44.9721 14.0974 47.2852 11.1613C49.5983 8.22515 52.5723 5.87696 55.9648 4.308C59.3574 2.73903 63.0726 1.99366 66.8078 2.13262C70.543 2.27157 74.1926 3.2909 77.4592 5.10759C80.7258 6.92428 83.517 9.48693 85.6056 12.5868C87.6941 15.6866 89.0209 19.236 89.4777 22.9458C89.9346 26.6556 89.5086 30.4208 88.2346 33.9347C86.9605 37.4487 84.8744 40.612 82.1461 43.167C78.4786 46.6042 73.8142 48.788 68.8256 49.4033C63.8369 50.0187 58.7816 49.0338 54.3888 46.5908C49.9959 44.1478 46.4924 40.3728 44.3834 35.8101C42.2744 31.2475 41.6689 26.1329 42.6541 21.204ZM87.6301 30.1769C88.6611 25.0023 87.8093 19.6296 85.2284 15.0276C82.6476 10.4256 78.5074 6.89705 73.5545 5.07825C68.6015 3.25945 63.1617 3.27006 58.2159 5.10817C53.2701 6.94627 49.1438 10.4909 46.5809 15.103C44.018 19.715 43.1872 25.091 44.2383 30.2616C45.2894 35.4322 48.1532 40.0571 52.3134 43.3024C56.4736 46.5477 61.6565 48.2 66.9274 47.9611C72.1983 47.7223 77.2105 45.6082 81.0601 42C84.4303 38.8411 86.7276 34.707 87.6301 30.1769Z" fill="#263238"/>
<path d="M42.0721 20.0609C42.8033 16.3953 44.3901 12.9543 46.7032 10.0182C49.0163 7.08208 51.9902 4.73389 55.3828 3.16493C58.7753 1.59597 62.4905 0.850598 66.2258 0.989549C69.961 1.1285 73.6105 2.14784 76.8771 3.96452C80.1438 5.78121 82.935 8.34386 85.0236 11.4437C87.1121 14.5436 88.4388 18.093 88.8957 21.8027C89.3526 25.5125 88.9266 29.2777 87.6525 32.7917C86.3785 36.3056 84.2924 39.4689 81.5641 42.0239C77.8966 45.4612 73.2322 47.6449 68.2435 48.2603C63.2548 48.8756 58.1996 47.8908 53.8068 45.4477C49.4139 43.0047 45.9104 39.2297 43.8014 34.6671C41.6924 30.1044 41.0868 24.9899 42.0721 20.0609ZM87.0481 29.0339C88.0752 23.8613 87.2207 18.4919 84.6385 13.8938C82.0564 9.29558 77.9166 5.77108 72.9654 3.95561C68.0142 2.14015 62.5773 2.15316 57.6348 3.99229C52.6923 5.83143 48.5694 9.3757 46.0093 13.9862C43.4492 18.5967 42.6204 23.97 43.6722 29.1377C44.724 34.3053 47.5873 38.9272 51.7459 42.1701C55.9044 45.4131 61.0847 47.0638 66.3529 46.8247C71.621 46.5855 76.6305 44.4723 80.4781 40.8659C83.8498 37.7046 86.1472 33.5671 87.0481 29.0339Z" fill="#455A64"/>
<path d="M21.6688 70.8899L20.9128 70.1579C20.2378 69.5069 20.6128 68.0159 21.3238 67.2929L47.8378 39.8999L51.3838 43.3289L24.8998 70.6829C24.0148 71.5589 22.5358 71.7269 21.6688 70.8899Z" fill="#455A64"/>
<path d="M29.778 55.2721L30.312 55.1581L33.102 52.7791L34.629 51.4981C34.7567 51.3901 34.9111 51.3186 35.076 51.2911L36.576 51.0391C36.6386 51.2372 36.6272 51.4513 36.5439 51.6416C36.4606 51.832 36.311 51.9856 36.123 52.0741L35.307 52.5001L34.548 53.4001L34.644 53.5951C34.644 53.5951 39.612 54.3661 39.924 54.7441C39.9749 54.802 40.0121 54.8706 40.033 54.9449C40.0539 55.0191 40.0578 55.0971 40.0446 55.1731C40.0314 55.2491 40.0013 55.3211 39.9565 55.3839C39.9118 55.4467 39.8535 55.4987 39.786 55.5361C39.6635 55.5777 39.5328 55.589 39.405 55.5691C39.405 55.5691 39.648 56.1691 38.925 56.6371C38.925 56.6371 39.474 57.3631 38.511 57.7081C38.3314 58.0412 38.0373 58.298 37.683 58.4311C36.4181 58.6712 35.1413 58.8434 33.858 58.9471H30.297L29.583 59.0641L29.778 55.2721Z" fill="#AE7461"/>
<path d="M39.5221 55.5778C39.0721 55.6833 38.607 55.7087 38.1481 55.6528C37.6876 55.642 37.2301 55.5745 36.7861 55.4518C37.2434 55.4185 37.703 55.4335 38.1571 55.4968C38.6132 55.501 39.0688 55.528 39.5221 55.5778Z" fill="#6F4439"/>
<path d="M38.9249 56.6371C38.9249 56.6611 38.7959 56.6791 38.5889 56.7061C38.3819 56.7331 38.0939 56.7721 37.7699 56.7931C37.4958 56.8035 37.2213 56.7975 36.9479 56.7751C36.8341 56.7784 36.7203 56.7683 36.6089 56.7451C36.6089 56.7211 36.7349 56.6791 36.9449 56.6641C37.1549 56.6491 37.4489 56.6641 37.7609 56.6371C38.0729 56.6101 38.3609 56.5921 38.5799 56.5951C38.7989 56.5981 38.9249 56.6161 38.9249 56.6371Z" fill="#6F4439"/>
<path d="M38.61 57.684C38.1715 57.796 37.7215 57.8564 37.269 57.864C36.9637 57.8685 36.6605 57.917 36.369 58.008C36.15 58.089 36.051 58.206 36.03 58.188C36.009 58.17 36.09 58.026 36.33 57.906C36.6307 57.7773 36.954 57.7099 37.281 57.708C37.7217 57.6503 38.1675 57.6422 38.61 57.684Z" fill="#6F4439"/>
<path d="M22.4491 39.7588C22.4491 39.7588 20.2531 40.2868 18.6631 43.4158C17.7811 45.1468 13.6711 55.5448 13.4251 56.4568C12.3841 60.3568 14.4031 62.8738 16.3471 63.0568C18.4861 63.2458 29.4511 61.6588 29.4511 61.6588L29.7961 54.9448L19.7401 56.6488L24.5401 47.0638C24.5401 47.0638 24.8311 40.6168 22.4491 39.7588Z" fill="#E0E0E0"/>
<path d="M16.9497 63.0567H17.0097L17.1867 63.0387L17.8767 62.9727L20.4627 62.7207C22.6767 62.4957 25.7967 62.0967 29.4387 61.5867L29.3757 61.6557C29.4807 59.5827 29.5977 57.3117 29.7177 54.9417L29.8077 55.0227L19.8267 56.5617L19.7037 56.5797L19.7577 56.4687L22.5717 50.3997C22.9107 49.6767 23.1717 49.1067 23.3697 48.7077L23.5827 48.2667C23.6069 48.2152 23.634 48.1652 23.6637 48.1167C23.6475 48.1711 23.6274 48.2242 23.6037 48.2757L23.4057 48.7257L22.6407 50.4297L19.8687 56.5167L19.7967 56.4237L29.7747 54.8607L29.8707 54.8457V54.9417C29.7477 57.3117 29.6277 59.5827 29.5197 61.6527V61.7157H29.4597C25.8147 62.2167 22.6887 62.5947 20.4597 62.7957C19.3527 62.9007 18.4707 62.9667 17.8677 63.0057L17.1777 63.0477H16.9977L16.9497 63.0567Z" fill="#263238"/>
<path d="M16.3081 59.052C16.3544 58.8259 16.4463 58.6116 16.5781 58.422C16.8728 57.9498 17.2594 57.5417 17.7151 57.222C18.1652 56.8983 18.675 56.6668 19.2151 56.541C19.4376 56.4794 19.67 56.4621 19.8991 56.49C19.8991 56.517 19.6411 56.535 19.2421 56.649C18.7237 56.7991 18.2347 57.0365 17.7961 57.351C17.3567 57.6646 16.9733 58.05 16.6621 58.491C16.4341 58.821 16.3321 59.061 16.3081 59.052Z" fill="#263238"/>
<path d="M24.45 45.2997C24.3018 43.5741 23.6203 41.9375 22.5 40.6167C22.7051 40.7687 22.8861 40.9508 23.037 41.1567C23.8163 42.1219 24.3034 43.2898 24.441 44.5227C24.4831 44.7798 24.4861 45.0417 24.45 45.2997Z" fill="#263238"/>
<path d="M47.1239 49.1133C47.4719 48.9363 47.5739 48.4863 47.5739 48.0963C47.5699 47.1736 47.2061 46.2889 46.5598 45.6303C46.4789 45.5342 46.376 45.459 46.2598 45.4112C46.19 45.3973 46.1178 45.3998 46.0491 45.4185C45.9804 45.4373 45.9169 45.4717 45.8639 45.5192C45.7951 45.591 45.7501 45.6822 45.735 45.7805C45.72 45.8787 45.7357 45.9792 45.7799 46.0682C46.2929 47.4842 45.9988 47.4512 46.2028 48.2672C46.2508 48.4622 46.6169 48.7262 46.7399 48.8852C46.7982 48.9669 46.8797 49.0291 46.9739 49.0639C47.068 49.0987 47.1704 49.1044 47.2679 49.0803" fill="#AE7461"/>
<path d="M45.945 46.6772C45.8454 46.4835 45.7123 46.3088 45.552 46.1612C45.4857 46.0935 45.4033 46.0437 45.3126 46.0164C45.2218 45.9891 45.1256 45.9853 45.033 46.0052C44.76 46.0892 44.628 46.4822 44.658 46.8482C44.712 47.2108 44.8266 47.5617 44.997 47.8862L45.969 49.9863L46.158 49.8483C46.1895 49.8758 46.2271 49.8956 46.2676 49.906C46.3082 49.9163 46.3506 49.917 46.3915 49.908C46.4324 49.8989 46.4706 49.8804 46.503 49.8539C46.5354 49.8273 46.5611 49.7936 46.578 49.7553C46.6591 49.5758 46.6912 49.3781 46.671 49.1823C46.6329 48.3012 46.3839 47.4421 45.945 46.6772Z" fill="#AE7461"/>
<path d="M45.468 48.777C45.2174 48.2918 44.8891 47.851 44.496 47.472C44.3745 47.3234 44.2192 47.2061 44.043 47.13C43.954 47.0937 43.8554 47.0887 43.7632 47.116C43.671 47.1433 43.5909 47.2011 43.536 47.28C43.508 47.3657 43.4997 47.4565 43.5116 47.5459C43.5236 47.6352 43.5555 47.7207 43.605 47.796C44.0931 48.8126 44.6515 49.794 45.276 50.733L45.858 50.133C46.122 49.674 45.69 49.272 45.468 48.777Z" fill="#AE7461"/>
</svg>
