<svg width="61" height="36" viewBox="0 0 61 36" fill="none" xmlns="http://www.w3.org/2000/svg">
<path d="M50.5049 9.88764C50.8085 9.49349 51.1349 9.15185 51.4981 8.86123C52.414 8.12858 53.4811 7.76221 54.8734 7.76221C56.4265 7.76221 57.8333 8.39244 58.8518 9.4109C59.8703 10.4294 60.5005 11.8362 60.5005 13.3893C60.5005 15.8842 59.3046 18.3104 57.5109 20.702C55.7963 22.9881 53.5882 25.1963 51.3801 27.4043L51.3802 27.4044C50.8921 27.8925 50.1006 27.8925 49.6124 27.4044L49.6055 27.3973C45.0477 22.8395 40.4922 18.2814 40.4922 13.3893C40.4922 11.8362 41.1225 10.4294 42.1409 9.41092C43.1594 8.39245 44.5662 7.76222 46.1193 7.76222C48.1677 7.76222 49.447 8.47079 50.5049 9.88766L50.5049 9.88764ZM53.0509 10.8046C52.5471 11.2076 52.1118 11.8624 51.6593 12.7531C51.5504 13.0302 51.3426 13.2695 51.0554 13.4131C50.4379 13.7218 49.687 13.4715 49.3783 12.8541L50.4963 12.2951L49.383 12.8517C48.5199 11.1254 47.6945 10.2623 46.1193 10.2623C45.2563 10.2623 44.4744 10.6125 43.9085 11.1785C43.3425 11.7445 42.9923 12.5263 42.9923 13.3893C42.9923 16.9772 46.6169 20.8543 50.4964 24.7515C52.3606 22.879 54.1639 21.0142 55.5187 19.2078C57.0077 17.2225 58.0004 15.2714 58.0004 13.3893C58.0004 12.5263 57.6502 11.7445 57.0842 11.1785C56.5182 10.6125 55.7365 10.2623 54.8734 10.2623C54.0772 10.2623 53.5028 10.4431 53.0509 10.8046L53.0509 10.8046Z" fill="#FE4D3C"/>
<path d="M43.3458 19.628C44.0362 19.628 44.5959 19.0683 44.5959 18.3779C44.5959 17.6876 44.0362 17.1279 43.3458 17.1279H35.0244L32.8707 15.0376L32.0016 15.9311L32.8722 15.0341C32.4208 14.5961 31.7238 14.567 31.2398 14.9399L29.0491 16.3574L25.6546 0.981818L25.6593 0.980757C25.5105 0.306652 24.8433 -0.119144 24.1692 0.0296485C23.5963 0.156109 23.2029 0.656925 23.1889 1.21818L21.2184 27.0378L18.0769 15.604L16.8758 15.9311L18.0811 15.5999C17.8982 14.9343 17.2103 14.5429 16.5446 14.7258C16.3829 14.7702 16.2375 14.8444 16.1125 14.9409L13.2508 16.7926L11.4425 15.0375L10.5734 15.9311L11.444 15.0341C11.2011 14.7984 10.8871 14.6812 10.5734 14.6812V14.6811H1.75003C1.05969 14.6811 0.5 15.2408 0.5 15.9311C0.5 16.6215 1.05969 17.1811 1.75003 17.1811H10.0715L12.1582 19.2065C12.5609 19.6625 13.2472 19.7679 13.7734 19.4274L13.0944 18.3779L13.7731 19.4228L16.1258 17.9005L20.6867 34.5007C20.7837 35.0492 21.2415 35.4842 21.8226 35.5286C22.5109 35.5811 23.1116 35.0656 23.1641 34.3773L21.9177 34.2822L23.1628 34.375L25.0417 9.75708L26.9798 18.5357C27.0026 18.7161 27.0652 18.8942 27.1706 19.057C27.5457 19.6366 28.3196 19.8024 28.8992 19.4274L28.2201 18.3779L28.8988 19.4228L31.8451 17.5164L33.5882 19.2082C33.8172 19.4657 34.1509 19.6279 34.5225 19.6279H43.3458L43.3458 19.628Z" fill="#FE4D3C"/>
</svg>
