<svg width="172" height="40" viewBox="0 0 172 40" fill="none" xmlns="http://www.w3.org/2000/svg">
<path d="M13.333 13.333V19.9995C13.333 23.682 10.3491 26.6659 6.66652 26.6659C2.98395 26.6659 0 23.6803 0 19.9995V13.333H13.333Z" fill="#F3B637"/>
<path d="M26.6641 0V13.3329H19.9976C16.315 13.3329 13.3311 10.349 13.3311 6.66646C13.3311 2.98392 16.3167 0 19.9976 0H26.6641Z" fill="#EC0869"/>
<path d="M26.6641 33.3339C26.6641 37.0165 23.6784 40.0004 19.9976 40.0004H13.3311V26.6675H19.9976C23.6801 26.6675 26.6641 29.6514 26.6641 33.3339Z" fill="#35BA83"/>
<path d="M40 19.9995V26.6659H26.667V19.9995C26.667 16.3169 29.6509 13.333 33.3335 13.333C37.0161 13.333 40 16.3187 40 19.9995Z" fill="#3655D2"/>
<path d="M51.9659 27.3941C50.7183 26.7255 49.7455 25.7789 49.0473 24.5543C48.3491 23.3286 48 21.9071 48 20.2885C48 18.67 48.3491 17.2441 49.0473 16.0119C49.7455 14.7796 50.7183 13.8287 51.9659 13.1611C53.2134 12.4925 54.6394 12.1587 56.2426 12.1587C58.3809 12.1587 60.1702 12.7004 61.6114 13.7849V15.9681C60.319 14.8245 58.5965 14.2533 56.4439 14.2533C55.2413 14.2533 54.1754 14.4984 53.2474 14.9887C52.3194 15.4789 51.5949 16.1804 51.0751 17.0942C50.5553 18.0079 50.2959 19.0727 50.2959 20.2907C50.2959 21.5087 50.5597 22.5779 51.0871 23.4983C51.6135 24.4197 52.3423 25.1244 53.2703 25.6147C54.1983 26.105 55.2566 26.3501 56.445 26.3501C57.5437 26.3501 58.5276 26.2057 59.3965 25.9157C60.2654 25.6257 61.0708 25.1617 61.8139 24.5237V26.7288C60.4777 27.8428 58.6206 28.3998 56.2448 28.3998C54.6394 28.3965 53.2134 28.0627 51.9659 27.3941Z" fill="#1A1A1A"/>
<path d="M65.0531 27.7169C64.1393 27.2638 63.4269 26.6105 62.9147 25.7569C62.4026 24.9033 62.1465 23.8966 62.1465 22.7387C62.1465 21.5952 62.3993 20.5927 62.9038 19.7315C63.4083 18.8702 64.1218 18.206 65.0421 17.7376C65.9625 17.2703 67.0251 17.0361 68.2277 17.0361C69.4304 17.0361 70.4919 17.2703 71.4134 17.7376C72.3337 18.2049 73.0505 18.8702 73.5626 19.7315C74.0748 20.5927 74.3309 21.5952 74.3309 22.7387C74.3309 23.8976 74.0748 24.9033 73.5626 25.7569C73.0505 26.6105 72.3337 27.2638 71.4134 27.7169C70.493 28.1699 69.4304 28.3965 68.2277 28.3965C67.024 28.3965 65.9657 28.1699 65.0531 27.7169ZM70.9898 25.5457C71.6727 24.8333 72.0141 23.8976 72.0141 22.7387C72.0141 21.5361 71.6727 20.5862 70.9898 19.888C70.307 19.1898 69.3855 18.8407 68.2277 18.8407C67.0699 18.8407 66.1485 19.1898 65.4656 19.888C64.7828 20.5862 64.4413 21.5361 64.4413 22.7387C64.4413 23.8976 64.7828 24.8322 65.4656 25.5457C66.1485 26.2581 67.0699 26.6149 68.2277 26.6149C69.3855 26.6149 70.3059 26.2581 70.9898 25.5457Z" fill="#1A1A1A"/>
<path d="M75.667 17.3701H77.8502V19.2863C78.2956 18.633 78.9227 18.1504 79.7325 17.8385C80.5412 17.5266 81.4812 17.3712 82.5504 17.3712V19.1309C81.4068 19.1309 80.4263 19.3169 79.6099 19.6879C78.7924 20.0589 78.2288 20.6455 77.917 21.4476V28.0629H75.667V17.3701Z" fill="#1A1A1A"/>
<path d="M83.4414 17.37H85.6246V18.9065C86.1291 18.2685 86.7496 17.7968 87.485 17.4915C88.2204 17.1873 88.9886 17.0352 89.7908 17.0352C91.2167 17.0352 92.2782 17.4138 92.9764 18.1711C93.6746 18.9284 94.0237 19.9461 94.0237 21.2232V28.0617H91.7737V21.4464C91.7737 19.7086 90.942 18.8397 89.2786 18.8397C88.5662 18.8397 87.9008 19.0072 87.2847 19.3409C86.6686 19.6747 86.1379 20.1836 85.6925 20.8664V28.0617H83.4425V17.37H83.4414Z" fill="#1A1A1A"/>
<path d="M96.071 14.8979C95.8182 14.6451 95.6924 14.3332 95.6924 13.9623C95.6924 13.5913 95.8182 13.2794 96.071 13.0266C96.3238 12.7738 96.6357 12.6479 97.0067 12.6479C97.393 12.6479 97.7158 12.7738 97.9752 13.0266C98.2345 13.2794 98.3647 13.5913 98.3647 13.9623C98.3647 14.3332 98.2345 14.6451 97.9752 14.8979C97.7147 15.1507 97.3919 15.2766 97.0067 15.2766C96.6346 15.2766 96.3227 15.1507 96.071 14.8979ZM95.8697 17.37H98.1645V28.0617H95.8697V17.37Z" fill="#1A1A1A"/>
<path d="M101.383 26.9147C100.261 25.9276 99.7012 24.5356 99.7012 22.7376C99.7012 20.9856 100.202 19.5969 101.205 18.5726C102.207 17.5483 103.636 17.0361 105.492 17.0361C106.725 17.0361 107.772 17.2703 108.633 17.7376C109.494 18.2049 110.144 18.8516 110.582 19.6757C111.02 20.4997 111.239 21.4398 111.239 22.4936V23.6076H101.838C101.913 24.6177 102.34 25.3717 103.119 25.8685C103.898 26.3665 104.956 26.6149 106.293 26.6149C106.976 26.6149 107.667 26.5514 108.365 26.4256C109.063 26.2997 109.679 26.1323 110.214 25.9244V27.7289C109.74 27.9226 109.111 28.0813 108.332 28.2082C107.553 28.3341 106.784 28.3976 106.026 28.3976C104.053 28.3965 102.505 27.9029 101.383 26.9147ZM109.125 22.0252C109.095 21.0151 108.764 20.2316 108.133 19.6757C107.502 19.1187 106.608 18.8407 105.449 18.8407C104.32 18.8407 103.444 19.1307 102.82 19.7096C102.196 20.2885 101.869 21.0611 101.84 22.0263H109.125V22.0252Z" fill="#1A1A1A"/>
<path d="M111.725 12.4917H113.996V19.1748H122.126V12.4917H124.398V28.062H122.126V21.0899H113.996V28.062H111.725V12.4917Z" fill="#1A1A1A"/>
<path d="M127.417 26.9147C126.296 25.9276 125.735 24.5356 125.735 22.7376C125.735 20.9856 126.237 19.5969 127.239 18.5726C128.241 17.5483 129.671 17.0361 131.527 17.0361C132.759 17.0361 133.806 17.2703 134.667 17.7376C135.529 18.2049 136.179 18.8516 136.616 19.6757C137.054 20.4997 137.274 21.4398 137.274 22.4936V23.6076H127.874C127.948 24.6177 128.375 25.3717 129.155 25.8685C129.934 26.3665 130.993 26.6149 132.33 26.6149C133.013 26.6149 133.703 26.5514 134.401 26.4256C135.1 26.2997 135.716 26.1323 136.251 25.9244V27.7289C135.775 27.9226 135.148 28.0813 134.369 28.2082C133.589 28.3341 132.82 28.3976 132.063 28.3976C130.086 28.3965 128.539 27.9029 127.417 26.9147ZM135.159 22.0252C135.129 21.0151 134.799 20.2316 134.167 19.6757C133.536 19.1187 132.642 18.8407 131.483 18.8407C130.355 18.8407 129.478 19.1307 128.854 19.7096C128.23 20.2885 127.903 21.0611 127.874 22.0263H135.159V22.0252Z" fill="#1A1A1A"/>
<path d="M139.335 27.4051C138.555 26.7441 138.165 25.8501 138.165 24.7207C138.165 23.5323 138.54 22.6152 139.29 21.9695C140.04 21.3239 141.106 21.001 142.487 21.001C143.956 21.001 145.204 21.2987 146.229 21.8918V21.3348C146.229 20.4889 145.973 19.8607 145.461 19.4526C144.949 19.0444 144.143 18.8397 143.045 18.8397C142.391 18.8397 141.756 18.9032 141.141 19.029C140.524 19.1549 139.971 19.33 139.482 19.5521V17.7257C139.927 17.5178 140.506 17.3503 141.219 17.2245C141.932 17.0986 142.623 17.0352 143.291 17.0352C145.058 17.0352 146.368 17.4247 147.223 18.205C148.076 18.9842 148.504 20.0654 148.504 21.4464V28.0617H146.388V26.859C145.927 27.3646 145.382 27.7466 144.751 28.0059C144.119 28.2653 143.351 28.3955 142.445 28.3955C141.15 28.3966 140.114 28.0661 139.335 27.4051ZM144.937 26.2583C145.516 25.9759 145.947 25.583 146.229 25.0775V23.6297C145.264 23.0059 144.187 22.694 143 22.694C142.139 22.694 141.496 22.8614 141.073 23.1952C140.649 23.529 140.438 24.0378 140.438 24.7207C140.438 26.0273 141.292 26.6807 143 26.6807C143.712 26.6818 144.358 26.5406 144.937 26.2583Z" fill="#1A1A1A"/>
<path d="M150.171 11.6006H152.421V28.0616H150.171V11.6006Z" fill="#1A1A1A"/>
<path d="M155.818 27.4605C155.231 26.8368 154.938 25.9536 154.938 24.81V19.1074H153.312V17.3696H154.938V14.1621H157.21V17.3696H159.838V19.1074H157.21V24.6535C157.21 25.366 157.346 25.8716 157.622 26.1681C157.897 26.4658 158.398 26.6135 159.126 26.6135C159.556 26.6135 159.987 26.5172 160.418 26.3235V28.1051C159.854 28.2977 159.155 28.3951 158.325 28.3951C157.239 28.3962 156.404 28.0843 155.818 27.4605Z" fill="#1A1A1A"/>
<path d="M161.42 11.6006H163.67V18.8396C164.694 17.637 166.061 17.0351 167.768 17.0351C169.194 17.0351 170.256 17.4137 170.954 18.171C171.652 18.9283 172.001 19.946 172.001 21.2231V28.0616H169.751V21.4464C169.751 19.7085 168.919 18.8396 167.256 18.8396C166.543 18.8396 165.878 19.0071 165.262 19.3408C164.646 19.6746 164.115 20.1835 163.67 20.8664V28.0616H161.42V11.6006Z" fill="#1A1A1A"/>
</svg>
