<svg width="212" height="48" viewBox="0 0 212 48" fill="none" xmlns="http://www.w3.org/2000/svg">
<path d="M8.62473 18.7979H27.2941V15.0588H8.62473C3.89164 15.0588 0 19.0146 0 23.9458V24.0542C0 28.9312 3.83905 32.9412 8.62473 32.9412H13.6208V31.5323V29.2022H8.62473C5.89006 29.2022 3.6287 26.9262 3.6287 24.0542V23.9458C3.68128 21.128 5.89006 18.7979 8.62473 18.7979Z" fill="#F7B538"/>
<path d="M39.375 15.0588H34.3789V18.7979H39.375C42.1096 18.7979 44.371 21.0738 44.371 23.9458V24.0542C44.371 26.872 42.1622 29.2022 39.375 29.2022H20.7056V31.5323V32.9412H39.375C44.1081 32.9412 47.9997 28.9854 47.9997 24.0542V23.9458C47.9997 19.0688 44.1081 15.0588 39.375 15.0588Z" fill="#3454D1"/>
<path d="M29.7443 27.2941H32.9414V8.62473C32.9414 3.89164 28.9856 0 24.0544 0H23.9461C19.0691 0 15.0591 3.83905 15.0591 8.62473V13.6208H15.7635H18.7981V8.62473C18.7981 5.89006 21.074 3.6287 23.9461 3.6287H24.0544C26.8723 3.6287 29.2024 5.83747 29.2024 8.62473V27.2941H29.7443Z" fill="#FE4D3C"/>
<path d="M30.828 34.3792H30.2862H29.2024V39.3752C29.2024 42.1099 26.9264 44.3712 24.0544 44.3712H23.9461C21.1282 44.3712 18.7981 42.1625 18.7981 39.3752V20.7058H16.5222H15.8177H15.0591V39.3752C15.0591 44.1083 19.0149 47.9999 23.9461 47.9999H24.0544C28.9314 47.9999 32.9414 44.1609 32.9414 39.3752V34.3792H30.828Z" fill="#35BA83"/>
<path d="M72.9176 21.6562H69.1847C69.1165 21.1733 68.9773 20.7443 68.767 20.3693C68.5568 19.9886 68.2869 19.6648 67.9574 19.3977C67.6278 19.1307 67.2472 18.9261 66.8153 18.7841C66.3892 18.642 65.9261 18.571 65.4261 18.571C64.5227 18.571 63.7358 18.7955 63.0653 19.2443C62.3949 19.6875 61.875 20.3352 61.5057 21.1875C61.1364 22.0341 60.9517 23.0625 60.9517 24.2727C60.9517 25.517 61.1364 26.5625 61.5057 27.4091C61.8807 28.2557 62.4034 28.8949 63.0739 29.3267C63.7443 29.7585 64.5199 29.9744 65.4006 29.9744C65.8949 29.9744 66.3523 29.9091 66.7727 29.7784C67.1989 29.6477 67.5767 29.4574 67.9062 29.2074C68.2358 28.9517 68.5085 28.642 68.7244 28.2784C68.946 27.9148 69.0994 27.5 69.1847 27.0341L72.9176 27.0511C72.821 27.8523 72.5795 28.625 72.1932 29.3693C71.8125 30.108 71.2983 30.7699 70.6506 31.3551C70.0085 31.9347 69.2415 32.3949 68.3494 32.7358C67.4631 33.071 66.4602 33.2386 65.3409 33.2386C63.7841 33.2386 62.392 32.8864 61.1648 32.1818C59.9432 31.4773 58.9773 30.4574 58.267 29.1222C57.5625 27.7869 57.2102 26.1705 57.2102 24.2727C57.2102 22.3693 57.5682 20.75 58.2841 19.4148C59 18.0795 59.9716 17.0625 61.1989 16.3636C62.4261 15.6591 63.8068 15.3068 65.3409 15.3068C66.3523 15.3068 67.2898 15.4489 68.1534 15.733C69.0227 16.017 69.7926 16.4318 70.4631 16.9773C71.1335 17.517 71.679 18.179 72.0994 18.9631C72.5256 19.7472 72.7983 20.6449 72.9176 21.6562ZM81.4105 33.2557C80.0866 33.2557 78.9418 32.9744 77.9759 32.4119C77.0156 31.8437 76.2741 31.054 75.7514 30.0426C75.2287 29.0256 74.9673 27.8466 74.9673 26.5057C74.9673 25.1534 75.2287 23.9716 75.7514 22.9602C76.2741 21.9432 77.0156 21.1534 77.9759 20.5909C78.9418 20.0227 80.0866 19.7386 81.4105 19.7386C82.7344 19.7386 83.8764 20.0227 84.8366 20.5909C85.8026 21.1534 86.5469 21.9432 87.0696 22.9602C87.5923 23.9716 87.8537 25.1534 87.8537 26.5057C87.8537 27.8466 87.5923 29.0256 87.0696 30.0426C86.5469 31.054 85.8026 31.8437 84.8366 32.4119C83.8764 32.9744 82.7344 33.2557 81.4105 33.2557ZM81.4276 30.4432C82.0298 30.4432 82.5327 30.2727 82.9361 29.9318C83.3395 29.5852 83.6435 29.1136 83.848 28.517C84.0582 27.9205 84.1634 27.2415 84.1634 26.4801C84.1634 25.7188 84.0582 25.0398 83.848 24.4432C83.6435 23.8466 83.3395 23.375 82.9361 23.0284C82.5327 22.6818 82.0298 22.5085 81.4276 22.5085C80.8196 22.5085 80.3082 22.6818 79.8935 23.0284C79.4844 23.375 79.1747 23.8466 78.9645 24.4432C78.7599 25.0398 78.6577 25.7188 78.6577 26.4801C78.6577 27.2415 78.7599 27.9205 78.9645 28.517C79.1747 29.1136 79.4844 29.5852 79.8935 29.9318C80.3082 30.2727 80.8196 30.4432 81.4276 30.4432ZM90.2145 33V19.9091H93.7344V22.1932H93.8707C94.1094 21.3807 94.5099 20.767 95.0724 20.3523C95.6349 19.9318 96.2827 19.7216 97.0156 19.7216C97.1974 19.7216 97.3935 19.733 97.6037 19.7557C97.8139 19.7784 97.9986 19.8097 98.1577 19.8494V23.071C97.9872 23.0199 97.7514 22.9744 97.4503 22.9347C97.1491 22.8949 96.8736 22.875 96.6236 22.875C96.0895 22.875 95.6122 22.9915 95.1918 23.2244C94.777 23.4517 94.4474 23.7699 94.2031 24.179C93.9645 24.5881 93.8452 25.0597 93.8452 25.5938V33H90.2145ZM103.665 25.4318V33H100.035V19.9091H103.495V22.2188H103.648C103.938 21.4574 104.424 20.8551 105.106 20.4119C105.788 19.9631 106.614 19.7386 107.586 19.7386C108.495 19.7386 109.288 19.9375 109.964 20.3352C110.64 20.733 111.165 21.3011 111.54 22.0398C111.915 22.7727 112.103 23.6477 112.103 24.6648V33H108.472V25.3125C108.478 24.5114 108.273 23.8864 107.859 23.4375C107.444 22.983 106.873 22.7557 106.146 22.7557C105.657 22.7557 105.225 22.8608 104.85 23.071C104.481 23.2812 104.191 23.5881 103.981 23.9915C103.776 24.3892 103.671 24.8693 103.665 25.4318ZM114.964 33V19.9091H118.595V33H114.964ZM116.788 18.2216C116.249 18.2216 115.786 18.0426 115.399 17.6847C115.018 17.321 114.828 16.8864 114.828 16.3807C114.828 15.8807 115.018 15.4517 115.399 15.0938C115.786 14.7301 116.249 14.5483 116.788 14.5483C117.328 14.5483 117.788 14.7301 118.169 15.0938C118.555 15.4517 118.749 15.8807 118.749 16.3807C118.749 16.8864 118.555 17.321 118.169 17.6847C117.788 18.0426 117.328 18.2216 116.788 18.2216ZM127.469 33.2557C126.123 33.2557 124.964 32.983 123.992 32.4375C123.026 31.8864 122.282 31.108 121.759 30.1023C121.237 29.0909 120.975 27.8949 120.975 26.5142C120.975 25.1676 121.237 23.9858 121.759 22.9688C122.282 21.9517 123.018 21.1591 123.967 20.5909C124.921 20.0227 126.04 19.7386 127.325 19.7386C128.188 19.7386 128.992 19.8778 129.737 20.1562C130.487 20.429 131.14 20.8409 131.697 21.392C132.259 21.9432 132.697 22.6364 133.009 23.4716C133.322 24.3011 133.478 25.2727 133.478 26.3864V27.3835H122.424V25.1335H130.06C130.06 24.6108 129.947 24.1477 129.719 23.7443C129.492 23.3409 129.177 23.0256 128.773 22.7983C128.376 22.5653 127.913 22.4489 127.384 22.4489C126.833 22.4489 126.344 22.5767 125.918 22.8324C125.498 23.0824 125.168 23.4205 124.93 23.8466C124.691 24.267 124.569 24.7358 124.563 25.2528V27.392C124.563 28.0398 124.683 28.5994 124.921 29.071C125.165 29.5426 125.509 29.9062 125.952 30.1619C126.396 30.4176 126.921 30.5455 127.529 30.5455C127.933 30.5455 128.302 30.4886 128.637 30.375C128.972 30.2614 129.259 30.0909 129.498 29.8636C129.737 29.6364 129.918 29.358 130.043 29.0284L133.401 29.25C133.231 30.0568 132.881 30.7614 132.353 31.3636C131.83 31.9602 131.154 32.4261 130.325 32.7614C129.501 33.0909 128.549 33.2557 127.469 33.2557ZM135.915 33V15.5455H139.606V22.7472H147.097V15.5455H150.779V33H147.097V25.7898H139.606V33H135.915ZM159.719 33.2557C158.373 33.2557 157.214 32.983 156.242 32.4375C155.276 31.8864 154.532 31.108 154.009 30.1023C153.487 29.0909 153.225 27.8949 153.225 26.5142C153.225 25.1676 153.487 23.9858 154.009 22.9688C154.532 21.9517 155.268 21.1591 156.217 20.5909C157.171 20.0227 158.29 19.7386 159.575 19.7386C160.438 19.7386 161.242 19.8778 161.987 20.1562C162.737 20.429 163.39 20.8409 163.947 21.392C164.509 21.9432 164.947 22.6364 165.259 23.4716C165.572 24.3011 165.728 25.2727 165.728 26.3864V27.3835H154.674V25.1335H162.31C162.31 24.6108 162.197 24.1477 161.969 23.7443C161.742 23.3409 161.427 23.0256 161.023 22.7983C160.626 22.5653 160.163 22.4489 159.634 22.4489C159.083 22.4489 158.594 22.5767 158.168 22.8324C157.748 23.0824 157.418 23.4205 157.18 23.8466C156.941 24.267 156.819 24.7358 156.813 25.2528V27.392C156.813 28.0398 156.933 28.5994 157.171 29.071C157.415 29.5426 157.759 29.9062 158.202 30.1619C158.646 30.4176 159.171 30.5455 159.779 30.5455C160.183 30.5455 160.552 30.4886 160.887 30.375C161.222 30.2614 161.509 30.0909 161.748 29.8636C161.987 29.6364 162.168 29.358 162.293 29.0284L165.651 29.25C165.481 30.0568 165.131 30.7614 164.603 31.3636C164.08 31.9602 163.404 32.4261 162.575 32.7614C161.751 33.0909 160.799 33.2557 159.719 33.2557ZM171.83 33.2472C170.995 33.2472 170.251 33.1023 169.597 32.8125C168.944 32.517 168.427 32.0824 168.046 31.5085C167.671 30.929 167.484 30.2074 167.484 29.3438C167.484 28.6165 167.617 28.0057 167.884 27.5114C168.151 27.017 168.515 26.6193 168.975 26.3182C169.435 26.017 169.958 25.7898 170.543 25.6364C171.134 25.483 171.754 25.375 172.401 25.3125C173.163 25.233 173.776 25.1591 174.242 25.0909C174.708 25.017 175.046 24.9091 175.256 24.767C175.467 24.625 175.572 24.4148 175.572 24.1364V24.0852C175.572 23.5455 175.401 23.1278 175.06 22.8324C174.725 22.5369 174.248 22.3892 173.629 22.3892C172.975 22.3892 172.455 22.5341 172.069 22.8239C171.683 23.108 171.427 23.4659 171.302 23.8977L167.944 23.625C168.114 22.8295 168.45 22.142 168.95 21.5625C169.45 20.9773 170.094 20.5284 170.884 20.2159C171.68 19.8977 172.6 19.7386 173.646 19.7386C174.373 19.7386 175.069 19.8239 175.734 19.9943C176.404 20.1648 176.998 20.429 177.515 20.7869C178.038 21.1449 178.45 21.6051 178.751 22.1676C179.052 22.7244 179.202 23.392 179.202 24.1705V33H175.759V31.1847H175.657C175.447 31.5938 175.165 31.9545 174.813 32.267C174.461 32.5739 174.038 32.8153 173.543 32.9915C173.049 33.1619 172.478 33.2472 171.83 33.2472ZM172.87 30.7415C173.404 30.7415 173.876 30.6364 174.285 30.4261C174.694 30.2102 175.015 29.9205 175.248 29.5568C175.481 29.1932 175.597 28.7812 175.597 28.321V26.9318C175.484 27.0057 175.327 27.0739 175.129 27.1364C174.935 27.1932 174.717 27.2472 174.472 27.2983C174.228 27.3437 173.984 27.3864 173.739 27.4261C173.495 27.4602 173.273 27.4915 173.075 27.5199C172.648 27.5824 172.276 27.6818 171.958 27.8182C171.64 27.9545 171.393 28.1392 171.217 28.3722C171.04 28.5994 170.952 28.8835 170.952 29.2244C170.952 29.7188 171.131 30.0966 171.489 30.358C171.853 30.6136 172.313 30.7415 172.87 30.7415ZM185.65 15.5455V33H182.019V15.5455H185.65ZM195.521 19.9091V22.6364H187.638V19.9091H195.521ZM189.428 16.7727H193.058V28.9773C193.058 29.3125 193.109 29.5739 193.212 29.7614C193.314 29.9432 193.456 30.071 193.638 30.1449C193.825 30.2187 194.041 30.2557 194.286 30.2557C194.456 30.2557 194.626 30.2415 194.797 30.2131C194.967 30.179 195.098 30.1534 195.189 30.1364L195.76 32.8381C195.578 32.8949 195.322 32.9602 194.993 33.0341C194.663 33.1136 194.263 33.1619 193.791 33.179C192.916 33.2131 192.149 33.0966 191.49 32.8295C190.837 32.5625 190.328 32.1477 189.964 31.5852C189.601 31.0227 189.422 30.3125 189.428 29.4545V16.7727ZM201.798 25.4318V33H198.168V15.5455H201.696V22.2188H201.849C202.145 21.446 202.622 20.8409 203.281 20.4034C203.94 19.9602 204.767 19.7386 205.761 19.7386C206.67 19.7386 207.463 19.9375 208.139 20.3352C208.821 20.7273 209.349 21.2926 209.724 22.0312C210.105 22.7642 210.293 23.642 210.287 24.6648V33H206.656V25.3125C206.662 24.5057 206.457 23.8778 206.043 23.429C205.634 22.9801 205.06 22.7557 204.321 22.7557C203.827 22.7557 203.389 22.8608 203.009 23.071C202.634 23.2812 202.338 23.5881 202.122 23.9915C201.912 24.3892 201.804 24.8693 201.798 25.4318Z" fill="#080056"/>
</svg>
