<svg width="21" height="20" viewBox="0 0 21 20" fill="none" xmlns="http://www.w3.org/2000/svg">
<path d="M10.6671 5.99374C8.45029 5.99374 6.66123 7.78281 6.66123 9.9996C6.66123 12.2164 8.45029 14.0055 10.6671 14.0055C12.8839 14.0055 14.6729 12.2164 14.6729 9.9996C14.6729 7.78281 12.8839 5.99374 10.6671 5.99374ZM10.6671 12.6031C9.23349 12.6031 8.06357 11.4332 8.06357 9.9996C8.06357 8.56601 9.23349 7.39609 10.6671 7.39609C12.1007 7.39609 13.2706 8.56601 13.2706 9.9996C13.2706 11.4332 12.1007 12.6031 10.6671 12.6031ZM14.837 4.89609C14.3194 4.89609 13.9015 5.31406 13.9015 5.83164C13.9015 6.34921 14.3194 6.76718 14.837 6.76718C15.3546 6.76718 15.7726 6.35117 15.7726 5.83164C15.7727 5.70873 15.7486 5.58701 15.7017 5.47343C15.6547 5.35986 15.5858 5.25666 15.4989 5.16976C15.412 5.08286 15.3088 5.01395 15.1952 4.96699C15.0816 4.92003 14.9599 4.89593 14.837 4.89609ZM18.4757 9.9996C18.4757 8.92148 18.4854 7.85312 18.4249 6.77695C18.3644 5.52695 18.0792 4.41757 17.1651 3.50351C16.2491 2.58749 15.1417 2.30429 13.8917 2.24374C12.8136 2.1832 11.7452 2.19296 10.669 2.19296C9.59091 2.19296 8.52255 2.1832 7.44638 2.24374C6.19638 2.30429 5.08701 2.58945 4.17294 3.50351C3.25693 4.41953 2.97373 5.52695 2.91318 6.77695C2.85263 7.85507 2.8624 8.92343 2.8624 9.9996C2.8624 11.0758 2.85263 12.1461 2.91318 13.2223C2.97373 14.4723 3.25888 15.5816 4.17294 16.4957C5.08896 17.4117 6.19638 17.6949 7.44638 17.7555C8.52451 17.816 9.59287 17.8062 10.669 17.8062C11.7472 17.8062 12.8155 17.816 13.8917 17.7555C15.1417 17.6949 16.2511 17.4098 17.1651 16.4957C18.0811 15.5797 18.3644 14.4723 18.4249 13.2223C18.4874 12.1461 18.4757 11.0777 18.4757 9.9996ZM16.7569 14.6051C16.6144 14.9605 16.4425 15.2262 16.1671 15.4996C15.8917 15.775 15.628 15.9469 15.2726 16.0894C14.2452 16.4977 11.8058 16.4059 10.6671 16.4059C9.52841 16.4059 7.08701 16.4977 6.05966 16.0914C5.70419 15.9488 5.43857 15.7769 5.16513 15.5016C4.88974 15.2262 4.71787 14.9625 4.57529 14.607C4.16904 13.5777 4.26083 11.1383 4.26083 9.9996C4.26083 8.86093 4.16904 6.41953 4.57529 5.39218C4.71787 5.03671 4.88974 4.77109 5.16513 4.49765C5.44052 4.22421 5.70419 4.05039 6.05966 3.90781C7.08701 3.50156 9.52841 3.59335 10.6671 3.59335C11.8058 3.59335 14.2472 3.50156 15.2745 3.90781C15.63 4.05039 15.8956 4.22226 16.169 4.49765C16.4444 4.77304 16.6163 5.03671 16.7589 5.39218C17.1651 6.41953 17.0733 8.86093 17.0733 9.9996C17.0733 11.1383 17.1651 13.5777 16.7569 14.6051Z" fill="#FE4D3C"/>
</svg>
