<svg width="21" height="20" viewBox="0 0 21 20" fill="none" xmlns="http://www.w3.org/2000/svg">
<path d="M4.81943 5.99725C5.82643 5.99725 6.64276 5.18092 6.64276 4.17392C6.64276 3.16692 5.82643 2.35059 4.81943 2.35059C3.81243 2.35059 2.99609 3.16692 2.99609 4.17392C2.99609 5.18092 3.81243 5.99725 4.81943 5.99725Z" fill="#FE4D3C"/>
<path d="M8.36443 7.37891V17.4947H11.5053V12.4922C11.5053 11.1722 11.7536 9.89391 13.3903 9.89391C15.0044 9.89391 15.0244 11.4031 15.0244 12.5756V17.4956H18.1669V11.9481C18.1669 9.22307 17.5803 7.12891 14.3953 7.12891C12.8661 7.12891 11.8411 7.96807 11.4219 8.76224H11.3794V7.37891H8.36443ZM3.24609 7.37891H6.39193V17.4947H3.24609V7.37891Z" fill="#FE4D3C"/>
</svg>
