<svg width="17" height="23" viewBox="0 0 17 23" fill="none" xmlns="http://www.w3.org/2000/svg">
<path d="M14.1676 2.74405C12.7423 1.31907 10.8396 0.472573 8.82685 0.367936C6.81409 0.263298 4.83391 0.907938 3.26849 2.17744C1.70307 3.44694 0.663383 5.2513 0.350093 7.24228C0.036804 9.23327 0.472119 11.2697 1.57202 12.9586L7.23954 21.6592C7.36566 21.8528 7.53811 22.0119 7.74125 22.122C7.94439 22.2321 8.1718 22.2898 8.40286 22.2898C8.63392 22.2898 8.86133 22.2321 9.06447 22.122C9.26761 22.0119 9.44006 21.8528 9.56618 21.6592L15.2339 12.9586C16.2545 11.3919 16.7055 9.52203 16.5114 7.66233C16.3172 5.80264 15.4898 4.0662 14.1676 2.74405ZM13.9771 12.1399L8.40288 20.6969L2.82865 12.1399C1.1224 9.52053 1.48835 6.01522 3.69879 3.80469C4.31653 3.18693 5.04991 2.69689 5.85704 2.36256C6.66417 2.02823 7.52925 1.85615 8.40288 1.85615C9.27652 1.85615 10.1416 2.02823 10.9487 2.36256C11.7559 2.69689 12.4892 3.18693 13.107 3.80469C15.3174 6.01522 15.6833 9.52053 13.9771 12.1399Z" fill="#667499"/>
</svg>
