<svg width="132" height="131" viewBox="0 0 132 131" fill="none" xmlns="http://www.w3.org/2000/svg">
<path d="M35.1435 13.2484L25.8956 6.00753C25.302 5.54278 24.444 5.64721 23.9793 6.24079L8.63171 25.8424C8.16695 26.436 8.27138 27.294 8.86496 27.7587L18.1129 34.9996C18.7065 35.4644 19.5645 35.36 20.0292 34.7664L35.3768 15.1647C35.8416 14.5712 35.7371 13.7132 35.1435 13.2484Z" fill="#F5F5F5"/>
<path d="M18.4278 32.3725C18.4121 32.3882 16.9109 31.2381 15.0742 29.7997C13.2376 28.3613 11.7599 27.1797 11.773 27.1613C11.7861 27.143 13.2874 28.2958 15.1266 29.7342C16.9659 31.1726 18.4409 32.3542 18.4278 32.3725Z" fill="#E0E0E0"/>
<path d="M32.3371 13.8388C32.3213 13.8572 30.8201 12.7044 28.9835 11.266C27.1468 9.82762 25.6665 8.646 25.6823 8.62766C25.698 8.60932 27.1966 9.76212 29.0359 11.2005C30.8751 12.6389 32.3502 13.8205 32.3371 13.8388Z" fill="#E0E0E0"/>
<path d="M14.9117 29.5638C14.8934 29.5481 18.0714 25.4609 22.0067 20.4358C25.9419 15.4106 29.1488 11.3444 29.1671 11.3575C29.1855 11.3706 26.01 15.4578 22.0722 20.4855C18.1343 25.5133 14.93 29.5769 14.9117 29.5638Z" fill="#E0E0E0"/>
<path d="M23.6914 12.6096L24.5272 11.4883L25.5752 12.2743C25.6488 12.3291 25.7109 12.3978 25.7578 12.4766C25.8048 12.5554 25.8357 12.6427 25.8489 12.7335C25.862 12.8243 25.8571 12.9168 25.8344 13.0057C25.8117 13.0946 25.7717 13.1781 25.7167 13.2515C25.606 13.4 25.441 13.4986 25.2578 13.5256C25.0746 13.5526 24.8882 13.5059 24.7394 13.3956L23.6914 12.6096Z" fill="#EBEBEB"/>
<path d="M24.7155 11.6297L23.8797 12.7484L22.8317 11.9624C22.681 11.8532 22.5798 11.6887 22.5504 11.505C22.5209 11.3213 22.5656 11.1333 22.6745 10.9825C22.7293 10.9089 22.7981 10.8469 22.8769 10.7999C22.9557 10.7529 23.043 10.722 23.1338 10.7089C23.2246 10.6957 23.3171 10.7006 23.406 10.7233C23.4949 10.746 23.5784 10.786 23.6518 10.841L24.7155 11.6297Z" fill="#E0E0E0"/>
<path d="M29.104 16.7439L29.9398 15.6226L30.9878 16.4086C31.1364 16.5197 31.235 16.6851 31.262 16.8688C31.289 17.0524 31.2422 17.2392 31.1319 17.3884C31.0204 17.5367 30.8547 17.6348 30.6711 17.6613C30.4875 17.6878 30.3009 17.6405 30.152 17.5299L29.104 16.7439Z" fill="#EBEBEB"/>
<path d="M30.1285 15.7616L29.2927 16.883L28.2447 16.097C28.1711 16.0422 28.1091 15.9735 28.0621 15.8947C28.0151 15.8158 27.9842 15.7285 27.9711 15.6377C27.9579 15.5469 27.9628 15.4545 27.9855 15.3656C28.0082 15.2767 28.0482 15.1931 28.1033 15.1197C28.158 15.0461 28.2268 14.9841 28.3056 14.9371C28.3844 14.8901 28.4717 14.8592 28.5625 14.8461C28.6533 14.8329 28.7458 14.8378 28.8347 14.8605C28.9236 14.8832 29.0071 14.9232 29.0805 14.9783L30.1285 15.7616Z" fill="#E0E0E0"/>
<path d="M21.3462 15.7014L22.182 14.5801L23.23 15.3661C23.3786 15.4772 23.4772 15.6427 23.5042 15.8263C23.5312 16.0099 23.4844 16.1967 23.3741 16.346C23.2625 16.4942 23.0969 16.5923 22.9133 16.6188C22.7297 16.6453 22.5431 16.5981 22.3942 16.4874L21.3462 15.7014Z" fill="#EBEBEB"/>
<path d="M22.3681 14.7187L21.5349 15.84L20.4869 15.054C20.4133 14.9993 20.3513 14.9305 20.3043 14.8517C20.2573 14.7729 20.2264 14.6856 20.2132 14.5948C20.2001 14.504 20.205 14.4115 20.2277 14.3226C20.2504 14.2337 20.2904 14.1502 20.3454 14.0768C20.4002 14.0032 20.469 13.9411 20.5478 13.8941C20.6266 13.8472 20.7139 13.8162 20.8047 13.8031C20.8955 13.7899 20.988 13.7949 21.0769 13.8175C21.1658 13.8402 21.2493 13.8802 21.3227 13.9353L22.3681 14.7187Z" fill="#E0E0E0"/>
<path d="M26.8823 19.9249L27.7181 18.8062L28.7661 19.5922C28.9146 19.7028 29.0131 19.8678 29.0401 20.051C29.0671 20.2342 29.0204 20.4206 28.9102 20.5694C28.8554 20.6433 28.7865 20.7056 28.7076 20.7529C28.6287 20.8001 28.5412 20.8313 28.4502 20.8447C28.3591 20.8581 28.2664 20.8534 28.1772 20.8309C28.088 20.8084 28.0041 20.7685 27.9303 20.7135L26.8823 19.9249Z" fill="#EBEBEB"/>
<path d="M27.9145 18.9449L27.0813 20.0663L26.0333 19.2803C25.9597 19.2255 25.8976 19.1567 25.8507 19.0779C25.8037 18.9991 25.7728 18.9118 25.7596 18.821C25.7465 18.7302 25.7514 18.6377 25.7741 18.5488C25.7968 18.4599 25.8368 18.3764 25.8918 18.303C26.0025 18.1545 26.1675 18.056 26.3507 18.029C26.5339 18.002 26.7203 18.0487 26.8691 18.1589L27.9145 18.9449Z" fill="#E0E0E0"/>
<path d="M19.0068 18.7903L19.8426 17.6689L20.8906 18.4549C20.9642 18.5097 21.0263 18.5785 21.0732 18.6573C21.1202 18.7361 21.1511 18.8234 21.1643 18.9142C21.1774 19.005 21.1725 19.0975 21.1498 19.1864C21.1272 19.2753 21.0871 19.3588 21.0321 19.4322C20.9214 19.5807 20.7564 19.6792 20.5732 19.7062C20.3901 19.7332 20.2036 19.6865 20.0548 19.5763L19.0068 18.7903Z" fill="#EBEBEB"/>
<path d="M20.0233 17.8157L19.1875 18.937L18.1395 18.151C18.0657 18.0965 18.0034 18.0279 17.9562 17.9491C17.909 17.8704 17.8778 17.7832 17.8644 17.6924C17.851 17.6015 17.8557 17.509 17.8782 17.42C17.9006 17.331 17.9405 17.2473 17.9954 17.1738C18.1059 17.0276 18.2693 16.9305 18.4506 16.9036C18.6319 16.8767 18.8165 16.9219 18.9648 17.0297L20.0233 17.8157Z" fill="#E0E0E0"/>
<path d="M24.6606 23.1082L25.4938 21.9868L26.5418 22.7728C26.6154 22.8276 26.6775 22.8963 26.7244 22.9752C26.7714 23.054 26.8023 23.1413 26.8155 23.2321C26.8286 23.3229 26.8237 23.4154 26.801 23.5043C26.7783 23.5931 26.7383 23.6767 26.6833 23.7501C26.5726 23.8985 26.4076 23.9971 26.2244 24.0241C26.0412 24.0511 25.8548 24.0044 25.706 23.8942L24.6606 23.1082Z" fill="#EBEBEB"/>
<path d="M25.6824 22.1284L24.8466 23.2497L23.7986 22.4637C23.7241 22.4095 23.6611 22.3411 23.6131 22.2625C23.5651 22.1838 23.5331 22.0964 23.519 22.0054C23.5049 21.9143 23.5089 21.8214 23.5308 21.7319C23.5527 21.6424 23.5921 21.5581 23.6466 21.4839C23.7578 21.3352 23.9232 21.2366 24.1068 21.2096C24.2905 21.1826 24.4773 21.2294 24.6265 21.3398L25.6824 22.1284Z" fill="#E0E0E0"/>
<path d="M16.3394 21.9661L17.1725 20.8447L18.2205 21.6307C18.2941 21.6855 18.3562 21.7543 18.4031 21.8331C18.4501 21.9119 18.481 21.9992 18.4942 22.09C18.5073 22.1808 18.5024 22.2733 18.4797 22.3622C18.4571 22.4511 18.417 22.5346 18.362 22.608C18.3072 22.6816 18.2385 22.7436 18.1597 22.7906C18.0809 22.8376 17.9935 22.8685 17.9027 22.8817C17.812 22.8948 17.7195 22.8899 17.6306 22.8672C17.5417 22.8445 17.4581 22.8045 17.3847 22.7495L16.3394 21.9661Z" fill="#EBEBEB"/>
<path d="M17.3614 20.9831L16.5256 22.1045L15.4776 21.3185C15.3297 21.2066 15.2322 21.0408 15.2062 20.8572C15.1802 20.6736 15.2278 20.4872 15.3387 20.3386C15.4502 20.1904 15.6159 20.0923 15.7995 20.0658C15.9831 20.0393 16.1697 20.0865 16.3186 20.1971L17.3614 20.9831Z" fill="#E0E0E0"/>
<path d="M22.0459 26.218L22.8817 25.0967L23.9297 25.8827C24.0035 25.9373 24.0658 26.0059 24.113 26.0846C24.1602 26.1633 24.1914 26.2506 24.2048 26.3414C24.2182 26.4322 24.2135 26.5247 24.191 26.6137C24.1685 26.7027 24.1287 26.7864 24.0738 26.8599C24.019 26.9335 23.9502 26.9956 23.8714 27.0426C23.7926 27.0895 23.7053 27.1205 23.6145 27.1336C23.5237 27.1468 23.4312 27.1418 23.3423 27.1192C23.2534 27.0965 23.1699 27.0565 23.0965 27.0014L22.0459 26.218Z" fill="#EBEBEB"/>
<path d="M23.0701 25.2381L22.2343 26.3568L21.1863 25.5708C21.0381 25.4593 20.94 25.2936 20.9135 25.11C20.887 24.9265 20.9342 24.7398 21.0448 24.5909C21.0996 24.5173 21.1683 24.4553 21.2471 24.4083C21.326 24.3613 21.4133 24.3304 21.5041 24.3172C21.5949 24.3041 21.6873 24.309 21.7762 24.3317C21.8651 24.3544 21.9487 24.3944 22.0221 24.4494L23.0701 25.2381Z" fill="#E0E0E0"/>
<path d="M13.9868 25.5423L14.8147 24.4209L15.8627 25.2069C16.011 25.3184 16.1091 25.4841 16.1356 25.6677C16.1621 25.8513 16.1149 26.0379 16.0042 26.1868C15.9494 26.2604 15.8807 26.3224 15.8019 26.3694C15.7231 26.4164 15.6358 26.4473 15.545 26.4605C15.4542 26.4736 15.3617 26.4687 15.2728 26.446C15.1839 26.4233 15.1003 26.3833 15.027 26.3283L13.9868 25.5423Z" fill="#EBEBEB"/>
<path d="M15.0109 24.5597L14.1752 25.6758L13.1272 24.8898C12.979 24.7796 12.8805 24.6153 12.853 24.4327C12.8255 24.2501 12.8713 24.0641 12.9804 23.9151C13.0352 23.8415 13.104 23.7795 13.1828 23.7325C13.2616 23.6856 13.3489 23.6546 13.4397 23.6415C13.5305 23.6283 13.623 23.6332 13.7119 23.6559C13.8008 23.6786 13.8843 23.7186 13.9577 23.7737L15.0109 24.5597Z" fill="#E0E0E0"/>
<path d="M19.418 29.5877L20.2537 28.4663L21.3017 29.2523C21.3755 29.3069 21.4378 29.3755 21.4851 29.4542C21.5323 29.5329 21.5635 29.6202 21.5768 29.711C21.5902 29.8018 21.5856 29.8944 21.5631 29.9834C21.5406 30.0723 21.5008 30.156 21.4458 30.2296C21.3911 30.3032 21.3223 30.3652 21.2435 30.4122C21.1647 30.4592 21.0774 30.4901 20.9866 30.5032C20.8958 30.5164 20.8033 30.5115 20.7144 30.4888C20.6255 30.4661 20.542 30.4261 20.4686 30.3711L19.418 29.5877Z" fill="#EBEBEB"/>
<path d="M20.4426 28.6051L19.6068 29.7264L18.5588 28.9404C18.4106 28.8289 18.3125 28.6633 18.286 28.4797C18.2595 28.2961 18.3067 28.1095 18.4174 27.9606C18.4721 27.887 18.5409 27.8249 18.6197 27.7779C18.6985 27.731 18.7858 27.7 18.8766 27.6869C18.9674 27.6737 19.0599 27.6786 19.1488 27.7013C19.2377 27.724 19.3212 27.764 19.3946 27.8191L20.4426 28.6051Z" fill="#E0E0E0"/>
<path d="M123.665 78.9826L106.834 84.7178C106.664 84.7755 106.485 84.7991 106.306 84.7874C106.127 84.7757 105.952 84.7289 105.791 84.6495C105.631 84.5702 105.487 84.46 105.369 84.3251C105.25 84.1903 105.16 84.0335 105.102 83.8637L93.3622 49.4002C93.3041 49.2304 93.28 49.0508 93.2913 48.8717C93.3026 48.6926 93.3492 48.5175 93.4283 48.3564C93.5074 48.1953 93.6174 48.0514 93.7522 47.9328C93.887 47.8143 94.0438 47.7236 94.2137 47.6657L111.045 41.9332C111.387 41.8166 111.762 41.8407 112.087 42.0004C112.412 42.1601 112.66 42.4422 112.776 42.7847L124.517 77.2508C124.575 77.4204 124.599 77.5998 124.587 77.7787C124.576 77.9576 124.529 78.1325 124.45 78.2934C124.371 78.4543 124.261 78.598 124.126 78.7163C123.992 78.8345 123.835 78.925 123.665 78.9826Z" fill="#EBEBEB"/>
<path d="M101.909 52.4365C102.005 52.7175 102.015 53.0207 101.939 53.3077C101.863 53.5947 101.703 53.8527 101.48 54.0489C101.257 54.2452 100.981 54.3709 100.687 54.4102C100.392 54.4495 100.093 54.4006 99.8263 54.2697C99.5598 54.1388 99.338 53.9318 99.1891 53.6748C99.0402 53.4178 98.9709 53.1225 98.9899 52.8261C99.0089 52.5297 99.1154 52.2456 99.2959 52.0098C99.4764 51.7739 99.7227 51.5969 100.004 51.5011C100.38 51.3728 100.793 51.3992 101.15 51.5746C101.507 51.75 101.78 52.06 101.909 52.4365Z" fill="#FAFAFA"/>
<path d="M110.162 49.6253C110.257 49.9059 110.268 50.2085 110.191 50.4949C110.115 50.7812 109.955 51.0385 109.733 51.2342C109.51 51.4298 109.234 51.5551 108.941 51.5941C108.647 51.6331 108.348 51.5841 108.082 51.4533C107.816 51.3226 107.595 51.1158 107.446 50.8593C107.298 50.6028 107.229 50.3081 107.248 50.0123C107.267 49.7165 107.373 49.433 107.553 49.1976C107.733 48.9623 107.979 48.7856 108.26 48.69C108.446 48.6265 108.643 48.6003 108.839 48.613C109.036 48.6256 109.228 48.6768 109.405 48.7637C109.581 48.8505 109.739 48.9713 109.869 49.1192C109.999 49.267 110.098 49.439 110.162 49.6253Z" fill="#FAFAFA"/>
<path d="M104.521 60.1104C104.616 60.391 104.627 60.6936 104.55 60.9799C104.474 61.2663 104.314 61.5236 104.091 61.7193C103.869 61.9149 103.593 62.0402 103.299 62.0792C103.006 62.1182 102.707 62.0692 102.441 61.9384C102.175 61.8076 101.954 61.6009 101.805 61.3444C101.657 61.0879 101.588 60.7931 101.607 60.4974C101.626 60.2016 101.732 59.9181 101.912 59.6827C102.092 59.4474 102.338 59.2707 102.619 59.1751C102.805 59.1112 103.002 59.0848 103.199 59.0972C103.395 59.1097 103.587 59.1609 103.764 59.2478C103.941 59.3347 104.098 59.4556 104.228 59.6036C104.358 59.7517 104.458 59.9239 104.521 60.1104Z" fill="#FAFAFA"/>
<path d="M112.777 57.2992C112.872 57.5797 112.882 57.8823 112.806 58.1687C112.73 58.4551 112.57 58.7123 112.347 58.908C112.125 59.1037 111.849 59.2289 111.555 59.2679C111.261 59.3069 110.963 59.258 110.697 59.1272C110.431 58.9964 110.21 58.7897 110.061 58.5332C109.913 58.2767 109.843 57.9819 109.862 57.6861C109.881 57.3903 109.988 57.1068 110.168 56.8715C110.348 56.6361 110.594 56.4595 110.875 56.3638C111.061 56.3003 111.258 56.2741 111.454 56.2868C111.651 56.2994 111.843 56.3506 112.019 56.4375C112.196 56.5243 112.354 56.6451 112.484 56.793C112.614 56.9408 112.713 57.1128 112.777 57.2992Z" fill="#FAFAFA"/>
<path d="M107.136 67.787C107.231 68.0675 107.241 68.3701 107.165 68.6565C107.088 68.9429 106.929 69.2001 106.706 69.3958C106.484 69.5915 106.208 69.7167 105.914 69.7557C105.62 69.7947 105.322 69.7458 105.056 69.615C104.79 69.4842 104.568 69.2775 104.42 69.021C104.271 68.7645 104.202 68.4697 104.221 68.1739C104.24 67.8781 104.347 67.5946 104.527 67.3593C104.707 67.1239 104.953 66.9472 105.233 66.8516C105.42 66.7881 105.617 66.7619 105.813 66.7746C106.01 66.7872 106.202 66.8384 106.378 66.9253C106.555 67.0121 106.713 67.1329 106.843 67.2808C106.973 67.4286 107.072 67.6006 107.136 67.787Z" fill="#FAFAFA"/>
<path d="M115.391 64.9759C115.487 65.2565 115.497 65.5591 115.421 65.8455C115.344 66.1318 115.185 66.3891 114.962 66.5848C114.739 66.7804 114.464 66.9057 114.17 66.9447C113.876 66.9837 113.577 66.9347 113.311 66.8039C113.045 66.6731 112.824 66.4664 112.676 66.2099C112.527 65.9534 112.458 65.6586 112.477 65.3629C112.496 65.0671 112.603 64.7836 112.783 64.5482C112.963 64.3129 113.209 64.1362 113.489 64.0406C113.676 63.9771 113.873 63.9509 114.069 63.9635C114.265 63.9762 114.457 64.0274 114.634 64.1142C114.811 64.2011 114.968 64.3219 115.098 64.4698C115.228 64.6176 115.328 64.7896 115.391 64.9759Z" fill="#FAFAFA"/>
<path d="M109.75 75.4559C109.846 75.7365 109.856 76.0391 109.78 76.3254C109.703 76.6118 109.544 76.8691 109.321 77.0647C109.098 77.2604 108.823 77.3857 108.529 77.4247C108.235 77.4637 107.936 77.4147 107.67 77.2839C107.404 77.1531 107.183 76.9464 107.035 76.6899C106.886 76.4334 106.817 76.1386 106.836 75.8428C106.855 75.5471 106.961 75.2636 107.142 75.0282C107.322 74.7929 107.568 74.6162 107.848 74.5206C108.034 74.4571 108.231 74.4309 108.428 74.4435C108.624 74.4562 108.816 74.5074 108.993 74.5942C109.17 74.6811 109.327 74.8019 109.457 74.9497C109.587 75.0976 109.687 75.2696 109.75 75.4559Z" fill="#FAFAFA"/>
<path d="M118.006 72.6498C118.102 72.9303 118.112 73.2329 118.035 73.5193C117.959 73.8056 117.799 74.0629 117.577 74.2586C117.354 74.4542 117.079 74.5795 116.785 74.6185C116.491 74.6575 116.192 74.6085 115.926 74.4778C115.66 74.347 115.439 74.1402 115.291 73.8837C115.142 73.6272 115.073 73.3325 115.092 73.0367C115.111 72.7409 115.217 72.4574 115.397 72.2221C115.578 71.9867 115.823 71.81 116.104 71.7144C116.29 71.6509 116.487 71.6247 116.684 71.6374C116.88 71.65 117.072 71.7012 117.249 71.7881C117.425 71.8749 117.583 71.9957 117.713 72.1436C117.843 72.2914 117.943 72.4634 118.006 72.6498Z" fill="#FAFAFA"/>
<path d="M101.104 51.6318C100.944 52.0753 100.748 52.5047 100.517 52.9156C100.323 53.3454 100.092 53.7574 99.8257 54.147C99.9855 53.7036 100.182 53.2742 100.413 52.8632C100.606 52.4332 100.838 52.0212 101.104 51.6318Z" fill="#E0E0E0"/>
<path d="M109.187 48.8101C109.028 49.2544 108.833 49.6847 108.603 50.0965C108.407 50.5253 108.175 50.9371 107.911 51.3279C108.07 50.8838 108.266 50.4535 108.495 50.0415C108.692 49.613 108.924 49.2012 109.187 48.8101Z" fill="#E0E0E0"/>
<path d="M103.795 59.3062C103.657 59.7694 103.482 60.2207 103.271 60.6555C103.099 61.1091 102.888 61.5474 102.642 61.9655C102.781 61.5025 102.956 61.0513 103.166 60.6162C103.339 60.1628 103.549 59.7246 103.795 59.3062Z" fill="#E0E0E0"/>
<path d="M111.949 56.4766C111.839 56.9254 111.69 57.3638 111.503 57.7866C111.354 58.2251 111.167 58.6502 110.945 59.0573C111.056 58.6085 111.205 58.1702 111.391 57.7473C111.542 57.3092 111.728 56.8842 111.949 56.4766Z" fill="#E0E0E0"/>
<path d="M106.164 66.9487C105.888 67.7873 105.537 68.5993 105.116 69.3749C105.391 68.5363 105.742 67.7243 106.164 66.9487Z" fill="#E0E0E0"/>
<path d="M114.619 64.2656C114.272 65.0925 113.853 65.8869 113.366 66.6393C113.52 66.2184 113.712 65.8123 113.94 65.4263C114.133 65.0208 114.36 64.6325 114.619 64.2656Z" fill="#E0E0E0"/>
<path d="M109.001 74.7324C108.83 75.1692 108.622 75.5908 108.38 75.9926C108.173 76.4134 107.93 76.8157 107.654 77.1952C108.032 76.3376 108.483 75.5136 109.001 74.7324Z" fill="#E0E0E0"/>
<path d="M117.238 71.6724C117.101 72.1647 116.926 72.6456 116.714 73.1107C116.54 73.5905 116.328 74.0557 116.08 74.502C116.217 74.0096 116.392 73.5286 116.604 73.0636C116.778 72.5836 116.99 72.1183 117.238 71.6724Z" fill="#E0E0E0"/>
<path d="M120.249 76.7658C120.249 76.7972 117.731 77.6854 114.603 78.7518C111.474 79.8181 108.925 80.6565 108.915 80.6251C108.904 80.5936 111.432 79.7054 114.563 78.6391C117.694 77.5728 120.238 76.7291 120.249 76.7658Z" fill="#E0E0E0"/>
<path d="M109.03 45.9047C109.03 45.9335 106.512 46.8243 103.381 47.8906C100.25 48.957 97.7063 49.7954 97.6958 49.7639C97.6854 49.7325 100.214 48.8443 103.345 47.778C106.475 46.7116 109.019 45.8732 109.03 45.9047Z" fill="#E0E0E0"/>
<path d="M103.525 49.3736C103.511 49.3775 103.495 49.3775 103.481 49.3736H103.465L103.58 49.3369C103.58 49.3553 103.58 49.3814 103.538 49.3919C103.496 49.4024 103.475 49.3919 103.467 49.3736L103.583 49.3369C103.583 49.3369 103.583 49.35 103.583 49.3526C103.575 49.3602 103.566 49.3661 103.556 49.3697C103.546 49.3733 103.536 49.3746 103.525 49.3736Z" fill="#E0E0E0"/>
<path d="M114.197 78.7545C114.165 78.7545 111.776 71.8324 108.857 63.2703C105.938 54.7081 103.601 47.7546 103.633 47.7442C103.664 47.7337 106.054 54.6662 108.97 63.231C111.886 71.7958 114.228 78.744 114.197 78.7545Z" fill="#E0E0E0"/>
<path d="M51.8271 123.946L52.7258 110.452L79.1006 112.208C79.536 112.237 79.942 112.438 80.2294 112.766C80.5168 113.095 80.6619 113.524 80.633 113.959L79.9529 124.17C79.9239 124.606 79.7232 125.012 79.3948 125.299C79.0664 125.587 78.6373 125.732 78.2019 125.703L51.8271 123.946Z" fill="#F5F5F5"/>
<path d="M60.0794 115.976L59.5146 124.457L71.6394 125.264L72.2041 116.783L60.0794 115.976Z" fill="#E0E0E0"/>
<path d="M50.2706 109.669L49.2636 124.789C49.2434 125.093 49.4728 125.355 49.776 125.375L53.3627 125.614C53.6659 125.634 53.9281 125.405 53.9483 125.101L54.9552 109.981C54.9754 109.678 54.746 109.415 54.4428 109.395L50.8561 109.156C50.5529 109.136 50.2908 109.366 50.2706 109.669Z" fill="#EBEBEB"/>
<path d="M53.9992 124.361C53.2123 124.381 52.4248 124.353 51.6412 124.277C50.8583 124.248 50.0779 124.172 49.3042 124.049C50.0912 124.028 50.8787 124.056 51.6622 124.133C52.4451 124.161 53.2256 124.237 53.9992 124.361Z" fill="#E0E0E0"/>
<path d="M54.0857 123.051C53.3031 123.072 52.5199 123.044 51.7408 122.967C50.9579 122.938 50.1775 122.862 49.4038 122.739C50.1864 122.72 50.9694 122.748 51.7487 122.823C52.5316 122.851 53.3121 122.927 54.0857 123.051Z" fill="#E0E0E0"/>
<path d="M54.175 121.743C53.388 121.764 52.6006 121.736 51.817 121.659C51.0341 121.631 50.2536 121.555 49.48 121.431C50.267 121.411 51.0544 121.439 51.838 121.515C52.6209 121.544 53.4013 121.62 54.175 121.743Z" fill="#E0E0E0"/>
<path d="M54.2614 120.433C53.4745 120.454 52.687 120.426 51.9034 120.349C51.1205 120.321 50.3401 120.245 49.5664 120.121C50.3534 120.103 51.1408 120.131 51.9244 120.205C52.7073 120.234 53.4878 120.31 54.2614 120.433Z" fill="#E0E0E0"/>
<path d="M54.3476 119.126C53.565 119.146 52.7819 119.118 52.0027 119.042C51.219 119.013 50.4376 118.937 49.6631 118.814C50.4501 118.794 51.2376 118.822 52.0211 118.898C52.8005 118.927 53.5774 119.003 54.3476 119.126Z" fill="#E0E0E0"/>
<path d="M54.4367 117.816C53.6498 117.837 52.8623 117.809 52.0787 117.732C51.2958 117.704 50.5154 117.628 49.7417 117.504C50.5287 117.485 51.3161 117.513 52.0997 117.588C52.8826 117.617 53.663 117.693 54.4367 117.816Z" fill="#E0E0E0"/>
<path d="M54.5232 116.508C53.7362 116.529 52.9487 116.501 52.1652 116.424C51.3822 116.396 50.6018 116.32 49.8281 116.196C50.6151 116.176 51.4026 116.204 52.1861 116.28C52.969 116.309 53.7495 116.385 54.5232 116.508Z" fill="#E0E0E0"/>
<path d="M54.6101 115.198C53.8231 115.219 53.0356 115.191 52.2521 115.114C51.4692 115.086 50.6887 115.01 49.915 114.887C50.702 114.868 51.4894 114.896 52.273 114.97C53.056 114.999 53.8364 115.075 54.6101 115.198Z" fill="#E0E0E0"/>
<path d="M54.6961 113.891C53.9135 113.911 53.1304 113.883 52.3512 113.807C51.5683 113.779 50.7878 113.703 50.0142 113.579C50.8011 113.559 51.5886 113.587 52.3722 113.663C53.1507 113.692 53.9268 113.768 54.6961 113.891Z" fill="#E0E0E0"/>
<path d="M54.7854 112.581C53.9984 112.602 53.2109 112.574 52.4274 112.497C51.6445 112.469 50.864 112.393 50.0903 112.269C50.8773 112.251 51.6647 112.278 52.4483 112.353C53.2312 112.382 54.0117 112.458 54.7854 112.581Z" fill="#E0E0E0"/>
<path d="M54.8718 111.274C54.0848 111.294 53.2973 111.266 52.5138 111.19C51.7309 111.161 50.9504 111.085 50.1768 110.962C50.9637 110.942 51.7512 110.97 52.5348 111.046C53.3177 111.074 54.0981 111.151 54.8718 111.274Z" fill="#E0E0E0"/>
<path d="M54.9585 109.964C54.1759 109.984 53.3928 109.956 52.6136 109.88C51.8298 109.851 51.0485 109.775 50.2739 109.652C51.0609 109.632 51.8484 109.66 52.6319 109.736C53.4113 109.765 54.1883 109.841 54.9585 109.964Z" fill="#E0E0E0"/>
<path d="M77.3661 123.056L76.6053 123.006C76.3973 122.992 76.2033 122.896 76.0661 122.739C75.9288 122.582 75.8594 122.377 75.8733 122.169L76.0456 119.581L78.3984 119.738L78.2261 122.326C78.2191 122.431 78.1912 122.533 78.1439 122.627C78.0965 122.721 78.0308 122.805 77.9506 122.873C77.8704 122.941 77.7773 122.992 77.6769 123.024C77.5765 123.055 77.4708 123.066 77.3661 123.056Z" fill="#EBEBEB"/>
<path d="M76.7806 117.161L77.5666 117.216C77.7751 117.231 77.9692 117.327 78.1063 117.485C78.2434 117.643 78.3122 117.849 78.2976 118.057L78.1161 120.651L75.758 120.486L75.9396 117.892C75.9542 117.683 76.051 117.489 76.2087 117.352C76.3665 117.215 76.5722 117.146 76.7806 117.161Z" fill="#E0E0E0"/>
<path d="M71.8487 114.757L71.6505 115.496C71.5963 115.699 71.464 115.871 71.2827 115.976C71.1014 116.08 70.8859 116.109 70.6837 116.054L68.1678 115.38L68.7808 113.093L71.2968 113.767C71.3989 113.795 71.4945 113.842 71.5778 113.907C71.6612 113.972 71.7307 114.053 71.7822 114.145C71.8336 114.238 71.8661 114.339 71.8775 114.444C71.8889 114.549 71.8791 114.656 71.8487 114.757Z" fill="#EBEBEB"/>
<path d="M66.0442 113.735L66.2414 112.999C66.2953 112.797 66.427 112.626 66.6076 112.521C66.7881 112.417 67.0026 112.389 67.204 112.443L69.7095 113.114L69.0996 115.391L66.5941 114.72C66.4924 114.693 66.3972 114.646 66.3142 114.581C66.2312 114.517 66.1619 114.436 66.1107 114.344C66.0594 114.252 66.0271 114.151 66.0157 114.046C66.0042 113.942 66.014 113.836 66.0442 113.735Z" fill="#E0E0E0"/>
<path d="M79.2109 113.551L79.4168 114.283C79.4731 114.483 79.4475 114.697 79.3458 114.878C79.2441 115.06 79.0746 115.193 78.8744 115.249L76.3844 115.95L75.7477 113.686L78.2378 112.986C78.3388 112.957 78.4445 112.949 78.5486 112.963C78.6527 112.976 78.7531 113.01 78.8439 113.062C78.9346 113.115 79.0139 113.185 79.0769 113.269C79.14 113.353 79.1856 113.449 79.2109 113.551Z" fill="#EBEBEB"/>
<path d="M72.0757 115.948L71.8698 115.216C71.8135 115.016 71.8391 114.802 71.9408 114.621C72.0425 114.439 72.212 114.306 72.4122 114.25L74.9123 113.546L75.5489 115.81L73.0589 116.51C72.9574 116.54 72.8509 116.55 72.7458 116.537C72.6407 116.525 72.5391 116.492 72.4472 116.439C72.3554 116.387 72.2751 116.316 72.2112 116.232C72.1474 116.147 72.1013 116.051 72.0757 115.948Z" fill="#E0E0E0"/>
<path d="M73.1649 122.925L72.459 122.637C72.266 122.558 72.1121 122.406 72.0313 122.214C71.9505 122.022 71.9493 121.805 72.0281 121.612L73.0077 119.21L75.191 120.101L74.2114 122.503C74.1327 122.696 73.9805 122.85 73.7883 122.93C73.5962 123.011 73.3798 123.012 73.1868 122.934L73.1649 122.925Z" fill="#EBEBEB"/>
<path d="M74.8667 116.73L75.5726 117.018C75.7657 117.097 75.9195 117.249 76.0003 117.441C76.0811 117.634 76.0823 117.85 76.0036 118.043L75.0239 120.445L72.8406 119.554L73.8202 117.152C73.8599 117.055 73.9188 116.966 73.9933 116.892C74.0678 116.818 74.1565 116.759 74.2541 116.72C74.3517 116.681 74.4562 116.661 74.5615 116.663C74.6667 116.665 74.7705 116.688 74.8667 116.73Z" fill="#E0E0E0"/>
<path d="M109.721 19.9118L111.493 22.165C111.525 22.2073 111.539 22.2605 111.533 22.3134C111.527 22.3662 111.5 22.4145 111.458 22.4479L109.182 24.2164C109.013 24.3484 108.819 24.4456 108.612 24.5027C108.405 24.5598 108.189 24.5755 107.976 24.549C107.763 24.5224 107.558 24.4542 107.371 24.3481C107.185 24.2421 107.021 24.1003 106.889 23.9308C106.757 23.7614 106.66 23.5676 106.603 23.3606C106.546 23.1535 106.53 22.9372 106.556 22.7241C106.583 22.511 106.651 22.3051 106.757 22.1184C106.863 21.9316 107.005 21.7676 107.175 21.6357L109.452 19.8672C109.494 19.84 109.545 19.8295 109.595 19.8377C109.645 19.8459 109.69 19.8723 109.721 19.9118Z" fill="#EBEBEB"/>
<path d="M111.047 22.5004L109.287 20.2393C109.27 20.2183 109.259 20.1943 109.252 20.1688C109.245 20.1432 109.243 20.1165 109.246 20.0902C109.25 20.0639 109.258 20.0386 109.271 20.0156C109.285 19.9926 109.302 19.9725 109.323 19.9563L111.597 18.1878C111.767 18.0559 111.96 17.9586 112.167 17.9015C112.374 17.8445 112.59 17.8288 112.803 17.8553C113.016 17.8818 113.221 17.9501 113.408 18.0561C113.594 18.1622 113.758 18.304 113.89 18.4734C114.022 18.6428 114.119 18.8366 114.176 19.0437C114.233 19.2507 114.249 19.467 114.223 19.6801C114.196 19.8933 114.128 20.0991 114.022 20.2859C113.916 20.4726 113.774 20.6366 113.604 20.7685L111.33 22.5318C111.288 22.565 111.235 22.5804 111.182 22.5745C111.129 22.5686 111.081 22.5419 111.047 22.5004Z" fill="#E0E0E0"/>
<path d="M8.87249 73.5587L11.5685 74.5386C11.6191 74.5575 11.6602 74.5956 11.6828 74.6447C11.7054 74.6938 11.7076 74.7499 11.689 74.8006L10.7039 77.5071C10.6307 77.7091 10.5184 77.8948 10.3735 78.0534C10.2285 78.212 10.0537 78.3405 9.85902 78.4315C9.66435 78.5226 9.45364 78.5743 9.23896 78.5838C9.02427 78.5933 8.80982 78.5604 8.60787 78.4869C8.20022 78.3386 7.86809 78.0346 7.68437 77.6416C7.50066 77.2487 7.48038 76.7988 7.62799 76.3909L8.61311 73.6845C8.62164 73.659 8.63517 73.6355 8.65291 73.6154C8.67064 73.5952 8.69221 73.5788 8.71637 73.5671C8.74053 73.5554 8.76678 73.5486 8.79359 73.5472C8.82039 73.5457 8.84722 73.5497 8.87249 73.5587Z" fill="#EBEBEB"/>
<path d="M11.3797 75.0551L8.68638 74.0752C8.66087 74.0664 8.6374 74.0526 8.61739 74.0345C8.59738 74.0165 8.58125 73.9945 8.56998 73.97C8.55871 73.9455 8.55253 73.919 8.55183 73.892C8.55112 73.8651 8.55589 73.8382 8.56586 73.8132L9.55098 71.1041C9.62411 70.9021 9.7364 70.7165 9.88142 70.5579C10.0264 70.3994 10.2013 70.271 10.3961 70.1802C10.5908 70.0894 10.8015 70.038 11.0162 70.0288C11.2309 70.0197 11.4452 70.053 11.647 70.1268C11.849 70.2 12.0346 70.3123 12.1932 70.4573C12.3517 70.6023 12.4801 70.7772 12.5708 70.9719C12.6616 71.1666 12.7131 71.3774 12.7223 71.5921C12.7314 71.8067 12.6981 72.0211 12.6242 72.2228L11.6391 74.9319C11.6208 74.9824 11.5833 75.0237 11.5347 75.0467C11.4862 75.0698 11.4305 75.0728 11.3797 75.0551Z" fill="#E0E0E0"/>
<path d="M121.972 125.482C121.972 125.521 96.8623 125.55 65.9044 125.55C34.9465 125.55 9.83643 125.521 9.83643 125.482C9.83643 125.443 34.9413 125.414 65.9175 125.414C96.8938 125.414 121.972 125.446 121.972 125.482Z" fill="#263238"/>
<path d="M100.565 9.73877H37.4304C35.9689 9.73877 34.7842 10.9235 34.7842 12.385V97.4695C34.7842 98.9309 35.9689 100.116 37.4304 100.116H100.565C102.026 100.116 103.211 98.9309 103.211 97.4695V12.385C103.211 10.9235 102.026 9.73877 100.565 9.73877Z" fill="#455A64"/>
<path d="M98.6255 14.0093H39.3638V93.9062H98.6255V14.0093Z" fill="white"/>
<path d="M98.6282 93.9059C98.6282 93.3609 98.602 61.3157 98.5653 13.9959L98.6282 14.0562H39.3716L39.4397 13.988C39.4397 43.7853 39.4397 71.3949 39.4397 93.898L39.3821 93.8404L98.6465 93.898L39.3821 93.953H39.3271V93.898C39.3271 71.408 39.3271 43.7984 39.314 13.988V13.9199H39.3899H98.6465H98.7068V13.9828C98.6544 61.3079 98.6282 93.3609 98.6282 93.9059Z" fill="#263238"/>
<path d="M51.8406 27.4181L50.4598 25.3404H48.9324V27.4181H47.2739V19.9615H50.376C50.9456 19.948 51.511 20.0607 52.0318 20.2917C52.475 20.4892 52.8504 20.8126 53.1113 21.2218C53.3731 21.6549 53.505 22.1542 53.4912 22.6601C53.5072 23.1687 53.3732 23.6707 53.106 24.1038C52.8428 24.5107 52.4642 24.8299 52.0187 25.0208L53.6274 27.4181H51.8406ZM51.4214 21.7038C51.0954 21.4582 50.6914 21.339 50.2843 21.3685H48.9324V23.9675H50.2843C50.6925 23.9957 51.0969 23.8736 51.4214 23.6243C51.6718 23.3674 51.812 23.0228 51.812 22.6641C51.812 22.3053 51.6718 21.9607 51.4214 21.7038Z" fill="#407BFF"/>
<path d="M55.4692 32.5718L53.8291 30.13L52.2178 32.5823H50.4126L52.9278 28.9903L50.5384 25.5188H52.3252L53.8972 27.8087L55.4247 25.5083H57.1224L54.7644 28.9143L57.298 32.5666L55.4692 32.5718Z" fill="#407BFF"/>
<path d="M78.0483 21.7432H67.8774V24.261H78.0483V21.7432Z" fill="#E0E0E0"/>
<path d="M92.9638 23.3337C92.9638 23.373 90.1813 23.4019 86.7491 23.4019C83.3169 23.4019 80.5371 23.373 80.5371 23.3337C80.5371 23.2944 83.3169 23.2656 86.7491 23.2656C90.1813 23.2656 92.9638 23.2971 92.9638 23.3337Z" fill="#263238"/>
<path d="M92.7308 26.3544C92.7308 26.3911 87.1659 26.4226 80.3041 26.4226C73.4423 26.4226 67.8774 26.3911 67.8774 26.3544C67.8774 26.3178 73.4397 26.2837 80.3041 26.2837C87.1685 26.2837 92.7308 26.3151 92.7308 26.3544Z" fill="#263238"/>
<path d="M92.7308 29.3123C92.7308 29.3489 87.1659 29.3804 80.3041 29.3804C73.4423 29.3804 67.8774 29.3489 67.8774 29.3123C67.8774 29.2756 73.4397 29.2441 80.3041 29.2441C87.1685 29.2441 92.7308 29.273 92.7308 29.3123Z" fill="#263238"/>
<path d="M96.6084 37.204C96.6084 37.2407 84.2447 37.2722 68.9989 37.2722C53.7531 37.2722 41.3867 37.2407 41.3867 37.204C41.3867 37.1674 53.7453 37.1333 68.9989 37.1333C84.2525 37.1333 96.6084 37.1595 96.6084 37.204Z" fill="#263238"/>
<path d="M96.6084 81.8645C96.6084 81.9012 84.2447 81.9326 68.9989 81.9326C53.7531 81.9326 41.3867 81.9012 41.3867 81.8645C41.3867 81.8278 53.7453 81.7964 68.9989 81.7964C84.2525 81.7964 96.6084 81.8252 96.6084 81.8645Z" fill="#263238"/>
<path d="M62.9729 41.7183H45.9351V44.9147H62.9729V41.7183Z" fill="#E0E0E0"/>
<path d="M53.3104 86.4233H45.9351V89.6198H53.3104V86.4233Z" fill="#E0E0E0"/>
<path d="M78.0745 86.4233H70.6992V89.6198H78.0745V86.4233Z" fill="#E0E0E0"/>
<path d="M65.6716 88.637C65.6716 88.6763 63.3686 88.7051 60.5285 88.7051C57.6884 88.7051 55.3828 88.6763 55.3828 88.637C55.3828 88.5977 57.6858 88.5688 60.5285 88.5688C63.3712 88.5688 65.6716 88.6003 65.6716 88.637Z" fill="#263238"/>
<path d="M92.1545 88.637C92.1545 88.6763 89.8515 88.7051 87.0114 88.7051C84.1713 88.7051 81.8657 88.6763 81.8657 88.637C81.8657 88.5977 84.1687 88.5688 87.0114 88.5688C89.8541 88.5688 92.1545 88.6003 92.1545 88.637Z" fill="#263238"/>
<path d="M91.544 49.7278C91.544 49.7645 81.4491 49.7959 69.012 49.7959C56.5748 49.7959 46.48 49.7645 46.48 49.7278C46.48 49.6911 56.5696 49.6597 69.012 49.6597C81.4544 49.6597 91.544 49.6885 91.544 49.7278Z" fill="#263238"/>
<path d="M92.4188 53.3748C92.4188 53.4141 82.1301 53.4429 69.4414 53.4429C56.7528 53.4429 46.4614 53.4141 46.4614 53.3748C46.4614 53.3355 56.7475 53.3066 69.4414 53.3066C82.1353 53.3066 92.4188 53.3381 92.4188 53.3748Z" fill="#263238"/>
<path d="M68.7395 57.0242C68.7395 57.0609 63.6332 57.0923 57.3373 57.0923C51.0414 57.0923 45.9351 57.0609 45.9351 57.0242C45.9351 56.9875 51.0388 56.9561 57.3373 56.9561C63.6358 56.9561 68.7395 56.9849 68.7395 57.0242Z" fill="#263238"/>
<path d="M92.0811 70.2553C92.0811 70.2553 92.0313 70.2763 91.9291 70.3077L91.4837 70.444C90.9082 70.6152 90.3228 70.7517 89.7309 70.8527C89.3034 70.9279 88.8706 70.9691 88.4366 70.9758C87.9175 70.9861 87.3995 70.9217 86.8987 70.7846C86.3218 70.6196 85.7903 70.3248 85.345 69.9226C84.8429 69.4639 84.5129 68.8473 84.4097 68.1751C84.3559 67.8119 84.4002 67.441 84.5381 67.1008C84.6925 66.7471 84.9453 66.4452 85.2664 66.231C85.4324 66.116 85.6195 66.0353 85.817 65.9934C86.0145 65.9516 86.2183 65.9495 86.4166 65.9874C86.6174 66.0367 86.8063 66.1258 86.9721 66.2494C87.1339 66.3847 87.2689 66.5491 87.3703 66.7341C87.563 67.1173 87.6592 67.5418 87.6506 67.9707C87.6525 68.4096 87.5725 68.8449 87.4148 69.2545C87.0729 70.1024 86.5091 70.8426 85.7826 71.3977C85.0216 71.9892 84.1177 72.3688 83.1626 72.4981C82.6729 72.5679 82.1753 72.5617 81.6875 72.4797C81.4398 72.4398 81.1954 72.3811 80.9565 72.3042C80.7178 72.2163 80.485 72.113 80.2596 71.995C79.8101 71.7442 79.4097 71.414 79.078 71.0204C78.7351 70.6185 78.495 70.1392 78.3785 69.6239C78.2504 69.0945 78.3164 68.5368 78.5645 68.0519C78.8107 67.5612 79.2188 67.1706 79.7199 66.9463C79.9735 66.8315 80.252 66.7828 80.5295 66.8048C80.8045 66.8322 81.0675 66.9316 81.2919 67.093C81.7179 67.4308 82.0118 67.9074 82.1224 68.4397C82.2429 68.9493 82.2713 69.4763 82.2063 69.996C82.155 70.5048 82.0415 71.0055 81.8683 71.4867C81.5469 72.4363 80.9791 73.2835 80.2229 73.9417C79.4881 74.5721 78.569 74.948 77.6029 75.0133C76.7105 75.1041 75.8149 74.8743 75.0766 74.3649C74.3382 73.8556 73.8053 73.1 73.5734 72.2334C73.3363 71.4599 73.3677 70.6289 73.6625 69.8754C73.8011 69.516 74.0392 69.2034 74.3489 68.9742C74.5037 68.8609 74.6834 68.7864 74.8729 68.7567C75.0592 68.7292 75.2493 68.7652 75.4126 68.8589C75.5622 68.9563 75.6872 69.0868 75.7781 69.2404C75.869 69.394 75.9232 69.5665 75.9366 69.7444C75.9804 70.07 75.9671 70.4007 75.8973 70.7217C75.7938 71.3072 75.6178 71.8775 75.3733 72.4195C75.1615 72.8901 74.8979 73.3356 74.5873 73.7478C74.3278 74.097 74.0347 74.4199 73.7122 74.712C73.2725 75.1223 72.7767 75.4681 72.2398 75.739C72.1021 75.8124 71.9604 75.878 71.8154 75.9355L71.666 75.9931L71.8101 75.9224C71.9044 75.8752 72.0512 75.8176 72.2293 75.7154C72.7571 75.4327 73.2445 75.0802 73.6782 74.6674C74.3662 74.0191 74.9215 73.2432 75.3131 72.3828C75.5577 71.8472 75.7337 71.283 75.8371 70.7034C75.901 70.3904 75.9125 70.069 75.8711 69.7523C75.8584 69.5893 75.8088 69.4313 75.7262 69.2901C75.6437 69.149 75.5302 69.0284 75.3943 68.9375C75.2491 68.8546 75.0801 68.8232 74.9148 68.8484C74.7446 68.8788 74.584 68.9488 74.4458 69.0528C74.152 69.2705 73.9265 69.5678 73.7961 69.9095C73.5123 70.6422 73.4856 71.4495 73.7201 72.1994C73.9478 73.0378 74.4657 73.7682 75.1815 74.2605C75.8974 74.7528 76.7648 74.9749 77.6291 74.8875C78.566 74.8199 79.4562 74.4524 80.1679 73.8395C80.906 73.196 81.4594 72.3677 81.7714 71.4396C81.9398 70.9673 82.0506 70.4764 82.1015 69.9776C82.164 69.4736 82.1356 68.9625 82.0176 68.4685C81.9139 67.9669 81.6353 67.5184 81.2316 67.203C81.0255 67.0546 80.7835 66.964 80.5306 66.9405C80.2777 66.917 80.0232 66.9615 79.7933 67.0694C79.3201 67.2828 78.9351 67.653 78.7033 68.1174C78.4708 68.5725 78.4095 69.0959 78.5304 69.5925C78.657 70.0785 78.8836 70.5328 79.1958 70.9262C79.508 71.3196 79.8989 71.6435 80.3435 71.8771C80.5615 71.9906 80.7864 72.0903 81.0168 72.1758C81.7084 72.4011 82.4421 72.4665 83.1626 72.3671C83.6302 72.302 84.0874 72.176 84.5224 71.9924C84.9474 71.8111 85.3479 71.5769 85.7145 71.2955C86.4249 70.7528 86.976 70.0287 87.31 69.1995C87.4634 68.8043 87.5425 68.3841 87.5432 67.9602C87.5524 67.551 87.4625 67.1456 87.2812 66.7786C87.1865 66.6072 87.0623 66.4538 86.9144 66.3253C86.7635 66.2044 86.5897 66.1153 86.4035 66.0633C86.2193 66.028 86.0299 66.0298 85.8464 66.0684C85.6628 66.1071 85.4888 66.182 85.3346 66.2887C85.0295 66.4893 84.7892 66.7742 84.6429 67.1087C84.5098 67.4327 84.4655 67.7863 84.5145 68.1331C84.614 68.784 84.9318 69.3818 85.4158 69.8283C85.8502 70.2237 86.369 70.5149 86.9328 70.6798C87.4254 70.8183 87.9354 70.8854 88.4471 70.8789C88.8782 70.876 89.3083 70.8393 89.7335 70.7689C90.3241 70.6722 90.9092 70.5445 91.4863 70.3863L91.937 70.2632L92.0811 70.2553Z" fill="#263238"/>
<path d="M78.8842 8.9707H59.1084V16.532H78.8842V8.9707Z" fill="#E0E0E0"/>
<path d="M78.8841 16.5295C78.8841 16.5295 78.8841 16.4824 78.8841 16.3933C78.8841 16.3042 78.8841 16.1706 78.8841 16.0003C78.8841 15.6518 78.8841 15.1488 78.8841 14.499C78.8841 13.189 78.8684 11.3105 78.8579 8.97083L78.9051 9.01799L59.132 9.03895L59.2001 8.97083C59.2001 11.6118 59.2001 14.1663 59.2001 16.5295L59.1346 16.464L73.2826 16.4955L77.4038 16.5138H78.5121H78.8003H78.8999C78.8693 16.5164 78.8387 16.5164 78.8081 16.5138H78.5278H77.4353L73.3271 16.5322L59.1241 16.561H59.0586V16.4955C59.0586 14.1375 59.0586 11.5777 59.0586 8.93677L59.1267 8.86865L78.8999 8.88961H78.947V8.93677C78.947 11.2948 78.9287 13.1812 78.9208 14.4938C78.9208 15.1383 78.9208 15.6387 78.9208 15.9846C78.9208 16.1496 78.9208 16.278 78.9208 16.3697C78.9208 16.4614 78.8841 16.5295 78.8841 16.5295Z" fill="#263238"/>
<path d="M102.569 125.367H89.7624C89.4876 125.367 89.2238 125.259 89.0278 125.067C88.8318 124.874 88.7192 124.612 88.7144 124.337L88.4053 89.7979H103.292L103.601 124.316C103.602 124.592 103.494 124.857 103.301 125.054C103.108 125.25 102.845 125.363 102.569 125.367Z" fill="#407BFF"/>
<g opacity="0.3">
<path opacity="0.3" d="M100.685 97.4642V124.055C100.685 124.055 102.781 124.752 102.883 122.918C102.985 121.084 102.93 97.459 102.93 97.459L100.685 97.4642Z" fill="white"/>
</g>
<path d="M101.888 88.0449H89.8358C89.6273 88.0449 89.4274 88.1277 89.28 88.2751C89.1326 88.4225 89.0498 88.6225 89.0498 88.8309V89.6038H102.674V88.8178C102.67 88.6116 102.586 88.4151 102.439 88.2705C102.292 88.1259 102.094 88.0449 101.888 88.0449Z" fill="#FAFAFA"/>
<path d="M101.888 88.045C101.931 88.0387 101.975 88.0387 102.019 88.045C102.148 88.0612 102.271 88.1108 102.375 88.1891C102.462 88.2531 102.534 88.3339 102.589 88.4267C102.643 88.5194 102.678 88.6222 102.692 88.7289C102.692 88.9908 102.692 89.2528 102.692 89.5882V89.6196H102.658C100.161 89.638 95.3379 89.6537 89.8202 89.6537H88.9687V88.8546C88.9646 88.7245 88.9901 88.5951 89.0432 88.4762C89.0963 88.3573 89.1756 88.252 89.2752 88.1682C89.375 88.0851 89.4924 88.026 89.6184 87.9953C89.7394 87.9736 89.8625 87.9657 89.9852 87.9717H90.6822H93.331L97.785 87.9874L100.78 88.0084H101.592H101.801H101.872H101.801H101.592H100.78L97.785 88.0293L93.331 88.045H90.6822H89.9852C89.873 88.0384 89.7604 88.0454 89.6499 88.066C89.5445 88.0925 89.4461 88.1417 89.3617 88.2101C88.9844 88.4957 89.1364 89.0459 89.0997 89.5201L89.0316 89.452H89.8176C95.3431 89.452 100.167 89.4651 102.656 89.486L102.622 89.5201C102.622 89.1978 102.622 88.907 102.622 88.6686C102.611 88.5666 102.581 88.4676 102.532 88.3776C102.483 88.2876 102.416 88.2083 102.336 88.1446C102.198 88.0729 102.043 88.0385 101.888 88.045Z" fill="#263238"/>
<path d="M104.175 89.229H87.5354C87.1534 89.229 86.8438 89.5387 86.8438 89.9207V96.7667C86.8438 97.1487 87.1534 97.4584 87.5354 97.4584H104.175C104.557 97.4584 104.867 97.1487 104.867 96.7667V89.9207C104.867 89.5387 104.557 89.229 104.175 89.229Z" fill="#FAFAFA"/>
<path d="M104.175 97.4638C104.175 97.4638 104.222 97.4638 104.306 97.4428C104.432 97.4165 104.547 97.3547 104.639 97.2646C104.945 97.0341 104.822 96.4786 104.841 95.842C104.841 94.532 104.827 92.6587 104.82 90.34C104.82 90.1959 104.82 90.0492 104.82 89.8998C104.815 89.7599 104.764 89.6254 104.675 89.5173C104.583 89.4072 104.457 89.33 104.317 89.2972C104.165 89.2808 104.013 89.2764 103.861 89.2841H101.885H97.5255H87.5406C87.4407 89.2834 87.342 89.3069 87.2531 89.3525C87.1641 89.3981 87.0875 89.4645 87.0297 89.5461C86.9736 89.6237 86.9368 89.7135 86.9223 89.8081C86.9169 89.9146 86.9169 90.0213 86.9223 90.1278V93.9792C86.9223 94.8123 86.9223 95.6324 86.9223 96.4367V96.738C86.9227 96.8285 86.9424 96.9178 86.98 97C87.0172 97.0816 87.0716 97.1543 87.1394 97.2131C87.2072 97.2718 87.2869 97.3153 87.373 97.3406C87.4624 97.3655 87.5555 97.3744 87.6481 97.3668H88.5179L96.674 97.3799L102.176 97.4035H103.669H104.06H104.191H104.06H103.669L102.176 97.4166L96.674 97.4376L88.5179 97.4533H87.6481C87.544 97.4607 87.4394 97.45 87.3389 97.4218C87.2348 97.3918 87.1384 97.3398 87.0561 97.2693C86.9738 97.1987 86.9077 97.1114 86.8621 97.0131C86.8176 96.9133 86.7944 96.8054 86.7939 96.6961V96.3948C86.7939 95.5913 86.7939 94.7722 86.7939 93.9372C86.7939 93.1015 86.7939 92.25 86.7939 91.388V90.078C86.7939 89.9653 86.7939 89.8631 86.7939 89.74C86.8119 89.6194 86.8576 89.5045 86.9276 89.4046C86.9978 89.3054 87.0909 89.2246 87.199 89.169C87.3071 89.1133 87.4269 89.0845 87.5485 89.085H97.5333H101.893H103.868C104.029 89.0769 104.189 89.083 104.348 89.1033C104.51 89.1443 104.655 89.2361 104.762 89.3653C104.863 89.4923 104.921 89.6484 104.927 89.8107V90.2535C104.927 92.5696 104.909 94.4455 104.903 95.7555C104.903 96.0778 104.903 96.366 104.903 96.6175C104.911 96.7256 104.895 96.834 104.855 96.9348C104.815 97.0355 104.753 97.1259 104.673 97.1991C104.576 97.2895 104.455 97.3489 104.324 97.3695C104.282 97.4108 104.231 97.4429 104.175 97.4638Z" fill="#263238"/>
<path d="M87.8918 97.3225C87.8526 97.3225 87.8237 95.5697 87.8237 93.4109C87.8237 91.252 87.8526 89.4966 87.8918 89.4966C87.9311 89.4966 87.96 91.2494 87.96 93.4109C87.96 95.5724 87.9285 97.3225 87.8918 97.3225Z" fill="#263238"/>
<path d="M89.2542 97.3225C89.2149 97.3225 89.186 95.5697 89.186 93.4109C89.186 91.252 89.2149 89.4966 89.2542 89.4966C89.2935 89.4966 89.3223 91.2494 89.3223 93.4109C89.3223 95.5724 89.2908 97.3225 89.2542 97.3225Z" fill="#263238"/>
<path d="M90.6165 97.3225C90.5798 97.3225 90.5483 95.5697 90.5483 93.4109C90.5483 91.252 90.5798 89.4966 90.6165 89.4966C90.6531 89.4966 90.6846 91.2494 90.6846 93.4109C90.6846 95.5724 90.6531 97.3225 90.6165 97.3225Z" fill="#263238"/>
<path d="M91.9788 97.3225C91.9421 97.3225 91.9106 95.5697 91.9106 93.4109C91.9106 91.252 91.9421 89.4966 91.9788 89.4966C92.0154 89.4966 92.0469 91.2494 92.0469 93.4109C92.0469 95.5724 92.0181 97.3225 91.9788 97.3225Z" fill="#263238"/>
<path d="M93.344 97.3225C93.3047 97.3225 93.2759 95.5697 93.2759 93.4109C93.2759 91.252 93.3047 89.4966 93.344 89.4966C93.3833 89.4966 93.4121 91.2494 93.4121 93.4109C93.4121 95.5724 93.3807 97.3225 93.344 97.3225Z" fill="#263238"/>
<path d="M94.7063 97.3225C94.667 97.3225 94.6382 95.5697 94.6382 93.4109C94.6382 91.252 94.667 89.4966 94.7063 89.4966C94.7456 89.4966 94.7744 91.2494 94.7744 93.4109C94.7744 95.5724 94.743 97.3225 94.7063 97.3225Z" fill="#263238"/>
<path d="M96.0686 97.3225C96.0319 97.3225 96.0005 95.5697 96.0005 93.4109C96.0005 91.252 96.0319 89.4966 96.0686 89.4966C96.1053 89.4966 96.1367 91.2494 96.1367 93.4109C96.1367 95.5724 96.1053 97.3225 96.0686 97.3225Z" fill="#263238"/>
<path d="M97.4314 97.3225C97.3947 97.3225 97.3633 95.5697 97.3633 93.4109C97.3633 91.252 97.3947 89.4966 97.4314 89.4966C97.4681 89.4966 97.4995 91.2494 97.4995 93.4109C97.4995 95.5724 97.4707 97.3225 97.4314 97.3225Z" fill="#263238"/>
<path d="M98.7937 97.3225C98.757 97.3225 98.7256 95.5697 98.7256 93.4109C98.7256 91.252 98.757 89.4966 98.7937 89.4966C98.8304 89.4966 98.8645 91.2494 98.8645 93.4109C98.8645 95.5724 98.833 97.3225 98.7937 97.3225Z" fill="#263238"/>
<path d="M100.158 97.3225C100.119 97.3225 100.09 95.5697 100.09 93.4109C100.09 91.252 100.119 89.4966 100.158 89.4966C100.198 89.4966 100.227 91.2494 100.227 93.4109C100.227 95.5724 100.195 97.3225 100.158 97.3225Z" fill="#263238"/>
<path d="M101.521 97.3225C101.484 97.3225 101.453 95.5697 101.453 93.4109C101.453 91.252 101.484 89.4966 101.521 89.4966C101.557 89.4966 101.589 91.2494 101.589 93.4109C101.589 95.5724 101.557 97.3225 101.521 97.3225Z" fill="#263238"/>
<path d="M102.884 97.3225C102.847 97.3225 102.815 95.5697 102.815 93.4109C102.815 91.252 102.847 89.4966 102.884 89.4966C102.92 89.4966 102.952 91.2494 102.952 93.4109C102.952 95.5724 102.923 97.3225 102.884 97.3225Z" fill="#263238"/>
<path d="M104.246 97.3225C104.209 97.3225 104.178 95.5697 104.178 93.4109C104.178 91.252 104.209 89.4966 104.246 89.4966C104.283 89.4966 104.314 91.2494 104.314 93.4109C104.314 95.5724 104.285 97.3225 104.246 97.3225Z" fill="#263238"/>
<path d="M102.467 103.658H89.5791V113.978H102.467V103.658Z" fill="white"/>
<path d="M91.7926 106.943L91.4913 106.508H91.1612V106.943H90.7944V105.387H91.4678C91.5903 105.384 91.712 105.408 91.8241 105.458C91.9202 105.498 92.0023 105.565 92.0599 105.652C92.116 105.742 92.1443 105.847 92.1411 105.953C92.1439 106.059 92.1147 106.163 92.0573 106.252C91.9993 106.337 91.9172 106.404 91.8215 106.443L92.1699 106.943H91.7926ZM91.7009 105.751C91.6296 105.7 91.5425 105.675 91.4547 105.68H91.1612V106.223H91.4547C91.5425 106.229 91.6296 106.204 91.7009 106.152C91.7276 106.126 91.7489 106.095 91.7633 106.06C91.7778 106.026 91.7853 105.989 91.7853 105.952C91.7853 105.914 91.7778 105.877 91.7633 105.843C91.7489 105.808 91.7276 105.777 91.7009 105.751Z" fill="#263238"/>
<path d="M92.579 108.017L92.2227 107.506L91.8743 108.017H91.4839L92.0288 107.268L91.5048 106.545H91.8926L92.2306 107.022L92.5633 106.545H92.9328L92.4087 107.255L92.9563 108.017H92.579Z" fill="#263238"/>
<path d="M101.521 105.384H94.1616V106.503H101.521V105.384Z" fill="#E0E0E0"/>
<path d="M100.685 109.28C100.685 109.317 98.5367 109.348 95.8853 109.348C93.2338 109.348 91.0854 109.317 91.0854 109.28C91.0854 109.243 93.2338 109.212 95.8853 109.212C98.5367 109.212 100.685 109.254 100.685 109.28Z" fill="#263238"/>
<path d="M100.685 110.443C100.685 110.482 98.5367 110.511 95.8853 110.511C93.2338 110.511 91.0854 110.482 91.0854 110.443C91.0854 110.404 93.2338 110.375 95.8853 110.375C98.5367 110.375 100.685 110.406 100.685 110.443Z" fill="#263238"/>
<path d="M95.3639 111.902H90.3911V112.861H95.3639V111.902Z" fill="#E0E0E0"/>
<path d="M102.173 113.658C102.173 113.658 102.173 113.595 102.173 113.475C102.173 113.354 102.173 113.176 102.173 112.951C102.173 112.487 102.173 111.819 102.16 110.967C102.16 109.259 102.142 106.828 102.131 103.893L102.186 103.951H89.833C89.8173 103.964 89.9614 103.823 89.9011 103.885V106.484C89.9011 107.339 89.9011 108.177 89.9011 108.994C89.9011 110.632 89.9011 112.193 89.9011 113.648L89.8409 113.587L98.7489 113.619L101.28 113.634H101.956H102.192C102.192 113.634 102.176 113.634 102.137 113.634H101.969H101.306L98.7882 113.65L89.8383 113.682H89.778V113.619C89.778 112.165 89.778 110.603 89.778 108.966C89.778 108.148 89.778 107.31 89.778 106.456V103.857C89.7177 103.914 89.8618 103.77 89.8461 103.786H102.199H102.257V103.844C102.257 106.791 102.233 109.238 102.228 110.954C102.228 111.798 102.215 112.463 102.213 112.924C102.213 113.145 102.213 113.315 102.213 113.448C102.213 113.582 102.173 113.658 102.173 113.658Z" fill="#263238"/>
<path d="M89.2542 122.55C89.2149 122.55 89.186 117.164 89.186 110.519C89.186 103.875 89.2149 98.4883 89.2542 98.4883C89.2935 98.4883 89.3223 103.875 89.3223 110.519C89.3223 117.164 89.2908 122.55 89.2542 122.55Z" fill="white"/>
<path d="M102.48 124.806C102.48 124.843 99.6685 124.875 96.1918 124.875C92.7151 124.875 89.9038 124.843 89.9038 124.806C89.9038 124.77 92.7151 124.738 96.1918 124.738C99.6685 124.738 102.48 124.77 102.48 124.806Z" fill="#263238"/>
<path d="M115.252 125.351H104.877C104.655 125.351 104.441 125.264 104.283 125.107C104.125 124.951 104.036 124.738 104.033 124.516L103.771 96.5366H115.823L116.072 124.5C116.075 124.721 115.991 124.935 115.837 125.094C115.684 125.253 115.474 125.346 115.252 125.351Z" fill="#455A64"/>
<g opacity="0.3">
<path opacity="0.3" d="M113.725 102.741V124.288C113.725 124.288 115.423 124.851 115.507 123.365C115.591 121.88 115.543 102.741 115.543 102.741H113.725Z" fill="white"/>
</g>
<path d="M114.55 95.106H105.074C104.865 95.106 104.665 95.1888 104.518 95.3362C104.37 95.4836 104.288 95.6835 104.288 95.892V96.3609H115.328V95.892C115.328 95.6849 115.247 95.4861 115.101 95.3389C114.955 95.1918 114.757 95.108 114.55 95.106Z" fill="#FAFAFA"/>
<path d="M114.55 95.1061C114.588 95.1009 114.626 95.1009 114.663 95.1061C114.775 95.1156 114.883 95.1515 114.977 95.2109C115.135 95.3069 115.255 95.4539 115.318 95.6275C115.354 95.7382 115.37 95.8544 115.365 95.9707C115.365 96.0938 115.365 96.2327 115.365 96.3585V96.4161H115.331C113.29 96.4371 109.457 96.4502 105.074 96.4502H104.22V96.382C104.22 96.1829 104.22 96.0021 104.22 95.7925C104.25 95.5869 104.354 95.3992 104.513 95.2651C104.672 95.1309 104.874 95.0595 105.082 95.0642H105.637H107.746L111.294 95.0773L113.67 95.0982L114.315 95.1113C114.389 95.11 114.464 95.1144 114.537 95.1244C114.463 95.1301 114.389 95.1301 114.315 95.1244L113.67 95.1375L111.294 95.1585L107.746 95.1742H105.095C104.921 95.17 104.752 95.2286 104.618 95.3393C104.481 95.4516 104.392 95.6118 104.369 95.7873C104.353 95.9602 104.369 96.1672 104.369 96.3585L104.301 96.2903H105.087C109.47 96.2903 113.303 96.3034 115.344 96.3244L115.31 96.3585C115.31 96.2222 115.31 96.0965 115.31 95.9707C115.319 95.8611 115.306 95.7508 115.274 95.6458C115.22 95.4803 115.112 95.338 114.967 95.2423C114.841 95.1648 114.698 95.1181 114.55 95.1061Z" fill="#263238"/>
<path d="M116.424 96.0752H103.206C102.824 96.0752 102.514 96.3849 102.514 96.7669V102.051C102.514 102.433 102.824 102.743 103.206 102.743H116.424C116.806 102.743 117.115 102.433 117.115 102.051V96.7669C117.115 96.3849 116.806 96.0752 116.424 96.0752Z" fill="#FAFAFA"/>
<path d="M116.421 102.74C116.56 102.73 116.694 102.683 116.808 102.604C116.941 102.505 117.034 102.362 117.07 102.201C117.087 102.095 117.091 101.988 117.084 101.881C117.084 101.766 117.084 101.64 117.084 101.511C117.084 100.463 117.07 98.9465 117.063 97.0811C117.063 96.9658 117.063 96.8427 117.063 96.7274C117.056 96.6148 117.018 96.5062 116.955 96.413C116.89 96.3158 116.8 96.2379 116.694 96.1877C116.589 96.1374 116.472 96.1166 116.355 96.1274H114.762H111.251H103.205C103.044 96.128 102.889 96.191 102.772 96.3033C102.656 96.4156 102.588 96.5685 102.582 96.73C102.582 97.0811 102.582 97.4295 102.582 97.778V99.8321C102.582 100.506 102.582 101.167 102.582 101.813C102.568 101.965 102.583 102.119 102.626 102.266C102.682 102.401 102.78 102.513 102.907 102.586C103.039 102.651 103.187 102.679 103.334 102.664H103.8L110.371 102.68L114.801 102.701H116.007H116.318H116.426H116.318H116.007L114.801 102.714L110.371 102.735L103.8 102.751H103.334C103.17 102.78 103.002 102.764 102.846 102.704C102.694 102.617 102.575 102.481 102.508 102.318C102.476 102.235 102.458 102.146 102.456 102.056V101.813C102.456 101.167 102.456 100.506 102.456 99.8321V96.7405C102.463 96.5438 102.547 96.3575 102.688 96.2208C102.83 96.0841 103.019 96.0074 103.216 96.0069H111.262H114.773H116.366C116.499 96.0001 116.633 96.0276 116.753 96.0867C116.873 96.1459 116.976 96.2347 117.052 96.3449C117.123 96.4536 117.164 96.5793 117.17 96.709C117.17 96.8348 117.17 96.9501 117.17 97.068C117.17 98.9334 117.152 100.445 117.146 101.498C117.146 101.627 117.146 101.76 117.146 101.868C117.152 101.977 117.145 102.087 117.125 102.195C117.085 102.367 116.981 102.516 116.835 102.615C116.746 102.675 116.645 102.712 116.539 102.725C116.5 102.737 116.461 102.742 116.421 102.74Z" fill="#263238"/>
<path d="M103.371 102.63C103.334 102.63 103.303 101.213 103.303 99.4627C103.303 97.7125 103.334 96.2925 103.371 96.2925C103.408 96.2925 103.439 97.7099 103.439 99.4627C103.439 101.215 103.397 102.63 103.371 102.63Z" fill="#263238"/>
<path d="M104.463 102.63C104.426 102.63 104.395 101.213 104.395 99.4627C104.395 97.7125 104.426 96.2925 104.463 96.2925C104.5 96.2925 104.531 97.7099 104.531 99.4627C104.531 101.215 104.502 102.63 104.463 102.63Z" fill="#263238"/>
<path d="M105.569 102.63C105.529 102.63 105.5 101.213 105.5 99.4627C105.5 97.7125 105.529 96.2925 105.569 96.2925C105.608 96.2925 105.637 97.7099 105.637 99.4627C105.637 101.215 105.605 102.63 105.569 102.63Z" fill="#263238"/>
<path d="M106.672 102.63C106.635 102.63 106.604 101.213 106.604 99.4627C106.604 97.7125 106.635 96.2925 106.672 96.2925C106.709 96.2925 106.74 97.7099 106.74 99.4627C106.74 101.215 106.711 102.63 106.672 102.63Z" fill="#263238"/>
<path d="M107.778 102.63C107.738 102.63 107.709 101.213 107.709 99.4627C107.709 97.7125 107.738 96.2925 107.778 96.2925C107.817 96.2925 107.846 97.7099 107.846 99.4627C107.846 101.215 107.825 102.63 107.778 102.63Z" fill="#263238"/>
<path d="M108.873 102.63C108.836 102.63 108.805 101.213 108.805 99.4627C108.805 97.7125 108.836 96.2925 108.873 96.2925C108.909 96.2925 108.941 97.7099 108.941 99.4627C108.941 101.215 108.92 102.63 108.873 102.63Z" fill="#263238"/>
<path d="M109.986 102.63C109.947 102.63 109.918 101.213 109.918 99.4627C109.918 97.7125 109.947 96.2925 109.986 96.2925C110.025 96.2925 110.054 97.7099 110.054 99.4627C110.054 101.215 110.023 102.63 109.986 102.63Z" fill="#263238"/>
<path d="M111.089 102.63C111.052 102.63 111.021 101.213 111.021 99.4627C111.021 97.7125 111.052 96.2925 111.089 96.2925C111.126 96.2925 111.157 97.7099 111.157 99.4627C111.157 101.215 111.126 102.63 111.089 102.63Z" fill="#263238"/>
<path d="M112.195 102.63C112.155 102.63 112.124 101.213 112.124 99.4627C112.124 97.7125 112.155 96.2925 112.195 96.2925C112.234 96.2925 112.263 97.7099 112.263 99.4627C112.263 101.215 112.231 102.63 112.195 102.63Z" fill="#263238"/>
<path d="M113.298 102.63C113.261 102.63 113.229 101.213 113.229 99.4627C113.229 97.7125 113.261 96.2925 113.298 96.2925C113.334 96.2925 113.366 97.7099 113.366 99.4627C113.366 101.215 113.326 102.63 113.298 102.63Z" fill="#263238"/>
<path d="M114.401 102.63C114.364 102.63 114.333 101.213 114.333 99.4627C114.333 97.7125 114.364 96.2925 114.401 96.2925C114.438 96.2925 114.469 97.7099 114.469 99.4627C114.469 101.215 114.44 102.63 114.401 102.63Z" fill="#263238"/>
<path d="M115.507 102.63C115.467 102.63 115.438 101.213 115.438 99.4627C115.438 97.7125 115.467 96.2925 115.507 96.2925C115.546 96.2925 115.575 97.7099 115.575 99.4627C115.575 101.215 115.543 102.63 115.507 102.63Z" fill="#263238"/>
<path d="M116.61 102.63C116.573 102.63 116.542 101.213 116.542 99.4627C116.542 97.7125 116.573 96.2925 116.61 96.2925C116.646 96.2925 116.678 97.7099 116.678 99.4627C116.678 101.215 116.649 102.63 116.61 102.63Z" fill="#263238"/>
<path d="M115.169 107.763H104.728V116.124H115.169V107.763Z" fill="white"/>
<path d="M106.515 110.425L106.273 110.074H106.011V110.425H105.729V109.165H106.253C106.352 109.162 106.451 109.181 106.543 109.22C106.621 109.253 106.686 109.309 106.732 109.38C106.776 109.453 106.8 109.536 106.8 109.622C106.8 109.707 106.776 109.791 106.732 109.864C106.685 109.934 106.618 109.988 106.541 110.019L106.824 110.425H106.515ZM106.441 109.458C106.383 109.418 106.313 109.398 106.242 109.403H106.004V109.841H106.253C106.324 109.846 106.394 109.826 106.452 109.783C106.475 109.763 106.493 109.738 106.505 109.71C106.517 109.682 106.522 109.651 106.52 109.621C106.521 109.59 106.515 109.559 106.503 109.531C106.49 109.502 106.471 109.478 106.446 109.458H106.441Z" fill="#263238"/>
<path d="M107.159 111.295L106.871 110.881L106.588 111.295H106.271L106.711 110.687L106.292 110.103H106.606L106.868 110.488L107.13 110.103H107.429L107.039 110.676L107.481 111.295H107.159Z" fill="#263238"/>
<path d="M114.401 109.162H108.44V110.069H114.401V109.162Z" fill="#E0E0E0"/>
<path d="M113.725 112.317C113.725 112.356 111.985 112.385 109.837 112.385C107.688 112.385 105.949 112.356 105.949 112.317C105.949 112.277 107.688 112.249 109.837 112.249C111.985 112.249 113.725 112.28 113.725 112.317Z" fill="#263238"/>
<path d="M113.725 113.262C113.725 113.299 111.985 113.331 109.837 113.331C107.688 113.331 105.949 113.299 105.949 113.262C105.949 113.226 107.688 113.194 109.837 113.194C111.985 113.194 113.725 113.223 113.725 113.262Z" fill="#263238"/>
<path d="M109.415 114.441H105.385V115.217H109.415V114.441Z" fill="#E0E0E0"/>
<path d="M114.93 115.867C114.93 115.867 114.93 115.812 114.93 115.715C114.93 115.618 114.93 115.469 114.93 115.291C114.93 114.911 114.93 114.368 114.917 113.682C114.917 112.296 114.899 110.328 114.888 107.955L114.943 108.012H104.937L105.005 107.944V108.992C105.005 109.346 105.005 109.694 105.005 110.04V112.073C105.005 113.399 105.005 114.662 105.005 115.843L104.945 115.781L112.158 115.812L114.212 115.828H114.76H114.901H114.951H114.773H114.249L112.208 115.843L104.956 115.875H104.893V115.815C104.893 114.633 104.893 113.37 104.893 112.044V107.905C104.832 107.965 104.977 107.821 104.963 107.837H114.969H115.027V107.944C115.027 110.331 115.003 112.314 114.998 113.708C114.998 114.389 114.985 114.926 114.982 115.301C114.982 115.477 114.982 115.615 114.982 115.718C114.969 115.769 114.952 115.819 114.93 115.867Z" fill="#263238"/>
<path d="M104.463 123.069C104.426 123.069 104.395 118.705 104.395 113.323C104.395 107.942 104.426 103.577 104.463 103.577C104.5 103.577 104.531 107.939 104.531 113.323C104.531 118.707 104.502 123.069 104.463 123.069Z" fill="white"/>
<path d="M115.179 124.895C115.179 124.935 112.899 124.963 110.091 124.963C107.282 124.963 105.005 124.935 105.005 124.895C105.005 124.856 107.282 124.827 110.091 124.827C112.899 124.827 115.179 124.859 115.179 124.895Z" fill="#263238"/>
<path d="M31.4019 114.161L29.6649 120.331C29.6649 120.331 35.2009 124.214 34.9887 125.385L23.1987 122.354L25.5227 112.628L31.4019 114.161Z" fill="#455A64"/>
<path d="M26.1433 118.872C26.0198 118.88 25.9038 118.933 25.8172 119.022C25.7307 119.11 25.6798 119.228 25.6743 119.351C25.6748 119.475 25.7226 119.594 25.8078 119.683C25.893 119.773 26.0093 119.827 26.1328 119.833C26.2641 119.826 26.3878 119.77 26.4795 119.676C26.5713 119.582 26.6243 119.456 26.628 119.325C26.6044 119.076 26.3346 118.817 26.104 118.877" fill="#E0E0E0"/>
<g opacity="0.6">
<path opacity="0.6" d="M23.1987 122.354L23.4607 121.385L34.6691 124.647C34.6691 124.647 35.1381 125.013 34.9861 125.378L23.1987 122.354Z" fill="white"/>
</g>
<path d="M29.8719 120.318C29.8535 120.378 29.5601 120.318 29.23 120.447C28.8998 120.575 28.6876 120.774 28.6405 120.737C28.5933 120.701 28.7636 120.381 29.1645 120.247C29.5653 120.114 29.8955 120.258 29.8719 120.318Z" fill="#263238"/>
<path d="M30.9802 121.159C30.9802 121.222 30.7182 121.256 30.4562 121.458C30.1942 121.66 30.0789 121.906 30.0213 121.888C29.9637 121.869 30.0213 121.529 30.3331 121.288C30.6449 121.047 30.9933 121.104 30.9802 121.159Z" fill="#263238"/>
<path d="M31.3206 122.857C31.2655 122.857 31.2577 122.543 31.483 122.257C31.7083 121.971 32.007 121.911 32.0227 121.966C32.0384 122.021 31.8262 122.152 31.6428 122.391C31.4594 122.629 31.3703 122.878 31.3206 122.857Z" fill="#263238"/>
<path d="M30.1152 118.869C30.0759 118.916 29.8323 118.767 29.5022 118.707C29.172 118.647 28.8917 118.686 28.8734 118.626C28.855 118.565 29.1511 118.421 29.5388 118.497C29.9266 118.573 30.1545 118.83 30.1152 118.869Z" fill="#263238"/>
<path d="M27.2674 115.615L27.0054 122.029C27.0054 122.029 33.2934 124.468 33.3406 125.66L21.1812 125.563L21.2074 115.55L27.2674 115.615Z" fill="#455A64"/>
<path d="M23.2381 121.46C23.1196 121.497 23.0188 121.576 22.9547 121.683C22.8905 121.789 22.8673 121.915 22.8896 122.037C22.9172 122.157 22.9907 122.262 23.0944 122.329C23.1982 122.396 23.324 122.42 23.445 122.396C23.5707 122.356 23.6775 122.272 23.7452 122.159C23.8128 122.046 23.8365 121.912 23.8118 121.783C23.77 121.662 23.6824 121.562 23.5678 121.504C23.4532 121.447 23.3207 121.437 23.1988 121.476" fill="#E0E0E0"/>
<g opacity="0.6">
<path opacity="0.6" d="M21.1685 125.563L21.2104 124.555L32.8537 125.024C32.8537 125.024 33.3934 125.27 33.3279 125.66L21.1685 125.563Z" fill="white"/>
</g>
<path d="M27.1913 121.969C27.1913 122.029 26.8926 122.055 26.5966 122.246C26.3005 122.438 26.1459 122.694 26.0909 122.671C26.0359 122.647 26.1276 122.296 26.4892 122.068C26.8507 121.84 27.2044 121.911 27.1913 121.969Z" fill="#263238"/>
<path d="M28.4624 122.519C28.4624 122.577 28.2187 122.679 28.0144 122.936C27.81 123.192 27.7524 123.46 27.6921 123.46C27.6319 123.46 27.5978 123.111 27.8572 122.799C28.1166 122.488 28.4624 122.461 28.4624 122.519Z" fill="#263238"/>
<path d="M29.175 124.088C29.12 124.101 29.0414 123.797 29.196 123.464C29.3505 123.132 29.6283 123.001 29.6545 123.053C29.6807 123.106 29.5051 123.281 29.3925 123.554C29.2798 123.826 29.2248 124.083 29.175 124.088Z" fill="#263238"/>
<path d="M27.0945 120.499C27.0709 120.554 26.7984 120.467 26.4631 120.499C26.1277 120.53 25.8631 120.627 25.8343 120.575C25.8055 120.522 26.057 120.313 26.4526 120.287C26.8482 120.26 27.1286 120.452 27.0945 120.499Z" fill="#263238"/>
<path d="M19.7455 68.6729V73.7452L21.0739 93.5052C21.0739 93.5052 20.2459 103.092 19.7377 108.505C19.2975 113.202 20.018 121.387 20.018 121.387H27.7575L30.5347 94.0947L32.2534 77.0647L35.2507 69.3252L19.7455 68.6729Z" fill="#263238"/>
<path d="M40.1268 69.5557L38.6438 97.1259L30.8153 117.769L30.4537 119.011L25.832 117.866L29.2695 69.0186L40.1268 69.5557Z" fill="#263238"/>
<path d="M32.2272 77.2744C32.23 77.3128 32.23 77.3513 32.2272 77.3897C32.2272 77.4735 32.2272 77.5836 32.2272 77.7251C32.2272 78.029 32.2062 78.4639 32.1879 79.0193C32.1564 80.1407 32.0778 81.7625 31.9678 83.7668C31.7346 87.7754 31.2997 93.3062 30.6185 99.3951C29.9373 105.484 29.2116 110.981 28.6718 114.958C28.4098 116.939 28.1767 118.545 28.0221 119.674C27.9435 120.224 27.8806 120.654 27.8387 120.952C27.8151 121.094 27.7994 121.214 27.7863 121.285C27.7819 121.323 27.774 121.361 27.7627 121.398V121.283C27.7627 121.201 27.7863 121.091 27.802 120.95C27.8387 120.649 27.8911 120.219 27.9592 119.666C28.1007 118.547 28.3077 116.939 28.5644 114.95C29.0884 110.97 29.7984 105.473 30.4692 99.3846C31.1399 93.2957 31.5984 87.7754 31.8578 83.7694C31.9809 81.7677 32.0752 80.1459 32.1198 79.0246C32.1486 78.4691 32.1695 78.0368 32.1853 77.7329C32.1853 77.5914 32.201 77.4709 32.2062 77.3976C32.2087 77.3559 32.2157 77.3146 32.2272 77.2744Z" fill="#455A64"/>
<path d="M32.7172 70.3784C32.7152 70.4567 32.6901 70.5327 32.6451 70.5968C32.6001 70.6609 32.5372 70.7103 32.4643 70.7388C32.3914 70.7673 32.3116 70.7738 32.2351 70.7572C32.1585 70.7407 32.0886 70.702 32.0339 70.6459C31.9793 70.5898 31.9424 70.5188 31.9278 70.4419C31.9133 70.3649 31.9218 70.2854 31.9522 70.2132C31.9826 70.1411 32.0336 70.0795 32.0989 70.0362C32.1641 69.9929 32.2407 69.9698 32.319 69.9697C32.3721 69.9701 32.4246 69.9809 32.4734 70.0017C32.5223 70.0225 32.5665 70.0528 32.6036 70.0908C32.6406 70.1289 32.6697 70.1739 32.6893 70.2232C32.7088 70.2726 32.7183 70.3254 32.7172 70.3784Z" fill="#455A64"/>
<path d="M39.5212 74.2297C39.3152 74.0823 39.1317 73.9058 38.9763 73.7057C38.576 73.2324 38.2476 72.7027 38.0016 72.1337C37.7541 71.5656 37.59 70.9646 37.5143 70.3495C37.4705 70.0968 37.4643 69.839 37.496 69.5845C37.5196 69.5845 37.5353 69.8753 37.6139 70.3364C37.7196 70.934 37.8955 71.5171 38.1379 72.0735C38.3816 72.6261 38.6903 73.1476 39.0575 73.6271C39.3352 74.0044 39.537 74.2114 39.5212 74.2297Z" fill="#455A64"/>
<path d="M38.5967 43.8008C38.5967 43.8008 40.077 44.3824 40.7634 46.5518C41.2403 48.0609 43.4725 59.2955 43.4725 59.2955L40.3599 61.3469L39.0945 50.8276L38.5967 43.8008Z" fill="#E0E0E0"/>
<path d="M26.759 38.4351L25.7844 40.1643C25.7844 40.1643 19.2684 43.4759 19.292 43.8008C19.292 43.8008 19.6562 56.162 19.7243 65.2298C19.7505 68.6542 19.6248 71.8008 19.5566 73.3125C19.3759 77.2818 19.2344 92.7005 19.2344 92.7005L42.8144 92.1425L38.5962 43.8008L35.2688 42.3467L34.8443 41.4795L33.3169 40.2376L26.759 38.4351Z" fill="#E0E0E0"/>
<path d="M37.0846 92.2714C37.0881 92.2365 37.0881 92.2014 37.0846 92.1666C37.0846 92.0906 37.0845 91.9884 37.0714 91.86C37.0557 91.5797 37.0348 91.1814 37.0059 90.6732C36.9457 89.6383 36.8566 88.1501 36.7439 86.3187C36.5212 82.635 36.22 77.5574 35.8767 71.948C35.5335 66.3386 35.261 61.261 35.0488 57.5747C34.9519 55.7407 34.8707 54.2552 34.8156 53.2176C34.7868 52.7094 34.7659 52.3138 34.7501 52.0334C34.7501 51.905 34.7344 51.8028 34.7292 51.7269C34.7272 51.6917 34.7228 51.6567 34.7161 51.6221C34.7131 51.6569 34.7131 51.692 34.7161 51.7269C34.7161 51.8028 34.7161 51.905 34.7161 52.036C34.7161 52.3138 34.737 52.712 34.7554 53.2203C34.7921 54.2499 34.8576 55.7407 34.944 57.58C35.1169 61.248 35.3947 66.3438 35.73 71.9585C36.0654 77.5732 36.3903 82.6481 36.6392 86.324C36.7649 88.158 36.8697 89.6409 36.9404 90.6784C36.9797 91.1841 37.0112 91.5823 37.0322 91.86L37.0583 92.1692C37.0632 92.2041 37.072 92.2384 37.0846 92.2714Z" fill="#263238"/>
<path d="M33.3171 40.2379L33.8647 44.0238L34.8446 51.6218L30.574 44.2911L26.8667 39.4336L32.9765 43.7147L33.0525 40.1672" fill="#407BFF"/>
<path d="M25.7559 40.395C25.7856 40.4972 25.8251 40.5964 25.8738 40.6911C25.9655 40.8981 26.086 41.1732 26.2379 41.5111L27.5637 44.3931L27.5794 44.4298H27.6213H28.5121L28.4702 44.3093L27.8152 44.8464L27.7549 44.8962L27.8099 44.9512L29.0518 46.1669L33.0473 50.0419L34.2682 51.2025L34.6062 51.5143C34.6431 51.5531 34.6844 51.5874 34.7294 51.6165C34.7005 51.5706 34.6652 51.5291 34.6246 51.4933L34.3075 51.1632L33.1154 49.9685L29.1514 46.0647C28.7243 45.6455 28.3051 45.2394 27.9069 44.8516V44.9538L28.5593 44.4141L28.7034 44.2936H28.5147H27.6239L27.6816 44.3303C27.1235 43.167 26.6519 42.1819 26.3087 41.4692C26.1436 41.1365 26.0126 40.8666 25.9131 40.6649C25.8678 40.571 25.8152 40.4807 25.7559 40.395Z" fill="#263238"/>
<path d="M34.8444 51.6142C34.8851 51.4594 34.914 51.3018 34.9309 51.1426C34.978 50.8151 35.0383 50.3802 35.1117 49.8536C35.2584 48.7637 35.4523 47.2572 35.6566 45.5935L35.8453 44.0424V43.9822L35.785 43.9665L34.7134 43.7045V43.8302L35.7876 43.639L35.861 43.6259L35.8295 43.5604L35.1221 42.0224C35.0409 41.8574 34.9754 41.7185 34.9204 41.6058C34.9009 41.5547 34.8735 41.507 34.8392 41.4644C34.8501 41.5179 34.8677 41.5698 34.8916 41.6189C34.9387 41.7342 34.9964 41.8809 35.0645 42.0486C35.2322 42.4416 35.4575 42.9682 35.7274 43.6049L35.7693 43.5289L34.6925 43.7045L34.3833 43.7542L34.6872 43.8302L35.7562 44.0922L35.7038 44.0189C35.6409 44.5114 35.578 45.0328 35.5099 45.5673C35.3055 47.2336 35.1274 48.7401 35.0069 49.8326C34.9518 50.3566 34.9047 50.7994 34.8706 51.1426C34.8497 51.2989 34.8409 51.4566 34.8444 51.6142Z" fill="#263238"/>
<path d="M31.2001 71.843H31.0482L30.5949 71.8718L28.8552 71.9976L22.6249 72.477H22.562V72.5399C22.6616 73.7111 22.7716 74.9844 22.8869 76.3258C22.9445 77 23.0039 77.6891 23.0651 78.393C23.0965 78.7467 23.1253 79.1004 23.1568 79.4593C23.1677 79.6451 23.1967 79.8294 23.2432 80.0095C23.2985 80.1956 23.3815 80.3722 23.4895 80.5335C23.8421 81.0095 24.3685 81.3269 24.9541 81.4165C25.505 81.4848 26.0601 81.5145 26.6152 81.5056C27.663 81.5084 28.7079 81.3942 29.7303 81.165C29.9728 81.1063 30.2103 81.0283 30.4403 80.9318C30.555 80.8854 30.6654 80.8293 30.7705 80.7641C30.8237 80.7285 30.8737 80.6881 30.9198 80.6436C30.9621 80.5972 31.0015 80.5482 31.0377 80.4969C31.261 80.0859 31.3992 79.6341 31.4438 79.1685C31.547 78.351 31.5881 77.5268 31.5669 76.7031C31.5434 75.194 31.4359 73.9783 31.3547 73.1399C31.3154 72.7207 31.2761 72.3984 31.2473 72.1784C31.2473 72.0736 31.2211 71.9923 31.2132 71.9164C31.2118 71.8876 31.2056 71.8593 31.1949 71.8325C31.1949 71.8325 31.1949 71.8613 31.1949 71.919C31.1949 71.9766 31.1949 72.0657 31.2159 72.181C31.2368 72.4115 31.263 72.7338 31.2971 73.1451C31.3626 73.9835 31.4543 75.1992 31.4648 76.7031C31.4767 77.5211 31.4303 78.3388 31.3259 79.1502C31.2796 79.5974 31.1451 80.0311 30.9303 80.4261C30.7949 80.6105 30.6039 80.7464 30.3853 80.8139C30.162 80.9065 29.9316 80.981 29.6963 81.0366C28.6837 81.2599 27.6495 81.3707 26.6125 81.3667C26.0662 81.3749 25.5199 81.3451 24.9777 81.2776C24.4284 81.1942 23.9343 80.8976 23.6022 80.4523C23.5057 80.3062 23.4299 80.1475 23.3768 79.9807C23.3335 79.809 23.3063 79.6335 23.2956 79.4567C23.2642 79.0978 23.2327 78.7415 23.2039 78.3878C23.141 77.6856 23.0808 76.9939 23.0205 76.3232C22.9 74.9791 22.7873 73.7032 22.6825 72.5373L22.6275 72.6054L28.8133 72.0657L30.5635 71.9059L31.0298 71.8613C31.087 71.8592 31.1439 71.8531 31.2001 71.843Z" fill="#263238"/>
<g opacity="0.3">
<path opacity="0.3" d="M23.2564 79.8418C23.9219 81.5762 25.6589 81.6758 27.5296 81.4138C29.2876 81.1518 30.9801 80.7876 31.1111 80.2846C31.064 81.2042 30.388 81.909 29.5391 82.2784C28.6772 82.6078 27.7519 82.7377 26.8327 82.6583C25.8711 82.6138 25.0406 82.6583 24.2467 82.1107C23.4529 81.5631 23.2538 80.633 23.2564 79.8418Z" fill="black"/>
</g>
<path d="M41.0906 72.3801C41.0883 72.3584 41.0883 72.3364 41.0906 72.3146L41.067 72.126C41.0496 71.9513 41.0234 71.7077 40.9884 71.395C40.9256 70.7453 40.8365 69.823 40.7264 68.7017C40.5116 66.4275 40.2234 63.2835 39.9195 59.812C39.6156 56.3405 39.3536 53.1939 39.178 50.904C39.0916 49.7643 39.0287 48.842 38.992 48.2054C38.971 47.8857 38.9632 47.6395 38.9579 47.4692C38.9579 47.3932 38.9579 47.3303 38.9579 47.2779C38.9541 47.2562 38.9541 47.2341 38.9579 47.2124C39.0208 47.9512 39.4584 52.9581 40.0557 59.7884C40.3544 63.2573 40.6269 66.3961 40.8234 68.6833C40.9151 69.8125 40.9911 70.7295 41.0435 71.3793C41.067 71.6885 41.0854 71.9347 41.0985 72.1129C41.0985 72.1889 41.0985 72.2518 41.0985 72.3042C41.0996 72.3297 41.0969 72.3553 41.0906 72.3801Z" fill="#263238"/>
<path d="M44.5073 59.5447C44.6079 59.9076 44.6451 60.2852 44.6173 60.6608C44.5623 61.2346 44.5361 62.6441 43.0087 63.1262C41.4812 63.6083 40.7398 63.1472 40.2708 62.5L40.0376 59.6966L41.6725 58.6172L44.5073 59.5447Z" fill="#E0E0E0"/>
<g opacity="0.3">
<path opacity="0.3" d="M31.7449 61.3472C31.7449 61.3472 27.8385 65.2064 24.8045 65.7619C21.7705 66.3173 20.6859 65.2379 19.8789 62.5209L31.7449 61.3472Z" fill="black"/>
</g>
<path d="M19.363 43.707C19.363 43.707 16.8819 46.0074 17.5893 51.4544C18.2443 56.5162 19.4233 63.564 20.9638 64.3841C22.5044 65.2041 25.8711 64.7928 28.326 63.4016C30.781 62.0103 37.8943 58.248 37.8943 58.248L34.9494 53.008L25.4624 56.676C25.4624 56.676 24.2362 48.292 23.5 46.8353" fill="#E0E0E0"/>
<path d="M23.4607 46.7378C23.4607 46.7378 23.4869 46.7928 23.534 46.9002C23.555 46.9526 23.5864 47.0181 23.6179 47.0994C23.6493 47.1806 23.6755 47.2801 23.7122 47.3876C23.851 47.8225 24.0161 48.4749 24.1969 49.3237C24.5637 51.0189 25.0065 53.4922 25.4728 56.5733L25.4047 56.5314L34.8865 52.8372L34.9389 52.8162L34.9677 52.866C35.8978 54.5218 36.8881 56.272 37.9152 58.106L37.9493 58.1689L37.8864 58.2029L31.8027 61.4805L28.8186 63.0866C28.3286 63.3486 27.8413 63.6237 27.3356 63.8412C26.8311 64.0544 26.3129 64.2338 25.7846 64.3783C24.7555 64.6665 23.6874 64.7903 22.6196 64.7451C22.0992 64.7219 21.5863 64.6112 21.1027 64.4176L20.9245 64.339C20.8669 64.3101 20.8118 64.2682 20.7542 64.2315C20.6568 64.149 20.569 64.0558 20.4922 63.9538C20.3363 63.7528 20.2019 63.5359 20.0913 63.3067C19.6826 62.4256 19.3631 61.5057 19.1377 60.5609C18.8992 59.6518 18.7106 58.7584 18.5403 57.8911C18.2049 56.1593 17.956 54.5349 17.7543 53.0494C17.5526 51.5638 17.3613 50.2119 17.4163 49.0146C17.4422 47.9912 17.6242 46.9778 17.956 46.0094C18.1711 45.3994 18.4738 44.824 18.8547 44.3012C18.9547 44.1661 19.0633 44.0375 19.1796 43.9161C19.2193 43.8753 19.2613 43.8368 19.3053 43.8008L19.1901 43.9265C19.079 44.0508 18.9749 44.1812 18.8783 44.3169C18.5094 44.8435 18.2166 45.4195 18.0084 46.0278C17.6834 46.992 17.5067 47.9999 17.4844 49.0172C17.4373 50.2067 17.6259 51.5507 17.8408 53.0337C18.0556 54.5166 18.3097 56.141 18.6503 57.8702C18.8206 58.7322 19.0119 59.623 19.2529 60.5295C19.4773 61.4651 19.7941 62.3761 20.1988 63.249C20.3046 63.4681 20.4318 63.6761 20.5787 63.87C20.6561 63.9667 20.7439 64.0546 20.8407 64.132C20.889 64.1662 20.9398 64.1968 20.9926 64.2237L21.1603 64.2997C21.6321 64.4842 22.1317 64.5878 22.638 64.6062C23.6908 64.6493 24.7438 64.5264 25.7584 64.242C26.2791 64.1003 26.7902 63.9253 27.2885 63.718C27.7915 63.5006 28.2684 63.2307 28.7609 62.9687L31.7451 61.36L37.8314 58.085L37.8025 58.1793L34.8629 52.9393L34.9441 52.9682L25.4519 56.6362L25.3916 56.6597V56.5969C24.9383 53.5184 24.5113 51.0425 24.1628 49.3447C23.9925 48.4958 23.8353 47.8408 23.7043 47.4059C23.6729 47.2985 23.6441 47.2015 23.6179 47.1177L23.5419 46.916C23.4895 46.7954 23.4607 46.7378 23.4607 46.7378Z" fill="#263238"/>
<path d="M26.8666 53.0156H31.5747V51.4489H26.8666V53.0156Z" fill="white"/>
<path d="M27.8413 52.1382C28.327 52.0676 28.8183 52.0439 29.3085 52.0674C29.7996 52.0438 30.2918 52.0675 30.7783 52.1382C30.2915 52.2055 29.7995 52.2283 29.3085 52.2063C28.8184 52.2283 28.3273 52.2054 27.8413 52.1382Z" fill="#263238"/>
<g opacity="0.3">
<path opacity="0.3" d="M34.6061 51.5196L27.6762 45.8971L27.8412 45.4072H27.2386L26.2378 41.5112L27.6788 44.3408L28.512 44.3015L27.9067 44.857L34.6061 51.5196Z" fill="black"/>
</g>
<path d="M26.0468 45.1108L26.3088 45.006C26.3088 44.9929 25.7402 43.6384 25.1822 42.2026C24.9817 41.7615 24.9004 41.2755 24.9464 40.7931C24.9778 40.6413 25.0617 40.5055 25.1835 40.4097C25.3053 40.3138 25.457 40.264 25.6118 40.2691L25.7952 40.1721L25.8896 40.0045C25.4049 39.8997 24.7551 40.3058 24.6765 40.7538C24.6254 41.2866 24.7158 41.8234 24.9385 42.3101C25.4756 43.7537 26.0389 45.0977 26.0468 45.1108Z" fill="#455A64"/>
<path d="M25.638 48.276L25.9864 48.1398C25.7009 47.4036 25.3105 46.1014 25.4782 45.7346C25.5608 45.6037 25.6704 45.4918 25.7996 45.4065C25.9288 45.3211 26.0746 45.2642 26.2275 45.2394C26.4146 45.19 26.6107 45.1846 26.8002 45.2237C26.9898 45.2628 27.1677 45.3453 27.32 45.4648C27.7183 45.8027 28.3209 46.9922 28.52 47.4245L28.858 47.2673C28.8291 47.2018 28.106 45.6377 27.5611 45.1713C27.365 45.0144 27.135 44.9053 26.8895 44.8525C26.6439 44.7998 26.3895 44.8049 26.1463 44.8674C25.9351 44.904 25.735 44.9878 25.5608 45.1125C25.3866 45.2373 25.2428 45.3998 25.1402 45.5879C24.8572 46.1957 25.5044 47.9459 25.638 48.276Z" fill="#455A64"/>
<path d="M29.4001 53.9564C29.8298 53.9564 30.2542 53.7259 30.6603 53.27L30.5188 53.1442C30.0734 53.6499 29.6123 53.849 29.1564 53.7416C27.2936 53.304 25.8736 48.1295 25.8605 48.0771L25.6797 48.1243C25.7399 48.3418 27.1416 53.4612 29.1119 53.9224C29.2062 53.9453 29.303 53.9568 29.4001 53.9564Z" fill="#263238"/>
<path d="M30.3015 53.4821C30.3394 53.52 30.3896 53.543 30.443 53.5468C30.4964 53.5507 30.5494 53.5352 30.5923 53.5031L30.9958 53.2018C31.0259 53.183 31.0519 53.1582 31.0721 53.129C31.0924 53.0999 31.1065 53.0669 31.1136 53.0321C31.1207 52.9973 31.1207 52.9614 31.1135 52.9266C31.1063 52.8918 31.0921 52.8589 31.0718 52.8298C31.0504 52.7962 31.0216 52.7679 30.9876 52.7471C30.9537 52.7263 30.9154 52.7135 30.8757 52.7097C30.8361 52.7059 30.796 52.7112 30.7587 52.7252C30.7214 52.7392 30.6878 52.7615 30.6604 52.7905L30.2963 53.1677C30.2554 53.2102 30.2329 53.2671 30.2339 53.326C30.2349 53.385 30.2592 53.4411 30.3015 53.4821Z" fill="#263238"/>
<path d="M28.6087 54.1267C28.8511 54.1452 29.0943 54.103 29.3162 54.0037C29.5381 53.9044 29.7317 53.7512 29.8794 53.5581C31.0244 51.9521 28.8655 47.4928 28.7738 47.3042L28.6061 47.3854C28.6271 47.4326 30.8095 51.9337 29.7275 53.4507C29.4445 53.8463 28.9415 54.0035 28.255 53.9171L28.2314 54.1005C28.3565 54.1179 28.4825 54.1266 28.6087 54.1267Z" fill="#263238"/>
<path d="M28.6431 54.0241C28.6395 54.0774 28.6169 54.1276 28.5794 54.1656C28.5419 54.2036 28.4919 54.2268 28.4387 54.2311L27.9357 54.273C27.9008 54.2786 27.8652 54.277 27.831 54.2684C27.7968 54.2599 27.7646 54.2445 27.7365 54.2232C27.7084 54.2019 27.6848 54.1752 27.6673 54.1446C27.6497 54.1139 27.6385 54.0801 27.6344 54.0451C27.6279 54.0057 27.6304 53.9654 27.6418 53.9272C27.6532 53.889 27.6732 53.8539 27.7003 53.8246C27.7273 53.7953 27.7607 53.7725 27.7978 53.7581C27.835 53.7436 27.875 53.7378 27.9147 53.7411L28.4387 53.7857C28.4971 53.791 28.5511 53.8189 28.5893 53.8634C28.6274 53.908 28.6467 53.9656 28.6431 54.0241Z" fill="#263238"/>
<path d="M37.6088 48.5535C38.3439 48.5535 38.9398 47.9576 38.9398 47.2226C38.9398 46.4875 38.3439 45.8916 37.6088 45.8916C36.8737 45.8916 36.2778 46.4875 36.2778 47.2226C36.2778 47.9576 36.8737 48.5535 37.6088 48.5535Z" fill="#263238"/>
<path d="M37.6088 48.5535C38.3439 48.5535 38.9398 47.9576 38.9398 47.2226C38.9398 46.4875 38.3439 45.8916 37.6088 45.8916C36.8737 45.8916 36.2778 46.4875 36.2778 47.2226C36.2778 47.9576 36.8737 48.5535 37.6088 48.5535Z" fill="#263238"/>
<path d="M36.626 47.2227C36.6255 47.4178 36.6829 47.6086 36.7909 47.771C36.899 47.9334 37.0528 48.0601 37.2329 48.135C37.413 48.2099 37.6113 48.2296 37.8026 48.1917C37.994 48.1537 38.1698 48.0599 38.3077 47.9219C38.4456 47.784 38.5395 47.6082 38.5774 47.4169C38.6153 47.2256 38.5956 47.0273 38.5207 46.8472C38.4458 46.667 38.3192 46.5132 38.1568 46.4052C37.9944 46.2971 37.8035 46.2397 37.6085 46.2402C37.3479 46.2402 37.098 46.3437 36.9137 46.528C36.7295 46.7123 36.626 46.9622 36.626 47.2227Z" fill="#E0E0E0"/>
<path d="M34.7842 41.4248C34.9099 41.6055 36.3012 44.5426 37.061 46.0229L37.2836 45.9076C37.171 45.6901 35.1483 41.5165 34.9911 41.2833L33.5187 40.0859L33.4663 40.3663L34.7842 41.4248Z" fill="#455A64"/>
<path d="M34.2262 47.1916C35.1904 48.1531 37.6322 50.6552 37.6322 50.6552L38.2846 50.2622L34.8471 46.5942C34.7774 46.5199 34.6835 46.4728 34.5823 46.4612C34.481 46.4497 34.3789 46.4746 34.2943 46.5314C34.2414 46.5664 34.1969 46.6128 34.1641 46.6671C34.1312 46.7214 34.1108 46.7823 34.1043 46.8454C34.0978 46.9085 34.1054 46.9723 34.1264 47.0322C34.1475 47.092 34.1816 47.1465 34.2262 47.1916Z" fill="#263238"/>
<path d="M34.9204 52.9005L35.7405 50.5897C35.8256 50.3404 35.9838 50.1225 36.1946 49.9645C36.4054 49.8066 36.6589 49.7158 36.9221 49.7041H37.0452C37.5378 49.7591 40.0451 49.9242 40.0451 49.9242L41.0145 51.0115C41.0943 51.1019 41.1383 51.2184 41.1383 51.339C41.1383 51.4596 41.0943 51.576 41.0145 51.6665L41.2949 53.6315L40.7525 54.0088L40.8075 55.3816C40.8075 55.3816 40.3176 55.7065 40.1001 55.5991L39.8801 55.4891L39.5552 55.1616L38.6277 56.4716L37.3465 57.213L34.9204 52.9005Z" fill="#AE7461"/>
<path d="M41.0303 51.7762C40.9207 51.6428 40.8035 51.516 40.6792 51.3963C40.5397 51.2765 40.3812 51.1809 40.2102 51.1133C39.9876 51.0607 39.7603 51.03 39.5316 51.0216C38.9297 50.9885 38.3314 50.9079 37.7422 50.7806C38.3447 50.7663 38.9475 50.7995 39.5447 50.8801C39.785 50.888 40.0234 50.925 40.2548 50.9902C40.4384 51.068 40.6056 51.18 40.7473 51.3203C40.8893 51.4369 40.9888 51.5972 41.0303 51.7762Z" fill="#AE7461"/>
<path d="M40.9754 53.5815C40.9193 53.4104 40.8519 53.2432 40.7736 53.0811C40.5499 52.71 40.2087 52.4242 39.8042 52.2689C39.3926 52.1207 38.9579 52.0471 38.5204 52.0514C38.3369 52.0639 38.1527 52.0587 37.9702 52.0357C38.1475 51.9766 38.3336 51.9482 38.5204 51.9519C38.9738 51.9168 39.4294 51.9793 39.8566 52.1353C40.2913 52.3006 40.6496 52.6206 40.8627 53.0339C40.961 53.1985 41.0007 53.3915 40.9754 53.5815Z" fill="#AE7461"/>
<path d="M40.7291 55.2664C40.6384 55.1013 40.5932 54.915 40.5981 54.7267C40.5875 54.5336 40.5459 54.3434 40.475 54.1634C40.4266 54.0602 40.3534 53.9705 40.262 53.9024C40.1706 53.8343 40.0637 53.7899 39.951 53.773C39.5191 53.6805 39.0814 53.6175 38.641 53.5844C38.4539 53.5769 38.2699 53.5342 38.0986 53.4586C38.2833 53.4542 38.468 53.463 38.6515 53.4848C39.0999 53.4884 39.5469 53.5385 39.985 53.6342C40.117 53.667 40.2416 53.7248 40.3518 53.8045C40.4543 53.8846 40.5339 53.9903 40.5824 54.111C40.654 54.3055 40.6886 54.5116 40.6846 54.7188C40.6977 55.0594 40.7527 55.2586 40.7291 55.2664Z" fill="#AE7461"/>
<path d="M42.0966 50.9326L31.2812 62.1017L31.6978 62.5235L39.4452 61.651L49.8701 51.7186L49.8597 51.2418L42.0966 50.9326Z" fill="#455A64"/>
<g opacity="0.3">
<path opacity="0.3" d="M44.1217 56.1413C43.8669 55.9089 43.5662 55.7324 43.2391 55.6232C42.9119 55.514 42.5655 55.4745 42.2222 55.5073C41.5344 55.5777 40.8832 55.8514 40.3515 56.2933C39.9012 56.6231 39.5732 57.0931 39.4188 57.6295C39.1987 58.5674 39.9716 59.88 40.8231 60.3359C41.9026 59.4687 42.9532 58.1377 44.0326 57.2731C44.2077 57.1598 44.3397 56.991 44.4073 56.7937C44.4164 56.6699 44.3951 56.5458 44.3453 56.4321C44.2956 56.3184 44.2188 56.2186 44.1217 56.1413Z" fill="black"/>
</g>
<path d="M49.8282 51.6977C49.7811 51.701 49.7338 51.701 49.6867 51.6977H49.2728L47.7217 51.6794L42.3245 51.5851L42.3743 51.5641L39.6652 54.3754L34.0453 60.1577L32.3318 61.8974L31.8602 62.3664C31.807 62.4225 31.7501 62.475 31.6899 62.5236C31.7361 62.463 31.7879 62.4068 31.8445 62.3559L32.2978 61.8686L33.9798 60.0974C35.4182 58.6014 37.3858 56.55 39.5683 54.2863C40.5246 53.2959 41.4442 52.3475 42.2826 51.4829L42.3036 51.4619H42.3245L47.7139 51.6165L49.2623 51.6715L49.6762 51.6925C49.7269 51.6886 49.7779 51.6904 49.8282 51.6977Z" fill="#263238"/>
<path d="M43.0584 54.9727C43.0584 54.9727 44.1064 54.9936 44.4496 55.1639C44.7928 55.3342 45.7308 56.3298 45.7308 56.3298C45.7308 56.3298 45.7308 57.011 45.4688 57.0372C45.5023 57.1896 45.5207 57.3449 45.5238 57.501C45.55 57.8835 45.605 58.1009 45.0863 58.4284C45.0863 58.4284 45.1413 59.0546 44.95 59.2144C44.8207 59.3231 44.6842 59.4229 44.5413 59.5131C44.5413 59.5131 44.5125 60.2022 43.5876 60.1943L42.7204 60.5768C42.7204 60.5768 40.7921 60.3961 40.9964 60.1681C41.2008 59.9402 41.6645 58.811 41.6645 58.811C41.6645 58.811 40.3545 57.8494 40.3703 57.5507C40.386 57.2521 40.5065 57.2232 40.5065 57.2232C40.5065 57.2232 40.4541 56.6521 40.9152 56.5971C40.9152 56.5971 41.2715 55.887 41.6252 55.8608C41.9789 55.8346 44.3789 56.7045 44.3789 56.7045L43.4802 55.9421C43.4802 55.9421 42.5789 55.8058 42.6077 55.5045C42.6366 55.2032 43.0584 54.9727 43.0584 54.9727Z" fill="#AE7461"/>
<path d="M42.901 58.5648C42.485 58.3894 42.0783 58.1926 41.6827 57.9753C41.2666 57.7971 40.86 57.5977 40.4644 57.3779C40.9131 57.4615 41.3457 57.6163 41.7455 57.8364C42.1664 58.0172 42.5563 58.263 42.901 58.5648Z" fill="#AE7461"/>
<path d="M44.1586 57.7317C43.6211 57.6073 43.0952 57.4373 42.5866 57.2234C42.0641 57.0539 41.5574 56.8391 41.0723 56.5815C41.6098 56.7059 42.1357 56.876 42.6443 57.0898C43.1667 57.2594 43.6734 57.4742 44.1586 57.7317Z" fill="#AE7461"/>
<path d="M27.0816 33.5884C26.7329 32.4002 26.4858 31.1845 26.3428 29.9545C26.1999 28.7185 26.3655 27.4664 26.8249 26.3101C26.9008 26.1371 27.5192 25.0001 27.7026 25.0158C27.8362 25.0341 27.4406 26.1162 27.4982 26.2367C28.0851 27.3738 28.1899 28.7126 28.0222 29.9833C27.8473 31.2159 27.5353 32.4251 27.0921 33.5884" fill="#263238"/>
<path d="M27.2047 28.8644C27.2623 25.757 29.1199 23.2052 32.222 23.3624L32.5076 23.3938C33.8969 23.5371 35.1811 24.1991 36.1038 25.2476C37.0266 26.2962 37.52 27.6541 37.4856 29.0504C37.4201 31.7411 37.3126 34.7122 37.145 36.1427C36.7965 39.1007 33.7835 39.25 33.7835 39.25L33.0971 43.8141L26.7593 39.4072L27.2047 28.8644Z" fill="#AE7461"/>
<path d="M33.7729 39.2608C32.4044 39.1122 31.1071 38.5749 30.0342 37.7124C30.0342 37.7124 30.6263 40.2459 33.6105 40.2905L33.7729 39.2608Z" fill="#AE7461"/>
<path d="M36.346 31.5161C36.3354 31.6264 36.282 31.7281 36.1973 31.7996C36.1126 31.8711 36.0033 31.9066 35.8927 31.8986C35.8385 31.8973 35.7851 31.8851 35.7356 31.8627C35.6861 31.8404 35.6417 31.8084 35.6048 31.7686C35.5679 31.7288 35.5394 31.682 35.5209 31.631C35.5024 31.5799 35.4943 31.5257 35.4971 31.4715C35.5078 31.361 35.5611 31.259 35.6457 31.1871C35.7303 31.1152 35.8396 31.0791 35.9504 31.0864C36.0048 31.0881 36.0583 31.1006 36.1077 31.1232C36.1572 31.1458 36.2017 31.178 36.2385 31.2181C36.2754 31.2581 36.3039 31.3051 36.3223 31.3562C36.3408 31.4074 36.3488 31.4617 36.346 31.5161Z" fill="#263238"/>
<path d="M36.7127 30.2004C36.655 30.2476 36.359 29.9777 35.9031 29.9384C35.4472 29.8991 35.0909 30.0851 35.0463 30.0249C35.0018 29.9646 35.0883 29.9017 35.2455 29.8127C35.457 29.6958 35.6998 29.6481 35.9398 29.6764C36.1762 29.7004 36.3991 29.7985 36.5764 29.9568C36.7048 30.072 36.7415 30.1768 36.7127 30.2004Z" fill="#263238"/>
<path d="M32.45 31.3326C32.4394 31.4432 32.3861 31.5452 32.3015 31.6171C32.2168 31.689 32.1076 31.7251 31.9968 31.7178C31.9424 31.7161 31.8889 31.7036 31.8394 31.681C31.7899 31.6584 31.7455 31.6261 31.7086 31.5861C31.6718 31.5461 31.6433 31.4991 31.6248 31.4479C31.6064 31.3968 31.5983 31.3424 31.6011 31.2881C31.6149 31.18 31.6695 31.0812 31.7538 31.012C31.8381 30.9428 31.9456 30.9085 32.0544 30.9161C32.1077 30.9174 32.1603 30.9293 32.209 30.951C32.2578 30.9726 32.3018 31.0037 32.3385 31.0424C32.3753 31.0811 32.404 31.1266 32.4232 31.1764C32.4423 31.2262 32.4514 31.2793 32.45 31.3326Z" fill="#263238"/>
<path d="M32.2327 29.9123C32.175 29.9621 31.879 29.6922 31.4231 29.6503C30.9672 29.6084 30.6109 29.797 30.5664 29.7342C30.5218 29.6713 30.6083 29.6136 30.7655 29.5246C30.977 29.4077 31.2198 29.36 31.4598 29.3883C31.6963 29.4123 31.9191 29.5104 32.0964 29.6687C32.2248 29.7866 32.2615 29.8914 32.2327 29.9123Z" fill="#263238"/>
<path d="M33.498 33.5855C33.7461 33.5343 33.9998 33.5158 34.2526 33.5305C34.3679 33.5305 34.4806 33.5305 34.5146 33.4414C34.5369 33.322 34.5223 33.1986 34.4727 33.0877L34.2238 32.1655C33.8779 30.8555 33.6421 29.7813 33.6998 29.7682C33.7574 29.7551 34.0745 30.8162 34.4203 32.1262C34.5015 32.4484 34.5801 32.7576 34.6561 33.051C34.7103 33.2009 34.7103 33.365 34.6561 33.5148C34.6352 33.5538 34.6057 33.5875 34.5699 33.6134C34.534 33.6392 34.4927 33.6566 34.4491 33.6641C34.3821 33.6728 34.3143 33.6728 34.2474 33.6641C33.9953 33.6687 33.7437 33.6423 33.498 33.5855Z" fill="#263238"/>
<path d="M32.1248 33.759C32.1982 33.759 32.1484 34.2568 32.5335 34.6524C32.9187 35.048 33.4505 35.048 33.4479 35.1187C33.4453 35.1895 33.3195 35.2026 33.0968 35.1842C32.8071 35.1581 32.536 35.03 32.3318 34.8227C32.1347 34.6249 32.0228 34.3578 32.02 34.0786C32.0226 33.869 32.0908 33.7537 32.1248 33.759Z" fill="#263238"/>
<path d="M32.4027 28.063C32.3451 28.1809 31.8971 28.063 31.3547 28.084C30.8124 28.1049 30.367 28.1914 30.3067 28.084C30.2805 28.0263 30.3696 27.9189 30.5687 27.822C30.8123 27.6982 31.0815 27.6336 31.3547 27.6333C31.6272 27.6319 31.8963 27.6938 32.1407 27.8141C32.3398 27.8979 32.4289 28.0054 32.4027 28.063Z" fill="#263238"/>
<path d="M36.6838 28.6653C36.5921 28.7596 36.2908 28.6208 35.9136 28.5762C35.5363 28.5317 35.2114 28.5762 35.1485 28.4557C35.1223 28.4007 35.1826 28.3011 35.3319 28.2173C35.5311 28.1176 35.7562 28.0819 35.9764 28.1151C36.1974 28.1372 36.4057 28.229 36.5712 28.3771C36.6917 28.5081 36.7258 28.6182 36.6838 28.6653Z" fill="#263238"/>
<path d="M27.2153 31.0834C27.1656 31.0546 25.2425 30.266 25.0931 32.2991C24.9438 34.3322 27.0162 34.0624 27.0241 34.0047C27.0319 33.9471 27.2153 31.0834 27.2153 31.0834Z" fill="#AE7461"/>
<path d="M26.4579 33.1874C26.4579 33.1874 26.4212 33.211 26.3584 33.2346C26.2721 33.2621 26.1787 33.2565 26.0964 33.2189C25.8894 33.1246 25.7322 32.7709 25.7479 32.4041C25.7566 32.2294 25.8031 32.0586 25.8841 31.9036C25.9066 31.8394 25.9447 31.7819 25.995 31.7361C26.0453 31.6903 26.1063 31.6579 26.1723 31.6416C26.2139 31.6334 26.257 31.6402 26.2939 31.6608C26.3309 31.6815 26.3593 31.7146 26.3741 31.7543C26.3977 31.8119 26.3741 31.8512 26.3924 31.8565C26.4108 31.8617 26.437 31.825 26.4265 31.7412C26.419 31.6898 26.394 31.6426 26.3557 31.6076C26.3298 31.5845 26.2995 31.5669 26.2667 31.5556C26.2338 31.5444 26.1991 31.5398 26.1645 31.5421C26.0795 31.5516 25.9985 31.5833 25.9296 31.6338C25.8607 31.6844 25.8061 31.7521 25.7715 31.8303C25.6727 31.9995 25.6161 32.19 25.6064 32.3857C25.5907 32.7971 25.7715 33.1953 26.0597 33.3027C26.1131 33.3225 26.1703 33.33 26.227 33.3246C26.2838 33.3191 26.3385 33.3009 26.3872 33.2713C26.4527 33.2372 26.4658 33.1927 26.4579 33.1874Z" fill="#AE7461"/>
<path d="M36.3771 25.5816C36.7177 25.4218 35.798 24.2926 35.012 23.8734C33.8252 23.2393 31.9807 22.7782 30.82 23.0245C29.4367 23.3232 28.2655 23.9258 27.5057 25.1205C26.7686 26.3361 26.3681 27.7259 26.3451 29.1474C26.3002 29.5793 26.3717 30.0153 26.5521 30.4103C26.8141 30.8766 27.3381 31.1963 27.2699 31.8146C27.2551 31.9263 27.2625 32.0398 27.2917 32.1486C27.321 32.2574 27.3714 32.3594 27.4402 32.4486C27.7887 32.8704 28.2655 32.5272 28.5013 32.1683C28.9991 31.398 29.1092 30.4522 29.2087 29.5483C29.3149 28.9055 29.3149 28.2496 29.2087 27.6069C29.1301 27.261 28.9913 26.9309 28.9467 26.5798C28.9066 26.407 28.9046 26.2274 28.9408 26.0537C28.977 25.88 29.0505 25.7162 29.1563 25.5737C29.21 25.5169 29.2687 25.4652 29.3319 25.4192C29.6317 25.1904 29.9871 25.0455 30.3614 24.9995C30.7357 24.9534 31.1156 25.0079 31.4619 25.1572C32.5807 25.6366 34.4985 26.3676 35.0356 26.0113C35.8059 25.5004 36.005 25.1467 36.005 25.1467L36.3771 25.5816Z" fill="#263238"/>
</svg>
