<svg width="29" height="39" viewBox="0 0 29 39" fill="none" xmlns="http://www.w3.org/2000/svg">
<path d="M25.5993 0.125H3.62214C2.89356 0.125 2.19481 0.41443 1.67962 0.929619C1.16443 1.44481 0.875 2.14356 0.875 2.87214V8.36643C0.875 9.09502 1.16443 9.79376 1.67962 10.309C2.19481 10.8241 2.89356 11.1136 3.62214 11.1136V35.8379C3.62214 36.5664 3.91157 37.2652 4.42676 37.7804C4.94195 38.2956 5.6407 38.585 6.36929 38.585H22.8521C23.5807 38.585 24.2795 38.2956 24.7947 37.7804C25.3099 37.2652 25.5993 36.5664 25.5993 35.8379V11.1136C26.3279 11.1136 27.0266 10.8241 27.5418 10.309C28.057 9.79376 28.3464 9.09502 28.3464 8.36643V2.87214C28.3464 2.14356 28.057 1.44481 27.5418 0.929619C27.0266 0.41443 26.3279 0.125 25.5993 0.125ZM6.36929 16.6079H10.49V30.3436H6.36929V16.6079ZM22.8521 35.8379H6.36929V33.0907H13.2371V13.8607H6.36929V11.1136H22.8521V35.8379ZM3.62214 8.36643V2.87214H25.5993V8.36643H3.62214Z" fill="white"/>
</svg>
