<svg width="150" height="150" viewBox="0 0 150 150" fill="none" xmlns="http://www.w3.org/2000/svg">
<path d="M150 114.72H0V114.795H150V114.72Z" fill="#EBEBEB"/>
<path d="M134.97 119.547H125.034V119.622H134.97V119.547Z" fill="#EBEBEB"/>
<path d="M99.3663 120.363H96.7593V120.438H99.3663V120.363Z" fill="#EBEBEB"/>
<path d="M124.734 116.763H118.977V116.838H124.734V116.763Z" fill="#EBEBEB"/>
<path d="M28.6948 117.267H15.7378V117.342H28.6948V117.267Z" fill="#EBEBEB"/>
<path d="M33.2672 117.267H31.3682V117.342H33.2672V117.267Z" fill="#EBEBEB"/>
<path d="M67.5449 118.533H39.4409V118.608H67.5449V118.533Z" fill="#EBEBEB"/>
<path d="M71.0999 101.34H13.1729C12.7191 101.339 12.2842 101.158 11.9636 100.837C11.643 100.516 11.4629 100.081 11.4629 99.627V18.198C11.4668 17.7468 11.6486 17.3154 11.9688 16.9975C12.289 16.6795 12.7217 16.5008 13.1729 16.5H71.0999C71.5542 16.5 71.9899 16.6805 72.3112 17.0017C72.6324 17.323 72.8129 17.7587 72.8129 18.213V99.627C72.8129 100.081 72.6324 100.517 72.3112 100.838C71.9899 101.16 71.5542 101.34 71.0999 101.34ZM13.1729 16.56C12.739 16.5608 12.3231 16.7337 12.0166 17.0408C11.7101 17.3479 11.5379 17.7641 11.5379 18.198V99.627C11.5379 100.061 11.7101 100.477 12.0166 100.784C12.3231 101.091 12.739 101.264 13.1729 101.265H71.0999C71.5341 101.264 71.9502 101.091 72.2573 100.784C72.5643 100.477 72.7371 100.061 72.7379 99.627V18.198C72.7371 17.7638 72.5643 17.3476 72.2573 17.0406C71.9502 16.7336 71.5341 16.5608 71.0999 16.56H13.1729Z" fill="#EBEBEB"/>
<path d="M135.993 101.34H78.0631C77.609 101.339 77.1738 101.158 76.8527 100.837C76.5316 100.516 76.3509 100.081 76.3501 99.627V18.198C76.3548 17.7465 76.5373 17.3151 76.858 16.9973C77.1786 16.6794 77.6116 16.5008 78.0631 16.5H135.993C136.444 16.5016 136.876 16.6807 137.195 16.9985C137.515 17.3164 137.696 17.7473 137.7 18.198V99.627C137.7 100.08 137.52 100.515 137.2 100.836C136.881 101.157 136.446 101.338 135.993 101.34ZM78.0631 16.56C77.6289 16.5608 77.2127 16.7336 76.9057 17.0406C76.5987 17.3476 76.4259 17.7638 76.4251 18.198V99.627C76.4259 100.061 76.5987 100.477 76.9057 100.784C77.2127 101.091 77.6289 101.264 78.0631 101.265H135.993C136.427 101.264 136.843 101.091 137.15 100.784C137.457 100.477 137.63 100.061 137.631 99.627V18.198C137.63 17.7638 137.457 17.3476 137.15 17.0406C136.843 16.7336 136.427 16.5608 135.993 16.56H78.0631Z" fill="#EBEBEB"/>
<path d="M57.486 30.0718H29.085V94.0528H57.486V30.0718Z" fill="#F5F5F5"/>
<path d="M56.415 92.853L56.415 31.272H30.156L30.156 92.853H56.415Z" fill="#FAFAFA"/>
<path d="M43.5874 30.9629H42.9844V93.4529H43.5874V30.9629Z" fill="#F5F5F5"/>
<path d="M58.1402 29.2378H28.4282V32.2498H58.1402V29.2378Z" fill="#F5F5F5"/>
<path d="M58.1402 32.583H28.4282V32.94H58.1402V32.583Z" fill="#F5F5F5"/>
<path d="M58.1402 33.3931H28.4282V33.7501H58.1402V33.3931Z" fill="#F5F5F5"/>
<path d="M58.1402 34.2031H28.4282V34.5601H58.1402V34.2031Z" fill="#F5F5F5"/>
<path d="M58.1402 35.0132H28.4282V35.3702H58.1402V35.0132Z" fill="#F5F5F5"/>
<path d="M58.1402 35.8228H28.4282V36.1798H58.1402V35.8228Z" fill="#F5F5F5"/>
<path d="M58.1402 36.6333H28.4282V36.9903H58.1402V36.6333Z" fill="#F5F5F5"/>
<path d="M58.1402 37.4429H28.4282V37.7999H58.1402V37.4429Z" fill="#F5F5F5"/>
<path d="M58.1402 38.2529H28.4282V38.6099H58.1402V38.2529Z" fill="#F5F5F5"/>
<path d="M58.1402 39.063H28.4282V39.42H58.1402V39.063Z" fill="#F5F5F5"/>
<path d="M58.1402 39.873H28.4282V40.23H58.1402V39.873Z" fill="#F5F5F5"/>
<path d="M58.1402 40.6831H28.4282V41.0401H58.1402V40.6831Z" fill="#F5F5F5"/>
<path d="M58.1402 41.4932H28.4282V41.8502H58.1402V41.4932Z" fill="#F5F5F5"/>
<path d="M58.1402 42.3032H28.4282V42.6602H58.1402V42.3032Z" fill="#F5F5F5"/>
<path d="M58.1402 43.1128H28.4282V43.4698H58.1402V43.1128Z" fill="#F5F5F5"/>
<path d="M58.1402 43.9229H28.4282V44.2799H58.1402V43.9229Z" fill="#F5F5F5"/>
<path d="M58.1402 44.7358H28.4282V45.0928H58.1402V44.7358Z" fill="#F5F5F5"/>
<path d="M58.1402 45.5459H28.4282V45.9029H58.1402V45.5459Z" fill="#F5F5F5"/>
<path d="M58.1402 46.356H28.4282V46.713H58.1402V46.356Z" fill="#F5F5F5"/>
<path d="M91.11 30.0718H62.709V94.0528H91.11V30.0718Z" fill="#F5F5F5"/>
<path d="M90.042 92.853V31.272H63.783V92.853H90.042Z" fill="#FAFAFA"/>
<path d="M77.2109 30.9629H76.6079V93.4529H77.2109V30.9629Z" fill="#F5F5F5"/>
<path d="M91.7672 29.2378H62.0552V32.2498H91.7672V29.2378Z" fill="#F5F5F5"/>
<path d="M91.7672 32.583H62.0552V32.94H91.7672V32.583Z" fill="#F5F5F5"/>
<path d="M91.7672 33.3931H62.0552V33.7501H91.7672V33.3931Z" fill="#F5F5F5"/>
<path d="M91.7672 34.2031H62.0552V34.5601H91.7672V34.2031Z" fill="#F5F5F5"/>
<path d="M91.7672 35.0132H62.0552V35.3702H91.7672V35.0132Z" fill="#F5F5F5"/>
<path d="M91.7672 35.8228H62.0552V36.1798H91.7672V35.8228Z" fill="#F5F5F5"/>
<path d="M91.7672 36.6333H62.0552V36.9903H91.7672V36.6333Z" fill="#F5F5F5"/>
<path d="M91.7672 37.4429H62.0552V37.7999H91.7672V37.4429Z" fill="#F5F5F5"/>
<path d="M91.7672 38.2529H62.0552V38.6099H91.7672V38.2529Z" fill="#F5F5F5"/>
<path d="M91.7672 39.063H62.0552V39.42H91.7672V39.063Z" fill="#F5F5F5"/>
<path d="M91.7672 39.873H62.0552V40.23H91.7672V39.873Z" fill="#F5F5F5"/>
<path d="M91.7672 40.6831H62.0552V41.0401H91.7672V40.6831Z" fill="#F5F5F5"/>
<path d="M91.7672 41.4932H62.0552V41.8502H91.7672V41.4932Z" fill="#F5F5F5"/>
<path d="M91.7672 42.3032H62.0552V42.6602H91.7672V42.3032Z" fill="#F5F5F5"/>
<path d="M91.7672 43.1128H62.0552V43.4698H91.7672V43.1128Z" fill="#F5F5F5"/>
<path d="M91.7672 43.9229H62.0552V44.2799H91.7672V43.9229Z" fill="#F5F5F5"/>
<path d="M91.7672 44.7358H62.0552V45.0928H91.7672V44.7358Z" fill="#F5F5F5"/>
<path d="M91.7672 45.5459H62.0552V45.9029H91.7672V45.5459Z" fill="#F5F5F5"/>
<path d="M91.7672 46.356H62.0552V46.713H91.7672V46.356Z" fill="#F5F5F5"/>
<path d="M124.737 30.0718H96.3359V94.0528H124.737V30.0718Z" fill="#F5F5F5"/>
<path d="M123.666 92.853V31.272H97.407V92.853H123.666Z" fill="#FAFAFA"/>
<path d="M110.838 30.9629H110.235V93.4529H110.838V30.9629Z" fill="#F5F5F5"/>
<path d="M125.391 29.2378H95.6787V32.2498H125.391V29.2378Z" fill="#F5F5F5"/>
<path d="M125.391 32.583H95.6787V32.94H125.391V32.583Z" fill="#F5F5F5"/>
<path d="M125.391 33.3931H95.6787V33.7501H125.391V33.3931Z" fill="#F5F5F5"/>
<path d="M125.391 34.2031H95.6787V34.5601H125.391V34.2031Z" fill="#F5F5F5"/>
<path d="M125.391 35.0132H95.6787V35.3702H125.391V35.0132Z" fill="#F5F5F5"/>
<path d="M125.391 35.8228H95.6787V36.1798H125.391V35.8228Z" fill="#F5F5F5"/>
<path d="M125.391 36.6333H95.6787V36.9903H125.391V36.6333Z" fill="#F5F5F5"/>
<path d="M125.391 37.4429H95.6787V37.7999H125.391V37.4429Z" fill="#F5F5F5"/>
<path d="M125.391 38.2529H95.6787V38.6099H125.391V38.2529Z" fill="#F5F5F5"/>
<path d="M125.391 39.063H95.6787V39.42H125.391V39.063Z" fill="#F5F5F5"/>
<path d="M125.391 39.873H95.6787V40.23H125.391V39.873Z" fill="#F5F5F5"/>
<path d="M125.391 40.6831H95.6787V41.0401H125.391V40.6831Z" fill="#F5F5F5"/>
<path d="M125.391 41.4932H95.6787V41.8502H125.391V41.4932Z" fill="#F5F5F5"/>
<path d="M125.391 42.3032H95.6787V42.6602H125.391V42.3032Z" fill="#F5F5F5"/>
<path d="M125.391 43.1128H95.6787V43.4698H125.391V43.1128Z" fill="#F5F5F5"/>
<path d="M125.391 43.9229H95.6787V44.2799H125.391V43.9229Z" fill="#F5F5F5"/>
<path d="M125.391 44.7358H95.6787V45.0928H125.391V44.7358Z" fill="#F5F5F5"/>
<path d="M125.391 45.5459H95.6787V45.9029H125.391V45.5459Z" fill="#F5F5F5"/>
<path d="M125.391 46.356H95.6787V46.713H125.391V46.356Z" fill="#F5F5F5"/>
<path d="M123.555 106.821C123.555 106.821 125.073 103.506 123.339 100.239C121.605 96.9723 121.098 96.2043 122.205 95.5323C123.312 94.8603 123.819 98.1483 123.819 98.1483C124.367 96.6646 124.424 95.0438 123.981 93.5253C123.213 91.1613 122.73 87.3093 123.78 86.8983C124.83 86.4873 123.981 91.6983 124.896 93.4803C125.363 92.2319 125.665 90.9279 125.796 89.6013C125.922 87.7023 125.724 84.6693 126.555 83.9013C127.386 83.1333 127.917 83.6613 127.101 87.8523C126.61 90.3559 126.339 92.8976 126.291 95.4483C126.291 95.4483 128.091 89.9523 129.306 89.7903C130.521 89.6283 130.506 91.4103 129.477 92.9553C128.448 94.5003 126.444 97.2633 126.117 98.6883C126.117 98.6883 128.097 94.5513 129.876 95.8203C131.655 97.0893 128.325 99.5853 126.843 100.488C125.361 101.391 124.329 107.049 124.329 107.049L123.555 106.821Z" fill="#E0E0E0"/>
<path d="M124.755 108.18C124.755 108.18 123.276 104.844 125.055 101.604C126.834 98.3642 127.344 97.5992 126.255 96.9152C125.166 96.2312 124.611 99.5042 124.611 99.5042C124.611 99.5042 123.711 97.2302 124.503 94.8782C125.295 92.5262 125.832 88.6832 124.785 88.2542C123.738 87.8252 124.527 93.0542 123.585 94.8182C123.135 93.5604 122.851 92.2494 122.739 90.9182C122.637 89.0192 122.871 85.9892 122.049 85.2002C121.227 84.4112 120.69 84.9392 121.449 89.1422C121.909 91.6525 122.15 94.1981 122.169 96.7502C122.169 96.7502 120.432 91.2272 119.223 91.0502C118.014 90.8732 117.996 92.6522 119.013 94.2122C120.03 95.7722 121.995 98.5682 122.313 99.9962C122.313 99.9962 120.384 95.8292 118.59 97.0712C116.796 98.3132 120.09 100.86 121.566 101.784C123.042 102.708 124.002 108.384 124.002 108.384L124.755 108.18Z" fill="#EBEBEB"/>
<path d="M117.93 105.804H130.152L129.162 114.546H118.92L117.93 105.804Z" fill="#EBEBEB"/>
<path d="M26.3281 105.18C26.2831 104.88 25.2721 97.8931 27.3001 95.4781C27.5026 95.2241 27.7588 95.0179 28.0502 94.8742C28.3417 94.7306 28.6612 94.653 28.9861 94.6471C33.0841 94.5511 33.6451 97.8451 33.6511 97.8781L33.1651 97.9531C33.1471 97.8331 32.6611 95.0491 28.9981 95.1361C28.7425 95.1397 28.4909 95.2007 28.262 95.3144C28.033 95.4281 27.8325 95.5916 27.6751 95.7931C25.7851 98.0401 26.8021 105.036 26.8111 105.108L26.3281 105.18Z" fill="#EBEBEB"/>
<path d="M26.0823 104.862L25.5933 104.847C25.5933 104.781 25.7553 98.4028 22.6113 97.0858C19.5333 95.7958 18.1473 98.4478 18.0903 98.5618L17.6523 98.3428C17.6703 98.3098 19.2933 95.1658 22.8003 96.6358C26.2533 98.0818 26.1003 104.586 26.0823 104.862Z" fill="#EBEBEB"/>
<path d="M26.1003 105.363C26.1003 105.261 26.0703 95.1628 24.1053 92.2228C22.2183 89.3908 19.1703 90.7228 19.0413 90.7828L18.8403 90.3388C18.8763 90.3208 22.3893 88.7698 24.5133 91.9528C26.5593 95.0248 26.5893 104.94 26.5893 105.363H26.1003Z" fill="#EBEBEB"/>
<path d="M29.5739 94.8899C29.5739 94.8899 27.7739 95.5499 28.3169 97.1069C28.8599 98.6639 34.4999 101.226 34.4999 101.226C34.4999 101.226 36.8669 99.0539 34.6919 95.5259C32.5169 91.9979 29.6219 93.7769 29.5739 94.8899Z" fill="#E0E0E0"/>
<path d="M24.0001 91.6921C24.0001 91.6921 25.2721 91.5571 25.1701 90.7921C25.0681 90.0271 20.2321 88.0261 17.3701 91.2481C17.3701 91.2481 19.1971 94.3861 21.8371 94.4251C24.4771 94.4641 24.0001 91.6921 24.0001 91.6921Z" fill="#E0E0E0"/>
<path d="M22.707 96.8608C22.707 96.8608 23.583 96.1528 22.638 95.8078C21.693 95.4628 17.049 95.5618 17.001 100.158C17.001 100.158 22.401 101.058 23.076 99.3058C23.751 97.5538 22.707 96.8608 22.707 96.8608Z" fill="#E0E0E0"/>
<path d="M30.5342 114.546H22.1432L21.2402 105.363H31.4402L30.5342 114.546Z" fill="#EBEBEB"/>
<path d="M31.887 104.349H20.79V106.377H31.887V104.349Z" fill="#E0E0E0"/>
<path d="M75 128.268C107.125 128.268 133.167 126.748 133.167 124.872C133.167 122.997 107.125 121.476 75 121.476C42.8753 121.476 16.833 122.997 16.833 124.872C16.833 126.748 42.8753 128.268 75 128.268Z" fill="#F5F5F5"/>
<path d="M95.6669 59.0156C95.6669 59.0156 95.6669 61.8896 94.7669 63.0056C93.8669 64.1216 89.1509 66.4466 89.1509 66.4466C89.1509 66.4466 86.3429 66.4466 86.0849 66.4466C85.8269 66.4466 85.1099 67.7276 85.1099 67.7276L86.3099 69.1436C86.3099 69.1436 89.7929 68.4686 89.4749 67.4576C89.4749 67.4576 94.1039 65.6576 95.4089 64.7426C96.7139 63.8276 97.7039 59.7746 97.7039 59.7746L95.6669 59.0156Z" fill="#AE7461"/>
<path d="M97.1998 50.8231C95.8018 50.3161 95.0068 59.8952 95.0068 59.8952L98.6068 61.1522C98.6068 61.1522 99.8998 51.8102 97.1998 50.8231Z" fill="#407BFF"/>
<path opacity="0.4" d="M98.7986 59.1244C98.7086 60.3244 98.5946 61.1524 98.5946 61.1524L94.9946 59.8954C94.9946 59.8954 95.7866 50.3134 97.1846 50.8234C98.1266 51.1684 98.5826 52.5244 98.7776 54.1474C98.939 55.8021 98.946 57.4683 98.7986 59.1244Z" fill="white"/>
<path opacity="0.2" d="M98.7988 59.1241C97.1278 57.1591 98.1988 53.6851 98.1988 53.6851C98.4165 53.8053 98.6122 53.9615 98.7778 54.1471C98.9392 55.8018 98.9462 57.468 98.7988 59.1241Z" fill="black"/>
<path d="M112.557 122.1H115.598C115.648 122.101 115.696 122.118 115.734 122.149C115.773 122.18 115.8 122.223 115.812 122.271L116.303 124.5C116.314 124.548 116.314 124.597 116.305 124.644C116.297 124.692 116.278 124.737 116.252 124.778C116.225 124.819 116.191 124.854 116.151 124.881C116.111 124.909 116.066 124.928 116.019 124.938H115.937C114.953 124.938 114.237 124.86 113.004 124.86C112.242 124.86 109.947 124.941 108.897 124.941C107.847 124.941 107.697 123.903 108.138 123.807C110.067 123.387 111.519 122.805 112.137 122.25C112.252 122.148 112.402 122.094 112.557 122.1Z" fill="#263238"/>
<path d="M99.6629 122.013H102.702C102.752 122.012 102.8 122.029 102.839 122.06C102.878 122.092 102.904 122.135 102.915 122.184L103.41 124.413C103.422 124.467 103.422 124.523 103.409 124.577C103.397 124.632 103.372 124.682 103.336 124.725C103.301 124.768 103.256 124.802 103.205 124.825C103.155 124.848 103.099 124.859 103.044 124.857C102.06 124.842 101.343 124.782 100.107 124.782C99.3479 124.782 97.0529 124.86 95.9999 124.86C94.9469 124.86 94.7999 123.822 95.2439 123.729C97.1729 123.309 98.6249 122.724 99.2429 122.172C99.357 122.066 99.5076 122.009 99.6629 122.013Z" fill="#263238"/>
<path opacity="0.1" d="M112.557 122.1H115.598C115.648 122.101 115.696 122.118 115.734 122.149C115.773 122.18 115.8 122.223 115.812 122.271L116.303 124.5C116.314 124.548 116.314 124.597 116.305 124.644C116.297 124.692 116.278 124.737 116.252 124.778C116.225 124.819 116.191 124.854 116.151 124.881C116.111 124.909 116.066 124.928 116.019 124.938H115.937C114.953 124.938 114.237 124.86 113.004 124.86C112.242 124.86 109.947 124.941 108.897 124.941C107.847 124.941 107.697 123.903 108.138 123.807C110.067 123.387 111.519 122.805 112.137 122.25C112.252 122.148 112.402 122.094 112.557 122.1Z" fill="white"/>
<path opacity="0.1" d="M99.6629 122.013H102.702C102.752 122.012 102.8 122.029 102.839 122.06C102.878 122.092 102.904 122.135 102.915 122.184L103.41 124.413C103.422 124.467 103.422 124.523 103.409 124.577C103.397 124.632 103.372 124.682 103.336 124.725C103.301 124.768 103.256 124.802 103.205 124.825C103.155 124.848 103.099 124.859 103.044 124.857C102.06 124.842 101.343 124.782 100.107 124.782C99.3479 124.782 97.0529 124.86 95.9999 124.86C94.9469 124.86 94.7999 123.822 95.2439 123.729C97.1729 123.309 98.6249 122.724 99.2429 122.172C99.357 122.066 99.5076 122.009 99.6629 122.013Z" fill="white"/>
<path d="M114.171 65.7271H100.884C99.6208 72.6271 95.6668 100.632 98.5048 122.379H103.005C103.005 122.379 102.6 89.3521 106.557 78.6781C107.013 84.3781 111.657 122.358 111.657 122.358H116.235C116.235 122.358 115.551 108.075 114.864 94.5841C114.435 86.1001 114.189 67.4731 114.171 65.7271Z" fill="#407BFF"/>
<path opacity="0.2" d="M114.171 65.7271H100.884C99.6208 72.6271 95.6668 100.632 98.5048 122.379H103.005C103.005 122.379 102.6 89.3521 106.557 78.6781C107.013 84.3781 111.657 122.358 111.657 122.358H116.235C116.235 122.358 115.551 108.075 114.864 94.5841C114.435 86.1001 114.189 67.4731 114.171 65.7271Z" fill="white"/>
<path opacity="0.2" d="M106.554 78.6811C105.902 80.5517 105.406 82.4734 105.072 84.4261C104.7 79.3441 106.2 73.9531 106.2 73.9531L106.554 78.6811Z" fill="black"/>
<path d="M114.207 66.144L100.602 66.501C100.98 58.701 97.3019 53.778 96.8339 51.384C96.8 51.2183 96.8325 51.0458 96.9246 50.9038C97.0166 50.7618 97.1607 50.6617 97.3259 50.625C98.0009 50.478 98.6939 50.352 99.3959 50.244C102.56 49.7954 105.752 49.5808 108.948 49.602C110.364 49.602 110.052 49.644 110.052 49.644C112.452 51.528 114.345 61.83 114.207 66.144Z" fill="#407BFF"/>
<path opacity="0.4" d="M114.207 66.144L100.602 66.501C100.98 58.701 97.3019 53.778 96.8339 51.384C96.8 51.2183 96.8325 51.0458 96.9246 50.9038C97.0166 50.7618 97.1607 50.6617 97.3259 50.625C98.0009 50.478 98.6939 50.352 99.3959 50.244C102.56 49.7954 105.752 49.5808 108.948 49.602C110.364 49.602 110.052 49.644 110.052 49.644C112.452 51.528 114.345 61.83 114.207 66.144Z" fill="white"/>
<path d="M105.849 50.0582C105.549 51.8432 102.738 53.6312 102.738 53.6312C102.738 53.6312 101.295 52.0382 101.178 50.8232C101.358 50.6472 101.509 50.4449 101.628 50.2232C101.718 50.0617 101.764 49.8798 101.763 49.6952C101.729 49.3477 101.615 49.0129 101.43 48.7172C101.332 48.5423 101.223 48.3739 101.103 48.2132L103.062 45.7832L103.512 45.2222C103.533 45.3902 103.56 45.5762 103.593 45.7712C103.671 46.207 103.771 46.6385 103.893 47.0642C104.235 48.3182 104.844 49.6082 105.849 50.0582Z" fill="#AE7461"/>
<path opacity="0.2" d="M103.881 47.0666C103.782 48.2666 103.332 49.9256 101.628 50.2256C101.718 50.0642 101.764 49.8823 101.763 49.6976C101.729 49.3502 101.615 49.0154 101.43 48.7196C101.332 48.5448 101.223 48.3764 101.103 48.2156L103.062 45.7856C103.233 45.7856 103.413 45.7856 103.593 45.7856C103.668 46.2172 103.764 46.6447 103.881 47.0666Z" fill="black"/>
<path d="M95.9547 40.8207C95.9547 40.8207 95.9097 44.2107 97.8477 45.2457C99.7857 46.2807 98.9337 40.0977 98.9337 40.0977L95.9547 40.8207Z" fill="#263238"/>
<path d="M97.695 47.2292C97.7578 47.3327 97.8259 47.4328 97.899 47.5292C98.1531 47.8674 98.4698 48.1536 98.832 48.3722C99.1991 48.5992 99.6065 48.753 100.032 48.8252C100.796 48.9625 101.584 48.8107 102.243 48.3992C102.711 48.0996 103.088 47.6772 103.332 47.1782C104.124 45.6392 103.668 44.2922 103.077 41.9552C102.947 41.4074 102.68 40.9017 102.3 40.4865C101.92 40.0712 101.44 39.7601 100.905 39.5827C100.371 39.4053 99.8003 39.3675 99.2473 39.473C98.6943 39.5784 98.1775 39.8236 97.746 40.1852C95.784 41.8112 96.549 45.3212 97.695 47.2292Z" fill="#AE7461"/>
<path d="M99.7917 43.7012C99.8607 43.8812 99.7917 44.0702 99.6747 44.1092C99.5577 44.1482 99.4077 44.0252 99.3447 43.8392C99.2817 43.6532 99.3447 43.4702 99.4617 43.4312C99.5787 43.3922 99.7287 43.5002 99.7917 43.7012Z" fill="#263238"/>
<path d="M97.6771 44.3701C97.6963 44.4046 97.7084 44.4425 97.7129 44.4817C97.7173 44.5208 97.714 44.5605 97.7032 44.5984C97.6923 44.6363 97.6741 44.6716 97.6495 44.7025C97.625 44.7333 97.5946 44.759 97.5601 44.7781C97.4401 44.8171 97.2931 44.6941 97.2331 44.5081C97.1731 44.3221 97.2331 44.1391 97.3471 44.1001C97.4611 44.0611 97.6201 44.1931 97.6771 44.3701Z" fill="#263238"/>
<path d="M98.3758 44.25C98.3344 44.8919 98.2042 45.5249 97.9888 46.131C98.1466 46.1832 98.3139 46.1997 98.4789 46.1795C98.6438 46.1593 98.8023 46.1028 98.9428 46.014L98.3758 44.25Z" fill="#DE5753"/>
<path d="M96.5999 43.7129C96.6204 43.7171 96.6416 43.716 96.6616 43.7097C96.6815 43.7034 96.6995 43.6921 96.7139 43.6769C96.8051 43.5648 96.9212 43.4756 97.053 43.4162C97.1847 43.3569 97.3285 43.329 97.4729 43.3349C97.5031 43.3389 97.5337 43.3307 97.5579 43.3121C97.5821 43.2936 97.5979 43.2661 97.6019 43.2359C97.6059 43.2057 97.5977 43.1751 97.5791 43.1509C97.5606 43.1267 97.5331 43.1109 97.5029 43.1069C97.3205 43.0951 97.138 43.127 96.9704 43.2001C96.8029 43.2731 96.6553 43.3852 96.5399 43.5269C96.5293 43.5372 96.5208 43.5496 96.5151 43.5633C96.5093 43.5769 96.5063 43.5916 96.5063 43.6064C96.5063 43.6212 96.5093 43.6359 96.5151 43.6495C96.5208 43.6632 96.5293 43.6756 96.5399 43.6859C96.5565 43.7011 96.5775 43.7106 96.5999 43.7129Z" fill="#263238"/>
<path d="M99.9416 42.7232C99.9633 42.7147 99.9821 42.7001 99.9956 42.6812C100.002 42.6674 100.005 42.6526 100.005 42.6376C100.005 42.6226 100.002 42.6076 99.9968 42.5937C99.9912 42.5798 99.9829 42.5671 99.9724 42.5563C99.9619 42.5456 99.9494 42.5371 99.9356 42.5312C99.7683 42.4557 99.5854 42.4214 99.4022 42.4314C99.2189 42.4413 99.0407 42.4951 98.8826 42.5882C98.8701 42.5966 98.8595 42.6074 98.8512 42.62C98.843 42.6326 98.8373 42.6466 98.8345 42.6614C98.8317 42.6762 98.8319 42.6914 98.835 42.7061C98.8381 42.7208 98.8441 42.7348 98.8526 42.7472C98.861 42.7596 98.8718 42.7703 98.8844 42.7785C98.897 42.7868 98.9111 42.7925 98.9259 42.7953C98.9406 42.7981 98.9558 42.7979 98.9705 42.7948C98.9852 42.7917 98.9992 42.7857 99.0116 42.7772C99.1387 42.7077 99.2801 42.6686 99.4247 42.6629C99.5694 42.6572 99.7135 42.685 99.8456 42.7442C99.8621 42.7483 99.8794 42.7485 99.896 42.7449C99.9127 42.7412 99.9283 42.7338 99.9416 42.7232Z" fill="#263238"/>
<path d="M100.481 39.6241L100.628 40.6831C100.824 40.7204 100.997 40.8295 101.116 40.989C101.234 41.1485 101.288 41.3466 101.267 41.5441C101.165 42.4951 102.008 43.7041 102.812 44.0641C102.812 44.0641 102.734 43.6831 103.073 43.6891C103.412 43.6951 103.841 45.6661 103.472 46.7581C103.472 46.7581 104.18 45.6721 104.165 43.4881C104.15 41.4661 103.793 39.8731 103.211 39.2461L100.481 39.6241Z" fill="#263238"/>
<path d="M104.673 43.5208C104.583 44.12 104.259 44.6593 103.773 45.0208C103.125 45.4918 102.519 44.9788 102.462 44.2198C102.417 43.5418 102.693 42.4618 103.461 42.2968C104.229 42.1318 104.775 42.7828 104.673 43.5208Z" fill="#AE7461"/>
<path d="M99.5999 47.1388C99.5818 47.1389 99.5644 47.1321 99.551 47.1199C99.5377 47.1077 99.5294 47.0909 99.5279 47.0728C99.5262 47.0631 99.5266 47.053 99.5291 47.0434C99.5316 47.0338 99.5361 47.0249 99.5424 47.0172C99.5486 47.0095 99.5565 47.0033 99.5654 46.9989C99.5743 46.9945 99.584 46.9921 99.5939 46.9918C99.8095 46.9676 100.007 46.8598 100.144 46.6914C100.281 46.5231 100.346 46.3078 100.326 46.0918C100.325 46.082 100.326 46.072 100.329 46.0626C100.332 46.0532 100.337 46.0445 100.344 46.037C100.35 46.0294 100.358 46.0233 100.367 46.0188C100.375 46.0143 100.385 46.0116 100.395 46.0108C100.415 46.0099 100.434 46.0166 100.449 46.0294C100.464 46.0422 100.474 46.0602 100.476 46.0798C100.476 46.0798 100.527 47.0488 99.6089 47.1418L99.5999 47.1388Z" fill="#263238"/>
<path d="M103.5 39.672C103.5 39.672 103.383 38.259 100.98 37.791C98.5767 37.323 96.5877 39.159 94.9257 38.646C93.2637 38.133 94.2387 41.859 97.3737 41.445C99.4837 41.1211 101.543 40.5251 103.5 39.672Z" fill="#263238"/>
<path opacity="0.2" d="M108.63 52.854C108.63 52.854 107.487 58.056 107.079 59.658C106.26 62.901 102.324 66.279 102.324 66.279C102.324 66.279 104.778 65.706 107.358 65.268C110.553 64.728 113.547 60.324 111.756 54.468L108.63 52.854Z" fill="black"/>
<path d="M108.534 57.8369C108.534 57.8369 108.534 60.7109 107.634 61.8269C106.734 62.9429 102 65.2679 102 65.2679H98.9428C98.6848 65.2679 97.9678 66.5489 97.9678 66.5489L99.1678 67.9649C99.1678 67.9649 102.651 67.2899 102.333 66.2789C102.333 66.2789 106.962 64.4789 108.267 63.5639C109.572 62.6489 110.562 58.5959 110.562 58.5959L108.534 57.8369Z" fill="#AE7461"/>
<path d="M110.052 49.6437C108.654 49.1337 107.862 58.7157 107.862 58.7157L111.462 59.9727C111.462 59.9727 112.758 50.6277 110.052 49.6437Z" fill="#407BFF"/>
<path opacity="0.4" d="M110.052 49.6437C108.654 49.1337 107.862 58.7157 107.862 58.7157L111.462 59.9727C111.462 59.9727 112.758 50.6277 110.052 49.6437Z" fill="white"/>
<path d="M73.5001 124.941C67.0861 124.941 61.8691 118.548 61.8691 110.688C61.8691 102.828 67.0861 96.4385 73.5001 96.4385C79.9141 96.4385 85.1282 102.831 85.1282 110.688C85.1282 118.545 79.8991 124.941 73.5001 124.941ZM73.5001 97.9415C67.9141 97.9415 63.3691 103.662 63.3691 110.691C63.3691 117.72 67.9141 123.444 73.5001 123.444C79.0861 123.444 83.6161 117.72 83.6161 110.7C83.6161 103.68 79.0741 97.9385 73.5001 97.9385V97.9415Z" fill="#2E353A"/>
<path d="M73.5002 97.8003C67.8302 97.8003 63.2192 103.587 63.2192 110.7C63.2192 117.813 67.8302 123.6 73.5002 123.6C79.1702 123.6 83.7783 117.813 83.7783 110.7C83.7783 103.587 79.1552 97.8003 73.5002 97.8003ZM75.6002 108.465L79.7312 103.2C80.3978 104.158 80.9185 105.21 81.2763 106.32L75.9182 109.101C75.8324 108.88 75.726 108.667 75.6002 108.465ZM73.8002 107.181V99.6003C74.7765 99.6487 75.7305 99.9087 76.5962 100.362L74.2982 107.316C74.1382 107.252 73.971 107.206 73.8002 107.181ZM73.2002 107.181C73.0421 107.203 72.8871 107.243 72.7382 107.301L70.5002 100.296C71.3416 99.8778 72.2614 99.6407 73.2002 99.6003V107.181ZM71.0852 109.041L65.7602 106.161C66.1184 105.105 66.6234 104.104 67.2602 103.188L71.3852 108.465C71.2656 108.648 71.1613 108.841 71.0732 109.041H71.0852ZM70.8962 109.623C70.835 109.874 70.7968 110.13 70.7822 110.388H65.0132C65.0341 109.154 65.2187 107.929 65.5622 106.743L70.8962 109.623ZM70.7702 111C70.7853 111.243 70.8194 111.483 70.8722 111.72L65.5172 114.501C65.2026 113.36 65.0333 112.184 65.0132 111H70.7702ZM71.0552 112.302C71.136 112.519 71.2364 112.728 71.3552 112.926L67.2422 118.2C66.5769 117.242 66.0563 116.191 65.6972 115.08L71.0552 112.302ZM73.1882 114.21V121.794C72.211 121.746 71.256 121.486 70.3892 121.032L72.6872 114.078C72.8528 114.139 73.0251 114.179 73.2002 114.198L73.1882 114.21ZM73.7882 114.21C73.945 114.187 74.0989 114.146 74.2472 114.09L76.4672 121.092C75.6322 121.509 74.7201 121.748 73.7882 121.794V114.21ZM75.8882 112.347L81.2162 115.23C80.8579 116.287 80.353 117.287 79.7162 118.203L75.6002 112.914C75.7163 112.73 75.8167 112.536 75.9002 112.335L75.8882 112.347ZM76.0772 111.768C76.1403 111.516 76.1815 111.259 76.2002 111H81.9603C81.9396 112.235 81.7549 113.462 81.4112 114.648L76.0772 111.768ZM76.2002 110.4C76.1825 110.159 76.1474 109.919 76.0952 109.683L81.4502 106.902C81.7667 108.042 81.938 109.217 81.9603 110.4H76.2002ZM79.3532 102.702L75.2222 107.985C75.0988 107.851 74.9621 107.729 74.8142 107.622L77.1122 100.671C77.9705 101.212 78.7303 101.895 79.3592 102.69L79.3532 102.702ZM69.9632 100.602L72.1802 107.595C72.0201 107.71 71.8723 107.84 71.7392 107.985L67.6142 102.69C68.2683 101.856 69.0658 101.145 69.9692 100.59L69.9632 100.602ZM67.6082 118.701L71.7452 113.4C71.8687 113.535 72.0054 113.656 72.1532 113.763L69.8552 120.714C68.9987 120.171 68.2409 119.487 67.6142 118.689L67.6082 118.701ZM76.9982 120.801L74.7812 113.811C74.9414 113.697 75.0892 113.566 75.2222 113.421L79.3532 118.704C78.7004 119.533 77.9049 120.238 77.0042 120.786L76.9982 120.801Z" fill="#407BFF"/>
<g opacity="0.2">
<path opacity="0.2" d="M73.5002 97.8003C67.8302 97.8003 63.2192 103.587 63.2192 110.7C63.2192 117.813 67.8302 123.6 73.5002 123.6C79.1702 123.6 83.7783 117.813 83.7783 110.7C83.7783 103.587 79.1552 97.8003 73.5002 97.8003ZM75.6002 108.465L79.7312 103.2C80.3978 104.158 80.9185 105.21 81.2763 106.32L75.9182 109.101C75.8324 108.88 75.726 108.667 75.6002 108.465ZM73.8002 107.181V99.6003C74.7765 99.6487 75.7305 99.9087 76.5962 100.362L74.2982 107.316C74.1382 107.252 73.971 107.206 73.8002 107.181ZM73.2002 107.181C73.0421 107.203 72.8871 107.243 72.7382 107.301L70.5002 100.296C71.3416 99.8778 72.2614 99.6407 73.2002 99.6003V107.181ZM71.0852 109.041L65.7602 106.161C66.1184 105.105 66.6234 104.104 67.2602 103.188L71.3852 108.465C71.2656 108.648 71.1613 108.841 71.0732 109.041H71.0852ZM70.8962 109.623C70.835 109.874 70.7968 110.13 70.7822 110.388H65.0132C65.0341 109.154 65.2187 107.929 65.5622 106.743L70.8962 109.623ZM70.7702 111C70.7853 111.243 70.8194 111.483 70.8722 111.72L65.5172 114.501C65.2026 113.36 65.0333 112.184 65.0132 111H70.7702ZM71.0552 112.302C71.136 112.519 71.2364 112.728 71.3552 112.926L67.2422 118.2C66.5769 117.242 66.0563 116.191 65.6972 115.08L71.0552 112.302ZM73.1882 114.21V121.794C72.211 121.746 71.256 121.486 70.3892 121.032L72.6872 114.078C72.8528 114.139 73.0251 114.179 73.2002 114.198L73.1882 114.21ZM73.7882 114.21C73.945 114.187 74.0989 114.146 74.2472 114.09L76.4672 121.092C75.6322 121.509 74.7201 121.748 73.7882 121.794V114.21ZM75.8882 112.347L81.2162 115.23C80.8579 116.287 80.353 117.287 79.7162 118.203L75.6002 112.914C75.7163 112.73 75.8167 112.536 75.9002 112.335L75.8882 112.347ZM76.0772 111.768C76.1403 111.516 76.1815 111.259 76.2002 111H81.9603C81.9396 112.235 81.7549 113.462 81.4112 114.648L76.0772 111.768ZM76.2002 110.4C76.1825 110.159 76.1474 109.919 76.0952 109.683L81.4502 106.902C81.7667 108.042 81.938 109.217 81.9603 110.4H76.2002ZM79.3532 102.702L75.2222 107.985C75.0988 107.851 74.9621 107.729 74.8142 107.622L77.1122 100.671C77.9705 101.212 78.7303 101.895 79.3592 102.69L79.3532 102.702ZM69.9632 100.602L72.1802 107.595C72.0201 107.71 71.8723 107.84 71.7392 107.985L67.6142 102.69C68.2683 101.856 69.0658 101.145 69.9692 100.59L69.9632 100.602ZM67.6082 118.701L71.7452 113.4C71.8687 113.535 72.0054 113.656 72.1532 113.763L69.8552 120.714C68.9987 120.171 68.2409 119.487 67.6142 118.689L67.6082 118.701ZM76.9982 120.801L74.7812 113.811C74.9414 113.697 75.0892 113.566 75.2222 113.421L79.3532 118.704C78.7004 119.533 77.9049 120.238 77.0042 120.786L76.9982 120.801Z" fill="black"/>
</g>
<path d="M81.2998 96.624H69.6388C68.9818 96.6248 68.352 96.8862 67.8875 97.3507C67.4229 97.8152 67.1616 98.4451 67.1608 99.102V118.476C67.1608 118.77 67.0439 119.053 66.8357 119.261C66.6275 119.469 66.3452 119.586 66.0508 119.586H62.3998C62.2407 119.586 62.0881 119.649 61.9755 119.762C61.863 119.874 61.7998 120.027 61.7998 120.186C61.7998 120.345 61.863 120.498 61.9755 120.61C62.0881 120.723 62.2407 120.786 62.3998 120.786H66.0388C66.651 120.784 67.2376 120.541 67.6705 120.108C68.1033 119.675 68.3472 119.088 68.3488 118.476V111.3H81.2998C81.4589 111.3 81.6115 111.237 81.7241 111.124C81.8366 111.012 81.8998 110.859 81.8998 110.7V97.224C81.8998 97.0649 81.8366 96.9123 81.7241 96.7998C81.6115 96.6872 81.4589 96.624 81.2998 96.624ZM80.6998 110.1H68.3608V99.102C68.3608 98.7631 68.4955 98.438 68.7351 98.1983C68.9748 97.9587 69.2999 97.824 69.6388 97.824H80.6998V110.1Z" fill="#2E353A"/>
<path opacity="0.3" d="M81.2998 96.624H69.6388C68.9818 96.6248 68.352 96.8862 67.8875 97.3507C67.4229 97.8152 67.1616 98.4451 67.1608 99.102V118.476C67.1608 118.77 67.0439 119.053 66.8357 119.261C66.6275 119.469 66.3452 119.586 66.0508 119.586H62.3998C62.2407 119.586 62.0881 119.649 61.9755 119.762C61.863 119.874 61.7998 120.027 61.7998 120.186C61.7998 120.345 61.863 120.498 61.9755 120.61C62.0881 120.723 62.2407 120.786 62.3998 120.786H66.0388C66.651 120.784 67.2376 120.541 67.6705 120.108C68.1033 119.675 68.3472 119.088 68.3488 118.476V111.3H81.2998C81.4589 111.3 81.6115 111.237 81.7241 111.124C81.8366 111.012 81.8998 110.859 81.8998 110.7V97.224C81.8998 97.0649 81.8366 96.9123 81.7241 96.7998C81.6115 96.6872 81.4589 96.624 81.2998 96.624ZM80.6998 110.1H68.3608V99.102C68.3608 98.7631 68.4955 98.438 68.7351 98.1983C68.9748 97.9587 69.2999 97.824 69.6388 97.824H80.6998V110.1Z" fill="white"/>
<path d="M82.689 70.5962V89.9222H68.607C68.0095 89.9222 67.4364 90.1596 67.0139 90.5821C66.5914 91.0046 66.354 91.5777 66.354 92.1752V102.204H81.486C82.2095 102.203 82.9031 101.915 83.4145 101.404C83.9258 100.892 84.213 100.198 84.213 99.4742V70.5962H82.689Z" fill="#2E353A"/>
<path opacity="0.3" d="M82.689 70.5962V89.9222H68.607C68.0095 89.9222 67.4364 90.1596 67.0139 90.5821C66.5914 91.0046 66.354 91.5777 66.354 92.1752V102.204H81.486C82.2095 102.203 82.9031 101.915 83.4145 101.404C83.9258 100.892 84.213 100.198 84.213 99.4742V70.5962H82.689Z" fill="white"/>
<path d="M68.34 97.2002H91.236V101.592H66.063V99.4922C66.0611 99.1919 66.1185 98.8942 66.232 98.6162C66.3456 98.3382 66.513 98.0854 66.7246 97.8724C66.9363 97.6594 67.1879 97.4903 67.4652 97.3749C67.7424 97.2596 68.0398 97.2002 68.34 97.2002Z" fill="#2E353A"/>
<path d="M93.4949 100.953H66.0239C65.942 100.953 65.8608 100.969 65.7851 101.001C65.7094 101.032 65.6406 101.078 65.5827 101.136C65.5247 101.194 65.4788 101.263 65.4474 101.338C65.416 101.414 65.3999 101.495 65.3999 101.577C65.3999 101.743 65.4655 101.902 65.5825 102.019C65.6994 102.137 65.8581 102.203 66.0239 102.204H93.4949C93.6563 102.204 93.8115 102.142 93.9279 102.03C94.0442 101.918 94.1127 101.765 94.1189 101.604C94.1225 101.52 94.1091 101.436 94.0794 101.357C94.0497 101.278 94.0043 101.206 93.946 101.145C93.8876 101.084 93.8176 101.036 93.7401 101.003C93.6626 100.97 93.5792 100.953 93.4949 100.953Z" fill="#2E353A"/>
<path opacity="0.3" d="M93.4949 100.953H66.0239C65.942 100.953 65.8608 100.969 65.7851 101.001C65.7094 101.032 65.6406 101.078 65.5827 101.136C65.5247 101.194 65.4788 101.263 65.4474 101.338C65.416 101.414 65.3999 101.495 65.3999 101.577C65.3999 101.743 65.4655 101.902 65.5825 102.019C65.6994 102.137 65.8581 102.203 66.0239 102.204H93.4949C93.6563 102.204 93.8115 102.142 93.9279 102.03C94.0442 101.918 94.1127 101.765 94.1189 101.604C94.1225 101.52 94.1091 101.436 94.0794 101.357C94.0497 101.278 94.0043 101.206 93.946 101.145C93.8876 101.084 93.8176 101.036 93.7401 101.003C93.6626 100.97 93.5792 100.953 93.4949 100.953Z" fill="white"/>
<path d="M83.2256 71.1694H96.0176V96.9964C96.0176 98.0467 95.6004 99.0539 94.8577 99.7966C94.1151 100.539 93.1078 100.956 92.0576 100.956H83.2256V71.1694Z" fill="#2E353A"/>
<path d="M69.1679 118.572H61.7699C61.359 118.572 61.0259 118.905 61.0259 119.316V119.736C61.0259 120.147 61.359 120.48 61.7699 120.48H69.1679C69.5788 120.48 69.9119 120.147 69.9119 119.736V119.316C69.9119 118.905 69.5788 118.572 69.1679 118.572Z" fill="#2E353A"/>
<path opacity="0.2" d="M69.1679 118.572H61.7699C61.359 118.572 61.0259 118.905 61.0259 119.316V119.736C61.0259 120.147 61.359 120.48 61.7699 120.48H69.1679C69.5788 120.48 69.9119 120.147 69.9119 119.736V119.316C69.9119 118.905 69.5788 118.572 69.1679 118.572Z" fill="white"/>
<path d="M93.4381 110.265L81.8251 106.134L93.4381 102C93.4939 101.981 93.5452 101.95 93.5892 101.91C93.6331 101.871 93.6689 101.823 93.6944 101.77C93.7199 101.716 93.7346 101.659 93.7377 101.6C93.7408 101.541 93.7323 101.481 93.7126 101.426C93.6929 101.37 93.6624 101.319 93.6229 101.275C93.5834 101.231 93.5356 101.195 93.4822 101.169C93.4289 101.144 93.371 101.129 93.312 101.126C93.2529 101.123 93.1939 101.132 93.1381 101.151L80.4871 105.651L67.8331 101.151C67.7774 101.132 67.7183 101.123 67.6593 101.126C67.6002 101.129 67.5424 101.144 67.489 101.169C67.4357 101.195 67.3879 101.231 67.3483 101.275C67.3088 101.319 67.2783 101.37 67.2586 101.426C67.2389 101.481 67.2304 101.541 67.2335 101.6C67.2367 101.659 67.2514 101.716 67.2769 101.77C67.3024 101.823 67.3381 101.871 67.3821 101.91C67.4261 101.95 67.4774 101.981 67.5331 102L79.1431 106.131L67.5331 110.262C67.4773 110.282 67.426 110.313 67.382 110.352C67.3381 110.392 67.3024 110.44 67.2771 110.494C67.2517 110.547 67.2372 110.605 67.2342 110.664C67.2313 110.723 67.2401 110.782 67.2601 110.838C67.2903 110.926 67.3474 111.003 67.4233 111.056C67.4992 111.11 67.5901 111.139 67.6831 111.138C67.7342 111.139 67.785 111.131 67.8331 111.114L80.4871 106.614L93.1381 111.114C93.1939 111.134 93.2529 111.142 93.312 111.139C93.371 111.136 93.4289 111.121 93.4822 111.096C93.5356 111.07 93.5834 111.035 93.6229 110.991C93.6624 110.947 93.6929 110.895 93.7126 110.84C93.7323 110.784 93.7408 110.725 93.7377 110.666C93.7346 110.607 93.7199 110.549 93.6944 110.496C93.6689 110.442 93.6331 110.394 93.5892 110.355C93.5452 110.315 93.4939 110.285 93.4381 110.265Z" fill="#2E353A"/>
<path opacity="0.3" d="M93.4381 110.265L81.8251 106.134L93.4381 102C93.4939 101.981 93.5452 101.95 93.5892 101.91C93.6331 101.871 93.6689 101.823 93.6944 101.77C93.7199 101.716 93.7346 101.659 93.7377 101.6C93.7408 101.541 93.7323 101.481 93.7126 101.426C93.6929 101.37 93.6624 101.319 93.6229 101.275C93.5834 101.231 93.5356 101.195 93.4822 101.169C93.4289 101.144 93.371 101.129 93.312 101.126C93.2529 101.123 93.1939 101.132 93.1381 101.151L80.4871 105.651L67.8331 101.151C67.7774 101.132 67.7183 101.123 67.6593 101.126C67.6002 101.129 67.5424 101.144 67.489 101.169C67.4357 101.195 67.3879 101.231 67.3483 101.275C67.3088 101.319 67.2783 101.37 67.2586 101.426C67.2389 101.481 67.2304 101.541 67.2335 101.6C67.2367 101.659 67.2514 101.716 67.2769 101.77C67.3024 101.823 67.3381 101.871 67.3821 101.91C67.4261 101.95 67.4774 101.981 67.5331 102L79.1431 106.131L67.5331 110.262C67.4773 110.282 67.426 110.313 67.382 110.352C67.3381 110.392 67.3024 110.44 67.2771 110.494C67.2517 110.547 67.2372 110.605 67.2342 110.664C67.2313 110.723 67.2401 110.782 67.2601 110.838C67.2903 110.926 67.3474 111.003 67.4233 111.056C67.4992 111.11 67.5901 111.139 67.6831 111.138C67.7342 111.139 67.785 111.131 67.8331 111.114L80.4871 106.614L93.1381 111.114C93.1939 111.134 93.2529 111.142 93.312 111.139C93.371 111.136 93.4289 111.121 93.4822 111.096C93.5356 111.07 93.5834 111.035 93.6229 110.991C93.6624 110.947 93.6929 110.895 93.7126 110.84C93.7323 110.784 93.7408 110.725 93.7377 110.666C93.7346 110.607 93.7199 110.549 93.6944 110.496C93.6689 110.442 93.6331 110.394 93.5892 110.355C93.5452 110.315 93.4939 110.285 93.4381 110.265Z" fill="white"/>
<path d="M83.4148 73.4492C83.2955 73.4492 83.181 73.4018 83.0967 73.3174C83.0123 73.233 82.9648 73.1185 82.9648 72.9992V69.5522C82.9649 68.8919 83.2193 68.257 83.6751 67.7794C84.131 67.3018 84.7533 67.018 85.4128 66.9872L88.3169 66.8462C88.4362 66.8406 88.5529 66.8827 88.6412 66.9631C88.7295 67.0436 88.7823 67.1558 88.7879 67.2752C88.7934 67.3945 88.7514 67.5112 88.6709 67.5995C88.5905 67.6879 88.4782 67.7406 88.3589 67.7462L85.4549 67.8872C85.0261 67.9073 84.6216 68.0918 84.3255 68.4025C84.0294 68.7131 83.8644 69.126 83.8648 69.5552V73.0022C83.8641 73.121 83.8163 73.2347 83.732 73.3185C83.6477 73.4022 83.5337 73.4492 83.4148 73.4492Z" fill="#263238"/>
<path d="M68.6968 117.384L71.5798 116.481L71.2078 113.637L70.8628 111.027L67.3198 111.726L68.0458 114.723L68.6968 117.384Z" fill="#AE7461"/>
<path opacity="0.2" d="M68.0667 114.783L71.2227 113.688L70.8687 111.054L67.3257 111.738L68.0667 114.783Z" fill="black"/>
<path d="M71.8258 115.821C71.8258 115.596 68.3038 115.896 68.3038 115.896C68.3038 115.896 66.2038 117.696 64.1038 118.155C62.0038 118.614 63.2278 119.559 65.5738 119.475L71.3788 119.268C73.0588 119.208 71.9788 118.134 71.8258 115.821Z" fill="#2E353A"/>
<path d="M63.2191 92.0701C65.3191 88.4702 76.4701 87.7922 83.8561 87.2852L86.3761 93.7922C86.3761 93.7922 75.3511 93.1921 72.1681 96.7741C69.6391 99.6301 71.3611 112.458 71.3611 112.458L66.6181 112.8C66.6181 112.8 59.508 98.4541 63.2191 92.0701Z" fill="#2E353A"/>
<path opacity="0.2" d="M63.2191 92.0701C65.3191 88.4702 76.4701 87.7922 83.8561 87.2852L86.3761 93.7922C86.3761 93.7922 75.3511 93.1921 72.1681 96.7741C69.6391 99.6301 71.3611 112.458 71.3611 112.458L66.6181 112.8C66.6181 112.8 59.508 98.4541 63.2191 92.0701Z" fill="black"/>
<path d="M74.6968 117.384L77.5798 116.481L77.2078 113.637L76.8598 111.027L73.3198 111.726L74.0458 114.723L74.6968 117.384Z" fill="#AE7461"/>
<path opacity="0.2" d="M74.0667 114.783L77.2257 113.688L76.8687 111.054L73.3257 111.738L74.0667 114.783Z" fill="black"/>
<path d="M84.336 68.7662C85.836 68.0462 89.826 68.6702 90.789 69.5852C91.752 70.5002 87.822 73.1852 85.713 72.8012C83.604 72.4172 83.163 69.3272 84.336 68.7662Z" fill="#407BFF"/>
<path opacity="0.2" d="M84.336 68.7662C85.836 68.0462 89.826 68.6702 90.789 69.5852C91.752 70.5002 87.822 73.1852 85.713 72.8012C83.604 72.4172 83.163 69.3272 84.336 68.7662Z" fill="black"/>
<path d="M76.755 87.2221C76.755 87.2221 79.368 82.1701 79.503 81.7771C80.199 79.7431 92.835 81.5761 92.835 81.5761C92.835 81.5761 96.318 92.1631 91.98 95.2021C88.209 97.8451 79.08 96.6541 77.529 97.1311C76.095 97.5721 75.393 99.1111 77.574 113.454L72.873 113.631C72.873 113.631 65.991 96.5311 66.066 93.4471C66.141 90.3631 65.601 88.9591 76.755 87.2221Z" fill="#2E353A"/>
<path d="M76.9111 86.4783C76.9111 86.4783 80.5921 73.5003 81.9001 70.1463C82.3831 68.9043 93.9661 70.1073 93.9661 70.1073V85.8153C93.9661 85.8153 85.3021 88.8813 82.7701 87.6153C81.9661 87.2103 81.1081 84.4293 81.1081 84.4293C81.1081 84.4293 79.4881 87.4473 78.4861 87.4713C77.9131 87.4803 76.9111 86.4783 76.9111 86.4783Z" fill="#407BFF"/>
<path opacity="0.6" d="M93.9631 70.107V85.815C93.9631 85.815 85.2991 88.881 82.7671 87.615C81.9631 87.21 81.1051 84.429 81.1051 84.429C81.1051 84.429 79.4881 87.447 78.4831 87.471C77.9131 87.486 76.9111 86.484 76.9111 86.484C76.9111 86.484 76.9591 86.31 77.0521 85.995C77.5501 84.246 79.2991 78.15 80.6521 73.851C81.1471 72.279 81.5881 70.947 81.8971 70.152C82.3801 68.904 93.9631 70.107 93.9631 70.107Z" fill="white"/>
<path opacity="0.2" d="M84.0182 76.3948C84.1938 76.3948 84.3362 76.2524 84.3362 76.0768C84.3362 75.9012 84.1938 75.7588 84.0182 75.7588C83.8426 75.7588 83.7002 75.9012 83.7002 76.0768C83.7002 76.2524 83.8426 76.3948 84.0182 76.3948Z" fill="black"/>
<path opacity="0.2" d="M82.9259 79.5569C83.1015 79.5569 83.2439 79.4145 83.2439 79.2389C83.2439 79.0633 83.1015 78.9209 82.9259 78.9209C82.7503 78.9209 82.6079 79.0633 82.6079 79.2389C82.6079 79.4145 82.7503 79.5569 82.9259 79.5569Z" fill="black"/>
<path opacity="0.2" d="M81.6989 83.0794C81.8745 83.0794 82.0169 82.937 82.0169 82.7614C82.0169 82.5857 81.8745 82.4434 81.6989 82.4434C81.5232 82.4434 81.3809 82.5857 81.3809 82.7614C81.3809 82.937 81.5232 83.0794 81.6989 83.0794Z" fill="black"/>
<path opacity="0.2" d="M93.9631 76.8149V85.6049C84.7441 88.7249 82.1851 86.0249 82.1851 86.0249C82.1851 86.0249 87.2371 83.1569 89.3341 82.0889C91.4311 81.0209 91.8361 75.4409 91.8361 75.4409C92.5685 75.8615 93.2785 76.3201 93.9631 76.8149Z" fill="black"/>
<path opacity="0.2" d="M79.4038 81.6542C79.4368 83.4872 79.7278 84.0842 79.8118 84.8972C79.8838 85.6352 79.6678 87.3212 77.0518 85.9892C77.5498 84.2402 79.2988 78.1442 80.6518 73.8452C80.7641 73.893 80.866 73.9623 80.9518 74.0492C80.9518 74.0492 79.3648 79.3892 79.4038 81.6542Z" fill="black"/>
<path d="M90.5189 70.1611C90.5189 70.1611 89.0939 71.3461 87.7589 71.4061C86.4239 71.4661 85.1549 73.4251 85.1549 73.4251C85.1549 73.4251 84.8249 71.4661 84.9119 71.2891C84.8841 71.0499 84.8172 70.8167 84.7139 70.5991C84.5579 70.1251 84.4379 69.5911 84.9119 69.5911C85.7129 69.5911 85.1549 67.9681 85.1549 67.9681L89.6819 66.7231C89.5543 67.1467 89.4689 67.5818 89.4269 68.0221C89.3459 68.9221 89.4809 69.9931 90.5189 70.1611Z" fill="#AE7461"/>
<path opacity="0.2" d="M89.6819 66.7202C89.5543 67.1438 89.4689 67.5789 89.4269 68.0192C88.5269 69.0902 86.9429 70.4582 84.7139 70.5962C84.5579 70.1222 84.4379 69.5882 84.9119 69.5882C85.7129 69.5882 85.1549 67.9652 85.1549 67.9652L89.6819 66.7202Z" fill="black"/>
<path d="M90 70.4282C90 70.4282 87.645 74.5802 87.144 78.0242C87.955 77.9427 88.7721 77.9427 89.583 78.0242C90.504 78.1712 89.841 73.4522 92.016 70.0742L90 70.4282Z" fill="#407BFF"/>
<path opacity="0.2" d="M90 70.4282C90 70.4282 87.645 74.5802 87.144 78.0242C87.955 77.9427 88.7721 77.9427 89.583 78.0242C90.504 78.1712 89.841 73.4522 92.016 70.0742L90 70.4282Z" fill="black"/>
<path d="M84.3357 70.608C84.3357 71.961 85.9557 73.068 88.3857 71.052C90.8157 69.036 91.4637 68.568 92.0637 69.276C92.0637 69.276 92.8767 69.336 93.0057 70.014C92.2871 70.2967 91.6262 70.7085 91.0557 71.229C90.2997 72 87.0177 74.847 84.8997 74.61C82.7817 74.373 82.2657 71.31 83.4717 70.074C83.4717 70.074 83.5167 68.151 85.3497 68.913C85.3617 68.913 84.3357 69.063 84.3357 70.608Z" fill="#407BFF"/>
<path d="M87.1319 78.0243C87.1319 78.0243 86.8319 79.3202 86.9009 79.3772C86.9699 79.4342 87.0839 78.0933 87.3179 78.1923C87.5519 78.2913 87.1229 79.4223 87.3179 79.3923C87.5129 79.3623 87.3029 78.2433 87.5459 78.2223C87.7889 78.2013 87.5129 79.3773 87.6929 79.3923C87.8729 79.4073 87.6929 78.2223 87.9269 78.2223C88.1609 78.2223 87.8519 79.4223 88.0469 79.3923C88.2419 79.3623 88.0889 78.1653 88.3049 78.1653C88.5209 78.1653 88.1879 79.3382 88.4039 79.3952C88.6199 79.4522 88.3859 78.2223 88.6619 78.2223C88.9379 78.2223 88.6019 79.4222 88.7399 79.3952C88.8779 79.3682 88.6619 78.1653 88.9379 78.2223C89.2139 78.2793 88.9199 79.4402 89.0759 79.3952C89.2319 79.3502 88.9379 78.2223 89.2139 78.2823C89.4899 78.3423 89.3939 79.4822 89.4719 79.3983C89.5499 79.3143 89.5169 78.3813 89.6819 78.3603C89.8469 78.3393 89.6819 79.1913 89.9279 79.2603C90.1739 79.3293 89.6819 78.0363 89.6819 78.0363C89.6819 78.0363 88.1189 77.7003 87.1319 78.0243Z" fill="#407BFF"/>
<path d="M87.8547 60.432C85.3287 60.033 84.3027 61.257 83.7087 63.831C83.6907 63.897 83.6637 64.029 83.6637 64.029C82.0917 65.421 83.0127 69.276 86.5887 69.276C91.0347 69.276 92.0517 61.092 87.8547 60.432Z" fill="#AE7461"/>
<path d="M85.3619 63.9482C85.1005 64.2934 84.7983 64.6056 84.4619 64.8782C84.5194 64.9942 84.6078 65.0919 84.7174 65.1608C84.827 65.2296 84.9535 65.2668 85.0829 65.2682L85.3619 63.9482Z" fill="#AE7461"/>
<path d="M86.9429 63.9845C86.9039 64.1915 86.9849 64.3805 87.1229 64.4045C87.2609 64.4285 87.4019 64.2815 87.4409 64.0745C87.4799 63.8675 87.3959 63.6815 87.2579 63.6545C87.1199 63.6275 86.9789 63.7775 86.9429 63.9845Z" fill="#263238"/>
<path d="M87.3149 63.675L86.8979 63.417C86.8979 63.417 87.0539 63.837 87.3149 63.675Z" fill="#263238"/>
<path d="M84.3809 63.4743C84.3419 63.6813 84.4229 63.8703 84.5609 63.8943C84.6989 63.9183 84.8399 63.7713 84.8789 63.5643C84.9179 63.3573 84.8339 63.1713 84.6959 63.1443C84.5579 63.1173 84.4169 63.2673 84.3809 63.4743Z" fill="#263238"/>
<path d="M84.7529 63.1652L84.3359 62.9072C84.3359 62.9072 84.4889 63.3272 84.7529 63.1652Z" fill="#263238"/>
<path d="M88.2778 62.9072C88.2588 62.9082 88.2399 62.9035 88.2234 62.894C88.2069 62.8844 88.1935 62.8702 88.1848 62.8532C88.0752 62.704 87.9333 62.5814 87.7696 62.4946C87.606 62.4079 87.4249 62.3592 87.2398 62.3522C87.2112 62.3522 87.1837 62.3409 87.1635 62.3206C87.1432 62.3003 87.1318 62.2729 87.1318 62.2442C87.1318 62.2156 87.1432 62.1881 87.1635 62.1679C87.1837 62.1476 87.2112 62.1362 87.2398 62.1362C87.4611 62.1418 87.678 62.1989 87.8734 62.3031C88.0687 62.4072 88.237 62.5556 88.3648 62.7362C88.379 62.7609 88.3829 62.7902 88.3756 62.8178C88.3683 62.8453 88.3504 62.8688 88.3258 62.8832C88.3118 62.8947 88.2954 62.9029 88.2778 62.9072Z" fill="#263238"/>
<path d="M84.3839 62.004C84.363 62.0046 84.3424 61.9989 84.3248 61.9877C84.3072 61.9764 84.2933 61.9602 84.2849 61.941C84.2736 61.9147 84.2729 61.885 84.2829 61.8582C84.293 61.8313 84.3131 61.8094 84.3389 61.797C84.5127 61.7042 84.7053 61.6519 84.9023 61.6441C85.0992 61.6363 85.2953 61.6732 85.4759 61.752C85.5014 61.766 85.5203 61.7894 85.5284 61.8173C85.5366 61.8451 85.5333 61.8751 85.5194 61.9005C85.5055 61.926 85.482 61.9449 85.4542 61.953C85.4263 61.9612 85.3964 61.958 85.3709 61.944C85.2204 61.8803 85.0573 61.8517 84.894 61.8606C84.7308 61.8694 84.5717 61.9154 84.4289 61.995L84.3839 62.004Z" fill="#263238"/>
<path d="M94.4639 63.1411C94.0049 62.7391 93.1319 62.9671 92.5019 63.2191C92.5019 63.1921 92.5019 63.1681 92.5019 63.1411C92.518 62.6781 92.4219 62.218 92.2218 61.8002C92.0218 61.3823 91.7236 61.0189 91.3529 60.7411C91.3529 59.7331 90.5729 59.2891 89.7149 59.0221C88.8569 58.7551 88.1099 59.2591 87.1019 58.7851C86.9377 58.6902 86.7561 58.6295 86.5679 58.6065C86.3797 58.5836 86.1888 58.5989 86.0067 58.6516C85.8245 58.7043 85.6549 58.7932 85.5081 58.9131C85.3612 59.0329 85.24 59.1813 85.1519 59.3491C84.8909 59.8231 85.0049 60.5101 84.1649 60.5341C83.3249 60.5581 83.5289 61.3441 83.6909 61.7641C83.8529 62.1841 83.8079 62.0641 83.5409 62.5291C83.3579 62.8471 83.6309 63.0481 83.8259 63.1291C83.7929 63.3511 83.7869 63.4891 83.7869 63.4891C83.8109 63.3691 83.8379 63.2551 83.8679 63.1471C85.0679 58.5781 89.5199 61.2811 89.5199 61.2811C89.0879 62.8561 89.9399 65.1181 89.9399 65.1181C90.3149 66.1231 89.7629 67.1371 89.4149 67.6381C89.3387 67.7503 89.2556 67.8575 89.1659 67.9591C89.3205 67.8659 89.4662 67.7585 89.6009 67.6381C91.4009 67.5751 91.3169 66.5971 91.3139 66.2731C91.3511 66.1216 91.4195 65.9796 91.5149 65.8561C91.8149 66.4381 92.4479 67.2061 93.5729 66.9571C95.3249 66.5791 95.2349 63.8191 94.4639 63.1411Z" fill="#263238"/>
<path d="M85.7339 66.6571C85.5179 66.6552 85.3049 66.606 85.1099 66.5131C85.0841 66.5007 85.064 66.4788 85.0539 66.452C85.0439 66.4251 85.0446 66.3954 85.0559 66.3691C85.0614 66.3558 85.0696 66.3437 85.08 66.3336C85.0903 66.3236 85.1026 66.3158 85.1162 66.3107C85.1297 66.3057 85.1441 66.3034 85.1585 66.3042C85.1729 66.3049 85.187 66.3087 85.1999 66.3151C85.4446 66.4408 85.7268 66.4729 85.9935 66.4055C86.2602 66.3382 86.4932 66.1759 86.6489 65.9491C86.6568 65.9373 86.6669 65.9271 86.6787 65.9192C86.6905 65.9113 86.7037 65.9058 86.7177 65.903C86.7316 65.9002 86.746 65.9002 86.7599 65.9029C86.7738 65.9057 86.7871 65.9112 86.7989 65.9191C86.8107 65.927 86.8209 65.9371 86.8288 65.9489C86.8367 65.9607 86.8422 65.9739 86.845 65.9879C86.8478 66.0018 86.8478 66.0162 86.8451 66.0301C86.8423 66.044 86.8368 66.0573 86.8289 66.0691C86.7038 66.2446 86.5399 66.3889 86.35 66.4909C86.1601 66.5928 85.9493 66.6497 85.7339 66.6571Z" fill="#263238"/>
<path d="M87.3687 65.0401C87.2936 65.0436 87.2187 65.0321 87.1481 65.0063C87.0776 64.9806 87.0128 64.9411 86.9577 64.8901C86.8838 64.8008 86.8297 64.6969 86.7986 64.5853C86.7676 64.4736 86.7605 64.3567 86.7777 64.2421C86.7807 64.2225 86.791 64.2047 86.8066 64.1925C86.8222 64.1802 86.8419 64.1743 86.8617 64.1761C86.8819 64.1791 86.9001 64.1898 86.9124 64.2061C86.9248 64.2224 86.9303 64.2428 86.9277 64.2631C86.9017 64.4481 86.9503 64.6358 87.0627 64.7851C87.1263 64.8358 87.2013 64.8705 87.2812 64.8862C87.3611 64.9019 87.4436 64.898 87.5217 64.8751C87.5315 64.8734 87.5416 64.8737 87.5514 64.8759C87.5611 64.8782 87.5703 64.8824 87.5785 64.8882C87.5866 64.8941 87.5934 64.9016 87.5986 64.9101C87.6038 64.9187 87.6072 64.9282 87.6087 64.9381C87.6122 64.9576 87.6078 64.9777 87.5966 64.994C87.5853 65.0103 87.5681 65.0214 87.5487 65.0251C87.4891 65.0343 87.4289 65.0393 87.3687 65.0401Z" fill="#AE7461"/>
<path d="M84.3536 64.4224C84.2158 64.4173 84.0807 64.3825 83.9576 64.3204C83.9401 64.3108 83.9269 64.2949 83.9208 64.2759C83.9146 64.257 83.916 64.2364 83.9246 64.2184C83.9336 64.2011 83.9489 64.188 83.9674 64.1818C83.9859 64.1757 84.006 64.1769 84.0236 64.1854C84.0916 64.2346 84.1708 64.2662 84.254 64.2772C84.3372 64.2883 84.4219 64.2785 84.5004 64.2488C84.5789 64.219 84.6488 64.1703 84.7038 64.1068C84.7588 64.0434 84.7972 63.9673 84.8156 63.8854C84.8223 63.8681 84.8351 63.8539 84.8516 63.8455C84.8682 63.8371 84.8872 63.8352 84.9051 63.84C84.923 63.8449 84.9385 63.8562 84.9485 63.8717C84.9586 63.8873 84.9625 63.9061 84.9596 63.9244C84.9326 64.0208 84.8865 64.1108 84.8242 64.1891C84.7618 64.2674 84.6844 64.3324 84.5966 64.3804C84.5194 64.4111 84.4366 64.4254 84.3536 64.4224Z" fill="#AE7461"/>
<path d="M87.3149 66.6242C87.2983 66.6241 87.2822 66.6184 87.2691 66.608C87.2561 66.5977 87.2469 66.5834 87.2429 66.5672C87.0449 65.6972 86.0819 65.3432 86.0729 65.3402C86.0542 65.3335 86.039 65.3196 86.0305 65.3015C86.0221 65.2835 86.0211 65.2629 86.0279 65.2442C86.0309 65.2347 86.0358 65.2259 86.0424 65.2184C86.0489 65.2109 86.057 65.2049 86.066 65.2007C86.075 65.1964 86.0848 65.1941 86.0948 65.1939C86.1048 65.1936 86.1147 65.1955 86.1239 65.1992C86.1659 65.1992 87.1739 65.5862 87.3869 66.5342C87.3915 66.5533 87.3884 66.5734 87.3783 66.5903C87.3682 66.6071 87.3519 66.6193 87.3329 66.6242H87.3149Z" fill="#AE7461"/>
<path opacity="0.4" d="M94.4639 63.1411C94.0049 62.7391 93.1319 62.9671 92.5019 63.2191C92.5019 63.1921 92.5019 63.1681 92.5019 63.1411C92.518 62.6781 92.4219 62.218 92.2218 61.8002C92.0218 61.3823 91.7236 61.0189 91.3529 60.7411C91.3529 59.7331 90.5729 59.2891 89.7149 59.0221C88.8569 58.7551 88.1099 59.2591 87.1019 58.7851C86.9377 58.6902 86.7561 58.6295 86.5679 58.6065C86.3797 58.5836 86.1888 58.5989 86.0067 58.6516C85.8245 58.7043 85.6549 58.7932 85.5081 58.9131C85.3612 59.0329 85.24 59.1813 85.1519 59.3491C84.8909 59.8231 85.0049 60.5101 84.1649 60.5341C83.3249 60.5581 83.5289 61.3441 83.6909 61.7641C83.8529 62.1841 83.8079 62.0641 83.5409 62.5291C83.3579 62.8471 83.6309 63.0481 83.8259 63.1291C83.7929 63.3511 83.7869 63.4891 83.7869 63.4891C83.8109 63.3691 83.8379 63.2551 83.8679 63.1471C85.0679 58.5781 89.5199 61.2811 89.5199 61.2811C89.0879 62.8561 89.9399 65.1181 89.9399 65.1181C90.3149 66.1231 89.7629 67.1371 89.4149 67.6381C89.3387 67.7503 89.2556 67.8575 89.1659 67.9591C89.3205 67.8659 89.4662 67.7585 89.6009 67.6381C91.4009 67.5751 91.3169 66.5971 91.3139 66.2731C91.3511 66.1216 91.4195 65.9796 91.5149 65.8561C91.8149 66.4381 92.4479 67.2061 93.5729 66.9571C95.3249 66.5791 95.2349 63.8191 94.4639 63.1411Z" fill="white"/>
<path d="M89.4476 65.5921C89.5179 65.3035 89.6999 65.0545 89.9535 64.8999C90.2072 64.7452 90.5118 64.6975 90.8006 64.7671C91.5686 64.9771 91.7006 66.6421 89.6816 66.7201C89.3996 66.7321 89.2796 66.4351 89.4476 65.5921Z" fill="#AE7461"/>
<g opacity="0.2">
<path opacity="0.2" d="M88.2778 62.9072C88.2588 62.9082 88.2399 62.9035 88.2234 62.894C88.2069 62.8844 88.1935 62.8702 88.1848 62.8532C88.0752 62.704 87.9333 62.5814 87.7696 62.4946C87.606 62.4079 87.4249 62.3592 87.2398 62.3522C87.2112 62.3522 87.1837 62.3409 87.1635 62.3206C87.1432 62.3003 87.1318 62.2729 87.1318 62.2442C87.1318 62.2156 87.1432 62.1881 87.1635 62.1679C87.1837 62.1476 87.2112 62.1362 87.2398 62.1362C87.4611 62.1418 87.678 62.1989 87.8734 62.3031C88.0687 62.4072 88.237 62.5556 88.3648 62.7362C88.379 62.7609 88.3829 62.7902 88.3756 62.8178C88.3683 62.8453 88.3504 62.8688 88.3258 62.8832C88.3118 62.8947 88.2954 62.9029 88.2778 62.9072Z" fill="white"/>
</g>
<g opacity="0.2">
<path opacity="0.2" d="M84.3839 62.004C84.363 62.0046 84.3424 61.9989 84.3248 61.9877C84.3072 61.9764 84.2933 61.9602 84.2849 61.941C84.2736 61.9147 84.2729 61.885 84.2829 61.8582C84.293 61.8313 84.3131 61.8094 84.3389 61.797C84.5127 61.7042 84.7053 61.6519 84.9023 61.6441C85.0992 61.6363 85.2953 61.6732 85.4759 61.752C85.5014 61.766 85.5203 61.7894 85.5284 61.8173C85.5366 61.8451 85.5333 61.8751 85.5194 61.9005C85.5055 61.926 85.482 61.9449 85.4542 61.953C85.4263 61.9612 85.3964 61.958 85.3709 61.944C85.2204 61.8803 85.0573 61.8517 84.894 61.8606C84.7308 61.8694 84.5717 61.9154 84.4289 61.995L84.3839 62.004Z" fill="white"/>
</g>
<path d="M60.7349 102.441C60.7349 102.441 60.7919 93.3633 63.0479 91.0413C65.3039 88.7193 73.6799 87.3003 73.6799 87.3003C73.6799 87.3003 81.4799 86.4873 84.3179 87.9153C87.1559 89.3433 87.1919 96.7503 87.1919 96.7503C87.1919 96.7503 79.6049 95.8953 78.5999 99.3003C77.9682 101.48 77.5048 103.704 77.2139 105.954L60.7349 102.441Z" fill="#407BFF"/>
<path opacity="0.2" d="M71.8258 115.821C71.8258 115.596 68.3038 115.896 68.3038 115.896C68.3038 115.896 66.2038 117.696 64.1038 118.155C62.0038 118.614 63.2278 119.559 65.5738 119.475L71.3788 119.268C73.0588 119.208 71.9788 118.134 71.8258 115.821Z" fill="black"/>
<path d="M77.8258 115.821C77.8108 115.596 74.3038 115.896 74.3038 115.896C74.3038 115.896 72.2038 117.696 70.1038 118.155C68.0038 118.614 69.2278 119.559 71.5738 119.475L77.3788 119.268C79.0588 119.208 77.9788 118.134 77.8258 115.821Z" fill="#2E353A"/>
<path d="M86.5136 84.3003L84.0176 85.5963C83.5509 85.4994 83.0681 85.5128 82.6076 85.6353C81.9326 85.8423 80.6396 86.9913 80.7056 87.4983C80.7716 88.0053 82.7306 87.6603 83.0786 87.7503C83.4266 87.8403 84.1436 87.3903 84.3356 87.3003C84.5276 87.2103 84.5756 86.6133 84.5756 86.6133L86.5136 85.9473V84.3003Z" fill="#AE7461"/>
<path d="M93.9629 70.1074C95.7629 70.5964 96.7889 79.9924 94.9889 82.7614C93.1889 85.5304 85.5659 86.5984 85.5659 86.5984L84.8159 84.6964C84.8159 84.6964 90.6899 82.2604 91.3169 81.0724C91.9439 79.8844 92.2409 77.5144 91.7069 74.6254C91.1729 71.7364 93.9629 70.1074 93.9629 70.1074Z" fill="#407BFF"/>
<path opacity="0.6" d="M93.9629 70.1074C95.7629 70.5964 96.7889 79.9924 94.9889 82.7614C93.1889 85.5304 85.5659 86.5984 85.5659 86.5984L84.8159 84.6964C84.8159 84.6964 90.6899 82.2604 91.3169 81.0724C91.9439 79.8844 92.2409 77.5144 91.7069 74.6254C91.1729 71.7364 93.9629 70.1074 93.9629 70.1074Z" fill="white"/>
<path d="M78.654 83.7212L79.2 85.6202C79.4805 85.8938 79.694 86.2285 79.824 86.5982C79.95 87.0422 79.761 87.4982 79.524 87.5732C78.924 87.7652 77.634 88.0472 77.544 87.7232C77.454 87.3992 77.277 85.9982 77.811 86.0612L77.394 84.5222L78.654 83.7212Z" fill="#AE7461"/>
<path d="M81.8999 70.146C79.8419 70.695 75.6389 77.46 76.2869 81.198C76.9349 84.936 77.5889 85.62 77.5889 85.62L79.2779 84.72C79.2779 84.72 78.3569 80.904 78.9239 79.548C81.6989 72.9 81.8999 70.146 81.8999 70.146Z" fill="#407BFF"/>
<path opacity="0.6" d="M81.8999 70.146C79.8419 70.695 75.6389 77.46 76.2869 81.198C76.9349 84.936 77.5889 85.62 77.5889 85.62L79.2779 84.72C79.2779 84.72 78.3569 80.904 78.9239 79.548C81.6989 72.9 81.8999 70.146 81.8999 70.146Z" fill="white"/>
<path d="M96.0149 73.4492C95.8956 73.4492 95.7811 73.4018 95.6967 73.3174C95.6124 73.233 95.5649 73.1185 95.5649 72.9992V69.5522C95.565 68.8919 95.8194 68.257 96.2752 67.7794C96.7311 67.3018 97.3534 67.018 98.0129 66.9872L100.917 66.8462C101.036 66.8406 101.153 66.8827 101.241 66.9631C101.33 67.0436 101.382 67.1558 101.388 67.2752C101.393 67.3945 101.351 67.5112 101.271 67.5995C101.191 67.6879 101.078 67.7406 100.959 67.7462L98.0549 67.8872C97.6262 67.9073 97.2217 68.0918 96.9256 68.4025C96.6295 68.7131 96.4645 69.126 96.4649 69.5552V73.0022C96.4641 73.121 96.4164 73.2347 96.3321 73.3185C96.2478 73.4022 96.1338 73.4492 96.0149 73.4492Z" fill="#263238"/>
<path d="M95.2891 71.3582V89.9222H81.2071C80.6096 89.9222 80.0365 90.1596 79.614 90.5821C79.1915 91.0046 78.9541 91.5777 78.9541 92.1752V102.204H94.0861C94.8096 102.203 95.5033 101.915 96.0146 101.404C96.5259 100.892 96.8131 100.198 96.8131 99.4742V71.3582C96.8131 71.1561 96.7328 70.9623 96.5899 70.8194C96.447 70.6765 96.2532 70.5962 96.0511 70.5962C95.849 70.5962 95.6552 70.6765 95.5123 70.8194C95.3694 70.9623 95.2891 71.1561 95.2891 71.3582Z" fill="#2E353A"/>
<path opacity="0.4" d="M95.2891 71.3582V89.9222H81.2071C80.6096 89.9222 80.0365 90.1596 79.614 90.5821C79.1915 91.0046 78.9541 91.5777 78.9541 92.1752V102.204H94.0861C94.8096 102.203 95.5033 101.915 96.0146 101.404C96.5259 100.892 96.8131 100.198 96.8131 99.4742V71.3582C96.8131 71.1561 96.7328 70.9623 96.5899 70.8194C96.447 70.6765 96.2532 70.5962 96.0511 70.5962C95.849 70.5962 95.6552 70.6765 95.5123 70.8194C95.3694 70.9623 95.2891 71.1561 95.2891 71.3582Z" fill="white"/>
<path d="M93.3002 96.624H81.6392C80.9822 96.6248 80.3524 96.8862 79.8879 97.3507C79.4233 97.8152 79.162 98.4451 79.1612 99.102V118.476C79.1612 118.77 79.0442 119.053 78.8361 119.261C78.6279 119.469 78.3456 119.586 78.0512 119.586H72.3002C72.1411 119.586 71.9885 119.649 71.8759 119.762C71.7634 119.874 71.7002 120.027 71.7002 120.186C71.7002 120.345 71.7634 120.498 71.8759 120.61C71.9885 120.723 72.1411 120.786 72.3002 120.786H78.0392C78.6514 120.784 79.238 120.541 79.6709 120.108C80.1037 119.675 80.3476 119.088 80.3492 118.476V111.3H93.3002C93.4593 111.3 93.6119 111.237 93.7245 111.124C93.837 111.012 93.9002 110.859 93.9002 110.7V97.224C93.9002 97.0649 93.837 96.9123 93.7245 96.7998C93.6119 96.6872 93.4593 96.624 93.3002 96.624ZM92.7002 110.1H80.3612V99.102C80.3612 98.7631 80.4958 98.438 80.7355 98.1983C80.9752 97.9587 81.3003 97.824 81.6392 97.824H92.7002V110.1Z" fill="#2E353A"/>
<path opacity="0.6" d="M93.3002 96.624H81.6392C80.9822 96.6248 80.3524 96.8862 79.8879 97.3507C79.4233 97.8152 79.162 98.4451 79.1612 99.102V118.476C79.1612 118.77 79.0442 119.053 78.8361 119.261C78.6279 119.469 78.3456 119.586 78.0512 119.586H72.3002C72.1411 119.586 71.9885 119.649 71.8759 119.762C71.7634 119.874 71.7002 120.027 71.7002 120.186C71.7002 120.345 71.7634 120.498 71.8759 120.61C71.9885 120.723 72.1411 120.786 72.3002 120.786H78.0392C78.6514 120.784 79.238 120.541 79.6709 120.108C80.1037 119.675 80.3476 119.088 80.3492 118.476V111.3H93.3002C93.4593 111.3 93.6119 111.237 93.7245 111.124C93.837 111.012 93.9002 110.859 93.9002 110.7V97.224C93.9002 97.0649 93.837 96.9123 93.7245 96.7998C93.6119 96.6872 93.4593 96.624 93.3002 96.624ZM92.7002 110.1H80.3612V99.102C80.3612 98.7631 80.4958 98.438 80.7355 98.1983C80.9752 97.9587 81.3003 97.824 81.6392 97.824H92.7002V110.1Z" fill="white"/>
<path d="M77.5677 118.572H68.0697C67.6588 118.572 67.3257 118.905 67.3257 119.316V119.736C67.3257 120.147 67.6588 120.48 68.0697 120.48H77.5677C77.9786 120.48 78.3117 120.147 78.3117 119.736V119.316C78.3117 118.905 77.9786 118.572 77.5677 118.572Z" fill="#2E353A"/>
<path opacity="0.4" d="M77.5677 118.572H68.0697C67.6588 118.572 67.3257 118.905 67.3257 119.316V119.736C67.3257 120.147 67.6588 120.48 68.0697 120.48H77.5677C77.9786 120.48 78.3117 120.147 78.3117 119.736V119.316C78.3117 118.905 77.9786 118.572 77.5677 118.572Z" fill="white"/>
<path d="M93.2999 124.941C86.8859 124.941 81.6689 118.548 81.6689 110.688C81.6689 102.828 86.8859 96.4385 93.2999 96.4385C99.7139 96.4385 104.928 102.831 104.928 110.688C104.928 118.545 99.6989 124.941 93.2999 124.941ZM93.2999 97.9415C87.7139 97.9415 83.1689 103.662 83.1689 110.691C83.1689 117.72 87.7139 123.444 93.2999 123.444C98.8859 123.444 103.416 117.72 103.416 110.7C103.416 103.68 98.8739 97.9385 93.2999 97.9385V97.9415Z" fill="#2E353A"/>
<path d="M93.3 123.6C87.63 123.6 83.019 117.813 83.019 110.7C83.019 103.587 87.63 97.8003 93.3 97.8003C98.97 97.8003 103.578 103.587 103.578 110.7C103.578 117.813 98.955 123.6 93.3 123.6ZM93.3 99.6003C88.623 99.6003 84.819 104.58 84.819 110.7C84.819 116.82 88.623 121.8 93.3 121.8C97.977 121.8 101.778 116.82 101.778 110.7C101.778 104.58 97.962 99.6003 93.3 99.6003Z" fill="#407BFF"/>
<path d="M93.2876 114.219C94.7954 114.219 96.0176 112.638 96.0176 110.688C96.0176 108.738 94.7954 107.157 93.2876 107.157C91.7799 107.157 90.5576 108.738 90.5576 110.688C90.5576 112.638 91.7799 114.219 93.2876 114.219Z" fill="#407BFF"/>
<path d="M93.5878 98.6885H92.9878V122.691H93.5878V98.6885Z" fill="#407BFF"/>
<path d="M102.669 110.388H83.9067V110.988H102.669V110.388Z" fill="#407BFF"/>
<path d="M86.8897 102.02L86.417 102.389L99.6832 119.363L100.156 118.994L86.8897 102.02Z" fill="#407BFF"/>
<path d="M99.6842 102.01L86.415 118.982L86.8877 119.351L100.157 102.38L99.6842 102.01Z" fill="#407BFF"/>
<path d="M96.6516 99.5417L89.3516 121.654L89.9213 121.842L97.2214 99.7297L96.6516 99.5417Z" fill="#407BFF"/>
<path d="M84.7894 105.752L84.5039 106.28L101.785 115.627L102.07 115.1L84.7894 105.752Z" fill="#407BFF"/>
<path d="M90.0427 99.4837L89.4707 99.665L96.5223 121.908L97.0943 121.727L90.0427 99.4837Z" fill="#407BFF"/>
<path d="M101.839 105.91L84.4561 114.937L84.7325 115.469L102.116 106.443L101.839 105.91Z" fill="#407BFF"/>
<path d="M55.4224 66.4228L58.1224 65.0758C58.1224 65.0758 58.7644 64.2058 58.9384 64.1758C59.1124 64.1458 62.3554 64.5718 62.3554 64.5718C62.3554 64.5718 62.0014 65.6008 61.6834 65.9158C61.3654 66.2308 59.2834 65.8378 59.2834 65.8378L56.6314 67.1428L55.4224 66.4228Z" fill="#B97964"/>
<path d="M53.118 54.36C52.395 55.059 51.717 55.596 52.767 56.565C53.817 57.534 53.619 59.133 52.278 59.847C50.937 60.561 44.217 63 41.73 60.189C39.243 57.378 41.094 55.455 42.33 54.93C43.566 54.405 42.375 53.025 42.261 52.023C42.147 51.021 46.737 46.923 48.879 46.662C51.021 46.401 52.479 48.246 52.44 50.118C52.401 51.99 54.3 53.22 53.118 54.36Z" fill="#263238"/>
<path d="M50.5143 59.4478C50.3673 59.4478 51.3393 65.8828 51.6003 66.8458C51.8613 67.8088 57.2403 65.2198 57.2403 65.2198L58.1103 66.5488C58.1103 66.5488 53.4003 70.5178 51.3603 70.0738C49.3203 69.6298 47.7993 62.5978 47.7993 62.5978L50.5143 59.4478Z" fill="#407BFF"/>
<path opacity="0.7" d="M58.1103 66.5489C58.1103 66.5489 53.4003 70.5179 51.3603 70.0709C50.5443 69.8909 49.8093 68.6489 49.2213 67.2239C48.646 65.7606 48.1807 64.2565 47.8293 62.7239C47.8113 62.6309 47.7993 62.5829 47.7993 62.5829L48.0993 62.2409L49.1943 60.9689L50.5143 59.4419C50.4123 59.6909 51.3513 65.8889 51.6063 66.8309C51.8613 67.7729 57.2463 65.2049 57.2463 65.2049L58.1103 66.5489Z" fill="white"/>
<path opacity="0.2" d="M49.2216 67.224C48.6462 65.7607 48.1809 64.2565 47.8296 62.724C47.9136 62.556 48.0006 62.394 48.0936 62.241C48.3713 61.749 48.7435 61.3168 49.1886 60.969L49.2306 60.939C49.2306 60.939 50.4006 64.308 49.2216 67.224Z" fill="black"/>
<path d="M36.8281 81.2763L45.0811 82.4433L46.5541 61.1523L38.2891 62.1363L36.8281 81.2763Z" fill="#407BFF"/>
<path opacity="0.4" d="M36.8281 81.2763L45.0811 82.4433L46.5541 61.1523L38.2891 62.1363L36.8281 81.2763Z" fill="white"/>
<path d="M40.9054 121.674H38.9224L39.5314 118.932L40.0924 116.415L42.5764 116.034L41.6944 119.019L40.9054 121.674Z" fill="#B97964"/>
<path opacity="0.2" d="M41.6732 119.079L39.5132 118.986L40.0832 116.442L42.5732 116.046L41.6732 119.079Z" fill="black"/>
<path d="M36.7984 121.674H34.8154L35.4244 118.932L35.9854 116.415L38.4694 116.034L37.5874 119.019L36.7984 121.674Z" fill="#B97964"/>
<path opacity="0.2" d="M37.5663 119.079L35.4062 118.986L35.9763 116.442L38.4663 116.046L37.5663 119.079Z" fill="black"/>
<path d="M33.2104 69.2583C33.2104 69.2583 33.1084 69.4713 32.9494 69.8583C32.2024 71.7033 30.1564 77.5323 30.9214 84.2883C31.3744 88.2843 35.7904 95.4753 36.4474 99.3933C37.2124 103.956 35.2084 111.993 35.7244 117.894L38.8774 118.17L39.8284 117.57L42.5284 117.165C42.5284 117.165 49.5664 101.157 49.4284 95.6223C49.3294 91.2753 42.5284 75.6933 42.5284 75.6933L43.1764 69.9303" fill="#263238"/>
<path opacity="0.2" d="M40.3264 117.507L39.8284 117.582L39.0214 118.092C39.5374 116.292 43.9834 100.728 44.0614 97.3018C44.1514 93.6598 38.9614 80.7418 38.9614 80.7418L40.2904 78.3418L40.0894 81.9958C40.0894 81.9958 44.9914 92.0398 45.3784 97.2958C45.7594 102.342 40.7344 116.373 40.3264 117.507Z" fill="black"/>
<path d="M38.364 121.587C38.364 121.368 41.064 121.539 41.064 121.539C41.064 121.539 42.72 123.222 44.325 123.6C45.93 123.978 45.033 124.941 43.239 124.941H38.79C37.515 124.941 38.31 123.855 38.364 121.587Z" fill="#263238"/>
<path d="M41.3553 121.887C41.3469 121.883 41.3397 121.877 41.3343 121.869V121.851C41.3326 121.843 41.3326 121.835 41.3343 121.827C41.3328 121.818 41.3328 121.809 41.3343 121.8C41.3343 121.767 41.5713 121.146 41.9343 120.993C41.989 120.969 42.0483 120.956 42.1083 120.956C42.1683 120.956 42.2275 120.969 42.2823 120.993C42.4053 121.053 42.4653 121.128 42.4593 121.221C42.4593 121.362 42.2613 121.503 42.0423 121.62C42.2446 121.587 42.452 121.61 42.6423 121.686C42.6775 121.705 42.7083 121.731 42.7326 121.762C42.7569 121.794 42.7742 121.83 42.7833 121.869C42.8032 121.917 42.8079 121.971 42.7966 122.022C42.7853 122.073 42.7587 122.119 42.7203 122.154C42.6507 122.202 42.5674 122.225 42.4833 122.22C42.0909 122.175 41.7094 122.062 41.3553 121.887ZM41.6013 121.842C41.9973 122.01 42.5013 122.157 42.6183 122.055C42.6183 122.055 42.6633 122.016 42.6363 121.911C42.6302 121.891 42.6201 121.873 42.6067 121.857C42.5933 121.841 42.5768 121.828 42.5583 121.818C42.4586 121.773 42.3496 121.752 42.2403 121.758C42.025 121.764 41.8108 121.792 41.6013 121.842ZM41.9763 121.125C41.7637 121.262 41.6015 121.464 41.5143 121.701C41.9133 121.551 42.2973 121.341 42.3033 121.221C42.3033 121.185 42.2433 121.149 42.2073 121.131C42.1687 121.113 42.1269 121.103 42.0843 121.101C42.0471 121.102 42.0103 121.11 41.9763 121.125Z" fill="#407BFF"/>
<path d="M38.8774 117.129L43.3324 116.52L42.9604 118.179L39.2824 118.641L38.8774 117.129Z" fill="#407BFF"/>
<path d="M34.257 121.587C34.257 121.368 36.957 121.539 36.957 121.539C36.957 121.539 38.61 123.222 40.215 123.6C41.82 123.978 40.923 124.941 39.129 124.941H34.689C33.408 124.941 34.2 123.855 34.257 121.587Z" fill="#263238"/>
<path d="M37.2512 121.887C37.2415 121.884 37.233 121.878 37.2272 121.869V121.851C37.2255 121.843 37.2255 121.835 37.2272 121.827C37.2244 121.818 37.2244 121.809 37.2272 121.8C37.2272 121.767 37.4642 121.146 37.8272 120.993C37.8819 120.969 37.9412 120.956 38.0012 120.956C38.0611 120.956 38.1204 120.969 38.1752 120.993C38.2982 121.053 38.3582 121.128 38.3522 121.221C38.3522 121.362 38.1542 121.503 37.9352 121.62C38.1374 121.587 38.345 121.61 38.5352 121.686C38.5702 121.706 38.6009 121.732 38.6256 121.763C38.6504 121.795 38.6686 121.831 38.6792 121.869C38.6983 121.918 38.7023 121.971 38.6905 122.022C38.6787 122.073 38.6517 122.119 38.6132 122.154C38.5437 122.202 38.4603 122.225 38.3762 122.22C37.9847 122.175 37.604 122.063 37.2512 121.887ZM37.4972 121.842C37.8932 122.01 38.3972 122.157 38.5112 122.055C38.5112 122.055 38.5562 122.016 38.5292 121.911C38.523 121.891 38.513 121.873 38.4996 121.857C38.4862 121.841 38.4697 121.828 38.4512 121.818C38.3571 121.775 38.2545 121.755 38.1512 121.758C37.9318 121.763 37.7136 121.791 37.5002 121.842H37.4972ZM37.8692 121.125C37.6566 121.262 37.4944 121.464 37.4072 121.701C37.8062 121.551 38.1902 121.341 38.1962 121.221C38.1962 121.185 38.1362 121.149 38.1002 121.131C38.0618 121.113 38.0198 121.102 37.9772 121.101C37.9399 121.102 37.9032 121.11 37.8692 121.125Z" fill="#407BFF"/>
<path d="M35.0732 117.129L39.8282 116.52L39.4322 118.179L35.5052 118.641L35.0732 117.129Z" fill="#407BFF"/>
<path d="M33.7863 67.9619L33.3213 69.3029L42.7053 71.7839L43.2573 70.1999L33.7863 67.9619Z" fill="black"/>
<path d="M37.0067 68.4479L36.5459 68.3135L35.8605 70.6636L36.3213 70.798L37.0067 68.4479Z" fill="#263238"/>
<path d="M40.9797 69.7688L38.9194 69.2524L38.5278 70.8151L40.5881 71.3315L40.9797 69.7688Z" fill="white"/>
<path d="M42.8016 69.7819L42.3408 69.6475L41.655 71.9974L42.1158 72.1319L42.8016 69.7819Z" fill="#263238"/>
<path d="M50.3676 59.4479C49.9676 59.9799 49.5886 60.4799 49.2306 60.9479C47.8626 62.7779 46.8906 64.0769 46.1436 65.1239C45.3068 66.2515 44.5804 67.4571 43.9746 68.7239C43.7316 69.2399 43.4916 69.8009 43.2246 70.4609L33.7866 67.9439C35.5626 61.3439 37.0866 57.8879 37.8456 56.1629L37.8696 56.1089C38.1039 55.5923 38.5135 55.1755 39.0259 54.9322C39.5383 54.6889 40.1203 54.6349 40.6686 54.7799C41.3466 54.9629 42.1386 55.1939 42.8736 55.4429C44.2432 55.9486 45.5755 56.55 46.8606 57.2429C48.081 57.8928 49.253 58.6297 50.3676 59.4479Z" fill="#407BFF"/>
<path d="M40.6682 54.7977C39.4262 54.4707 41.2532 58.8387 44.0762 59.6907C46.8992 60.5427 48.5972 59.4957 48.6002 58.6857C48.6032 57.8757 44.4152 55.7997 40.6682 54.7977Z" fill="#B97964"/>
<path d="M41.4962 54.7168C41.4962 54.7168 42.4442 58.9948 41.4962 62.1358C40.5482 65.2768 32.7962 84.2848 32.7962 84.2848H28.6772C28.6772 84.2848 29.9522 74.9038 33.7772 66.8458C33.7772 66.8458 37.2152 56.0188 37.2932 55.5418C37.3712 55.0648 39.2012 54.2998 41.4962 54.7168Z" fill="#407BFF"/>
<path d="M46.8991 57C46.8991 57 47.0221 61.383 45.3991 65.268L45.0781 81.828C45.0781 81.828 46.4101 73.32 46.9981 66.846L50.5111 59.448L46.8991 57Z" fill="#407BFF"/>
<path opacity="0.8" d="M41.4962 62.1359C40.5452 65.2739 32.7962 84.2849 32.7962 84.2849H28.6772C28.6772 84.2849 29.8442 75.7079 33.2972 67.9139C33.4562 67.5569 33.6182 67.1999 33.7862 66.8459C33.7862 66.8459 34.1132 65.8169 34.5662 64.3769C35.5862 61.1519 37.2482 55.8719 37.3022 55.5419C37.3802 55.0679 39.2012 54.2849 41.5022 54.7169C41.4962 54.7169 42.4442 58.9949 41.4962 62.1359Z" fill="white"/>
<path opacity="0.8" d="M46.8991 57C46.8991 57 47.0221 61.383 45.3991 65.268L45.0781 81.828C45.0781 81.828 46.4101 73.32 46.9981 66.846L50.5111 59.448L46.8991 57Z" fill="white"/>
<path d="M47.001 56.6309C47.001 56.6309 48.249 57.6389 49.071 60.3089L47.4 61.4999L47.805 62.5919L45.405 66.4169C45.3011 65.4241 45.366 64.4209 45.597 63.4499C45.975 62.0309 47.115 57.8399 47.001 56.6309Z" fill="#407BFF"/>
<path d="M41.919 54.717C42.798 58.2829 42.2478 62.0512 40.386 65.217C40.386 65.217 40.293 61.227 39.753 59.772L41.04 59.259L38.499 57.6C38.499 57.6 40.56 54.225 41.919 54.717Z" fill="#407BFF"/>
<path opacity="0.7" d="M47.001 56.6309C47.001 56.6309 48.249 57.6389 49.071 60.3089L47.4 61.4999L47.805 62.5919L45.405 66.4169C45.3011 65.4241 45.366 64.4209 45.597 63.4499C45.975 62.0309 47.115 57.8399 47.001 56.6309Z" fill="white"/>
<path opacity="0.7" d="M41.919 54.717C42.798 58.2829 42.2478 62.0512 40.386 65.217C40.386 65.217 40.293 61.227 39.753 59.772L41.04 59.259L38.499 57.6C38.499 57.6 40.56 54.225 41.919 54.717Z" fill="white"/>
<path opacity="0.2" d="M37.2244 69.414C36.2584 69.504 34.5724 68.658 33.2974 67.914C33.4564 67.557 33.6184 67.2 33.7864 66.846C33.7864 66.846 34.1134 65.817 34.5664 64.377C36.1054 66.264 38.4004 69.3 37.2244 69.414Z" fill="black"/>
<path d="M37.9053 75.4471C37.9053 75.4471 38.8383 75.5761 40.6353 73.8571C42.4323 72.1381 44.8353 70.1221 45.4173 70.3981L50.7393 72.9661L43.5603 78.0661L37.9053 75.4471Z" fill="#407BFF"/>
<path opacity="0.7" d="M37.9053 75.4471C37.9053 75.4471 38.8383 75.5761 40.6353 73.8571C42.4323 72.1381 44.8353 70.1221 45.4173 70.3981L50.7393 72.9661L43.5603 78.0661L37.9053 75.4471Z" fill="white"/>
<path d="M38.0401 76.5L45.3931 70.743C45.441 70.7058 45.4981 70.6823 45.5583 70.6749C45.6185 70.6675 45.6796 70.6765 45.7351 70.701L51.2731 73.152C51.2964 73.1626 51.3166 73.1791 51.3316 73.1998C51.3466 73.2205 51.3559 73.2449 51.3586 73.2703C51.3614 73.2958 51.3574 73.3215 51.3471 73.345C51.3369 73.3684 51.3206 73.3888 51.3001 73.404L44.0371 78.81C43.992 78.8435 43.9393 78.8651 43.8838 78.873C43.8282 78.8808 43.7716 78.8747 43.7191 78.855L38.0791 76.74C38.0573 76.7299 38.0384 76.7146 38.0239 76.6955C38.0095 76.6764 37.9999 76.654 37.996 76.6304C37.9922 76.6067 37.9942 76.5824 38.0019 76.5597C38.0095 76.537 38.0227 76.5165 38.0401 76.5Z" fill="#407BFF"/>
<path d="M48.9153 71.934C48.9813 71.835 49.0653 71.634 48.8703 71.547C48.776 71.5195 48.6766 71.5141 48.5798 71.5313C48.483 71.5484 48.3915 71.5877 48.3123 71.646C48.0273 71.514 47.7603 71.388 47.5713 71.304C47.5515 71.2954 47.5295 71.2929 47.5082 71.2966C47.4869 71.3003 47.4671 71.3102 47.4513 71.325L46.9893 71.748C46.9691 71.7668 46.9539 71.7903 46.9451 71.8164C46.9363 71.8425 46.9342 71.8704 46.939 71.8976C46.9438 71.9247 46.9553 71.9503 46.9725 71.9718C46.9896 71.9934 47.0119 72.0103 47.0373 72.021L48.9243 72.828C48.9914 72.8558 49.0648 72.8649 49.1366 72.8543C49.2085 72.8437 49.2761 72.8139 49.3324 72.768L49.7074 72.453C49.7191 72.444 49.7283 72.4321 49.7341 72.4185C49.7399 72.4049 49.7422 72.3901 49.7407 72.3753C49.7392 72.3606 49.734 72.3465 49.7255 72.3344C49.7171 72.3223 49.7056 72.3125 49.6924 72.306L48.9153 71.934ZM48.7893 71.706C48.8493 71.745 48.8043 71.811 48.7593 71.859L48.5373 71.754C48.6213 71.7 48.7323 71.667 48.7893 71.7V71.706Z" fill="#263238"/>
<path d="M39.6005 70.479L40.8275 72.12C40.8275 72.12 42.0275 72.357 42.3275 72.672C42.882 73.2995 43.3752 73.9786 43.8005 74.7C43.9175 75.015 42.1505 75.885 41.9255 75.768C41.7005 75.651 40.4405 73.869 40.2815 73.551C40.2356 73.4502 40.2118 73.3408 40.2118 73.23C40.2118 73.1193 40.2356 73.0098 40.2815 72.909L38.9795 71.409L39.6005 70.479Z" fill="#B97964"/>
<path d="M37.3022 55.542C38.4092 56.142 38.5022 58.524 38.5022 58.524C38.5022 58.524 35.9612 63.453 35.8022 64.224C35.6432 64.995 40.5002 71.253 40.5002 71.253L39.3602 72.315C39.3602 72.315 33.5042 66.039 32.8712 64.515C32.2382 62.991 37.3022 55.542 37.3022 55.542Z" fill="#407BFF"/>
<path opacity="0.7" d="M37.3022 55.542C38.4092 56.142 38.5022 58.524 38.5022 58.524C38.5022 58.524 35.9612 63.453 35.8022 64.224C35.6432 64.995 40.5002 71.253 40.5002 71.253L39.3602 72.315C39.3602 72.315 33.5042 66.039 32.8712 64.515C32.2382 62.991 37.3022 55.542 37.3022 55.542Z" fill="white"/>
<path d="M51.1384 68.0101C51.1384 68.1656 51.0923 68.3175 51.0059 68.4468C50.9196 68.576 50.7968 68.6768 50.6532 68.7363C50.5096 68.7958 50.3515 68.8113 50.1991 68.781C50.0466 68.7507 49.9065 68.6758 49.7966 68.5659C49.6867 68.456 49.6118 68.3159 49.5815 68.1635C49.5512 68.011 49.5667 67.853 49.6262 67.7093C49.6857 67.5657 49.7865 67.4429 49.9157 67.3566C50.045 67.2702 50.197 67.2241 50.3524 67.2241C50.5609 67.2241 50.7608 67.3069 50.9082 67.4543C51.0556 67.6017 51.1384 67.8017 51.1384 68.0101Z" fill="#263238"/>
<g opacity="0.6">
<path opacity="0.6" d="M51.1384 68.0101C51.1384 68.1656 51.0923 68.3175 51.0059 68.4468C50.9196 68.576 50.7968 68.6768 50.6532 68.7363C50.5096 68.7958 50.3515 68.8113 50.1991 68.781C50.0466 68.7507 49.9065 68.6758 49.7966 68.5659C49.6867 68.456 49.6118 68.3159 49.5815 68.1635C49.5512 68.011 49.5667 67.853 49.6262 67.7093C49.6857 67.5657 49.7865 67.4429 49.9157 67.3566C50.045 67.2702 50.197 67.2241 50.3524 67.2241C50.5609 67.2241 50.7608 67.3069 50.9082 67.4543C51.0556 67.6017 51.1384 67.8017 51.1384 68.0101Z" fill="white"/>
</g>
<path d="M47.3613 61.5303C47.3841 61.0452 47.4392 60.5621 47.5263 60.0843C47.8083 58.3023 48.1263 56.2803 45.4623 55.1283C44.6583 54.7803 43.9443 54.7863 43.3413 55.1493C41.9763 55.9713 41.6253 58.3473 41.5563 58.9683C41.3189 58.9402 41.0781 58.9672 40.8528 59.0473C40.6275 59.1275 40.4237 59.2585 40.2573 59.4303C39.2823 60.4713 39.7263 62.8683 39.7473 62.9703C39.7509 62.9895 39.7583 63.0078 39.769 63.0241C39.7797 63.0404 39.7936 63.0544 39.8098 63.0653C39.826 63.0762 39.8442 63.0837 39.8634 63.0875C39.8825 63.0913 39.9022 63.0912 39.9213 63.0873C39.9603 63.08 39.9947 63.0576 40.0172 63.025C40.0397 62.9924 40.0483 62.9523 40.0413 62.9133C40.0413 62.8893 39.6033 60.5673 40.4733 59.6373C40.6274 59.4819 40.8179 59.3676 41.0275 59.3047C41.2372 59.2418 41.4592 59.2324 41.6733 59.2773C41.8984 59.2918 42.1168 59.3599 42.3104 59.4757C42.5039 59.5915 42.6671 59.7518 42.7863 59.9433C43.5393 61.1643 42.6843 63.5973 42.6753 63.6213C42.6628 63.6591 42.6655 63.7003 42.6828 63.7362C42.7002 63.772 42.7309 63.7997 42.7683 63.8133C42.7852 63.8164 42.8025 63.8164 42.8193 63.8133C42.85 63.8125 42.8797 63.8026 42.9047 63.785C42.9298 63.7674 42.9491 63.7428 42.9603 63.7143C42.9963 63.6093 43.8603 61.1223 43.0413 59.7783C42.9109 59.5678 42.7358 59.3885 42.5285 59.2532C42.3211 59.1179 42.0865 59.0299 41.8413 58.9953C41.9103 58.4163 42.2523 56.1393 43.4823 55.3953C43.9983 55.0953 44.6193 55.0953 45.3303 55.3953C47.7813 56.4543 47.4963 58.2723 47.2173 60.0273C47.1281 60.523 47.072 61.0241 47.0493 61.5273C47.0133 63.9273 47.7843 67.8003 50.0163 67.8813V67.5813C47.9463 67.5003 47.3313 63.4713 47.3613 61.5303Z" fill="#263238"/>
<path opacity="0.2" d="M47.3613 61.5303C47.3841 61.0452 47.4392 60.5621 47.5263 60.0843C47.8083 58.3023 48.1263 56.2803 45.4623 55.1283C44.6583 54.7803 43.9443 54.7863 43.3413 55.1493C41.9763 55.9713 41.6253 58.3473 41.5563 58.9683C41.3189 58.9402 41.0781 58.9672 40.8528 59.0473C40.6275 59.1275 40.4237 59.2585 40.2573 59.4303C39.2823 60.4713 39.7263 62.8683 39.7473 62.9703C39.7509 62.9895 39.7583 63.0078 39.769 63.0241C39.7797 63.0404 39.7936 63.0544 39.8098 63.0653C39.826 63.0762 39.8442 63.0837 39.8634 63.0875C39.8825 63.0913 39.9022 63.0912 39.9213 63.0873C39.9603 63.08 39.9947 63.0576 40.0172 63.025C40.0397 62.9924 40.0483 62.9523 40.0413 62.9133C40.0413 62.8893 39.6033 60.5673 40.4733 59.6373C40.6274 59.4819 40.8179 59.3676 41.0275 59.3047C41.2372 59.2418 41.4592 59.2324 41.6733 59.2773C41.8984 59.2918 42.1168 59.3599 42.3104 59.4757C42.5039 59.5915 42.6671 59.7518 42.7863 59.9433C43.5393 61.1643 42.6843 63.5973 42.6753 63.6213C42.6628 63.6591 42.6655 63.7003 42.6828 63.7362C42.7002 63.772 42.7309 63.7997 42.7683 63.8133C42.7852 63.8164 42.8025 63.8164 42.8193 63.8133C42.85 63.8125 42.8797 63.8026 42.9047 63.785C42.9298 63.7674 42.9491 63.7428 42.9603 63.7143C42.9963 63.6093 43.8603 61.1223 43.0413 59.7783C42.9109 59.5678 42.7358 59.3885 42.5285 59.2532C42.3211 59.1179 42.0865 59.0299 41.8413 58.9953C41.9103 58.4163 42.2523 56.1393 43.4823 55.3953C43.9983 55.0953 44.6193 55.0953 45.3303 55.3953C47.7813 56.4543 47.4963 58.2723 47.2173 60.0273C47.1281 60.523 47.072 61.0241 47.0493 61.5273C47.0133 63.9273 47.7843 67.8003 50.0163 67.8813V67.5813C47.9463 67.5003 47.3313 63.4713 47.3613 61.5303Z" fill="white"/>
<path d="M42.981 63.4409L42.567 63.3569C42.567 63.3569 42.267 64.0169 42.51 64.1339C42.753 64.2509 43.119 63.7859 42.981 63.4409Z" fill="#263238"/>
<g opacity="0.6">
<path opacity="0.6" d="M42.981 63.4409L42.567 63.3569C42.567 63.3569 42.267 64.0169 42.51 64.1339C42.753 64.2509 43.119 63.7859 42.981 63.4409Z" fill="white"/>
</g>
<path d="M39.8284 62.7002H40.2484C40.2484 62.7002 40.4284 63.4112 40.1494 63.4712C39.8704 63.5312 39.6214 63.0002 39.8284 62.7002Z" fill="#263238"/>
<g opacity="0.6">
<path opacity="0.6" d="M39.8284 62.7002H40.2484C40.2484 62.7002 40.4284 63.4112 40.1494 63.4712C39.8704 63.5312 39.6214 63.0002 39.8284 62.7002Z" fill="white"/>
</g>
<path d="M50.1812 68.1061C50.4248 68.1061 50.6222 67.9087 50.6222 67.6651C50.6222 67.4216 50.4248 67.2241 50.1812 67.2241C49.9377 67.2241 49.7402 67.4216 49.7402 67.6651C49.7402 67.9087 49.9377 68.1061 50.1812 68.1061Z" fill="#263238"/>
<g opacity="0.7">
<path opacity="0.7" d="M50.1812 68.1061C50.4248 68.1061 50.6222 67.9087 50.6222 67.6651C50.6222 67.4216 50.4248 67.2241 50.1812 67.2241C49.9377 67.2241 49.7402 67.4216 49.7402 67.6651C49.7402 67.9087 49.9377 68.1061 50.1812 68.1061Z" fill="white"/>
</g>
<path d="M44.2739 59.0999C42.6839 57.2999 42.8219 56.0549 42.8219 56.0549C44.9009 55.9859 45.5939 53.2949 45.5939 53.2949L47.3939 55.5959C47.0794 55.8526 46.7837 56.1313 46.5089 56.4299C45.3419 57.7229 45.9089 58.2569 45.9089 58.2569C45.6749 59.3099 44.2739 59.0999 44.2739 59.0999Z" fill="#B97964"/>
<path opacity="0.2" d="M47.4001 55.6081C47.0857 55.8648 46.7899 56.1435 46.5151 56.4421C45.6901 55.2871 45.6001 53.3071 45.6001 53.3071L47.4001 55.6081Z" fill="black"/>
<path d="M49.356 47.118C51.783 47.718 52.251 49.2 51.819 51.747C51.279 54.93 50.043 56.985 47.169 55.578C43.263 53.664 45.321 46.137 49.356 47.118Z" fill="#B97964"/>
<path d="M50.2802 51.231C50.387 51.6408 50.5421 52.0366 50.7422 52.4099C50.6464 52.4928 50.5296 52.5476 50.4047 52.5682C50.2797 52.5889 50.1515 52.5746 50.0342 52.5269L50.2802 51.231Z" fill="#A24E3F"/>
<path d="M48.8431 50.6702C48.7981 50.8712 48.6541 51.0092 48.5191 50.9702C48.3841 50.9312 48.3121 50.7542 48.3571 50.5532C48.4021 50.3522 48.5461 50.2142 48.6781 50.2532C48.8101 50.2922 48.9001 50.4692 48.8431 50.6702Z" fill="#263238"/>
<path d="M48.6211 50.2498L49.0951 50.1748C49.0951 50.1748 48.7981 50.4928 48.6211 50.2498Z" fill="#263238"/>
<path d="M51.3455 51.1741C51.3035 51.3751 51.1595 51.5131 51.0245 51.4741C50.8895 51.4351 50.8175 51.2581 50.8625 51.0571C50.9075 50.8561 51.0515 50.7181 51.1835 50.7571C51.3155 50.7961 51.3905 50.9731 51.3455 51.1741Z" fill="#263238"/>
<path d="M51.126 50.7537L51.6 50.6787C51.6 50.6787 51.3 50.9997 51.126 50.7537Z" fill="#263238"/>
<path d="M48.0846 49.1997C48.0675 49.1998 48.0507 49.1958 48.0355 49.1879C48.0203 49.1801 48.0073 49.1687 47.9976 49.1547C47.9805 49.1314 47.9732 49.1025 47.9771 49.0739C47.981 49.0454 47.9959 49.0195 48.0186 49.0017C48.2027 48.8854 48.4113 48.8137 48.628 48.7924C48.8447 48.771 49.0633 48.8006 49.2666 48.8787C49.2916 48.8902 49.3112 48.9108 49.3216 48.9363C49.3319 48.9618 49.3321 48.9902 49.3222 49.0159C49.3122 49.0415 49.2928 49.0624 49.268 49.0743C49.2432 49.0861 49.2148 49.0881 49.1886 49.0797C49.0195 49.0166 48.8383 48.9925 48.6586 49.0091C48.4789 49.0257 48.3052 49.0826 48.1506 49.1757C48.1315 49.1901 48.1085 49.1984 48.0846 49.1997Z" fill="#263238"/>
<path d="M51.9364 49.857C51.9216 49.857 51.9069 49.8538 51.8935 49.8476C51.88 49.8414 51.868 49.8323 51.8584 49.821C51.7593 49.6965 51.6333 49.596 51.49 49.527C51.3466 49.4579 51.1896 49.422 51.0304 49.422C51.0021 49.4238 50.974 49.415 50.9518 49.3972C50.9296 49.3795 50.9149 49.3541 50.9104 49.326C50.907 49.2978 50.9149 49.2693 50.9323 49.2469C50.9497 49.2244 50.9753 49.2097 51.0034 49.206C51.197 49.201 51.3892 49.2407 51.565 49.3218C51.7408 49.403 51.8956 49.5235 52.0174 49.674C52.0371 49.6946 52.048 49.722 52.048 49.7505C52.048 49.779 52.0371 49.8063 52.0174 49.827C52.0068 49.8374 51.9941 49.8455 51.9802 49.8507C51.9662 49.8559 51.9513 49.858 51.9364 49.857Z" fill="#263238"/>
<path d="M45.7023 50.565C45.7023 50.565 47.3253 48.846 47.5293 47.265C47.5293 47.265 52.8213 46.47 51.8703 51.414C51.8703 51.414 53.3973 47.19 49.2423 46.077C45.0873 44.964 43.6203 51.075 45.3423 53.421C45.3333 53.421 44.7003 51.642 45.7023 50.565Z" fill="#263238"/>
<path d="M45.9755 51.177C46.0206 50.8917 45.9515 50.6 45.783 50.3652C45.6145 50.1305 45.3603 49.9716 45.0755 49.923C44.3015 49.8211 43.5755 51.279 45.3485 52.107C45.6005 52.227 45.8105 51.999 45.9755 51.177Z" fill="#B97964"/>
<path d="M53.3315 52.5C52.7015 51.9 52.7975 50.88 53.2925 49.845C53.7875 48.81 52.5065 48.045 52.5065 48.045C52.5065 48.045 52.4045 46.743 51.4025 46.221C51.2225 46.125 50.3885 46.221 50.3885 46.221C49.2965 45.021 47.5415 44.034 46.1645 45.597C45.3515 46.521 44.5445 45.576 43.2575 47.496C42.3275 48.885 42.9755 50.106 42.7055 50.553C41.4575 52.605 43.0805 53.16 43.4705 53.874C43.4705 53.874 44.3285 53.466 44.2565 53.22C43.6565 51.255 44.6915 49.98 45.4835 50.292C46.2755 50.604 46.8395 50.523 47.4125 49.8C47.9855 49.077 47.5865 48.3 48.9125 48.12C50.2385 47.94 50.3735 47.181 50.3735 47.181C50.3947 47.5185 50.5073 47.8439 50.6991 48.1223C50.8909 48.4008 51.1547 48.6219 51.4625 48.762C52.5695 49.341 52.1345 50.04 51.9785 51.027C51.8225 52.014 52.3115 52.395 53.1785 53.109C54.0455 53.823 53.1305 54.345 53.1305 54.345C53.295 54.2618 53.4361 54.1389 53.5411 53.9873C53.646 53.8357 53.7114 53.6603 53.7314 53.4771C53.7514 53.2938 53.7252 53.1084 53.6554 52.9378C53.5856 52.7672 53.4742 52.6167 53.3315 52.5Z" fill="#263238"/>
<path d="M49.8511 53.628C49.6362 53.8222 49.4357 54.0318 49.2511 54.255L49.1191 54.177C48.5191 53.82 48.3691 53.46 48.3721 53.166C48.3797 53.0238 48.4197 52.8853 48.4891 52.761C48.5272 52.689 48.5746 52.6225 48.6301 52.563C48.899 52.9461 49.2468 53.2673 49.6501 53.505L49.8511 53.628Z" fill="#263238"/>
<path d="M49.6503 53.505L49.4703 53.685C48.9123 53.346 48.5703 53.034 48.4893 52.761C48.5273 52.689 48.5747 52.6225 48.6303 52.563C48.8992 52.9461 49.247 53.2673 49.6503 53.505Z" fill="white"/>
<path d="M49.1191 54.177C48.5191 53.82 48.3691 53.46 48.3721 53.166C48.5958 53.3062 48.7929 53.485 48.9541 53.694C49.0586 53.8336 49.1164 54.0027 49.1191 54.177Z" fill="#DE5753"/>
</svg>
