<svg width="151" height="151" viewBox="0 0 151 151" fill="none" xmlns="http://www.w3.org/2000/svg">
<path d="M140.733 95.5262H91.5664V67.0742H140.733V95.5262ZM91.8664 95.2262H140.433V67.3742H91.8664V95.2262Z" fill="#E0E0E0"/>
<path d="M130.59 82.2456H98.1514V83.1966H130.59V82.2456Z" fill="#F0F0F0"/>
<path d="M132.825 85.7915H98.1514V86.8295H132.825V85.7915Z" fill="#F0F0F0"/>
<path d="M132.825 89.3794H98.1514V90.4174H132.825V89.3794Z" fill="#F0F0F0"/>
<path d="M109.488 77.0942H98.1514V79.5633H109.488V77.0942Z" fill="#F0F0F0"/>
<path d="M140.583 67.2241H91.7251V71.7541H140.583V67.2241Z" fill="#E0E0E0"/>
<path d="M136.824 71.0764C136.761 71.0164 137.391 70.2574 138.228 69.3814C139.065 68.5054 139.8 67.8424 139.86 67.8994C139.92 67.9564 139.293 68.7184 138.456 69.5974C137.619 70.4764 136.884 71.1364 136.824 71.0764Z" fill="white"/>
<path d="M139.867 71.0763C139.807 71.1363 139.075 70.4763 138.235 69.5973C137.395 68.7183 136.768 67.9593 136.831 67.8993C136.894 67.8393 137.623 68.4993 138.463 69.3813C139.303 70.2633 139.924 71.0163 139.867 71.0763Z" fill="white"/>
<path d="M80.2325 10.8813H31.3745V39.0364H80.2325V10.8813Z" fill="#E6E6E6"/>
<path d="M70.2422 25.9053H37.8032V26.8563H70.2422V25.9053Z" fill="#F0F0F0"/>
<path d="M72.4772 29.4512H37.8032V30.4892H72.4772V29.4512Z" fill="#F0F0F0"/>
<path d="M72.4772 33.0396H37.8032V34.0776H72.4772V33.0396Z" fill="#F0F0F0"/>
<path d="M49.1402 20.7544H37.8032V23.2234H49.1402V20.7544Z" fill="#F0F0F0"/>
<path d="M80.2325 10.8813H31.3745V15.4114H80.2325V10.8813Z" fill="#E0E0E0"/>
<path d="M76.3081 14.7124C76.2451 14.6554 76.8751 13.8934 77.7121 13.0174C78.5491 12.1414 79.2841 11.4784 79.3441 11.5384C79.4041 11.5984 78.7771 12.3574 77.9401 13.2334C77.1031 14.1094 76.3681 14.7664 76.3081 14.7124Z" fill="white"/>
<path d="M79.3446 14.7124C79.2846 14.7724 78.5526 14.1125 77.7126 13.2335C76.8726 12.3545 76.2456 11.5985 76.3086 11.5385C76.3716 11.4785 77.1006 12.1385 77.9406 13.0175C78.7806 13.8965 79.4076 14.6554 79.3446 14.7124Z" fill="white"/>
<path d="M61.7283 63.183H12.5703V34.728H61.7283V63.183ZM12.8703 62.883H61.4283V35.028H12.8703V62.883Z" fill="#E0E0E0"/>
<path d="M51.5884 49.9023H19.1494V50.8533H51.5884V49.9023Z" fill="#F0F0F0"/>
<path d="M53.8234 53.4482H19.1494V54.4862H53.8234V53.4482Z" fill="#F0F0F0"/>
<path d="M53.8234 57.0361H19.1494V58.0741H53.8234V57.0361Z" fill="#F0F0F0"/>
<path d="M30.4864 44.7515H19.1494V47.2205H30.4864V44.7515Z" fill="#F0F0F0"/>
<path d="M61.5782 34.8784H12.7202V39.4084H61.5782V34.8784Z" fill="#E0E0E0"/>
<path d="M118.462 69.7026H60.7715V121.351H118.462V69.7026Z" fill="#E6E6E6"/>
<path d="M63.6725 53.4336H18.4805V100.387H63.6725V53.4336Z" fill="#F0F0F0"/>
<path d="M63.6725 53.4336H18.4805V58.5486H63.6725V53.4336Z" fill="#E0E0E0"/>
<path d="M22.2125 55.9382C22.2042 56.1237 22.1417 56.3027 22.0327 56.453C21.9236 56.6032 21.7729 56.7182 21.5991 56.7836C21.4253 56.8489 21.2361 56.8618 21.0551 56.8206C20.8741 56.7794 20.7091 56.686 20.5807 56.5519C20.4523 56.4178 20.3661 56.2489 20.3328 56.0663C20.2995 55.8836 20.3205 55.6952 20.3933 55.5244C20.4662 55.3536 20.5875 55.208 20.7424 55.1056C20.8973 55.0031 21.0788 54.9484 21.2645 54.9482C21.5212 54.9545 21.765 55.0622 21.9427 55.2477C22.1203 55.4332 22.2173 55.6815 22.2125 55.9382V55.9382Z" fill="white"/>
<path d="M26.0614 55.9382C26.0537 56.1246 25.9914 56.3046 25.8823 56.4559C25.7731 56.6071 25.6218 56.7229 25.4474 56.7888C25.2729 56.8548 25.0829 56.868 24.901 56.8267C24.7191 56.7855 24.5533 56.6917 24.4243 56.557C24.2953 56.4223 24.2087 56.2526 24.1754 56.0691C24.1421 55.8855 24.1635 55.6963 24.237 55.5248C24.3104 55.3533 24.4327 55.2073 24.5885 55.1048C24.7443 55.0022 24.9268 54.9478 25.1134 54.9482C25.3701 54.9545 25.6139 55.0622 25.7916 55.2477C25.9692 55.4332 26.0662 55.6815 26.0614 55.9382V55.9382Z" fill="white"/>
<path d="M29.9105 55.9382C29.9028 56.1246 29.8405 56.3046 29.7314 56.4559C29.6222 56.6071 29.471 56.7229 29.2965 56.7888C29.122 56.8548 28.932 56.868 28.7501 56.8267C28.5682 56.7855 28.4024 56.6917 28.2734 56.557C28.1444 56.4223 28.0579 56.2526 28.0246 56.0691C27.9913 55.8855 28.0127 55.6963 28.0861 55.5248C28.1595 55.3533 28.2818 55.2073 28.4376 55.1048C28.5934 55.0022 28.776 54.9478 28.9625 54.9482C29.2192 54.9545 29.4631 55.0622 29.6407 55.2477C29.8183 55.4332 29.9153 55.6815 29.9105 55.9382V55.9382Z" fill="white"/>
<path d="M134.28 21.1504H76.5903V78.6484H134.28V21.1504Z" fill="#F0F0F0"/>
<path d="M134.28 21.1504H76.5903V27.8854H134.28V21.1504Z" fill="#E0E0E0"/>
<path d="M81.5043 24.4505C81.4937 24.6954 81.4114 24.9317 81.2677 25.1302C81.124 25.3287 80.9251 25.4806 80.6958 25.5671C80.4665 25.6535 80.2168 25.6707 79.9778 25.6165C79.7388 25.5623 79.5209 25.4391 79.3513 25.2622C79.1818 25.0853 79.0679 24.8625 79.0238 24.6214C78.9797 24.3803 79.0075 24.1316 79.1035 23.9061C79.1996 23.6807 79.3598 23.4884 79.5642 23.3532C79.7686 23.2179 80.0082 23.1457 80.2533 23.1455C80.592 23.1534 80.9138 23.2951 81.1482 23.5397C81.3827 23.7843 81.5107 24.1118 81.5043 24.4505V24.4505Z" fill="white"/>
<path d="M86.2054 23.5682C86.3717 23.7488 86.4812 23.9743 86.5203 24.2167C86.5593 24.4591 86.5261 24.7077 86.4249 24.9314C86.3237 25.155 86.1589 25.344 85.951 25.4747C85.7431 25.6054 85.5014 25.672 85.256 25.6663C85.0105 25.6605 84.7722 25.5827 84.5707 25.4425C84.3691 25.3022 84.2133 25.1058 84.1226 24.8776C84.0319 24.6495 84.0104 24.3997 84.0607 24.1594C84.111 23.919 84.2309 23.6988 84.4054 23.5262C84.6499 23.2935 84.9767 23.1673 85.3141 23.1752C85.6515 23.183 85.972 23.3244 86.2054 23.5682V23.5682Z" fill="white"/>
<path d="M91.6385 24.4505C91.628 24.6954 91.5457 24.9317 91.402 25.1302C91.2582 25.3287 91.0594 25.4806 90.83 25.5671C90.6007 25.6535 90.3511 25.6707 90.1121 25.6165C89.873 25.5623 89.6552 25.4391 89.4856 25.2622C89.316 25.0853 89.2021 24.8625 89.1581 24.6214C89.114 24.3803 89.1417 24.1316 89.2378 23.9061C89.3339 23.6807 89.4941 23.4884 89.6985 23.3532C89.9029 23.2179 90.1425 23.1457 90.3875 23.1455C90.7263 23.1534 91.0481 23.2951 91.2825 23.5397C91.517 23.7843 91.645 24.1118 91.6385 24.4505V24.4505Z" fill="white"/>
<path d="M121.819 136.605C121.819 136.647 100.987 136.683 75.2976 136.683C49.6086 136.683 28.7676 136.647 28.7676 136.605C28.7676 136.563 49.5966 136.527 75.2976 136.527C100.999 136.527 121.819 136.566 121.819 136.605Z" fill="#263238"/>
<path d="M101.521 99.8798C96.8855 96.6428 95.8355 90.6338 96.0185 85.2308C96.0485 84.3308 95.9495 83.3768 96.3785 82.5878C96.8075 81.7988 97.8095 81.2558 98.6165 81.6338C99.2855 81.9488 99.5765 82.7288 99.9515 83.3738C100.452 84.2329 101.185 84.9329 102.067 85.3928C102.64 85.6928 103.351 85.8728 103.918 85.5608C104.698 85.1318 104.788 84.0608 104.782 83.1608C104.782 81.4868 104.772 79.8148 104.752 78.1448C104.698 77.2481 104.789 76.3485 105.022 75.4808C105.301 74.6288 105.922 73.8398 106.771 73.5998C107.62 73.3598 108.679 73.8548 108.871 74.7308C108.904 75.1018 108.913 75.4746 108.898 75.8468C108.922 76.2218 109.096 76.6328 109.447 76.7468C109.798 76.8608 110.164 76.5998 110.434 76.3358C111.358 75.4358 111.988 74.2628 112.573 73.1048C113.158 71.9468 113.731 70.7558 114.571 69.7688C115.411 68.7818 116.572 67.9988 117.87 67.9238C119.169 67.8488 120.523 68.6468 120.847 69.9068C121.171 71.1668 120.436 72.4538 119.647 73.4768C118.456 74.9953 117.052 76.3341 115.48 77.4518C115.172 77.6195 114.927 77.8813 114.781 78.1988C114.586 78.7988 115.153 79.3988 115.744 79.5878C116.413 79.8098 117.139 79.7408 117.844 79.8248C118.549 79.9088 119.298 80.2148 119.565 80.8748C119.931 81.7928 119.164 82.7528 118.411 83.3828C116.899 84.6428 115.182 85.6342 113.335 86.3138C112.675 86.5538 111.982 86.7668 111.448 87.2288C110.914 87.6908 110.596 88.4978 110.917 89.1308C111.238 89.7638 112.063 89.9648 112.756 89.8358C113.449 89.7068 114.064 89.3348 114.724 89.0858C115.957 88.6208 117.547 88.7048 118.324 89.7698C118.564 90.1367 118.717 90.5543 118.769 90.99C118.821 91.4257 118.771 91.8675 118.624 92.2808C118.323 93.1032 117.861 93.8571 117.265 94.4978C115.3 96.8454 112.747 98.6292 109.867 99.6668C107.008 100.657 104.359 100.927 101.518 99.8858" fill="#407BFF"/>
<path d="M119.527 68.6646C119.527 68.6646 119.5 68.6946 119.44 68.7486L119.173 68.9855C118.939 69.1955 118.594 69.5016 118.159 69.9066C116.925 71.0517 115.78 72.2882 114.733 73.6056C114.064 74.4366 113.371 75.3785 112.633 76.4015C111.895 77.4245 111.133 78.5286 110.377 79.7016C109.571 80.9385 108.832 82.2184 108.166 83.5356C107.818 84.2226 107.512 84.9395 107.197 85.6715L106.267 87.9065C105.041 90.7218 103.973 93.6032 103.069 96.5375C102.34 98.9384 101.838 101.402 101.569 103.897C101.394 105.58 101.366 107.275 101.485 108.964C101.533 109.564 101.578 110.023 101.62 110.335C101.638 110.485 101.65 110.605 101.662 110.692V110.815C101.649 110.776 101.64 110.735 101.635 110.695C101.62 110.608 101.602 110.491 101.578 110.341C101.524 110.041 101.467 109.567 101.413 108.967C101.268 107.275 101.278 105.574 101.443 103.885C101.695 101.379 102.186 98.9042 102.91 96.4925C103.806 93.55 104.871 90.6613 106.099 87.8405L107.053 85.6145C107.368 84.8855 107.677 84.1625 108.028 83.4725C108.699 82.1514 109.443 80.8685 110.257 79.6295C111.025 78.4295 111.799 77.3436 112.528 76.3296C113.257 75.3156 113.962 74.3675 114.628 73.5396C115.686 72.2257 116.846 70.9978 118.099 69.8675C118.543 69.4685 118.897 69.1685 119.137 68.9675L119.416 68.7425C119.45 68.7128 119.487 68.6866 119.527 68.6646V68.6646Z" fill="#263238"/>
<path d="M108.067 83.4671C108.024 83.3435 107.995 83.2158 107.98 83.0861C107.932 82.8371 107.878 82.4861 107.815 82.0301C107.686 81.1301 107.554 79.8971 107.413 78.5321C107.272 77.1671 107.113 75.9311 106.981 75.0401C106.912 74.5961 106.852 74.2391 106.81 73.9901C106.777 73.8627 106.76 73.7317 106.759 73.6001C106.81 73.7203 106.848 73.8462 106.87 73.9751C106.936 74.2211 107.011 74.5751 107.095 75.0221C107.266 75.9221 107.434 77.1461 107.575 78.5141C107.716 79.8821 107.836 81.0821 107.929 82.0151C107.974 82.4351 108.013 82.7921 108.043 83.0771C108.066 83.2057 108.074 83.3366 108.067 83.4671V83.4671Z" fill="#263238"/>
<path d="M119.61 81.3123C119.464 81.3441 119.316 81.3622 119.166 81.3663C118.866 81.3933 118.44 81.4293 117.912 81.4893C116.856 81.6033 115.404 81.8133 113.811 82.1133C112.218 82.4133 110.787 82.7523 109.758 83.0133C109.245 83.1453 108.831 83.2653 108.558 83.3463C108.413 83.3981 108.262 83.4343 108.108 83.4543C108.247 83.3846 108.392 83.3274 108.54 83.2833C108.822 83.1843 109.23 83.0463 109.74 82.8993C110.763 82.5993 112.194 82.2423 113.793 81.9363C115.148 81.6773 116.515 81.4871 117.888 81.3663C118.419 81.3213 118.848 81.3033 119.148 81.2973C119.303 81.2868 119.457 81.2919 119.61 81.3123Z" fill="#263238"/>
<path d="M103.056 96.2827C103.024 96.2393 102.998 96.1919 102.978 96.1417L102.78 95.7247C102.609 95.3617 102.378 94.8247 102.102 94.1677C101.544 92.8477 100.833 90.9997 100.077 88.9477C99.3215 86.8957 98.6255 85.0477 98.0975 83.7127C97.8395 83.0647 97.6265 82.5337 97.4675 82.1377L97.2995 81.7087C97.2762 81.6593 97.26 81.6067 97.2515 81.5527C97.2834 81.5962 97.3097 81.6436 97.3295 81.6937L97.5275 82.1107C97.6955 82.4737 97.9295 83.0107 98.2055 83.6677C98.7635 84.9877 99.4745 86.8357 100.23 88.8877C100.986 90.9397 101.682 92.7877 102.21 94.1227C102.468 94.7707 102.681 95.3017 102.837 95.6977C102.906 95.8687 102.963 95.9977 103.008 96.1267C103.032 96.1762 103.048 96.2287 103.056 96.2827V96.2827Z" fill="#263238"/>
<path d="M118.381 91.3418C118.333 91.3694 118.281 91.3905 118.228 91.4048L117.784 91.5548L116.143 92.0858C114.757 92.5358 112.843 93.1778 110.743 93.8858C108.643 94.5938 106.72 95.2238 105.325 95.6438C104.629 95.8568 104.062 96.0188 103.669 96.1268L103.216 96.2438C103.163 96.2605 103.109 96.2716 103.054 96.2768C103.102 96.2492 103.153 96.228 103.207 96.2138L103.651 96.0638L105.292 95.5328C106.678 95.0828 108.592 94.4408 110.692 93.7328C112.792 93.0248 114.712 92.3948 116.107 91.9748C116.806 91.7618 117.37 91.5998 117.766 91.4918L118.219 91.3748C118.271 91.3581 118.326 91.347 118.381 91.3418V91.3418Z" fill="#263238"/>
<path d="M112.129 18.5709L110.584 19.1229L109.921 17.1039C108.703 13.3809 104.821 11.4039 101.254 12.6609C97.6867 13.9179 95.7877 18.0009 97.0057 21.7239L97.6687 23.7429L96.1177 24.2979C95.5263 24.5273 95.046 24.9758 94.7767 25.5501C94.5074 26.1245 94.4698 26.7805 94.6717 27.3819L98.9707 40.5189C99.0599 40.8166 99.2081 41.0933 99.4064 41.3326C99.6047 41.5719 99.8491 41.7689 100.125 41.9119C100.401 42.0549 100.703 42.141 101.013 42.165C101.322 42.1891 101.634 42.1506 101.929 42.0519L117.94 36.3249C118.539 36.0959 119.026 35.6434 119.299 35.0627C119.571 34.4819 119.608 33.8181 119.401 33.2109L115.099 20.0739C115.007 19.777 114.857 19.5016 114.656 19.2642C114.456 19.0267 114.21 18.832 113.933 18.6918C113.656 18.5515 113.353 18.4685 113.043 18.4477C112.733 18.4269 112.422 18.4688 112.129 18.5709V18.5709ZM99.9247 20.6709C99.5963 19.7028 99.6552 18.6453 100.089 17.7197C100.523 16.7942 101.298 16.0725 102.253 15.7059C102.724 15.5447 103.223 15.48 103.719 15.5158C104.216 15.5516 104.701 15.687 105.144 15.9141C105.587 16.1412 105.98 16.4552 106.299 16.8374C106.618 17.2197 106.857 17.6623 107.002 18.1389L107.662 20.1579L100.585 22.6899L99.9247 20.6709ZM108.925 32.3289L110.023 35.6829C110.043 35.7501 110.036 35.8226 110.005 35.8851C109.973 35.9477 109.918 35.9956 109.852 36.0189L108.313 36.5679C108.251 36.5849 108.186 36.5775 108.13 36.5473C108.074 36.5171 108.032 36.4664 108.013 36.4059L106.906 33.0669C106.295 33.0336 105.71 32.8147 105.227 32.4394C104.745 32.0641 104.388 31.5503 104.206 30.9669C103.945 30.1956 103.992 29.3532 104.339 28.6162C104.685 27.8792 105.303 27.3046 106.063 27.0129C106.438 26.8846 106.835 26.8333 107.231 26.8618C107.627 26.8904 108.012 26.9983 108.365 27.1792C108.718 27.36 109.031 27.6101 109.286 27.9145C109.54 28.2189 109.73 28.5713 109.846 28.9509C110.039 29.5435 110.055 30.1796 109.892 30.7812C109.729 31.3828 109.394 31.9238 108.928 32.3379L108.925 32.3289Z" fill="#407BFF"/>
<path d="M110.515 19.0875C110.515 19.1295 107.65 20.2065 104.086 21.4875C100.522 22.7685 97.6147 23.7975 97.5997 23.7675C97.5847 23.7375 100.465 22.6515 104.032 21.3675C107.599 20.0835 110.5 19.0485 110.515 19.0875Z" fill="#263238"/>
<path d="M113.916 19.6392C113.93 19.6652 113.941 19.6923 113.949 19.7202C113.973 19.7802 114 19.8582 114.036 19.9542C114.114 20.1732 114.222 20.4762 114.357 20.8542L115.509 24.2082C115.989 25.6302 116.562 27.3162 117.198 29.1882C117.498 30.1272 117.852 31.1052 118.182 32.1342C118.359 32.6644 118.435 33.2229 118.407 33.7812C118.382 34.0715 118.299 34.3539 118.164 34.6122C118.02 34.8696 117.828 35.0967 117.597 35.2812C117.134 35.6195 116.62 35.8818 116.073 36.0582L114.528 36.6132L111.603 37.6602L106.65 39.4242L103.305 40.6002L102.405 40.9002L102.165 40.9782C102.14 40.9896 102.112 40.9967 102.084 40.9992C102.084 40.9992 102.108 40.9992 102.159 40.9632L102.393 40.8702L103.293 40.5312L106.62 39.3072L111.564 37.5072L114.483 36.4512L116.028 35.8932C116.559 35.7239 117.059 35.4696 117.507 35.1402C117.722 34.969 117.901 34.7582 118.035 34.5192C118.163 34.2803 118.239 34.0179 118.26 33.7482C118.288 33.2103 118.215 32.6721 118.044 32.1612C117.72 31.1412 117.378 30.1542 117.069 29.2152C116.445 27.3402 115.869 25.6482 115.413 24.2262C114.957 22.8042 114.573 21.6612 114.309 20.8572C114.183 20.4642 114.087 20.1582 114.009 19.9362L113.937 19.6962C113.928 19.678 113.921 19.6589 113.916 19.6392V19.6392Z" fill="#263238"/>
<path d="M105.469 15.5016C105.469 15.5016 105.31 15.4236 105.016 15.3036C104.597 15.1426 104.154 15.0533 103.705 15.0396C103.04 15.0168 102.378 15.1418 101.767 15.4056C101.024 15.7341 100.389 16.2654 99.9338 16.9386C99.476 17.6098 99.2304 18.4031 99.2288 19.2156C99.235 19.8815 99.3361 20.5431 99.5288 21.1806C99.6848 21.7266 99.8468 22.1616 99.9548 22.4646C100.019 22.6185 100.071 22.7769 100.111 22.9386C100.026 22.7947 99.9543 22.643 99.8978 22.4856C99.7748 22.1856 99.5978 21.7596 99.4238 21.2106C99.2102 20.5664 99.0939 19.894 99.0788 19.2156C99.0708 18.3724 99.3221 17.5471 99.7988 16.8516C100.269 16.1538 100.931 15.606 101.704 15.2736C102.334 15.0083 103.016 14.8913 103.699 14.9316C104.157 14.9549 104.608 15.0617 105.028 15.2466C105.14 15.2984 105.248 15.3586 105.352 15.4266C105.394 15.4453 105.434 15.4706 105.469 15.5016V15.5016Z" fill="#263238"/>
<path d="M105.607 27.241C105.655 27.212 105.705 27.1869 105.757 27.166C105.907 27.0983 106.063 27.0431 106.222 27.001C106.475 26.9264 106.736 26.8821 106.999 26.869C107.357 26.8498 107.715 26.9039 108.052 27.028C108.82 27.298 109.525 28.081 109.873 29.128C110.04 29.6899 110.04 30.2882 109.873 30.85C109.688 31.4599 109.356 32.0151 108.907 32.467L108.925 32.386C109.324 33.481 109.759 34.669 110.209 35.908L110.236 35.983L110.161 36.01L109.474 36.238L107.974 36.739L107.899 36.763L107.875 36.688C107.464 35.446 107.014 34.288 106.675 33.151L106.741 33.202C106.154 33.1533 105.595 32.9332 105.133 32.569C104.715 32.2469 104.372 31.8374 104.128 31.369C103.908 30.9537 103.798 30.4888 103.81 30.019C103.824 29.5389 103.944 29.0677 104.161 28.6393C104.378 28.2109 104.688 27.8359 105.067 27.541C105.223 27.4143 105.398 27.3131 105.586 27.241C105.416 27.3416 105.252 27.4507 105.094 27.568C104.677 27.9205 104.358 28.3739 104.167 28.885C104.003 29.2704 103.926 29.6874 103.942 30.106C103.958 30.5245 104.067 30.9344 104.26 31.306C104.5 31.7566 104.834 32.1496 105.241 32.458C105.682 32.8042 106.215 33.0128 106.774 33.058H106.825L106.84 33.103C107.17 34.219 107.623 35.386 108.04 36.634L107.941 36.586L109.441 36.085L110.125 35.854L110.077 35.956C109.63 34.717 109.198 33.526 108.802 32.431V32.386L108.838 32.35C109.274 31.9168 109.599 31.3847 109.786 30.799C109.945 30.2616 109.945 29.6895 109.786 29.152C109.459 28.144 108.784 27.379 108.052 27.109C107.728 26.9841 107.382 26.9259 107.035 26.938C106.776 26.944 106.518 26.9792 106.267 27.043C105.82 27.154 105.61 27.256 105.607 27.241Z" fill="#263238"/>
<path d="M96.3336 113.863L66.3666 113.725C64.6361 113.715 62.98 113.019 61.7622 111.789C60.5444 110.56 59.8645 108.897 59.8716 107.167L60.1896 32.0435C60.1932 31.1861 60.3657 30.3378 60.6972 29.5471C61.0288 28.7565 61.5129 28.0389 62.122 27.4354C62.731 26.8319 63.453 26.3544 64.2467 26.0301C65.0404 25.7058 65.8903 25.5412 66.7476 25.5455L96.7116 25.6835C98.4422 25.6922 100.099 26.3875 101.317 27.6165C102.535 28.8456 103.216 30.5079 103.21 32.2385L102.892 107.359C102.888 108.216 102.716 109.065 102.384 109.856C102.053 110.647 101.569 111.365 100.96 111.969C100.351 112.573 99.6287 113.051 98.835 113.376C98.0413 113.701 97.1913 113.866 96.3336 113.863V113.863Z" fill="#455A64"/>
<path d="M96.6668 28.2666H90.8588C90.6692 28.2701 90.4823 28.311 90.3086 28.3867C90.1348 28.4625 89.9777 28.5718 89.8462 28.7083C89.7147 28.8448 89.6114 29.0059 89.5422 29.1823C89.473 29.3588 89.4392 29.5471 89.4428 29.7366V30.7896C89.4463 30.979 89.4125 31.1672 89.3432 31.3435C89.274 31.5197 89.1706 31.6806 89.0391 31.8169C88.9076 31.9532 88.7504 32.0621 88.5767 32.1376C88.403 32.2131 88.2161 32.2535 88.0268 32.2566L76.7048 32.2056C76.3217 32.1954 75.9584 32.0336 75.6946 31.7557C75.4308 31.4779 75.2881 31.1067 75.2978 30.7236V29.6706C75.3074 29.2881 75.1651 28.9173 74.9019 28.6396C74.6388 28.3618 74.2762 28.1996 73.8937 28.1886H71.8507L66.7657 28.1646C65.5563 28.1574 64.3932 28.6298 63.5312 29.4783C62.6693 30.3267 62.1786 31.4822 62.1667 32.6916L61.8667 106.018C61.864 106.618 61.9794 107.212 62.2065 107.768C62.4336 108.323 62.7678 108.828 63.1901 109.255C63.6124 109.681 64.1146 110.02 64.6679 110.252C65.2211 110.484 65.8147 110.605 66.4147 110.608L96.3188 110.746C96.9192 110.748 97.5142 110.633 98.07 110.406C98.6257 110.178 99.1313 109.844 99.5578 109.421C99.9843 108.999 100.323 108.496 100.556 107.943C100.788 107.389 100.909 106.795 100.912 106.195L101.212 32.8686C101.219 31.6558 100.744 30.4897 99.8919 29.6267C99.0397 28.7638 97.8796 28.2746 96.6668 28.2666V28.2666Z" fill="white"/>
<path d="M92.6437 100.962L70.4077 100.866C70.1767 100.866 69.9907 100.614 69.9937 100.308L70.0177 94.4911C70.0177 94.1911 70.2067 93.9331 70.4377 93.9331L92.6737 94.0351C92.8017 94.0572 92.9162 94.1279 92.9933 94.2325C93.0705 94.337 93.1043 94.4673 93.0877 94.5961L93.0667 100.407C93.0667 100.716 92.8747 100.965 92.6437 100.962Z" fill="#407BFF"/>
<path d="M78.9397 103.71C78.5168 103.71 78.1103 103.643 77.72 103.507C77.3351 103.372 77.0369 103.193 76.8255 102.97L77.0613 102.507C77.2673 102.713 77.5411 102.881 77.8826 103.011C78.2241 103.136 78.5765 103.198 78.9397 103.198C79.4492 103.198 79.8314 103.106 80.0862 102.922C80.341 102.732 80.4683 102.488 80.4683 102.19C80.4683 101.962 80.3979 101.781 80.2569 101.645C80.1214 101.51 79.9534 101.407 79.7528 101.336C79.5522 101.26 79.273 101.179 78.9153 101.092C78.487 100.984 78.1455 100.881 77.8907 100.783C77.6359 100.68 77.4164 100.526 77.2321 100.32C77.0532 100.114 76.9638 99.8345 76.9638 99.4821C76.9638 99.1948 77.0397 98.9346 77.1914 98.7015C77.3432 98.463 77.5763 98.2733 77.8907 98.1323C78.2051 97.9914 78.5954 97.9209 79.0616 97.9209C79.3869 97.9209 79.704 97.967 80.013 98.0592C80.3274 98.1459 80.5984 98.2679 80.8261 98.4251L80.6228 98.9048C80.3843 98.7476 80.1295 98.6311 79.8585 98.5552C79.5875 98.4739 79.3218 98.4332 79.0616 98.4332C78.5629 98.4332 78.1862 98.5308 77.9314 98.7259C77.682 98.9157 77.5573 99.1623 77.5573 99.4659C77.5573 99.6936 77.6251 99.8779 77.7606 100.019C77.9016 100.154 78.075 100.26 78.281 100.336C78.4924 100.406 78.7743 100.485 79.1267 100.572C79.5441 100.675 79.8802 100.778 80.135 100.881C80.3952 100.978 80.6147 101.13 80.7936 101.336C80.9725 101.537 81.0619 101.81 81.0619 102.157C81.0619 102.445 80.9833 102.708 80.8261 102.946C80.6743 103.179 80.4385 103.366 80.1187 103.507C79.7989 103.643 79.4059 103.71 78.9397 103.71ZM82.373 97.9697H82.9747V103.662H82.373V97.9697ZM82.1271 107.97V113.662H81.6311L77.972 109.043V113.662H77.3703V107.97H77.8663L81.5335 112.588V107.97H82.1271ZM81.3791 120.816H81.9564V122.987C81.6907 123.22 81.3763 123.399 81.0131 123.523C80.6499 123.648 80.2678 123.71 79.8666 123.71C79.2974 123.71 78.7852 123.586 78.3298 123.336C77.8745 123.087 77.5167 122.743 77.2565 122.304C76.9963 121.859 76.8662 121.363 76.8662 120.816C76.8662 120.268 76.9963 119.775 77.2565 119.336C77.5167 118.891 77.8745 118.544 78.3298 118.295C78.7852 118.046 79.3002 117.921 79.8748 117.921C80.3084 117.921 80.7069 117.991 81.0701 118.132C81.4333 118.268 81.7395 118.471 81.9889 118.742L81.6149 119.124C81.1649 118.68 80.593 118.458 79.8992 118.458C79.4384 118.458 79.021 118.561 78.6469 118.767C78.2783 118.967 77.9883 119.249 77.7769 119.612C77.5655 119.97 77.4598 120.371 77.4598 120.816C77.4598 121.26 77.5655 121.661 77.7769 122.019C77.9883 122.377 78.2783 122.659 78.6469 122.865C79.0156 123.071 79.4303 123.174 79.891 123.174C80.4765 123.174 80.9725 123.027 81.3791 122.735V120.816ZM79.6633 133.71C78.9261 133.71 78.3515 133.499 77.9395 133.076C77.5275 132.653 77.3215 132.038 77.3215 131.23V127.97H77.9233V131.206C77.9233 131.867 78.0723 132.361 78.3705 132.686C78.6686 133.011 79.0996 133.174 79.6633 133.174C80.2325 133.174 80.6662 133.011 80.9644 132.686C81.2625 132.361 81.4116 131.867 81.4116 131.206V127.97H81.997V131.23C81.997 132.038 81.791 132.653 81.3791 133.076C80.9725 133.499 80.4006 133.71 79.6633 133.71ZM79.5007 137.97C80.2271 137.97 80.7963 138.143 81.2083 138.49C81.6203 138.837 81.8263 139.314 81.8263 139.921C81.8263 140.528 81.6203 141.005 81.2083 141.352C80.7963 141.694 80.2271 141.865 79.5007 141.865H77.972V143.662H77.3703V137.97H79.5007ZM79.4845 141.336C80.0482 141.336 80.4792 141.214 80.7773 140.97C81.0755 140.721 81.2246 140.371 81.2246 139.921C81.2246 139.46 81.0755 139.108 80.7773 138.864C80.4792 138.615 80.0482 138.49 79.4845 138.49H77.972V141.336H79.4845Z" fill="#E8E8E3"/>
<path d="M74.8428 49.8216L67.127 49.7866L67.1205 51.2026L74.8364 51.2376L74.8428 49.8216Z" fill="#407BFF"/>
<path opacity="0.1" d="M74.8428 49.8216L67.127 49.7866L67.1205 51.2026L74.8364 51.2376L74.8428 49.8216Z" fill="black"/>
<path d="M97.4617 58.5156C97.5223 58.5094 97.5819 58.4953 97.6387 58.4736C97.7218 58.4411 97.794 58.3859 97.847 58.3142C97.9001 58.2426 97.9319 58.1574 97.9387 58.0685C97.9387 57.5915 97.9387 56.8955 97.9387 56.0015C97.9387 55.5545 97.9387 55.0535 97.9387 54.5015C97.9387 54.3665 97.9387 54.2255 97.9387 54.0845C97.9583 53.9477 97.9285 53.8084 97.8547 53.6915C97.8134 53.6355 97.7597 53.5898 97.6978 53.5581C97.6358 53.5263 97.5673 53.5093 97.4977 53.5085H97.0297H92.6947L67.6028 53.4155C67.5385 53.4144 67.475 53.4289 67.4175 53.4576C67.3601 53.4863 67.3104 53.5285 67.2728 53.5805C67.2003 53.6979 67.1726 53.8374 67.1948 53.9735C67.1948 54.2735 67.1948 54.5735 67.1948 54.8735C67.1948 55.4735 67.1948 56.0735 67.1948 56.6735C67.1948 56.9735 67.1948 57.2735 67.1948 57.5735C67.1823 57.7133 67.1823 57.8538 67.1948 57.9935C67.2105 58.0535 67.2398 58.1089 67.2804 58.1557C67.3209 58.2026 67.3717 58.2394 67.4288 58.2636C67.4879 58.2871 67.5512 58.2983 67.6148 58.2966H69.1418L75.8048 58.3326L87.0847 58.4016L94.6897 58.4616L96.7567 58.4856H97.2937C97.4167 58.4856 97.4767 58.4856 97.4767 58.4856H97.2937H96.7567H94.6897H87.0847L75.8048 58.4496L69.1418 58.4226H67.6148C67.5307 58.4259 67.4469 58.4116 67.3688 58.3806C67.2898 58.3468 67.2195 58.2955 67.1634 58.2305C67.1072 58.1656 67.0666 58.0886 67.0448 58.0056C67.0274 57.9268 67.0213 57.846 67.0268 57.7656V57.5435C67.0268 57.2435 67.0268 56.9435 67.0268 56.6435C67.0268 56.0435 67.0268 55.4435 67.0268 54.8435C67.0268 54.5435 67.0268 54.2435 67.0268 53.9435C67.021 53.8636 67.021 53.7834 67.0268 53.7035C67.038 53.6153 67.0721 53.5315 67.1258 53.4605C67.1775 53.3881 67.246 53.3293 67.3254 53.2891C67.4048 53.2488 67.4928 53.2284 67.5818 53.2295L92.6737 53.3675L97.0088 53.3975H97.4767C97.5592 53.3976 97.6404 53.4175 97.7135 53.4557C97.7866 53.4938 97.8495 53.549 97.8967 53.6165C97.9813 53.747 98.0155 53.9038 97.9927 54.0575C97.9927 54.1985 97.9927 54.3395 97.9927 54.4745C97.9927 55.0205 97.9927 55.5215 97.9927 55.9745C97.9927 56.8745 97.9717 57.5645 97.9657 58.0445C97.9584 58.1368 97.9249 58.2251 97.8691 58.299C97.8133 58.3729 97.7375 58.4293 97.6507 58.4616C97.594 58.4967 97.5285 58.5154 97.4617 58.5156V58.5156Z" fill="#E0E0E0"/>
<path d="M83.5568 54.9214H69.4448V56.2444H83.5568V54.9214Z" fill="#407BFF"/>
<path opacity="0.2" d="M83.5568 54.9214H69.4448V56.2444H83.5568V54.9214Z" fill="white"/>
<path d="M74.7901 62.7391L67.0742 62.7041L67.0678 64.1201L74.7837 64.1551L74.7901 62.7391Z" fill="#407BFF"/>
<path opacity="0.1" d="M74.7901 62.7391L67.0742 62.7041L67.0678 64.1201L74.7837 64.1551L74.7901 62.7391Z" fill="black"/>
<path d="M97.2669 71.4337C97.3274 71.4262 97.3876 71.4152 97.4469 71.4007C97.5306 71.374 97.6077 71.3297 97.673 71.2707C97.7382 71.2117 97.79 71.1394 97.8248 71.0587C97.8721 70.9375 97.8906 70.8071 97.8789 70.6777C97.8789 70.5337 97.8789 70.3777 97.8789 70.2037C97.8789 69.8557 97.8789 69.4597 97.8789 69.0037V67.0987C97.8932 66.9607 97.8627 66.8219 97.7918 66.7027C97.7179 66.5804 97.6015 66.4896 97.4649 66.4477C97.3154 66.421 97.1633 66.4129 97.0118 66.4237H92.6949L67.6899 66.3307C67.5554 66.331 67.4256 66.3801 67.3246 66.469C67.2236 66.5578 67.1583 66.6803 67.1409 66.8137C67.1409 67.0987 67.1409 67.4137 67.1409 67.7137C67.1409 68.3137 67.1409 68.9137 67.1409 69.5137C67.1409 69.8137 67.1409 70.1137 67.1409 70.4137C67.1297 70.5539 67.1357 70.6949 67.1589 70.8337C67.1963 70.9553 67.2734 71.0609 67.3779 71.1337C67.4887 71.204 67.6188 71.2376 67.7499 71.2297H68.1669H69.0339L75.6729 71.2627L86.9138 71.3317L94.4919 71.3917L96.5528 71.4157H97.0899H97.2699H97.0899H96.5528H94.4919H86.9138L75.6669 71.4037L69.0279 71.3797H67.7229C67.5606 71.3893 67.3996 71.3461 67.2639 71.2567C67.1274 71.1621 67.0277 71.0233 66.9819 70.8637C66.955 70.7112 66.9469 70.5561 66.9579 70.4017C66.9579 70.1017 66.9579 69.8017 66.9579 69.5017C66.9579 68.9017 66.9579 68.3017 66.9579 67.7017C66.9579 67.4017 66.9579 67.1017 66.9579 66.8017C66.9797 66.6301 67.0634 66.4724 67.1932 66.3581C67.3229 66.2438 67.4899 66.1807 67.6629 66.1807L92.6679 66.3187L96.9848 66.3517C97.1456 66.3418 97.307 66.3529 97.4649 66.3847C97.6207 66.4356 97.7522 66.5425 97.8339 66.6847C97.9115 66.8168 97.9451 66.9702 97.9298 67.1227C97.9298 67.2637 97.9298 67.4017 97.9298 67.5397C97.9298 68.0827 97.9298 68.5807 97.9298 69.0397C97.9298 69.4987 97.9298 69.8857 97.9298 70.2397C97.9298 70.4107 97.9298 70.5697 97.9298 70.7167C97.9408 70.8508 97.9191 70.9856 97.8668 71.1097C97.8279 71.1924 97.7716 71.2658 97.7017 71.3249C97.6318 71.3839 97.55 71.4271 97.4618 71.4517C97.3963 71.4571 97.3303 71.451 97.2669 71.4337V71.4337Z" fill="#E0E0E0"/>
<path d="M74.732 76.2181L67.0161 76.1831L67.0097 77.5991L74.7256 77.6341L74.732 76.2181Z" fill="#407BFF"/>
<path opacity="0.1" d="M74.732 76.2181L67.0161 76.1831L67.0097 77.5991L74.7256 77.6341L74.732 76.2181Z" fill="black"/>
<path d="M97.2066 84.9062C97.2673 84.8991 97.3274 84.8881 97.3866 84.8732C97.4701 84.8467 97.5469 84.8028 97.6121 84.7444C97.6772 84.6859 97.7292 84.6143 97.7646 84.5342C97.8117 84.4131 97.8301 84.2827 97.8186 84.1532C97.8186 84.0062 97.8186 83.8532 97.8186 83.6762C97.8186 83.3312 97.8186 82.9322 97.8186 82.4762V80.5713C97.833 80.4333 97.8024 80.2945 97.7316 80.1753C97.6559 80.0552 97.54 79.9659 97.4046 79.9233C97.2553 79.8955 97.1032 79.8865 96.9516 79.8963H92.6346L67.6297 79.8033C67.4952 79.8036 67.3653 79.8527 67.2644 79.9416C67.1634 80.0304 67.0981 80.1529 67.0807 80.2863C67.0807 80.5863 67.0807 80.8863 67.0807 81.1862C67.0807 81.7862 67.0807 82.3862 67.0807 82.9862C67.0807 83.2862 67.0807 83.5862 67.0807 83.8862C67.0695 84.0255 67.0755 84.1655 67.0987 84.3032C67.1346 84.4256 67.212 84.5317 67.3177 84.6032C67.4278 84.6751 67.5585 84.7089 67.6897 84.6992H68.9947L75.6336 84.7352L86.8746 84.8042L94.4526 84.8642L96.5136 84.8882H97.0506C97.1706 84.8882 97.2306 84.8882 97.2306 84.8882C97.2306 84.8882 97.1706 84.8882 97.0506 84.8882H96.5136H94.4526H86.8746L75.6336 84.8552L68.9947 84.8282H67.6897C67.5273 84.8392 67.3658 84.7959 67.2307 84.7052C67.0941 84.6107 66.9945 84.4718 66.9487 84.3122C66.9218 84.1598 66.9137 84.0046 66.9247 83.8502C66.9247 83.5502 66.9247 83.2502 66.9247 82.9502C66.9247 82.3502 66.9247 81.7502 66.9247 81.1503C66.9247 80.8503 66.9247 80.5503 66.9247 80.2353C66.9459 80.064 67.0289 79.9063 67.1582 79.792C67.2875 79.6776 67.4541 79.6144 67.6267 79.6143L92.6316 79.7523L96.9486 79.7853C97.1094 79.7754 97.2707 79.7865 97.4286 79.8183C97.5845 79.8692 97.716 79.9761 97.7976 80.1183C97.8752 80.2504 97.9089 80.4038 97.8936 80.5562C97.8936 80.6972 97.8936 80.8383 97.8936 80.9733C97.8936 81.5163 97.8936 82.0142 97.8936 82.4732C97.8936 82.9322 97.8936 83.3192 97.8936 83.6732C97.8936 83.8442 97.8936 84.0032 97.8936 84.1502C97.9051 84.2844 97.8835 84.4194 97.8306 84.5432C97.7917 84.626 97.7354 84.6994 97.6655 84.7584C97.5956 84.8175 97.5138 84.8607 97.4256 84.8852C97.3553 84.9093 97.2803 84.9165 97.2066 84.9062V84.9062Z" fill="#E0E0E0"/>
<path d="M83.2554 68.2135L69.1436 68.1494L69.1376 69.4724L83.2494 69.5364L83.2554 68.2135Z" fill="#407BFF"/>
<path opacity="0.2" d="M83.2554 68.2135L69.1436 68.1494L69.1376 69.4724L83.2494 69.5364L83.2554 68.2135Z" fill="white"/>
<path d="M70.4199 82.4586C70.411 82.5793 70.367 82.6947 70.2931 82.7906C70.2193 82.8864 70.1189 82.9585 70.0045 82.9978C69.8901 83.0372 69.7666 83.042 69.6494 83.0119C69.5323 82.9817 69.4265 82.9178 69.3453 82.8281C69.2641 82.7384 69.2111 82.6268 69.1927 82.5072C69.1743 82.3876 69.1915 82.2652 69.242 82.1553C69.2926 82.0454 69.3743 81.9527 69.477 81.8887C69.5797 81.8248 69.6989 81.7924 69.8199 81.7956C69.987 81.8049 70.1437 81.8798 70.2561 82.0039C70.3684 82.128 70.4273 82.2914 70.4199 82.4586V82.4586Z" fill="#407BFF"/>
<path d="M72.3307 82.4677C72.3366 82.5523 72.3251 82.6371 72.2967 82.7171C72.2684 82.797 72.224 82.8702 72.1662 82.9322C72.1083 82.9942 72.0384 83.0437 71.9606 83.0775C71.8829 83.1113 71.799 83.1287 71.7142 83.1287C71.6294 83.1287 71.5455 83.1113 71.4678 83.0775C71.39 83.0437 71.3201 82.9942 71.2622 82.9322C71.2044 82.8702 71.16 82.797 71.1317 82.7171C71.1033 82.6371 71.0918 82.5523 71.0977 82.4677C71.0918 82.3831 71.1033 82.2982 71.1317 82.2183C71.16 82.1384 71.2044 82.0651 71.2622 82.0031C71.3201 81.9411 71.39 81.8917 71.4678 81.8579C71.5455 81.8241 71.6294 81.8066 71.7142 81.8066C71.799 81.8066 71.8829 81.8241 71.9606 81.8579C72.0384 81.8917 72.1083 81.9411 72.1662 82.0031C72.224 82.0651 72.2684 82.1384 72.2967 82.2183C72.3251 82.2982 72.3366 82.3831 72.3307 82.4677V82.4677Z" fill="#407BFF"/>
<path d="M74.2446 82.4762C74.2357 82.5969 74.1917 82.7123 74.1178 82.8082C74.044 82.904 73.9436 82.9761 73.8292 83.0154C73.7148 83.0548 73.5913 83.0597 73.4741 83.0295C73.357 82.9993 73.2512 82.9354 73.17 82.8457C73.0888 82.756 73.0358 82.6444 73.0174 82.5248C72.9991 82.4052 73.0162 82.2828 73.0667 82.1729C73.1173 82.063 73.199 81.9703 73.3017 81.9063C73.4044 81.8424 73.5236 81.81 73.6446 81.8132C73.8114 81.8233 73.9677 81.8983 74.0799 82.0223C74.192 82.1462 74.2512 82.3092 74.2446 82.4762Z" fill="#407BFF"/>
<path d="M76.1557 82.4855C76.1469 82.6062 76.1028 82.7216 76.0289 82.8174C75.9551 82.9133 75.8547 82.9854 75.7403 83.0247C75.6259 83.064 75.5024 83.0689 75.3853 83.0387C75.2681 83.0086 75.1624 82.9447 75.0812 82.855C75 82.7652 74.9469 82.6537 74.9285 82.5341C74.9102 82.4145 74.9273 82.2921 74.9779 82.1822C75.0284 82.0722 75.1101 81.9795 75.2128 81.9156C75.3155 81.8517 75.4348 81.8193 75.5557 81.8225C75.7226 81.8326 75.8788 81.9076 75.991 82.0316C76.1032 82.1555 76.1623 82.3185 76.1557 82.4855Z" fill="#407BFF"/>
<path d="M78.0666 82.4913C78.0583 82.6122 78.0147 82.7279 77.9412 82.8242C77.8677 82.9205 77.7675 82.993 77.6531 83.0328C77.5386 83.0726 77.4151 83.0779 77.2977 83.048C77.1803 83.0181 77.0742 82.9544 76.9928 82.8648C76.9113 82.7752 76.8579 82.6636 76.8393 82.5439C76.8208 82.4241 76.8378 82.3016 76.8883 82.1915C76.9387 82.0814 77.0205 81.9885 77.1233 81.9245C77.2261 81.8605 77.3455 81.828 77.4666 81.8313C77.6329 81.8413 77.7887 81.916 77.9008 82.0393C78.0129 82.1626 78.0724 82.3248 78.0666 82.4913Z" fill="#407BFF"/>
<path d="M79.9807 82.5003C79.9725 82.6206 79.9293 82.7358 79.8565 82.8318C79.7837 82.9278 79.6844 83.0004 79.5708 83.0407C79.4572 83.081 79.3344 83.0873 79.2173 83.0586C79.1003 83.03 78.9941 82.9678 78.912 82.8796C78.8298 82.7915 78.7752 82.6812 78.7549 82.5624C78.7346 82.4436 78.7495 82.3215 78.7977 82.2111C78.8459 82.1006 78.9254 82.0067 79.0263 81.9408C79.1272 81.875 79.2452 81.84 79.3657 81.8403C79.5346 81.8466 79.6942 81.9196 79.8095 82.0433C79.9248 82.167 79.9863 82.3313 79.9807 82.5003V82.5003Z" fill="#407BFF"/>
<path d="M81.8917 82.5097C81.8976 82.5942 81.8861 82.6791 81.8577 82.759C81.8294 82.8389 81.785 82.9122 81.7272 82.9742C81.6693 83.0362 81.5994 83.0856 81.5216 83.1194C81.4439 83.1532 81.36 83.1707 81.2752 83.1707C81.1904 83.1707 81.1066 83.1532 81.0288 83.1194C80.9511 83.0856 80.8811 83.0362 80.8233 82.9742C80.7654 82.9122 80.721 82.8389 80.6927 82.759C80.6644 82.6791 80.6528 82.5942 80.6587 82.5097C80.6528 82.4251 80.6644 82.3402 80.6927 82.2603C80.721 82.1804 80.7654 82.1071 80.8233 82.0451C80.8811 81.9831 80.9511 81.9337 81.0288 81.8999C81.1066 81.8661 81.1904 81.8486 81.2752 81.8486C81.36 81.8486 81.4439 81.8661 81.5216 81.8999C81.5994 81.9337 81.6693 81.9831 81.7272 82.0451C81.785 82.1071 81.8294 82.1804 81.8577 82.2603C81.8861 82.3402 81.8976 82.4251 81.8917 82.5097Z" fill="#407BFF"/>
<path d="M83.8024 82.5184C83.7942 82.6386 83.7511 82.7538 83.6783 82.8498C83.6054 82.9459 83.5061 83.0185 83.3926 83.0588C83.279 83.0991 83.1561 83.1053 83.0391 83.0767C82.922 83.0481 82.8159 82.9859 82.7337 82.8977C82.6516 82.8095 82.597 82.6993 82.5767 82.5805C82.5564 82.4617 82.5713 82.3396 82.6195 82.2291C82.6677 82.1187 82.7471 82.0248 82.8481 81.9589C82.949 81.893 83.0669 81.8581 83.1874 81.8584C83.3564 81.8647 83.516 81.9376 83.6313 82.0613C83.7466 82.185 83.8081 82.3494 83.8024 82.5184V82.5184Z" fill="#407BFF"/>
<path d="M85.7136 82.5274C85.7053 82.6483 85.6617 82.764 85.5882 82.8603C85.5147 82.9565 85.4145 83.0291 85.3 83.0689C85.1856 83.1087 85.062 83.114 84.9446 83.0841C84.8273 83.0542 84.7212 82.9905 84.6397 82.9009C84.5582 82.8113 84.5049 82.6997 84.4863 82.58C84.4677 82.4603 84.4848 82.3377 84.5352 82.2276C84.5857 82.1175 84.6675 82.0247 84.7703 81.9606C84.8731 81.8966 84.9925 81.8642 85.1136 81.8674C85.2799 81.8775 85.4357 81.9521 85.5478 82.0754C85.6599 82.1987 85.7194 82.3609 85.7136 82.5274V82.5274Z" fill="#407BFF"/>
<g opacity="0.2">
<path opacity="0.2" d="M70.4199 82.4586C70.411 82.5793 70.367 82.6947 70.2931 82.7906C70.2193 82.8864 70.1189 82.9585 70.0045 82.9978C69.8901 83.0372 69.7666 83.042 69.6494 83.0119C69.5323 82.9817 69.4265 82.9178 69.3453 82.8281C69.2641 82.7384 69.2111 82.6268 69.1927 82.5072C69.1743 82.3876 69.1915 82.2652 69.242 82.1553C69.2926 82.0454 69.3743 81.9527 69.477 81.8887C69.5797 81.8248 69.6989 81.7924 69.8199 81.7956C69.987 81.8049 70.1437 81.8798 70.2561 82.0039C70.3684 82.128 70.4273 82.2914 70.4199 82.4586V82.4586Z" fill="white"/>
<path opacity="0.2" d="M72.3307 82.4682C72.3366 82.5527 72.325 82.6376 72.2967 82.7175C72.2684 82.7975 72.224 82.8707 72.1661 82.9327C72.1083 82.9947 72.0384 83.0441 71.9606 83.078C71.8829 83.1118 71.799 83.1292 71.7142 83.1292C71.6294 83.1292 71.5455 83.1118 71.4678 83.078C71.39 83.0441 71.3201 82.9947 71.2622 82.9327C71.2044 82.8707 71.16 82.7975 71.1317 82.7175C71.1033 82.6376 71.0918 82.5527 71.0977 82.4682C71.0918 82.3836 71.1033 82.2987 71.1317 82.2188C71.16 82.1389 71.2044 82.0656 71.2622 82.0036C71.3201 81.9416 71.39 81.8922 71.4678 81.8584C71.5455 81.8246 71.6294 81.8071 71.7142 81.8071C71.799 81.8071 71.8829 81.8246 71.9606 81.8584C72.0384 81.8922 72.1083 81.9416 72.1661 82.0036C72.224 82.0656 72.2684 82.1389 72.2967 82.2188C72.325 82.2987 72.3366 82.3836 72.3307 82.4682V82.4682Z" fill="white"/>
<path opacity="0.2" d="M74.2451 82.4762C74.2362 82.5969 74.1921 82.7123 74.1183 82.8082C74.0445 82.904 73.9441 82.9761 73.8297 83.0154C73.7153 83.0548 73.5918 83.0597 73.4746 83.0295C73.3574 82.9993 73.2517 82.9354 73.1705 82.8457C73.0893 82.756 73.0363 82.6444 73.0179 82.5248C72.9995 82.4052 73.0167 82.2828 73.0672 82.1729C73.1177 82.063 73.1994 81.9703 73.3022 81.9063C73.4049 81.8424 73.5241 81.81 73.6451 81.8132C73.8119 81.8233 73.9682 81.8983 74.0804 82.0223C74.1925 82.1462 74.2517 82.3092 74.2451 82.4762Z" fill="white"/>
<path opacity="0.2" d="M76.1557 82.486C76.1469 82.6067 76.1028 82.7221 76.0289 82.8179C75.9551 82.9138 75.8547 82.9858 75.7403 83.0252C75.6259 83.0645 75.5024 83.0694 75.3853 83.0392C75.2681 83.0091 75.1624 82.9452 75.0812 82.8554C75 82.7657 74.9469 82.6542 74.9285 82.5346C74.9102 82.415 74.9273 82.2926 74.9779 82.1827C75.0284 82.0727 75.1101 81.98 75.2128 81.9161C75.3155 81.8521 75.4348 81.8198 75.5557 81.823C75.7226 81.833 75.8788 81.9081 75.991 82.032C76.1032 82.156 76.1623 82.3189 76.1557 82.486Z" fill="white"/>
<path opacity="0.2" d="M78.0671 82.4913C78.0588 82.6122 78.0152 82.7279 77.9417 82.8242C77.8681 82.9205 77.7679 82.993 77.6535 83.0328C77.5391 83.0726 77.4155 83.0779 77.2981 83.048C77.1807 83.0181 77.0747 82.9544 76.9932 82.8648C76.9118 82.7752 76.8584 82.6636 76.8398 82.5438C76.8213 82.4241 76.8383 82.3016 76.8888 82.1915C76.9392 82.0814 77.021 81.9885 77.1238 81.9245C77.2266 81.8605 77.346 81.828 77.4671 81.8313C77.6334 81.8413 77.7892 81.916 77.9013 82.0393C78.0134 82.1626 78.0728 82.3248 78.0671 82.4913Z" fill="white"/>
<path opacity="0.2" d="M79.9807 82.5003C79.9725 82.6206 79.9293 82.7358 79.8565 82.8318C79.7837 82.9278 79.6844 83.0004 79.5708 83.0407C79.4572 83.081 79.3344 83.0873 79.2173 83.0586C79.1003 83.03 78.9941 82.9678 78.912 82.8796C78.8298 82.7915 78.7752 82.6812 78.7549 82.5624C78.7346 82.4436 78.7495 82.3215 78.7977 82.2111C78.8459 82.1006 78.9254 82.0067 79.0263 81.9408C79.1272 81.875 79.2452 81.84 79.3657 81.8403C79.5346 81.8466 79.6942 81.9196 79.8095 82.0433C79.9248 82.167 79.9863 82.3313 79.9807 82.5003V82.5003Z" fill="white"/>
<path opacity="0.2" d="M81.8917 82.5097C81.8976 82.5942 81.886 82.6791 81.8577 82.759C81.8294 82.839 81.785 82.9122 81.7272 82.9742C81.6693 83.0362 81.5994 83.0856 81.5216 83.1194C81.4439 83.1532 81.36 83.1707 81.2752 83.1707C81.1904 83.1707 81.1066 83.1532 81.0288 83.1194C80.9511 83.0856 80.8811 83.0362 80.8233 82.9742C80.7654 82.9122 80.721 82.839 80.6927 82.759C80.6644 82.6791 80.6528 82.5942 80.6587 82.5097C80.6528 82.4251 80.6644 82.3402 80.6927 82.2603C80.721 82.1804 80.7654 82.1071 80.8233 82.0451C80.8811 81.9831 80.9511 81.9337 81.0288 81.8999C81.1066 81.8661 81.1904 81.8486 81.2752 81.8486C81.36 81.8486 81.4439 81.8661 81.5216 81.8999C81.5994 81.9337 81.6693 81.9831 81.7272 82.0451C81.785 82.1071 81.8294 82.1804 81.8577 82.2603C81.886 82.3402 81.8976 82.4251 81.8917 82.5097Z" fill="white"/>
<path opacity="0.2" d="M83.8029 82.5184C83.7947 82.6386 83.7516 82.7538 83.6788 82.8499C83.6059 82.9459 83.5066 83.0185 83.3931 83.0588C83.2795 83.0991 83.1566 83.1053 83.0396 83.0767C82.9225 83.0481 82.8164 82.9859 82.7342 82.8977C82.6521 82.8095 82.5975 82.6993 82.5772 82.5805C82.5569 82.4617 82.5718 82.3396 82.62 82.2291C82.6682 82.1187 82.7476 82.0248 82.8485 81.9589C82.9495 81.893 83.0674 81.8581 83.1879 81.8584C83.3569 81.8647 83.5165 81.9376 83.6318 82.0613C83.7471 82.185 83.8086 82.3494 83.8029 82.5184V82.5184Z" fill="white"/>
<path opacity="0.2" d="M85.7141 82.5274C85.7058 82.6483 85.6622 82.764 85.5887 82.8603C85.5151 82.9565 85.4149 83.0291 85.3005 83.0689C85.1861 83.1087 85.0625 83.114 84.9451 83.0841C84.8277 83.0542 84.7217 82.9905 84.6402 82.9009C84.5587 82.8113 84.5054 82.6997 84.4868 82.58C84.4682 82.4603 84.4852 82.3377 84.5357 82.2276C84.5862 82.1175 84.6679 82.0247 84.7708 81.9606C84.8736 81.8966 84.993 81.8642 85.1141 81.8674C85.2804 81.8775 85.4362 81.9521 85.5483 82.0754C85.6604 82.1987 85.7199 82.3609 85.7141 82.5274V82.5274Z" fill="white"/>
</g>
<path d="M82.9986 39.2194C83.207 39.1276 83.3838 38.9766 83.507 38.7851C83.6302 38.5936 83.6944 38.3701 83.6916 38.1424C83.6994 37.9944 83.6769 37.8463 83.6256 37.7072C83.5743 37.5682 83.4952 37.441 83.3932 37.3335C83.2912 37.226 83.1683 37.1404 83.0322 37.0819C82.896 37.0233 82.7493 36.9932 82.6011 36.9932C82.4529 36.9932 82.3062 37.0233 82.17 37.0819C82.0338 37.1404 81.911 37.226 81.8089 37.3335C81.7069 37.441 81.6278 37.5682 81.5766 37.7072C81.5253 37.8463 81.5028 37.9944 81.5106 38.1424C81.506 38.3724 81.5697 38.5985 81.6935 38.7924C81.8174 38.9862 81.9959 39.1389 82.2066 39.2314C80.5266 39.4834 80.6016 41.3074 80.6016 41.3074L84.5736 41.3254C84.5736 41.3254 84.6666 39.4684 82.9986 39.2194Z" fill="#407BFF"/>
<path opacity="0.1" d="M82.9986 39.2194C83.207 39.1276 83.3838 38.9766 83.507 38.7851C83.6302 38.5936 83.6944 38.3701 83.6916 38.1424C83.6994 37.9944 83.6769 37.8463 83.6256 37.7072C83.5743 37.5682 83.4952 37.441 83.3932 37.3335C83.2912 37.226 83.1683 37.1404 83.0322 37.0819C82.896 37.0233 82.7493 36.9932 82.6011 36.9932C82.4529 36.9932 82.3062 37.0233 82.17 37.0819C82.0338 37.1404 81.911 37.226 81.8089 37.3335C81.7069 37.441 81.6278 37.5682 81.5766 37.7072C81.5253 37.8463 81.5028 37.9944 81.5106 38.1424C81.506 38.3724 81.5697 38.5985 81.6935 38.7924C81.8174 38.9862 81.9959 39.1389 82.2066 39.2314C80.5266 39.4834 80.6016 41.3074 80.6016 41.3074L84.5736 41.3254C84.5736 41.3254 84.6666 39.4684 82.9986 39.2194Z" fill="black"/>
<path d="M89.4532 42.5022L75.2964 42.438L75.2887 44.13L89.4456 44.1942L89.4532 42.5022Z" fill="#407BFF"/>
<path opacity="0.2" d="M89.4532 42.5022L75.2964 42.438L75.2887 44.13L89.4456 44.1942L89.4532 42.5022Z" fill="white"/>
<path d="M37.4075 51.271H37.2665L36.8585 51.301C36.6377 51.3143 36.4181 51.3434 36.2015 51.388C36.0612 51.4077 35.922 51.4348 35.7845 51.469L35.3195 51.598C34.528 51.8408 33.7813 52.2107 33.1085 52.693C32.2195 53.3382 31.4773 54.1644 30.9305 55.117C30.6091 55.6662 30.3533 56.2512 30.1685 56.86C29.9742 57.5217 29.8624 58.2049 29.8355 58.894C29.8176 59.256 29.8236 59.6188 29.8535 59.98C29.8535 60.163 29.9045 60.346 29.9285 60.532C29.9487 60.7195 29.9838 60.9051 30.0335 61.087C30.3032 62.2908 30.8506 63.415 31.6319 64.3697C32.4132 65.3244 33.4068 66.0834 34.5335 66.586C35.3489 66.9378 36.2229 67.1342 37.1105 67.165C38.0272 67.2154 38.9448 67.0839 39.8105 66.778L40.0745 66.679H40.1105L40.1405 66.697L43.9235 68.617L43.8125 68.713C43.4075 67.459 43.0175 66.244 42.6395 65.077V65.032L42.6725 64.999C43.5902 64.0747 44.2714 62.9427 44.6585 61.699C45.009 60.562 45.1113 59.363 44.9585 58.183C44.8225 57.1344 44.4853 56.1218 43.9655 55.201C43.5174 54.41 42.9393 53.7001 42.2555 53.101C41.6913 52.6268 41.0669 52.2294 40.3985 51.919C39.8927 51.7009 39.366 51.535 38.8265 51.424L38.2265 51.325L37.7915 51.292L37.5275 51.274H37.4375C37.4674 51.2707 37.4976 51.2707 37.5275 51.274H37.7945L38.2295 51.292L38.8295 51.379C39.3757 51.4819 39.9096 51.6418 40.4225 51.856C41.1024 52.1627 41.7381 52.5592 42.3125 53.035C43.0089 53.6314 43.5992 54.3415 44.0585 55.135C44.5931 56.0657 44.9406 57.092 45.0815 58.156C45.247 59.3542 45.1519 60.574 44.8025 61.732C44.4129 63.0016 43.7211 64.1576 42.7865 65.101L42.8045 65.023C43.1825 66.19 43.5755 67.405 43.9835 68.656L44.0405 68.839L43.8695 68.752L40.0865 66.835H40.1525L39.8825 66.934C39.0002 67.2445 38.0655 67.379 37.1315 67.33C36.2248 67.2955 35.3325 67.092 34.5005 66.73C32.9134 66.0503 31.5929 64.8689 30.7415 63.367C30.3496 62.6733 30.0635 61.9251 29.8925 61.147C29.8456 60.9604 29.8106 60.771 29.7875 60.58C29.7635 60.391 29.7245 60.205 29.7155 60.019C29.6343 58.9516 29.7471 57.8782 30.0485 56.851C30.2379 56.2338 30.5008 55.6416 30.8315 55.087C31.3913 54.1257 32.149 53.2943 33.0545 52.648C33.7384 52.1644 34.4976 51.7974 35.3015 51.562L35.7725 51.442C35.9111 51.4099 36.0513 51.3848 36.1925 51.367C36.4114 51.3265 36.633 51.3024 36.8555 51.295L37.2665 51.28C37.3132 51.2737 37.3603 51.2707 37.4075 51.271Z" fill="#407BFF"/>
<path d="M39.1173 58.2669H38.5623L37.3623 56.5809V55.4739C37.3623 55.4739 36.5043 55.4199 36.6063 56.8689C36.7083 58.3179 36.6063 57.9489 36.6063 57.9489C36.6063 57.9489 34.7854 57.9489 34.6354 58.1139C34.4854 58.2789 34.4764 60.0369 34.4554 61.0179C34.4439 61.2544 34.5117 61.4879 34.6481 61.6814C34.7846 61.8749 34.9818 62.0173 35.2084 62.0859C35.2719 62.1035 35.3374 62.1126 35.4034 62.1129C35.8594 62.1129 38.1783 61.7439 38.1783 61.7439H39.1353L39.1173 58.2669Z" fill="#407BFF"/>
<path d="M40.7046 57.9697L40.3626 61.7617H39.4146V58.0477L40.7046 57.9697Z" fill="#407BFF"/>
<path d="M52.0115 135.169V132.604L47.4125 132.571L47.3735 136.45L47.6585 136.471C48.9275 136.552 54.1145 136.672 54.9665 136.408C55.9145 136.114 52.0115 135.169 52.0115 135.169Z" fill="#407BFF"/>
<path d="M55.0747 136.168C55.0747 136.21 53.3527 136.246 51.2317 136.246C49.1107 136.246 47.3887 136.21 47.3887 136.168C47.3887 136.126 49.1107 136.09 51.2317 136.09C53.3527 136.09 55.0747 136.126 55.0747 136.168Z" fill="#263238"/>
<path d="M52.0927 135.693C52.0537 135.672 52.0927 135.537 52.1857 135.393C52.2787 135.249 52.4047 135.189 52.4347 135.219C52.4647 135.249 52.4017 135.363 52.3117 135.486C52.2217 135.609 52.1317 135.714 52.0927 135.693Z" fill="#263238"/>
<path d="M52.387 135.862C52.345 135.862 52.366 135.694 52.456 135.535C52.546 135.376 52.666 135.28 52.699 135.304C52.732 135.328 52.678 135.463 52.594 135.604C52.51 135.745 52.426 135.877 52.387 135.862Z" fill="#263238"/>
<path d="M48.7749 136.156C48.7569 136.156 48.6879 136.102 48.5889 135.988C48.468 135.842 48.3334 135.707 48.1869 135.586C48.0428 135.471 47.8711 135.395 47.6889 135.367C47.5479 135.349 47.4579 135.367 47.4489 135.349C47.4399 135.331 47.5269 135.268 47.6919 135.256C47.9096 135.251 48.1221 135.324 48.2919 135.46C48.451 135.59 48.5852 135.747 48.6879 135.925C48.7569 136.057 48.7929 136.144 48.7749 136.156Z" fill="#263238"/>
<path d="M52.1078 135.211C52.1288 135.247 52.0508 135.337 51.9188 135.385C51.7868 135.433 51.6698 135.415 51.6638 135.385C51.6578 135.355 51.7508 135.292 51.8648 135.25C51.9788 135.208 52.0838 135.175 52.1078 135.211Z" fill="#263238"/>
<path d="M52.0359 134.961C52.0359 135.006 51.9159 135.042 51.7599 135.045C51.6039 135.048 51.4809 135.012 51.4839 134.97C51.4869 134.928 51.6099 134.889 51.7599 134.886C51.9099 134.883 52.0299 134.919 52.0359 134.961Z" fill="#263238"/>
<path d="M63.3367 135.169V132.604L58.7377 132.571L58.6987 136.411L58.9837 136.432C60.2527 136.513 65.4427 136.672 66.2917 136.408C67.2397 136.114 63.3367 135.169 63.3367 135.169Z" fill="#407BFF"/>
<path d="M66.3998 136.174C66.3998 136.216 64.6808 136.252 62.5568 136.252C60.4328 136.252 58.7168 136.216 58.7168 136.174C58.7168 136.132 60.4358 136.096 62.5568 136.096C64.6778 136.096 66.3998 136.132 66.3998 136.174Z" fill="#263238"/>
<path d="M63.418 135.693C63.382 135.672 63.418 135.537 63.511 135.393C63.604 135.249 63.73 135.189 63.76 135.219C63.79 135.249 63.727 135.363 63.637 135.486C63.547 135.609 63.457 135.714 63.418 135.693Z" fill="#263238"/>
<path d="M63.7117 135.862C63.6727 135.862 63.6907 135.694 63.7837 135.535C63.8767 135.376 63.9937 135.28 64.0267 135.304C64.0597 135.328 64.0027 135.463 63.9187 135.604C63.8347 135.745 63.7537 135.877 63.7117 135.862Z" fill="#263238"/>
<path d="M60.0996 136.156C60.0816 136.156 60.0156 136.102 59.9136 135.988C59.7927 135.842 59.6581 135.707 59.5116 135.586C59.3675 135.471 59.1958 135.395 59.0136 135.367C58.8756 135.349 58.7826 135.367 58.7736 135.349C58.7646 135.331 58.8516 135.268 59.0166 135.256C59.2343 135.251 59.4468 135.324 59.6166 135.46C59.7765 135.589 59.9108 135.747 60.0126 135.925C60.0816 136.057 60.1176 136.144 60.0996 136.156Z" fill="#263238"/>
<path d="M63.4326 135.211C63.4536 135.247 63.3756 135.337 63.2436 135.385C63.1116 135.433 62.9946 135.415 62.9886 135.385C62.9826 135.355 63.0756 135.292 63.1896 135.25C63.3036 135.208 63.4086 135.175 63.4326 135.211Z" fill="#263238"/>
<path d="M63.3669 134.961C63.3669 135.006 63.2469 135.042 63.0909 135.045C62.9349 135.048 62.8149 135.012 62.8179 134.97C62.8209 134.928 62.9409 134.889 63.0909 134.886C63.2409 134.883 63.3669 134.919 63.3669 134.961Z" fill="#263238"/>
<path d="M80.2808 58.9986C80.1608 58.8756 79.8638 58.9356 79.8638 58.9356C79.8936 58.7629 79.8936 58.5863 79.8638 58.4136C79.8098 58.2456 79.4318 58.2786 79.4318 58.2786C79.4144 58.1371 79.4144 57.9941 79.4318 57.8526C79.4348 57.8212 79.4281 57.7897 79.4125 57.7623C79.3969 57.7349 79.3733 57.713 79.3448 57.6996C79.1659 57.6267 78.9738 57.5919 78.7808 57.5976C78.5498 57.4326 79.4858 56.1216 79.8338 55.7016C80.1818 55.2816 80.1188 54.9546 79.8098 54.9546C79.5968 54.9546 78.5048 56.2146 78.1688 56.6376C77.8328 57.0606 76.9418 58.2366 76.9118 57.2976C76.8818 56.3586 76.5038 55.6506 76.2668 55.5306C76.0298 55.4106 75.7778 55.6926 75.9068 55.9536C76.0201 56.2501 76.0908 56.5612 76.1168 56.8776C76.1494 57.1296 76.1382 57.3854 76.0838 57.6336C75.9843 58.0955 75.8489 58.5488 75.6788 58.9896H75.6548C75.6548 58.9896 69.1088 65.2686 68.6348 65.7156C68.2118 66.1176 59.7038 65.2386 57.9968 65.0586C57.4167 64.9737 56.831 64.9336 56.2448 64.9386C55.5038 64.9716 55.3718 65.0766 54.6338 65.0856C52.77 65.1063 50.9106 65.2698 49.0718 65.5746C48.2392 65.7162 47.4614 66.0837 46.8234 66.637C46.1854 67.1904 45.7116 67.9084 45.4538 68.7126C43.7348 74.0826 39.8408 86.7936 39.1538 93.9336C38.6346 94.875 38.166 95.8434 37.7498 96.8346C37.2668 98.1486 37.3838 98.1936 37.5458 98.2236C37.9838 98.3046 38.4818 95.9466 38.6678 96.5166C38.8538 97.0866 37.7228 99.3276 38.1818 99.3936C38.7818 99.4776 39.2588 96.9936 39.3158 96.7956C39.3728 96.5976 39.6698 96.6606 39.6158 96.8466C39.5288 97.1106 38.6858 99.9096 39.2738 99.9996C39.5978 100.048 39.6338 99.4566 39.6338 99.4566C39.6338 99.4566 40.2338 96.7776 40.5068 96.8316C40.7798 96.8856 40.4888 98.4666 40.3508 98.9946C40.2128 99.5226 40.4048 99.7896 40.6868 99.6606C40.8788 99.5706 41.3378 97.9656 41.4638 97.4436C41.5898 96.9216 41.9048 95.4756 42.3278 96.3126C42.7508 97.1496 43.3928 97.6356 43.6568 97.6476C43.7163 97.6408 43.7723 97.6163 43.8178 97.5773C43.8632 97.5383 43.896 97.4866 43.9118 97.4288C43.9276 97.3711 43.9258 97.3099 43.9065 97.2532C43.8873 97.1965 43.8515 97.1468 43.8038 97.1106C43.5767 96.8889 43.3818 96.6364 43.2248 96.3606C43.0848 96.1458 42.9833 95.9083 42.9248 95.6586C42.8039 95.161 42.7335 94.6524 42.7148 94.1406L42.6668 93.8406C43.3388 90.5136 45.2738 80.7486 48.0668 74.5116L49.2128 76.8696L49.7108 78.6156L46.6568 86.1546L59.6828 85.9836L57.7388 78.5016L60.0998 70.7016C62.6528 70.7586 69.2078 70.8546 70.2998 70.3596C71.6738 69.7596 78.7808 60.7836 78.7808 60.7836C79.244 60.4236 79.6877 60.0391 80.1098 59.6316C80.1098 59.6316 80.5418 59.2686 80.2808 58.9986Z" fill="#AE7461"/>
<path d="M46.0838 80.5843C46.4618 79.2943 48.4028 72.9163 48.4028 72.9163C48.4028 72.9163 49.3568 78.1153 49.1048 78.7423C48.873 79.2791 48.5992 79.7967 48.2858 80.2903C46.0838 83.6413 46.3718 85.3183 46.3718 85.3183L59.6768 84.9133C59.7068 83.0533 58.6058 78.7273 58.3778 78.0373C58.1498 77.3473 58.9088 75.0883 58.9088 75.0883C58.9088 75.0883 60.4088 73.5613 60.3548 72.7753C60.3263 72.0693 60.239 71.3668 60.0938 70.6753L68.1938 70.9753L67.9388 65.4853L56.3048 64.3213C55.8998 65.4643 52.2368 64.9033 52.2368 64.9033C48.2828 65.0353 48.0368 65.7613 46.3928 67.0393C44.7488 68.3173 42.0278 79.2853 42.0278 79.2853L46.0838 80.5843Z" fill="#407BFF"/>
<path d="M53.95 79.2846C53.7195 79.3258 53.4846 79.3379 53.251 79.3206C52.816 79.3206 52.219 79.2906 51.562 79.2246C50.905 79.1586 50.311 79.0656 49.888 78.9816C49.6548 78.9516 49.4261 78.8932 49.207 78.8076C49.4416 78.8077 49.6756 78.8298 49.906 78.8736C50.332 78.9276 50.923 79.0026 51.577 79.0686C52.231 79.1346 52.825 79.1796 53.254 79.2096C53.4879 79.2126 53.7209 79.2377 53.95 79.2846V79.2846Z" fill="#263238"/>
<path d="M54.8616 78.1538C54.6309 78.2668 54.387 78.3504 54.1356 78.4028C52.9387 78.7173 51.7038 78.8637 50.4666 78.8378C50.2106 78.8461 49.9545 78.8219 49.7046 78.7658C49.9573 78.7339 50.212 78.7208 50.4666 78.7268C50.9376 78.7118 51.5856 78.6788 52.2996 78.5948C53.0136 78.5108 53.6496 78.3908 54.0996 78.2948C54.3495 78.2281 54.6043 78.1809 54.8616 78.1538V78.1538Z" fill="#263238"/>
<path d="M59.3375 73.1079C59.3315 73.3366 59.3003 73.564 59.2445 73.7859C59.1665 74.2029 59.0465 74.7729 58.8935 75.3969C58.7405 76.0209 58.5935 76.5969 58.4615 76.9869C58.4085 77.2101 58.33 77.4266 58.2275 77.6319C58.2443 77.4039 58.2865 77.1785 58.3535 76.9599C58.4675 76.4919 58.5965 75.9519 58.7405 75.3609C58.8845 74.7699 59.0225 74.2299 59.1365 73.7619C59.1772 73.5367 59.2446 73.3171 59.3375 73.1079V73.1079Z" fill="#263238"/>
<path d="M46.2245 79.8184C45.5305 79.7113 44.8455 79.5518 44.1755 79.3414C43.4909 79.1813 42.8191 78.9708 42.1655 78.7114C42.8592 78.8203 43.544 78.9798 44.2145 79.1884C44.8993 79.3479 45.5712 79.5585 46.2245 79.8184V79.8184Z" fill="#263238"/>
<path d="M60.2376 70.6093C60.1244 70.6288 60.0087 70.6288 59.8955 70.6093C59.5822 70.5772 59.2745 70.5035 58.9806 70.3903C58.4898 70.2059 58.043 69.9209 57.669 69.5535C57.2949 69.1862 57.0018 68.7447 56.8085 68.2573C56.5949 67.7212 56.5037 67.1442 56.5415 66.5683C56.5549 66.0933 56.697 65.6309 56.9525 65.2303C57.1323 64.9604 57.4008 64.762 57.7115 64.6693C57.7946 64.6464 57.8804 64.6353 57.9665 64.6363C58.0265 64.6363 58.0565 64.6363 58.0565 64.6363C58.0565 64.6363 57.9306 64.6363 57.7296 64.7173C57.4445 64.8226 57.2027 65.02 57.0425 65.2783C56.6345 65.9203 56.5205 67.0933 56.9555 68.1883C57.158 68.7046 57.475 69.1682 57.8825 69.5443C58.2165 69.852 58.6012 70.0997 59.0195 70.2763C59.4122 70.4315 59.8206 70.5431 60.2376 70.6093V70.6093Z" fill="#263238"/>
<path d="M67.2307 70.8664C67.1557 69.9464 67.1316 69.023 67.1587 68.1004C67.1352 67.1786 67.1633 66.2561 67.2427 65.3374C67.3178 66.2564 67.3419 67.1788 67.3147 68.1004C67.3399 69.0233 67.3119 69.9468 67.2307 70.8664V70.8664Z" fill="#263238"/>
<path d="M56.2269 64.6565C56.2599 63.9875 56.3289 63.2315 56.3289 63.2315C56.3289 63.2315 57.9849 63.0485 58.0839 61.3385C58.1829 59.6285 58.0839 55.6835 58.0839 55.6835L55.0839 54.1475L51.7539 56.7665L52.2669 65.3165L55.3209 65.5115C55.5543 65.5179 55.7808 65.4315 55.9507 65.2713C56.1205 65.111 56.2198 64.8899 56.2269 64.6565V64.6565Z" fill="#AE7461"/>
<path d="M56.5238 59.9857C56.5238 59.9857 56.5239 60.0187 56.4969 60.0577C56.4745 60.086 56.4457 60.1085 56.4127 60.1231C56.3798 60.1377 56.3438 60.1441 56.3079 60.1417C56.1159 60.1417 55.9299 59.9197 55.8639 59.6617C55.8325 59.5367 55.8325 59.4058 55.8639 59.2808C55.87 59.2262 55.8897 59.174 55.9211 59.1289C55.9526 59.0839 55.9947 59.0474 56.0439 59.0228C56.0842 59.0061 56.1295 59.0061 56.1699 59.0228C56.1998 59.0376 56.224 59.0618 56.2389 59.0918C56.2599 59.1428 56.2389 59.1758 56.2389 59.1728C56.2389 59.1698 56.2389 59.1428 56.2089 59.1128C56.1932 59.0913 56.1701 59.0763 56.1441 59.0708C56.1181 59.0653 56.0909 59.0695 56.0679 59.0828C56.0311 59.105 56.0005 59.1362 55.979 59.1734C55.9575 59.2107 55.9457 59.2528 55.9449 59.2957C55.9196 59.4073 55.9196 59.5232 55.9449 59.6347C56.0049 59.8687 56.1669 60.0577 56.3109 60.0757C56.339 60.0796 56.3677 60.0775 56.395 60.0698C56.4224 60.0621 56.4479 60.0488 56.4698 60.0307C56.5058 60.0067 56.5178 59.9827 56.5238 59.9857Z" fill="#AE7461"/>
<path d="M59.1128 54.7598C58.8818 53.9738 58.0448 53.5838 57.2828 53.3678C56.1218 53.0378 54.8678 52.8938 53.7338 53.3108C52.5998 53.7278 51.2378 54.4598 51.2378 55.7108C50.5688 55.6568 50.1848 56.2418 49.9208 56.9678C49.752 57.4101 49.6509 57.8753 49.6208 58.3478V58.3478C49.5368 59.9858 49.0778 62.2478 48.0158 63.4478C47.4158 64.1168 46.5848 64.5788 46.2428 65.4128C45.9428 66.1358 46.0988 66.9938 45.8198 67.7258C45.5708 68.3708 45.0218 68.8298 44.6198 69.3908C44.2102 70.0272 43.9692 70.7573 43.9194 71.5125C43.8695 72.2676 44.0125 73.0231 44.3348 73.7078C44.6594 74.375 45.1165 74.9691 45.6782 75.4539C46.2399 75.9387 46.8944 76.3041 47.6018 76.5278C49.0031 76.9541 50.4974 76.9687 51.9068 76.5698C52.9645 76.3169 53.9512 75.8276 54.7928 75.1388C55.6539 74.4356 56.2453 73.4562 56.4668 72.3668C56.6798 71.1428 56.3378 69.8978 56.0828 68.6798C55.2848 64.8308 55.5128 64.6298 56.5208 61.0568C56.5448 60.9938 56.5568 60.9278 56.5748 60.8648C56.5928 60.8018 56.6018 60.7718 56.6138 60.7238C56.6424 60.5825 56.6575 60.4389 56.6588 60.2948C56.5116 60.3495 56.3518 60.3611 56.1982 60.3282C56.0446 60.2952 55.9036 60.2191 55.7918 60.1088C55.6797 59.9912 55.6016 59.8454 55.5657 59.6869C55.5297 59.5285 55.5374 59.3632 55.5878 59.2088C55.6586 59.0399 55.764 58.8877 55.8974 58.7621C56.0307 58.6365 56.1889 58.5403 56.3618 58.4798C56.6948 58.3418 57.0518 58.2698 57.3788 58.1168C58.0718 57.7868 58.5518 57.1028 58.8788 56.3858C59.1476 55.8888 59.2306 55.3124 59.1128 54.7598V54.7598Z" fill="#263238"/>
<path d="M56.644 60.0664C56.7074 60.1601 56.7597 60.2607 56.8 60.3664C56.89 60.5554 57.01 60.8224 57.142 61.1314L57.166 61.1884H57.103L56.803 61.2154C56.596 61.2154 56.422 61.2544 56.218 61.2514C56.2002 61.2474 56.1838 61.239 56.1701 61.2269C56.1565 61.2149 56.1461 61.1996 56.14 61.1824C56.1311 61.1551 56.1311 61.1257 56.14 61.0984C56.1469 61.058 56.156 61.0179 56.167 60.9784L56.221 60.7654C56.2481 60.6233 56.2904 60.4845 56.347 60.3514C56.3414 60.4962 56.3203 60.6401 56.284 60.7804L56.242 60.9934C56.227 61.0654 56.2 61.1764 56.242 61.1674C56.392 61.1674 56.605 61.1344 56.803 61.1224L57.103 61.0954L57.064 61.1614C56.935 60.8614 56.827 60.5794 56.764 60.3844C56.7087 60.2848 56.6683 60.1777 56.644 60.0664V60.0664Z" fill="#407BFF"/>
<path d="M46.3717 85.3181L59.6767 84.9131L65.4667 107.515L64.4017 133.441H57.3667L58.2277 108.067L53.0827 92.3321L53.8747 134.446L46.7647 134.551L46.0177 94.9661C45.9847 93.8651 45.6247 91.3841 45.7597 90.2921L46.3717 85.3181Z" fill="#263238"/>
<path d="M54.8526 92.653C54.6349 92.6668 54.4162 92.6537 54.2016 92.614C53.7996 92.566 53.2506 92.4821 52.6476 92.3621C52.0446 92.2421 51.5046 92.1041 51.1146 91.9931C50.9062 91.9472 50.7045 91.8746 50.5146 91.7771C50.5146 91.7321 51.4926 91.9661 52.6926 92.2091C53.8926 92.4521 54.8586 92.608 54.8526 92.653Z" fill="#455A64"/>
<path d="M64.3299 132.019C64.3299 132.061 62.7369 132.097 60.7719 132.097C58.8069 132.097 57.2109 132.061 57.2109 132.019C57.2109 131.977 58.8039 131.941 60.7719 131.941C62.7399 131.941 64.3299 131.974 64.3299 132.019Z" fill="#455A64"/>
<path d="M53.8118 133.351C53.8118 133.396 52.2638 133.429 50.3558 133.429C48.4478 133.429 46.9028 133.396 46.9028 133.351C46.9028 133.306 48.4508 133.273 50.3558 133.273C52.2608 133.273 53.8118 133.309 53.8118 133.351Z" fill="#455A64"/>
<path d="M52.8938 133.243C52.8518 133.243 52.6658 124.042 52.4768 112.693C52.2878 101.344 52.1768 92.1367 52.2158 92.1367C52.2548 92.1367 52.4468 101.335 52.6328 112.69C52.8188 124.045 52.9388 133.243 52.8938 133.243Z" fill="#455A64"/>
<path d="M63.3849 132.018C63.3816 131.977 63.3816 131.936 63.3849 131.895V131.535C63.3849 131.211 63.4089 130.746 63.4269 130.155C63.4689 128.955 63.5289 127.212 63.6039 125.076C63.7659 120.78 63.9939 114.858 64.2429 108.321C64.2429 108.258 64.2429 108.198 64.2429 108.144V108.165C62.6679 101.865 61.2429 96.1474 60.2079 92.0104L59.0079 87.1174C58.8699 86.5444 58.7649 86.0974 58.6899 85.7854C58.6539 85.6384 58.6299 85.5244 58.6089 85.4374C58.5972 85.3983 58.5902 85.3581 58.5879 85.3174C58.6035 85.3552 58.6155 85.3944 58.6239 85.4344C58.6479 85.5184 58.6779 85.6324 58.7199 85.7764C58.8009 86.0764 58.9179 86.5324 59.0679 87.1024C59.3679 88.2604 59.7909 89.9284 60.3189 91.9834C61.3629 96.1174 62.8029 101.82 64.3989 108.129V108.15C64.3989 108.204 64.3989 108.267 64.3989 108.327C64.1319 114.864 63.8889 120.783 63.7119 125.079C63.6189 127.218 63.5409 128.949 63.4869 130.155C63.4569 130.755 63.4329 131.211 63.4179 131.535C63.4179 131.688 63.3999 131.808 63.3969 131.895C63.3973 131.937 63.3933 131.978 63.3849 132.018V132.018Z" fill="#455A64"/>
<path d="M61.0895 107.617C60.5842 107.783 60.0637 107.898 59.5355 107.962C58.8875 108.073 58.3355 108.151 58.0865 108.163V108.103C58.1675 108.127 58.2095 108.142 58.2095 108.154C58.2095 108.166 58.1585 108.154 58.0745 108.154H57.8945L58.0745 108.1C58.3085 108.031 58.8605 107.917 59.5085 107.8C60.0283 107.687 60.5578 107.626 61.0895 107.617Z" fill="#455A64"/>
<path d="M60.9669 108.478C60.499 108.499 60.03 108.478 59.5659 108.415C59.0973 108.405 58.6305 108.354 58.1709 108.262C59.1085 108.185 60.0522 108.258 60.9669 108.478V108.478Z" fill="#455A64"/>
<path opacity="0.2" d="M46.3149 85.7951C46.4725 85.9974 46.671 86.1643 46.8974 86.2847C47.1238 86.4051 47.3731 86.4765 47.6289 86.4941C48.1648 86.5576 48.7068 86.5475 49.2399 86.4641C52.6749 86.0831 56.3139 85.7321 59.6769 84.9131C55.3239 85.1561 50.7249 85.0751 46.3719 85.3181L46.3269 85.6901" fill="black"/>
<g opacity="0.2">
<path opacity="0.2" d="M50.7998 91.9297L53.2538 101.452L53.0828 92.3317L50.7998 91.9297Z" fill="black"/>
</g>
</svg>
