<svg width="178" height="24" viewBox="0 0 178 24" fill="none" xmlns="http://www.w3.org/2000/svg">
<path d="M4.31236 9.39881H13.6471V7.5293H4.31236C1.94582 7.5293 0 9.50719 0 11.9728V12.027C0 14.4655 1.91953 16.4705 4.31236 16.4705H6.81038V15.766V14.601H4.31236C2.94503 14.601 1.81435 13.463 1.81435 12.027V11.9728C1.84064 10.5639 2.94503 9.39881 4.31236 9.39881Z" fill="#F7B538"/>
<path d="M19.6872 7.5293H17.1892V9.39881H19.6872C21.0546 9.39881 22.1853 10.5368 22.1853 11.9728V12.027C22.1853 13.4359 21.0809 14.601 19.6872 14.601H10.3525V15.766V16.4705H19.6872C22.0538 16.4705 23.9996 14.4926 23.9996 12.027V11.9728C23.9996 9.53429 22.0538 7.5293 19.6872 7.5293Z" fill="#3454D1"/>
<path d="M14.8719 13.6471H16.4705V4.31236C16.4705 1.94582 14.4926 0 12.027 0H11.9728C9.53429 0 7.5293 1.91953 7.5293 4.31236V6.81038H7.88152H9.39881V4.31236C9.39881 2.94503 10.5368 1.81435 11.9728 1.81435H12.027C13.4359 1.81435 14.601 2.91873 14.601 4.31236V13.6471H14.8719Z" fill="#FE4D3C"/>
<path d="M15.4138 17.1902H15.1428H14.6009V19.6882C14.6009 21.0555 13.463 22.1862 12.027 22.1862H11.9728C10.5639 22.1862 9.39881 21.0818 9.39881 19.6882V10.3535H8.26085H7.90862H7.5293V19.6882C7.5293 22.0547 9.50719 24.0006 11.9728 24.0006H12.027C14.4655 24.0006 16.4705 22.081 16.4705 19.6882V17.1902H15.4138Z" fill="#35BA83"/>
<path d="M43.2784 10.4375C42.9545 7.75 40.9205 6.20455 38.2273 6.20455C35.1534 6.20455 32.8068 8.375 32.8068 12.1818C32.8068 15.9773 35.1136 18.1591 38.2273 18.1591C41.2102 18.1591 43.0114 16.1761 43.2784 14.0341L40.7898 14.0227C40.5568 15.267 39.5795 15.983 38.267 15.983C36.5 15.983 35.3011 14.6705 35.3011 12.1818C35.3011 9.76136 36.483 8.38068 38.2841 8.38068C39.6307 8.38068 40.6023 9.15909 40.7898 10.4375H43.2784ZM48.9403 18.1705C51.5881 18.1705 53.2358 16.358 53.2358 13.6705C53.2358 10.9659 51.5881 9.15909 48.9403 9.15909C46.2926 9.15909 44.6449 10.9659 44.6449 13.6705C44.6449 16.358 46.2926 18.1705 48.9403 18.1705ZM48.9517 16.2955C47.7301 16.2955 47.1051 15.1761 47.1051 13.6534C47.1051 12.1307 47.7301 11.0057 48.9517 11.0057C50.1506 11.0057 50.7756 12.1307 50.7756 13.6534C50.7756 15.1761 50.1506 16.2955 48.9517 16.2955ZM54.8097 18H57.2301V13.0625C57.2301 11.9886 58.0142 11.25 59.0824 11.25C59.4176 11.25 59.8778 11.3068 60.1051 11.3807V9.23295C59.8892 9.18182 59.5881 9.14773 59.3438 9.14773C58.3665 9.14773 57.5653 9.71591 57.2472 10.7955H57.1562V9.27273H54.8097V18ZM63.777 12.9545C63.7827 11.8295 64.4531 11.1705 65.4304 11.1705C66.402 11.1705 66.9872 11.8068 66.9815 12.875V18H69.402V12.4432C69.402 10.4091 68.2088 9.15909 66.3906 9.15909C65.0952 9.15909 64.1577 9.79545 63.7656 10.8125H63.6634V9.27273H61.3565V18H63.777V12.9545ZM71.3097 18H73.7301V9.27273H71.3097V18ZM72.5256 8.14773C73.2472 8.14773 73.8381 7.59659 73.8381 6.92045C73.8381 6.25 73.2472 5.69886 72.5256 5.69886C71.8097 5.69886 71.2188 6.25 71.2188 6.92045C71.2188 7.59659 71.8097 8.14773 72.5256 8.14773ZM79.6463 18.1705C81.8054 18.1705 83.2599 17.1193 83.6009 15.5L81.3622 15.3523C81.1179 16.017 80.4929 16.3636 79.6861 16.3636C78.4759 16.3636 77.7088 15.5625 77.7088 14.2614V14.2557H83.652V13.5909C83.652 10.625 81.8565 9.15909 79.5497 9.15909C76.9815 9.15909 75.3168 10.983 75.3168 13.6761C75.3168 16.4432 76.9588 18.1705 79.6463 18.1705ZM77.7088 12.7557C77.7599 11.7614 78.5156 10.9659 79.5895 10.9659C80.6406 10.9659 81.3679 11.7159 81.3736 12.7557H77.7088ZM85.277 18H87.7372V13.1932H92.7315V18H95.1861V6.36364H92.7315V11.1648H87.7372V6.36364H85.277V18ZM101.146 18.1705C103.305 18.1705 104.76 17.1193 105.101 15.5L102.862 15.3523C102.618 16.017 101.993 16.3636 101.186 16.3636C99.9759 16.3636 99.2088 15.5625 99.2088 14.2614V14.2557H105.152V13.5909C105.152 10.625 103.357 9.15909 101.05 9.15909C98.4815 9.15909 96.8168 10.983 96.8168 13.6761C96.8168 16.4432 98.4588 18.1705 101.146 18.1705ZM99.2088 12.7557C99.2599 11.7614 100.016 10.9659 101.089 10.9659C102.141 10.9659 102.868 11.7159 102.874 12.7557H99.2088ZM109.22 18.1648C110.51 18.1648 111.345 17.6023 111.771 16.7898H111.839V18H114.135V12.1136C114.135 10.0341 112.374 9.15909 110.43 9.15909C108.339 9.15909 106.964 10.1591 106.629 11.75L108.868 11.9318C109.033 11.3523 109.55 10.9261 110.419 10.9261C111.243 10.9261 111.714 11.3409 111.714 12.0568V12.0909C111.714 12.6534 111.118 12.7273 109.601 12.875C107.874 13.0341 106.322 13.6136 106.322 15.5625C106.322 17.2898 107.555 18.1648 109.22 18.1648ZM109.913 16.4943C109.169 16.4943 108.635 16.1477 108.635 15.483C108.635 14.8011 109.197 14.4659 110.05 14.3466C110.578 14.2727 111.442 14.1477 111.732 13.9545V14.8807C111.732 15.7955 110.976 16.4943 109.913 16.4943ZM118.433 6.36364H116.013V18H118.433V6.36364ZM125.014 9.27273H123.372V7.18182H120.952V9.27273H119.759V11.0909H120.952V15.6364C120.94 17.3466 122.105 18.1932 123.861 18.1193C124.486 18.0966 124.929 17.9716 125.173 17.892L124.793 16.0909C124.673 16.1136 124.418 16.1705 124.19 16.1705C123.707 16.1705 123.372 15.9886 123.372 15.3182V11.0909H125.014V9.27273ZM129.199 12.9545C129.205 11.8295 129.892 11.1705 130.881 11.1705C131.864 11.1705 132.443 11.8011 132.438 12.875V18H134.858V12.4432C134.864 10.3977 133.659 9.15909 131.841 9.15909C130.517 9.15909 129.631 9.78409 129.233 10.8125H129.131V6.36364H126.778V18H129.199V12.9545Z" fill="#080056"/>
</svg>
