<svg width="24" height="24" viewBox="0 0 24 24" fill="none" xmlns="http://www.w3.org/2000/svg">
<path d="M19.5 14.25C19.5 13.6533 19.2629 13.081 18.841 12.659C18.419 12.2371 17.8467 12 17.25 12H6.75C6.15326 12 5.58097 12.2371 5.15901 12.659C4.73705 13.081 4.5 13.6533 4.5 14.25V15C4.5 17.9565 7.29 21 12 21C14.5965 21 16.6095 20.0745 17.8935 18.75H12V19.5C8.148 19.5 6 17.157 6 15V14.25C6 14.0511 6.07902 13.8603 6.21967 13.7197C6.36032 13.579 6.55109 13.5 6.75 13.5H12V14.25H19.5Z" fill="#FE4D3C"/>
<path d="M18.96 17.25H12V15.75H19.44C19.3605 16.26 19.1985 16.767 18.96 17.25Z" fill="#FE4D3C"/>
<path d="M16.125 6.375C16.125 6.12 16.101 5.868 16.0575 5.625H12V7.125H16.0575C16.1025 6.882 16.125 6.63 16.125 6.375Z" fill="#FE4D3C"/>
<path d="M11.9998 2.25C13.4473 2.25 14.7223 2.9955 15.4573 4.125H11.9998V3.75C11.3036 3.75 10.636 4.02656 10.1437 4.51884C9.65139 5.01113 9.37483 5.67881 9.37483 6.375C9.37483 7.07119 9.65139 7.73887 10.1437 8.23116C10.636 8.72344 11.3036 9 11.9998 9V8.625H15.4573C15.0675 9.22407 14.5286 9.71155 13.8936 10.0397C13.2586 10.3678 12.5493 10.5253 11.8351 10.4967C11.1209 10.4681 10.4264 10.2545 9.81965 9.87667C9.2129 9.49887 8.71472 8.96989 8.37396 8.34159C8.0332 7.71329 7.86155 7.00723 7.87582 6.29261C7.8901 5.578 8.08981 4.87935 8.4554 4.26516C8.82098 3.65097 9.33988 3.14232 9.96123 2.78905C10.5826 2.43578 11.2851 2.25003 11.9998 2.25Z" fill="#FE4D3C"/>
</svg>
