<svg width="51" height="50" viewBox="0 0 51 50" fill="none" xmlns="http://www.w3.org/2000/svg">
<path d="M41.7496 7.5C42.0811 7.5 42.3991 7.6317 42.6335 7.86612C42.8679 8.10054 42.9996 8.41848 42.9996 8.75V18.75C42.9996 19.0815 42.8679 19.3995 42.6335 19.6339C42.3991 19.8683 42.0811 20 41.7496 20C41.4181 20 41.1002 19.8683 40.8657 19.6339C40.6313 19.3995 40.4996 19.0815 40.4996 18.75V11.7675L28.8821 23.385C28.6477 23.6193 28.3298 23.751 27.9984 23.751C27.6669 23.751 27.349 23.6193 27.1146 23.385L22.9996 19.2675L10.1346 32.135C10.0184 32.2512 9.88043 32.3434 9.72858 32.4063C9.57674 32.4692 9.41399 32.5016 9.24963 32.5016C9.08527 32.5016 8.92252 32.4692 8.77067 32.4063C8.61882 32.3434 8.48085 32.2512 8.36463 32.135C8.24841 32.0188 8.15622 31.8808 8.09332 31.729C8.03042 31.5771 7.99805 31.4144 7.99805 31.25C7.99805 31.0856 8.03042 30.9229 8.09332 30.771C8.15622 30.6192 8.24841 30.4812 8.36463 30.365L22.1146 16.615C22.2307 16.4986 22.3687 16.4062 22.5205 16.3432C22.6724 16.2802 22.8352 16.2478 22.9996 16.2478C23.164 16.2478 23.3268 16.2802 23.4787 16.3432C23.6306 16.4062 23.7685 16.4986 23.8846 16.615L27.9996 20.7325L38.7321 10H31.7496C31.4181 10 31.1002 9.8683 30.8657 9.63388C30.6313 9.39946 30.4996 9.08152 30.4996 8.75C30.4996 8.41848 30.6313 8.10054 30.8657 7.86612C31.1002 7.6317 31.4181 7.5 31.7496 7.5H41.7496ZM47.9996 36.25C47.9996 39.2337 46.8144 42.0952 44.7046 44.2049C42.5948 46.3147 39.7333 47.5 36.7496 47.5C33.7659 47.5 30.9045 46.3147 28.7947 44.2049C26.6849 42.0952 25.4996 39.2337 25.4996 36.25C25.4996 33.2663 26.6849 30.4048 28.7947 28.295C30.9045 26.1853 33.7659 25 36.7496 25C39.7333 25 42.5948 26.1853 44.7046 28.295C46.8144 30.4048 47.9996 33.2663 47.9996 36.25ZM43.9496 31.6875C43.8429 31.5627 43.7127 31.4602 43.5664 31.3858C43.4201 31.3113 43.2605 31.2665 43.0969 31.2537C42.9332 31.2409 42.7686 31.2605 42.6125 31.3114C42.4564 31.3622 42.3119 31.4433 42.1871 31.55L34.3146 38.2975L31.3846 35.365C31.1499 35.1303 30.8316 34.9984 30.4996 34.9984C30.1677 34.9984 29.8493 35.1303 29.6146 35.365C29.3799 35.5997 29.248 35.9181 29.248 36.25C29.248 36.5819 29.3799 36.9003 29.6146 37.135L33.3646 40.885C33.5875 41.1084 33.8865 41.2393 34.2019 41.2513C34.5172 41.2634 34.8254 41.1557 35.0646 40.95L43.8146 33.45C44.0662 33.2342 44.2218 32.9272 44.2471 32.5967C44.2724 32.2662 44.1654 31.9391 43.9496 31.6875Z" fill="#080056"/>
</svg>
