<svg width="21" height="20" viewBox="0 0 21 20" fill="none" xmlns="http://www.w3.org/2000/svg">
<path d="M18.792 4.9668C18.1943 5.22462 17.5439 5.41016 16.874 5.48243C17.5696 5.06922 18.0904 4.41641 18.3389 3.64649C17.6862 4.03475 16.9712 4.30701 16.2256 4.45118C15.914 4.11803 15.5371 3.85262 15.1184 3.67151C14.6997 3.49039 14.2482 3.39744 13.792 3.39845C11.9463 3.39845 10.4619 4.89454 10.4619 6.73048C10.4619 6.98829 10.4932 7.2461 10.5439 7.49415C7.78027 7.34962 5.31543 6.0293 3.67676 4.00782C3.37817 4.51781 3.22171 5.0985 3.22363 5.68946C3.22363 6.84571 3.81152 7.86524 4.70801 8.46485C4.1797 8.44405 3.66376 8.29883 3.20215 8.04102V8.08204C3.20215 9.70118 4.34668 11.043 5.87207 11.3516C5.58566 11.426 5.29103 11.464 4.99512 11.4649C4.77832 11.4649 4.57324 11.4434 4.36621 11.4141C4.78809 12.7344 6.0166 13.6934 7.47949 13.7246C6.33496 14.6211 4.90137 15.1484 3.34473 15.1484C3.06543 15.1484 2.80762 15.1387 2.54004 15.1074C4.0166 16.0547 5.76855 16.6016 7.65527 16.6016C13.7803 16.6016 17.1318 11.5274 17.1318 7.12306C17.1318 6.97852 17.1318 6.83399 17.1221 6.68946C17.7705 6.21485 18.3389 5.62696 18.792 4.9668Z" fill="#FE4D3C"/>
</svg>
