<svg width="124" height="150" viewBox="0 0 124 150" fill="none" xmlns="http://www.w3.org/2000/svg">
<g filter="url(#filter0_dddd_11321_193673)">
<rect width="50" height="50" transform="translate(37 0.5)" fill="#FE4D3C"/>
<g clip-path="url(#clip0_11321_193673)">
<rect width="24" height="24" transform="translate(50 13.5)" fill="white"/>
<path d="M73.922 34.8431C73.922 35.5269 73.6504 36.1827 73.1669 36.6663C72.6834 37.1498 72.0277 37.4215 71.3439 37.4216H52.5781C51.8943 37.4215 51.2386 37.1498 50.7551 36.6663C50.2716 36.1827 50 35.5269 50 34.8431V16.0781C50.0003 15.3945 50.272 14.7389 50.7554 14.2554C51.2389 13.772 51.8945 13.5003 52.5781 13.5H71.3439C72.0276 13.5002 72.6832 13.7719 73.1667 14.2553C73.6501 14.7388 73.9218 15.3944 73.922 16.0781V34.8431Z" fill="#FE4D3C" fill-opacity="0.1"/>
<path d="M70.2003 18.8026C69.8483 18.502 69.3914 18.3535 68.93 18.3896C68.4686 18.4258 68.0404 18.6436 67.7395 18.9954L60.2245 27.7842L56.1816 24.4092C56.0216 24.2716 55.8358 24.1671 55.635 24.1018C55.4342 24.0366 55.2224 24.0119 55.012 24.0293C54.8016 24.0466 54.5968 24.1056 54.4094 24.2028C54.222 24.3 54.0557 24.4335 53.9204 24.5955C53.785 24.7575 53.6832 24.9448 53.6208 25.1465C53.5585 25.3482 53.5369 25.5603 53.5572 25.7704C53.5776 25.9805 53.6395 26.1845 53.7394 26.3705C53.8392 26.5565 53.9751 26.7208 54.139 26.8539L59.5555 31.3764C59.7225 31.5156 59.9164 31.619 60.1252 31.68C60.3339 31.741 60.5529 31.7584 60.7686 31.7311C60.9974 31.7134 61.2205 31.6508 61.4251 31.5468C61.6296 31.4428 61.8117 31.2995 61.9608 31.1251L70.3919 21.2626C70.6922 20.9105 70.8405 20.4536 70.8042 19.9923C70.768 19.531 70.5503 19.1028 70.1988 18.8019" fill="#FE4D3C"/>
</g>
</g>
<defs>
<filter id="filter0_dddd_11321_193673" x="0.437069" y="0.5" width="123.126" height="149.171" filterUnits="userSpaceOnUse" color-interpolation-filters="sRGB">
<feFlood flood-opacity="0" result="BackgroundImageFix"/>
<feColorMatrix in="SourceAlpha" type="matrix" values="0 0 0 0 0 0 0 0 0 0 0 0 0 0 0 0 0 0 127 0" result="hardAlpha"/>
<feOffset dy="9.96621"/>
<feGaussianBlur stdDeviation="2.91013"/>
<feColorMatrix type="matrix" values="0 0 0 0 0.0705882 0 0 0 0 0.0980392 0 0 0 0 0.133333 0 0 0 0.01 0"/>
<feBlend mode="normal" in2="BackgroundImageFix" result="effect1_dropShadow_11321_193673"/>
<feColorMatrix in="SourceAlpha" type="matrix" values="0 0 0 0 0 0 0 0 0 0 0 0 0 0 0 0 0 0 127 0" result="hardAlpha"/>
<feOffset dy="22.644"/>
<feGaussianBlur stdDeviation="6.61205"/>
<feColorMatrix type="matrix" values="0 0 0 0 0.0705882 0 0 0 0 0.0980392 0 0 0 0 0.133333 0 0 0 0.0104523 0"/>
<feBlend mode="normal" in2="effect1_dropShadow_11321_193673" result="effect2_dropShadow_11321_193673"/>
<feColorMatrix in="SourceAlpha" type="matrix" values="0 0 0 0 0 0 0 0 0 0 0 0 0 0 0 0 0 0 127 0" result="hardAlpha"/>
<feOffset dy="39.4109"/>
<feGaussianBlur stdDeviation="11.508"/>
<feColorMatrix type="matrix" values="0 0 0 0 0.0705882 0 0 0 0 0.0980392 0 0 0 0 0.133333 0 0 0 0.0128732 0"/>
<feBlend mode="normal" in2="effect2_dropShadow_11321_193673" result="effect3_dropShadow_11321_193673"/>
<feColorMatrix in="SourceAlpha" type="matrix" values="0 0 0 0 0 0 0 0 0 0 0 0 0 0 0 0 0 0 127 0" result="hardAlpha"/>
<feOffset dy="62.6078"/>
<feGaussianBlur stdDeviation="18.2815"/>
<feColorMatrix type="matrix" values="0 0 0 0 0.0705882 0 0 0 0 0.0980392 0 0 0 0 0.133333 0 0 0 0.015 0"/>
<feBlend mode="normal" in2="effect3_dropShadow_11321_193673" result="effect4_dropShadow_11321_193673"/>
<feBlend mode="normal" in="SourceGraphic" in2="effect4_dropShadow_11321_193673" result="shape"/>
</filter>
<clipPath id="clip0_11321_193673">
<rect width="24" height="24" fill="white" transform="translate(50 13.5)"/>
</clipPath>
</defs>
</svg>
