<svg width="573" height="468" viewBox="0 0 573 468" fill="none" xmlns="http://www.w3.org/2000/svg">
<path d="M310.484 467.741C455.468 467.741 573 461.12 573 452.954C573 444.788 455.468 438.168 310.484 438.168C165.501 438.168 47.9692 444.788 47.9692 452.954C47.9692 461.12 165.501 467.741 310.484 467.741Z" fill="#F5F5F5"/>
<path d="M84.3409 41.681C74.1186 32.42 57.2621 30.6436 50.9527 40.2834C44.6434 49.9232 48.2449 60.1117 35.3012 70.7964C26.5006 78.0982 33.0266 100.474 83.2306 98.4228C106.992 97.4562 98.9499 73.6048 98.3135 62.3322C97.6772 51.0596 97.6366 37.2661 84.3409 41.681Z" fill="#263238"/>
<path d="M64.5594 434.902L52.4011 435.36L52.1709 422.663L64.3293 422.206L64.5594 434.902Z" fill="#CC6633"/>
<path d="M51.6431 432.93H65.3855C65.6277 432.927 65.8634 433.005 66.0532 433.15C66.243 433.295 66.3753 433.499 66.4281 433.727L68.811 444.242C68.8657 444.498 68.8601 444.763 68.7946 445.017C68.7292 445.271 68.6055 445.508 68.4327 445.709C68.2599 445.911 68.0425 446.073 67.7963 446.183C67.5501 446.293 67.2815 446.348 67.0103 446.345C62.2038 446.266 59.875 445.992 53.8229 445.992C50.0996 445.992 40.446 446.371 35.301 446.371C30.156 446.371 29.5062 441.46 31.6048 441.015C41.0823 439.017 46.5929 436.274 49.6257 433.648C50.182 433.175 50.9013 432.919 51.6431 432.93Z" fill="#263238"/>
<path opacity="0.2" d="M52.1709 422.676L52.2792 428.58L64.4376 428.071L64.3293 422.219L52.1709 422.676Z" fill="black"/>
<path d="M34.2449 179.186C31.5371 193.267 34.6511 262.091 38.7806 292.487C44.2776 332.848 49.9642 426.569 49.9642 426.569L66.2114 425.629C66.2114 425.629 70.2733 326.931 66.9561 294.524C68.8381 252.817 73.4956 179.97 73.4956 179.97L34.2449 179.186Z" fill="#407BFF"/>
<path opacity="0.2" d="M70.8012 225.36C71.3699 214.793 63.6118 205.401 60.4842 225.36C58.5075 238.044 62.5964 260.275 67.958 275.976C68.7839 259.635 69.8399 241.44 70.8012 225.36Z" fill="black"/>
<path d="M153.893 395.416L145.986 402.704L135.276 391.628L143.169 384.352L153.893 395.416Z" fill="#CC6633"/>
<path d="M143.914 402.9L152.038 392.163C152.17 391.976 152.371 391.845 152.6 391.797C152.829 391.748 153.068 391.786 153.27 391.902L162.747 397.283C162.981 397.433 163.18 397.626 163.334 397.851C163.489 398.077 163.594 398.33 163.645 398.596C163.695 398.862 163.69 399.135 163.629 399.398C163.568 399.662 163.452 399.911 163.289 400.131C160.405 403.827 158.821 405.46 155.26 410.188C153.067 413.088 150.535 417.085 147.515 421.108C144.496 425.131 140.367 422.245 141.26 420.299C145.322 411.56 143.602 409.13 143.386 404.964C143.316 404.238 143.502 403.511 143.914 402.9Z" fill="#263238"/>
<path opacity="0.2" d="M135.276 391.641L140.8 397.336L148.639 389.995L143.183 384.352L135.276 391.641Z" fill="black"/>
<path d="M53.0913 179.564C53.0913 179.564 70.5842 268.387 75.1334 302.871C77.8413 323.469 137.55 397.584 137.55 397.584L147.745 387.226C147.745 387.226 125.893 332.966 99.572 300.781C98.5295 263.057 102.97 200.96 87.8605 180.257L53.0913 179.564Z" fill="#407BFF"/>
<path d="M37.7382 111.459C37.7382 119.087 37.3726 126.571 36.7904 134.134C36.2082 141.697 35.4364 149.221 34.1773 156.797L33.9471 158.221L33.6357 159.827C33.401 160.881 33.1438 161.913 32.864 162.923C32.2682 164.922 31.51 166.842 30.8331 168.697C29.3517 172.333 27.6705 175.891 25.7964 179.355C22.1062 186.129 17.902 192.629 13.2183 198.805C12.7239 199.445 12.0019 199.886 11.1907 200.045C10.3796 200.203 9.53655 200.066 8.82329 199.661C8.11003 199.257 7.57681 198.612 7.32596 197.851C7.07511 197.09 7.1243 196.267 7.46407 195.539V195.461C10.6458 188.825 13.7328 182.02 16.4271 175.28C17.7811 171.91 18.9861 168.501 20.0151 165.157C20.5025 163.485 20.9358 161.826 21.2742 160.206C21.4503 159.396 21.5721 158.6 21.694 157.816L21.8294 156.653L21.9648 155.347C22.6553 148.111 23.0614 140.77 23.4405 133.416C23.8196 126.062 23.9957 118.643 24.2123 111.354V111.289C24.241 109.557 24.9818 107.906 26.2717 106.701C27.5616 105.496 29.2949 104.834 31.0903 104.862C32.8857 104.89 34.5962 105.605 35.8455 106.849C37.0947 108.093 37.7804 109.766 37.7517 111.498L37.7382 111.459Z" fill="#CC6633"/>
<path d="M33.3243 101.91C16.6979 106.6 18.8372 135.78 18.8372 135.78L42.4769 141.92C42.4769 141.92 46.4034 120.55 46.0513 112.883C45.6993 104.915 42.4905 99.3372 33.3243 101.91Z" fill="#407BFF"/>
<path d="M9.22418 193.854L0.897461 200.685L12.5684 205.283C12.5684 205.283 16.1834 199.967 14.5045 194.925L9.22418 193.854Z" fill="#CC6633"/>
<path d="M2.3731 211.109L7.69408 211.749C8.2852 211.82 8.88416 211.702 9.39818 211.411C9.9122 211.121 10.3126 210.675 10.5374 210.143L12.5683 205.283L0.897315 200.686L0.0172522 208.222C-0.0630825 208.906 0.139241 209.592 0.580305 210.133C1.02137 210.673 1.66558 211.024 2.3731 211.109Z" fill="#CC6633"/>
<path d="M27.9492 109.499C27.2045 138.758 34.1773 160.115 34.2586 179.186L87.861 180.257C87.4684 161.16 87.6309 148.699 96.1471 114.476C96.5174 112.985 96.5614 111.437 96.2763 109.929C95.9912 108.421 95.3833 106.987 94.4915 105.718C93.5996 104.45 92.4434 103.375 91.0966 102.562C89.7498 101.749 88.242 101.215 86.6696 100.996C83.4607 100.539 79.8999 100.108 76.2848 99.8726C68.1838 99.1484 60.0395 98.9826 51.9139 99.3762C46.2003 99.7681 40.0534 100.578 35.6667 101.218C33.5827 101.517 31.6721 102.508 30.2635 104.019C28.8549 105.531 28.0365 107.469 27.9492 109.499Z" fill="#407BFF"/>
<path d="M77.9096 136.538L62.0143 136.434C61.8561 136.44 61.6982 136.414 61.5516 136.356C61.405 136.298 61.2732 136.21 61.1651 136.099C61.057 135.987 60.9753 135.854 60.9256 135.709C60.8758 135.564 60.8593 135.41 60.877 135.258L61.7571 127.996C61.8144 127.671 61.9884 127.377 62.2484 127.164C62.5084 126.952 62.8379 126.834 63.1787 126.833L79.0604 126.937C79.218 126.929 79.3756 126.954 79.5223 127.01C79.6689 127.066 79.801 127.153 79.9094 127.264C80.0177 127.374 80.0997 127.507 80.1495 127.651C80.1993 127.795 80.2158 127.949 80.1977 128.1L79.3177 135.376C79.2633 135.699 79.092 135.993 78.8342 136.206C78.5764 136.418 78.2489 136.536 77.9096 136.538Z" fill="white"/>
<path opacity="0.4" d="M51.995 99.3896C51.995 99.3896 43.2485 105.294 52.4959 120.106C60.0881 112.982 68.0457 106.229 76.3388 99.8729L51.995 99.3896Z" fill="white"/>
<path d="M74.4974 73.3828C72.805 80.9066 70.9637 94.7263 76.3388 99.8727C67.8867 103.085 60.0933 107.72 53.3218 113.562C47.378 103.034 51.9679 99.3764 51.9679 99.3764C60.7414 97.5477 60.6602 91.2909 59.2656 85.3869L74.4974 73.3828Z" fill="#CC6633"/>
<path opacity="0.2" d="M72.8454 74.689C72.6343 79.1846 71.4295 83.5847 69.3116 87.5943C67.8358 90.3504 63.8959 91.5129 59.9288 91.735C60.0598 89.5999 59.8451 87.4581 59.2925 85.3868L72.8454 74.689Z" fill="black"/>
<path d="M87.1836 64.1739C83.1218 76.2171 81.7678 81.3897 73.6442 86.0921C61.5264 93.1587 47.0799 85.7786 47.2694 72.8341C47.459 61.1827 54.0391 43.4574 67.6733 41.6418C70.6925 41.2201 73.7734 41.551 76.6225 42.603C79.4717 43.6551 81.9943 45.3932 83.9501 47.652C85.9059 49.9107 87.2298 52.6148 87.7958 55.5069C88.3618 58.399 88.1511 61.3827 87.1836 64.1739Z" fill="#CC6633"/>
<path d="M54.0801 48.356C60.8498 50.1977 77.3408 51.5692 80.6444 49.6622C77.5439 54.26 80.4954 66.8258 85.2884 69.8692C91.7467 64.8664 93.1818 52.771 87.211 46.7755C81.2401 40.78 62.3662 33.6089 54.0801 48.356Z" fill="#263238"/>
<path d="M89.079 71.5409C88.6516 72.6883 87.9906 73.7416 87.1349 74.6389C86.2792 75.5362 85.2462 76.2593 84.0966 76.7657C81.0367 78.072 79.0057 75.564 79.439 72.5206C79.8316 69.7906 81.9032 65.8066 85.1797 65.7544C85.8868 65.7638 86.5806 65.9411 87.1998 66.2706C87.819 66.6001 88.3446 67.0717 88.73 67.6437C89.1155 68.2157 89.349 68.8705 89.4098 69.5502C89.4707 70.2299 89.3571 70.9136 89.079 71.5409Z" fill="#CC6633"/>
<path d="M88.7271 177.239L91.0559 181.929C91.2319 182.281 90.7851 182.647 90.1623 182.634L33.9332 181.498C33.4593 181.498 33.0667 181.25 33.0396 180.949L32.647 176.312C32.647 175.999 33.0532 175.737 33.5812 175.737L87.8742 176.835C88.0405 176.825 88.2066 176.857 88.3562 176.928C88.5057 176.999 88.6335 177.106 88.7271 177.239Z" fill="#263238"/>
<path d="M81.3213 182.948H82.77C83.0543 182.948 83.2845 182.804 83.271 182.634L82.7158 176.6C82.7158 176.43 82.4451 176.273 82.1607 176.273H80.6985C80.4141 176.273 80.1975 176.404 80.2111 176.586L80.7526 182.608C80.7797 182.804 81.0234 182.948 81.3213 182.948Z" fill="#407BFF"/>
<path d="M38.0085 182.085H39.4708C39.7551 182.085 39.9853 181.955 39.9717 181.772L39.4166 175.737C39.4166 175.567 39.1458 175.424 38.8615 175.411H37.3993C37.1149 175.411 36.8848 175.541 36.9118 175.724L37.4534 181.746C37.4805 181.929 37.7242 182.072 38.0085 182.085Z" fill="#407BFF"/>
<path d="M59.6583 182.517H61.1206C61.4049 182.517 61.6351 182.386 61.6215 182.203L61.0664 176.182C61.0664 175.999 60.7956 175.855 60.5113 175.855H59.0491C58.7647 175.855 58.5481 175.999 58.5616 176.168L59.1032 182.203C59.1303 182.36 59.374 182.517 59.6583 182.517Z" fill="#407BFF"/>
<path d="M67.7007 63.1681C67.4299 64.1608 66.6717 64.84 65.9947 64.6702C65.3177 64.5004 64.9928 63.56 65.25 62.5672C65.5073 61.5745 66.279 60.8953 66.956 61.0651C67.633 61.2349 67.9579 62.1754 67.7007 63.1681Z" fill="#263238"/>
<path d="M56.0296 60.2946C55.7723 61.3004 55.0141 61.9666 54.3372 61.7968C53.6602 61.627 53.3217 60.6996 53.5925 59.6938C53.8633 58.688 54.608 58.0349 55.2849 58.1916C55.9619 58.3484 56.3004 59.3019 56.0296 60.2946Z" fill="#263238"/>
<path d="M55.5698 58.3223L53.2681 57.0161C53.2681 57.0161 54.0533 59.2105 55.5698 58.3223Z" fill="#263238"/>
<path d="M58.6161 62.7632C57.1004 64.8103 55.3009 66.6474 53.2681 68.2231C53.6972 68.7137 54.232 69.1081 54.8353 69.3788C55.4386 69.6495 56.0959 69.79 56.7612 69.7906L58.6161 62.7632Z" fill="#CC6633"/>
<path d="M59.2657 73.6961C59.2181 73.6567 59.1827 73.6053 59.1636 73.5476C59.1444 73.49 59.1423 73.4283 59.1574 73.3695C59.1697 73.3317 59.1897 73.2966 59.2161 73.2663C59.2425 73.2359 59.2749 73.2109 59.3114 73.1927C59.3479 73.1745 59.3878 73.1634 59.4288 73.1602C59.4697 73.1569 59.5109 73.1614 59.5501 73.1736C60.8147 73.556 62.1548 73.6465 63.4624 73.4378C64.7699 73.229 66.0084 72.7269 67.078 71.9719C67.1408 71.9199 67.2225 71.8942 67.305 71.9003C67.3875 71.9064 67.4641 71.9439 67.518 72.0046C67.5718 72.0652 67.5985 72.144 67.5922 72.2236C67.5858 72.3032 67.547 72.3771 67.4841 72.4291C66.3395 73.2624 65.0029 73.8164 63.5884 74.0438C62.174 74.2712 60.7234 74.1654 59.3605 73.7353L59.2657 73.6961Z" fill="#263238"/>
<path d="M74.0639 58.5834C73.9818 58.5127 73.913 58.4287 73.8608 58.3352C73.5812 57.6272 73.1309 56.9937 72.5469 56.4872C71.963 55.9806 71.2623 55.6156 70.503 55.4224C70.3396 55.3947 70.1944 55.3055 70.0991 55.1744C70.0039 55.0434 69.9666 54.8812 69.9953 54.7236C70.024 54.5659 70.1165 54.4258 70.2523 54.3339C70.3882 54.2421 70.5563 54.206 70.7197 54.2337C71.6853 54.4642 72.5799 54.914 73.3289 55.5457C74.0778 56.1773 74.6594 56.9725 75.0252 57.865C75.073 57.9878 75.0788 58.1221 75.0417 58.2483C75.0047 58.3745 74.9267 58.4859 74.8192 58.5663C74.7117 58.6466 74.5804 58.6916 74.4445 58.6947C74.3085 58.6978 74.1752 58.6588 74.0639 58.5834Z" fill="#263238"/>
<path d="M53.7281 53.9465L53.6469 53.8681C53.5303 53.7555 53.4648 53.6028 53.4648 53.4436C53.4648 53.2844 53.5303 53.1317 53.6469 53.0191C54.3618 52.3719 55.2246 51.8963 56.1655 51.6308C57.1064 51.3653 58.099 51.3174 59.0627 51.4908C59.1432 51.5105 59.2189 51.5456 59.2852 51.5939C59.3515 51.6422 59.4071 51.7029 59.4487 51.7722C59.4904 51.8416 59.5172 51.9183 59.5276 51.9979C59.538 52.0774 59.5319 52.1582 59.5095 52.2354C59.468 52.3895 59.3649 52.5214 59.2228 52.6022C59.0806 52.683 58.911 52.7061 58.7513 52.6664C57.9788 52.5259 57.1828 52.5652 56.4293 52.7811C55.6758 52.9969 54.9865 53.383 54.4186 53.9073C54.3204 53.979 54.2024 54.0209 54.0795 54.0279C53.9566 54.0349 53.8344 54.0065 53.7281 53.9465Z" fill="#263238"/>
<path d="M96.1335 110.231C100.073 115.26 103.756 120.328 107.331 125.592C109.104 128.204 110.864 130.817 112.53 133.638C114.323 136.492 115.933 139.45 117.35 142.494C117.778 143.444 118.149 144.416 118.46 145.407C118.685 146.172 118.839 146.954 118.92 147.745C118.943 148.063 118.943 148.381 118.92 148.699V149.287C118.896 149.546 118.855 149.803 118.798 150.057L118.704 150.462V150.645V150.789L118.595 151.076C117.959 152.644 117.458 154.224 116.7 155.739C115.327 158.845 113.678 161.83 111.771 164.661C109.808 167.519 107.509 170.149 104.921 172.498C103.602 173.691 102.184 174.779 100.683 175.75C99.9109 176.234 99.1257 176.704 98.3133 177.135L97.027 177.736C96.5396 177.945 96.1876 178.089 95.4835 178.337L92.9111 172.38C93.0942 172.207 93.2887 172.046 93.4933 171.897L94.2379 171.27C94.7389 170.839 95.2263 170.369 95.7002 169.886C96.6648 168.887 97.5689 167.836 98.4081 166.738C100.062 164.494 101.503 162.111 102.714 159.619C103.282 158.313 103.905 157.085 104.379 155.7C104.853 154.316 105.381 153.088 105.814 151.781C106.247 150.475 106.586 149.038 107.006 147.68V147.432V147.301V147.419V147.68C107.006 147.837 106.938 148.072 106.924 148.163C106.918 148.263 106.918 148.364 106.924 148.464V148.842C106.924 149.143 106.924 149.051 106.924 148.921C106.924 148.79 106.545 148.085 106.261 147.536C105.029 145.303 103.377 142.729 101.685 140.274C99.9922 137.818 98.232 135.297 96.4313 132.828C92.8434 127.878 89.1471 122.875 85.5186 117.964L96.1335 110.231Z" fill="#CC6633"/>
<path d="M99.0713 176.795L88.6324 183.914L83.9478 173.621C83.9478 173.621 90.2842 170.343 95.2802 172.537L99.0713 176.795Z" fill="#CC6633"/>
<path d="M81.3621 184.764L78.749 181.25C78.2529 180.572 78.0504 179.734 78.1844 178.915C78.3184 178.095 78.7784 177.359 79.4666 176.861L83.9481 173.622L88.6327 183.915L85.7624 185.626C85.0522 186.046 84.2029 186.191 83.3861 186.031C82.5693 185.871 81.846 185.418 81.3621 184.764Z" fill="#CC6633"/>
<path d="M75.2421 107.122C71.6947 120.72 93.5744 143.996 93.5744 143.996L111.974 125.566C111.974 125.566 103.566 108.245 92.586 102.811C84.9227 99.0234 76.8126 101.126 75.2421 107.122Z" fill="#407BFF"/>
<path d="M67.2402 61.1959L64.9385 59.8896C64.9385 59.8896 65.7102 62.0841 67.2402 61.1959Z" fill="#263238"/>
<path d="M43.7226 143.448C43.6237 143.447 43.5272 143.419 43.4453 143.365C43.3633 143.312 43.2997 143.236 43.2622 143.148C43.2183 143.032 43.2234 142.903 43.2766 142.791C43.3298 142.678 43.4268 142.591 43.5465 142.547L45.6587 141.763C47.6371 141.058 49.3453 139.788 50.5551 138.121C51.7648 136.454 52.4184 134.471 52.4284 132.437L52.5773 113.34C52.6202 111.886 52.1442 110.462 51.2291 109.306C50.314 108.15 49.0153 107.333 47.5501 106.99C46.085 106.647 44.5423 106.8 43.1801 107.424C41.818 108.047 40.719 109.103 40.0669 110.414L30.9143 127.395C29.931 129.187 29.534 131.226 29.7757 133.24C30.0174 135.255 30.8865 137.152 32.2682 138.68L33.7576 140.313C33.8077 140.358 33.8475 140.413 33.8744 140.473C33.9013 140.534 33.9146 140.599 33.9135 140.665C33.9124 140.731 33.897 140.796 33.8681 140.856C33.8393 140.916 33.7977 140.969 33.7461 141.013C33.6946 141.056 33.6341 141.088 33.5687 141.108C33.5033 141.127 33.4344 141.133 33.3665 141.125C33.2986 141.117 33.2333 141.095 33.1747 141.061C33.1161 141.027 33.0656 140.981 33.0264 140.927L31.5371 139.151C30.0122 137.489 29.0488 135.419 28.7755 133.216C28.5021 131.013 28.9318 128.781 30.0072 126.82L39.1598 109.839C39.9421 108.39 41.2073 107.237 42.7516 106.566C44.2958 105.895 46.0293 105.745 47.6727 106.14C49.3161 106.536 50.7737 107.453 51.8108 108.745C52.8479 110.037 53.404 111.628 53.3897 113.262L53.2408 132.358C53.2298 134.573 52.5225 136.733 51.2123 138.552C49.902 140.372 48.0505 141.764 45.9024 142.547L43.7903 143.317L43.7226 143.448Z" fill="#263238"/>
<path d="M52.9155 117.598C52.7895 117.595 52.6694 117.546 52.5791 117.461C52.4887 117.377 52.4348 117.262 52.428 117.141C52.2361 115.631 51.5746 114.214 50.5307 113.074C49.4868 111.935 48.1096 111.127 46.5806 110.758C45.0515 110.389 43.4425 110.476 41.9654 111.006C40.4883 111.537 39.2126 112.487 38.3065 113.731C38.2754 113.785 38.2335 113.833 38.1833 113.872C38.1332 113.91 38.0756 113.938 38.014 113.955C37.9524 113.972 37.8879 113.978 37.8243 113.97C37.7606 113.963 37.699 113.944 37.643 113.914C37.587 113.884 37.5377 113.844 37.4979 113.796C37.458 113.747 37.4285 113.692 37.4109 113.632C37.3933 113.573 37.388 113.511 37.3953 113.449C37.4026 113.388 37.4224 113.328 37.4535 113.274C38.4609 111.838 39.9015 110.735 41.5803 110.114C43.259 109.493 45.0949 109.385 46.8394 109.804C48.584 110.223 50.1531 111.149 51.3342 112.456C52.5154 113.764 53.2517 115.39 53.4435 117.115C53.4437 117.238 53.3947 117.357 53.3065 117.447C53.2183 117.537 53.0977 117.591 52.9696 117.598H52.9155Z" fill="#263238"/>
<path d="M47.6355 107.161C47.5554 107.16 47.4768 107.141 47.4061 107.104C47.3354 107.068 47.2748 107.016 47.2293 106.952C46.9819 106.423 46.854 105.848 46.854 105.267C46.854 104.686 46.9819 104.112 47.2293 103.582C47.5808 102.529 48.1734 101.565 48.9632 100.762C49.753 99.9596 50.7199 99.3385 51.7921 98.9452C51.8515 98.9227 51.915 98.9124 51.9788 98.9149C52.0425 98.9174 52.1049 98.9327 52.1622 98.9597C52.2195 98.9867 52.2703 99.0249 52.3115 99.0719C52.3527 99.1188 52.3833 99.1735 52.4014 99.2325C52.4406 99.3486 52.4314 99.4749 52.3758 99.5846C52.3202 99.6943 52.2226 99.7788 52.1035 99.8203C51.1852 100.184 50.3597 100.735 49.6841 101.436C49.0085 102.138 48.4989 102.972 48.1907 103.883C47.9887 104.287 47.8716 104.726 47.8461 105.175C47.8205 105.623 47.887 106.072 48.0417 106.495C48.0767 106.547 48.1007 106.606 48.1122 106.667C48.1236 106.728 48.1224 106.791 48.1086 106.852C48.0947 106.912 48.0685 106.97 48.0315 107.021C47.9944 107.072 47.9473 107.115 47.8928 107.148C47.8093 107.172 47.7212 107.176 47.6355 107.161Z" fill="#263238"/>
<path d="M42.6123 142.729C42.3822 143.579 42.6124 144.388 43.2623 144.532C43.9121 144.676 44.5079 144.088 44.7245 143.226C44.9411 142.364 44.6433 141.554 44.0611 141.423C43.4789 141.293 42.829 141.867 42.6123 142.729Z" fill="#263238"/>
<path d="M81.037 120.171C81.4703 122.144 82.9326 123.502 84.273 123.228C85.6134 122.953 86.3445 121.112 85.8977 119.152C85.4509 117.193 84.0022 115.809 82.6618 116.096C81.3214 116.383 80.5902 118.251 81.037 120.171Z" fill="#263238"/>
<path d="M85.2749 119.557C85.2126 119.559 85.1506 119.549 85.0925 119.527C85.0343 119.506 84.981 119.474 84.9358 119.433C84.8905 119.391 84.8541 119.342 84.8286 119.287C84.8032 119.232 84.7892 119.173 84.7874 119.113C84.5031 111.89 81.6598 102.916 76.1222 100.264C76.0079 100.208 75.921 100.111 75.8805 99.9938C75.8399 99.8765 75.849 99.7484 75.9056 99.6374C75.9329 99.5816 75.9717 99.5317 76.0196 99.4907C76.0675 99.4497 76.1235 99.4185 76.1842 99.3989C76.245 99.3794 76.3092 99.372 76.373 99.377C76.4368 99.3821 76.4989 99.3996 76.5555 99.4284C82.4857 102.263 85.4509 111.341 85.7487 119.022C85.7544 119.083 85.7467 119.145 85.7261 119.204C85.7055 119.262 85.6725 119.316 85.6291 119.361C85.5858 119.407 85.5331 119.443 85.4745 119.468C85.4158 119.492 85.3524 119.505 85.2884 119.505L85.2749 119.557Z" fill="#263238"/>
<path d="M79.5887 120.341C79.873 122.026 81.1322 123.228 82.4049 123.032C83.6776 122.836 84.4899 121.307 84.2056 119.609C83.9213 117.911 82.6486 116.723 81.3759 116.919C80.1032 117.115 79.3044 118.643 79.5887 120.341Z" fill="white"/>
<path d="M79.48 120.485C79.8862 122.575 81.0235 124.116 82.0119 123.933C83.0002 123.75 83.447 121.922 83.0408 119.832C82.6347 117.742 81.4974 116.201 80.509 116.383C79.5206 116.566 79.0603 118.395 79.48 120.485Z" fill="#263238"/>
<path d="M32.3764 140.261C32.1598 141.123 32.4576 141.933 33.0398 142.063C33.622 142.194 34.2719 141.632 34.5021 140.757C34.7322 139.882 34.4208 139.098 33.8386 138.954C33.2564 138.811 32.6066 139.412 32.3764 140.261Z" fill="#263238"/>
<path d="M266.273 33.3777C257.703 34.8537 256.619 34.0961 256.511 28.1529C256.403 22.2096 253.289 12.2955 257.621 9.1867C257.919 8.91464 258.285 8.72258 258.683 8.62972C259.081 8.53685 259.498 8.54642 259.891 8.65747C260.285 8.76852 260.641 8.97716 260.924 9.26256C261.208 9.54796 261.409 9.90014 261.507 10.2839C261.772 9.63197 262.287 9.10369 262.945 8.80923C263.604 8.51476 264.354 8.47686 265.041 8.7034C265.217 7.47557 265.42 4.3276 267.749 3.47857C270.078 2.62953 272.217 4.66722 272.217 4.66722C272.217 4.66722 272.041 -0.178823 275.426 0.291412C276.436 0.447198 277.375 0.893218 278.119 1.57127C278.862 2.24933 279.377 3.12794 279.596 4.09249C279.596 4.09249 281.545 1.34945 284.186 2.4336C286.826 3.51776 286.271 6.7049 286.271 6.7049C286.271 6.7049 289.073 5.39869 291.158 6.87471C293.243 8.35072 291.727 10.715 291.727 10.715C291.727 10.715 293.623 6.01261 297.238 8.61197C300.487 10.9631 297.535 14.6467 297.535 14.6467C297.535 14.6467 301.11 14.085 301.976 15.8222C304.901 21.7394 293.758 28.3488 293.392 38.3413C276.279 44.585 266.273 33.3777 266.273 33.3777Z" fill="#263238"/>
<path d="M204.506 192.186L198.793 191.167L191.238 198.13C190.826 198.507 190.502 198.964 190.285 199.47C190.068 199.977 189.964 200.521 189.978 201.069L190.087 206.764C190.1 207.737 190.489 208.672 191.177 209.384C191.865 210.096 192.804 210.536 193.81 210.617L196.437 210.839C197.392 210.926 198.349 210.684 199.137 210.156C199.925 209.627 200.494 208.847 200.742 207.952L202.096 203.302C202.096 203.302 209.556 194.799 204.506 192.186Z" fill="#A24E3F"/>
<path d="M262.211 88.0292C258.379 97.6038 254.561 107.217 250.878 116.857C247.196 126.497 243.54 136.176 240.115 145.698L239.505 147.462L239.086 148.611C238.923 149.042 238.761 149.486 238.612 149.826C237.975 151.38 237.339 152.66 236.703 153.954C235.43 156.566 234.144 158.904 232.844 161.268C230.231 165.971 227.536 170.503 224.815 175.023C219.399 184.075 213.984 192.918 208.378 201.891L191.143 191.546C196.829 183.017 202.313 174.213 207.566 165.422C210.152 161.007 212.697 156.579 215.067 152.19C216.245 149.996 217.382 147.801 218.384 145.659C218.858 144.627 219.332 143.569 219.643 142.707C219.751 142.459 219.792 142.289 219.86 142.119L220.076 141.44L220.699 139.533C223.962 129.501 227.388 119.809 230.691 109.974L240.602 80.5708L262.211 88.0292Z" fill="#407BFF"/>
<path opacity="0.6" d="M262.211 88.0292C258.379 97.6038 254.561 107.217 250.878 116.857C247.196 126.497 243.54 136.176 240.115 145.698L239.505 147.462L239.086 148.611C238.923 149.042 238.761 149.486 238.612 149.826C237.975 151.38 237.339 152.66 236.703 153.954C235.43 156.566 234.144 158.904 232.844 161.268C230.231 165.971 227.536 170.503 224.815 175.023C219.399 184.075 213.984 192.918 208.378 201.891L191.143 191.546C196.829 183.017 202.313 174.213 207.566 165.422C210.152 161.007 212.697 156.579 215.067 152.19C216.245 149.996 217.382 147.801 218.384 145.659C218.858 144.627 219.332 143.569 219.643 142.707C219.751 142.459 219.792 142.289 219.86 142.119L220.076 141.44L220.699 139.533C223.962 129.501 227.388 119.809 230.691 109.974L240.602 80.5708L262.211 88.0292Z" fill="white"/>
<path d="M210.572 437.636L198.427 438.211L204.168 407.698L215.717 410.258L210.572 437.636Z" fill="#A24E3F"/>
<path d="M297.698 438.08H285.553L285.593 410.95H297.725L297.698 438.08Z" fill="#A24E3F"/>
<path d="M284.402 436.722H299.201C299.439 436.718 299.67 436.796 299.854 436.942C300.037 437.088 300.161 437.293 300.203 437.519L302.152 447.968C302.196 448.227 302.18 448.491 302.107 448.743C302.033 448.996 301.904 449.229 301.727 449.428C301.551 449.627 301.331 449.786 301.084 449.895C300.837 450.004 300.569 450.06 300.298 450.058C295.532 449.98 292.066 449.706 286.068 449.706C282.385 449.706 271.174 450.071 266.138 450.071C261.101 450.071 260.586 445.212 262.685 444.768C272.163 442.796 279.298 440.079 282.398 437.479C282.948 436.999 283.661 436.73 284.402 436.722Z" fill="#263238"/>
<path opacity="0.2" d="M204.167 407.711L201.514 421.818L213.063 424.378L215.717 410.271L204.167 407.711Z" fill="black"/>
<path opacity="0.2" d="M297.725 410.95H285.58V424.927H297.725V410.95Z" fill="black"/>
<path d="M307.5 87.6897C298.023 128.822 300.541 169.419 299.526 178.21L234.713 174.082C227.943 124.446 235.498 92.784 239.79 79.8003C240.488 77.6571 241.807 75.7516 243.592 74.3094C245.377 72.8673 247.554 71.9487 249.863 71.6626C259.501 70.6435 269.207 70.3509 278.892 70.7874C285.449 71.1659 291.956 72.119 298.334 73.6349C301.48 74.3295 304.211 76.1992 305.929 78.834C307.648 81.4688 308.213 84.6536 307.5 87.6897Z" fill="#407BFF"/>
<path d="M287.963 42.9131C285.823 50.6589 283.292 64.3741 287.367 71.3101C288.003 72.3942 286.785 73.3216 286.731 74.5756C286.582 78.4158 281.193 79.5653 271.553 79.6176C261.913 79.6698 257.783 75.7904 260.41 72.133C260.813 71.5755 261.425 71.1913 262.116 71.0619C271.147 69.1156 271.323 62.2842 270.091 55.7662L287.963 42.9131Z" fill="#A24E3F"/>
<path opacity="0.4" d="M270.863 77.4884C273.396 80.886 275.002 84.8431 275.534 88.9961C285.161 84.6334 289.751 74.04 289.751 74.04L286.853 71.0488C286.853 71.0488 276.157 72.9951 270.863 77.4884Z" fill="black"/>
<path opacity="0.4" d="M269.915 77.5274C266.37 80.3109 263.379 83.6922 261.087 87.5068C254.358 83.4837 256.579 72.0152 256.579 72.0152L262.062 70.9702C262.062 70.9702 264.513 73.1516 269.915 77.5274Z" fill="black"/>
<path d="M270.349 77.2402L268.277 77.4362L264.77 79.6698C264.547 81.0152 264.795 82.3941 265.475 83.5884C267.511 83.9722 269.59 84.1082 271.662 83.9933C273.052 83.3457 274.16 82.2445 274.79 80.8845L272.217 77.7105L270.349 77.2402Z" fill="#263238"/>
<path d="M270.349 77.2403C272.95 80.381 274.945 83.947 276.238 87.7684C285.865 83.4057 291.47 72.9821 291.47 72.9821L286.826 69.0635C286.826 69.0635 275.643 72.7731 270.349 77.2403Z" fill="#407BFF"/>
<path d="M270.348 77.2403C266.633 79.5018 263.383 82.407 260.763 85.809C253.993 81.799 256.579 70.9966 256.579 70.9966L262.062 69.9517C262.062 69.9517 264.96 72.8906 270.348 77.2403Z" fill="#407BFF"/>
<path opacity="0.2" d="M280.679 48.1509L270.118 55.753C270.438 57.3243 270.615 58.9196 270.646 60.5207C274.451 60.2464 279.921 56.602 280.584 52.7879C280.902 51.2601 280.934 49.6896 280.679 48.1509Z" fill="black"/>
<path d="M289.899 30.1123C288.369 41.6461 288.085 48.3992 281.613 54.029C271.878 62.3757 257.432 56.132 255.36 44.3892C253.492 33.8219 256.308 16.7367 268.372 12.8834C271.028 12.0197 273.868 11.8256 276.624 12.3195C279.38 12.8135 281.959 13.9791 284.116 15.7055C286.273 17.432 287.937 19.6619 288.949 22.1835C289.961 24.7051 290.288 27.4345 289.899 30.1123Z" fill="#A24E3F"/>
<path d="M286.975 40.5355C284.267 38.0145 285.959 25.9451 287.327 22.4837C280.557 23.1107 258.677 23.0845 259.503 17.2588C260.329 11.4331 268.29 6.48261 281.302 10.571C292.133 13.9802 294.841 19.192 294.841 23.4503C295.004 32.2019 286.975 40.5355 286.975 40.5355Z" fill="#263238"/>
<path d="M294.097 40.6666C292.811 43.0373 290.614 44.8283 287.977 45.6564C284.524 46.6883 282.818 43.6187 283.793 40.327C284.66 37.375 287.517 33.2604 290.969 33.6784C294.422 34.0964 295.681 37.7277 294.097 40.6666Z" fill="#A24E3F"/>
<path d="M197.56 418.239L217.639 422.51C217.639 422.51 237.163 348.696 242.958 312.619C244.731 301.647 248.847 285.985 252.598 269.514C257.323 248.745 263.267 226.279 268.141 208.684C273.286 190.149 277.104 176.825 277.104 176.825L234.712 174.122C234.712 174.122 214.985 270.664 211.005 306.205C206.848 343.145 197.56 418.239 197.56 418.239Z" fill="#263238"/>
<path opacity="0.2" d="M252.598 269.488C257.323 248.719 263.267 226.252 268.141 208.658L263.686 199.514C253.166 211.636 250.472 249.137 252.598 269.488Z" fill="black"/>
<path d="M254.913 175.375C254.913 175.375 263.687 274.033 267.099 308.191C270.89 345.601 281.058 422.236 281.058 422.236H301.448C301.448 422.236 302.369 340.624 298.74 304.494C298.226 233.463 299.512 178.223 299.512 178.223L254.913 175.375Z" fill="#263238"/>
<path d="M278.458 422.693H304.643V415.143L277.442 413.693L278.458 422.693Z" fill="#407BFF"/>
<path d="M194.934 418.161L218.858 423.255L220.564 415.796L195.516 409.709L194.934 418.161Z" fill="#407BFF"/>
<path d="M272.42 32.1759C272.42 33.1164 271.784 33.8478 271.148 33.8087C270.511 33.7695 270.037 32.9727 270.105 32.0322C270.173 31.0917 270.741 30.3603 271.378 30.3995C272.014 30.4386 272.488 31.2354 272.42 32.1759Z" fill="#263238"/>
<path d="M261.371 31.5231C261.371 32.4635 260.735 33.195 260.099 33.1558C259.462 33.1166 258.989 32.3199 259.056 31.3794C259.124 30.4389 259.693 29.7074 260.329 29.7466C260.965 29.7858 261.439 30.5303 261.371 31.5231Z" fill="#263238"/>
<path d="M263.903 32.1758C262.538 34.978 260.784 37.5882 258.69 39.9347C260.302 41.6066 263.294 41.0841 263.294 41.0841L263.903 32.1758Z" fill="#A24E3F"/>
<path d="M267.248 43.8665C268.346 43.8068 269.419 43.5329 270.403 43.0614C271.388 42.5899 272.263 41.9306 272.976 41.1234C273.026 41.0724 273.054 41.0046 273.054 40.934C273.054 40.8635 273.026 40.7957 272.976 40.7446C272.92 40.695 272.848 40.6675 272.772 40.6675C272.697 40.6675 272.624 40.695 272.569 40.7446C271.765 41.6297 270.757 42.3201 269.626 42.7603C268.495 43.2004 267.272 43.378 266.057 43.2787C266.02 43.2751 265.982 43.2787 265.946 43.2892C265.91 43.2998 265.877 43.3171 265.848 43.3401C265.819 43.3632 265.795 43.3916 265.777 43.4236C265.76 43.4557 265.749 43.4908 265.745 43.5269C265.742 43.601 265.768 43.6736 265.818 43.7296C265.869 43.7856 265.94 43.8206 266.016 43.8273C266.426 43.8643 266.837 43.8774 267.248 43.8665Z" fill="#263238"/>
<path d="M275.114 28.9106C275.21 28.8999 275.303 28.8687 275.385 28.8191C275.513 28.7388 275.604 28.6129 275.637 28.4686C275.67 28.3244 275.642 28.1734 275.561 28.0485C275.077 27.2969 274.415 26.6678 273.628 26.2134C272.841 25.7589 271.954 25.4924 271.039 25.436C270.901 25.4564 270.776 25.5236 270.685 25.6255C270.595 25.7273 270.545 25.857 270.545 25.9912C270.545 26.1253 270.595 26.2551 270.685 26.3569C270.776 26.4587 270.901 26.5259 271.039 26.5463C271.761 26.5978 272.461 26.8141 273.08 27.1775C273.699 27.5408 274.22 28.0408 274.599 28.6363C274.65 28.7239 274.725 28.796 274.816 28.8445C274.907 28.893 275.01 28.9159 275.114 28.9106Z" fill="#263238"/>
<path d="M255.915 27.5128C256.009 27.5064 256.1 27.4781 256.18 27.4304C256.261 27.3826 256.328 27.3167 256.376 27.2385C256.721 26.6315 257.21 26.1117 257.803 25.7213C258.396 25.3309 259.076 25.081 259.788 24.9918C259.938 24.9786 260.078 24.9104 260.179 24.8013C260.279 24.6921 260.333 24.55 260.329 24.404C260.319 24.2573 260.249 24.1204 260.135 24.0227C260.021 23.925 259.872 23.8743 259.72 23.8815C258.811 23.9875 257.942 24.3027 257.185 24.8005C256.429 25.2983 255.808 25.9642 255.374 26.7421C255.301 26.8687 255.282 27.018 255.323 27.1575C255.364 27.297 255.46 27.4153 255.59 27.4867C255.692 27.5311 255.807 27.5403 255.915 27.5128Z" fill="#263238"/>
<path d="M280.3 438.76C281.378 438.735 282.45 438.595 283.496 438.342C283.55 438.33 283.6 438.302 283.639 438.263C283.677 438.223 283.703 438.173 283.712 438.12C283.727 438.069 283.724 438.015 283.705 437.965C283.685 437.916 283.65 437.874 283.604 437.845C283.171 437.571 279.353 435.233 277.971 435.912C277.822 435.988 277.696 436.1 277.605 436.238C277.515 436.375 277.464 436.533 277.457 436.696C277.409 436.965 277.432 437.241 277.524 437.499C277.617 437.757 277.775 437.989 277.985 438.172C278.663 438.62 279.481 438.828 280.3 438.76ZM282.67 437.95C280.598 438.355 279.014 438.276 278.378 437.741C278.233 437.617 278.125 437.459 278.063 437.283C278.002 437.107 277.989 436.918 278.026 436.735C278.026 436.526 278.134 436.448 278.215 436.409C278.933 436.069 281.126 437.062 282.67 437.95Z" fill="#407BFF"/>
<path d="M283.427 438.355C283.475 438.373 283.528 438.373 283.576 438.355C283.622 438.331 283.661 438.295 283.687 438.251C283.713 438.207 283.726 438.157 283.725 438.107C283.725 437.963 283.576 434.58 282.209 433.47C282.044 433.33 281.849 433.226 281.639 433.165C281.429 433.104 281.208 433.088 280.99 433.117C280.773 433.117 280.563 433.189 280.393 433.319C280.224 433.45 280.105 433.631 280.056 433.835C279.744 435.142 282.06 437.754 283.292 438.368C283.337 438.377 283.384 438.372 283.427 438.355ZM281.18 433.6C281.421 433.603 281.652 433.691 281.83 433.848C282.696 434.554 283.007 436.526 283.102 437.519C281.897 436.604 280.394 434.658 280.611 433.888C280.611 433.822 280.611 433.652 281.044 433.613H281.18V433.6Z" fill="#407BFF"/>
<path d="M196.613 433.051L210.856 436.97C211.084 437.033 211.281 437.17 211.414 437.359C211.548 437.547 211.609 437.775 211.587 438.002L210.531 448.543C210.497 448.802 210.405 449.051 210.261 449.273C210.118 449.495 209.926 449.684 209.7 449.828C209.474 449.972 209.218 450.067 208.95 450.107C208.682 450.147 208.409 450.13 208.148 450.058C203.585 448.752 200.336 447.563 194.609 445.983C191.062 445.016 179.512 441.019 175.302 438.25C171.091 435.481 173.569 431.21 175.559 431.993C184.508 435.494 190.804 434.932 194.514 433.3C195.161 432.98 195.905 432.892 196.613 433.051Z" fill="#263238"/>
<path d="M192.077 433.94C193.124 434.191 194.195 434.335 195.272 434.371C195.33 434.374 195.388 434.361 195.439 434.334C195.489 434.306 195.53 434.264 195.557 434.214C195.589 434.17 195.606 434.118 195.606 434.064C195.606 434.01 195.589 433.958 195.557 433.914C195.218 433.548 192.199 430.309 190.696 430.583C190.529 430.618 190.374 430.695 190.246 430.804C190.118 430.914 190.021 431.054 189.965 431.21C189.848 431.454 189.795 431.723 189.812 431.992C189.828 432.261 189.913 432.522 190.06 432.751C190.576 433.354 191.286 433.772 192.077 433.94ZM194.595 433.783C192.483 433.626 190.98 433.13 190.534 432.477C190.442 432.314 190.395 432.133 190.395 431.948C190.395 431.763 190.442 431.581 190.534 431.419C190.615 431.21 190.723 431.171 190.818 431.158C191.59 430.988 193.35 432.529 194.595 433.835V433.783Z" fill="#407BFF"/>
<path d="M195.205 434.358C195.258 434.371 195.314 434.371 195.367 434.358C195.419 434.345 195.467 434.319 195.505 434.282C195.544 434.245 195.571 434.199 195.584 434.149C195.584 434.018 196.423 430.726 195.435 429.29C195.314 429.114 195.156 428.966 194.972 428.853C194.788 428.741 194.581 428.667 194.365 428.636C194.155 428.58 193.932 428.593 193.731 428.674C193.529 428.754 193.362 428.897 193.255 429.081C192.578 430.256 194.094 433.339 195.083 434.305C195.118 434.332 195.16 434.35 195.205 434.358ZM194.379 429.198C194.61 429.26 194.809 429.405 194.934 429.603C195.584 430.517 195.313 432.503 195.137 433.522C194.23 432.333 193.363 430.073 193.783 429.381C193.783 429.316 193.905 429.172 194.284 429.224L194.379 429.198Z" fill="#407BFF"/>
<path d="M288.166 70.2915C288.022 70.2692 287.875 70.2788 287.735 70.3196C287.596 70.3604 287.468 70.4314 287.361 70.527C287.254 70.6227 287.171 70.7405 287.118 70.8717C287.065 71.0029 287.044 71.144 287.056 71.2842C287.53 78.2855 276.225 90.8773 273.517 128.588C271.905 151.525 270.43 223.04 271.513 260.24C271.529 260.729 271.659 261.207 271.896 261.639C272.132 262.071 272.467 262.445 272.875 262.734C273.284 263.022 273.755 263.217 274.253 263.303C274.752 263.389 275.264 263.365 275.751 263.232C295.735 257.85 305.172 270.899 309.017 255.512C308.814 237.081 303.033 170.909 304.522 155.221C306.011 139.534 312.199 96.912 313.742 85.548C315.11 75.6731 293.758 71.2711 288.166 70.2915Z" fill="#407BFF"/>
<path opacity="0.7" d="M288.166 70.2915C288.022 70.2692 287.875 70.2788 287.735 70.3196C287.596 70.3604 287.468 70.4314 287.361 70.527C287.254 70.6227 287.171 70.7405 287.118 70.8717C287.065 71.0029 287.044 71.144 287.056 71.2842C287.53 78.2855 276.225 90.8773 273.517 128.588C271.905 151.525 270.43 223.04 271.513 260.24C271.529 260.729 271.659 261.207 271.896 261.639C272.132 262.071 272.467 262.445 272.875 262.734C273.284 263.022 273.755 263.217 274.253 263.303C274.752 263.389 275.264 263.365 275.751 263.232C295.735 257.85 305.172 270.899 309.017 255.512C308.814 237.081 303.033 170.909 304.522 155.221C306.011 139.534 312.199 96.912 313.742 85.548C315.11 75.6731 293.758 71.2711 288.166 70.2915Z" fill="white"/>
<path opacity="0.2" d="M301.34 102.254C300.46 108.08 300.122 131.618 305.93 142.943C306.905 135.106 308.177 125.792 309.41 116.819L301.34 102.254Z" fill="#407BFF"/>
<path d="M309.64 204.047L303.872 204.7L298.767 213.491C298.488 213.967 298.314 214.494 298.258 215.038C298.202 215.583 298.265 216.132 298.443 216.652L300.284 222.059C300.596 222.985 301.255 223.765 302.131 224.248C303.007 224.731 304.038 224.882 305.023 224.672L307.595 224.149C308.541 223.964 309.387 223.46 309.982 222.728C310.577 221.995 310.883 221.082 310.845 220.152L310.682 215.346C310.682 215.346 315.258 205.144 309.64 204.047Z" fill="#A24E3F"/>
<path d="M312.808 81.1587C314.649 86.3835 316.355 91.543 318.048 96.7679C319.74 101.993 321.433 107.218 323.03 112.442C324.628 117.667 326.171 123.01 327.593 128.457C328.297 131.187 328.947 133.943 329.57 136.829C329.854 138.279 330.138 139.755 330.369 141.323C330.477 142.133 330.599 142.877 330.667 143.778L330.788 145.085L330.856 146.561C330.883 147.057 330.883 147.554 330.856 148.05C330.856 148.572 330.856 149.069 330.788 149.473L330.667 150.78L330.518 151.955C330.328 153.536 330.084 154.973 329.841 156.409C329.353 159.257 328.785 162 328.202 164.717C327.038 170.151 325.738 175.467 324.425 180.757C323.111 186.047 321.717 191.324 320.363 196.588L316.301 212.38L296.696 207.247C299.729 197.046 302.491 186.661 305.05 176.342C306.296 171.117 307.46 165.997 308.503 160.89C309.017 158.277 309.504 155.795 309.856 153.34C310.06 152.112 310.222 150.897 310.33 149.8C310.436 148.933 310.472 148.06 310.439 147.188V146.639L310.344 145.934C310.344 145.489 310.181 144.902 310.1 144.392C309.911 143.295 309.667 142.133 309.396 140.944C308.841 138.567 308.178 136.111 307.46 133.642C306.106 128.692 304.387 123.676 302.64 118.686C299.187 108.707 295.302 98.6619 291.294 88.8914L312.808 81.1587Z" fill="#407BFF"/>
<path opacity="0.7" d="M312.808 81.1587C314.649 86.3835 316.355 91.543 318.048 96.7679C319.74 101.993 321.433 107.218 323.03 112.442C324.628 117.667 326.171 123.01 327.593 128.457C328.297 131.187 328.947 133.943 329.57 136.829C329.854 138.279 330.138 139.755 330.369 141.323C330.477 142.133 330.599 142.877 330.667 143.778L330.788 145.085L330.856 146.561C330.883 147.057 330.883 147.554 330.856 148.05C330.856 148.572 330.856 149.069 330.788 149.473L330.667 150.78L330.518 151.955C330.328 153.536 330.084 154.973 329.841 156.409C329.353 159.257 328.785 162 328.202 164.717C327.038 170.151 325.738 175.467 324.425 180.757C323.111 186.047 321.717 191.324 320.363 196.588L316.301 212.38L296.696 207.247C299.729 197.046 302.491 186.661 305.05 176.342C306.296 171.117 307.46 165.997 308.503 160.89C309.017 158.277 309.504 155.795 309.856 153.34C310.06 152.112 310.222 150.897 310.33 149.8C310.436 148.933 310.472 148.06 310.439 147.188V146.639L310.344 145.934C310.344 145.489 310.181 144.902 310.1 144.392C309.911 143.295 309.667 142.133 309.396 140.944C308.841 138.567 308.178 136.111 307.46 133.642C306.106 128.692 304.387 123.676 302.64 118.686C299.187 108.707 295.302 98.6619 291.294 88.8914L312.808 81.1587Z" fill="white"/>
<path d="M261.832 69.3116C262.13 69.3095 262.422 69.389 262.674 69.5408C262.927 69.6927 263.13 69.9107 263.259 70.1694C263.388 70.4281 263.438 70.7169 263.404 71.0021C263.369 71.2873 263.251 71.5572 263.064 71.7803C259.842 75.3854 257.811 80.336 253.993 96.2195C249.389 115.382 239.587 211.793 237.745 259.038C237.736 259.431 237.639 259.817 237.461 260.17C237.282 260.523 237.026 260.834 236.711 261.082C236.396 261.33 236.028 261.51 235.634 261.608C235.24 261.706 234.829 261.721 234.428 261.651C224.87 259.953 218.316 264.42 217.274 258.503C216.123 251.972 220.415 189.587 228.444 160.25C227.185 134.23 231.734 82.034 240.819 75.0981C245.747 71.2448 256.227 69.403 261.832 69.3116Z" fill="#407BFF"/>
<path opacity="0.7" d="M261.832 69.3116C262.13 69.3095 262.422 69.389 262.674 69.5408C262.927 69.6927 263.13 69.9107 263.259 70.1694C263.388 70.4281 263.438 70.7169 263.404 71.0021C263.369 71.2873 263.251 71.5572 263.064 71.7803C259.842 75.3854 257.811 80.336 253.993 96.2195C249.389 115.382 239.587 211.793 237.745 259.038C237.736 259.431 237.639 259.817 237.461 260.17C237.282 260.523 237.026 260.834 236.711 261.082C236.396 261.33 236.028 261.51 235.634 261.608C235.24 261.706 234.829 261.721 234.428 261.651C224.87 259.953 218.316 264.42 217.274 258.503C216.123 251.972 220.415 189.587 228.444 160.25C227.185 134.23 231.734 82.034 240.819 75.0981C245.747 71.2448 256.227 69.403 261.832 69.3116Z" fill="white"/>
<path d="M267.098 82.2559C267.098 82.2559 255.4 113.958 251.284 140.526C250.959 147.749 254.52 161.739 257.404 167.839C263.429 155.182 267.193 147.723 267.789 140.526C268.75 129.697 270.334 82.4649 270.334 82.4649L267.098 82.2559Z" fill="#263238"/>
<path d="M291.578 119.966C291.459 119.963 291.345 119.921 291.253 119.849C291.161 119.777 291.097 119.677 291.069 119.566C291.041 119.455 291.052 119.338 291.1 119.233C291.148 119.129 291.23 119.042 291.334 118.987L293.554 117.863C295.627 116.835 297.326 115.221 298.424 113.238C299.522 111.254 299.968 108.995 299.701 106.761L297.291 85.7045C297.114 84.135 296.393 82.6688 295.246 81.5425C294.099 80.4162 292.593 79.6954 290.969 79.4962C289.346 79.297 287.7 79.6311 286.297 80.4446C284.894 81.2581 283.817 82.5036 283.237 83.9804L275.439 103.769C274.599 105.867 274.441 108.161 274.985 110.347C275.529 112.533 276.75 114.508 278.485 116.009L280.354 117.641C280.453 117.739 280.508 117.87 280.508 118.007C280.508 118.144 280.453 118.275 280.354 118.373C280.252 118.469 280.116 118.522 279.974 118.522C279.833 118.522 279.697 118.469 279.595 118.373L277.727 116.753C275.836 115.106 274.509 112.944 273.922 110.553C273.334 108.162 273.514 105.655 274.437 103.364L282.303 83.6146C282.975 81.9272 284.214 80.5061 285.822 79.5789C287.431 78.6517 289.315 78.2722 291.174 78.501C293.032 78.7298 294.757 79.5538 296.073 80.841C297.388 82.1281 298.218 83.804 298.429 85.6L300.839 106.643C301.124 109.092 300.629 111.566 299.419 113.736C298.21 115.907 296.343 117.67 294.069 118.791L291.848 119.901C291.768 119.951 291.673 119.974 291.578 119.966Z" fill="#263238"/>
<path d="M298.294 90.3024C298.165 90.3034 298.04 90.2588 297.943 90.177C297.845 90.0952 297.783 89.9818 297.766 89.8583C297.451 88.1648 296.56 86.621 295.233 85.4712C293.906 84.3214 292.22 83.6313 290.441 83.5101C287.435 83.1444 283.347 84.0587 281.708 87.8728C281.685 87.9405 281.647 88.0027 281.598 88.0557C281.548 88.1088 281.488 88.1515 281.421 88.1813C281.354 88.2111 281.281 88.2273 281.207 88.2289C281.133 88.2305 281.06 88.2176 280.991 88.1908C280.923 88.164 280.861 88.124 280.809 88.0731C280.757 88.0223 280.717 87.9618 280.69 87.8953C280.663 87.8288 280.651 87.7578 280.654 87.6865C280.657 87.6153 280.674 87.5453 280.706 87.481C281.622 85.7728 283.06 84.3775 284.825 83.484C286.59 82.5905 288.597 82.2421 290.574 82.4858C292.551 82.7296 294.403 83.5538 295.878 84.8469C297.354 86.1399 298.381 87.8392 298.822 89.7146C298.841 89.8479 298.805 89.9832 298.722 90.0909C298.638 90.1986 298.513 90.2699 298.375 90.2893L298.294 90.3024Z" fill="#263238"/>
<path d="M291.009 79.4997C290.939 79.4964 290.869 79.4795 290.806 79.4499C290.742 79.4203 290.685 79.3787 290.638 79.3276C290.592 79.2764 290.556 79.2168 290.534 79.1521C290.511 79.0874 290.503 79.019 290.508 78.9511C290.671 76.404 290.292 71.7669 287.8 70.5652C287.673 70.5011 287.577 70.3908 287.534 70.2585C287.491 70.1262 287.504 69.9828 287.57 69.8599C287.637 69.7369 287.751 69.6444 287.888 69.6027C288.025 69.5611 288.174 69.5737 288.301 69.6378C291.903 71.4273 291.578 78.2457 291.524 79.0164C291.517 79.1447 291.46 79.2658 291.365 79.3554C291.269 79.445 291.142 79.4965 291.009 79.4997Z" fill="#263238"/>
<path d="M281.193 118.164C281.057 119.144 280.421 119.862 279.758 119.771C279.094 119.679 278.661 118.843 278.796 117.877C278.932 116.91 279.554 116.178 280.218 116.27C280.881 116.361 281.315 117.197 281.193 118.164Z" fill="#263238"/>
<path d="M249.714 96.9901C248.861 99.0669 247.006 100.321 245.652 99.7854C244.298 99.2498 243.77 97.1729 244.623 95.0438C245.476 92.9147 247.331 91.713 248.685 92.2485C250.039 92.7841 250.553 94.9132 249.714 96.9901Z" fill="#263238"/>
<path d="M245.259 95.6448H245.151C245.011 95.6165 244.889 95.5362 244.81 95.4212C244.732 95.3062 244.703 95.166 244.731 95.0309C246.518 86.4491 253.911 72.8254 260.423 68.9067C260.482 68.8575 260.552 68.8212 260.627 68.8003C260.702 68.7794 260.781 68.7744 260.858 68.7856C260.935 68.7968 261.009 68.824 261.074 68.8653C261.139 68.9065 261.195 68.961 261.236 69.0248C261.278 69.0886 261.304 69.1603 261.314 69.2349C261.324 69.3096 261.318 69.3855 261.294 69.4574C261.271 69.5293 261.232 69.5956 261.18 69.6516C261.128 69.7076 261.064 69.752 260.992 69.7819C254.696 73.6091 247.534 86.7626 245.787 95.2138C245.765 95.3338 245.7 95.4425 245.604 95.5212C245.508 95.6 245.386 95.6437 245.259 95.6448Z" fill="#263238"/>
<path d="M251.258 97.4207C250.635 99.2102 249.037 100.32 247.683 99.8894C246.329 99.4584 245.72 97.6428 246.329 95.8402C246.939 94.0376 248.55 92.9404 249.904 93.3715C251.258 93.8025 251.88 95.6181 251.258 97.4207Z" fill="white"/>
<path d="M251.353 97.604C250.527 99.8115 248.997 101.314 247.955 100.948C246.912 100.582 246.736 98.4922 247.575 96.2717C248.415 94.0511 249.931 92.562 250.974 92.9278C252.016 93.2935 252.192 95.3834 251.353 97.604Z" fill="#263238"/>
<path d="M292.783 119.601C292.661 120.567 292.011 121.286 291.347 121.208C290.684 121.129 290.251 120.267 290.386 119.3C290.522 118.334 291.158 117.615 291.821 117.694C292.485 117.772 292.918 118.621 292.783 119.601Z" fill="#263238"/>
<path d="M393.671 63.5213C398.193 75.447 386.17 81.4425 378.29 99.011C370.411 116.58 389.42 137.531 418.597 137.988C447.775 138.445 448.695 111.485 444.173 92.1403C439.651 72.7954 449.101 69.6474 447.098 54.8742C444.525 35.4639 415.537 20.756 404.029 38.5727C393.793 37.6453 389.718 53.0978 393.671 63.5213Z" fill="#263238"/>
<path d="M480.093 224.055V222.539C480.066 221.812 479.877 221.099 479.538 220.449L474.637 211.123L468.896 210.078C464.834 214.297 468.896 222.709 468.896 222.709V224.055C468.897 225.157 469.27 226.229 469.959 227.108C470.648 227.987 471.615 228.626 472.714 228.927L473.486 229.149C474.281 229.351 475.114 229.371 475.918 229.207C476.722 229.043 477.476 228.7 478.118 228.205C478.76 227.71 479.273 227.077 479.616 226.356C479.959 225.635 480.122 224.847 480.093 224.055Z" fill="#CC6633"/>
<path d="M455.762 104.079L457.874 118.369L460.095 132.62C460.826 137.387 461.598 142.129 462.383 146.884L464.725 161.043L465.01 162.441C465.104 162.898 465.267 163.486 465.389 163.995L465.795 165.602L466.269 167.26C466.878 169.455 467.623 171.728 468.273 173.974C469.627 178.481 471.184 183.039 472.714 187.572C475.828 196.624 479.077 205.715 482.543 214.65L463.399 221.181L453.813 193.567C452.229 188.957 450.617 184.346 449.087 179.643C448.329 177.279 447.571 174.941 446.853 172.498L446.298 170.683L445.77 168.789C445.594 168.136 445.405 167.561 445.242 166.842L444.741 164.7L441.912 150.332C441.009 145.595 440.066 140.858 439.082 136.12L436.184 121.909L433.165 107.802L455.762 104.079Z" fill="#407BFF"/>
<path opacity="0.6" d="M455.762 104.079L457.874 118.369L460.095 132.62C460.826 137.387 461.598 142.129 462.383 146.884L464.725 161.043L465.01 162.441C465.104 162.898 465.267 163.486 465.389 163.995L465.795 165.602L466.269 167.26C466.878 169.455 467.623 171.728 468.273 173.974C469.627 178.481 471.184 183.039 472.714 187.572C475.828 196.624 479.077 205.715 482.543 214.65L463.399 221.181L453.813 193.567C452.229 188.957 450.617 184.346 449.087 179.643C448.329 177.279 447.571 174.941 446.853 172.498L446.298 170.683L445.77 168.789C445.594 168.136 445.405 167.561 445.242 166.842L444.741 164.7L441.912 150.332C441.009 145.595 440.066 140.858 439.082 136.12L436.184 121.909L433.165 107.802L455.762 104.079Z" fill="white"/>
<path d="M452.717 102.982C453.353 109.944 452.785 127.264 445.541 170.2H395.445C396.244 151.547 396.298 139.66 387.999 104.066C387.81 103.266 387.794 102.437 387.95 101.63C388.106 100.823 388.433 100.056 388.908 99.3751C389.384 98.6946 389.999 98.1153 390.716 97.673C391.433 97.2308 392.236 96.9349 393.076 96.8036C397.967 96.0285 402.898 95.5097 407.847 95.2492C415.429 94.7262 423.039 94.7262 430.621 95.2492C436.849 95.7978 443.605 96.882 447.694 97.6004C449.026 97.8444 450.238 98.5027 451.145 99.4746C452.052 100.447 452.604 101.679 452.717 102.982Z" fill="#263238"/>
<path d="M410.054 70.5098C411.489 77.5764 412.924 90.534 407.793 95.2494C407.793 95.2494 414.211 102.773 424.04 102.773C433.87 102.773 430.58 95.2494 430.58 95.2494C422.456 93.3684 422.619 87.5166 424.04 82.0305L410.054 70.5098Z" fill="#CC6633"/>
<path opacity="0.2" d="M415.755 75.2119L424.027 82.0173C423.676 83.3015 423.441 84.6126 423.323 85.9359C420.196 85.5048 415.294 82.9316 414.617 79.653C414.306 78.0986 415.484 75.9434 415.755 75.2119Z" fill="black"/>
<path d="M401.429 56.6374C403.338 68.3149 403.893 73.2915 410.635 78.7515C420.79 86.9675 435.236 82.1476 436.983 70.1566C438.554 59.3673 435.155 42.0731 422.78 38.5072C420.054 37.7072 417.161 37.5927 414.376 38.1745C411.591 38.7562 409.006 40.0151 406.867 41.8314C404.728 43.6478 403.105 45.9614 402.154 48.5526C401.202 51.1439 400.952 53.9269 401.429 56.6374Z" fill="#CC6633"/>
<path d="M403.447 65.0497C410.379 58.4272 412.762 49.2185 412.112 45.4566C418.787 47.2461 423.689 44.7121 423.391 43.6148C428.103 48.056 436.646 51.5697 435.685 46.7889C434.723 42.0082 428.4 33.1913 415.213 36.3393C402.026 39.4872 396.948 52.5493 397.138 57.8525C397.327 63.1557 403.447 65.0497 403.447 65.0497Z" fill="#263238"/>
<path d="M418.8 57.9567C418.895 58.9233 419.49 59.6417 420.154 59.5894C420.817 59.5372 421.25 58.7012 421.156 57.7477C421.061 56.7942 420.452 56.0627 419.802 56.1149C419.152 56.1672 418.8 57.0032 418.8 57.9567Z" fill="#263238"/>
<path d="M430.052 56.925C430.147 57.8785 430.756 58.61 431.406 58.5447C432.056 58.4793 432.502 57.6695 432.408 56.716C432.313 55.7624 431.704 55.031 431.054 55.0832C430.404 55.1354 429.957 55.9714 430.052 56.925Z" fill="#263238"/>
<path d="M430.782 55.1618L433.097 54.2866C433.097 54.2866 432.041 56.1937 430.782 55.1618Z" fill="#263238"/>
<path d="M426.775 58.9624C427.87 61.065 429.26 63.0121 430.905 64.7489C430.434 65.1423 429.88 65.4325 429.282 65.5994C428.683 65.7662 428.055 65.8059 427.439 65.7155L426.775 58.9624Z" fill="#CC6633"/>
<path d="M422.402 69.9217C422.894 69.9541 423.387 69.9541 423.878 69.9217C423.955 69.9119 424.025 69.8737 424.073 69.8152C424.121 69.7567 424.143 69.6824 424.135 69.6082C424.134 69.5714 424.124 69.5354 424.108 69.5024C424.091 69.4694 424.067 69.4403 424.037 69.4169C424.008 69.3934 423.974 69.3763 423.937 69.3665C423.9 69.3567 423.862 69.3545 423.824 69.36C422.592 69.4977 421.344 69.3542 420.18 68.9413C419.016 68.5284 417.968 67.8575 417.122 66.9827C417.07 66.9369 417.002 66.9106 416.932 66.9084C416.861 66.9061 416.792 66.9282 416.737 66.9705C416.681 67.0129 416.643 67.0729 416.63 67.1397C416.616 67.2065 416.627 67.2759 416.662 67.3354C417.394 68.1109 418.278 68.7388 419.264 69.1827C420.249 69.6266 421.316 69.8778 422.402 69.9217Z" fill="#263238"/>
<path d="M398.748 66.1337C399.653 68.2481 401.385 69.9331 403.568 70.823C406.466 71.9725 408.294 69.5168 407.793 66.7346C407.346 64.1222 405.288 60.504 402.228 60.5562C401.562 60.5876 400.914 60.7767 400.342 61.1069C399.769 61.4371 399.29 61.8982 398.946 62.4494C398.602 63.0007 398.404 63.6252 398.37 64.2678C398.335 64.9103 398.465 65.5512 398.748 66.1337Z" fill="#CC6633"/>
<path d="M414.942 52.9412C415.058 52.9809 415.185 52.9846 415.304 52.9518C415.423 52.919 415.528 52.8514 415.605 52.7583C417.311 50.7337 420.791 50.9296 420.818 50.9296C420.972 50.9369 421.122 50.8867 421.238 50.7893C421.354 50.6919 421.427 50.5549 421.441 50.4071C421.448 50.333 421.44 50.2581 421.416 50.1872C421.393 50.1162 421.354 50.0506 421.304 49.9944C421.253 49.9382 421.191 49.8925 421.122 49.8601C421.052 49.8278 420.976 49.8095 420.899 49.8063C420.737 49.8063 416.77 49.5711 414.698 52.0529C414.602 52.1699 414.556 52.3185 414.571 52.4672C414.586 52.616 414.661 52.7532 414.779 52.8497L414.942 52.9412Z" fill="#263238"/>
<path d="M434.127 51.7521C434.256 51.7597 434.383 51.726 434.489 51.6563C434.596 51.5866 434.675 51.485 434.715 51.3671C434.756 51.2492 434.754 51.1219 434.712 51.0048C434.669 50.8878 434.587 50.7877 434.479 50.7202C433.722 50.2043 432.847 49.87 431.929 49.7451C431.011 49.6202 430.075 49.7082 429.199 50.0018C429.056 50.0622 428.944 50.1738 428.886 50.3129C428.828 50.4521 428.828 50.6076 428.887 50.7464C428.917 50.8155 428.961 50.8782 429.016 50.9309C429.071 50.9836 429.136 51.0252 429.208 51.0531C429.28 51.0811 429.357 51.095 429.434 51.0939C429.512 51.0928 429.588 51.0768 429.659 51.0468C430.355 50.8232 431.096 50.7623 431.821 50.869C432.546 50.9757 433.234 51.2471 433.829 51.6607C433.918 51.7162 434.021 51.7478 434.127 51.7521Z" fill="#263238"/>
<path d="M476.668 440.611L489.138 440.036L485.442 412.867L472.985 413.455L476.668 440.611Z" fill="#CC6633"/>
<g opacity="0.2">
<path opacity="0.2" d="M485.44 412.88L487.35 426.882L474.88 427.457L472.971 413.455L485.44 412.88Z" fill="black"/>
</g>
<path d="M445.541 170.2C445.541 170.2 461.233 261.961 467.624 297.738C474.285 334.939 489.287 422.494 489.287 422.494L472.796 425.106C472.796 425.106 450.564 337.46 441.655 301.017C431.988 261.242 408.565 207.91 408.809 170.304L445.541 170.2Z" fill="#407BFF"/>
<path opacity="0.2" d="M420.344 198.361C417.988 195.057 413.452 190.42 409.973 186.605C413.127 209.987 422.158 237.117 430.404 262.666C432.597 243.204 431.351 213.683 420.344 198.361Z" fill="black"/>
<path d="M399.737 438.769H412.085L412.911 411.182H400.55L399.737 438.769Z" fill="#CC6633"/>
<path d="M412.667 436.966H398.789C398.549 436.964 398.316 437.046 398.134 437.198C397.952 437.349 397.833 437.56 397.8 437.789L396.216 448.37C396.188 448.638 396.218 448.91 396.305 449.167C396.392 449.423 396.534 449.66 396.722 449.86C396.909 450.061 397.138 450.221 397.394 450.331C397.65 450.441 397.927 450.498 398.207 450.499C403.04 450.407 405.369 450.133 411.475 450.133C415.226 450.133 422.984 450.512 428.169 450.512C433.355 450.512 433.585 445.574 431.473 445.117C421.792 443.119 417.934 440.349 414.725 437.698C414.147 437.231 413.42 436.973 412.667 436.966Z" fill="#263238"/>
<g opacity="0.2">
<path opacity="0.2" d="M412.898 411.195L412.478 425.419H400.13L400.55 411.195H412.898Z" fill="black"/>
</g>
<path d="M431.447 170.2C431.447 170.2 426.437 263.136 423.052 299.318C419.518 336.963 415.267 422.272 415.267 422.272H398.559C398.559 422.272 395.581 337.29 396.745 300.167C398.004 259.675 387.917 207.805 394.728 170.2H431.447Z" fill="#407BFF"/>
<path d="M397.111 422.846L416.702 423.199L417 411.678L397.029 412.88L397.111 422.846Z" fill="#263238"/>
<path d="M417.297 439.096C418.352 439.189 419.408 438.931 420.289 438.364C420.488 438.193 420.641 437.977 420.733 437.736C420.825 437.494 420.854 437.235 420.817 436.98C420.808 436.826 420.758 436.677 420.673 436.547C420.588 436.417 420.47 436.31 420.33 436.235C418.814 435.425 413.885 437.855 413.33 438.142C413.278 438.17 413.237 438.213 413.21 438.264C413.184 438.315 413.174 438.373 413.181 438.43C413.189 438.487 413.215 438.541 413.257 438.583C413.298 438.626 413.352 438.654 413.411 438.665C414.689 438.928 415.991 439.072 417.297 439.096ZM419.504 436.627C419.69 436.622 419.876 436.658 420.046 436.732C420.103 436.76 420.15 436.803 420.184 436.856C420.217 436.909 420.235 436.97 420.235 437.032C420.265 437.198 420.249 437.368 420.19 437.526C420.131 437.684 420.03 437.824 419.897 437.933C419.152 438.586 417.121 438.704 414.386 438.26C415.983 437.437 417.714 436.885 419.504 436.627Z" fill="#407BFF"/>
<path d="M413.466 438.678H413.588C415.064 438.038 417.975 435.464 417.745 434.119C417.745 433.792 417.461 433.4 416.648 433.322C416.357 433.29 416.063 433.316 415.783 433.399C415.504 433.482 415.245 433.621 415.023 433.805C413.48 435.046 413.196 438.26 413.182 438.39C413.177 438.44 413.185 438.491 413.207 438.537C413.228 438.582 413.262 438.622 413.304 438.651C413.355 438.673 413.411 438.682 413.466 438.678ZM416.418 433.845H416.594C417.122 433.845 417.163 434.093 417.163 434.171C417.312 434.981 415.335 436.993 413.832 437.868C413.948 436.517 414.497 435.234 415.403 434.197C415.685 433.965 416.046 433.839 416.418 433.845Z" fill="#407BFF"/>
<path d="M488.988 436.966H475.111C474.999 436.96 474.888 436.977 474.784 437.017C474.68 437.056 474.587 437.118 474.51 437.196C474.434 437.275 474.377 437.369 474.342 437.471C474.308 437.574 474.298 437.682 474.312 437.789L475.016 448.369C475.098 448.944 475.387 449.472 475.833 449.862C476.279 450.251 476.852 450.476 477.453 450.499C482.273 450.407 484.548 450.133 490.64 450.133C494.404 450.133 502.244 450.512 507.429 450.512C512.615 450.512 511.816 445.574 509.568 445.117C499.454 443.118 495.041 440.349 491.209 437.698C490.564 437.24 489.789 436.985 488.988 436.966Z" fill="#263238"/>
<path d="M493.619 439.096C494.678 439.189 495.738 438.931 496.624 438.364C496.822 438.192 496.973 437.976 497.064 437.735C497.156 437.494 497.187 437.235 497.152 436.98C497.14 436.825 497.088 436.676 497 436.546C496.913 436.416 496.793 436.309 496.651 436.235C495.135 435.425 490.22 437.855 489.665 438.142C489.611 438.169 489.566 438.21 489.537 438.261C489.508 438.313 489.496 438.372 489.503 438.43C489.514 438.486 489.541 438.538 489.582 438.58C489.623 438.621 489.675 438.651 489.733 438.665C491.011 438.928 492.312 439.072 493.619 439.096ZM495.826 436.627C496.012 436.62 496.198 436.655 496.367 436.732C496.426 436.76 496.476 436.802 496.511 436.855C496.547 436.908 496.567 436.969 496.57 437.032C496.594 437.197 496.575 437.366 496.516 437.523C496.457 437.68 496.36 437.821 496.232 437.933C495.474 438.586 493.443 438.704 490.708 438.26C492.305 437.439 494.036 436.887 495.826 436.627Z" fill="#407BFF"/>
<path d="M489.801 438.677H489.923C491.385 438.037 494.296 435.464 494.066 434.119C494.066 433.792 493.782 433.4 492.969 433.322C492.681 433.29 492.388 433.316 492.111 433.399C491.833 433.483 491.577 433.621 491.358 433.805C489.801 435.046 489.517 438.259 489.503 438.39C489.501 438.44 489.512 438.489 489.533 438.534C489.554 438.579 489.585 438.62 489.625 438.651C489.681 438.673 489.741 438.682 489.801 438.677ZM492.739 433.844H492.915C493.443 433.844 493.484 434.093 493.497 434.171C493.633 434.981 491.656 436.992 490.153 437.868C490.274 436.518 490.822 435.236 491.724 434.197C492.008 433.966 492.368 433.841 492.739 433.844Z" fill="#407BFF"/>
<path d="M471.415 425.851L490.763 422.847L488.583 412.867L469.411 417.23L471.415 425.851Z" fill="#263238"/>
<path d="M419.572 56.1935L421.887 55.3184C421.887 55.3184 420.845 57.2254 419.572 56.1935Z" fill="#263238"/>
<path d="M394.633 167.365L393.36 171.701C393.184 172.028 393.59 172.38 394.172 172.38H445.784C446.245 172.38 446.61 172.158 446.637 171.884L447.098 167.561C447.098 167.26 446.732 166.999 446.245 166.999H395.458C395.3 166.986 395.14 167.012 394.995 167.077C394.851 167.141 394.726 167.24 394.633 167.365Z" fill="#263238"/>
<path d="M401.632 172.838H400.278C400.008 172.838 399.804 172.707 399.818 172.55L400.454 166.921C400.454 166.751 400.712 166.62 400.982 166.62H402.336C402.607 166.62 402.81 166.751 402.797 166.921L402.147 172.55C402.133 172.707 401.903 172.838 401.632 172.838Z" fill="#407BFF"/>
<path d="M441.966 172.838H440.612C440.341 172.838 440.125 172.707 440.152 172.55L440.788 166.921C440.788 166.751 441.045 166.62 441.316 166.62H442.67C442.941 166.62 443.144 166.751 443.13 166.921L442.494 172.55C442.467 172.707 442.237 172.838 441.966 172.838Z" fill="#407BFF"/>
<path d="M421.874 172.838H420.52C420.249 172.838 420.046 172.707 420.059 172.55L420.696 166.921C420.696 166.751 420.953 166.62 421.224 166.62H422.578C422.848 166.62 423.051 166.751 423.024 166.921L422.388 172.55C422.388 172.707 422.144 172.838 421.874 172.838Z" fill="#407BFF"/>
<path d="M405.627 94.8574C397.76 95.5497 385.737 94.1128 386.103 105.751C386.468 117.389 384.126 148.216 384.749 162.65C385.372 177.083 381.472 270.542 387.782 297.633C388.892 302.401 429.645 301.787 434.574 301.33V297.032C434.574 297.032 464.184 293.192 471.509 294.42C470.873 278.145 454.477 195.932 453.84 172.838C453.204 149.744 455.898 110.062 455.736 103.766C455.573 97.4698 442.603 94.7006 434.655 94.8574C436.415 100.539 432.529 111.211 426.315 123.111C411.029 108.742 406.52 101.61 405.627 94.8574Z" fill="#407BFF"/>
<path opacity="0.7" d="M405.627 94.8574C397.76 95.5497 385.737 94.1128 386.103 105.751C386.468 117.389 384.126 148.216 384.749 162.65C385.372 177.083 381.472 270.542 387.782 297.633C388.892 302.401 429.645 301.787 434.574 301.33V297.032C434.574 297.032 464.184 293.192 471.509 294.42C470.873 278.145 454.477 195.932 453.84 172.838C453.204 149.744 455.898 110.062 455.736 103.766C455.573 97.4698 442.603 94.7006 434.655 94.8574C436.415 100.539 432.529 111.211 426.315 123.111C411.029 108.742 406.52 101.61 405.627 94.8574Z" fill="white"/>
<path opacity="0.2" d="M390.652 122.458L385.615 125.893C385.223 135.951 384.695 147.223 384.641 155.936C389.325 145.943 391.965 131.523 390.652 122.458Z" fill="#407BFF"/>
<path d="M406.696 112.021C406.441 112.388 406.165 112.741 405.87 113.079L405.586 113.393L405.437 113.549L405.166 113.824L404.625 114.385L403.542 115.548C402.81 116.319 402.106 117.115 401.402 117.925C399.994 119.545 398.64 121.195 397.341 122.876C394.685 126.232 392.213 129.72 389.934 133.325C385.457 139.981 382.222 147.342 380.376 155.074C380.034 156.799 379.822 158.545 379.739 160.299C379.824 161.171 380.086 162.019 380.511 162.794C382.23 166.305 384.298 169.647 386.685 172.773C389.19 176.221 392.033 179.578 394.944 182.896C396.406 184.568 397.923 186.188 399.453 187.794C400.983 189.401 402.58 191.047 404.07 192.471L389.474 206.081C387.7 204.213 386.13 202.515 384.492 200.726L379.712 195.331C376.544 191.713 373.498 187.951 370.492 184.006C367.228 179.84 364.407 175.368 362.07 170.657C361.387 169.198 360.803 167.697 360.324 166.164C360.042 165.251 359.82 164.321 359.66 163.381C359.556 162.841 359.484 162.296 359.444 161.749C359.389 161.175 359.367 160.6 359.376 160.024C359.408 157.219 359.657 154.421 360.121 151.652C361.058 146.42 362.574 141.301 364.643 136.382C366.589 131.724 368.851 127.195 371.413 122.824C373.904 118.513 376.639 114.399 379.469 110.375C380.904 108.364 382.366 106.391 383.896 104.445L386.211 101.532L387.416 100.069L388.025 99.3379L388.337 98.9852L388.472 98.8154L388.283 99.0244C388.039 99.3249 387.809 99.6253 387.592 99.9388L406.696 112.021Z" fill="#407BFF"/>
<path opacity="0.7" d="M406.696 112.021C406.441 112.388 406.165 112.741 405.87 113.079L405.586 113.393L405.437 113.549L405.166 113.824L404.625 114.385L403.542 115.548C402.81 116.319 402.106 117.115 401.402 117.925C399.994 119.545 398.64 121.195 397.341 122.876C394.685 126.232 392.213 129.72 389.934 133.325C385.457 139.981 382.222 147.342 380.376 155.074C380.034 156.799 379.822 158.545 379.739 160.299C379.824 161.171 380.086 162.019 380.511 162.794C382.23 166.305 384.298 169.647 386.685 172.773C389.19 176.221 392.033 179.578 394.944 182.896C396.406 184.568 397.923 186.188 399.453 187.794C400.983 189.401 402.58 191.047 404.07 192.471L389.474 206.081C387.7 204.213 386.13 202.515 384.492 200.726L379.712 195.331C376.544 191.713 373.498 187.951 370.492 184.006C367.228 179.84 364.407 175.368 362.07 170.657C361.387 169.198 360.803 167.697 360.324 166.164C360.042 165.251 359.82 164.321 359.66 163.381C359.556 162.841 359.484 162.296 359.444 161.749C359.389 161.175 359.367 160.6 359.376 160.024C359.408 157.219 359.657 154.421 360.121 151.652C361.058 146.42 362.574 141.301 364.643 136.382C366.589 131.724 368.851 127.195 371.413 122.824C373.904 118.513 376.639 114.399 379.469 110.375C380.904 108.364 382.366 106.391 383.896 104.445L386.211 101.532L387.416 100.069L388.025 99.3379L388.337 98.9852L388.472 98.8154L388.283 99.0244C388.039 99.3249 387.809 99.6253 387.592 99.9388L406.696 112.021Z" fill="white"/>
<path opacity="0.3" d="M426.328 123.11C427.75 150.985 435.467 248.193 434.587 297.032L436.943 296.732C436.943 296.732 433.287 221.625 431.636 188.76C429.984 155.896 426.328 123.11 426.328 123.11Z" fill="#407BFF"/>
<path opacity="0.3" d="M402.932 192.706L388.472 207.805C388.472 212.873 384.803 223.01 394.524 226.693C404.245 230.377 404.503 203.652 402.932 192.706Z" fill="#407BFF"/>
<path opacity="0.3" d="M450.077 192.235L456.44 207.622C456.63 212.847 458.485 223.297 454.721 227.281C450.957 231.265 449.86 203.56 450.077 192.235Z" fill="#407BFF"/>
<path d="M434.276 132.815L450.158 132.711C450.316 132.718 450.474 132.691 450.621 132.633C450.767 132.575 450.899 132.488 451.007 132.376C451.115 132.264 451.197 132.131 451.247 131.986C451.297 131.841 451.313 131.687 451.295 131.535L450.415 124.273C450.363 123.958 450.199 123.671 449.953 123.459C449.706 123.248 449.391 123.124 449.061 123.11L433.166 123.202C433.008 123.197 432.852 123.225 432.706 123.284C432.561 123.343 432.43 123.43 432.322 123.542C432.214 123.653 432.133 123.785 432.082 123.929C432.032 124.073 432.013 124.226 432.029 124.377L432.909 131.653C432.964 131.968 433.13 132.256 433.379 132.468C433.628 132.679 433.945 132.802 434.276 132.815Z" fill="white" stroke="#407BFF" stroke-width="0.5" stroke-miterlimit="10"/>
</svg>
