<svg width="390" height="198" viewBox="0 0 390 198" fill="none" xmlns="http://www.w3.org/2000/svg">
<path d="M318.268 175.089C317.988 176.263 317.313 177.322 316.343 178.111C315.655 178.652 313.414 179.749 313.195 178.2C313.277 177.23 313.484 176.273 313.81 175.349C314.352 174.136 314.93 174.925 315.808 175.089C316.687 175.253 317.551 174.472 318.268 175.089Z" fill="#FE4D3C" fill-opacity="0.1"/>
<path d="M312.271 49.4766C312.585 50.5113 312.798 51.5324 313.039 52.4986C312.197 53.6841 310.521 53.2456 309.276 53.8691C308.698 54.1638 308.544 55.2397 307.973 55.4247C307.402 55.6097 307.168 54.9793 306.743 54.9861C305.638 54.9861 305.104 57.042 303.749 56.5417C302.973 57.0625 303.749 59.0567 302.827 59.2211C302.146 59.3445 301.78 58.3577 301.363 57.7546C300.872 57.0214 300.162 56.6171 300.14 56.0278C300.118 55.4384 301.238 54.3831 301.604 53.9719C301.97 53.5608 302.9 52.4712 303.449 52.3341C304.467 52.0806 305.506 52.4438 306.289 52.0737C306.963 51.7517 307.022 50.5593 307.366 50.2578C307.71 49.9563 308.025 50.0728 308.288 49.9151C308.781 49.4878 309.141 48.9438 309.33 48.3407C309.52 47.7375 309.531 47.0977 309.364 46.4888C309.108 45.5226 307.688 44.4672 308.632 43.2886C309.459 43.4727 310.214 43.8701 310.812 44.4358C311.41 45.0015 311.827 45.7127 312.014 46.4888C312.102 47.0781 311.802 47.6743 311.853 48.2979C311.965 48.6989 312.104 49.0926 312.271 49.4766Z" fill="#FE4D3C" fill-opacity="0.1"/>
<path d="M312.581 40.0549C312.413 40.5003 312.061 40.4044 311.739 40.6648C311.417 40.9252 311.051 41.7064 310.663 41.7886C310.048 41.9188 309.353 41.1033 308.745 41.2678C308.013 41.4597 308.445 42.0833 308.203 42.8234C307.784 42.7025 307.406 42.4785 307.11 42.1749C306.814 41.8712 306.61 41.4988 306.52 41.0965C306.52 40.5962 307.069 40.2947 307.208 39.726C307.435 38.7392 306.849 38.2389 306.52 37.3069C306.52 37.1699 306.593 37.1562 306.593 37.0465C307.325 36.8684 308.789 38.4651 310.509 38.7734C311.608 38.9653 312.523 38.8557 312.581 40.0549Z" fill="#FE4D3C" fill-opacity="0.1"/>
<path d="M309.774 127.741C309.855 128.461 308.742 128.379 308.625 127.913C308.61 127.358 309.606 127.186 309.774 127.741Z" fill="#FE4D3C" fill-opacity="0.1"/>
<path d="M304.365 32.8037C305.097 33.256 306.964 34.277 305.668 35.2227C305.202 35.0044 304.823 34.6511 304.588 34.2153C304.353 33.7795 304.275 33.2845 304.365 32.8037Z" fill="#FE4D3C" fill-opacity="0.1"/>
<path d="M300.827 123.947C301.705 123.406 302.664 122.227 304.209 122.823C303.872 123.899 302.745 123.872 302.013 124.379C301.281 124.886 300.644 125.749 299.707 125.845C299.642 125.704 299.535 125.583 299.399 125.496C299.362 124.537 300.256 124.31 300.827 123.947Z" fill="#FE4D3C" fill-opacity="0.1"/>
<path d="M298.792 107.706C299.693 107.706 300.542 107.39 301.172 107.788C301.054 109.946 298.075 108.309 296.105 108.651C295.681 108.727 295.556 109.09 295.103 108.912C295.133 108.539 295.292 108.185 295.556 107.904C295.82 107.623 296.175 107.431 296.567 107.356C297.086 107.315 297.928 107.699 298.792 107.706Z" fill="#FE4D3C" fill-opacity="0.1"/>
<path d="M299.522 110.376C299.61 111.575 298.153 111.705 297.75 112.623C298.387 113.72 298.636 115.255 299.368 116.248C299.368 116.934 299.485 117.77 299.134 118.064C297.589 118.4 296.755 115.275 296.14 114.179C294.954 114.432 296.037 118.681 294.449 118.153C293.673 117.893 294.449 116.68 294.295 115.734C294.156 114.905 293.431 114.741 293.373 114.09C293.329 113.562 293.9 112.993 294.068 112.452C294.31 111.671 294.156 110.163 294.983 110.122C295.4 110.122 295.949 111.095 296.213 111.157C297.135 111.376 298.226 110.102 299.522 110.376Z" fill="#FE4D3C" fill-opacity="0.1"/>
<path d="M296.679 123.252C296.401 123.937 294.819 123.587 294.688 122.991C294.958 122.313 296.547 122.511 296.679 123.252Z" fill="#FE4D3C" fill-opacity="0.1"/>
<path d="M295.219 125.324C295.133 125.452 295.03 125.57 294.912 125.673C294.334 125.461 293.711 125.303 293.536 124.639C293.96 123.926 295.197 124.515 295.219 125.324Z" fill="#FE4D3C" fill-opacity="0.1"/>
<path d="M293.148 123.163C292.76 123.787 291.406 123.115 290.952 123.766C290.147 123.766 289.341 123.766 289.18 122.992C289.414 122.361 290.139 122.793 290.718 122.731C291.618 122.636 292.936 121.902 293.148 123.163Z" fill="#FE4D3C" fill-opacity="0.1"/>
<path d="M282.321 156.248C282.321 155.487 281.889 154.816 281.78 154.007C281.78 153.713 281.78 153.322 281.78 152.966C281.671 152.539 281.592 152.107 281.545 151.67C281.655 151.102 282.277 151.04 282.395 150.547C282.636 149.745 282.102 149.615 282.087 148.648C282.087 147.963 282.548 147.634 282.856 146.75C283.002 146.339 283.002 145.572 283.163 145.277C283.324 144.982 284.21 144.592 284.547 144.42C285.726 143.769 286.67 142.556 287.849 142.364C288.149 142.31 288.581 142.406 288.771 142.364C289.503 142.227 290.345 141.57 291.304 141.33C292.263 141.09 293.061 141.179 293.764 140.72C294.692 140.03 295.43 139.141 295.916 138.129C296.268 137.184 296.158 136.382 296.831 136.074C297.168 135.916 297.49 136.074 297.834 135.985C298.341 135.805 298.809 135.543 299.218 135.21C299.752 134.669 299.84 133.785 300.448 133.223C300.985 132.733 301.576 132.299 302.212 131.928C302.586 131.72 303.008 131.6 303.442 131.578C304.526 131.681 305.031 133.381 306.202 133.045C306.627 132.928 307.051 131.921 307.439 131.318C307.988 130.441 308.391 129.262 309.357 128.988C310.133 128.776 311.005 129.324 311.429 128.556C311.524 128.008 311.063 127.686 311.429 127.343C312.322 127.405 313.838 128.769 315.192 128.81C315.924 128.81 317.279 127.919 317.388 129.159C317.454 129.708 316.847 130.153 316.7 130.715C316.598 131.112 316.854 131.325 316.62 131.75C315.997 132.031 315.338 132.174 315.317 132.963C315.317 133.942 316.554 134.408 317.315 134.95C317.835 135.32 318.267 135.882 318.545 136.074C318.823 136.266 319.153 136.3 319.314 136.416C319.812 136.78 320.163 137.602 320.851 137.629C321.539 137.657 322.41 136.526 322.842 135.464C323.355 134.223 323.384 132.723 323.611 131.407C323.692 130.968 323.962 130.544 324.072 130.112C324.372 128.926 324.804 127.33 325.683 126.912C326.605 128.008 326.913 130.132 326.766 131.928C327.374 132.449 328.457 132.277 328.604 133.483C328.655 133.901 328.421 134.429 328.45 134.854C328.501 135.58 328.985 136.224 329.065 136.841C329.219 137.992 328.897 138.938 329.373 139.781C329.973 140.836 331.144 140.802 331.906 141.94C331.939 142.475 332.071 143.001 332.294 143.495C332.367 143.756 332.294 144.18 332.367 144.359C332.616 144.934 333.282 144.996 333.524 145.482C333.641 145.722 333.604 146.168 333.75 146.599C334.05 147.208 334.411 147.788 334.827 148.333C335.234 148.868 335.568 149.448 335.822 150.06C335.976 150.923 335.427 151.513 335.288 152.219C335.119 153.075 335.288 154.185 334.98 155.069C334.629 156.111 333.743 157.125 333.062 158.441C332.519 159.548 331.793 160.568 330.91 161.463C330.427 161.902 329.848 162.148 329.373 162.587C328.656 163.324 327.989 164.103 327.374 164.917C326.686 165.739 325.844 166.369 325.302 167.075C324.512 168.103 324.124 169.762 322.769 169.926C322.022 169.931 321.28 170.049 320.573 170.276C319.438 170.783 318.684 171.721 318.12 171.742C317.557 171.763 316.978 170.961 316.429 170.879C315.88 170.796 315.331 171.406 314.431 171.399C314.065 171.399 313.882 171.153 313.355 170.968C312.264 170.577 311.056 170.591 310.902 169.241C310.814 168.501 311.319 168.172 311.283 167.507C311.246 166.842 310.675 166.685 310.434 166.136C310.556 165.844 310.585 165.525 310.518 165.217C310.45 164.909 310.289 164.626 310.053 164.403C310.014 163.98 310.122 163.557 310.36 163.197C309.827 163.382 309.313 163.612 308.823 163.882C308.267 164.266 307.864 165.136 307.212 165.006C306.605 164.766 307.073 164.088 306.985 163.539C306.704 162.639 306.261 161.791 305.675 161.031C304.867 160.54 303.986 160.161 303.061 159.907C300.689 159.489 299.174 160.915 297.3 161.12C296.812 161.096 296.323 161.096 295.836 161.12C294.291 161.422 292.571 162.799 291.612 163.711C290.023 163.889 288.412 163.341 286.772 163.882C285.133 164.423 284.21 165.938 281.706 165.52C281.209 165.04 280.323 164.834 280.323 163.971C280.323 163.286 281.187 162.881 281.472 162.415C281.913 161.666 282.201 160.845 282.321 159.996C282.321 159.421 281.977 158.736 282.007 158.009C282.036 157.413 282.321 156.81 282.321 156.248Z" fill="#FE4D3C" fill-opacity="0.1"/>
<path d="M281.011 120.225C281.428 120.163 281.743 119.814 282.167 119.8C283.06 119.759 283.946 120.54 285.001 120.403C285.235 120.677 285.081 120.91 285.081 121.356C285.982 121.89 287.453 121.794 287.922 122.822C287.248 123.624 286.252 123.048 285.389 122.904C284.525 122.76 283.778 122.843 282.929 122.733C281.853 122.596 280.886 121.924 279.861 121.787C279.239 121.698 278.602 121.883 278.016 121.787C277.431 121.691 274.751 120.567 274.715 119.8C274.678 119.032 275.871 118.779 276.911 118.93C278.295 119.135 279.239 120.506 281.011 120.225Z" fill="#FE4D3C" fill-opacity="0.1"/>
<path d="M283.083 114.268C282.504 114.083 281.963 114.186 281.707 114.008C281.179 113.645 281.26 112.637 281.084 112.021C280.909 111.404 280.279 111.109 279.935 110.294C279.437 109.115 279.203 106.477 280.55 106.23C281.084 106.134 281.641 106.593 282.014 106.491C282.746 106.285 282.629 105.209 283.244 104.764C283.588 104.51 284.218 104.62 284.708 104.414C285.221 104.117 285.645 103.702 285.938 103.208C286.26 102.776 286.509 102.05 286.934 101.742C287.358 101.433 287.856 101.378 288.237 101.056C289.247 100.193 289.276 99.0006 290.082 97.9453C290.762 97.0613 291.846 98.795 291.926 99.5008C292.307 100.049 293.061 100.186 293.391 100.796C292.944 102.317 291.663 102.447 291.926 104.599C292.022 105.102 292.177 105.594 292.388 106.066C292.607 106.573 293.259 107.121 293.23 107.436C293.178 108.08 292.029 108.053 291.765 108.731C291.502 109.41 291.765 109.417 291.692 110.369C291.363 111.054 290.499 111.246 290.228 112.103C289.906 113.131 290.279 114.453 289.54 115.214C289.027 115.214 288.471 115.707 287.849 115.639C287.226 115.57 286.538 114.536 285.462 114.515C285.059 114.515 284.576 114.81 284.159 114.776C283.742 114.741 283.566 114.419 283.083 114.268Z" fill="#FE4D3C" fill-opacity="0.1"/>
<path d="M278.112 112.343C280.067 112.343 280.067 115.77 278.112 115.77C276.157 115.77 276.157 112.343 278.112 112.343Z" fill="#FE4D3C" fill-opacity="0.1"/>
<path d="M275.251 111.932C275.775 112.404 276.148 113.005 276.327 113.665C276.327 114.269 275.485 114.241 275.251 115.036C274.892 116.276 275.412 117.688 274.79 118.318C274.303 118.504 273.772 118.563 273.252 118.49C271.879 117.328 270.651 116.025 269.592 114.604C269.126 114.127 268.714 113.606 268.362 113.049C267.959 112.226 267.82 111.315 267.366 110.548C266.913 109.78 266.217 109.383 265.829 108.642C265.507 108.039 265.47 107.272 265.097 106.655C264.724 106.038 264.248 105.881 263.867 105.449C263.625 105.161 263.486 104.723 263.252 104.407C262.286 103.112 260.434 102.434 260.324 100.522C260.719 100.015 261.122 100.714 261.861 100.871C262.337 100.967 262.901 100.824 263.237 100.954C263.97 101.221 264.423 102.448 265.163 103.112C265.573 103.489 266.115 103.75 266.539 104.147C266.964 104.545 267.33 105.196 267.696 105.449C268.194 105.792 268.889 106.018 269.541 106.484C270.427 107.121 272.015 107.779 272.227 109.081C272.279 109.396 272.096 109.944 272.147 110.198C272.257 110.65 272.769 110.849 273.069 111.233C273.45 111.719 273.531 112.439 274.072 112.535C274.614 112.631 274.636 111.85 275.251 111.932Z" fill="#FE4D3C" fill-opacity="0.1"/>
<path d="M238.994 93.7939C239.653 94.0338 241.863 97.0558 241.19 98.721C241.051 99.0256 240.812 99.281 240.508 99.4509C240.205 99.6208 239.851 99.6963 239.499 99.6667C237.976 99.3995 238.269 95.5551 238.73 94.0543C238.751 93.9953 238.785 93.9414 238.831 93.8963C238.876 93.8513 238.932 93.8163 238.994 93.7939Z" fill="#FE4D3C" fill-opacity="0.1"/>
<path d="M187.911 137.505C188.007 136.681 188.355 135.9 188.913 135.257C189.646 134.668 190.583 134.729 191.293 134.304C192.014 133.909 192.642 133.379 193.138 132.749C193.511 132.214 193.526 131.598 193.833 131.193C194.038 130.919 194.499 130.844 194.748 130.508C194.997 130.172 194.924 129.638 195.29 129.302C196.359 128.788 196.659 130.981 196.827 132.495C196.925 132.893 197.001 133.296 197.054 133.701C196.944 134.387 196.271 134.531 196.059 135.003C195.922 136.756 195.479 138.476 194.748 140.095C194.243 141.466 193.943 142.911 193.518 144.07C193.372 144.488 193.05 144.823 192.911 145.193C192.354 146.66 192.179 148.969 191.139 149.6C190.462 149.91 189.735 150.114 188.987 150.203C188.502 150.151 188.047 149.956 187.688 149.645C187.33 149.334 187.087 148.925 186.995 148.476C186.938 147.959 186.911 147.44 186.915 146.92C186.696 146.253 186.568 145.562 186.534 144.864C186.703 143.11 188.225 142.254 188.299 140.808C188.357 139.698 187.808 138.615 187.911 137.505Z" fill="#FE4D3C" fill-opacity="0.1"/>
<path d="M150.914 14.5712C151.009 16.0239 148.944 15.8389 148.717 17.0793C148.6 17.6412 148.959 18.3881 148.871 18.8952C148.717 19.7998 147.934 19.5394 146.953 20.0191C146.448 20.2589 145.965 21.1635 145.416 21.2251C144.867 21.2868 144.603 20.8962 144.266 20.9716C143.761 21.0744 143.929 21.7734 143.19 21.9173C142.597 22.0338 141.565 21.3279 141.499 22.1777C141.455 22.7259 142.421 23.0205 143.036 22.952C143.519 22.9041 143.871 22.5272 144.339 22.5203C145.247 22.5203 145.84 23.281 146.411 23.3015C147.729 23.3426 149.025 21.931 150.408 22.0886C151.031 22.164 151.404 22.6574 151.873 22.6094C152.605 22.5272 153.249 21.5678 153.798 21.2388C153.564 19.7861 153.798 17.8673 155.028 17.8125C155.855 17.7577 157.1 19.4092 157.224 17.8125C157.247 17.4899 157.137 17.1714 156.916 16.9227C156.696 16.674 156.381 16.5142 156.038 16.4762C155.599 16.4762 155.021 17.4562 154.655 16.6475C154.655 15.8595 155.453 16.0651 155.884 15.8732C156.316 15.6813 156.441 15.325 156.807 15.1879C158.637 14.4615 161.199 15.8732 161.88 14.1463C160.255 12.5907 157.488 14.7151 155.657 14.578C155.194 14.5213 154.756 14.347 154.391 14.074C154.026 13.801 153.747 13.4398 153.586 13.0293C153.505 12.7621 153.586 12.3989 153.505 11.9055C153.425 11.4121 153.183 10.7748 153.198 10.4321C153.278 8.87657 156.734 8.58191 156.734 6.63574C156.075 5.95047 154.135 6.03955 153.505 6.80705C153.278 7.08116 153.293 7.63623 152.971 8.1776C152.283 9.35626 150.042 9.49331 149.362 10.9187C149.108 11.4616 149 12.0545 149.047 12.6456C149.23 13.4953 150.84 13.7146 150.914 14.5712ZM132.611 99.0924C130.415 98.7292 128.138 99.7297 126.623 100.463C125.744 100.895 124.859 101.553 124.09 101.587C123.321 101.621 122.626 101.155 121.938 101.073C120.936 100.986 119.926 101.044 118.943 101.244C118.057 101.422 117.26 102.128 116.483 102.19C115.019 102.32 113.555 100.682 112.64 99.8599C112.069 99.3597 111.491 98.9485 110.949 98.4894C110.407 98.0303 109.631 97.6739 109.185 97.1942C108.577 96.5089 108.577 95.3851 108.262 94.5148C107.889 93.4801 106.754 92.7263 105.883 91.7737C105.231 91.0474 103.738 89.9509 103.577 89.0327C103.496 88.553 103.76 87.9979 103.731 87.4771C103.694 86.7164 103.181 86.2916 103.196 85.7502C103.196 84.9896 104.001 84.3797 104.192 83.7629C104.287 83.434 104.243 82.9749 104.345 82.55C104.558 81.6729 105.078 81.1795 104.96 79.8774C104.917 79.3635 104.521 78.8975 104.499 78.2328C104.499 77.7805 104.763 77.5475 104.733 77.109C104.675 76.3757 103.818 76.2318 103.731 75.3821C103.643 74.5323 104.463 73.7854 104.96 72.7917C105.18 72.3463 105.297 71.661 105.495 71.3253C105.927 70.5852 106.63 70.2288 106.959 69.5093C107.201 68.9748 107.274 68.1799 107.493 67.7824C107.779 67.2685 108.343 66.9875 108.877 66.3091C109.316 65.7609 109.492 65.0893 109.8 64.8426C110.236 64.5947 110.7 64.3925 111.183 64.2396C112.613 63.5661 113.732 62.4286 114.331 61.0394C114.136 60.0241 114.355 58.9772 114.946 58.1064C115.415 57.2156 115.759 56.3658 116.557 55.8587C117.523 55.2488 118.424 55.1734 119.09 54.0427C119.52 53.3817 119.808 52.6485 119.939 51.8841C119.939 51.0276 119.163 49.938 118.475 49.8283C117.787 49.7187 116.71 50.4245 116.322 49.5748C116.198 49.3007 116.366 48.6634 116.322 48.3619C116.235 47.7999 115.803 47.3956 115.788 46.9913C115.788 46.1758 116.52 45.333 116.703 44.3941C116.996 43.1195 116.703 42.1465 116.63 40.68C117.706 38.7749 120.085 39.7206 122.487 39.9056C122.845 39.9056 123.255 39.8097 123.643 39.8165C125.049 39.8577 126.162 40.3305 126.638 38.9531C126.854 37.9872 126.931 36.9983 126.864 36.0133C126.518 35.1108 125.969 34.2883 125.254 33.6011C124.522 33.0529 123.387 33.2928 122.948 32.2991C123.307 30.5928 125.005 32.0182 126.023 31.6138C126.542 31.4014 126.484 30.3941 126.945 30.2433C127.26 30.1337 127.677 30.5996 128.094 30.5859C128.841 30.3491 129.54 29.9995 130.166 29.5512C130.664 29.1743 130.81 28.3999 131.242 28.0847C131.535 27.8654 131.923 27.8928 132.245 27.7352C132.997 27.3522 133.651 26.8215 134.163 26.1796C134.8 25.3231 135.086 24.2677 135.855 24.1238C136.879 23.9114 139.215 24.35 139.391 23.0822C139.566 21.8145 138.446 20.9305 138.849 19.6559C139.171 18.628 139.991 18.8061 141.155 18.1894C141.711 18.6348 141.55 19.9163 141.616 20.6975C142.348 20.6975 143.812 20.4576 143.915 19.745C144.091 18.8541 142.883 17.9496 142.612 17.4082C142.341 16.8668 142.268 15.8047 141.689 15.6813C140.525 15.4278 139.383 17.4973 137.926 17.4973C137.43 17.4493 136.959 17.2687 136.57 16.9771C136.181 16.6855 135.889 16.2951 135.73 15.8526C135.663 15.3986 135.636 14.9402 135.65 14.4821C135.408 13.6967 135.304 12.8797 135.342 12.0631C135.935 10.9255 137.289 10.7474 138.27 10.158C138.644 9.93874 138.937 9.47275 139.347 9.29458C140.035 9.01362 141.052 9.29459 141.726 8.86287C142.158 8.58876 142.033 8.12277 142.341 7.56771C142.538 7.21822 143.007 7.01949 143.263 6.62203C143.446 6.34107 143.468 5.93676 143.651 5.6695C144.317 4.73753 145.533 4.38805 146.031 3.42182C146.25 2.99695 145.65 2.83933 145.796 2.21574C145.943 1.59214 147.004 2.05128 147.568 1.95534C148.3 1.81828 149.032 0.776672 149.867 0.584796C150.701 0.39292 151.675 0.502565 152.48 0.153078C152.963 -0.0525036 153.41 -0.532192 153.864 -0.62813C154.025 -0.62813 154.479 -0.525342 154.706 -0.539047C154.933 -0.552752 155.306 -0.957063 155.657 -0.957063C156.221 -1.01874 156.924 -0.79945 157.656 -0.785745C158.871 -0.785745 160.021 -1.19006 161.031 -0.696662C161.565 -0.436258 161.5 0.23531 162.188 0.516271C162.532 0.653324 162.986 0.461449 163.491 0.516271C164.223 0.59165 165.028 1.20154 166.024 1.29062C166.383 1.33174 166.756 1.24265 167.1 1.29062C168.27 1.56573 169.405 1.96102 170.482 2.46929C171.383 2.81193 173.286 3.23679 173.323 4.19617C173.367 5.33372 171.661 5.66265 170.943 5.66265C169.736 5.66265 168.132 4.86774 166.873 5.32002C166.87 5.75599 166.963 6.18786 167.146 6.58881C167.329 6.98975 167.598 7.35119 167.936 7.65068C168.275 7.95017 168.676 8.1813 169.114 8.3297C169.552 8.47811 170.017 8.54063 170.482 8.51338C170.629 7.59511 169.509 8.10907 169.633 7.21822C170.402 6.53294 171.317 7.65679 172.4 7.47862C172.825 7.34842 172.752 6.66315 172.862 6.18346C173.777 5.55986 174.919 4.6416 176.317 5.32002C176.378 5.17632 176.485 5.0541 176.624 4.97053C176.72 4.02486 175.702 3.53146 176.244 2.64061C176.507 2.02386 177.942 2.2363 178.162 2.72284C178.272 3.31218 177.81 3.2505 177.854 3.76445C177.941 4.00053 178.109 4.20316 178.331 4.34075C178.553 4.47834 178.818 4.54316 179.084 4.5251C179.816 4.48399 179.985 3.72333 180.695 3.31903C180.988 3.15456 181.427 3.13401 181.771 2.96954C182.115 2.80508 182.576 2.38706 182.928 2.28427C183.279 2.18148 183.565 2.28427 183.923 2.20204C184.282 2.1198 184.853 1.68123 185.226 1.68123C185.6 1.68123 186.024 2.28427 186.61 2.3665C186.932 2.41447 187.298 2.16092 187.767 2.1061C188.235 2.05128 188.499 2.16092 188.836 2.1061C189.568 1.9896 190.073 1.55103 190.681 1.59214C191.112 1.59214 191.845 2.27742 192.145 1.93478C192.635 1.37971 191.479 0.968549 191.837 0.468302C193.016 0.56424 194.268 0.536825 195.446 0.721848C197.203 1.00281 198.851 1.98275 200.439 2.02386C200.286 0.817788 199.063 1.16728 198.514 0.653322C198.12 0.0996151 197.835 -0.515319 197.672 -1.16265C197.955 -1.88042 198.316 -2.56926 198.748 -3.21845C199.422 -3.93799 201.677 -3.90373 202.284 -2.96491C202.716 -2.27963 202.57 -1.2997 203.199 -1.32025C203.829 -1.34081 204.034 -2.84156 204.663 -2.87582C205.183 -2.87582 205.447 -1.91644 205.967 -1.9233C206.603 -1.9233 207.05 -3.29383 207.892 -3.29383C208.338 -3.29383 208.492 -3.03343 209.195 -2.9512C209.671 -3.29384 209.034 -3.75297 209.268 -4.24636C210.132 -4.93163 212.094 -4.41083 213.185 -4.8494C213.492 -5.26056 212.797 -5.53467 213.112 -5.97324C214.056 -6.72019 215.652 -6.78186 217.263 -7.09709C218.244 -7.28211 219.173 -8.05647 219.949 -8.13185C220.725 -8.20723 221.523 -7.59733 222.248 -7.61104C222.729 -7.64399 223.199 -7.76261 223.632 -7.96053C224.064 -8.14555 224.364 -8.6458 224.789 -8.73488C225.462 -8.9199 226.311 -8.6458 227.095 -8.73488C227.878 -8.82397 228.647 -9.19401 229.24 -9.08437C229.833 -8.97473 230.25 -8.31001 230.777 -8.22093C232.395 -7.93311 234.064 -8.48819 235.543 -8.04276C235.806 -7.96738 236.07 -7.65901 236.385 -7.52881C237.373 -7.11764 238.047 -7.24784 238.23 -5.88416C239.006 -5.57578 239.46 -4.77402 240.382 -4.51362C240.99 -4.33544 241.612 -4.6027 242.3 -4.6027C243.25 -4.6147 244.2 -4.55743 245.141 -4.43138C245.58 -4.356 245.946 -3.99281 246.37 -3.91058C246.795 -3.82835 247.103 -3.9517 247.447 -3.91058C247.876 -3.80337 248.311 -3.71645 248.75 -3.65018C249.555 -3.65018 250.17 -4.48621 250.822 -4.6027C251.213 -4.59139 251.602 -4.53383 251.978 -4.43138C253.274 -4.30803 254.76 -4.62326 255.814 -4.3423C256.615 -4.01172 257.344 -3.54728 257.967 -2.97176C258.421 -2.58116 258.699 -1.96441 259.123 -1.6766C259.663 -1.29921 260.299 -1.06271 260.968 -0.991328C261.459 -1.07356 261.481 -1.6766 261.964 -1.937C263.487 -2.32075 266.188 -1.39563 267.418 -2.02608C267.894 -2.27278 267.799 -2.8347 268.187 -3.14993C270.493 -3.27328 272.784 -3.04028 274.944 -2.97861C275.685 -3.05941 276.431 -3.0869 277.177 -3.06084C277.909 -2.91008 278.487 -2.0535 279.248 -1.76568C279.746 -1.57381 280.639 -1.6766 281.393 -1.50528C281.906 -1.39564 282.323 -1.053 282.704 -0.991328C283.502 -0.947805 284.302 -1.00543 285.083 -1.16265C286.848 -1.32026 289.11 -1.42305 290.845 -0.641839C291.767 -0.223824 292.155 0.61906 293.151 0.728703C294.571 0.906873 296.767 0.598501 298.217 0.728703C298.52 0.804979 298.828 0.864473 299.139 0.906874C299.63 0.865758 299.923 0.399773 300.523 0.386067C301.255 0.386067 302.492 1.75661 303.598 1.50991C304.074 1.14672 303.217 0.646472 303.671 0.296984C304.125 -0.0525045 304.696 0.296984 305.362 0.296984C305.728 0.296984 306.175 0.091403 306.519 0.125667C307.361 0.207899 308.159 1.06448 309.205 1.33859C310.184 1.56867 311.199 1.62676 312.2 1.50991C312.873 1.32821 313.571 1.24047 314.272 1.24951C314.616 1.30433 314.916 1.57844 315.275 1.68123C315.633 1.78402 315.919 1.68123 316.19 1.77032C316.46 1.8594 316.702 2.1198 316.966 2.20204C318.393 2.66117 320.289 2.88731 321.805 3.40811C322.691 3.71649 323.598 4.34008 324.338 4.36064C324.704 4.36064 325.026 4.18247 325.487 4.18932C327.808 4.18932 330.539 5.29261 330.326 7.73217C327.61 8.41744 325.341 5.62839 322.493 6.43701C322.228 6.5287 321.998 6.69262 321.834 6.90761C321.67 7.12259 321.578 7.37878 321.57 7.64309C321.673 9.15068 325.048 9.01362 325.333 10.4938C324.777 10.9598 324.177 10.4938 323.723 10.5829C322.841 10.8456 322.046 11.3178 321.417 11.9534C320.897 12.5016 320.443 13.9065 319.879 14.0092C319.191 14.16 318.144 13.2486 317.112 13.4884C316.739 13.5775 316.38 14.112 316.043 14.1737C315.194 14.3587 314.11 13.6529 313.583 14.7767C313.862 15.5717 313.693 16.6681 314.272 17.1135C314.645 17.4013 315.121 17.1752 315.582 17.3739C316.043 17.5727 316.417 18.3402 316.885 18.7445C317.354 19.1488 317.676 19.094 317.881 19.5257C317.932 20.163 317.661 20.2109 317.727 20.6495C317.851 21.3348 318.854 21.5335 318.884 22.0201C318.884 22.6437 318.247 22.5135 318.115 23.1439C318.064 23.5482 318.525 23.651 318.576 24.1787C318.576 24.535 318.32 24.905 318.342 25.3025C318.342 25.8781 318.781 26.2619 318.73 26.7758C318.694 26.9756 318.609 27.1648 318.482 27.3289C318.355 27.4929 318.189 27.6273 317.998 27.7215C316.534 26.6593 315.201 25.1997 313.605 23.836C312.009 22.4723 309.418 20.7249 309.154 17.7919C309.154 17.3397 310.003 16.9833 310.15 16.3186C310.208 16.0513 310.055 15.6333 310.077 15.2838C310.128 14.2696 310.875 13.2966 310.809 12.6935C310.549 11.8299 309.943 11.0934 309.118 10.6377C308.671 10.905 309.118 11.4258 309.037 11.8506C308.982 12.131 308.846 12.3917 308.643 12.6044C308.44 12.8171 308.179 12.9735 307.888 13.0567C306.424 13.2006 306.27 10.9529 303.971 11.5902C303.517 11.8173 303.152 12.1748 302.931 12.6102C302.709 13.0456 302.643 13.5359 302.741 14.0092C302.807 14.3861 303.729 14.7905 303.664 15.3044C303.598 15.8184 301.57 15.9486 301.123 15.9074C299.886 15.7978 299.249 14.7562 298.129 14.7836C297.58 14.7836 297.104 15.3044 296.665 15.3935C294.242 15.8869 290.654 14.023 289.827 16.4283C289.71 16.764 289.776 17.2026 289.673 17.5521C289.495 17.9657 289.29 18.3685 289.058 18.7582C288.963 19.0254 288.985 19.5531 288.832 19.9711C288.678 20.3891 287.236 21.8213 288.524 22.2188C288.831 22.3079 288.971 22.068 289.366 22.1297C290.025 22.2325 291.123 23.418 291.899 23.4249C292.367 23.4249 293.004 22.8355 293.363 22.8218C294.095 22.7807 294.586 23.3015 295.127 23.5962C295.669 23.8908 296.431 24.4802 296.819 24.4596C297.551 24.4185 297.199 23.8566 297.895 23.5962C299.22 24.0416 299.842 25.652 301.116 26.8786C301.584 27.3378 302.265 27.7284 302.888 28.352C303.232 28.7014 304.301 29.6334 304.352 30.0788C304.403 30.5243 304.052 30.6682 303.971 31.0245C303.847 31.5522 304.132 31.9428 303.817 32.3265C302.587 31.8126 302.317 30.4557 301.431 29.2976C301.109 28.8728 300.779 28.3588 300.281 27.7421C300.054 27.468 299.242 26.4949 298.744 26.7073C297.778 27.1185 299.271 28.7631 299.513 29.1263C300.122 29.8943 300.542 30.7788 300.743 31.7166C300.743 32.2374 300.442 33.1694 300.435 34.0534C300.435 34.6496 300.567 35.191 300.516 35.6912C300.374 36.25 300.193 36.7994 299.974 37.3359C299.791 37.9663 299.754 38.7064 299.593 39.145C299.293 39.9262 298.29 40.8444 297.595 40.8787C296.899 40.913 296.679 40.3236 296.057 40.3579C295.113 40.4059 294.937 41.3858 294.366 42.1739C294.417 43.0236 294.652 43.3114 294.52 43.9007C294.315 44.8122 293.18 44.9766 293.217 45.888C293.253 46.7994 294.249 46.8954 294.754 47.2586C295.718 48.0125 296.57 48.8836 297.287 49.8489C297.828 50.5664 298.172 51.397 298.29 52.2679C298.232 53.1176 296.043 54.3237 295.135 53.9948C294.227 53.6659 294.571 52.7681 294.403 51.939C294.249 51.288 293.795 51.007 293.561 50.4725C293.436 50.1915 293.495 49.753 293.327 49.4377C292.865 48.5537 292.053 49.0403 291.13 48.4852C290.501 48.122 290.684 47.3614 290.442 46.6692C290.113 45.7373 288.714 45.2987 287.602 45.5454C286.774 45.7304 286.518 46.5048 285.757 46.6692C284.629 45.9223 285.984 44.0652 284.6 43.9282C283.546 43.8048 282.843 45.6345 282.221 46.1758C281.803 46.5322 281.042 46.6076 280.991 47.1215C280.903 48.074 281.884 47.8822 282.682 48.2454C283.48 48.6086 283.48 49.4926 284.146 49.5405C284.812 49.5885 285.061 48.9032 285.61 48.8553C286.456 48.8384 287.278 49.1169 287.916 49.6365C287.536 50.6849 285.464 51.4524 285.457 52.8298C285.457 53.6316 286.284 53.7686 286.921 54.3032C287.558 54.8377 288.165 56.0095 288.919 56.8935C289.241 57.2704 289.769 57.5239 289.915 57.7569C290.274 58.3257 290.215 59.0247 290.647 59.4016C290.706 59.8744 290.449 59.984 290.493 60.4363C290.676 61.0531 291.533 60.9366 291.723 61.5602C291.562 63.0472 292.111 64.452 291.028 64.9865C290.53 67.6591 289.966 69.7834 288.341 71.2088C286.877 72.5108 284.951 72.9014 283.216 73.5387C282.755 73.7032 282.396 74.224 281.986 74.4021C280.962 74.7927 279.146 74.5529 279.058 75.9577C279.014 76.643 279.834 77.0678 279.9 77.7737C279.995 78.8495 279.168 79.9391 278.516 80.0145C278.153 80.0298 277.798 79.9128 277.524 79.6878C277.251 79.4629 277.082 79.1477 277.052 78.8084C276.994 77.7737 278.194 77.3556 278.282 76.7526C278.317 76.4911 278.291 76.2257 278.206 75.9745C278.121 75.7232 277.98 75.4921 277.791 75.2969C277.602 75.1016 277.37 74.947 277.111 74.8434C276.852 74.7398 276.572 74.6898 276.291 74.6968C275.273 74.779 272.967 77.0747 272.909 78.3219C272.865 79.2607 274.556 81.2069 275.105 81.7482C277.301 83.8931 279.556 85.1746 279.175 90.3895C278.641 91.7121 277.257 91.993 276.181 92.7263C275.361 93.2745 274.951 94.9945 273.567 95.1453C273.011 94.926 273.341 93.9529 273.187 93.5006C272.975 92.8839 271.876 92.5824 271.188 91.9451C270.624 91.4243 270.39 90.5745 269.958 90.1291C269.424 89.5329 268.619 89.4096 267.96 89.0052C267.55 88.7517 267.228 87.8677 266.81 87.8883C266.129 87.8883 266.364 88.6489 266.195 89.8687C266.027 91.0885 265.244 91.9999 265.507 93.4115C265.61 93.994 266.239 94.4669 266.576 95.0562C267.11 96.0361 267.184 97.1737 267.733 97.7356C268.091 98.1056 268.706 98.181 269.116 98.5099C269.929 99.1952 271.364 100.566 271.649 101.361C271.986 102.272 271.649 103.341 271.876 104.3C272.133 105.404 273.421 106.199 272.652 107.323C271.91 107.078 271.228 106.696 270.646 106.199C269.688 105.527 268.931 104.635 268.45 103.608C268.221 103.277 268.016 102.931 267.835 102.574C267.572 101.799 267.63 100.922 267.381 99.9833C267.007 98.9767 266.43 98.0463 265.683 97.2422C265.148 96.6734 264.219 96.3376 264.153 95.5153C264.094 94.3572 264.497 92.9935 264.46 91.6298C264.46 91.3352 264.27 91.0336 264.233 90.6773C264.146 89.992 264.285 89.204 264.153 88.6215C263.953 88.088 263.708 87.5701 263.421 87.0728C263.216 86.5725 263.011 86.0723 262.813 85.4281C262.498 84.4276 262.147 82.502 261.429 82.4061C260.712 82.3102 259.899 84.0302 258.889 84.0439C258.584 84.0208 258.293 83.9086 258.06 83.7229C257.826 83.5373 257.66 83.2876 257.586 83.0091C257.491 82.4815 257.828 81.947 257.82 81.3713C257.82 80.2064 257.088 79.7609 256.51 78.9455C256.29 78.6165 256.232 78.1574 256.049 77.9107C255.697 77.4447 255.031 77.1843 254.584 76.7046C254.15 76.2358 253.787 75.7122 253.508 75.1491C253.208 74.4638 253.113 73.5935 252.659 73.5044C252.205 73.4154 251.729 74.1212 251.283 74.2856C250.606 74.4906 249.91 74.6351 249.204 74.7174C247.666 74.8338 246.414 74.3747 246.597 76.4442C246.356 77.3762 245.485 77.3831 244.906 77.8148C244.174 78.3767 243.632 79.5005 242.827 80.4051C242.439 80.8437 241.875 81.0904 241.524 81.5289C241.173 81.9675 241.143 82.4129 240.836 82.735C240.016 83.6053 238.786 83.6807 238.222 84.9005C238.222 86.3327 238.823 87.4223 238.684 88.7791C238.618 89.4027 238.2 89.9578 238.142 90.5951C238.21 91.1707 238.236 91.7499 238.222 92.3288C238.156 92.6372 237.842 92.8016 237.607 93.1922C237.373 93.5828 237.307 93.994 237.146 94.227C236.89 94.597 236.465 94.8575 236.224 95.1795C235.836 95.6935 235.755 96.0635 235.382 96.1252C233.698 96.3993 233.281 92.8016 232.541 91.2872C232.197 90.6019 231.494 89.9715 231.158 89.1286C230.762 88.1624 230.638 86.9426 230.082 85.8461C229.522 84.9298 229.032 83.9771 228.617 82.9954C228.346 82.1731 228.112 81.1452 227.885 80.2543C227.594 79.2923 227.391 78.3089 227.278 77.3145C227.212 76.1907 227.468 75.5054 226.655 75.0668C225.923 75.2656 225.586 76.1016 224.737 76.1016C223.888 76.1016 221.721 74.5049 222.358 73.0796C221.824 72.223 220.469 71.757 219.43 70.7496C218.844 70.1672 218.31 68.7966 217.285 68.6938C216.972 68.7254 216.663 68.7851 216.362 68.872C215.711 68.9337 214.554 68.8035 213.822 68.872C212.759 69.0483 211.678 69.1058 210.601 69.0433C209.869 68.9474 208.917 68.7829 208.141 68.6938C207.16 68.5842 205.849 68.3238 205.3 67.7482C204.956 67.3918 204.824 66.2611 204.224 66.1035C203.492 65.9185 203.119 66.5421 202.46 66.7066C201.047 67.0697 199.876 66.3845 198.924 65.6718C198.25 65.1715 197.635 64.9043 197.16 64.5479C195.988 63.6708 195.776 61.0257 194.004 61.0051C193.618 61.0001 193.241 61.117 192.934 61.337C192.627 61.5571 192.408 61.8674 192.313 62.218C192.255 62.7662 192.899 63.7873 193.162 64.2053C194.026 65.5759 195.607 66.0829 196.091 67.9195C196.405 68.0565 197.057 67.6043 197.394 68.0017C197.694 68.7898 197.394 70.2562 198.082 70.5989C201.281 71.1882 202.189 69.2283 203.617 67.8578C204.444 68.4677 204.173 69.0022 204.458 69.6738C204.689 70.2962 205.155 70.8179 205.769 71.1403C206.15 71.3116 206.647 71.1402 207.233 71.4007C207.599 71.5583 209.115 73.1686 209.158 73.7374C209.202 74.3062 208.163 75.9714 207.848 76.41C207.533 76.8485 207.072 77.061 206.926 77.4447C206.779 77.8285 206.852 78.3836 206.772 78.5686C206.633 78.9181 205.937 79.3635 205.542 79.7815C205.128 80.1767 204.693 80.5518 204.239 80.9053C203.748 81.3234 203.448 81.899 202.928 82.1114C201.911 82.5363 200.937 82.3581 200.088 82.9817C199.539 83.386 199.531 84.2974 198.865 84.7908C198.199 85.2842 196.962 85.3048 195.937 85.8324C195.278 86.1614 194.89 86.8124 194.326 87.0385C194.092 87.1276 193.807 87.0385 193.55 87.1276C193.045 87.2715 192.569 87.6827 192.086 87.8129C191.603 87.9431 191.303 87.8677 190.937 87.991C189.751 88.3748 188.667 89.7248 187.474 88.9367C186.918 87.4839 186.822 85.6474 186.171 84.3591C185.841 83.6738 185.183 83.4957 184.941 82.8035C184.941 82.2485 185.505 82.3992 185.556 81.9401C185.358 81.0081 184.575 80.5696 184.092 79.7815C183.857 79.3909 183.748 78.8427 183.477 78.411C182.562 76.9171 180.753 76.1359 180.402 74.2993C180.307 73.7923 180.402 73.3948 180.329 73.0042C180.147 72.3497 179.834 71.7336 179.406 71.1882C179.114 70.8045 178.513 70.5441 178.176 69.9821C177.957 69.6052 177.906 69.0844 177.715 68.687C176.968 67.1396 175.926 65.7324 174.641 64.5342C174.018 64.637 173.345 64.685 173.03 65.1441C173.354 66.1537 173.794 67.1278 174.34 68.0497C174.911 68.9226 175.401 69.8396 175.805 70.7908C175.922 71.1471 175.9 71.6199 176.031 71.9968C176.515 73.3674 178.037 73.7854 178.338 75.3684C178.543 76.4237 178.294 77.1569 178.572 78.2191C178.85 79.2813 180.168 79.8295 180.717 80.8094C181.171 81.6043 181.171 82.7282 181.486 83.4888C181.947 84.5921 183.235 85.0718 184.172 85.8187C184.947 86.5789 185.666 87.3871 186.325 88.2377C186.735 88.6558 187.298 88.7311 187.401 89.1903C187.533 89.7728 187.181 89.9715 187.093 90.4854C187.686 91.1707 188.257 92.4522 189.246 92.5412C189.648 92.5892 190.161 92.1301 190.783 92.0273C191.091 91.9725 191.442 92.0821 191.698 92.0273C192.108 91.9382 192.467 91.5339 192.935 91.4174C193.719 91.2324 194.627 91.3077 195.622 91.1638C196.618 91.0199 197.203 90.1291 197.928 90.3826C198.712 91.3626 198.148 92.4384 197.928 93.4047C197.848 93.7405 197.848 94.09 197.774 94.3572C197.357 95.8991 196.274 97.0366 195.776 98.4209C195.622 98.8389 195.644 99.3597 195.468 99.7914C194.761 101.196 193.855 102.505 192.774 103.684C192.306 104.291 191.795 104.868 191.244 105.411C190.695 105.918 190.022 106.199 189.399 106.706C188.084 107.816 186.945 109.097 186.017 110.509C185.68 111.023 185.519 111.626 185.175 112.065C184.67 112.688 183.901 112.997 183.484 113.62C183.125 114.348 182.817 115.096 182.562 115.861C182.137 116.848 181.259 117.519 181.412 118.883C181.471 119.411 181.888 119.733 182.027 120.254C182.183 121.143 182.155 122.053 181.947 122.933C182.379 124.118 182.679 125.434 183.484 126.215C183.579 127.963 183.352 129.642 183.484 131.136C183.565 132.081 183.894 132.773 183.557 133.644C183.07 134.635 182.364 135.518 181.486 136.234C180.753 136.762 179.655 136.919 178.872 137.536C178.33 137.975 177.884 138.749 177.335 139.263C176.434 140.113 175.19 140.908 175.138 141.764C175.217 142.355 175.371 142.935 175.6 143.491C175.9 144.773 176.193 146.602 175.68 147.986C175.124 149.48 172.305 149.172 172.02 150.728C171.924 151.207 172.21 151.591 172.173 152.098C172.004 152.953 171.747 153.791 171.405 154.599C171.068 155.319 170.292 155.641 169.794 156.244C169.165 157.011 168.85 158.122 168.176 158.923C167.188 160.085 166.083 161.155 164.874 162.117C163.606 163.107 162.062 163.737 160.423 163.933C159.494 164.008 158.491 163.686 157.495 163.85C157.136 163.905 156.763 164.275 156.265 164.364C155.987 164.412 155.709 164.31 155.423 164.364C154.94 164.454 154.486 164.885 154.04 164.885C153.044 164.885 151.77 163.515 151.733 162.206C151.733 161.692 152.129 161.205 152.121 160.739C152.114 160.273 151.514 159.492 151.045 158.492C150.577 157.491 150.416 156.436 149.969 155.641C149.523 154.846 148.864 154.401 148.505 153.743C147.773 152.413 147.773 150.837 147.502 149.247C147.429 148.727 147.114 148.165 147.041 147.521C147.059 146.741 147.034 145.961 146.968 145.184C146.704 144.617 146.396 144.07 146.045 143.546C145.503 142.422 145.123 140.962 144.662 140.12C144.2 139.277 143.358 138.454 143.278 137.529C143.263 136.72 143.314 135.912 143.432 135.11C143.512 134.5 143.915 134.021 144.047 133.383C144.134 132.958 144.047 132.465 144.12 132.013C144.515 130.032 146.448 129.313 146.199 126.914C146.089 125.893 145.467 125.393 145.35 124.235C145.306 123.694 145.591 123.221 145.584 122.679C145.431 121.81 145.145 120.965 144.735 120.171C143.959 118.266 143.483 116.526 142.355 115.08C141.748 114.292 140.943 113.709 140.437 113.024C139.983 112.367 139.67 111.634 139.515 110.865C139.515 110.372 139.852 110.064 139.976 109.57C140.137 108.933 140.152 107.727 140.357 106.719C140.626 105.964 140.783 105.178 140.825 104.383C140.745 103.663 139.786 102.279 138.981 102.053C137.904 101.758 136.784 102.437 135.445 102.313C134.215 101.518 134.295 99.3391 132.611 99.0924ZM175.072 130.019C175.431 129.381 175.878 127.6 175.072 127.168H174.919C174.597 127.874 174.231 129.594 175.072 129.991V130.019ZM173.996 111.962C174.26 111.366 174.867 110.735 174.765 109.975C174.545 108.316 171.778 109.132 171.463 110.324C171.251 111.126 171.595 111.756 171.31 112.572C171.61 113.209 172.371 113.332 173.308 113.257C173.843 112.976 173.777 112.483 174.011 111.934L173.996 111.962ZM169.318 120.87C169.618 120.233 168.828 119.822 168.703 119.143C168.55 118.342 168.872 117.41 168.235 116.978H168.008C167.466 118.362 168.257 120.699 169.333 120.836L169.318 120.87ZM221.699 35.0813C221.414 34.396 220.579 35.2732 220.967 35.8625C221.465 35.8625 221.655 35.5267 221.714 35.0471L221.699 35.0813ZM203.807 38.6242C205.051 38.3569 203.807 36.1161 202.877 36.3765C201.669 36.6917 202.972 38.7886 203.822 38.5899L203.807 38.6242ZM198.133 49.753C198.514 46.7583 196.442 46.5322 196.061 44.401C196.237 44.401 196.142 44.1474 196.288 44.1406C196.793 43.8665 197.555 44.5792 197.826 43.8802C197.82 43.6288 197.746 43.3828 197.612 43.1653C197.477 42.9478 197.285 42.7659 197.055 42.6365C196.824 42.5071 196.563 42.4345 196.294 42.4255C196.026 42.4165 195.759 42.4714 195.52 42.585C195.19 42.3315 195.139 41.749 195.058 41.2145C194.187 40.632 192.035 39.3574 192.064 38.1924C192.064 37.2331 193.192 36.6917 194.443 36.726C194.978 36.2737 194.634 34.8894 194.136 34.5674C192.152 34.074 191.098 34.4097 189.839 35.4308C189.231 35.9173 188.557 36.26 188.221 36.5546C187.837 36.9282 187.595 37.4099 187.533 37.9252C187.584 38.4597 188.265 38.7749 188.536 39.4808C188.667 39.8439 188.638 40.3031 188.762 40.6046C189.099 41.4406 189.956 41.9751 190.607 42.6604C191.061 43.1538 192.35 44.2297 192.372 44.819C192.394 45.4083 191.976 45.422 191.837 45.9429C191.649 46.6481 191.573 47.3754 191.61 48.1015C191.771 49.0471 192.65 49.0814 193.448 49.472C194.246 49.8626 195.007 50.5684 195.827 50.589C196.253 50.6155 196.681 50.5544 197.079 50.41C197.477 50.2656 197.837 50.0413 198.133 49.753ZM180.08 43.5375C182.166 43.1127 181.215 41.1323 180.16 40.4264C179.355 39.8919 178.403 39.4259 177.474 38.7818C176.932 38.4117 174.875 37.7128 174.86 36.9727C174.845 36.2326 176.39 35.8968 175.783 34.4646C174.728 34.1768 172.232 34.629 172.4 35.931C172.503 36.6848 173.293 36.2668 173.476 37.0549C172.744 37.3564 171.807 38.1445 171.017 38.0074C170.08 37.843 169.838 36.5409 169.333 35.7597C168.601 35.7597 168.118 34.9648 167.254 35.0745C166.39 35.1841 165.87 36.6643 165.409 37.4112C165.167 37.8018 164.779 38.0074 164.64 38.3569C164.56 38.5762 164.64 38.912 164.567 39.2203C164.303 40.1797 163.564 40.5361 163.645 41.3858C163.718 42.1327 164.435 42.4685 164.486 43.1127C164.538 43.7568 163.491 43.4279 163.571 44.2365C164.94 45.5111 165.036 43.6335 165.716 43.3731C166.28 43.1607 167.386 43.5444 168.096 43.3731C168.674 43.2292 169.128 42.6124 169.787 42.3315C170.248 42.1333 170.744 42.0171 171.251 41.9888C173.696 41.8723 175.27 43.6609 177.393 43.7157C178.293 43.7275 179.193 43.6609 180.08 43.517V43.5375ZM175.168 53.7275C175.212 52.8024 174.853 52.1034 174.78 50.7946C173.367 49.8283 172.305 51.6854 170.863 51.4798C169.977 51.3565 169.348 50.1984 168.41 50.3628C167.891 50.4519 167.634 51.1989 167.1 51.3085C166.002 51.5347 165.504 50.3217 164.333 50.7946C162.693 49.3829 161.953 47.0873 161.573 44.4901C160.672 43.1675 159.311 44.2434 158.644 45.0931C158.242 45.0931 157.737 44.8396 157.649 45.3535C157.341 46.9502 159.655 47.1147 159.64 48.2042C159.64 48.8895 158.74 48.8415 158.337 49.3212C157.934 49.8009 158.191 50.2943 157.649 50.6164C156.133 50.822 155.628 49.89 155.65 48.3756C154.999 47.2586 154.186 46.4431 153.578 45.5248C153.279 45.1104 153.07 44.6446 152.963 44.1543C152.905 43.75 153.132 43.236 153.037 42.7838C152.868 41.9614 151.507 41.3378 150.657 40.8856C149.699 40.4688 148.797 39.9466 147.971 39.33C147.509 38.8983 147.297 38.1513 146.894 37.8635C146.492 37.5757 146.162 37.6716 145.818 37.4318C145.394 37.096 145.467 36.5478 144.896 36.3902C144.603 36.2737 144.164 36.7123 143.973 37.0001C143.6 38.8846 144.962 39.0148 145.584 39.8508C146.016 40.4196 146.228 41.283 146.66 41.6599C147.092 42.0368 147.758 41.9957 148.351 42.2698C148.761 42.4548 149.032 43.0304 149.427 43.3046C150.16 43.8048 151.338 43.8939 151.426 44.8601C150.972 45.2096 149.962 44.353 149.581 45.2028C149.493 45.7647 149.976 46.0525 149.969 46.5733C149.969 47.423 149.105 48.355 148.351 48.2179C148.278 47.7108 148.754 47.2928 148.739 46.7446C148.703 45.6482 146.741 43.9693 145.738 43.4622C145.276 43.2292 144.705 43.2155 144.274 42.9482C143.305 42.2964 142.451 41.5081 141.741 40.6115C141.191 39.796 140.723 38.2815 139.544 38.3638C139.046 38.3638 138.644 38.912 138.234 39.145C137.834 39.3481 137.45 39.577 137.084 39.8302C136.638 40.1592 136.272 40.5155 135.855 40.5155C134.888 40.5635 134.068 39.7137 133.241 39.9125C132.963 39.981 132.729 40.262 132.399 40.5977C132.399 41.1048 132.531 41.4269 132.472 41.9683C132.223 42.4548 131.484 42.4206 130.935 42.7426C130.118 43.3699 129.396 44.0984 128.79 44.9081C128.405 45.2385 128.113 45.6528 127.941 46.1142C127.904 46.402 128.153 46.9434 128.094 47.3271C127.838 47.9613 127.415 48.5247 126.864 48.9649C126.594 49.1773 126.235 49.2047 125.942 49.3966C125.342 49.8009 125.071 50.3286 124.566 50.4314C123.219 50.7123 120.781 50.1299 120.795 51.7265C120.795 52.7956 122.091 52.8024 122.875 52.7681C123.958 52.7202 124.881 53.0217 125.481 52.8504C125.898 52.7339 126.352 52.2131 126.791 51.9869C127.062 51.8499 127.348 51.8499 127.56 51.7265C128.014 51.4661 128.292 51.0413 128.636 50.8631C129.508 50.4897 130.441 50.258 131.396 50.1778C132.436 50.1093 133.519 50.3012 134.852 50.1778C135.335 50.1367 135.803 49.7941 136.316 49.7461C137.15 49.6776 138.248 50.1161 138.929 50.0956C139.391 50.0956 139.918 49.5679 140.459 49.5748C140.764 49.5919 141.056 49.6909 141.301 49.8599C141.547 50.0289 141.735 50.2606 141.843 50.5273C141.909 50.7809 141.711 51.2126 141.77 51.5621C141.858 52.1925 142.333 52.4529 142.304 52.8572C142.268 53.3986 141.067 54.125 141.228 54.7623C141.338 55.1666 142.194 55.5983 142.612 55.8861C143.113 56.2503 143.688 56.5139 144.303 56.6605C144.735 56.7153 145.123 56.5234 145.533 56.5714C146.31 56.7097 147.045 57.0068 147.685 57.4417C148.417 58.0105 148.307 58.9287 149.149 59.2508C149.508 59.3879 150.152 59.3125 150.613 59.429C151.733 59.6962 152.568 60.7378 153.381 60.6351C154.669 60.4637 154.113 59.1 154.23 58.127C154.552 55.9272 158.388 56.0232 159.142 57.5239C159.71 57.5827 160.275 57.6697 160.833 57.7843C161.199 57.9214 161.478 58.3737 161.829 58.4696C162.18 58.5655 162.488 58.4216 162.832 58.4696C164.296 58.6546 165.636 59.8881 166.902 59.6757C167.7 59.5455 168.286 58.6957 169.047 58.6409C170.512 58.5381 171.463 59.8676 173.045 59.244C174.209 58.7848 173.952 57.428 174.348 56.0506C174.597 55.0844 175.131 54.4334 175.168 53.707V53.7275ZM257.967 24.2609C258.081 23.7493 258.071 23.2203 257.938 22.7127C257.805 22.2051 257.552 21.7319 257.198 21.3279C256.312 21.4992 256.956 22.534 256.898 23.1439C256.81 24.0005 255.997 24.5967 256.049 25.4738C255.756 25.8644 255.251 26.0152 255.207 26.6799C255.69 27.0636 255.939 26.3852 256.283 25.9946C256.869 25.3573 257.798 24.9941 257.967 24.2472V24.2609ZM237.842 -5.75396C237.211 -5.72124 236.614 -5.47813 236.158 -5.06869C235.865 -4.89737 235.279 -4.80143 235.462 -4.29433C236.202 -4.38341 237.666 -4.7329 237.842 -5.75396ZM205.432 4.902C207.233 5.37484 208.082 3.07918 206.896 1.79087C206.618 1.48936 205.674 1.37286 205.286 0.66703C204.817 -0.175852 204.883 -1.30655 203.748 -1.05985C203.748 -0.957064 203.748 -0.813155 203.668 -0.806302C203.565 1.08504 206.01 1.56473 205.974 3.08603C205.952 3.88095 205.198 3.97004 205.432 4.902Z" fill="#FE4D3C" fill-opacity="0.1"/>
<path d="M180.197 1.61764C179.97 0.678822 181.544 0.829579 181.273 1.69987C180.988 1.96027 180.314 1.93972 180.197 1.61764Z" fill="#FE4D3C" fill-opacity="0.1"/>
<path d="M170.678 53.2713C170.678 52.586 172.142 52.2982 172.443 52.9287C172.377 53.6208 171.008 54.1005 170.678 53.2713Z" fill="#FE4D3C" fill-opacity="0.1"/>
<path d="M144.368 48.6133C145.166 47.8801 146.945 48.3735 148.028 48.3529C147.823 49.0382 147.794 49.8674 147.34 50.2511C146.103 49.9976 144.924 49.6481 144.368 48.6133Z" fill="#FE4D3C" fill-opacity="0.1"/>
<path d="M138.763 44.0299C139.817 42.7964 140.959 43.4474 140.527 45.8458C140.279 46.5311 139.18 47.5179 138.683 46.4557C138.803 45.6522 138.83 44.8388 138.763 44.0299Z" fill="#FE4D3C" fill-opacity="0.1"/>
<path d="M140.288 41.2667C140.35 41.5079 140.332 41.761 140.237 41.9924C140.141 42.2239 139.973 42.4225 139.754 42.5619C138.743 42.3632 139.512 40.3211 140.288 41.2667Z" fill="#FE4D3C" fill-opacity="0.1"/>
<path d="M125.393 23.7106C125.412 23.4455 125.358 23.1802 125.237 22.9402C125.115 22.7001 124.929 22.4935 124.697 22.3401C124.448 22.1825 124.06 22.2578 123.782 22.0797C123.05 21.6205 122.757 20.6543 122.318 20.4419C122.377 19.4962 122.091 18.8109 122.318 18.1942C122.726 17.5222 123.307 16.9567 124.009 16.5495C124.683 16.2891 125.386 16.5495 125.781 15.9465C125.847 15.9316 125.917 15.9319 125.983 15.9474C126.049 15.9629 126.11 15.9932 126.162 16.0356C126.162 16.577 125.752 16.666 125.7 17.1594C125.795 17.9406 127.025 17.4541 127.164 18.1942C127.047 19.0028 126.432 19.1604 126.396 19.7498C126.359 20.3391 127.326 21.2368 127.779 21.9084C128.116 22.4086 128.709 22.7787 129.009 23.2789C129.309 23.7791 129.331 24.2588 129.551 24.485C129.954 24.9167 130.862 24.9852 130.927 25.6088C131.023 26.438 130.02 26.7601 130.159 27.6646C129.104 28.5966 127.347 28.1101 125.627 28.3499C124.851 28.4595 123.995 29.3298 123.175 28.6035C122.984 28.0278 123.855 27.9182 123.907 27.3974C123.841 26.8903 123.27 26.9588 123.175 26.5339C123.394 25.8487 124.09 25.7253 124.017 24.718C124.441 24.2383 125.29 24.437 125.393 23.7106Z" fill="#FE4D3C" fill-opacity="0.1"/>
<path d="M119.629 21.6545C120.653 20.9692 122.447 21.49 122.557 22.3398C122.63 22.9908 122.008 23.0798 121.788 23.8062C121.569 24.5326 121.825 25.2522 121.554 25.7113C121.283 26.1704 120.683 26.0813 120.251 26.2252C119.284 26.5542 117.418 27.8288 116.642 26.4034C116.751 25.6359 117.41 25.4851 117.637 24.8478C117.637 24.3476 117.176 24.0803 117.257 23.5527C117.344 22.8674 117.784 23.121 118.406 22.8674C118.853 22.6755 119.043 22.0588 119.629 21.6545Z" fill="#FE4D3C" fill-opacity="0.1"/>
<path d="M67.1671 2.91309C67.3282 3.68059 65.1466 4.68109 64.9709 3.68744C64.7732 2.89253 66.6107 1.90574 67.1671 2.91309Z" fill="#FE4D3C" fill-opacity="0.1"/>
<path d="M64.6337 197.634H63.4771C63.6604 197.562 63.8569 197.525 64.0554 197.525C64.2539 197.525 64.4504 197.562 64.6337 197.634Z" fill="#FE4D3C" fill-opacity="0.1"/>
<path d="M54.3446 10.5136C54.3446 10.9864 52.8146 11.7745 52.6535 10.8562C52.6341 10.7267 52.6524 10.5946 52.7065 10.474C52.7607 10.3534 52.8486 10.2487 52.961 10.171C53.371 9.88316 54.33 10.0476 54.3446 10.5136Z" fill="#FE4D3C" fill-opacity="0.1"/>
<path d="M22.3846 90.7718C22.3407 90.8952 22.2675 90.9842 22.2309 91.1144C21.4183 91.0802 22.1503 89.9084 22.3846 90.7718Z" fill="#FE4D3C" fill-opacity="0.1"/>
<path d="M74.9246 33.5812C74.5659 33.4784 74.0827 33.4989 73.6215 33.4099C73.1603 33.3208 72.765 33.1974 72.3916 33.1495C71.4472 33.0193 70.4223 33.3345 69.8586 32.7177C70.8284 31.3298 71.9337 30.029 73.1603 28.8323C73.5117 28.4759 74.2657 28.2361 74.0827 27.5302C73.4312 26.8861 72.6185 27.5714 72.0109 27.9688C71.3755 28.4653 70.6451 28.8444 69.8586 29.0858C68.5921 29.2982 66.9302 28.6678 65.8687 29.4353C65.7223 30.1206 67.0474 29.8327 66.8643 30.8058C66.6305 30.8865 66.3774 30.9048 66.1332 30.8588C65.8889 30.8129 65.663 30.7044 65.4807 30.5454C65.122 30.1822 65.327 29.6409 65.1 29.4216C64.7047 29.0515 63.2259 28.9556 62.5597 29.0721C62.1591 29.1264 61.7873 29.2983 61.4978 29.5631C61.2084 29.8279 61.0162 30.1718 60.9491 30.5454C61.9154 31.0525 63.5187 30.0178 63.8774 31.3198C63.343 32.3957 62.0911 32.9918 62.2595 34.4309C62.3115 34.7223 62.4361 34.9982 62.623 35.2363C62.8099 35.4744 63.0541 35.668 63.3357 35.8015C63.7603 35.8837 64.0019 35.4109 64.4118 35.452C64.8218 35.4931 64.7486 36.055 65.2611 35.9728C65.9932 35.6164 66.4031 34.4515 67.2523 34.5063C68.27 35.8768 66.3372 36.5621 65.2611 37.0075C64.0312 37.5078 62.4279 37.775 61.4908 38.2205C61.0003 38.4535 59.1481 40.4681 58.8846 38.9057C58.6942 37.7819 59.7997 38.1108 60.034 37.1789C58.848 36.9184 57.7352 37.7545 56.659 38.2205C55.1143 38.9057 52.4935 39.2963 52.1201 41.2425C52.0469 41.6331 52.2738 42.3663 52.0469 42.613C51.8199 42.8597 50.7584 42.8597 50.2826 43.0448C49.5505 43.3257 48.8916 43.9425 48.4377 44.0795C48.0936 44.1823 47.5812 44.1549 47.3615 44.2508C46.7466 44.5181 46.5269 45.4501 45.8241 46.0668C45.5386 46.3204 44.9017 46.5054 44.6748 46.7521C44.2721 47.1975 44.2209 48.3076 43.5181 48.479C43.0715 48.5201 42.7128 48.1021 42.2882 48.3899C42.2369 49.4932 42.6322 50.9939 42.215 52.104C41.2632 52.9126 40.2339 53.6375 39.1402 54.2695C38.496 54.6738 37.9249 54.7766 37.1416 55.2152C36.5925 55.5304 36.0874 56.2636 35.4578 56.6885C33.9936 57.6547 32.2146 58.806 32.2293 61.2661C32.2293 61.8006 32.4782 62.3694 32.5368 62.993C32.5734 63.3562 32.5368 63.7194 32.5368 64.1168C32.6246 65.0214 33.2103 66.1726 32.5368 66.7962C31.5045 66.3165 30.1868 66.1521 29.462 65.3229C29.2643 64.4732 29.8646 63.7673 29.7695 62.993C29.6963 62.3694 28.9202 61.2593 28.4664 61.177C28.0125 61.0948 27.5659 61.6499 27.0827 61.6087C26.5995 61.5676 25.9773 60.6699 25.2379 60.574C24.1617 60.4301 23.3637 60.8481 22.1631 60.6631C21.0064 61.3483 20.6989 62.5955 19.2347 62.4722C18.7369 62.4311 18.2757 61.9993 17.6973 61.8691C16.986 61.6591 16.2467 61.5438 15.5011 61.5265C14.1906 61.6224 13.2463 62.6778 12.1188 63.3356C11.1305 63.9181 9.72492 64.6376 9.43208 65.8437C9.27103 66.4947 9.43208 67.4061 9.19781 68.0023C9.01778 68.3884 8.8124 68.7638 8.58286 69.1262C7.48474 71.184 7.16224 73.529 7.66776 75.7801C8.00087 76.7946 8.43724 77.7767 8.97087 78.7131C9.54254 79.3302 10.3136 79.7561 11.1671 79.926C11.7703 79.8428 12.3619 79.698 12.9315 79.4943C13.6058 79.4233 14.2738 79.3065 14.9301 79.1448C16.5919 78.5486 16.2625 76.02 17.9243 75.1702C18.8224 74.8074 19.7942 74.632 20.7721 74.6563C20.9755 74.8809 21.1277 75.142 21.2196 75.4236C21.3115 75.7052 21.3411 76.0014 21.3065 76.2941C21.1353 76.797 20.9299 77.2891 20.6916 77.7674C20.5159 78.3156 20.4793 78.9598 20.3109 79.4052C20.0766 79.9877 19.5788 80.4126 19.3885 80.9608C19.264 81.3171 19.3299 81.7625 19.2347 82.0846C19.059 82.6534 18.3782 83.0508 18.693 83.6402C20.3402 84.3734 22.3534 83.4278 23.7664 83.7293C24.374 83.8526 25.6185 84.6612 25.6112 85.7166C25.6112 86.4978 25.0695 87.0117 24.9963 87.8752C24.9011 88.9579 24.4984 90.2805 24.4545 91.1576C24.3886 92.5898 26.3287 95.0636 27.683 95.0431C29.0374 95.0225 29.9964 93.4053 31.7534 94.2687C32.3391 94.5497 32.954 95.6393 33.5983 95.5639C34.2425 95.4885 34.9307 94.4675 35.2894 93.7479C35.7213 92.8639 35.7506 92.117 36.512 91.6921C37.2734 91.2673 37.9762 91.4454 39.0523 91.0068C39.5293 90.7898 39.9726 90.5132 40.3701 90.1845C40.7435 89.8967 41.1022 89.1429 41.6 89.6706C42.215 90.3558 40.8679 90.7464 41.3731 91.4797C42.4346 92.117 42.9763 90.301 43.7523 90.2736C44.3135 90.4775 44.8334 90.7695 45.2897 91.137C45.89 91.5825 46.0877 92.1992 46.7539 92.35C47.1712 92.4391 47.852 92.165 48.445 92.2609C49.2284 92.3842 49.6969 93.1449 50.2899 93.1243C51.022 93.1243 51.3587 92.2129 51.9737 92.0896C53.3354 91.8086 53.8405 92.254 54.4335 93.2134C55.107 93.3436 55.129 92.3431 55.7366 92.6926C55.4072 93.4464 55.8537 93.7959 56.1246 94.4195C56.3003 94.8238 56.271 95.1048 56.4321 95.2829C56.7981 95.6804 57.5083 95.6804 58.0427 96.0641C58.5771 96.4479 58.9285 97.2085 59.5801 98.0514C60.2316 98.8943 61.3737 99.7989 62.2668 99.8605C63.16 99.9222 63.7969 99.5933 64.4997 99.6892C66.0883 99.9085 67.0766 100.799 68.1601 101.745C68.7824 102.28 69.3461 102.656 69.5438 103.294C69.6829 103.746 69.617 104.349 69.7781 104.856C70.1148 105.925 71.5058 106.446 71.008 108.283C71.2349 108.824 71.74 109.023 72.3111 109.406C72.8821 109.79 73.131 110.352 73.6142 110.441C73.929 110.496 74.2658 110.338 74.5366 110.352C75.3145 110.481 76.0596 110.746 76.7329 111.133C77.2122 111.261 77.676 111.436 78.1165 111.654C78.5118 111.949 78.5631 112.942 79.039 113.203C79.3538 113.374 80.0566 113.141 80.5763 113.203C81.4036 113.312 82.5237 113.888 83.2631 113.888C83.717 113.888 84.0903 113.682 84.493 113.717C86.3745 113.881 87.4214 116.41 89.2589 117.143C89.8226 117.383 90.7231 117.218 91.0964 117.403C91.7773 117.739 92.3556 120.076 92.4069 121.118C92.5606 124.256 90.4156 125.264 89.1784 127.34C88.9221 127.772 88.7757 128.464 88.4097 129.067C87.6776 130.287 86.8576 130.54 86.9455 132.781C86.9455 133.398 87.253 134.001 87.253 134.679C87.2626 135.577 87.1842 136.474 87.0187 137.359C86.8942 137.934 86.477 138.4 86.4038 138.914C86.3306 139.428 86.5428 139.853 86.4843 140.285C86.2836 140.947 85.9985 141.584 85.635 142.183C84.903 143.656 84.7712 145.39 83.3363 145.986C82.4871 146.336 81.345 146.137 80.408 146.5C80.0346 146.651 79.5587 147.041 79.1048 147.281C77.7651 147.967 75.8617 148.926 75.4957 150.475C75.1662 151.845 75.9496 152.962 75.7226 154.538C75.4461 155.044 75.1381 155.533 74.8002 156.005C74.4707 156.498 74.3024 157.074 73.9583 157.56C73.4971 158.211 72.7796 158.499 72.4941 159.376C72.3989 159.671 72.4941 160.027 72.3404 160.5C72.2964 160.671 72.0182 160.946 71.8791 161.274C71.7401 161.603 71.762 161.96 71.6522 162.227C71.3008 163.022 70.2539 164.838 69.4999 165.078C67.9039 165.585 66.2274 164.317 65.1073 164.557C65.2684 165.427 65.8394 165.331 66.1835 165.927C66.3597 166.342 66.5652 166.745 66.7985 167.134C67.1425 167.586 67.45 167.75 67.4866 168.257C67.4994 168.728 67.4033 169.196 67.2049 169.629C67.0066 170.062 66.7106 170.45 66.3372 170.765C65.658 171.122 64.9128 171.354 64.141 171.451C63.5699 171.554 62.1058 171.56 61.8349 171.972C61.4396 172.568 62.0399 174.027 61.7544 174.644C61.1833 175.912 59.6386 174.61 58.826 174.994C58.7722 175.293 58.8004 175.6 58.908 175.887C59.0155 176.173 59.1989 176.429 59.441 176.631C59.9242 176.953 60.6562 176.535 60.9784 177.152C60.8173 178.009 59.9974 178.125 59.8217 178.968C59.8217 179.79 60.0706 180.01 59.9754 180.517C59.7777 181.627 58.2403 181.586 58.2843 182.765C58.3502 184.539 61.3078 183.813 61.359 185.506C61.359 186.547 60.5171 186.561 60.2097 187.561C60.0413 188.11 60.3048 188.247 60.2097 188.685C60.0779 189.302 59.4776 189.473 59.4776 190.152C59.4776 190.981 60.5537 191.892 61.0882 192.571C61.6132 193.343 62.2599 194.036 63.0062 194.627C64.0897 195.312 65.693 195.147 66.1615 196.353C66.0078 197.08 65.3855 197.279 64.7779 197.477H64.6242C64.4408 197.406 64.2443 197.369 64.0458 197.369C63.8473 197.369 63.6508 197.406 63.4674 197.477H62.4059C61.381 196.943 60.1365 196.6 58.8773 196.107C58.4234 195.929 57.9109 195.497 57.4131 195.25C57.047 195.058 56.6298 194.983 56.3369 194.812C55.678 194.421 54.9313 193.16 54.2651 192.653C53.8625 192.345 53.2255 192.187 52.962 191.872C52.7327 191.453 52.5274 191.023 52.347 190.584C52.0981 190.186 51.615 189.898 51.3441 189.46C50.7072 188.507 49.8799 187.219 49.8799 186.52C49.8799 185.821 50.4656 185.355 50.2679 184.711C50.0703 184.067 48.8989 184.231 48.7305 183.498C48.628 183.052 49.0673 182.312 49.038 181.682C49.038 181.319 48.4157 180.825 48.65 180.311C48.8843 179.797 49.448 180.366 49.8799 180.058C49.5578 178.811 49.8799 176.803 48.8037 176.426C48.24 176.96 49.3821 178.166 48.4231 178.482C47.4933 178.016 47.691 176.638 47.5006 175.631C47.2894 174.981 47.1351 174.317 47.0394 173.644C47.0861 173.243 47.1105 172.84 47.1126 172.438C46.9516 171.273 45.8022 170.313 45.729 169.148C45.8104 168.593 45.9402 168.046 46.117 167.51C46.1682 167.099 46.0657 166.64 46.117 166.215C46.1829 165.66 46.4537 165.16 46.4977 164.66C46.5745 163.534 46.523 162.404 46.3439 161.288C46.1609 160.288 45.4508 159.438 45.3483 158.355C45.3117 157.958 45.4654 157.3 45.4288 156.8C45.3922 156.299 45.158 155.861 45.1213 155.326C45.1339 154.805 45.1853 154.285 45.2751 153.771C45.3556 152.688 45.0847 151.475 45.1213 150.399C45.1213 150.084 45.2751 149.851 45.2751 149.536C45.2751 148.645 44.9969 147.747 44.9676 146.863C44.9017 145.219 45.1287 144.06 44.8871 142.539C44.7708 141.308 44.5131 140.093 44.1184 138.914C43.3601 137.862 42.3964 136.953 41.2779 136.235C40.7435 135.899 40.0992 135.782 39.5136 135.453C38.2617 134.768 35.8531 133.309 35.2894 131.917C35.1283 131.513 35.1503 130.979 34.9819 130.547C34.5371 129.676 34.0232 128.838 33.4445 128.039C32.4928 126.408 31.7241 124.366 30.7505 122.687C30.3212 121.822 29.8321 120.984 29.2863 120.179C28.9715 119.781 27.9612 119.404 27.8221 118.808C27.6464 118.013 27.1266 116.917 27.2072 116.307C27.317 115.478 28.7445 114.813 28.7445 114.059C28.7445 113.422 28.0125 113.045 27.8221 112.504C27.4341 111.181 28.0491 110.407 28.5103 109.31C28.664 108.947 28.8177 108.365 28.9715 108.097C29.257 107.625 29.828 107.488 30.2014 106.974C30.4137 106.686 30.5455 106.09 30.8164 105.678C31.402 104.808 32.3464 104.479 32.5807 103.691C32.8278 102.061 32.8548 100.408 32.6612 98.771C32.4119 98.1824 32.1309 97.606 31.8193 97.0441C31.4679 95.9956 31.3874 94.8581 30.4357 94.8786C29.8427 94.8786 29.4254 95.6256 29.052 96.0916C28.9568 96.7083 29.0081 97.373 28.4371 97.558C27.5586 97.8458 27.2291 96.5233 26.2408 96.1875C25.8308 96.0436 25.1866 96.0504 24.9304 95.9271C24.1983 95.5502 23.9494 94.3236 23.166 93.8713C22.5072 93.4738 21.9508 93.6109 21.5481 93.0078C21.4622 92.4359 21.4377 91.8574 21.4749 91.281C20.633 90.7259 19.9229 88.6564 18.9419 88.1698C18.2903 87.8477 17.2947 87.8752 16.4821 87.5668C16.1348 87.3991 15.7752 87.2548 15.4059 87.1351C14.9303 87.076 14.4651 86.9585 14.0223 86.7856C12.5068 85.9358 11.6869 83.1879 9.79813 83.2496C9.00015 83.2496 8.22414 84.113 7.49938 84.113C6.77461 84.113 5.55935 83.462 4.65156 82.9892C3.74377 82.5163 2.6676 82.2285 1.89158 81.7763C1.26199 81.4131 0.822731 80.7552 0.273666 80.4811C-0.143623 80.2687 -0.758568 80.2344 -1.10265 80.0494C-1.67286 79.6527 -2.21343 79.2199 -2.72057 78.7542C-3.34218 78.3386 -3.77969 77.7243 -3.95047 77.0273C-3.95047 76.3421 -3.39408 75.7733 -3.33552 75.1223C-3.13786 73.0665 -4.48489 71.5863 -5.33411 70.3734C-5.96371 69.4688 -6.6958 68.7013 -7.32539 67.8653C-7.29611 67.4637 -7.29611 67.0607 -7.32539 66.6592C-7.83989 66.0066 -8.30235 65.3195 -8.70904 64.6034C-9.17025 63.9181 -10.0561 63.1506 -10.1732 62.3625C-10.3123 61.3895 -9.84377 60.5397 -10.1732 59.6215C-10.715 58.059 -12.6477 58.7649 -12.3695 60.8344C-12.2963 61.4032 -11.5861 62.1707 -11.3738 62.7326C-11.1615 63.2945 -11.1908 64.0277 -10.9858 64.7199C-10.7808 65.412 -10.1952 65.9602 -9.99019 66.7072C-9.66075 67.8927 -9.66808 69.1673 -9.37524 69.9005C-9.08241 70.6338 -8.13802 71.182 -8.67976 71.9563C-9.41185 72.1276 -9.69004 71.3053 -10.1439 70.8325C-10.3928 70.5652 -11.308 70.065 -11.4471 69.4619C-11.5642 68.9548 -11.1615 68.2696 -11.2933 67.6528C-11.5569 66.433 -13.7458 66.3988 -13.7531 65.1447C-13.7531 64.3567 -12.838 64.2607 -12.8307 63.5001C-12.8234 62.7394 -13.841 61.9651 -14.0606 61.2592C-14.2401 60.4053 -14.3429 59.5389 -14.3681 58.6689C-14.3583 57.8306 -14.4096 56.9926 -14.5218 56.1608C-14.8178 55.4629 -15.3271 54.8623 -15.986 54.434C-16.6595 54.0091 -17.1939 54.1873 -17.5234 53.5705C-17.8133 52.8485 -17.9932 52.0918 -18.0578 51.3228C-18.1676 50.2881 -18.0578 49.1505 -18.1383 48.0404C-18.2409 46.9186 -18.2409 45.7907 -18.1383 44.6689C-17.7576 43.8328 -17.0622 43.4217 -16.6742 42.613C-16.4106 42.0374 -16.3667 41.3247 -16.0665 40.708C-15.5028 39.5842 -14.2729 38.5425 -13.453 37.4255C-12.5438 36.2868 -11.8049 35.0372 -11.2567 33.7114C-10.9158 33.0319 -10.7075 32.3009 -10.6417 31.5528C-10.7369 30.7236 -12.1059 30.0383 -12.0254 29.0447C-11.9522 28.4348 -11.1762 28.4416 -10.9492 27.8386C-10.8089 27.33 -10.7303 26.8082 -10.715 26.283C-10.715 25.4539 -11.0957 24.5836 -10.9492 23.6927C-10.8175 22.9321 -9.81449 22.6237 -10.3343 21.7945C-10.8541 20.9653 -11.7984 22.24 -12.3256 21.7054C-12.8527 21.1709 -12.2231 20.6227 -12.1791 19.7182C-12.1791 19.355 -12.3622 18.9507 -12.3256 18.6834C-12.2816 18.2928 -11.5935 17.6486 -11.7911 17.3882C-12.2084 16.792 -12.6696 15.2913 -13.5555 14.7911C-14.6829 14.1538 -15.9055 14.5855 -17.4721 14.2771C-18.4385 14.0852 -18.8924 13.071 -19.7782 13.1533C-20.3273 13.2012 -20.6421 13.9071 -21.3961 14.2771C-22.1502 14.6472 -23.1092 14.517 -23.8486 14.7088C-24.588 14.9007 -24.9394 15.4626 -25.6935 15.3941C-26.3304 15.3393 -26.3304 14.7088 -27.0771 14.6129C-27.5171 14.6728 -27.9524 14.7598 -28.3802 14.8733C-29.8857 15.0662 -31.4138 15.0431 -32.9119 14.8048C-33.9707 14.5086 -34.9789 14.0725 -35.9061 13.5096C-36.8212 13.0368 -38.5196 12.4474 -38.4464 11.6936C-38.3952 11.2139 -36.8358 10.7 -36.2502 10.4876C-35.2472 10.1449 -34.6323 9.58986 -33.8636 9.53504C-33.5707 9.53504 -33.1827 9.74062 -32.7874 9.71321C-32.3921 9.6858 -31.9089 9.26778 -31.4111 9.1924C-30.3349 9.02108 -28.8195 9.25408 -28.9513 8.06856C-29.7639 7.34217 -33.0876 8.60307 -33.1754 7.0338C-33.2267 6.08128 -31.9162 5.79346 -30.9791 5.56732C-30.0085 5.27638 -29.0024 5.1014 -27.9849 5.04652C-27.1137 5.09449 -25.957 6.19777 -25.4519 4.95743C-25.2103 4.08028 -25.752 3.3402 -25.9131 2.62751C-25.2615 1.61331 -24.0609 1.73666 -23.1458 1.59275C-22.1268 1.44876 -21.1385 1.15504 -20.2175 0.722458C-19.2949 0.294652 -18.307 0.00338078 -17.2891 -0.140979C-16.2495 -0.291739 -15.2319 -0.730312 -14.2949 -0.82625C-13.5596 -0.838847 -12.826 -0.896073 -12.0986 -0.997568C-11.4358 -1.26207 -10.7354 -1.43519 -10.0195 -1.51152C-9.5363 -1.51152 -9.12634 -1.09351 -8.63584 -0.997568C-8.14534 -0.90163 -7.66216 -0.99757 -7.17166 -0.908484C-6.7983 -0.819399 -6.43958 -0.53844 -6.09549 -0.476766C-5.51714 -0.380828 -4.88755 -0.565851 -4.33116 -0.476766C-3.77477 -0.387681 -3.37212 -0.0313382 -2.86699 0.0440416C-1.68832 0.215359 -0.333961 -0.0313382 0.793453 0.215359C1.2327 0.304444 1.62803 0.55114 2.09657 0.647078C2.56511 0.743016 3.04828 0.647079 3.48021 0.729312C4.09517 0.866366 4.60763 1.51738 5.25186 1.59961C6.43784 1.73666 7.77024 1.01713 9.01479 0.914338C9.94074 0.921629 10.8659 0.862061 11.7821 0.736166C12.5813 0.474971 13.4014 0.273327 14.2346 0.133125C14.6592 0.133125 15.0033 0.277035 15.3913 0.222213C15.7793 0.167392 16.2625 -0.373974 16.6944 -0.298594C17.2654 -0.195804 17.1629 0.619668 17.7706 0.82525C18.4368 0.434645 19.1103 0.82525 19.8424 0.82525C20.5745 0.82525 21.204 0.427794 21.9947 0.564848C23.393 0.811546 25.3477 2.3534 26.4458 1.51737C26.724 1.30494 26.6581 0.941747 26.907 0.393531C27.2511 -0.346561 27.9173 -1.22371 27.7562 -2.28588C26.2188 -2.28588 24.7473 -1.40873 22.9903 -1.33335C21.2187 -2.58055 23.4662 -3.3549 24.762 -3.92368C25.8235 -4.39651 26.6727 -5.43812 27.9905 -5.65055C29.0593 -5.82873 30.2453 -5.3833 31.5192 -5.21884C32.1596 -5.22276 32.7998 -5.19531 33.4372 -5.1366C34.1693 -4.88305 34.5793 -4.04017 35.2089 -3.84144C35.4798 -3.75236 35.941 -3.75921 36.285 -3.66327C36.9732 -3.4851 37.5882 -3.07394 38.2763 -3.66327C38.8181 -3.55363 38.884 -2.90948 39.433 -2.79983C39.9382 -3.1082 40.3335 -3.89626 41.1241 -4.09499C41.4609 -4.18408 41.8196 -4.03332 42.193 -4.09499C42.8226 -4.21149 43.6572 -5.16401 44.0378 -4.27316C43.8841 -3.64957 43.0422 -3.58789 42.5737 -3.06023C42.0534 -2.5305 41.7076 -1.87134 41.578 -1.16204C41.6659 -0.339712 42.764 -0.654933 42.8006 0.393531C42.6396 0.996569 42.0173 0.729311 41.4975 0.996567C40.9777 1.26382 40.846 1.75722 40.3481 1.86001C38.9498 2.16153 37.7932 1.46941 36.5852 1.51737C36.5266 2.10671 37.1782 2.44934 37.5003 2.64122C38.5984 3.28537 39.4916 3.19629 41.0363 3.16202C41.827 3.16202 42.7347 3.42242 43.4156 2.90162C43.8475 2.56584 43.8256 1.83945 44.1843 1.42829C44.4415 1.15169 44.7602 0.931077 45.1181 0.781923C45.476 0.63277 45.8644 0.55868 46.2561 0.564848C46.4655 0.627403 46.654 0.739906 46.8028 0.891297C46.9517 1.04269 47.056 1.22776 47.1053 1.42829C47.1053 2.21635 46.117 1.9628 46.1097 2.79883C46.7539 3.2374 48.4743 2.31914 48.5622 1.59275C48.628 1.05824 48.0058 0.749872 48.0277 0.222213C48.0277 -0.682343 49.1552 -0.66864 49.0234 -1.59375C48.4963 -2.05974 47.9472 -1.49096 47.4128 -1.59375C46.6807 -1.73766 45.9486 -2.75186 45.6411 -3.40972C45.9779 -3.87571 46.6734 -3.56048 47.1785 -3.49195C47.7422 -4.3691 48.7964 -4.71174 50.2533 -4.8625C50.7731 -4.91732 51.4612 -5.15031 51.7175 -4.60209C51.8419 -3.78662 50.6413 -3.29323 50.8756 -2.35441C51.9078 -2.06659 52.2519 -3.63586 53.0718 -4.25946C53.5312 -4.53805 54.0223 -4.76789 54.536 -4.94473C55.0045 -5.15031 55.5316 -5.63 55.9196 -5.63C56.3076 -5.63 56.4175 -5.22569 56.8347 -5.02696C57.252 -4.82823 57.7132 -5.15031 57.8377 -4.59524C56.9446 -2.86151 53.6282 -3.862 52.7643 -2.094C52.9547 -0.908486 52.2445 0.222211 52.8449 1.01712C53.2695 1.5859 54.2358 1.20215 54.4555 1.79833C54.7556 2.59325 53.5257 2.59325 53.8405 3.52522C54.6531 4.07343 55.6268 3.00441 56.3735 2.57269C57.1203 2.14097 58.2038 1.5722 58.2989 0.51688C57.889 -0.360266 56.3809 0.318151 56.1466 -0.606964C56.1728 -1.25313 56.3853 -1.88062 56.7615 -2.42293C57.5595 -3.43028 60.3561 -4.86935 62.3693 -4.67062C62.75 -4.6295 63.138 -4.3691 63.5187 -4.32113C64.8438 -4.17037 66.4031 -4.96529 67.4354 -4.32113C68.27 -4.86935 69.2729 -4.24575 70.4296 -4.41022C71.3301 -3.81403 71.0812 -2.55313 72.4282 -1.99121C72.7943 -1.84045 73.2555 -1.9501 73.7386 -1.8199C74.09 -1.72396 74.4707 -1.25112 74.888 -1.03869C75.4737 -0.744021 75.9129 -0.812548 76.0374 -0.353417C76.1618 0.105714 75.6201 0.386677 75.6567 0.852661C75.9862 1.16103 75.7079 1.62702 75.891 2.06559C76.2204 2.86051 77.055 2.80568 77.8822 3.18944C78.4679 3.45669 79.7052 4.27901 79.6539 4.91632C79.6173 5.34118 78.4826 6.09498 78.1165 6.28686C77.7505 6.47873 76.6743 7.12974 76.2424 7.06121C75.5103 6.93786 75.2321 5.28636 74.2438 5.33433C74.1207 5.34095 74.0004 5.37116 73.8903 5.42309C73.7802 5.47502 73.6826 5.54756 73.6037 5.63622C73.5248 5.72488 73.4661 5.82777 73.4314 5.93851C73.3967 6.04925 73.3866 6.16548 73.4019 6.28C73.4019 7.41755 74.5293 7.45867 74.5513 8.44546C74.5513 9.61727 73.9802 9.6995 73.0871 10.4259C72.4902 10.0513 71.8214 9.78834 71.1178 9.65154C70.6273 10.3368 71.9231 10.5424 71.4984 11.3784C70.2685 11.6731 69.3022 10.9878 68.1967 10.6041C67.8453 10.4807 67.3402 10.5287 67.0474 10.3437C66.6081 10.0627 66.4837 9.21981 66.1249 8.78809C65.7662 8.35637 64.8804 7.57516 64.2069 7.58202C63.2551 7.58202 61.8788 8.90459 61.1321 7.66425C61.6519 5.68382 64.1117 7.15715 65.7369 6.45817C66.3446 6.19777 66.5495 5.47824 67.0474 5.15616C68.043 4.51886 69.6536 4.47089 69.5072 3.17573C69.4266 2.53843 68.6433 2.54528 68.1967 2.2232C67.5964 1.77778 67.1352 0.222212 66.2787 0.16739C65.8394 0.16739 65.5466 0.55114 65.0488 0.599109C64.0531 0.708752 62.9477 0.153683 62.0545 0.599109C61.6372 0.866364 61.9154 1.28438 61.5933 1.81204C61.2712 2.3397 60.6928 2.34655 60.4439 2.75771C60.195 3.16887 60.2097 3.85415 59.829 4.23104C59.1921 4.85464 57.8597 4.95743 57.0617 5.2658C56.703 5.40286 56.2564 5.87569 55.9123 5.86884C55.2754 5.86884 55.0045 4.90946 54.2944 5.2658C54.2358 6.19092 55.1656 6.56782 55.7586 6.99268C56.469 7.38458 57.0123 7.99485 57.296 8.71957C56.6737 10.2135 55.678 8.64419 54.6897 8.63733C53.7014 8.63048 52.003 10.9673 51.0805 9.06905C51.3075 8.0617 52.2958 7.9041 52.5447 6.91045C51.4612 7.11604 50.5168 8.14394 49.243 8.46602C48.7012 8.59622 48.1815 8.56196 47.7056 8.71957C46.7832 9.02109 46.1389 9.78859 45.1726 10.1929C44.7919 10.3505 44.338 10.3025 43.9427 10.4464C42.8964 10.8791 41.8942 11.3998 40.9484 12.002C39.9902 12.5249 39.088 13.1331 38.2544 13.818C37.7358 14.3386 37.3437 14.9581 37.105 15.6339C37.1416 16.1479 38.0055 16.3192 38.0274 16.84C38.0274 17.1621 37.5296 17.8474 37.8737 18.3134C38.2178 18.7793 38.8181 18.3887 39.4843 18.4847C40.6556 18.6491 41.4243 19.7387 42.3248 20.3006C43.0635 20.7767 43.8901 21.1206 44.7626 21.3148C45.8168 21.4656 47.0028 20.9653 47.1419 21.9179C47.281 22.8704 46.1536 23.1582 46.0731 23.7338C46.6368 24.5767 45.685 24.981 45.685 25.7211C45.685 26.3173 46.3439 27.2219 46.915 27.2767C47.691 27.3452 48.8184 26.4132 49.1112 25.543C49.4992 24.5082 49.3308 23.1034 50.0336 22.3496C53.6136 22.4592 56.6224 20.5199 56.4101 16.3877C56.3102 15.9368 56.2587 15.4777 56.2564 15.0172C56.3662 14.3319 57.3911 13.7837 57.252 12.9614C58.255 12.6119 58.2111 10.8096 59.2506 10.5424C60.1218 10.3231 61.1028 11.2277 62.2449 11.1454C62.6182 11.1454 63.1014 10.7411 63.4748 10.8028C64.2069 10.9193 64.6827 11.9609 65.2464 12.4406C65.8101 12.9203 66.2713 12.7352 66.3958 13.304C66.2494 14.2771 65.6637 14.2977 65.7003 15.2091C65.7334 15.5286 65.8585 15.8337 66.0622 16.0919C66.2659 16.3502 66.5406 16.5519 66.857 16.6756C67.5384 16.699 68.2102 16.519 68.7751 16.1616C69.8073 15.6134 70.6858 13.9619 71.5424 14.1675C72.2159 14.3388 72.7503 16.7578 72.8455 17.5938C72.9407 18.4298 72.7357 19.2385 72.7723 20.0951C72.8675 21.5547 74.5 21.4108 75.3053 22.1509C75.5469 22.3839 75.6421 22.9732 75.847 23.2747C76.2351 23.8572 76.7036 23.8572 76.7622 24.4808C76.9086 25.9747 75.5615 26.098 75.686 27.7632C75.4151 28.4485 74.7123 28.3731 74.7709 29.2366C74.8587 30.6071 76.6011 29.5518 77.0696 30.6071C77.3259 31.1827 77.033 31.6076 76.8427 32.4231C77.4357 33.2248 77.4357 34.4789 76.3815 34.4789C75.7519 34.5337 75.5762 33.7593 74.9246 33.5812ZM-8.10142 31.3335C-7.74269 30.9155 -8.25515 30.0315 -8.7969 30.3878C-8.84814 30.703 -8.67977 31.4637 -8.10142 31.3335ZM45.4947 39.1935C45.1726 38.8441 44.133 38.9468 43.4229 39.0222C42.9178 39.0839 42.3248 39.2004 42.2662 39.6253C43.0788 40.0433 45.2604 40.3379 45.4947 39.1935ZM41.4975 37.7271C41.6286 37.5986 41.7264 37.4437 41.7834 37.2743C41.8403 37.1048 41.8548 36.9254 41.8258 36.7498C41.7968 36.5743 41.725 36.4073 41.616 36.2619C41.5071 36.1164 41.3638 35.9964 41.1974 35.9111C40.9411 35.8357 40.6044 36.1235 40.1944 36.0893C39.7844 36.055 39.3232 35.6027 38.9645 35.5685C38.6862 35.5481 38.4069 35.5925 38.1514 35.6977C37.8959 35.8029 37.6722 35.9657 37.5003 36.1715C37.5003 36.6923 37.8371 36.7745 37.8078 37.2953C37.0757 37.8984 37.4564 39.9062 38.1885 39.9748C38.9206 40.0433 39.3745 37.7545 40.3847 37.5557C40.8167 37.4804 41.0143 37.7956 41.5122 37.7271H41.4975ZM40.4287 41.1534C39.3305 40.7217 38.3276 41.4549 37.4344 41.5851C36.9 41.6674 35.9263 41.4686 36.0508 42.3663C36.146 43.0996 37.1562 42.8323 37.7346 42.6268C38.7427 42.3427 39.6688 41.8483 40.4433 41.1808L40.4287 41.1534ZM37.0464 34.5885C38.5765 33.8553 36.7463 31.6007 36.0508 31.3952C34.8062 31.0251 33.0346 32.4231 31.5924 32.8616C30.7797 33.1083 30.0111 33.1358 29.828 33.9033C30.5601 35.2738 31.9877 33.6017 33.0492 33.8142C33.591 33.917 33.9058 34.7461 34.4329 34.8489C35.3149 34.8511 36.1951 34.7731 37.0611 34.6159L37.0464 34.5885ZM35.9703 35.9591C35.6555 35.5411 33.9277 36.007 33.4372 36.3908C33.0827 36.8183 32.7737 37.2774 32.5148 37.7613C32.1488 38.2547 31.7827 38.6316 31.4386 39.0565C31.0946 39.4814 29.6084 41.962 30.8237 42.2499C31.3435 42.3732 32.4123 41.1603 32.5148 40.6943C32.708 39.345 33.4502 38.1175 34.5866 37.2679C35.2455 36.8636 35.8824 36.9184 35.9776 36.0002L35.9703 35.9591ZM26.3653 26.283C27.2291 26.283 27.8294 23.3981 26.3653 23.775C25.4209 24.0696 25.1866 26.3721 26.3799 26.3242L26.3653 26.283ZM22.2217 91.0754C22.2583 90.9452 22.3315 90.8561 22.3754 90.7327C22.1558 89.9104 21.4237 91.0822 22.2363 91.1165L22.2217 91.0754ZM-10.2537 18.8067C-10.2537 18.6491 -10.3416 18.6149 -10.3343 18.4641C-10.5685 18.4641 -10.8394 18.4161 -10.7955 18.7245C-10.7516 19.0329 -10.3855 19.0123 -10.2537 18.8067ZM70.4735 5.24525C70.8542 5.30007 71.0665 5.16301 71.0153 4.73129C70.6712 4.45719 70.1734 4.81353 70.4735 5.24525ZM61.6446 -3.21785C61.6139 -3.24685 61.5774 -3.26988 61.5372 -3.2856C61.497 -3.30131 61.4539 -3.30941 61.4103 -3.30941C61.3667 -3.30941 61.3236 -3.30131 61.2834 -3.2856C61.2431 -3.26988 61.2067 -3.24685 61.176 -3.21785V-2.87521C61.5055 -2.79298 61.6006 -3.01226 61.6446 -3.21785ZM32.4562 3.42928C32.7125 3.24426 33.1005 2.99756 32.9101 2.56584C32.0682 2.12041 30.6333 2.46305 29.3815 2.30544C28.6494 1.18159 27.4854 1.00342 27.3829 2.82624C28.8104 4.13511 30.9774 2.21635 32.4562 3.42928ZM18.7003 12.3378C19.1396 12.1665 19.7472 12.2556 19.857 11.7279C19.4983 11.4058 19.1249 10.9741 18.7003 10.9535C18.1439 10.9535 17.8804 11.4881 17.3167 11.817C16.753 12.1459 15.772 12.2967 15.7061 12.9408C16.8994 13.1944 17.9682 12.6119 18.7003 12.3309V12.3378ZM18.3196 6.11554C18.8101 6.0196 19.3153 6.27315 19.6227 5.7729C19.2567 3.86785 16.9213 5.03281 15.5523 5.16301C15.1928 5.69213 14.9444 6.28054 14.8202 6.89675C15.8452 7.19141 17.1263 6.33482 18.3196 6.10868V6.11554ZM41.3657 94.4058C41.966 94.2962 41.7903 92.7269 41.0583 93.1106C40.5019 93.3916 40.7874 94.5017 41.3657 94.3989V94.4058Z" fill="#FE4D3C" fill-opacity="0.1"/>
<path d="M389.994 111.213C389.953 110.647 389.726 110.105 389.342 109.665C388.991 109.217 388.496 108.886 387.929 108.719C387.627 108.639 387.31 108.617 386.998 108.653C386.687 108.69 386.386 108.784 386.114 108.932C385.79 109.112 385.519 109.364 385.323 109.665C385.177 109.378 384.961 109.127 384.693 108.932C384.446 108.751 384.162 108.618 383.859 108.542C383.556 108.465 383.24 108.446 382.929 108.486C382.343 108.584 381.803 108.85 381.384 109.247C380.947 109.639 380.646 110.145 380.521 110.7C380.382 111.411 380.487 112.145 380.821 112.796C381.221 113.46 381.783 114.026 382.461 114.448C383.559 115.133 385.008 116.065 385.008 116.065C385.008 116.065 386.348 115.25 387.541 114.695C388.273 114.364 388.91 113.876 389.401 113.269C389.831 112.662 390.039 111.941 389.994 111.213Z" fill="#EBEBEB"/>
</svg>
