<svg width="151" height="121" viewBox="0 0 151 121" fill="none" xmlns="http://www.w3.org/2000/svg">
<g opacity="0.3">
<path d="M89.1406 48.2978L35.8895 58.202C33.9563 58.5616 33.1835 59.4281 34.1635 60.1374L88.8908 99.7529C89.8707 100.462 92.2323 100.746 94.1655 100.386L147.417 90.4821C149.35 90.1225 150.123 89.256 149.143 88.5467L94.4153 48.9312C93.4354 48.2218 91.0738 47.9383 89.1406 48.2978Z" fill="#EBEBEB"/>
<path d="M62.0252 64.8326C64.2863 64.2747 64.8867 63.1498 63.3661 62.3202C61.8456 61.4905 58.78 61.2702 56.5189 61.8282C54.2578 62.3861 53.6574 63.5109 55.178 64.3406C56.6985 65.1702 59.7641 65.3905 62.0252 64.8326Z" fill="#FAFAFA"/>
<path d="M87.0888 60.4119C89.6501 60.0619 90.9534 59.0164 89.9997 58.0766C89.046 57.1367 86.1965 56.6586 83.6352 57.0085C81.0739 57.3584 79.7707 58.404 80.7244 59.3438C81.678 60.2836 84.5275 60.7618 87.0888 60.4119Z" fill="#FAFAFA"/>
<path d="M75.754 71.2506C76.1948 71.57 76.3677 71.9301 76.2508 72.2854C76.134 72.6408 75.7326 72.9755 75.0975 73.2472C74.4624 73.5189 73.622 73.7154 72.6826 73.8119C71.7432 73.9084 70.7469 73.9005 69.8196 73.7893C68.8924 73.678 68.0758 73.4685 67.4731 73.187C66.8704 72.9055 66.5087 72.5648 66.4336 72.208C66.3585 71.8511 66.5734 71.494 67.0512 71.182C67.529 70.8699 68.2482 70.6168 69.118 70.4547C70.2858 70.2378 71.6405 70.1998 72.8847 70.349C74.1288 70.4983 75.1608 70.8225 75.754 71.2506Z" fill="#FAFAFA"/>
<path d="M101.897 67.3651C101.99 66.3658 99.8568 65.5284 97.1336 65.4945C94.4103 65.4607 92.1279 66.2433 92.0357 67.2425C91.9434 68.2417 94.0763 69.0792 96.7995 69.113C99.5228 69.1469 101.805 68.3643 101.897 67.3651Z" fill="#FAFAFA"/>
<path d="M87.8209 79.9894C88.2667 80.308 88.4448 80.668 88.3329 81.0238C88.2209 81.3796 87.8239 81.7152 87.1919 81.9882C86.56 82.2611 85.7216 82.4592 84.7828 82.5573C83.844 82.6553 82.847 82.649 81.918 82.5392C80.989 82.4293 80.1697 82.2207 79.5638 81.9399C78.9578 81.6592 78.5925 81.3187 78.514 80.9617C78.4355 80.6047 78.6474 80.2472 79.1228 79.9344C79.5983 79.6216 80.3159 79.3676 81.1849 79.2045C82.3487 78.986 83.7012 78.946 84.9455 79.0932C86.1897 79.2403 87.2239 79.5627 87.8209 79.9894Z" fill="#FAFAFA"/>
<path d="M113.438 75.2246C113.88 75.5439 114.054 75.9042 113.937 76.2597C113.821 76.6153 113.419 76.9501 112.784 77.222C112.149 77.4938 111.308 77.6905 110.368 77.787C109.428 77.8835 108.432 77.8755 107.504 77.7642C106.577 77.6528 105.76 77.4429 105.157 77.1612C104.555 76.8795 104.194 76.5386 104.119 76.1815C104.045 75.8244 104.261 75.4673 104.74 75.1553C105.219 74.8433 105.939 74.5904 106.81 74.4286C107.977 74.2119 109.33 74.1739 110.573 74.3232C111.816 74.4724 112.847 74.7967 113.438 75.2246Z" fill="#FAFAFA"/>
<path d="M99.8952 88.7289C100.335 89.0484 100.506 89.4086 100.388 89.7638C100.27 90.1191 99.8678 90.4535 99.2319 90.7249C98.596 90.9963 97.7551 91.1924 96.8155 91.2885C95.876 91.3846 94.8798 91.3764 93.953 91.2648C93.0262 91.1533 92.2103 90.9434 91.6085 90.6618C91.0066 90.3801 90.6457 90.0394 90.5714 89.6825C90.4972 89.3256 90.7129 88.9687 91.1913 88.6568C91.6697 88.3449 92.3893 88.092 93.2592 87.9302C93.8377 87.8225 94.4684 87.7577 95.1153 87.7396C95.7621 87.7215 96.4123 87.7504 97.0286 87.8246C97.645 87.8987 98.2155 88.0168 98.7074 88.172C99.1992 88.3272 99.6029 88.5164 99.8952 88.7289Z" fill="#FAFAFA"/>
<path d="M125.513 83.964C125.954 84.2833 126.126 84.6435 126.01 84.9988C125.893 85.3542 125.491 85.6889 124.856 85.9606C124.221 86.2323 123.381 86.4288 122.441 86.5253C121.502 86.6218 120.506 86.6139 119.578 86.5027C118.651 86.3915 117.835 86.1819 117.232 85.9004C116.629 85.6189 116.267 85.2782 116.192 84.9214C116.117 84.5645 116.332 84.2074 116.81 83.8954C117.288 83.5833 118.007 83.3302 118.877 83.1681C120.045 82.9512 121.399 82.9132 122.643 83.0624C123.888 83.2116 124.92 83.5359 125.513 83.964Z" fill="#FAFAFA"/>
<path d="M60.6893 61.6851C60.3716 62.2427 59.9307 62.7899 59.3711 63.3212C58.9299 63.8668 58.3681 64.3983 57.6914 64.9104C58.001 64.3524 58.4394 63.805 59.002 63.2742C59.4398 62.7278 60.0042 62.1961 60.6893 61.6851Z" fill="#E0E0E0"/>
<path d="M85.742 56.9395C85.4347 57.4977 84.9962 58.0451 84.4314 58.5756C83.9928 59.1228 83.4283 59.6554 82.7441 60.1675C83.0564 59.6094 83.4974 59.0621 84.0623 58.5314C84.5045 57.985 85.0662 57.4526 85.742 56.9395Z" fill="#E0E0E0"/>
<path d="M73.0048 70.4102C72.7808 70.9875 72.4255 71.557 71.9428 72.1127C71.5876 72.6792 71.1038 73.2339 70.4966 73.7709C70.7311 73.1951 71.0965 72.6275 71.5888 72.074C71.937 71.5062 72.4106 70.9497 73.0048 70.4102Z" fill="#E0E0E0"/>
<path d="M98.2908 65.6426C98.1391 66.2034 97.8543 66.7582 97.4397 67.3009C97.1581 67.8509 96.7473 68.3909 96.2119 68.9149C96.3624 68.3543 96.6447 67.7994 97.0555 67.2566C97.3441 66.7069 97.7573 66.167 98.2908 65.6426Z" fill="#E0E0E0"/>
<path d="M84.2581 79.1523C84.0628 79.6816 83.7376 80.2033 83.2865 80.7111C82.9581 81.2325 82.5044 81.7421 81.9307 82.234C82.1265 81.7045 82.4543 81.1827 82.9099 80.6752C83.2338 80.1538 83.685 79.6441 84.2581 79.1523Z" fill="#E0E0E0"/>
<path d="M110.591 74.5063C110.284 75.0367 109.845 75.5557 109.281 76.0568C108.839 76.5747 108.277 77.0777 107.601 77.5604C107.909 77.03 108.348 76.511 108.912 76.0099C109.355 75.4923 109.917 74.9893 110.591 74.5063Z" fill="#E0E0E0"/>
<path d="M97.1162 87.9824C96.7627 88.5338 96.2865 89.0737 95.6925 89.5965C95.2093 90.1346 94.6046 90.6569 93.8848 91.1581C94.2372 90.6068 94.7186 90.0677 95.3235 89.5467C95.7952 89.0071 96.395 88.4836 97.1162 87.9824Z" fill="#E0E0E0"/>
<path d="M122.553 82.9277C122.338 83.5394 121.99 84.1438 121.513 84.7353C121.168 85.3385 120.695 85.9308 120.097 86.5069C120.317 85.8955 120.664 85.2912 121.137 84.6993C121.482 84.0961 121.955 83.5038 122.553 82.9277Z" fill="#E0E0E0"/>
<path d="M134.725 88.5021C134.77 88.5381 126.937 90.0305 117.228 91.8353C107.518 93.64 99.6018 95.0772 99.5491 95.044C99.4964 95.0109 107.338 93.5156 117.047 91.7081C126.756 89.9006 134.673 88.4662 134.725 88.5021Z" fill="#E0E0E0"/>
<path d="M83.8893 53.5013C83.9345 53.5372 76.1009 55.0296 66.3916 56.8372C56.6824 58.6447 48.7659 60.0791 48.7132 60.0432C48.6604 60.0073 56.5242 58.501 66.2108 56.6935C75.8975 54.8859 83.8366 53.4515 83.8893 53.5013Z" fill="#E0E0E0"/>
<path d="M67.5362 58.574C67.4915 58.5776 67.4453 58.5776 67.4006 58.574C67.4006 58.574 67.3554 58.574 67.3403 58.574L67.6868 58.5068C67.6868 58.5292 67.6868 58.5628 67.5663 58.5824C67.4458 58.602 67.3705 58.5964 67.3403 58.5824L67.6868 58.5152C67.6893 58.5217 67.6893 58.5283 67.6868 58.5348C67.6492 58.5535 67.5964 58.5673 67.5362 58.574Z" fill="#E0E0E0"/>
<path d="M115.909 91.9182C115.812 91.9376 104.814 84.0441 91.3464 74.2962C77.8785 64.5483 67.0395 56.6245 67.1374 56.6079C67.2353 56.5914 78.225 64.4737 91.7004 74.2299C105.176 83.9861 116.03 91.8989 115.909 91.9182Z" fill="#E0E0E0"/>
<path d="M42.8981 97.5811C42.8077 103.772 42.7474 113.769 42.7173 118.362C42.7133 119.013 43.4131 119.637 44.6631 120.098C45.913 120.559 47.6108 120.82 49.3834 120.822L95.474 120.899C97.2494 120.902 98.9546 120.645 100.216 120.187C101.477 119.728 102.19 119.105 102.2 118.453L102.457 97.8547C102.473 96.408 100.923 95.0181 98.1473 93.9904C95.372 92.9628 91.5983 92.3814 87.6554 92.3741V89.3339L57.4732 89.2842V92.1475H57.3602C53.4975 92.1856 49.827 92.7742 47.1271 93.7886C44.4273 94.8029 42.9104 96.1633 42.8981 97.5811Z" fill="#F5F5F5"/>
<path d="M57.5104 89.6797L57.4878 91.0588L87.6625 91.501L87.6926 89.7294L57.5104 89.6797Z" fill="#E0E0E0"/>
<path d="M56.3581 85.0653L89.0859 85.1198C89.6852 85.1208 90.2589 85.2091 90.6808 85.3653C91.1026 85.5215 91.3381 85.7328 91.3353 85.9527L91.2841 90.0983C91.2823 90.2398 91.1275 90.3752 90.8536 90.4748C90.5798 90.5744 90.2093 90.6299 89.8237 90.6293L55.4916 90.5721C55.106 90.5715 54.7369 90.5147 54.4656 90.4142C54.1942 90.3137 54.0427 90.1778 54.0444 90.0363L54.0957 85.8907C54.0984 85.6708 54.3391 85.4603 54.7648 85.3055C55.1905 85.1507 55.7663 85.0643 56.3656 85.0653L56.3581 85.0653Z" fill="#F5F5F5"/>
<path d="M58.7835 90.5891C58.5651 90.5891 58.3994 89.3619 58.422 87.8529C58.4446 86.3438 58.6329 85.1167 58.8513 85.1167C59.0698 85.1167 59.2355 86.3411 59.2129 87.8529C59.1903 89.3647 59.017 90.5891 58.7835 90.5891Z" fill="#E0E0E0"/>
<path d="M62.7757 90.5943C62.5573 90.5943 62.3916 89.37 62.4142 87.8582C62.4368 86.3464 62.6251 85.1221 62.8435 85.1221C63.062 85.1221 63.2277 86.3492 63.2051 87.861C63.1825 89.3727 62.9942 90.5943 62.7757 90.5943Z" fill="#E0E0E0"/>
<path d="M66.7528 90.6027C66.5343 90.6027 66.3686 89.3755 66.3912 87.8665C66.4138 86.3575 66.6021 85.1304 66.8206 85.1304C67.039 85.1304 67.2047 86.3547 67.1821 87.8665C67.1595 89.3783 66.9712 90.6027 66.7528 90.6027Z" fill="#E0E0E0"/>
<path d="M70.7303 90.6081C70.5119 90.6081 70.3462 89.3837 70.3688 87.8719C70.3914 86.3601 70.5797 85.1357 70.7981 85.1357C71.0165 85.1357 71.1823 86.3629 71.1597 87.8719C71.1371 89.3809 70.9488 90.6081 70.7303 90.6081Z" fill="#E0E0E0"/>
<path d="M74.7069 90.6163C74.4884 90.6163 74.3227 89.3892 74.3453 87.8774C74.3679 86.3656 74.5562 85.1413 74.7747 85.144C74.9931 85.1468 75.1588 86.3684 75.1362 87.8802C75.1136 89.392 74.9253 90.6163 74.7069 90.6163Z" fill="#E0E0E0"/>
<path d="M78.6844 90.6222C78.466 90.6222 78.3003 89.3951 78.3229 87.8861C78.3455 86.377 78.5338 85.1499 78.7522 85.1499C78.9707 85.1499 79.1364 86.3743 79.1138 87.8861C79.0912 89.3979 78.9029 90.6222 78.6844 90.6222Z" fill="#E0E0E0"/>
<path d="M82.6615 90.6277C82.443 90.6277 82.2773 89.4033 82.2999 87.8915C82.3225 86.3796 82.5108 85.1553 82.7293 85.1553C82.9477 85.1553 83.1134 86.3824 83.0908 87.8942C83.0682 89.406 82.8874 90.6304 82.6615 90.6277Z" fill="#E0E0E0"/>
<path d="M86.6532 90.6359C86.4347 90.6359 86.269 89.4088 86.2916 87.8997C86.3142 86.3907 86.5025 85.1636 86.721 85.1636C86.9394 85.1636 87.1051 86.3879 87.0825 87.8997C87.0599 89.4116 86.8565 90.6359 86.6532 90.6359Z" fill="#E0E0E0"/>
<path d="M93.4284 100.646L52.4151 100.578C51.7994 100.577 51.298 100.759 51.2952 100.985L51.1756 110.661C51.1728 110.887 51.6696 111.071 52.2853 111.072L93.2986 111.14C93.9143 111.141 94.4156 110.959 94.4184 110.733L94.5381 101.057C94.5409 100.831 94.0441 100.647 93.4284 100.646Z" fill="#EBEBEB"/>
<path d="M91.5194 110.419C91.5048 110.361 91.5048 110.303 91.5194 110.245C91.5194 110.115 91.5194 109.952 91.5194 109.756C91.5194 109.305 91.5194 108.689 91.4667 107.915C91.4667 106.312 91.414 104.046 91.3838 101.31L91.6927 101.426L53.7973 101.393L54.189 101.249V102.451C54.189 102.852 54.189 103.247 54.189 103.642C54.189 104.43 54.189 105.207 54.1513 105.969C54.1513 107.492 54.0986 108.96 54.076 110.356L53.7144 110.22L80.9063 110.331L88.7475 110.38L90.8566 110.4L91.6098 110.416C91.3857 110.43 91.1588 110.435 90.9319 110.433H88.8981L81.1398 110.458L53.6994 110.477H53.3378V110.342C53.3378 108.96 53.3378 107.481 53.3378 105.956C53.3378 105.193 53.3378 104.419 53.3378 103.629C53.3378 103.236 53.3378 102.838 53.3378 102.437V101.235C52.9838 101.365 53.8199 101.058 53.737 101.091L91.6399 101.183H91.9262V101.315C91.8282 104.079 91.7378 106.373 91.6776 107.993C91.6776 108.755 91.6023 109.374 91.5797 109.808C91.5797 109.996 91.5797 110.148 91.5345 110.275C91.5435 110.323 91.5385 110.372 91.5194 110.419Z" fill="#E0E0E0"/>
<path d="M85.727 104.247C85.727 104.33 79.9572 104.386 72.8467 104.372C65.7361 104.358 59.9663 104.286 59.9663 104.206C59.9663 104.126 65.7361 104.07 72.8542 104.081C79.9723 104.093 85.727 104.167 85.727 104.247Z" fill="#E0E0E0"/>
<path d="M85.7043 105.856C85.7043 105.936 79.9421 105.991 72.824 105.98C65.7059 105.969 59.9512 105.892 59.9512 105.812C59.9512 105.732 65.7134 105.676 72.8315 105.687C79.9496 105.698 85.7119 105.776 85.7043 105.856Z" fill="#E0E0E0"/>
<path d="M85.6894 107.395C85.6894 107.475 79.9196 107.531 72.8091 107.52C65.6985 107.509 59.9287 107.434 59.9287 107.354C59.9287 107.274 65.6985 107.218 72.8091 107.229C79.9196 107.24 85.6894 107.318 85.6894 107.395Z" fill="#E0E0E0"/>
<path d="M85.9003 92.2776C85.9003 92.3578 79.6108 92.4103 71.8449 92.3993C64.0791 92.3882 57.7896 92.3108 57.7896 92.2307C57.7896 92.1505 64.0866 92.0952 71.8525 92.1091C79.6183 92.1229 85.9003 92.1947 85.9003 92.2776Z" fill="#E0E0E0"/>
<path d="M45.2256 117.174C45.1049 116.851 45.0595 116.524 45.09 116.198C45.09 115.521 45.0448 114.626 45.0146 113.539C45.0146 111.295 45.0146 108.194 45.0824 104.77C45.1276 103.059 45.1728 101.431 45.2105 99.9415C45.2482 98.4519 45.6549 97.081 47.0032 96.0363C47.9871 95.2008 49.6702 94.5019 51.8088 94.0408C52.3943 93.9219 53.0164 93.8292 53.6618 93.7644C53.8871 93.7407 54.1204 93.7286 54.3548 93.7285C53.5451 93.8402 52.7595 93.9742 52.0047 94.1293C49.9802 94.6079 48.4032 95.3023 47.4853 96.1192C46.2876 97.1308 45.9788 98.4684 45.9788 99.9332C45.9788 101.398 45.9336 103.051 45.911 104.762C45.8432 108.186 45.7302 111.287 45.6172 113.528C45.5419 114.615 45.4817 115.513 45.4365 116.187C45.4351 116.518 45.3646 116.847 45.2256 117.174Z" fill="white"/>
<path d="M100.076 120.109C99.3677 120.051 98.6745 119.971 98.0049 119.868C97.3571 119.78 96.5587 119.675 95.6096 119.573C94.6605 119.47 93.606 119.33 92.4008 119.222C89.6044 118.938 86.7648 118.714 83.8967 118.553C80.3812 118.366 76.8358 118.264 73.2836 118.249C69.7305 118.253 66.1821 118.345 62.663 118.525C59.7892 118.677 56.9421 118.89 54.1364 119.164C52.9312 119.269 51.8766 119.401 50.92 119.504C49.9634 119.606 49.1725 119.705 48.5172 119.794C47.848 119.895 47.1545 119.973 46.4458 120.026C47.0671 119.89 47.723 119.776 48.4042 119.686C49.0445 119.584 49.8354 119.465 50.7769 119.352C51.7185 119.238 52.773 119.075 53.9857 118.965C56.7947 118.662 59.6559 118.428 62.55 118.265C66.101 118.071 69.6859 117.973 73.2761 117.97C76.8686 117.983 80.4536 118.093 84.0022 118.299C86.8927 118.475 89.7486 118.72 92.5514 119.034C93.7566 119.155 94.8111 119.31 95.7452 119.429C96.6792 119.548 97.4776 119.669 98.1103 119.774C98.7939 119.862 99.4524 119.974 100.076 120.109Z" fill="white"/>
<path d="M40.5445 4.31473C39.6934 2.48786 35.2342 0.846166 30.1951 0.92908C28.7046 0.977104 27.2559 1.13502 25.9357 1.39337C24.6155 1.65171 23.4511 2.00518 22.5121 2.43259C21.8251 2.71492 21.1981 3.01613 20.6365 3.33358C20.1639 2.99661 19.6226 2.67325 19.017 2.36625C18.2108 1.90406 17.1565 1.50693 15.9186 1.19903C14.6806 0.891131 13.2848 0.678918 11.8161 0.575314C6.82212 0.298934 1.92608 1.75546 0.517526 3.53811C-0.891027 5.32076 0.728432 7.27199 3.53047 8.80867C6.33251 10.3453 11.1306 12.338 19.5819 13.2307C25.284 12.8632 32.7335 10.8649 35.9799 9.4471C39.2264 8.02927 41.3957 6.13608 40.5445 4.31473Z" fill="#EBEBEB"/>
</g>
</svg>
