<svg width="652" height="467" viewBox="0 0 652 467" fill="none" xmlns="http://www.w3.org/2000/svg">
<path d="M540.876 209.563H412.484C410.971 209.562 409.473 209.862 408.074 210.447C406.676 211.032 405.405 211.89 404.334 212.972C403.264 214.054 402.414 215.339 401.835 216.754C401.255 218.168 400.957 219.685 400.957 221.216L385.309 322.128H536.73L552.378 221.216C552.378 218.128 551.166 215.166 549.01 212.981C546.853 210.796 543.928 209.567 540.876 209.563Z" fill="#35BA83"/>
<path opacity="0.4" d="M540.876 209.563H412.484C410.971 209.562 409.473 209.862 408.074 210.447C406.676 211.032 405.405 211.89 404.334 212.972C403.264 214.054 402.414 215.339 401.835 216.754C401.255 218.168 400.957 219.685 400.957 221.216L385.309 322.128H536.73L552.378 221.216C552.378 218.128 551.166 215.166 549.01 212.981C546.853 210.796 543.928 209.567 540.876 209.563Z" fill="white"/>
<path opacity="0.2" d="M513.701 323.659H536.729L552.377 221.255C552.377 218.165 551.164 215.201 549.005 213.016C546.846 210.831 543.917 209.603 540.863 209.603C537.809 209.603 534.88 210.831 532.721 213.016C530.562 215.201 529.349 218.165 529.349 221.255L513.701 323.659Z" fill="black"/>
<path d="M380.51 275.018H325.925H325.338C321.612 275.018 318.038 276.515 315.403 279.18C312.767 281.844 311.284 285.459 311.281 289.23V415.691H393.733V289.204C393.784 285.563 392.432 282.046 389.963 279.398C387.495 276.75 384.104 275.178 380.51 275.018Z" fill="#35BA83"/>
<path opacity="0.5" d="M380.51 275.018H325.925H325.338C321.612 275.018 318.038 276.515 315.403 279.18C312.767 281.844 311.284 285.459 311.281 289.23V415.691H393.733V289.204C393.784 285.563 392.432 282.046 389.963 279.398C387.495 276.75 384.104 275.178 380.51 275.018Z" fill="white"/>
<path opacity="0.6" d="M325.338 274.991C321.612 274.991 318.038 276.488 315.403 279.153C312.767 281.818 311.284 285.433 311.281 289.204V415.691H339.395V289.204C339.392 285.433 337.909 281.818 335.273 279.153C332.637 276.488 329.064 274.991 325.338 274.991Z" fill="white"/>
<path d="M456.038 310.78H348.575V415.691H456.038V310.78Z" fill="#35BA83"/>
<path opacity="0.4" d="M456.038 310.78H348.575V415.691H456.038V310.78Z" fill="white"/>
<path d="M356.412 301.938H478.988V331.894H356.412C352.483 331.894 348.715 330.314 345.937 327.503C343.159 324.692 341.599 320.879 341.599 316.903C341.606 312.931 343.169 309.125 345.947 306.319C348.724 303.514 352.488 301.938 356.412 301.938Z" fill="#35BA83"/>
<path opacity="0.6" d="M356.412 301.938H478.988V331.894H356.412C352.483 331.894 348.715 330.314 345.937 327.503C343.159 324.692 341.599 320.879 341.599 316.903C341.606 312.931 343.169 309.125 345.947 306.319C348.724 303.514 352.488 301.938 356.412 301.938Z" fill="white"/>
<path d="M525.254 275.018H470.669H470.082C466.356 275.018 462.783 276.515 460.147 279.18C457.511 281.844 456.028 285.459 456.025 289.23V415.691H538.477V289.204C538.528 285.563 537.176 282.046 534.707 279.398C532.239 276.75 528.848 275.178 525.254 275.018Z" fill="#35BA83"/>
<path opacity="0.5" d="M525.254 275.018H470.669H470.082C466.356 275.018 462.783 276.515 460.147 279.18C457.511 281.844 456.028 285.459 456.025 289.23V415.691H538.477V289.204C538.528 285.563 537.176 282.046 534.707 279.398C532.239 276.75 528.848 275.178 525.254 275.018Z" fill="white"/>
<path opacity="0.6" d="M470.082 274.991C466.356 274.991 462.783 276.488 460.147 279.153C457.511 281.818 456.028 285.433 456.025 289.204V415.691H484.139V289.204C484.136 285.433 482.653 281.818 480.017 279.153C477.381 276.488 473.808 274.991 470.082 274.991Z" fill="white"/>
<path d="M600.873 279.808H503.986V415.691H600.873V279.808Z" fill="#EB9481"/>
<path opacity="0.2" d="M600.886 279.808H571.155V415.691H600.886V279.808Z" fill="black"/>
<path opacity="0.2" d="M564.53 284.664H508.811V305.871H564.53V284.664Z" fill="white"/>
<path opacity="0.2" d="M564.53 311.057H508.811V332.263H564.53V311.057Z" fill="white"/>
<path opacity="0.2" d="M564.53 337.449H508.811V393.837H564.53V337.449Z" fill="white"/>
<path opacity="0.2" d="M535.243 290.985C536.46 290.985 537.447 289.986 537.447 288.755C537.447 287.523 536.46 286.524 535.243 286.524C534.026 286.524 533.039 287.523 533.039 288.755C533.039 289.986 534.026 290.985 535.243 290.985Z" fill="black"/>
<path opacity="0.2" d="M535.243 316.441C536.46 316.441 537.447 315.442 537.447 314.211C537.447 312.979 536.46 311.98 535.243 311.98C534.026 311.98 533.039 312.979 533.039 314.211C533.039 315.442 534.026 316.441 535.243 316.441Z" fill="black"/>
<path opacity="0.2" d="M513.701 365.637C513.724 365.943 513.685 366.251 513.585 366.542C513.485 366.832 513.327 367.098 513.121 367.324C512.914 367.549 512.664 367.729 512.386 367.852C512.108 367.975 511.807 368.039 511.504 368.039C511.2 368.039 510.899 367.975 510.621 367.852C510.343 367.729 510.093 367.549 509.886 367.324C509.68 367.098 509.522 366.832 509.422 366.542C509.322 366.251 509.283 365.943 509.306 365.637C509.349 365.077 509.599 364.554 510.006 364.172C510.414 363.79 510.948 363.578 511.504 363.578C512.059 363.578 512.593 363.79 513.001 364.172C513.408 364.554 513.658 365.077 513.701 365.637Z" fill="black"/>
<path d="M566.252 195.259H559.993V279.795H566.252V195.259Z" fill="#263238"/>
<path d="M529.688 224.317H596.57L591.158 176.414H535.099L529.688 224.317Z" fill="#EB9481"/>
<g opacity="0.6">
<path opacity="0.6" d="M529.688 224.317H596.57L591.158 176.414H535.099L529.688 224.317Z" fill="white"/>
</g>
<path opacity="0.2" d="M559.993 243.597V279.807H566.265V239.638L559.993 243.597Z" fill="white"/>
<path d="M574.089 276.086H552.169L548.257 279.808H578.001L574.089 276.086Z" fill="#EB9481"/>
<path opacity="0.2" d="M574.089 276.086H552.169L548.257 279.808H578.001L574.089 276.086Z" fill="white"/>
<path d="M91.0018 78.6343C89.2969 77.5683 87.2592 77.187 85.2903 77.5654C79.7092 78.6343 78.3791 84.1636 79.1224 88.2677C79.444 89.9316 80.202 91.4773 81.317 92.7428C82.4321 94.0082 83.863 94.9466 85.4598 95.4597C89.8543 96.5814 93.7272 92.4642 94.8617 89.3762C95.5814 87.4133 95.5884 85.2554 94.8814 83.2878C94.1744 81.3202 92.7994 79.6709 91.0018 78.6343Z" fill="#263238"/>
<path d="M189.389 139.311L211.439 133.056C211.439 133.056 211.439 131.737 214.869 129.269C218.298 126.801 227.478 124.861 227.478 124.861C227.478 124.861 231.703 137.226 230.334 137.569C228.965 137.913 216.59 142.096 215.899 140.71L192.427 147.427L189.389 139.311Z" fill="#A24E3F"/>
<path d="M122.207 113.525C135.077 117.735 155.119 140.71 159.031 142.096C162.943 143.481 200.394 135.286 200.394 135.286L205.61 145.038C205.61 145.038 171.237 157.628 158.992 156.651C146.748 155.675 130.774 137.305 119.325 134.653L122.207 113.525Z" fill="#407BFF"/>
<path opacity="0.5" d="M205.65 145.038C205.65 145.038 171.276 157.628 159.032 156.651C151.116 156.018 141.662 148.139 132.952 141.924C128.114 138.519 123.485 135.603 119.429 134.653L120.916 123.594L122.22 113.525C135.09 117.735 155.133 140.697 159.045 142.096C162.957 143.494 200.408 135.286 200.408 135.286L205.65 145.038Z" fill="white"/>
<path opacity="0.2" d="M132.886 141.924C128.048 138.519 123.419 135.603 119.364 134.653L120.85 123.594C124.541 127.223 130.226 133.821 132.886 141.924Z" fill="black"/>
<path d="M141.167 396.891L132.469 398.435L128.909 386.453L125.662 375.46L135.677 371.923L138.585 385.133L141.167 396.891Z" fill="#A24E3F"/>
<path d="M130.513 398.211C130.37 397.234 142.249 395.901 142.249 395.901C142.249 395.901 150.79 402.051 158.119 402.5C165.447 402.948 162.252 407.884 154.389 409.296L134.96 412.766C129.379 413.73 132.039 408.306 130.513 398.211Z" fill="#263238"/>
<path d="M148.117 397.907C146.673 397.84 145.242 397.601 143.853 397.195C143.819 397.202 143.783 397.202 143.749 397.195C143.712 397.175 143.684 397.142 143.67 397.103C143.67 397.103 143.67 397.103 143.67 397.023C143.664 396.975 143.664 396.926 143.67 396.878C143.67 396.746 144.205 393.79 145.679 392.84C145.901 392.691 146.153 392.593 146.416 392.554C146.68 392.515 146.949 392.536 147.204 392.616C147.791 392.774 148.104 393.064 148.156 393.473C148.234 394.107 147.504 394.885 146.63 395.572C147.491 395.257 148.422 395.193 149.317 395.387C149.485 395.444 149.641 395.536 149.773 395.656C149.905 395.776 150.012 395.923 150.086 396.086C150.215 396.282 150.284 396.511 150.284 396.746C150.284 396.981 150.215 397.211 150.086 397.406C149.81 397.623 149.492 397.779 149.153 397.865C148.815 397.952 148.462 397.966 148.117 397.907ZM144.896 396.812C146.748 397.248 149.017 397.512 149.499 396.957C149.499 396.957 149.669 396.759 149.499 396.311C149.463 396.224 149.408 396.147 149.338 396.085C149.268 396.024 149.185 395.979 149.095 395.954C148.13 395.611 146.161 396.271 144.896 396.812ZM146.63 393.13C146.392 393.129 146.16 393.203 145.965 393.341C145.143 394.116 144.589 395.139 144.388 396.258C146.018 395.281 147.543 394.054 147.478 393.513C147.478 393.341 147.165 393.236 146.983 393.183C146.867 393.153 146.749 393.135 146.63 393.13Z" fill="#407BFF"/>
<path opacity="0.2" d="M138.637 385.41L128.948 386.703L125.688 375.579L135.69 371.976L138.637 385.41Z" fill="black"/>
<path d="M83.1777 400.652H74.3496L72.9021 388.234L71.5981 376.82L82.0693 375.104L82.6561 388.63L83.1777 400.652Z" fill="#A24E3F"/>
<path d="M72.4591 400.085C72.4591 399.095 84.4299 399.874 84.4299 399.874C84.4299 399.874 91.7844 407.435 98.9173 409.111C106.05 410.787 102.073 415.142 94.0925 415.142H74.3499C68.6775 415.168 72.2244 410.286 72.4591 400.085Z" fill="#263238"/>
<path d="M90.7148 403.027C88.9919 402.813 87.3193 402.294 85.7727 401.497C85.7265 401.483 85.6855 401.455 85.6553 401.417V401.351C85.6227 401.271 85.6227 401.181 85.6553 401.101C85.6553 400.982 86.6985 398.158 88.2633 397.485C88.5041 397.371 88.7668 397.312 89.0327 397.312C89.2986 397.312 89.5613 397.371 89.802 397.485C90.3497 397.749 90.6105 398.092 90.5844 398.501C90.5844 399.134 89.6977 399.821 88.7328 400.296C89.6132 400.156 90.5147 400.261 91.3408 400.599C91.4996 400.681 91.639 400.796 91.7493 400.937C91.8597 401.078 91.9383 401.242 91.9797 401.417C92.078 401.639 92.1031 401.888 92.0515 402.125C91.9998 402.363 91.8741 402.577 91.6928 402.737C91.4063 402.938 91.0632 403.04 90.7148 403.027ZM86.8028 401.299C88.5632 402.051 90.7148 402.724 91.3147 402.249C91.3147 402.249 91.5233 402.09 91.3929 401.615C91.3728 401.523 91.3316 401.437 91.2728 401.364C91.2139 401.29 91.139 401.232 91.0539 401.193C90.2454 400.626 88.1981 400.929 86.855 401.233L86.8028 401.299ZM88.9414 397.973C88.7762 397.973 88.6125 398.004 88.4589 398.066C87.5161 398.702 86.7988 399.627 86.4116 400.705C88.1851 400.032 89.8933 399.082 89.9194 398.541C89.9194 398.382 89.6586 398.224 89.4891 398.145C89.3442 398.028 89.1746 397.947 88.9936 397.907L88.9414 397.973Z" fill="#407BFF"/>
<path opacity="0.2" d="M82.6561 388.907L72.9021 388.472L71.5981 376.951L82.0693 375.157L82.6561 388.907Z" fill="black"/>
<path d="M139.445 378.43L125.101 380.977C110.757 344.647 100.443 314.322 93.2055 289.156C89.2935 275.577 86.2683 263.502 83.9341 252.787L84.5861 292.376V382.177H70.1378C34.8646 211.944 59.8623 173.041 59.8623 173.041L102.06 165.744C103.73 173.627 104.91 181.609 105.594 189.642L107.497 203.762L123.993 289.961L139.445 378.43Z" fill="#407BFF"/>
<path opacity="0.5" d="M139.445 378.43L125.101 380.977C110.757 344.647 100.443 314.322 93.2055 289.156C89.2935 275.577 86.2683 263.502 83.9341 252.787L84.5861 292.376V382.177H70.1378C34.8646 211.944 59.8623 173.041 59.8623 173.041L102.06 165.744C103.73 173.627 104.91 181.609 105.594 189.642L107.497 203.762L123.993 289.961L139.445 378.43Z" fill="white"/>
<path d="M122.937 379.195L140.645 373.256L140.397 380.871L125.753 385.608L122.937 379.195Z" fill="#407BFF"/>
<path d="M68.2603 380.026L86.7249 377.294L85.1731 384.75L69.9424 386.835L68.2603 380.026Z" fill="#407BFF"/>
<path opacity="0.2" d="M93.271 289.156C89.359 275.577 86.3337 263.502 83.9995 252.787C84.1977 240.103 85.1077 227.44 86.7249 214.86C86.7249 214.86 92.9058 263.779 93.271 289.156Z" fill="black"/>
<path d="M109.023 198.484L91.0017 204.66L87.6635 193.561L84.0123 203.789L51.2949 196.082C54.0985 175.759 65.2999 159.541 67.0603 153.392C69.4857 144.893 71.3896 128.635 69.7335 118.118V117.986C69.5685 116.925 69.6215 115.84 69.8893 114.801C70.1571 113.761 70.6339 112.789 71.2898 111.944C71.9458 111.099 72.7668 110.401 73.7016 109.892C74.6365 109.383 75.665 109.074 76.7229 108.986C79.8786 108.735 83.0604 108.616 86.2421 108.603C92.55 108.528 98.8552 108.903 105.111 109.725C113.144 111.044 122.233 113.473 122.233 113.473C122.233 113.473 123.537 114.014 122.911 122.71C122.376 130.351 120.929 154.091 105.489 174.176L109.023 198.484Z" fill="#407BFF"/>
<path opacity="0.6" d="M109.023 198.484L91.0017 204.66L87.6635 193.561L84.0123 203.789L51.2949 196.082C54.0985 175.759 65.2999 159.541 67.0603 153.392C69.4857 144.893 71.3896 128.635 69.7335 118.118V117.986C69.5685 116.925 69.6215 115.84 69.8893 114.801C70.1571 113.761 70.6339 112.789 71.2898 111.944C71.9458 111.099 72.7668 110.401 73.7016 109.892C74.6365 109.383 75.665 109.074 76.7229 108.986C79.8786 108.735 83.0604 108.616 86.2421 108.603C92.55 108.528 98.8552 108.903 105.111 109.725C113.144 111.044 122.233 113.473 122.233 113.473C122.233 113.473 123.537 114.014 122.911 122.71C122.376 130.351 120.929 154.091 105.489 174.176L109.023 198.484Z" fill="white"/>
<path d="M90.6758 124.861C90.6758 124.861 97.8739 131.182 99.9733 147.427L108.097 124.716L113.678 126.445C113.678 126.445 109.375 105.845 95.4224 105.463C81.4696 105.08 82.5128 126.445 82.5128 126.445L90.6758 124.861Z" fill="#407BFF"/>
<path opacity="0.5" d="M90.6758 124.861C90.6758 124.861 97.8739 131.182 99.9733 147.427L108.097 124.716L113.678 126.445C113.678 126.445 109.375 105.845 95.4224 105.463C81.4696 105.08 82.5128 126.445 82.5128 126.445L90.6758 124.861Z" fill="white"/>
<path d="M110.914 101.701C110.914 101.701 105.802 105.04 104.915 107.257C104.86 107.394 104.817 107.535 104.785 107.679C104.541 108.939 104.371 110.213 104.276 111.493C108.188 120.005 100.69 134.653 100.69 134.653C97.6383 125.998 93.3172 117.857 87.8721 110.503C96.0742 107.257 97.639 91.3423 97.639 91.3423L101.551 94.4434L110.914 101.701Z" fill="#A24E3F"/>
<path opacity="0.2" d="M110.914 101.702C110.914 101.702 105.802 105.04 104.916 107.257C104.861 107.394 104.817 107.535 104.785 107.679C102.62 106.007 100.893 103.822 99.7562 101.316C98.6194 98.8105 98.1075 96.061 98.2653 93.3086L101.59 94.4435L110.914 101.702Z" fill="black"/>
<path d="M116.586 64.3953C116.586 64.3953 126.927 61.4657 131.935 69.9114C136.942 78.3571 132.939 84.7573 129.457 87.8057" stroke="#263238" stroke-width="0.488465" stroke-linecap="round" stroke-linejoin="round"/>
<path d="M120.707 63.8808C120.707 63.8808 129.131 64.1447 131.465 71.3499C133.799 78.5551 132.065 86.6445 119.559 95.3541C113.443 99.6165 98.2518 91.2896 98.2518 91.2896L97.0391 95.011C95.009 93.5229 93.1655 91.7903 91.5493 89.8512C86.6332 84.0184 87.8981 64.699 101.538 60.9116C115.778 57.0187 120.707 63.8808 120.707 63.8808Z" fill="#263238"/>
<path d="M112.674 66.3482C123.38 67.813 126.053 74.0945 125.336 85.3774C124.436 99.4579 120.042 108.959 107.08 104.129C89.4107 97.5708 94.9135 63.8805 112.674 66.3482Z" fill="#A24E3F"/>
<path d="M118.49 83.8071C119.132 85.5437 119.977 87.1962 121.007 88.7294C120.633 89.1369 120.155 89.4316 119.625 89.5807C119.096 89.7298 118.536 89.7274 118.008 89.5739L118.49 83.8071Z" fill="#A24E3F"/>
<path d="M112.061 82.0258C111.957 82.9099 111.396 83.5829 110.757 83.517C110.118 83.451 109.779 82.6724 109.871 81.775C109.962 80.8777 110.536 80.2179 111.175 80.2838C111.814 80.3498 112.153 81.1284 112.061 82.0258Z" fill="#263238"/>
<path d="M110.927 80.2969L112.922 79.7559C112.922 79.7559 111.787 81.2867 110.927 80.2969Z" fill="#263238"/>
<path d="M123.041 83.0812C122.95 83.9786 122.389 84.6516 121.802 84.5856C121.215 84.5196 120.811 83.741 120.915 82.8437C121.02 81.9463 121.567 81.2733 122.219 81.3525C122.871 81.4317 123.145 82.1971 123.041 83.0812Z" fill="#263238"/>
<path d="M121.907 81.3658L123.915 80.8247C123.915 80.8247 122.78 82.3555 121.907 81.3658Z" fill="#263238"/>
<path d="M112.961 74.5303C112.13 74.3066 111.259 74.2796 110.415 74.4512C109.572 74.6228 108.779 74.9886 108.097 75.5201" stroke="#263238" stroke-width="0.707962" stroke-linecap="round" stroke-linejoin="round"/>
<path d="M120.798 75.1372C121.555 75.05 122.321 75.1378 123.04 75.3938C123.758 75.6498 124.409 76.0674 124.945 76.6151" stroke="#263238" stroke-width="0.707962" stroke-linecap="round" stroke-linejoin="round"/>
<path d="M98.513 82.9888C98.513 82.9888 104.72 74.7806 104.89 67.7998C104.89 67.7998 127.292 61.9538 125.401 83.8993C125.401 83.8993 130.083 64.8306 111.736 61.8614C93.3883 58.8922 89.1503 84.4668 97.522 93.9022C97.522 93.9022 94.6662 88.1354 98.513 82.9888Z" fill="#263238"/>
<path d="M99.9604 85.5229C100.021 84.2559 99.5853 83.0159 98.7479 82.0721C97.9105 81.1283 96.739 80.5569 95.4877 80.4819C92.1234 80.3895 89.6067 87.0801 97.6393 89.8645C98.826 90.2736 99.6214 89.1783 99.9604 85.5229Z" fill="#A24E3F"/>
<path d="M117.434 92.8073C116.984 94.0993 116.627 95.4223 116.365 96.7662H115.647C112.414 96.6078 110.966 95.4465 110.34 94.2325C110.042 93.6266 109.894 92.9562 109.91 92.2794C109.907 91.8963 109.955 91.5146 110.053 91.1445C112.01 92.1322 114.153 92.6856 116.339 92.7677C117.082 92.8073 117.434 92.8073 117.434 92.8073Z" fill="#263238"/>
<path d="M116.338 92.7413L115.986 93.9026C112.948 93.7442 110.77 93.2296 109.91 92.2531C109.907 91.87 109.955 91.4882 110.053 91.1182C112.01 92.1058 114.153 92.6592 116.338 92.7413Z" fill="white"/>
<path d="M115.648 96.7398C112.414 96.5814 110.966 95.4201 110.34 94.2061C111.565 94.2852 112.766 94.5846 113.887 95.0902C114.63 95.4399 115.246 96.0169 115.648 96.7398Z" fill="#DE5753"/>
<path d="M88.9153 76.615L89.6977 59.75L86.7637 55.0917C94.3777 52.2655 102.621 51.653 110.562 53.3234L120.746 63.8805C120.746 63.8805 101.056 58.9847 88.9153 76.615Z" fill="#407BFF"/>
<path opacity="0.6" d="M120.707 63.8807C113.288 62.3749 105.583 63.5469 98.93 67.1929C94.9275 69.4998 91.5014 72.7051 88.9153 76.5624L89.6977 59.6974L86.7637 55.0391C94.3826 52.2305 102.626 51.6363 110.562 53.3236L120.707 63.8807Z" fill="white"/>
<path opacity="0.1" d="M98.93 67.2457C94.9275 69.5525 91.5014 72.7578 88.9153 76.6151L89.6977 59.7501L86.7637 55.0918L98.93 67.2457Z" fill="black"/>
<path d="M139.25 185.525L153.594 188.877C157.174 189.093 160.72 189.704 164.169 190.698C169.594 192.308 175.462 194.657 174.601 196.082C173.74 197.507 164.352 205.148 161.352 204.66C158.353 204.171 149.916 199.381 150.92 197.006L136.916 193.562L139.25 185.525Z" fill="#A24E3F"/>
<path d="M73.6586 109.936C78.7963 108.418 88.7719 157.443 96.1265 165.743C103.481 174.044 147.817 186.264 147.817 186.264L145.574 196.082C145.574 196.082 91.2235 189.391 83.9993 178.927C76.7751 168.462 66.7213 140.42 65.4434 126.445C64.1654 112.47 70.6333 110.846 73.6586 109.936Z" fill="#407BFF"/>
<path opacity="0.5" d="M73.6586 109.936C78.7963 108.418 88.7719 157.443 96.1265 165.743C103.481 174.044 147.817 186.264 147.817 186.264L145.574 196.082C145.574 196.082 91.2235 189.391 83.9993 178.927C76.7751 168.462 66.7213 140.42 65.4434 126.445C64.1654 112.47 70.6333 110.846 73.6586 109.936Z" fill="white"/>
<path d="M120.159 151.373L105.841 150.396L106.858 142.307L121.189 143.283L120.159 151.373Z" fill="#407BFF"/>
<path opacity="0.5" d="M119.403 150.739L107.067 149.894L107.954 142.94L120.276 143.785L119.403 150.739Z" fill="white"/>
<path d="M114.448 140.103L113.065 144.009H115.374V140.103H114.448Z" fill="#263238"/>
<path d="M182.472 197.515L169.119 200.062C169.119 200.062 155.153 196.974 152.727 197.515C150.302 198.056 144.017 210.527 144.017 210.527C144.017 210.527 165.467 215.264 168.206 214.341C170.944 213.417 173.213 209.814 173.213 209.814L183.645 207.861L182.472 197.515Z" fill="#CC6633"/>
<path d="M209.725 133.552C203.414 143.146 212.581 182.062 213.155 184.53C213.729 186.998 175.547 197.449 175.547 197.449L181.05 214.486C181.05 214.486 228.633 208.93 233.914 203.19C239.196 197.449 233.249 150.259 233.249 150.259L209.777 133.552H209.725Z" fill="#F87B69"/>
<path opacity="0.1" d="M183.867 214.143L181.05 214.486L175.547 197.449L178.051 196.75L183.867 214.143Z" fill="black"/>
<path opacity="0.2" d="M236.014 183.791C228.19 171.11 227.421 157.214 227.316 145.693L233.25 150.259C233.25 150.259 235.623 168.655 236.014 183.791Z" fill="black"/>
<path d="M124.092 415.665L133.22 265.055H207.117L216.245 415.665H222.765L210.951 222.061C210.666 217.659 208.752 213.527 205.591 210.489C202.43 207.452 198.254 205.731 193.895 205.671H146.69C142.294 205.681 138.066 207.381 134.86 210.426C131.655 213.471 129.713 217.635 129.425 222.074L117.689 415.665H124.092ZM135.828 222.483C136.006 219.717 137.217 217.123 139.214 215.227C141.212 213.331 143.847 212.273 146.586 212.269H193.895C196.629 212.276 199.259 213.333 201.254 215.227C203.248 217.12 204.458 219.709 204.64 222.47L206.83 258.456H133.676L135.828 222.483Z" fill="#F87B69"/>
<path d="M260.529 405.675L250.332 408.684L244.32 386.342L254.518 383.32L260.529 405.675Z" fill="#CC6633"/>
<path d="M249.223 403.893H261.703C261.907 403.894 262.104 403.965 262.263 404.095C262.422 404.224 262.532 404.404 262.576 404.606L264.598 413.843C264.679 414.24 264.603 414.654 264.386 414.994C264.169 415.335 263.828 415.576 263.437 415.664C263.324 415.677 263.211 415.677 263.098 415.664C259.069 415.598 256.148 415.348 251.088 415.348C247.972 415.348 238.583 415.678 234.28 415.678C229.976 415.678 229.416 411.389 231.176 410.993C239.078 409.251 245.012 406.836 247.541 404.54C248.001 404.117 248.602 403.886 249.223 403.893Z" fill="#263238"/>
<path opacity="0.2" d="M254.518 383.32L244.32 386.342L247.424 397.863L257.634 394.854L254.518 383.32Z" fill="black"/>
<path d="M293.69 191.841C296.474 206.061 297.633 220.558 297.145 235.046C296.232 258.285 244.333 287.132 243.342 295.248C242.351 303.363 259.316 388.229 259.316 388.229L241.412 394.669C241.412 394.669 206.035 317.84 205.631 299.035C205.226 280.23 244.333 235.046 255 222.588C259.147 217.745 255.065 198.254 255.065 198.254L293.69 191.841Z" fill="#263238"/>
<path opacity="0.3" d="M297.145 235.046C296.819 243.452 289.817 252.584 280.963 261.214C266.919 274.965 248.05 287.422 244.086 293.519C243.712 294.031 243.458 294.622 243.342 295.248C242.364 303.377 259.316 388.229 259.316 388.229L241.412 394.656C241.412 394.656 206.035 317.84 205.631 299.035C205.226 280.23 244.333 235.046 255 222.588C259.147 217.745 255.065 198.254 255.065 198.254L293.703 191.828C296.482 206.053 297.637 220.554 297.145 235.046Z" fill="white"/>
<path d="M240.304 397.836L262.107 390.354L260.307 384.205L237.54 391.568L240.304 397.836Z" fill="#F87B69"/>
<path opacity="0.6" d="M240.304 397.836L262.107 390.354L260.307 384.205L237.54 391.568L240.304 397.836Z" fill="white"/>
<path opacity="0.2" d="M280.963 261.214C266.919 274.965 248.05 287.422 244.086 293.519C244.842 266.189 277.442 237.104 277.442 237.104L280.963 261.214Z" fill="black"/>
<path d="M309.912 405.675L299.714 408.684L293.69 386.342L303.9 383.32L309.912 405.675Z" fill="#CC6633"/>
<path d="M298.606 403.893H311.046C311.25 403.894 311.448 403.966 311.606 404.095C311.765 404.224 311.876 404.405 311.92 404.606L313.941 413.843C314.022 414.242 313.945 414.657 313.725 414.998C313.505 415.34 313.161 415.579 312.768 415.664C312.659 415.678 312.55 415.678 312.442 415.664C308.412 415.599 305.478 415.348 300.432 415.348C297.315 415.348 287.913 415.678 283.623 415.678C279.333 415.678 278.759 411.389 280.52 410.993C288.409 409.251 294.355 406.836 296.885 404.54C297.355 404.108 297.972 403.877 298.606 403.893Z" fill="#263238"/>
<path opacity="0.2" d="M303.9 383.32L293.69 386.342L296.807 397.863L307.004 394.854L303.9 383.32Z" fill="black"/>
<path d="M313.967 187.13C319.758 200.469 322.568 214.938 322.195 229.503C321.282 252.729 293.716 287.119 292.725 295.235C291.734 303.35 308.647 388.229 308.647 388.229L290.73 394.669C290.73 394.669 255.352 317.84 254.935 299.035C254.518 280.23 277.39 237.105 277.39 237.105L272.63 194.348L313.967 187.13Z" fill="#263238"/>
<path opacity="0.3" d="M313.967 187.13C319.758 200.469 322.568 214.938 322.195 229.503C321.282 252.729 293.716 287.119 292.725 295.235C291.734 303.35 308.647 388.229 308.647 388.229L290.73 394.669C290.73 394.669 255.352 317.84 254.935 299.035C254.518 280.23 277.39 237.105 277.39 237.105L272.63 194.348L313.967 187.13Z" fill="white"/>
<path d="M289.673 397.836L311.489 390.354L309.677 384.205L286.922 391.568L289.673 397.836Z" fill="#F87B69"/>
<path opacity="0.6" d="M289.673 397.836L311.489 390.354L309.677 384.205L286.922 391.568L289.673 397.836Z" fill="white"/>
<path d="M322.26 214.46C322.26 214.46 260.033 223.961 253.852 218.907C244.724 211.464 234.645 149.204 209.725 133.553C212.288 129.394 215.404 125.611 218.984 122.309C226.709 114.932 236.047 109.506 246.237 106.474C253.99 104.204 262.046 103.175 270.113 103.425C270.113 103.425 318.961 138.554 322.26 214.46Z" fill="#F87B69"/>
<path opacity="0.1" d="M247.789 106.078C245.822 116.272 242.852 126.241 238.922 135.835C238.922 135.835 226.156 131.058 220.027 121.319C227.553 114.45 236.511 109.384 246.237 106.5C246.746 106.355 247.267 106.21 247.789 106.078Z" fill="black"/>
<path opacity="0.1" d="M322.261 214.459C322.261 214.459 260.034 223.961 253.853 218.906C253.181 218.325 252.601 217.645 252.131 216.887C275.658 217.49 299.15 214.69 321.895 208.574C322.052 210.514 322.169 212.467 322.261 214.459Z" fill="black"/>
<path opacity="0.2" d="M310.407 159.074C288.591 153.255 277.247 128.419 277.247 128.419L292.895 127.535C299.969 137.294 305.849 147.885 310.407 159.074Z" fill="black"/>
<path d="M244.751 107.437C240.969 121.399 235.48 123.801 231.176 122.982C228.627 122.334 226.315 120.96 224.513 119.023C224.959 118.191 225.166 117.25 225.113 116.305C225.027 115.272 224.715 114.271 224.198 113.376C223.682 112.481 222.974 111.715 222.127 111.132C221.299 110.486 220.428 109.899 219.519 109.377L219.792 105.788L221.096 88.751C223.494 92.4623 226.157 95.9908 229.064 99.3081C230.042 100.39 231.072 101.446 232.128 102.409C236.079 106.065 240.487 108.506 244.751 107.437Z" fill="#CC6633"/>
<path opacity="0.2" d="M231.163 122.982C228.614 122.334 226.301 120.96 224.5 119.023C224.945 118.191 225.153 117.25 225.1 116.305C225.014 115.272 224.702 114.271 224.185 113.376C223.668 112.481 222.961 111.715 222.113 111.132C221.286 110.486 220.414 109.899 219.505 109.377L219.779 105.787L232.128 102.383C232.128 102.383 235.219 114.893 231.163 122.982Z" fill="black"/>
<path d="M200.31 88.0644C200.31 88.0644 196.62 87.6685 196.02 92.5248C195.42 97.3811 197.05 97.4734 197.05 97.4734C197.05 97.4734 195.746 101.538 197.363 102.686C198.98 103.834 200.31 108.69 200.31 108.69L203.962 101.907L200.31 88.0644Z" fill="#263238"/>
<path opacity="0.6" d="M200.31 88.0644C200.31 88.0644 196.62 87.6685 196.02 92.5248C195.42 97.3811 197.05 97.4734 197.05 97.4734C197.05 97.4734 195.746 101.538 197.363 102.686C198.98 103.834 200.31 108.69 200.31 108.69L203.962 101.907L200.31 88.0644Z" fill="white"/>
<path d="M228.816 113.006C228.558 113.552 228.266 114.081 227.942 114.589C226.39 117.247 224.016 119.312 221.188 120.467C218.359 121.621 215.233 121.8 212.294 120.976C208.467 119.999 205.154 117.577 203.036 114.207C202.727 113.746 202.448 113.266 202.201 112.768C201.719 111.765 201.236 110.67 200.806 109.496C197.311 100.034 193.686 87.0618 204.992 80.2261C212.112 75.8845 224.069 75.3434 228.333 82.5882C229.895 85.2308 230.902 88.1703 231.293 91.2239C231.683 94.2774 231.448 97.3796 230.602 100.337C231.254 104.059 231.893 106.751 228.816 113.006Z" fill="#CC6633"/>
<path d="M233.497 91.4693C233.497 91.4693 235.388 91.3769 234.619 88.83C233.849 86.2831 230.615 84.6204 230.615 84.6204C230.615 84.6204 233.223 82.8784 229.807 81.2289C228.062 80.4208 226.082 80.2985 224.252 80.8858C223.117 79.9225 213.155 71.8331 206.387 76.6497C206.327 76.7028 206.288 76.7764 206.278 76.8565C206.268 76.9366 206.287 77.0176 206.332 77.0843C206.377 77.151 206.445 77.1986 206.522 77.2183C206.6 77.2379 206.682 77.2281 206.752 77.1908C212.659 72.9944 221.566 79.5793 223.522 81.1497L223.026 81.3872C220.992 80.4635 206.009 73.9577 200.976 81.5984C200.951 81.6346 200.934 81.6755 200.926 81.7184C200.917 81.7614 200.917 81.8057 200.925 81.8487C200.934 81.8917 200.951 81.9326 200.975 81.9689C200.999 82.0052 201.031 82.0363 201.067 82.0603C201.102 82.0846 201.141 82.1016 201.182 82.1102C201.224 82.1187 201.267 82.1187 201.308 82.11C201.349 82.1014 201.389 82.0844 201.424 82.0599C201.458 82.0355 201.488 82.0042 201.51 81.9679C205.931 75.2641 219.219 80.4635 222.309 81.7963C221.973 82.0069 221.654 82.2453 221.357 82.5089C218.254 81.6512 208.421 79.3022 202.527 82.5089C201.523 83.0388 200.641 83.7769 199.938 84.675C199.234 85.5732 198.726 86.6112 198.446 87.7215C198.434 87.7622 198.43 87.8049 198.435 87.8471C198.44 87.8893 198.453 87.93 198.474 87.967C198.494 88.0039 198.522 88.0362 198.556 88.0621C198.589 88.0879 198.627 88.1067 198.667 88.1174H198.759C198.829 88.1174 198.898 88.0942 198.954 88.0514C199.011 88.0086 199.052 87.9484 199.072 87.8798C199.333 86.8572 199.804 85.9014 200.453 85.0741C201.102 84.2467 201.915 83.5662 202.84 83.0764C208.226 80.1072 217.419 82.0998 220.809 82.9972C220.266 83.6207 219.825 84.3293 219.505 85.0954C217.719 89.4502 220.614 91.0998 222.505 93.2904C224.395 95.481 223.522 99.0968 223.496 99.2155C222.597 101.345 221.233 103.24 219.505 104.758C218.297 104.26 216.945 104.26 215.737 104.758C214.1 105.515 212.789 106.846 212.047 108.506C206.322 107.899 205.396 112.636 205.396 112.636C202.89 110.782 200.893 108.311 199.593 105.457C199.02 110.736 200.897 116.252 202.736 118.509C204.575 120.765 205.487 118.509 205.487 118.509C205.487 118.509 205.918 122.943 208.369 124.605C210.821 126.268 211.681 124.249 211.681 124.249C211.681 124.249 212.985 127.033 217.615 128.208C222.244 129.382 223.717 122.639 223.717 122.639C228.79 126.598 228.36 117.242 228.36 117.242C228.36 117.242 230.85 117.941 230.615 113.375C230.42 109.812 227.29 102.924 225.908 100.034C227.968 99.7038 231.124 104.468 231.124 104.468C240.03 105.312 233.497 91.4693 233.497 91.4693Z" fill="#263238"/>
<path opacity="0.6" d="M233.497 91.4693C233.497 91.4693 235.388 91.3769 234.619 88.83C233.849 86.2831 230.615 84.6204 230.615 84.6204C230.615 84.6204 233.223 82.8784 229.807 81.2289C228.062 80.4208 226.082 80.2985 224.252 80.8858C223.117 79.9225 213.155 71.8331 206.387 76.6497C206.327 76.7028 206.288 76.7764 206.278 76.8565C206.268 76.9366 206.287 77.0176 206.332 77.0843C206.377 77.151 206.445 77.1986 206.522 77.2183C206.6 77.2379 206.682 77.2281 206.752 77.1908C212.659 72.9944 221.566 79.5793 223.522 81.1497L223.026 81.3872C220.992 80.4635 206.009 73.9577 200.976 81.5984C200.951 81.6346 200.934 81.6755 200.926 81.7184C200.917 81.7614 200.917 81.8057 200.925 81.8487C200.934 81.8917 200.951 81.9326 200.975 81.9689C200.999 82.0052 201.031 82.0363 201.067 82.0603C201.102 82.0846 201.141 82.1016 201.182 82.1102C201.224 82.1187 201.267 82.1187 201.308 82.11C201.349 82.1014 201.389 82.0844 201.424 82.0599C201.458 82.0355 201.488 82.0042 201.51 81.9679C205.931 75.2641 219.219 80.4635 222.309 81.7963C221.973 82.0069 221.654 82.2453 221.357 82.5089C218.254 81.6512 208.421 79.3022 202.527 82.5089C201.523 83.0388 200.641 83.7769 199.938 84.675C199.234 85.5732 198.726 86.6112 198.446 87.7215C198.434 87.7622 198.43 87.8049 198.435 87.8471C198.44 87.8893 198.453 87.93 198.474 87.967C198.494 88.0039 198.522 88.0362 198.556 88.0621C198.589 88.0879 198.627 88.1067 198.667 88.1174H198.759C198.829 88.1174 198.898 88.0942 198.954 88.0514C199.011 88.0086 199.052 87.9484 199.072 87.8798C199.333 86.8572 199.804 85.9014 200.453 85.0741C201.102 84.2467 201.915 83.5662 202.84 83.0764C208.226 80.1072 217.419 82.0998 220.809 82.9972C220.266 83.6207 219.825 84.3293 219.505 85.0954C217.719 89.4502 220.614 91.0998 222.505 93.2904C224.395 95.481 223.522 99.0968 223.496 99.2155C222.597 101.345 221.233 103.24 219.505 104.758C218.297 104.26 216.945 104.26 215.737 104.758C214.1 105.515 212.789 106.846 212.047 108.506C206.322 107.899 205.396 112.636 205.396 112.636C202.89 110.782 200.893 108.311 199.593 105.457C199.02 110.736 200.897 116.252 202.736 118.509C204.575 120.765 205.487 118.509 205.487 118.509C205.487 118.509 205.918 122.943 208.369 124.605C210.821 126.268 211.681 124.249 211.681 124.249C211.681 124.249 212.985 127.033 217.615 128.208C222.244 129.382 223.717 122.639 223.717 122.639C228.79 126.598 228.36 117.242 228.36 117.242C228.36 117.242 230.85 117.941 230.615 113.375C230.42 109.812 227.29 102.924 225.908 100.034C227.968 99.7038 231.124 104.468 231.124 104.468C240.03 105.312 233.497 91.4693 233.497 91.4693Z" fill="white"/>
<path d="M213.064 97.2361C213.324 98.0939 212.972 98.9384 212.398 99.0704C211.825 99.2024 211.199 98.5953 210.99 97.7508C210.782 96.9062 211.094 96.0352 211.668 95.9033C212.242 95.7713 212.855 96.3388 213.064 97.2361Z" fill="#263238"/>
<path d="M203.179 99.5456C203.322 99.8808 203.332 100.259 203.205 100.601C203.079 100.943 202.826 101.222 202.501 101.38C201.927 101.512 201.301 100.905 201.093 100.06C200.884 99.2157 201.197 98.3447 201.771 98.2128C202.345 98.0808 203.023 98.7142 203.179 99.5456Z" fill="#263238"/>
<path d="M206.413 99.2417C205.992 102.193 205.167 105.072 203.961 107.793C204.663 108.088 205.42 108.224 206.179 108.192C206.938 108.16 207.681 107.961 208.356 107.608L206.413 99.2417Z" fill="#CC6633"/>
<path d="M215.398 93.2772C215.306 93.3113 215.208 93.3206 215.112 93.3044C215.016 93.2882 214.926 93.247 214.85 93.1848C214.352 92.7433 213.759 92.4252 213.119 92.2557C212.478 92.0862 211.808 92.07 211.16 92.2083C211.028 92.2498 210.886 92.2369 210.764 92.1727C210.642 92.1084 210.55 91.9979 210.508 91.8652C210.471 91.7305 210.487 91.5866 210.552 91.4636C210.618 91.3406 210.728 91.248 210.86 91.2054C211.674 91.0076 212.523 91.0111 213.336 91.2155C214.148 91.4199 214.9 91.8193 215.528 92.3799C215.635 92.4677 215.703 92.5947 215.718 92.7331C215.732 92.8715 215.692 93.0101 215.606 93.1188C215.546 93.1829 215.475 93.2364 215.398 93.2772Z" fill="#263238"/>
<path d="M198.133 97.0776C198.048 97.1455 197.941 97.1785 197.833 97.17C197.7 97.1384 197.584 97.0565 197.509 96.9412C197.434 96.8259 197.405 96.6858 197.428 96.5498C197.595 95.719 197.957 94.9412 198.484 94.2819C199.01 93.6227 199.686 93.1015 200.454 92.7624C200.519 92.7372 200.588 92.7255 200.658 92.7278C200.727 92.7302 200.796 92.7466 200.859 92.7761C200.922 92.8056 200.979 92.8476 201.026 92.8997C201.072 92.9517 201.109 93.0127 201.132 93.0791C201.172 93.2124 201.162 93.3561 201.105 93.4826C201.047 93.6092 200.945 93.7098 200.819 93.7653C200.219 94.0501 199.693 94.4728 199.283 94.9998C198.873 95.5268 198.591 96.1434 198.459 96.8005C198.428 96.8683 198.383 96.9284 198.327 96.9763C198.27 97.0242 198.204 97.0589 198.133 97.0776Z" fill="#263238"/>
<path opacity="0.6" d="M215.398 93.2772C215.306 93.3113 215.208 93.3206 215.112 93.3044C215.016 93.2882 214.926 93.247 214.85 93.1848C214.352 92.7433 213.759 92.4252 213.119 92.2557C212.478 92.0862 211.808 92.07 211.16 92.2083C211.028 92.2498 210.886 92.2369 210.764 92.1727C210.642 92.1084 210.55 91.9979 210.508 91.8652C210.471 91.7305 210.487 91.5866 210.552 91.4636C210.618 91.3406 210.728 91.248 210.86 91.2054C211.674 91.0076 212.523 91.0111 213.336 91.2155C214.148 91.4199 214.9 91.8193 215.528 92.3799C215.635 92.4677 215.703 92.5947 215.718 92.7331C215.732 92.8715 215.692 93.0101 215.606 93.1188C215.546 93.1829 215.475 93.2364 215.398 93.2772Z" fill="white"/>
<path opacity="0.6" d="M198.133 97.0776C198.048 97.1455 197.941 97.1785 197.833 97.17C197.7 97.1384 197.584 97.0565 197.509 96.9412C197.434 96.8259 197.405 96.6858 197.428 96.5498C197.595 95.719 197.957 94.9412 198.484 94.2819C199.01 93.6227 199.686 93.1015 200.454 92.7624C200.519 92.7372 200.588 92.7255 200.658 92.7278C200.727 92.7302 200.796 92.7466 200.859 92.7761C200.922 92.8056 200.979 92.8476 201.026 92.8997C201.072 92.9517 201.109 93.0127 201.132 93.0791C201.172 93.2124 201.162 93.3561 201.105 93.4826C201.047 93.6092 200.945 93.7098 200.819 93.7653C200.219 94.0501 199.693 94.4728 199.283 94.9998C198.873 95.5268 198.591 96.1434 198.459 96.8005C198.428 96.8683 198.383 96.9284 198.327 96.9763C198.27 97.0242 198.204 97.0589 198.133 97.0776Z" fill="white"/>
<path opacity="0.2" d="M206.504 114.167C206.504 114.167 207.456 115.13 208.734 113.652C208.734 113.652 210.547 116.516 212.438 110.169C212.438 110.169 217.497 111.198 218.879 110.169C219.831 109.469 218.879 108.202 218.879 108.202C218.879 108.202 220.953 107.991 221.487 106.434C221.487 106.434 223.13 112.65 213.663 111.475C213.637 111.475 210.599 118.179 206.504 114.167Z" fill="black"/>
<path d="M235.414 98.1995C235.105 99.5566 234.533 100.838 233.732 101.971C232.93 103.103 231.916 104.064 230.746 104.798C227.616 106.751 225.034 104.151 225.047 100.628C225.047 97.4869 226.743 92.5911 230.263 92.116C233.784 91.6409 236.144 94.8344 235.414 98.1995Z" fill="#CC6633"/>
<path opacity="0.2" d="M210.925 98.7139C210.925 98.7139 211.42 101.248 214.42 100.456" stroke="black" stroke-width="0.5" stroke-linecap="round" stroke-linejoin="round"/>
<path opacity="0.2" d="M203.636 100.667C203.636 100.667 203.571 103.676 201.51 103.438" stroke="black" stroke-width="0.5" stroke-linecap="round" stroke-linejoin="round"/>
<path opacity="0.2" d="M199.919 91.0472C202.908 89.3634 206.312 88.5847 209.726 88.8038" stroke="black" stroke-width="0.5" stroke-linecap="round" stroke-linejoin="round"/>
<path opacity="0.2" d="M199.919 89.4766C201.212 88.2567 202.795 87.3986 204.515 86.9867C206.234 86.5748 208.03 86.6234 209.726 87.1276" stroke="black" stroke-width="0.5" stroke-linecap="round" stroke-linejoin="round"/>
<path opacity="0.2" d="M201.171 86.6792C202.434 85.7215 203.911 85.093 205.471 84.8491C207.031 84.6051 208.626 84.7533 210.116 85.2804" stroke="black" stroke-width="0.5" stroke-linecap="round" stroke-linejoin="round"/>
<path d="M326.225 177.232L319.705 184.53C319.705 184.53 315.089 187.354 314.815 188.964C314.541 190.574 320.552 211.464 320.552 211.464C320.552 211.464 328.728 205.103 328.468 203.19C328.207 201.276 324.347 191.828 324.347 191.828L331.532 185.058L326.225 177.232Z" fill="#CC6633"/>
<path d="M270.113 103.465C270.113 103.465 327.385 107.424 348.536 132.167C369.687 156.91 328.415 191.828 328.415 191.828L320.969 179.014C320.969 179.014 337.713 161.859 331.519 150.259C325.325 138.66 293.703 139.636 293.703 139.636C293.703 139.636 262.889 126.783 270.113 103.465Z" fill="#F87B69"/>
<path opacity="0.1" d="M331.48 189.03C329.602 190.825 328.416 191.828 328.416 191.828L320.97 179.014C320.97 179.014 321.609 178.367 322.587 177.232L331.48 189.03Z" fill="black"/>
<path d="M208.421 237.83H133.376C132.512 237.83 131.682 237.483 131.071 236.864C130.46 236.245 130.116 235.406 130.116 234.531C130.116 233.656 130.46 232.817 131.071 232.198C131.682 231.579 132.512 231.232 133.376 231.232H208.421C209.286 231.232 210.115 231.579 210.727 232.198C211.338 232.817 211.681 233.656 211.681 234.531C211.681 235.406 211.338 236.245 210.727 236.864C210.115 237.483 209.286 237.83 208.421 237.83Z" fill="#F87B69"/>
<g opacity="0.2">
<path opacity="0.2" d="M208.421 237.83H133.376C132.512 237.83 131.682 237.483 131.071 236.864C130.46 236.245 130.116 235.406 130.116 234.531C130.116 233.656 130.46 232.817 131.071 232.198C131.682 231.579 132.512 231.232 133.376 231.232H208.421C209.286 231.232 210.115 231.579 210.727 232.198C211.338 232.817 211.681 233.656 211.681 234.531C211.681 235.406 211.338 236.245 210.727 236.864C210.115 237.483 209.286 237.83 208.421 237.83Z" fill="white"/>
</g>
<path d="M201.901 338.057H126.856C125.992 338.057 125.162 337.709 124.551 337.09C123.94 336.472 123.596 335.633 123.596 334.758C123.596 333.883 123.94 333.043 124.551 332.425C125.162 331.806 125.992 331.458 126.856 331.458H201.901C202.766 331.458 203.595 331.806 204.207 332.425C204.818 333.043 205.161 333.883 205.161 334.758C205.161 335.633 204.818 336.472 204.207 337.09C203.595 337.709 202.766 338.057 201.901 338.057Z" fill="#F87B69"/>
<g opacity="0.2">
<path opacity="0.2" d="M201.901 338.057H126.856C125.992 338.057 125.162 337.709 124.551 337.09C123.94 336.472 123.596 335.633 123.596 334.758C123.596 333.883 123.94 333.043 124.551 332.425C125.162 331.806 125.992 331.458 126.856 331.458H201.901C202.766 331.458 203.595 331.806 204.207 332.425C204.818 333.043 205.161 333.883 205.161 334.758C205.161 335.633 204.818 336.472 204.207 337.09C203.595 337.709 202.766 338.057 201.901 338.057Z" fill="white"/>
</g>
<path d="M201.028 415.665L210.156 265.055H284.053L293.247 415.665H299.767L287.952 222.061C287.666 217.647 285.743 213.506 282.568 210.467C279.393 207.428 275.201 205.715 270.831 205.671H223.626C219.23 205.681 215.002 207.381 211.796 210.426C208.591 213.471 206.649 217.635 206.361 222.074L194.625 415.665H201.028ZM212.764 222.483C212.942 219.717 214.153 217.123 216.15 215.227C218.148 213.331 220.783 212.273 223.522 212.269H270.831C273.565 212.276 276.195 213.333 278.19 215.227C280.184 217.12 281.394 219.709 281.576 222.47L283.766 258.456H210.612L212.764 222.483Z" fill="#F87B69"/>
<path opacity="0.2" d="M201.028 415.665L210.156 265.055H284.053L293.247 415.665H299.767L287.952 222.061C287.666 217.647 285.743 213.506 282.568 210.467C279.393 207.428 275.201 205.715 270.831 205.671H223.626C219.23 205.681 215.002 207.381 211.796 210.426C208.591 213.471 206.649 217.635 206.361 222.074L194.625 415.665H201.028ZM212.764 222.483C212.942 219.717 214.153 217.123 216.15 215.227C218.148 213.331 220.783 212.273 223.522 212.269H270.831C273.565 212.276 276.195 213.333 278.19 215.227C280.184 217.12 281.394 219.709 281.576 222.47L283.766 258.456H210.612L212.764 222.483Z" fill="white"/>
</svg>
