<svg width="119" height="74" viewBox="0 0 119 74" fill="none" xmlns="http://www.w3.org/2000/svg">
<path d="M57.1406 1.29785L3.88952 11.202C1.95633 11.5616 1.18354 12.4281 2.16346 13.1374L56.8908 52.7529C57.8707 53.4622 60.2323 53.7458 62.1655 53.3862L115.417 43.4821C117.35 43.1225 118.123 42.256 117.143 41.5467L62.4153 1.93118C61.4354 1.22185 59.0738 0.938293 57.1406 1.29785Z" fill="#EBEBEB"/>
<path d="M30.0252 17.8326C32.2863 17.2747 32.8867 16.1498 31.3661 15.3202C29.8456 14.4905 26.78 14.2702 24.5189 14.8282C22.2578 15.3861 21.6574 16.5109 23.178 17.3406C24.6985 18.1702 27.7641 18.3905 30.0252 17.8326Z" fill="#FAFAFA"/>
<path d="M55.0888 13.4119C57.6501 13.0619 58.9534 12.0164 57.9997 11.0766C57.046 10.1367 54.1965 9.65855 51.6352 10.0085C49.0739 10.3584 47.7707 11.404 48.7244 12.3438C49.678 13.2836 52.5275 13.7618 55.0888 13.4119Z" fill="#FAFAFA"/>
<path d="M43.754 24.2506C44.1948 24.57 44.3677 24.9301 44.2508 25.2854C44.134 25.6408 43.7326 25.9755 43.0975 26.2472C42.4624 26.5189 41.622 26.7154 40.6826 26.8119C39.7432 26.9084 38.7469 26.9005 37.8196 26.7893C36.8924 26.678 36.0758 26.4685 35.4731 26.187C34.8704 25.9055 34.5087 25.5648 34.4336 25.208C34.3585 24.8511 34.5734 24.494 35.0512 24.182C35.529 23.8699 36.2482 23.6168 37.118 23.4547C38.2858 23.2378 39.6405 23.1998 40.8847 23.349C42.1288 23.4983 43.1608 23.8225 43.754 24.2506V24.2506Z" fill="#FAFAFA"/>
<path d="M69.8974 20.3651C69.9897 19.3658 67.8568 18.5284 65.1336 18.4945C62.4103 18.4607 60.1279 19.2433 60.0357 20.2425C59.9434 21.2417 62.0763 22.0792 64.7995 22.113C67.5228 22.1469 69.8052 21.3643 69.8974 20.3651Z" fill="#FAFAFA"/>
<path d="M55.8209 32.9894C56.2667 33.308 56.4448 33.668 56.3329 34.0238C56.2209 34.3796 55.8239 34.7152 55.1919 34.9882C54.56 35.2611 53.7216 35.4592 52.7828 35.5573C51.844 35.6553 50.847 35.649 49.918 35.5392C48.989 35.4293 48.1697 35.2207 47.5638 34.9399C46.9578 34.6592 46.5925 34.3187 46.514 33.9617C46.4355 33.6047 46.6474 33.2472 47.1228 32.9344C47.5983 32.6216 48.3159 32.3676 49.1849 32.2045C50.3487 31.986 51.7012 31.946 52.9455 32.0932C54.1897 32.2403 55.2239 32.5627 55.8209 32.9894V32.9894Z" fill="#FAFAFA"/>
<path d="M81.4385 28.2246C81.8801 28.5439 82.0536 28.9042 81.9371 29.2597C81.8207 29.6153 81.4194 29.9501 80.7842 30.222C80.1489 30.4938 79.3081 30.6905 78.3683 30.787C77.4284 30.8835 76.4317 30.8755 75.5041 30.7642C74.5766 30.6528 73.7599 30.4429 73.1574 30.1612C72.5549 29.8795 72.1936 29.5386 72.1193 29.1815C72.045 28.8244 72.261 28.4673 72.7399 28.1553C73.2189 27.8433 73.9393 27.5904 74.81 27.4286C75.9768 27.2119 77.3303 27.1739 78.5733 27.3232C79.8162 27.4724 80.8468 27.7967 81.4385 28.2246V28.2246Z" fill="#FAFAFA"/>
<path d="M67.8952 41.7289C68.3347 42.0484 68.5063 42.4086 68.3883 42.7638C68.2702 43.1191 67.8678 43.4535 67.2319 43.7249C66.596 43.9963 65.7551 44.1924 64.8155 44.2885C63.876 44.3846 62.8798 44.3764 61.953 44.2648C61.0262 44.1533 60.2103 43.9434 59.6085 43.6618C59.0066 43.3801 58.6457 43.0394 58.5714 42.6825C58.4972 42.3256 58.7129 41.9687 59.1913 41.6568C59.6697 41.3449 60.3893 41.092 61.2592 40.9302C61.8377 40.8225 62.4684 40.7577 63.1153 40.7396C63.7621 40.7215 64.4123 40.7504 65.0286 40.8246C65.645 40.8987 66.2155 41.0168 66.7074 41.172C67.1992 41.3272 67.6029 41.5164 67.8952 41.7289V41.7289Z" fill="#FAFAFA"/>
<path d="M93.5128 36.964C93.9536 37.2833 94.1265 37.6435 94.0096 37.9988C93.8928 38.3542 93.4914 38.6889 92.8563 38.9606C92.2212 39.2323 91.3808 39.4288 90.4414 39.5253C89.502 39.6218 88.5057 39.6139 87.5784 39.5027C86.6512 39.3915 85.8346 39.1819 85.2319 38.9004C84.6292 38.6189 84.2675 38.2782 84.1924 37.9214C84.1173 37.5645 84.3322 37.2074 84.81 36.8954C85.2878 36.5833 86.007 36.3302 86.8768 36.1681C88.0446 35.9512 89.3993 35.9132 90.6435 36.0624C91.8876 36.2116 92.9196 36.5359 93.5128 36.964V36.964Z" fill="#FAFAFA"/>
<path d="M28.6893 14.6851C28.3716 15.2427 27.9307 15.7899 27.3711 16.3212C26.9299 16.8668 26.3681 17.3983 25.6914 17.9104C26.001 17.3524 26.4394 16.805 27.002 16.2742C27.4398 15.7278 28.0042 15.1961 28.6893 14.6851V14.6851Z" fill="#E0E0E0"/>
<path d="M53.742 9.93945C53.4347 10.4977 52.9962 11.0451 52.4314 11.5756C51.9928 12.1228 51.4283 12.6554 50.7441 13.1675C51.0564 12.6094 51.4974 12.0621 52.0623 11.5314C52.5045 10.985 53.0662 10.4526 53.742 9.93945V9.93945Z" fill="#E0E0E0"/>
<path d="M41.0048 23.4102C40.7808 23.9875 40.4255 24.557 39.9428 25.1127C39.5876 25.6792 39.1038 26.2339 38.4966 26.7709C38.7311 26.1951 39.0965 25.6275 39.5888 25.074C39.937 24.5062 40.4106 23.9497 41.0048 23.4102V23.4102Z" fill="#E0E0E0"/>
<path d="M66.2908 18.6426C66.1391 19.2034 65.8543 19.7582 65.4397 20.3009C65.1581 20.8509 64.7473 21.3909 64.2119 21.9149C64.3624 21.3543 64.6447 20.7994 65.0555 20.2566C65.3441 19.7069 65.7573 19.167 66.2908 18.6426V18.6426Z" fill="#E0E0E0"/>
<path d="M52.2581 32.1523C52.0628 32.6816 51.7376 33.2033 51.2865 33.7111C50.9581 34.2325 50.5044 34.7421 49.9307 35.234C50.1265 34.7045 50.4543 34.1827 50.9099 33.6752C51.2338 33.1538 51.685 32.6441 52.2581 32.1523Z" fill="#E0E0E0"/>
<path d="M78.5914 27.5063C78.2836 28.0367 77.8449 28.5557 77.2808 29.0568C76.8388 29.5747 76.2768 30.0777 75.6011 30.5604C75.9089 30.03 76.3476 29.511 76.9117 29.0099C77.3555 28.4923 77.9174 27.9893 78.5914 27.5063V27.5063Z" fill="#E0E0E0"/>
<path d="M65.1162 40.9824C64.7627 41.5338 64.2865 42.0737 63.6925 42.5965C63.2093 43.1346 62.6046 43.6569 61.8848 44.1581C62.2372 43.6068 62.7186 43.0677 63.3235 42.5467C63.7952 42.0071 64.395 41.4836 65.1162 40.9824V40.9824Z" fill="#E0E0E0"/>
<path d="M90.5527 35.9277C90.3377 36.5394 89.9901 37.1438 89.5133 37.7353C89.1682 38.3385 88.6947 38.9308 88.0972 39.5069C88.3166 38.8955 88.6641 38.2912 89.1366 37.6993C89.4817 37.0961 89.9552 36.5038 90.5527 35.9277V35.9277Z" fill="#E0E0E0"/>
<path d="M102.725 41.5021C102.77 41.5381 94.9368 43.0305 85.2276 44.8353C75.5183 46.64 67.6018 48.0772 67.5491 48.044C67.4964 48.0109 75.3376 46.5156 85.0468 44.7081C94.756 42.9006 102.673 41.4662 102.725 41.5021Z" fill="#E0E0E0"/>
<path d="M51.8893 6.50126C51.9345 6.53719 44.1009 8.02964 34.3916 9.83718C24.6824 11.6447 16.7659 13.0791 16.7132 13.0432C16.6604 13.0073 24.5242 11.501 34.2109 9.69346C43.8975 7.88593 51.8366 6.45151 51.8893 6.50126Z" fill="#E0E0E0"/>
<path d="M35.5362 11.574C35.4915 11.5776 35.4453 11.5776 35.4006 11.574C35.4006 11.574 35.3554 11.574 35.3403 11.574L35.6868 11.5068C35.6868 11.5292 35.6868 11.5628 35.5663 11.5824C35.4458 11.602 35.3705 11.5964 35.3403 11.5824L35.6868 11.5152C35.6893 11.5217 35.6893 11.5283 35.6868 11.5348C35.6492 11.5535 35.5964 11.5673 35.5362 11.574V11.574Z" fill="#E0E0E0"/>
<path d="M83.9095 44.9182C83.8115 44.9376 72.8143 37.0441 59.3464 27.2962C45.8785 17.5483 35.0395 9.62452 35.1374 9.60794C35.2353 9.59135 46.225 17.4737 59.7004 27.2299C73.1758 36.9861 84.03 44.8989 83.9095 44.9182Z" fill="#E0E0E0"/>
<path d="M10.8981 50.5811C10.8077 56.772 10.7474 66.7687 10.7173 71.3621C10.7133 72.0126 11.4131 72.637 12.6631 73.0982C13.913 73.5594 15.6108 73.8197 17.3834 73.8219L63.474 73.8993C65.2494 73.9015 66.9546 73.6452 68.2156 73.1867C69.4767 72.7281 70.1904 72.1048 70.2004 71.4533L70.4565 50.8547C70.4725 49.408 68.9226 48.0181 66.1473 46.9904C63.372 45.9628 59.5983 45.3814 55.6554 45.3741V42.3339L25.4732 42.2842V45.1475H25.3602C21.4975 45.1856 17.827 45.7742 15.1271 46.7886C12.4273 47.8029 10.9104 49.1633 10.8981 50.5811V50.5811Z" fill="#F5F5F5"/>
<path d="M25.5104 42.6797L25.4878 44.0588L55.6625 44.501L55.6926 42.7294L25.5104 42.6797Z" fill="#E0E0E0"/>
<path d="M24.3581 38.0653L57.0859 38.1198C57.6852 38.1208 58.2589 38.2091 58.6808 38.3653C59.1026 38.5215 59.3381 38.7328 59.3354 38.9527L59.2841 43.0983C59.2823 43.2398 59.1275 43.3752 58.8536 43.4748C58.5798 43.5744 58.2093 43.6299 57.8237 43.6293L23.4916 43.5721C23.106 43.5715 22.7369 43.5147 22.4656 43.4142C22.1942 43.3137 22.0427 43.1778 22.0444 43.0363L22.0957 38.8907C22.0984 38.6708 22.3391 38.4603 22.7648 38.3055C23.1905 38.1507 23.7663 38.0643 24.3656 38.0653L24.3581 38.0653Z" fill="#F5F5F5"/>
<path d="M26.7835 43.5891C26.5651 43.5891 26.3994 42.3619 26.422 40.8529C26.4446 39.3438 26.6329 38.1167 26.8513 38.1167C27.0698 38.1167 27.2355 39.3411 27.2129 40.8529C27.1903 42.3647 27.017 43.5891 26.7835 43.5891Z" fill="#E0E0E0"/>
<path d="M30.7757 43.5943C30.5573 43.5943 30.3916 42.37 30.4142 40.8582C30.4368 39.3464 30.6251 38.1221 30.8435 38.1221C31.062 38.1221 31.2277 39.3492 31.2051 40.861C31.1825 42.3727 30.9942 43.5943 30.7757 43.5943Z" fill="#E0E0E0"/>
<path d="M34.7528 43.6027C34.5343 43.6027 34.3686 42.3755 34.3912 40.8665C34.4138 39.3575 34.6021 38.1304 34.8206 38.1304C35.039 38.1304 35.2047 39.3547 35.1821 40.8665C35.1595 42.3783 34.9712 43.6027 34.7528 43.6027Z" fill="#E0E0E0"/>
<path d="M38.7303 43.6081C38.5119 43.6081 38.3462 42.3837 38.3688 40.8719C38.3914 39.3601 38.5797 38.1357 38.7981 38.1357C39.0165 38.1357 39.1823 39.3629 39.1597 40.8719C39.1371 42.3809 38.9488 43.6081 38.7303 43.6081Z" fill="#E0E0E0"/>
<path d="M42.7069 43.6163C42.4884 43.6163 42.3227 42.3892 42.3453 40.8774C42.3679 39.3656 42.5562 38.1413 42.7747 38.144C42.9931 38.1468 43.1588 39.3684 43.1362 40.8802C43.1136 42.392 42.9253 43.6163 42.7069 43.6163Z" fill="#E0E0E0"/>
<path d="M46.6844 43.6222C46.466 43.6222 46.3003 42.3951 46.3229 40.8861C46.3455 39.377 46.5338 38.1499 46.7522 38.1499C46.9707 38.1499 47.1364 39.3743 47.1138 40.8861C47.0912 42.3979 46.9029 43.6222 46.6844 43.6222Z" fill="#E0E0E0"/>
<path d="M50.6615 43.6277C50.443 43.6277 50.2773 42.4033 50.2999 40.8915C50.3225 39.3796 50.5108 38.1553 50.7293 38.1553C50.9477 38.1553 51.1134 39.3824 51.0908 40.8942C51.0682 42.406 50.8874 43.6304 50.6615 43.6277Z" fill="#E0E0E0"/>
<path d="M54.6532 43.6359C54.4347 43.6359 54.269 42.4088 54.2916 40.8997C54.3142 39.3907 54.5025 38.1636 54.721 38.1636C54.9394 38.1636 55.1051 39.3879 55.0825 40.8997C55.0599 42.4116 54.8565 43.6359 54.6532 43.6359Z" fill="#E0E0E0"/>
<path d="M61.4284 53.6458L20.4151 53.5775C19.7994 53.5765 19.298 53.7588 19.2952 53.9847L19.1756 63.6607C19.1728 63.8866 19.6696 64.0705 20.2853 64.0715L61.2986 64.1398C61.9143 64.1409 62.4156 63.9586 62.4184 63.7327L62.5381 54.0567C62.5409 53.8308 62.0441 53.6469 61.4284 53.6458Z" fill="#EBEBEB"/>
<path d="M59.5194 63.4192C59.5048 63.3613 59.5048 63.303 59.5194 63.245C59.5194 63.1151 59.5194 62.9521 59.5194 62.7559C59.5194 62.3054 59.5194 61.689 59.4667 60.9152C59.4667 59.3122 59.414 57.0459 59.3838 54.3097L59.6927 54.4258L21.7973 54.3926L22.189 54.2489V55.4512C22.189 55.8519 22.189 56.2471 22.189 56.6424C22.189 57.43 22.189 58.2067 22.1513 58.9695C22.1513 60.4923 22.0986 61.9599 22.076 63.3556L21.7144 63.2202L48.9063 63.3307L56.7475 63.3805L58.8566 63.3998L59.6098 63.4164C59.3857 63.4296 59.1588 63.4352 58.9319 63.433H56.8981L49.1398 63.4579L21.6994 63.4772H21.3378V63.3418C21.3378 61.9599 21.3378 60.4813 21.3378 58.9557C21.3378 58.1929 21.3378 57.419 21.3378 56.6285C21.3378 56.2361 21.3378 55.8381 21.3378 55.4374V54.2351C20.9838 54.365 21.8199 54.0582 21.737 54.0914L59.6399 54.1826H59.9262V54.3153C59.8282 57.079 59.7378 59.373 59.6776 60.9926C59.6776 61.7554 59.6023 62.3745 59.5797 62.8084C59.5797 62.9963 59.5797 63.1483 59.5345 63.2755C59.5435 63.3234 59.5385 63.3716 59.5194 63.4192Z" fill="#E0E0E0"/>
<path d="M53.727 57.2474C53.727 57.3303 47.9572 57.3856 40.8467 57.3718C33.7361 57.358 27.9663 57.2861 27.9663 57.2059C27.9663 57.1257 33.7361 57.0704 40.8542 57.0815C47.9723 57.0925 53.727 57.1672 53.727 57.2474Z" fill="#E0E0E0"/>
<path d="M53.7043 58.856C53.7043 58.9362 47.9421 58.9915 40.824 58.9804C33.7059 58.9693 27.9512 58.892 27.9512 58.8118C27.9512 58.7317 33.7134 58.6764 40.8315 58.6874C47.9496 58.6985 53.7119 58.7759 53.7043 58.856Z" fill="#E0E0E0"/>
<path d="M53.6894 60.3953C53.6894 60.4754 47.9196 60.5307 40.8091 60.5197C33.6985 60.5086 27.9287 60.434 27.9287 60.3538C27.9287 60.2737 33.6985 60.2184 40.8091 60.2294C47.9196 60.2405 53.6894 60.3179 53.6894 60.3953Z" fill="#E0E0E0"/>
<path d="M53.9003 45.2776C53.9003 45.3578 47.6108 45.4103 39.8449 45.3993C32.0791 45.3882 25.7896 45.3108 25.7896 45.2307C25.7896 45.1505 32.0866 45.0952 39.8525 45.1091C47.6183 45.1229 53.9003 45.1947 53.9003 45.2776Z" fill="#E0E0E0"/>
<path d="M13.2256 70.1738C13.1049 69.8506 13.0595 69.5242 13.09 69.1982C13.09 68.5211 13.0448 67.6256 13.0146 66.5394C13.0146 64.2952 13.0146 61.1942 13.0824 57.7699C13.1276 56.0591 13.1728 54.4312 13.2105 52.9415C13.2482 51.4519 13.6549 50.081 15.0032 49.0363C15.9871 48.2008 17.6702 47.5019 19.8088 47.0408C20.3943 46.9219 21.0164 46.8292 21.6618 46.7644C21.8871 46.7407 22.1204 46.7286 22.3548 46.7285C21.5451 46.8402 20.7595 46.9742 20.0047 47.1293C17.9802 47.6079 16.4032 48.3023 15.4853 49.1192C14.2876 50.1308 13.9788 51.4684 13.9788 52.9332C13.9788 54.3981 13.9336 56.0508 13.911 57.7616C13.8432 61.186 13.7302 64.2869 13.6172 66.5284C13.5419 67.6145 13.4817 68.5128 13.4365 69.1872C13.4351 69.5175 13.3646 69.8474 13.2256 70.1738V70.1738Z" fill="white"/>
<path d="M68.0763 73.1089C67.3677 73.0515 66.6745 72.971 66.0049 72.8684C65.3571 72.78 64.5587 72.675 63.6096 72.5727C62.6605 72.4705 61.606 72.3295 60.4008 72.2217C57.6044 71.9376 54.7648 71.7143 51.8967 71.5529C48.3812 71.3656 44.8358 71.2641 41.2836 71.2489C37.7305 71.2528 34.1821 71.3452 30.663 71.5252C27.7892 71.6767 24.9421 71.8899 22.1364 72.1637C20.9312 72.2687 19.8766 72.4014 18.92 72.5036C17.9634 72.6059 17.1725 72.7054 16.5172 72.7938C15.848 72.8948 15.1545 72.9725 14.4458 73.026C15.0671 72.8897 15.723 72.7758 16.4042 72.686C17.0445 72.5838 17.8354 72.4649 18.7769 72.3516C19.7185 72.2383 20.773 72.0752 21.9857 71.9647C24.7947 71.6617 27.6559 71.4281 30.55 71.2654C34.101 71.0714 37.6859 70.9726 41.2761 70.9697C44.8686 70.9828 48.4536 71.0927 52.0022 71.2986C54.8927 71.4747 57.7486 71.7203 60.5514 72.0338C61.7566 72.1554 62.8111 72.3102 63.7452 72.429C64.6792 72.5478 65.4776 72.6694 66.1103 72.7745C66.7939 72.8621 67.4524 72.9741 68.0763 73.1089V73.1089Z" fill="white"/>
</svg>
