<svg width="566" height="423" viewBox="0 0 566 423" fill="none" xmlns="http://www.w3.org/2000/svg">
<path d="M565.94 371.231H0V371.514H565.94V371.231Z" fill="#EBEBEB"/>
<path d="M509.233 389.443H471.745V389.726H509.233V389.443Z" fill="#EBEBEB"/>
<path d="M374.901 392.521H365.065V392.804H374.901V392.521Z" fill="#EBEBEB"/>
<path d="M470.613 378.939H448.893V379.222H470.613V378.939Z" fill="#EBEBEB"/>
<path d="M108.264 380.841H59.3784V381.124H108.264V380.841Z" fill="#EBEBEB"/>
<path d="M125.514 380.841H118.35V381.124H125.514V380.841Z" fill="#EBEBEB"/>
<path d="M254.843 385.617H148.809V385.9H254.843V385.617Z" fill="#EBEBEB"/>
<path d="M268.256 320.749H49.7007C47.9886 320.746 46.3476 320.064 45.138 318.852C43.9284 317.64 43.249 315.998 43.249 314.286V7.05976C43.2639 5.35744 43.9499 3.72975 45.1579 2.53023C46.3659 1.3307 47.9984 0.656236 49.7007 0.65332H268.256C269.97 0.65332 271.614 1.33425 272.826 2.5463C274.038 3.75836 274.719 5.40225 274.719 7.11636V314.286C274.719 316 274.038 317.644 272.826 318.856C271.614 320.068 269.97 320.749 268.256 320.749ZM49.7007 0.879697C48.0637 0.882696 46.4946 1.53513 45.3381 2.69379C44.1816 3.85245 43.532 5.42267 43.532 7.05976V314.286C43.532 315.923 44.1816 317.493 45.3381 318.652C46.4946 319.811 48.0637 320.463 49.7007 320.466H268.256C269.894 320.463 271.464 319.811 272.622 318.653C273.781 317.494 274.433 315.924 274.436 314.286V7.05976C274.433 5.42163 273.781 3.85144 272.622 2.6931C271.464 1.53476 269.894 0.882689 268.256 0.879697H49.7007Z" fill="#EBEBEB"/>
<path d="M513.093 320.749H294.527C292.813 320.746 291.171 320.064 289.96 318.853C288.748 317.641 288.066 315.999 288.063 314.286V7.05976C288.081 5.35641 288.77 3.72873 289.98 2.52952C291.189 1.33031 292.823 0.656205 294.527 0.65332H513.093C514.793 0.659211 516.423 1.33499 517.628 2.5342C518.834 3.7334 519.518 5.3594 519.533 7.05976V314.286C519.533 315.996 518.855 317.637 517.648 318.848C516.441 320.06 514.803 320.743 513.093 320.749ZM294.527 0.879697C292.888 0.882689 291.318 1.53476 290.16 2.6931C289.002 3.85144 288.349 5.42163 288.346 7.05976V314.286C288.349 315.924 289.002 317.494 290.16 318.653C291.318 319.811 292.888 320.463 294.527 320.466H513.093C514.731 320.463 516.301 319.811 517.459 318.653C518.618 317.494 519.27 315.924 519.273 314.286V7.05976C519.27 5.42163 518.618 3.85144 517.459 2.6931C516.301 1.53476 514.731 0.882689 513.093 0.879697H294.527Z" fill="#EBEBEB"/>
<path d="M96.9118 330.099C96.9118 329.646 95.3838 285.186 88.151 278.157C81.1221 271.365 73.0518 277.896 72.7122 278.157L71.9878 277.296C72.0783 277.217 81.19 269.781 88.966 277.296C96.527 284.642 98.021 328.163 98.021 330.019L96.9118 330.099Z" fill="#E0E0E0"/>
<path d="M97.5344 338.837C97.5344 338.305 92.5881 285.458 111.887 263.307L112.736 264.054C93.7652 285.831 98.6097 338.192 98.6549 338.758L97.5344 338.837Z" fill="#E0E0E0"/>
<path d="M96.8096 333.246L95.6777 333.166C95.6777 332.566 99.4468 273.097 85.2983 260.069L86.0567 259.243C100.624 272.622 96.9793 330.778 96.8096 333.246Z" fill="#E0E0E0"/>
<path d="M98.6548 333.211H97.5229C97.5229 331.57 97.9983 293.04 108.944 286.804C109.98 286.129 111.165 285.713 112.396 285.593C113.628 285.473 114.87 285.651 116.018 286.113C122.639 288.841 125.922 300.624 126.058 301.122L124.926 301.428C124.926 301.303 121.666 289.679 115.554 287.155C114.562 286.766 113.493 286.62 112.434 286.729C111.375 286.837 110.357 287.196 109.464 287.777C99.1189 293.686 98.6661 332.815 98.6548 333.211Z" fill="#E0E0E0"/>
<path d="M94.3988 333.234L93.2669 333.177C93.2669 332.871 94.9195 302.718 86.7812 292.101C84.8118 289.52 82.6725 288.298 80.4088 288.456C75.0776 288.83 70.6067 296.629 70.5614 296.708L69.5767 296.153C69.7691 295.814 74.3872 287.743 80.3295 287.324C82.9894 287.143 85.4569 288.513 87.6754 291.411C96.074 302.367 94.4667 331.977 94.3988 333.234Z" fill="#E0E0E0"/>
<path d="M96.2098 337.342C95.9947 334.411 90.8899 265.57 99.8657 253.447L100.771 254.115C92.0558 265.909 97.285 336.539 97.3756 337.252L96.2098 337.342Z" fill="#E0E0E0"/>
<path d="M118.463 293.04C118.463 293.04 113.075 295.021 114.682 299.707C116.289 304.393 133.29 312.09 133.29 312.09C133.29 312.09 140.421 305.559 133.879 294.942C127.337 284.325 118.61 289.69 118.463 293.04Z" fill="#EBEBEB"/>
<path d="M95.0781 284.121C95.0781 284.121 100.817 283.883 101.134 288.818C101.451 293.753 88.6829 307.427 88.6829 307.427C88.6829 307.427 79.6279 304.133 81.5408 291.818C83.4537 279.503 93.6519 281.088 95.0781 284.121Z" fill="#EBEBEB"/>
<path d="M90.2224 260.488C90.2224 260.488 94.0368 260.08 93.7312 257.749C93.4256 255.417 78.8809 249.441 70.3013 259.118C70.3013 259.118 75.8022 268.558 83.7367 268.683C91.6712 268.807 90.2224 260.488 90.2224 260.488Z" fill="#EBEBEB"/>
<path d="M97.3417 254.839C97.3417 254.839 93.8782 256.515 92.9048 254.375C91.9313 252.236 101.111 239.457 113.516 243.147C113.516 243.147 113.845 254.058 107.166 258.36C100.488 262.661 97.3417 254.839 97.3417 254.839Z" fill="#EBEBEB"/>
<path d="M79.2318 291.162C79.2318 291.162 81.8691 289.034 79.0168 287.993C76.1644 286.952 62.2197 287.246 62.0386 301.078C62.0386 301.078 78.2924 303.771 80.3071 298.508C82.3219 293.245 79.2318 291.162 79.2318 291.162Z" fill="#EBEBEB"/>
<path d="M112.407 260.137C112.407 260.137 109.77 258.009 112.611 256.979C115.452 255.949 129.419 256.232 129.589 270.063C129.589 270.063 113.335 272.757 111.321 267.494C109.306 262.231 112.407 260.137 112.407 260.137Z" fill="#EBEBEB"/>
<path d="M103.816 271.286C103.816 271.286 103.578 268.694 105.672 269.713C107.766 270.731 115.033 278.575 107.495 286.023C107.495 286.023 97.3077 278.508 99.164 274.591C101.02 270.675 103.816 271.286 103.816 271.286Z" fill="#EBEBEB"/>
<path d="M76.9 274.965C76.9 274.965 78.4733 272.905 76.1643 272.644C73.8553 272.384 63.5099 275.157 65.9208 285.48C65.9208 285.48 78.5186 284.529 79.0619 280.239C79.6052 275.949 76.9 274.965 76.9 274.965Z" fill="#EBEBEB"/>
<path d="M119.47 371.536H76.2322L71.5688 324.201H124.133L119.47 371.536Z" fill="#F0F0F0"/>
<path d="M126.442 318.983H69.2598V329.431H126.442V318.983Z" fill="#E6E6E6"/>
<path d="M361.704 371.537H473.443L473.443 70.3437H361.704L361.704 371.537Z" fill="#EBEBEB"/>
<path d="M437.857 215.847H463.573V103.462H437.857V215.847Z" fill="#FAFAFA"/>
<path d="M454.88 238.552C454.88 239.566 455.181 240.558 455.744 241.401C456.308 242.244 457.109 242.901 458.046 243.289C458.983 243.677 460.013 243.779 461.008 243.581C462.003 243.383 462.916 242.895 463.633 242.178C464.35 241.461 464.839 240.547 465.037 239.553C465.235 238.558 465.133 237.527 464.745 236.59C464.357 235.653 463.7 234.852 462.856 234.289C462.013 233.726 461.022 233.425 460.008 233.425C458.648 233.425 457.344 233.965 456.382 234.927C455.421 235.888 454.88 237.192 454.88 238.552Z" fill="#E0E0E0"/>
<path d="M396.136 59.8164L439.022 59.8164V49.6974L396.136 49.6974V59.8164Z" fill="#F5F5F5"/>
<path d="M273.338 174.782V73.6934H193.778V174.782H273.338Z" fill="#E6E6E6"/>
<path d="M195.589 172.96H271.527V75.505L195.589 75.505V172.96Z" fill="#F0F0F0"/>
<path d="M215.148 121.199C218.091 124.458 218.826 117.995 218.826 117.995L227.248 103.654L229.07 118.369L222.754 163.848C222.754 163.848 216.947 165.568 216.585 166.542C216.223 167.515 226.512 167.776 227.621 166.542C228.73 165.308 226.489 163.848 226.489 163.848L234.412 126.247L234.548 126.847L242.381 163.848C242.381 163.848 240.185 165.308 241.249 166.542C242.313 167.776 252.647 167.515 252.273 166.542C251.9 165.568 246.116 163.848 246.116 163.848L239.879 118.369L241.702 103.654L250.146 117.995C250.146 117.995 250.881 124.458 253.824 121.199C256.767 117.939 251.56 115.019 251.56 115.019L242.415 99.1722L237.367 97.4291L236.235 96.0256C236.235 96.0256 242.709 84.4012 234.56 84.1748H234.311C226.161 84.4012 232.624 96.0256 232.624 96.0256L231.492 97.4291L226.512 99.127L217.321 114.973C217.321 114.973 212.216 117.961 215.148 121.199Z" fill="#FAFAFA"/>
<path d="M234.605 84.1406V126.858L242.438 163.859C242.438 163.859 240.242 165.319 241.306 166.553C242.37 167.787 252.704 167.526 252.33 166.553C251.957 165.579 246.173 163.859 246.173 163.859L239.88 118.369L241.702 103.654L250.146 117.995C250.146 117.995 250.881 124.458 253.824 121.198C256.767 117.939 251.561 115.018 251.561 115.018L242.415 99.172L237.367 97.4289L236.235 96.0254C236.235 96.0254 242.755 84.4123 234.605 84.1406Z" fill="#E6E6E6"/>
<path d="M207.304 90.9551H217.819V86.8577H207.304V90.9551Z" fill="#E6E6E6"/>
<path d="M203.739 109.37H214.254V105.273H203.739V109.37Z" fill="#E6E6E6"/>
<path d="M253.643 128.726H264.158V124.628H253.643V128.726Z" fill="#E6E6E6"/>
<path d="M249.444 90.8076H259.959V86.7102H249.444V90.8076Z" fill="#E6E6E6"/>
<path d="M207.304 135.517H217.819V131.419H207.304V135.517Z" fill="#E6E6E6"/>
<path d="M250.768 151.182H261.283V147.084H250.768V151.182Z" fill="#E6E6E6"/>
<path d="M202.04 155.279H212.556V151.182H202.04V155.279Z" fill="#E6E6E6"/>
<path d="M104.484 73.2295V175.269H181.327V73.2295H104.484Z" fill="#E6E6E6"/>
<path d="M179.516 75.0293H106.306V173.446H179.516V75.0293Z" fill="#F5F5F5"/>
<path d="M179.516 75.0293H106.306V99.4892H179.516V75.0293Z" fill="#FAFAFA"/>
<path d="M179.516 122.127H106.306V149.02H179.516V122.127Z" fill="#FAFAFA"/>
<path d="M113.188 86.1785C113.188 87.6453 113.623 89.0791 114.438 90.2985C115.253 91.518 116.412 92.4682 117.767 93.029C119.123 93.5898 120.614 93.736 122.052 93.449C123.491 93.162 124.812 92.4548 125.848 91.4168C126.885 90.3788 127.59 89.0568 127.875 87.6179C128.159 86.179 128.011 84.688 127.448 83.3335C126.885 81.979 125.933 80.8219 124.712 80.0086C123.492 79.1953 122.057 78.7624 120.59 78.7647C119.617 78.7647 118.654 78.9565 117.755 79.3292C116.856 79.7019 116.04 80.2482 115.352 80.9368C114.665 81.6254 114.12 82.4428 113.748 83.3422C113.377 84.2416 113.187 85.2054 113.188 86.1785Z" fill="#F5F5F5"/>
<path d="M168.231 118.063C172.326 118.063 175.645 114.744 175.645 110.649C175.645 106.555 172.326 103.235 168.231 103.235C164.137 103.235 160.817 106.555 160.817 110.649C160.817 114.744 164.137 118.063 168.231 118.063Z" fill="#FAFAFA"/>
<path d="M119.708 144.199C123.802 144.199 127.122 140.879 127.122 136.785C127.122 132.69 123.802 129.371 119.708 129.371C115.613 129.371 112.294 132.69 112.294 136.785C112.294 140.879 115.613 144.199 119.708 144.199Z" fill="#F5F5F5"/>
<path d="M167.36 168.669C171.455 168.669 174.774 165.35 174.774 161.256C174.774 157.161 171.455 153.842 167.36 153.842C163.266 153.842 159.946 157.161 159.946 161.256C159.946 165.35 163.266 168.669 167.36 168.669Z" fill="#FAFAFA"/>
<path d="M282.97 422.346C404.175 422.346 502.431 416.61 502.431 409.534C502.431 402.457 404.175 396.721 282.97 396.721C161.766 396.721 63.5098 402.457 63.5098 409.534C63.5098 416.61 161.766 422.346 282.97 422.346Z" fill="#F5F5F5"/>
<path d="M462.328 394.797C462.328 394.797 468.293 366.635 457.438 351.378C446.584 336.12 467.241 351.197 469.617 365.481C469.617 365.481 473.183 339.946 462.656 321.972C452.13 303.997 471.825 318.757 473.5 337.275C473.5 337.275 476.726 314.49 471.893 301.688C467.059 288.887 475.469 297.161 478.684 305.14C481.898 313.12 477.665 333.041 477.665 333.041C477.665 333.041 486.109 296.289 494.111 299.221C502.114 302.152 482.159 326.216 479.397 338.746C479.397 338.746 488.826 321.892 495.979 325.401C503.132 328.91 484.898 330.653 476.556 355.781L473.624 367.564C473.624 367.564 482.295 350.936 487.965 356.177C493.636 361.418 471.168 370.484 465.939 395.68L462.328 394.797Z" fill="#407BFF"/>
<path d="M463.494 396.415C463.494 396.415 464.75 360.908 482.294 345.876C499.839 330.845 470.602 342.741 463.494 359.142C463.494 359.142 466.889 327.449 484.807 309.113C502.725 290.777 474.779 302.525 467.252 324.201C467.252 324.201 470.183 295.904 479.793 282.061C489.403 268.218 476.861 275.519 470.602 284.166C464.343 292.814 463.494 317.885 463.494 317.885C463.494 317.885 464.331 271.353 453.884 272.474C443.437 273.595 460.155 308.377 459.736 324.201C459.736 324.201 453.465 301.201 443.89 303.284C434.314 305.366 455.593 312.871 458.095 345.458V360.444C458.095 360.444 452.639 337.953 444.274 342.481C435.91 347.008 460.121 364.62 458.898 396.37L463.494 396.415Z" fill="#407BFF"/>
<path opacity="0.2" d="M463.494 396.415C463.494 396.415 464.75 360.908 482.294 345.876C499.839 330.845 470.602 342.741 463.494 359.142C463.494 359.142 466.889 327.449 484.807 309.113C502.725 290.777 474.779 302.525 467.252 324.201C467.252 324.201 470.183 295.904 479.793 282.061C489.403 268.218 476.861 275.519 470.602 284.166C464.343 292.814 463.494 317.885 463.494 317.885C463.494 317.885 464.331 271.353 453.884 272.474C443.437 273.595 460.155 308.377 459.736 324.201C459.736 324.201 453.465 301.201 443.89 303.284C434.314 305.366 455.593 312.871 458.095 345.458V360.444C458.095 360.444 452.639 337.953 444.274 342.481C435.91 347.008 460.121 364.62 458.898 396.37L463.494 396.415Z" fill="white"/>
<path d="M474.824 412.363H448.123C444.821 412.363 441.654 411.052 439.319 408.717C436.984 406.382 435.672 403.215 435.672 399.913V394.344H487.275V399.913C487.275 403.215 485.963 406.382 483.628 408.717C481.293 411.052 478.126 412.363 474.824 412.363Z" fill="#263238"/>
<path d="M494.077 391.378V395.306C494.077 396.569 493.575 397.781 492.682 398.675C491.788 399.569 490.576 400.071 489.312 400.071H433.737C433.111 400.072 432.49 399.95 431.912 399.711C431.333 399.472 430.807 399.121 430.364 398.678C429.921 398.236 429.57 397.71 429.331 397.131C429.092 396.552 428.97 395.932 428.972 395.306V391.378H494.077Z" fill="#263238"/>
<path opacity="0.2" d="M494.077 391.378V395.306C494.077 396.569 493.575 397.781 492.682 398.675C491.788 399.569 490.576 400.071 489.312 400.071H433.737C433.111 400.072 432.49 399.95 431.912 399.711C431.333 399.472 430.807 399.121 430.364 398.678C429.921 398.236 429.57 397.71 429.331 397.131C429.092 396.552 428.97 395.932 428.972 395.306V391.378H494.077Z" fill="white"/>
<path d="M332.614 103.145C325.309 103.143 318.145 105.152 311.907 108.953C305.669 112.754 300.598 118.2 297.25 124.693C293.903 131.185 292.408 138.475 292.93 145.761C293.452 153.047 295.97 160.049 300.209 165.998L288.55 179.581L304.566 171.137C309.203 175.746 314.904 179.141 321.165 181.022C327.427 182.904 334.055 183.213 340.464 181.923C346.873 180.633 352.866 177.783 357.911 173.626C362.957 169.469 366.901 164.133 369.394 158.089C371.886 152.046 372.851 145.481 372.203 138.975C371.555 132.47 369.314 126.224 365.678 120.791C362.042 115.358 357.123 110.905 351.356 107.825C345.589 104.745 339.152 103.134 332.614 103.134V103.145Z" fill="#407BFF"/>
<path opacity="0.7" d="M332.614 103.145C325.309 103.143 318.145 105.152 311.907 108.953C305.669 112.754 300.598 118.2 297.25 124.693C293.903 131.185 292.408 138.475 292.93 145.761C293.452 153.047 295.97 160.049 300.209 165.998L288.55 179.581L304.566 171.137C309.203 175.746 314.904 179.141 321.165 181.022C327.427 182.904 334.055 183.213 340.464 181.923C346.873 180.633 352.866 177.783 357.911 173.626C362.957 169.469 366.901 164.133 369.394 158.089C371.886 152.046 372.851 145.481 372.203 138.975C371.555 132.47 369.314 126.224 365.678 120.791C362.042 115.358 357.123 110.905 351.356 107.825C345.589 104.745 339.152 103.134 332.614 103.134V103.145Z" fill="white"/>
<path d="M324.85 127.424L327.804 132.597C327.694 132.844 327.507 133.05 327.272 133.185C327.02 133.302 326.734 133.322 326.468 133.242L324.205 127.741L324.85 127.424Z" fill="#407BFF"/>
<path opacity="0.1" d="M324.85 127.424L327.804 132.597C327.694 132.844 327.507 133.05 327.272 133.185C327.02 133.302 326.734 133.322 326.468 133.242L324.205 127.741L324.85 127.424Z" fill="white"/>
<path d="M323.638 127.808C323.763 128.058 324.227 128.069 324.68 127.808C325.133 127.548 325.404 127.209 325.28 126.96C325.155 126.711 324.702 126.699 324.25 126.96C323.797 127.22 323.525 127.559 323.638 127.808Z" fill="#407BFF"/>
<path opacity="0.1" d="M323.638 127.808C323.763 128.058 324.227 128.069 324.68 127.808C325.133 127.548 325.404 127.209 325.28 126.96C325.155 126.711 324.702 126.699 324.25 126.96C323.797 127.22 323.525 127.559 323.638 127.808Z" fill="white"/>
<path d="M316.429 135.879L322.088 137.837C322.175 138.098 322.175 138.38 322.088 138.641C321.975 138.892 321.773 139.093 321.522 139.207L316.202 136.535L316.429 135.879Z" fill="#407BFF"/>
<path opacity="0.1" d="M316.429 135.879L322.088 137.837C322.175 138.098 322.175 138.38 322.088 138.641C321.975 138.892 321.773 139.093 321.522 139.207L316.202 136.535L316.429 135.879Z" fill="white"/>
<path d="M315.795 136.999C316.044 137.112 316.417 136.818 316.61 136.354C316.802 135.89 316.757 135.426 316.508 135.313C316.259 135.2 315.897 135.505 315.693 135.969C315.489 136.433 315.557 136.897 315.795 136.999Z" fill="#407BFF"/>
<path opacity="0.1" d="M315.795 136.999C316.044 137.112 316.417 136.818 316.61 136.354C316.802 135.89 316.757 135.426 316.508 135.313C316.259 135.2 315.897 135.505 315.693 135.969C315.489 136.433 315.557 136.897 315.795 136.999Z" fill="white"/>
<path d="M318.059 153.355L322.88 149.869C323.142 149.952 323.369 150.119 323.526 150.345C323.674 150.576 323.726 150.856 323.673 151.126L318.432 153.955L318.059 153.355Z" fill="#407BFF"/>
<path opacity="0.1" d="M318.059 153.355L322.88 149.869C323.142 149.952 323.369 150.119 323.526 150.345C323.674 150.576 323.726 150.856 323.673 151.126L318.432 153.955L318.059 153.355Z" fill="white"/>
<path d="M318.602 154.498C318.84 154.351 318.806 153.887 318.545 153.468C318.285 153.049 317.866 152.812 317.64 152.947C317.413 153.083 317.436 153.559 317.696 153.989C317.957 154.419 318.376 154.645 318.602 154.498Z" fill="#407BFF"/>
<path opacity="0.1" d="M318.602 154.498C318.84 154.351 318.806 153.887 318.545 153.468C318.285 153.049 317.866 152.812 317.64 152.947C317.413 153.083 317.436 153.559 317.696 153.989C317.957 154.419 318.376 154.645 318.602 154.498Z" fill="white"/>
<path d="M326.061 159.184L327.668 153.457C327.925 153.37 328.204 153.37 328.461 153.457C328.721 153.55 328.939 153.735 329.072 153.978L326.74 159.456L326.061 159.184Z" fill="#407BFF"/>
<path opacity="0.1" d="M326.061 159.184L327.668 153.457C327.925 153.37 328.204 153.37 328.461 153.457C328.721 153.55 328.939 153.735 329.072 153.978L326.74 159.456L326.061 159.184Z" fill="white"/>
<path d="M327.215 159.728C327.306 159.479 327 159.128 326.525 158.958C326.05 158.788 325.585 158.867 325.495 159.128C325.404 159.388 325.721 159.728 326.197 159.897C326.672 160.067 327.114 159.988 327.215 159.728Z" fill="#407BFF"/>
<path opacity="0.1" d="M327.215 159.728C327.306 159.479 327 159.128 326.525 158.958C326.05 158.788 325.585 158.867 325.495 159.128C325.404 159.388 325.721 159.728 326.197 159.897C326.672 160.067 327.114 159.988 327.215 159.728Z" fill="white"/>
<path d="M337.617 157.871L334.776 152.642C334.894 152.395 335.089 152.192 335.331 152.065C335.586 151.969 335.868 151.969 336.123 152.065L338.274 157.622L337.617 157.871Z" fill="#407BFF"/>
<path opacity="0.1" d="M337.617 157.871L334.776 152.642C334.894 152.395 335.089 152.192 335.331 152.065C335.586 151.969 335.868 151.969 336.123 152.065L338.274 157.622L337.617 157.871Z" fill="white"/>
<path d="M338.828 157.453C338.715 157.204 338.251 157.181 337.798 157.396C337.346 157.611 337.063 157.973 337.176 158.222C337.289 158.471 337.753 158.505 338.206 158.29C338.659 158.075 338.942 157.702 338.828 157.453Z" fill="#407BFF"/>
<path opacity="0.1" d="M338.828 157.453C338.715 157.204 338.251 157.181 337.798 157.396C337.346 157.611 337.063 157.973 337.176 158.222C337.289 158.471 337.753 158.505 338.206 158.29C338.659 158.075 338.942 157.702 338.828 157.453Z" fill="white"/>
<path d="M350.668 140.916L344.873 142.285C344.662 142.106 344.515 141.864 344.454 141.595C344.414 141.322 344.474 141.045 344.624 140.814L350.555 140.214L350.668 140.916Z" fill="#407BFF"/>
<path opacity="0.1" d="M350.668 140.916L344.873 142.285C344.662 142.106 344.515 141.864 344.454 141.595C344.414 141.322 344.474 141.045 344.624 140.814L350.555 140.214L350.668 140.916Z" fill="white"/>
<path d="M350.588 139.637C350.317 139.637 350.17 140.123 350.249 140.621C350.328 141.119 350.622 141.493 350.894 141.448C351.166 141.402 351.313 140.961 351.222 140.463C351.132 139.965 350.883 139.591 350.588 139.637Z" fill="#407BFF"/>
<path opacity="0.1" d="M350.588 139.637C350.317 139.637 350.17 140.123 350.249 140.621C350.328 141.119 350.622 141.493 350.894 141.448C351.166 141.402 351.313 140.961 351.222 140.463C351.132 139.965 350.883 139.591 350.588 139.637Z" fill="white"/>
<path d="M339.191 128.42L336.814 133.887C336.544 133.943 336.263 133.916 336.01 133.808C335.767 133.675 335.582 133.457 335.489 133.197L338.557 128.092L339.191 128.42Z" fill="#407BFF"/>
<path opacity="0.1" d="M339.191 128.42L336.814 133.887C336.544 133.943 336.263 133.916 336.01 133.808C335.767 133.675 335.582 133.457 335.489 133.197L338.557 128.092L339.191 128.42Z" fill="white"/>
<path d="M338.116 127.729C337.991 127.967 338.251 128.352 338.704 128.589C339.157 128.827 339.621 128.804 339.745 128.589C339.87 128.374 339.61 127.956 339.157 127.729C338.704 127.503 338.24 127.48 338.116 127.729Z" fill="#407BFF"/>
<path opacity="0.1" d="M338.116 127.729C337.991 127.967 338.251 128.352 338.704 128.589C339.157 128.827 339.621 128.804 339.745 128.589C339.87 128.374 339.61 127.956 339.157 127.729C338.704 127.503 338.24 127.48 338.116 127.729Z" fill="white"/>
<path d="M345.699 151.579L340.277 149.123C340.222 148.856 340.253 148.578 340.368 148.33C340.501 148.088 340.719 147.903 340.979 147.81L346.039 150.945L345.699 151.579Z" fill="#407BFF"/>
<path opacity="0.1" d="M345.699 151.579L340.277 149.123C340.222 148.856 340.253 148.578 340.368 148.33C340.501 148.088 340.719 147.903 340.979 147.81L346.039 150.945L345.699 151.579Z" fill="white"/>
<path d="M346.412 150.514C346.174 150.39 345.79 150.639 345.552 151.092C345.314 151.544 345.314 151.997 345.552 152.122C345.79 152.246 346.186 151.997 346.423 151.556C346.661 151.114 346.661 150.639 346.412 150.514Z" fill="#407BFF"/>
<path opacity="0.1" d="M346.412 150.514C346.174 150.39 345.79 150.639 345.552 151.092C345.314 151.544 345.314 151.997 345.552 152.122C345.79 152.246 346.186 151.997 346.423 151.556C346.661 151.114 346.661 150.639 346.412 150.514Z" fill="white"/>
<path d="M331.935 157.057C339.618 157.057 345.846 150.829 345.846 143.146C345.846 135.463 339.618 129.235 331.935 129.235C324.253 129.235 318.024 135.463 318.024 143.146C318.024 150.829 324.253 157.057 331.935 157.057Z" fill="#407BFF"/>
<path opacity="0.2" d="M331.935 157.057C339.618 157.057 345.846 150.829 345.846 143.146C345.846 135.463 339.618 129.235 331.935 129.235C324.253 129.235 318.024 135.463 318.024 143.146C318.024 150.829 324.253 157.057 331.935 157.057Z" fill="white"/>
<path d="M332.286 124.447L332.683 130.39C332.471 130.565 332.209 130.668 331.936 130.684C331.659 130.68 331.393 130.576 331.188 130.39L331.573 124.447H332.286Z" fill="#407BFF"/>
<path opacity="0.4" d="M332.286 124.447L332.683 130.39C332.471 130.565 332.209 130.668 331.936 130.684C331.659 130.68 331.393 130.576 331.188 130.39L331.573 124.447H332.286Z" fill="white"/>
<path d="M331.019 124.322C331.019 124.594 331.426 124.809 331.935 124.809C332.445 124.809 332.852 124.594 332.852 124.322C332.852 124.051 332.433 123.824 331.935 123.824C331.437 123.824 331.019 124.028 331.019 124.322Z" fill="#407BFF"/>
<path opacity="0.2" d="M331.019 124.322C331.019 124.594 331.426 124.809 331.935 124.809C332.445 124.809 332.852 124.594 332.852 124.322C332.852 124.051 332.433 123.824 331.935 123.824C331.437 123.824 331.019 124.028 331.019 124.322Z" fill="white"/>
<path d="M321.375 131.125L326.049 134.815C326.044 135.087 325.948 135.35 325.778 135.562C325.589 135.768 325.331 135.897 325.053 135.924L320.899 131.657L321.375 131.125Z" fill="#407BFF"/>
<path opacity="0.4" d="M321.375 131.125L326.049 134.815C326.044 135.087 325.948 135.35 325.778 135.562C325.589 135.768 325.331 135.897 325.053 135.924L320.899 131.657L321.375 131.125Z" fill="white"/>
<path d="M320.436 131.951C320.639 132.132 321.069 131.951 321.409 131.6C321.749 131.249 321.862 130.774 321.658 130.593C321.454 130.412 321.013 130.593 320.673 130.944C320.334 131.295 320.232 131.804 320.436 131.951Z" fill="#407BFF"/>
<path opacity="0.2" d="M320.436 131.951C320.639 132.132 321.069 131.951 321.409 131.6C321.749 131.249 321.862 130.774 321.658 130.593C321.454 130.412 321.013 130.593 320.673 130.944C320.334 131.295 320.232 131.804 320.436 131.951Z" fill="white"/>
<path d="M345.529 130.344L341.341 134.578C341.073 134.537 340.824 134.415 340.628 134.227C340.448 134.016 340.351 133.746 340.357 133.468L345.054 129.812L345.529 130.344Z" fill="#407BFF"/>
<path opacity="0.4" d="M345.529 130.344L341.341 134.578C341.073 134.537 340.824 134.415 340.628 134.227C340.448 134.016 340.351 133.746 340.357 133.468L345.054 129.812L345.529 130.344Z" fill="white"/>
<path d="M344.782 129.314C344.579 129.495 344.68 129.948 345.02 130.322C345.36 130.695 345.79 130.865 345.993 130.684C346.197 130.503 346.095 130.039 345.756 129.665C345.416 129.292 344.986 129.133 344.782 129.314Z" fill="#407BFF"/>
<path opacity="0.2" d="M344.782 129.314C344.579 129.495 344.68 129.948 345.02 130.322C345.36 130.695 345.79 130.865 345.993 130.684C346.197 130.503 346.095 130.039 345.756 129.665C345.416 129.292 344.986 129.133 344.782 129.314Z" fill="white"/>
<path d="M346.661 137.362L342.36 139.625C342.137 139.478 341.96 139.27 341.851 139.025C341.768 138.772 341.768 138.498 341.851 138.244L346.356 136.705L346.661 137.362Z" fill="#407BFF"/>
<path opacity="0.4" d="M346.661 137.362L342.36 139.625C342.137 139.478 341.96 139.27 341.851 139.025C341.768 138.772 341.768 138.498 341.851 138.244L346.356 136.705L346.661 137.362Z" fill="white"/>
<path d="M346.118 136.219C345.823 136.343 345.744 136.819 345.936 137.283C346.129 137.747 346.525 138.03 346.819 137.905C347.114 137.781 347.193 137.305 346.989 136.841C346.785 136.377 346.355 136.094 346.118 136.219Z" fill="#407BFF"/>
<path opacity="0.2" d="M346.118 136.219C345.823 136.343 345.744 136.819 345.936 137.283C346.129 137.747 346.525 138.03 346.819 137.905C347.114 137.781 347.193 137.305 346.989 136.841C346.785 136.377 346.355 136.094 346.118 136.219Z" fill="white"/>
<path d="M337.199 133.819L336.757 135.88C336.757 135.88 336.248 136.23 335.874 136.072C335.738 135.992 335.623 135.88 335.538 135.746C335.453 135.612 335.402 135.46 335.388 135.302L336.52 133.548L337.199 133.819Z" fill="#407BFF"/>
<path opacity="0.5" d="M337.199 133.819L336.757 135.88C336.757 135.88 336.248 136.23 335.874 136.072C335.738 135.992 335.623 135.88 335.538 135.746C335.453 135.612 335.402 135.46 335.388 135.302L336.52 133.548L337.199 133.819Z" fill="white"/>
<path d="M335.84 133.773C335.771 133.992 335.786 134.229 335.883 134.437C335.979 134.645 336.15 134.809 336.362 134.897C336.574 134.985 336.811 134.991 337.026 134.913C337.242 134.835 337.421 134.679 337.527 134.475C337.596 134.257 337.581 134.02 337.484 133.812C337.388 133.604 337.217 133.44 337.005 133.352C336.793 133.263 336.556 133.258 336.341 133.336C336.125 133.414 335.946 133.57 335.84 133.773Z" fill="#407BFF"/>
<path opacity="0.3" d="M335.84 133.773C335.771 133.992 335.786 134.229 335.883 134.437C335.979 134.645 336.15 134.809 336.362 134.897C336.574 134.985 336.811 134.991 337.026 134.913C337.242 134.835 337.421 134.679 337.527 134.475C337.596 134.257 337.581 134.02 337.484 133.812C337.388 133.604 337.217 133.44 337.005 133.352C336.793 133.263 336.556 133.258 336.341 133.336C336.125 133.414 335.946 133.57 335.84 133.773Z" fill="white"/>
<path d="M329.377 132.959L330.43 134.781C330.43 134.781 330.283 135.37 329.898 135.506C329.744 135.539 329.585 135.534 329.433 135.493C329.282 135.451 329.142 135.374 329.026 135.268L328.709 133.197L329.377 132.959Z" fill="#407BFF"/>
<path opacity="0.5" d="M329.377 132.959L330.43 134.781C330.43 134.781 330.283 135.37 329.898 135.506C329.744 135.539 329.585 135.534 329.433 135.493C329.282 135.451 329.142 135.374 329.026 135.268L328.709 133.197L329.377 132.959Z" fill="white"/>
<path d="M328.381 133.831C328.485 134.028 328.656 134.181 328.864 134.262C329.071 134.343 329.301 134.347 329.511 134.273C329.721 134.199 329.897 134.052 330.008 133.858C330.118 133.665 330.156 133.438 330.113 133.22C330.009 133.023 329.838 132.87 329.63 132.788C329.423 132.707 329.193 132.703 328.983 132.778C328.773 132.852 328.597 132.999 328.486 133.192C328.376 133.386 328.338 133.612 328.381 133.831Z" fill="#407BFF"/>
<path opacity="0.3" d="M328.381 133.831C328.485 134.028 328.656 134.181 328.864 134.262C329.071 134.343 329.301 134.347 329.511 134.273C329.721 134.199 329.897 134.052 330.008 133.858C330.118 133.665 330.156 133.438 330.113 133.22C330.009 133.023 329.838 132.87 329.63 132.788C329.423 132.707 329.193 132.703 328.983 132.778C328.773 132.852 328.597 132.999 328.486 133.192C328.376 133.386 328.338 133.612 328.381 133.831Z" fill="white"/>
<path d="M323.356 138.652L325.404 139.105C325.404 139.105 325.755 139.626 325.586 139.999C325.416 140.373 324.827 140.486 324.827 140.486L323.073 139.354L323.356 138.652Z" fill="#407BFF"/>
<path opacity="0.5" d="M323.356 138.652L325.404 139.105C325.404 139.105 325.755 139.626 325.586 139.999C325.416 140.373 324.827 140.486 324.827 140.486L323.073 139.354L323.356 138.652Z" fill="white"/>
<path d="M323.299 140.01C323.461 140.105 323.647 140.149 323.834 140.135C324.02 140.121 324.198 140.05 324.344 139.932C324.489 139.814 324.594 139.654 324.646 139.474C324.698 139.294 324.693 139.103 324.633 138.925C324.573 138.748 324.46 138.594 324.309 138.483C324.158 138.371 323.977 138.309 323.79 138.304C323.603 138.299 323.419 138.351 323.262 138.454C323.106 138.557 322.984 138.705 322.914 138.878C322.816 139.08 322.802 139.312 322.874 139.524C322.946 139.736 323.099 139.91 323.299 140.01Z" fill="#407BFF"/>
<path opacity="0.3" d="M323.299 140.01C323.461 140.105 323.647 140.149 323.834 140.135C324.02 140.121 324.198 140.05 324.344 139.932C324.489 139.814 324.594 139.654 324.646 139.474C324.698 139.294 324.693 139.103 324.633 138.925C324.573 138.748 324.46 138.594 324.309 138.483C324.158 138.371 323.977 138.309 323.79 138.304C323.603 138.299 323.419 138.351 323.262 138.454C323.106 138.557 322.984 138.705 322.914 138.878C322.816 139.08 322.802 139.312 322.874 139.524C322.946 139.736 323.099 139.91 323.299 140.01Z" fill="white"/>
<path d="M324.985 149.156L326.117 147.379C326.117 147.379 326.717 147.232 327.011 147.515C327.112 147.636 327.181 147.779 327.215 147.933C327.248 148.087 327.245 148.246 327.204 148.398L325.506 149.643L324.985 149.156Z" fill="#407BFF"/>
<path opacity="0.5" d="M324.985 149.156L326.117 147.379C326.117 147.379 326.717 147.232 327.011 147.515C327.112 147.636 327.181 147.779 327.215 147.933C327.248 148.087 327.245 148.246 327.204 148.398L325.506 149.643L324.985 149.156Z" fill="white"/>
<path d="M326.242 149.676C326.384 149.552 326.485 149.387 326.531 149.204C326.577 149.021 326.566 148.828 326.5 148.651C326.433 148.475 326.314 148.322 326.159 148.215C326.004 148.107 325.82 148.05 325.631 148.05C325.442 148.05 325.258 148.107 325.102 148.215C324.947 148.322 324.828 148.475 324.762 148.651C324.696 148.828 324.685 149.021 324.731 149.204C324.777 149.387 324.877 149.552 325.02 149.676C325.183 149.837 325.402 149.927 325.631 149.927C325.859 149.927 326.079 149.837 326.242 149.676Z" fill="#407BFF"/>
<path opacity="0.3" d="M326.242 149.676C326.384 149.552 326.485 149.387 326.531 149.204C326.577 149.021 326.566 148.828 326.5 148.651C326.433 148.475 326.314 148.322 326.159 148.215C326.004 148.107 325.82 148.05 325.631 148.05C325.442 148.05 325.258 148.107 325.102 148.215C324.947 148.322 324.828 148.475 324.762 148.651C324.696 148.828 324.685 149.021 324.731 149.204C324.777 149.387 324.877 149.552 325.02 149.676C325.183 149.837 325.402 149.927 325.631 149.927C325.859 149.927 326.079 149.837 326.242 149.676Z" fill="white"/>
<path d="M333.226 151.193L332.343 149.28C332.343 149.28 332.547 148.692 332.943 148.601C333.098 148.584 333.256 148.602 333.403 148.655C333.55 148.708 333.683 148.794 333.792 148.907L333.927 151.012L333.226 151.193Z" fill="#407BFF"/>
<path opacity="0.5" d="M333.226 151.193L332.343 149.28C332.343 149.28 332.547 148.692 332.943 148.601C333.098 148.584 333.256 148.602 333.403 148.655C333.55 148.708 333.683 148.794 333.792 148.907L333.927 151.012L333.226 151.193Z" fill="white"/>
<path d="M334.346 150.457C334.312 150.344 334.255 150.239 334.178 150.148C334.102 150.058 334.008 149.984 333.902 149.931C333.796 149.878 333.68 149.847 333.562 149.84C333.444 149.834 333.326 149.851 333.214 149.891C332.992 149.938 332.795 150.069 332.667 150.256C332.538 150.444 332.487 150.674 332.524 150.899C332.593 151.123 332.745 151.313 332.949 151.429C333.153 151.544 333.394 151.577 333.622 151.521C333.85 151.464 334.047 151.322 334.173 151.124C334.3 150.927 334.345 150.688 334.301 150.457H334.346Z" fill="#407BFF"/>
<path opacity="0.3" d="M334.346 150.457C334.312 150.344 334.255 150.239 334.178 150.148C334.102 150.058 334.008 149.984 333.902 149.931C333.796 149.878 333.68 149.847 333.562 149.84C333.444 149.834 333.326 149.851 333.214 149.891C332.992 149.938 332.795 150.069 332.667 150.256C332.538 150.444 332.487 150.674 332.524 150.899C332.593 151.123 332.745 151.313 332.949 151.429C333.153 151.544 333.394 151.577 333.622 151.521C333.85 151.464 334.047 151.322 334.173 151.124C334.3 150.927 334.345 150.688 334.301 150.457H334.346Z" fill="white"/>
<path d="M338.976 148.409L337.017 147.617C336.955 147.474 336.923 147.32 336.923 147.164C336.923 147.008 336.955 146.854 337.017 146.711C337.12 146.592 337.25 146.498 337.395 146.438C337.54 146.377 337.698 146.35 337.855 146.361L339.394 147.809L338.976 148.409Z" fill="#407BFF"/>
<path opacity="0.5" d="M338.976 148.409L337.017 147.617C336.955 147.474 336.923 147.32 336.923 147.164C336.923 147.008 336.955 146.854 337.017 146.711C337.12 146.592 337.25 146.498 337.395 146.438C337.54 146.377 337.698 146.35 337.855 146.361L339.394 147.809L338.976 148.409Z" fill="white"/>
<path d="M339.247 147.073C339.103 146.957 338.927 146.886 338.742 146.872C338.557 146.857 338.372 146.899 338.212 146.992C338.051 147.085 337.922 147.224 337.843 147.392C337.763 147.559 337.736 147.747 337.765 147.93C337.794 148.113 337.878 148.283 338.006 148.417C338.133 148.552 338.299 148.644 338.48 148.683C338.662 148.721 338.851 148.704 339.022 148.633C339.193 148.562 339.339 148.44 339.44 148.285C339.507 148.193 339.556 148.088 339.583 147.977C339.61 147.867 339.615 147.751 339.597 147.639C339.579 147.526 339.539 147.418 339.479 147.321C339.419 147.224 339.34 147.14 339.247 147.073Z" fill="#407BFF"/>
<path opacity="0.3" d="M339.247 147.073C339.103 146.957 338.927 146.886 338.742 146.872C338.557 146.857 338.372 146.899 338.212 146.992C338.051 147.085 337.922 147.224 337.843 147.392C337.763 147.559 337.736 147.747 337.765 147.93C337.794 148.113 337.878 148.283 338.006 148.417C338.133 148.552 338.299 148.644 338.48 148.683C338.662 148.721 338.851 148.704 339.022 148.633C339.193 148.562 339.339 148.44 339.44 148.285C339.507 148.193 339.556 148.088 339.583 147.977C339.61 147.867 339.615 147.751 339.597 147.639C339.579 147.526 339.539 147.418 339.479 147.321C339.419 147.224 339.34 147.14 339.247 147.073Z" fill="white"/>
<path d="M340.583 142.41L338.534 142.874C338.534 142.874 338.002 142.557 337.991 142.15C338.004 141.993 338.055 141.842 338.14 141.71C338.225 141.578 338.341 141.469 338.477 141.392L340.56 141.686L340.583 142.41Z" fill="#407BFF"/>
<path opacity="0.5" d="M340.583 142.41L338.534 142.874C338.534 142.874 338.002 142.557 337.991 142.15C338.004 141.993 338.055 141.842 338.14 141.71C338.225 141.578 338.341 141.469 338.477 141.392L340.56 141.686L340.583 142.41Z" fill="white"/>
<path d="M340.051 141.154C339.823 141.18 339.615 141.294 339.471 141.472C339.327 141.65 339.259 141.877 339.281 142.105C339.307 142.259 339.378 142.403 339.483 142.519C339.589 142.634 339.726 142.717 339.878 142.757C340.03 142.796 340.19 142.791 340.339 142.743C340.487 142.694 340.619 142.603 340.718 142.481C340.816 142.359 340.878 142.211 340.895 142.056C340.911 141.9 340.883 141.742 340.813 141.602C340.742 141.462 340.633 141.345 340.498 141.266C340.363 141.186 340.207 141.148 340.051 141.154Z" fill="#407BFF"/>
<path opacity="0.3" d="M340.051 141.154C339.823 141.18 339.615 141.294 339.471 141.472C339.327 141.65 339.259 141.877 339.281 142.105C339.307 142.259 339.378 142.403 339.483 142.519C339.589 142.634 339.726 142.717 339.878 142.757C340.03 142.796 340.19 142.791 340.339 142.743C340.487 142.694 340.619 142.603 340.718 142.481C340.816 142.359 340.878 142.211 340.895 142.056C340.911 141.9 340.883 141.742 340.813 141.602C340.742 141.462 340.633 141.345 340.498 141.266C340.363 141.186 340.207 141.148 340.051 141.154Z" fill="white"/>
<path d="M314.663 140.622L320.594 141.086C320.741 141.319 320.809 141.593 320.786 141.867C320.742 142.138 320.602 142.383 320.39 142.558L314.561 141.335L314.663 140.622Z" fill="#407BFF"/>
<path opacity="0.4" d="M314.663 140.622L320.594 141.086C320.741 141.319 320.809 141.593 320.786 141.867C320.742 142.138 320.602 142.383 320.39 142.558L314.561 141.335L314.663 140.622Z" fill="white"/>
<path d="M314.357 141.867C314.618 141.867 314.901 141.527 314.969 141.029C315.036 140.531 314.878 140.09 314.606 140.056C314.335 140.022 314.063 140.384 313.995 140.893C313.927 141.403 314.086 141.822 314.357 141.867Z" fill="#407BFF"/>
<path opacity="0.2" d="M314.357 141.867C314.618 141.867 314.901 141.527 314.969 141.029C315.036 140.531 314.878 140.09 314.606 140.056C314.335 140.022 314.063 140.384 313.995 140.893C313.927 141.403 314.086 141.822 314.357 141.867Z" fill="white"/>
<path d="M316.813 148.148L322.292 145.828C322.528 145.963 322.712 146.175 322.812 146.428C322.918 146.686 322.918 146.974 322.812 147.232L317.074 148.816L316.813 148.148Z" fill="#407BFF"/>
<path opacity="0.4" d="M316.813 148.148L322.292 145.828C322.528 145.963 322.712 146.175 322.812 146.428C322.918 146.686 322.918 146.974 322.812 147.232L317.074 148.816L316.813 148.148Z" fill="white"/>
<path d="M317.108 149.382C317.368 149.303 317.436 148.839 317.277 148.364C317.119 147.888 316.757 147.571 316.508 147.662C316.259 147.752 316.168 148.217 316.338 148.692C316.508 149.167 316.847 149.473 317.108 149.382Z" fill="#407BFF"/>
<path opacity="0.2" d="M317.108 149.382C317.368 149.303 317.436 148.839 317.277 148.364C317.119 147.888 316.757 147.571 316.508 147.662C316.259 147.752 316.168 148.217 316.338 148.692C316.508 149.167 316.847 149.473 317.108 149.382Z" fill="white"/>
<path d="M332.547 161.437L331.528 155.574C331.715 155.376 331.961 155.245 332.23 155.201C332.504 155.176 332.777 155.253 332.999 155.416L333.248 161.369L332.547 161.437Z" fill="#407BFF"/>
<path opacity="0.4" d="M332.547 161.437L331.528 155.574C331.715 155.376 331.961 155.245 332.23 155.201C332.504 155.176 332.777 155.253 332.999 155.416L333.248 161.369L332.547 161.437Z" fill="white"/>
<path d="M333.825 161.437C333.825 161.165 333.361 160.984 332.863 161.041C332.365 161.097 331.969 161.358 332.003 161.629C332.037 161.901 332.467 162.082 332.965 162.025C333.463 161.969 333.905 161.708 333.825 161.437Z" fill="#407BFF"/>
<path opacity="0.2" d="M333.825 161.437C333.825 161.165 333.361 160.984 332.863 161.041C332.365 161.097 331.969 161.358 332.003 161.629C332.037 161.901 332.467 162.082 332.965 162.025C333.463 161.969 333.905 161.708 333.825 161.437Z" fill="white"/>
<path d="M348.993 147.639L343.152 146.507C343.034 146.257 342.998 145.976 343.05 145.704C343.125 145.438 343.294 145.208 343.526 145.059L349.185 146.938L348.993 147.639Z" fill="#407BFF"/>
<path opacity="0.4" d="M348.993 147.639L343.152 146.507C343.034 146.257 342.998 145.976 343.05 145.704C343.125 145.438 343.294 145.208 343.526 145.059L349.185 146.938L348.993 147.639Z" fill="white"/>
<path d="M349.446 146.439C349.174 146.371 348.857 146.711 348.732 147.198C348.608 147.684 348.732 148.137 348.981 148.205C349.23 148.273 349.559 147.933 349.695 147.447C349.83 146.96 349.751 146.507 349.446 146.439Z" fill="#407BFF"/>
<path opacity="0.2" d="M349.446 146.439C349.174 146.371 348.857 146.711 348.732 147.198C348.608 147.684 348.732 148.137 348.981 148.205C349.23 148.273 349.559 147.933 349.695 147.447C349.83 146.96 349.751 146.507 349.446 146.439Z" fill="white"/>
<path d="M321.013 158.302L324.114 153.219C324.388 153.199 324.662 153.266 324.895 153.412C325.119 153.571 325.273 153.81 325.325 154.08L321.59 158.709L321.013 158.302Z" fill="#407BFF"/>
<path opacity="0.4" d="M321.013 158.302L324.114 153.219C324.388 153.199 324.662 153.266 324.895 153.412C325.119 153.571 325.273 153.81 325.325 154.08L321.59 158.709L321.013 158.302Z" fill="white"/>
<path d="M321.975 159.116C322.133 158.89 321.975 158.482 321.51 158.188C321.046 157.894 320.639 157.837 320.481 158.064C320.322 158.29 320.48 158.709 320.945 158.992C321.409 159.275 321.816 159.365 321.975 159.116Z" fill="#407BFF"/>
<path opacity="0.2" d="M321.975 159.116C322.133 158.89 321.975 158.482 321.51 158.188C321.046 157.894 320.639 157.837 320.481 158.064C320.322 158.29 320.48 158.709 320.945 158.992C321.409 159.275 321.816 159.365 321.975 159.116Z" fill="white"/>
<path d="M345.133 157.102L340.605 153.231C340.626 152.955 340.733 152.694 340.911 152.484C341.108 152.288 341.37 152.171 341.647 152.155L345.631 156.592L345.133 157.102Z" fill="#407BFF"/>
<path opacity="0.4" d="M345.133 157.102L340.605 153.231C340.626 152.955 340.733 152.694 340.911 152.484C341.108 152.288 341.37 152.171 341.647 152.155L345.631 156.592L345.133 157.102Z" fill="white"/>
<path d="M346.106 156.276C345.914 156.095 345.472 156.276 345.121 156.593C344.771 156.91 344.635 157.397 344.839 157.589C345.042 157.781 345.472 157.589 345.823 157.283C346.174 156.978 346.355 156.468 346.106 156.276Z" fill="#407BFF"/>
<path opacity="0.2" d="M346.106 156.276C345.914 156.095 345.472 156.276 345.121 156.593C344.771 156.91 344.635 157.397 344.839 157.589C345.042 157.781 345.472 157.589 345.823 157.283C346.174 156.978 346.355 156.468 346.106 156.276Z" fill="white"/>
<path opacity="0.2" d="M334.403 139.603C334.403 139.852 334.502 140.091 334.678 140.267C334.854 140.444 335.093 140.543 335.342 140.543C335.592 140.543 335.833 140.444 336.011 140.268C336.189 140.092 336.29 139.853 336.293 139.603C336.29 139.352 336.189 139.112 336.011 138.934C335.834 138.756 335.594 138.655 335.342 138.652C335.092 138.655 334.853 138.757 334.677 138.935C334.501 139.113 334.403 139.353 334.403 139.603Z" fill="white"/>
<path opacity="0.2" d="M333.135 145.07C333.135 145.321 333.234 145.561 333.41 145.739C333.586 145.917 333.825 146.018 334.075 146.021C334.326 146.018 334.566 145.917 334.744 145.739C334.921 145.562 335.023 145.322 335.025 145.07C335.022 144.82 334.921 144.581 334.743 144.405C334.565 144.229 334.325 144.131 334.075 144.131C333.826 144.131 333.587 144.23 333.41 144.406C333.234 144.582 333.135 144.821 333.135 145.07Z" fill="white"/>
<path opacity="0.2" d="M340.481 148.816C340.481 149.067 340.58 149.307 340.755 149.485C340.931 149.663 341.17 149.764 341.42 149.767C341.672 149.764 341.912 149.663 342.089 149.485C342.267 149.308 342.368 149.068 342.371 148.816C342.368 148.566 342.267 148.327 342.089 148.151C341.911 147.976 341.671 147.877 341.42 147.877C341.171 147.877 340.932 147.976 340.756 148.152C340.58 148.328 340.481 148.567 340.481 148.816Z" fill="white"/>
<path opacity="0.2" d="M336.893 153.062C337.412 153.062 337.833 152.641 337.833 152.122C337.833 151.603 337.412 151.183 336.893 151.183C336.374 151.183 335.954 151.603 335.954 152.122C335.954 152.641 336.374 153.062 336.893 153.062Z" fill="white"/>
<path opacity="0.2" d="M327.329 138.743C327.329 138.929 327.384 139.111 327.487 139.265C327.59 139.42 327.737 139.54 327.909 139.611C328.08 139.682 328.269 139.701 328.451 139.665C328.634 139.628 328.801 139.539 328.932 139.407C329.064 139.276 329.153 139.109 329.189 138.926C329.226 138.744 329.207 138.555 329.136 138.384C329.065 138.212 328.944 138.065 328.79 137.962C328.635 137.859 328.454 137.804 328.268 137.804C328.145 137.804 328.023 137.828 327.909 137.875C327.795 137.922 327.691 137.992 327.604 138.079C327.517 138.166 327.447 138.27 327.4 138.384C327.353 138.498 327.329 138.62 327.329 138.743Z" fill="white"/>
<path opacity="0.2" d="M323.254 143.542C323.257 143.793 323.358 144.033 323.536 144.211C323.713 144.389 323.953 144.49 324.205 144.493C324.455 144.49 324.694 144.388 324.87 144.21C325.046 144.032 325.144 143.792 325.144 143.542C325.144 143.293 325.045 143.054 324.869 142.878C324.693 142.702 324.454 142.603 324.205 142.603C323.954 142.603 323.714 142.701 323.536 142.877C323.358 143.053 323.257 143.292 323.254 143.542Z" fill="white"/>
<path opacity="0.2" d="M321.93 150.231C321.933 150.483 322.034 150.723 322.211 150.901C322.389 151.078 322.629 151.179 322.88 151.182C323.131 151.179 323.37 151.078 323.545 150.9C323.721 150.722 323.82 150.482 323.82 150.231C323.82 149.982 323.721 149.743 323.545 149.567C323.369 149.391 323.13 149.292 322.88 149.292C322.63 149.292 322.39 149.391 322.212 149.566C322.034 149.742 321.933 149.981 321.93 150.231Z" fill="white"/>
<path opacity="0.2" d="M330.996 141.392C330.996 141.641 331.095 141.88 331.271 142.056C331.447 142.232 331.686 142.331 331.935 142.331C332.184 142.331 332.423 142.232 332.599 142.056C332.776 141.88 332.875 141.641 332.875 141.392C332.875 141.142 332.776 140.903 332.599 140.727C332.423 140.551 332.184 140.452 331.935 140.452C331.686 140.452 331.447 140.551 331.271 140.727C331.095 140.903 330.996 141.142 330.996 141.392Z" fill="white"/>
<path opacity="0.2" d="M328.121 151.024C328.124 151.274 328.226 151.513 328.404 151.689C328.581 151.865 328.822 151.963 329.072 151.963C329.195 151.963 329.317 151.939 329.431 151.892C329.545 151.845 329.649 151.776 329.736 151.688C329.823 151.601 329.893 151.498 329.94 151.384C329.987 151.27 330.011 151.147 330.011 151.024C330.011 150.774 329.913 150.534 329.737 150.356C329.561 150.178 329.322 150.076 329.072 150.073C328.821 150.076 328.58 150.177 328.403 150.355C328.225 150.533 328.124 150.773 328.121 151.024Z" fill="white"/>
<path opacity="0.2" d="M332.682 132.959C332.682 133.208 332.781 133.447 332.957 133.623C333.133 133.799 333.372 133.898 333.622 133.898C333.871 133.898 334.11 133.799 334.286 133.623C334.462 133.447 334.561 133.208 334.561 132.959C334.561 132.71 334.462 132.471 334.286 132.295C334.11 132.119 333.871 132.02 333.622 132.02C333.372 132.02 333.133 132.119 332.957 132.295C332.781 132.471 332.682 132.71 332.682 132.959Z" fill="white"/>
<path opacity="0.2" d="M321.986 138.245C322.505 138.245 322.925 137.825 322.925 137.306C322.925 136.787 322.505 136.366 321.986 136.366C321.467 136.366 321.046 136.787 321.046 137.306C321.046 137.825 321.467 138.245 321.986 138.245Z" fill="white"/>
<path opacity="0.2" d="M339.644 137.996C340.162 137.996 340.583 137.576 340.583 137.057C340.583 136.538 340.162 136.117 339.644 136.117C339.125 136.117 338.704 136.538 338.704 137.057C338.704 137.576 339.125 137.996 339.644 137.996Z" fill="white"/>
<path opacity="0.2" d="M331.403 137.781C331.403 137.843 331.416 137.904 331.44 137.961C331.464 138.018 331.499 138.07 331.543 138.113C331.588 138.157 331.64 138.19 331.698 138.213C331.755 138.236 331.817 138.247 331.879 138.245C332.002 138.245 332.12 138.196 332.207 138.109C332.294 138.022 332.343 137.904 332.343 137.781C332.344 137.719 332.333 137.658 332.311 137.6C332.288 137.542 332.254 137.49 332.211 137.446C332.168 137.401 332.116 137.366 332.059 137.342C332.002 137.318 331.941 137.306 331.879 137.306C331.753 137.306 331.632 137.356 331.543 137.445C331.453 137.534 331.403 137.655 331.403 137.781Z" fill="white"/>
<path opacity="0.2" d="M326.525 132.337C326.525 132.463 326.575 132.584 326.664 132.673C326.753 132.762 326.874 132.812 327 132.812C327.126 132.812 327.247 132.762 327.336 132.673C327.426 132.584 327.476 132.463 327.476 132.337C327.476 132.211 327.426 132.09 327.336 132.001C327.247 131.911 327.126 131.861 327 131.861C326.874 131.861 326.753 131.911 326.664 132.001C326.575 132.09 326.525 132.211 326.525 132.337Z" fill="white"/>
<path opacity="0.2" d="M337.187 132.483C337.186 132.545 337.197 132.607 337.219 132.664C337.242 132.722 337.276 132.774 337.319 132.819C337.362 132.863 337.414 132.898 337.471 132.922C337.528 132.946 337.589 132.959 337.651 132.959C337.777 132.959 337.898 132.909 337.987 132.819C338.077 132.73 338.127 132.609 338.127 132.483C338.127 132.357 338.077 132.236 337.987 132.147C337.898 132.058 337.777 132.008 337.651 132.008C337.589 132.008 337.528 132.02 337.471 132.044C337.414 132.068 337.362 132.103 337.319 132.148C337.276 132.192 337.242 132.245 337.219 132.302C337.197 132.36 337.186 132.421 337.187 132.483Z" fill="white"/>
<path opacity="0.2" d="M342.96 142.138C342.96 142.264 343.01 142.385 343.099 142.474C343.188 142.563 343.309 142.613 343.435 142.613C343.497 142.613 343.559 142.601 343.616 142.577C343.673 142.553 343.724 142.518 343.768 142.474C343.811 142.429 343.845 142.377 343.867 142.319C343.89 142.261 343.901 142.2 343.899 142.138C343.899 142.015 343.851 141.897 343.763 141.81C343.676 141.723 343.558 141.674 343.435 141.674C343.373 141.672 343.312 141.683 343.254 141.706C343.197 141.729 343.144 141.763 343.1 141.806C343.056 141.849 343.02 141.901 342.996 141.958C342.972 142.015 342.96 142.076 342.96 142.138Z" fill="white"/>
<path opacity="0.2" d="M328.064 143.349C328.064 143.476 328.115 143.596 328.204 143.686C328.293 143.775 328.414 143.825 328.54 143.825C328.666 143.825 328.787 143.775 328.876 143.686C328.965 143.596 329.015 143.476 329.015 143.349C329.015 143.223 328.965 143.102 328.876 143.013C328.787 142.924 328.666 142.874 328.54 142.874C328.414 142.874 328.293 142.924 328.204 143.013C328.115 143.102 328.064 143.223 328.064 143.349Z" fill="white"/>
<path opacity="0.2" d="M319.847 144.957C319.847 145.083 319.897 145.204 319.986 145.293C320.075 145.382 320.196 145.432 320.322 145.432C320.448 145.432 320.569 145.382 320.658 145.293C320.747 145.204 320.797 145.083 320.797 144.957C320.797 144.831 320.747 144.71 320.658 144.621C320.569 144.532 320.448 144.481 320.322 144.481C320.196 144.481 320.075 144.532 319.986 144.621C319.897 144.71 319.847 144.831 319.847 144.957Z" fill="white"/>
<path opacity="0.2" d="M328.879 147.514C328.878 147.576 328.888 147.638 328.911 147.696C328.934 147.753 328.968 147.806 329.011 147.85C329.054 147.894 329.106 147.929 329.163 147.953C329.22 147.977 329.281 147.99 329.343 147.99C329.469 147.99 329.59 147.94 329.679 147.851C329.768 147.761 329.819 147.641 329.819 147.514C329.819 147.388 329.768 147.267 329.679 147.178C329.59 147.089 329.469 147.039 329.343 147.039C329.281 147.039 329.22 147.051 329.163 147.075C329.106 147.099 329.054 147.135 329.011 147.179C328.968 147.223 328.934 147.276 328.911 147.333C328.888 147.391 328.878 147.453 328.879 147.514Z" fill="white"/>
<path opacity="0.2" d="M325.88 152.902C325.88 153.028 325.93 153.149 326.019 153.238C326.108 153.327 326.229 153.378 326.355 153.378C326.481 153.378 326.602 153.327 326.691 153.238C326.781 153.149 326.831 153.028 326.831 152.902C326.831 152.776 326.781 152.655 326.691 152.566C326.602 152.477 326.481 152.427 326.355 152.427C326.229 152.427 326.108 152.477 326.019 152.566C325.93 152.655 325.88 152.776 325.88 152.902Z" fill="white"/>
<path opacity="0.2" d="M331.641 152.903C331.658 153.015 331.715 153.117 331.801 153.191C331.888 153.265 331.997 153.305 332.111 153.305C332.224 153.305 332.334 153.265 332.42 153.191C332.506 153.117 332.563 153.015 332.58 152.903C332.591 152.835 332.587 152.766 332.568 152.7C332.549 152.634 332.516 152.573 332.472 152.521C332.427 152.469 332.372 152.427 332.309 152.398C332.247 152.369 332.179 152.354 332.111 152.354C332.042 152.354 331.974 152.369 331.912 152.398C331.85 152.427 331.794 152.469 331.75 152.521C331.705 152.573 331.672 152.634 331.653 152.7C331.635 152.766 331.63 152.835 331.641 152.903Z" fill="white"/>
<path d="M332.614 172.269C325.831 172.275 319.254 169.929 314.006 165.63C308.758 161.332 305.162 155.347 303.832 148.694C302.501 142.042 303.518 135.135 306.709 129.148C309.9 123.161 315.068 118.466 321.332 115.862C327.596 113.258 334.569 112.906 341.064 114.866C347.558 116.827 353.172 120.978 356.95 126.613C360.727 132.248 362.434 139.018 361.78 145.77C361.125 152.523 358.151 158.839 353.362 163.644C350.646 166.383 347.414 168.555 343.852 170.036C340.291 171.516 336.471 172.275 332.614 172.269ZM332.614 116.988C326.612 116.987 320.795 119.068 316.155 122.875C311.514 126.682 308.338 131.981 307.166 137.868C305.995 143.755 306.901 149.866 309.73 155.16C312.56 160.453 317.137 164.602 322.683 166.899C328.228 169.196 334.399 169.499 340.142 167.756C345.886 166.013 350.848 162.333 354.182 157.342C357.516 152.351 359.017 146.358 358.428 140.384C357.838 134.411 355.196 128.827 350.951 124.583C348.549 122.167 345.692 120.251 342.544 118.947C339.397 117.644 336.021 116.978 332.614 116.988Z" fill="#407BFF"/>
<path d="M314.275 122.178L311.874 124.579L350.964 163.669L353.365 161.268L314.275 122.178Z" fill="#407BFF"/>
<path d="M362.745 323.681H241.623V410.224H362.745V323.681Z" fill="#2E353A"/>
<path opacity="0.2" d="M362.745 323.681H241.623V410.224H362.745V323.681Z" fill="white"/>
<path opacity="0.2" d="M312.229 323.681H241.623V410.224H312.229V323.681Z" fill="white"/>
<path d="M367.284 404.655H237.435L234.039 412.363H370.68L367.284 404.655Z" fill="#2E353A"/>
<path opacity="0.2" d="M310.69 404.655H237.435L234.039 412.363H309.558L310.69 404.655Z" fill="white"/>
<path d="M223.66 222.049H282.11L301.295 264.472H351.551C354.52 264.472 357.367 265.651 359.466 267.75C361.566 269.85 362.745 272.697 362.745 275.666V315.055C362.747 316.416 362.48 317.764 361.96 319.022C361.44 320.28 360.678 321.423 359.716 322.386C358.754 323.349 357.612 324.113 356.354 324.634C355.097 325.155 353.749 325.423 352.388 325.423H261.464L214.276 237.748C213.005 235.376 212.674 232.612 213.348 230.006C213.948 227.728 215.284 225.712 217.15 224.272C219.015 222.833 221.304 222.051 223.66 222.049Z" fill="#407BFF"/>
<path opacity="0.5" d="M362.745 275.7V315.089C362.746 317.745 361.727 320.301 359.899 322.228C358.071 324.155 355.573 325.307 352.921 325.446H261.465L214.276 237.77C213.406 236.147 212.972 234.326 213.015 232.485C213.058 230.643 213.577 228.844 214.522 227.263C215.467 225.682 216.805 224.373 218.407 223.463C220.008 222.553 221.818 222.074 223.66 222.071H282.11L301.295 264.494H352.015C354.906 264.611 357.638 265.844 359.639 267.934C361.64 270.023 362.753 272.807 362.745 275.7Z" fill="white"/>
<path opacity="0.2" d="M362.745 275.7V315.089C362.746 317.745 361.727 320.3 359.899 322.228C358.071 324.155 355.573 325.307 352.921 325.446H352.751C350.309 325.327 348.007 324.273 346.322 322.503C344.636 320.733 343.696 318.382 343.696 315.938V273.945C343.695 271.63 344.539 269.393 346.071 267.657C347.604 265.92 349.717 264.804 352.015 264.517C354.902 264.634 357.631 265.863 359.632 267.948C361.632 270.033 362.748 272.81 362.745 275.7Z" fill="black"/>
<path opacity="0.2" d="M343.718 301.734V325.447H261.464L214.276 237.771C213.513 236.352 213.082 234.778 213.015 233.168C212.948 231.558 213.247 229.954 213.89 228.476C214.533 226.998 215.503 225.686 216.726 224.637C217.95 223.589 219.396 222.832 220.954 222.423C222.551 222.811 224.05 223.523 225.359 224.517C226.668 225.51 227.758 226.762 228.561 228.195L269.727 301.768L343.718 301.734Z" fill="white"/>
<path d="M375.128 307.37H261.068C254.717 307.37 249.568 312.519 249.568 318.87C249.568 325.221 254.717 330.37 261.068 330.37H375.128C381.479 330.37 386.628 325.221 386.628 318.87C386.628 312.519 381.479 307.37 375.128 307.37Z" fill="#407BFF"/>
<path opacity="0.5" d="M386.628 318.87C386.625 321.919 385.412 324.842 383.256 326.998C381.1 329.154 378.177 330.367 375.128 330.37H261.08C259.569 330.37 258.074 330.072 256.679 329.495C255.283 328.917 254.016 328.07 252.948 327.002C251.88 325.934 251.033 324.666 250.455 323.271C249.877 321.876 249.58 320.38 249.58 318.87C249.58 317.36 249.877 315.864 250.455 314.469C251.033 313.074 251.88 311.806 252.948 310.738C254.016 309.67 255.283 308.823 256.679 308.245C258.074 307.668 259.569 307.37 261.08 307.37H375.128C378.178 307.37 381.103 308.582 383.259 310.738C385.416 312.895 386.628 315.82 386.628 318.87Z" fill="white"/>
<path opacity="0.2" d="M325.506 318.87C325.503 321.919 324.291 324.842 322.135 326.998C319.979 329.154 317.055 330.367 314.006 330.37H238.442C236.932 330.37 235.436 330.072 234.041 329.495C232.646 328.917 231.378 328.07 230.31 327.002C229.242 325.934 228.395 324.666 227.817 323.271C227.239 321.876 226.942 320.38 226.942 318.87C226.942 317.36 227.239 315.864 227.817 314.469C228.395 313.074 229.242 311.806 230.31 310.738C231.378 309.67 232.646 308.823 234.041 308.245C235.436 307.668 236.932 307.37 238.442 307.37H314.006C317.056 307.37 319.981 308.582 322.138 310.738C324.294 312.895 325.506 315.82 325.506 318.87Z" fill="white"/>
<path d="M442.939 364.292L405.304 317.942C404.14 316.506 402.639 315.381 400.935 314.666C399.23 313.951 397.376 313.669 395.536 313.845H347.714C344.82 313.592 341.941 314.477 339.689 316.312C338.538 317.243 337.582 318.392 336.876 319.693C336.17 320.994 335.728 322.422 335.576 323.894C335.423 325.367 335.563 326.855 335.987 328.273C336.412 329.691 337.112 331.012 338.048 332.158L375.694 378.566C376.743 379.861 378.067 380.906 379.571 381.624C381.075 382.343 382.72 382.717 384.387 382.72H434.099C436.233 382.741 438.329 382.155 440.142 381.03C441.955 379.905 443.411 378.286 444.338 376.364C445.265 374.442 445.626 372.295 445.378 370.176C445.131 368.056 444.285 366.051 442.939 364.394V364.292Z" fill="#407BFF"/>
<path opacity="0.2" d="M391.495 380.105C390.349 381.042 389.028 381.744 387.61 382.169C386.191 382.594 384.703 382.734 383.23 382.581C381.757 382.429 380.329 381.986 379.028 381.28C377.727 380.573 376.578 379.616 375.648 378.464L338.013 332.057C337.075 330.911 336.373 329.591 335.947 328.173C335.521 326.755 335.38 325.267 335.532 323.794C335.683 322.321 336.124 320.893 336.83 319.592C337.536 318.29 338.492 317.141 339.643 316.21C340.79 315.275 342.11 314.575 343.528 314.151C344.945 313.727 346.433 313.586 347.905 313.738C349.377 313.889 350.804 314.329 352.106 315.033C353.407 315.737 354.557 316.691 355.49 317.84L393.125 364.191C394.072 365.339 394.781 366.663 395.212 368.088C395.644 369.512 395.787 371.008 395.636 372.488C395.484 373.969 395.04 375.404 394.329 376.712C393.618 378.019 392.655 379.173 391.495 380.105Z" fill="white"/>
<path opacity="0.5" d="M442.939 364.292L405.304 317.942C404.14 316.506 402.639 315.381 400.935 314.666C399.23 313.951 397.376 313.669 395.536 313.845H347.714C344.82 313.592 341.941 314.477 339.689 316.312C338.538 317.243 337.582 318.392 336.876 319.693C336.17 320.994 335.728 322.422 335.576 323.894C335.423 325.367 335.563 326.855 335.987 328.273C336.412 329.691 337.112 331.012 338.048 332.158L375.694 378.566C376.743 379.861 378.067 380.906 379.571 381.624C381.075 382.343 382.72 382.717 384.387 382.72H434.099C436.233 382.741 438.329 382.155 440.142 381.03C441.955 379.905 443.411 378.286 444.338 376.364C445.265 374.442 445.626 372.295 445.378 370.176C445.131 368.056 444.285 366.051 442.939 364.394V364.292Z" fill="white"/>
<path d="M255.182 229.214C255.138 229.216 255.094 229.206 255.055 229.186C255.015 229.167 254.981 229.137 254.956 229.1C251.798 224.901 253.213 215.212 255.624 210.107C256.251 208.783 256.514 207.315 256.387 205.855C256.259 204.395 255.746 202.996 254.899 201.799C254.873 201.771 254.852 201.737 254.839 201.7C254.826 201.663 254.82 201.624 254.823 201.585C254.826 201.546 254.837 201.508 254.855 201.473C254.873 201.439 254.899 201.408 254.929 201.384C254.96 201.359 254.995 201.342 255.033 201.332C255.071 201.322 255.111 201.32 255.149 201.326C255.188 201.332 255.225 201.346 255.258 201.367C255.291 201.388 255.319 201.416 255.341 201.449C256.253 202.729 256.807 204.229 256.947 205.795C257.086 207.361 256.805 208.935 256.133 210.356C253.79 215.325 252.375 224.731 255.409 228.761C255.431 228.791 255.447 228.824 255.457 228.86C255.466 228.896 255.468 228.934 255.463 228.971C255.457 229.007 255.445 229.043 255.426 229.075C255.407 229.107 255.382 229.135 255.352 229.157C255.304 229.195 255.244 229.215 255.182 229.214Z" fill="#263238"/>
<path d="M253.654 201.879C253.654 201.879 245.188 189.247 254.922 179.49C262.789 171.567 277.684 173.072 285.302 187.696C292.387 201.279 285.166 202.931 294.357 208.772C303.548 214.612 304.295 220.634 298.884 231.953C293.474 243.272 278.352 248.773 268.516 243.136C258.68 237.499 254.582 219.366 257.129 211.273C259.676 203.18 253.654 201.879 253.654 201.879Z" fill="#263238"/>
<path d="M304.159 222.332H304.068C303.998 222.309 303.94 222.259 303.907 222.194C303.873 222.128 303.866 222.052 303.887 221.981C305.472 216.933 300.401 212.734 295.964 209.033C294.013 207.568 292.246 205.873 290.701 203.984C289.388 202.06 289.15 199.627 288.89 196.797C288.448 192.1 287.95 186.78 282.382 181.528C273.621 173.243 263.038 177.827 262.936 177.872C262.902 177.889 262.865 177.898 262.827 177.899C262.789 177.901 262.752 177.895 262.717 177.881C262.681 177.867 262.65 177.846 262.623 177.819C262.596 177.792 262.576 177.76 262.562 177.725C262.531 177.657 262.528 177.58 262.554 177.51C262.579 177.44 262.631 177.383 262.698 177.351C262.811 177.351 273.723 172.575 282.778 181.12C288.494 186.52 289.026 192.19 289.456 196.752C289.716 199.491 289.931 201.856 291.176 203.656C292.683 205.511 294.413 207.172 296.326 208.602C300.922 212.417 306.14 216.741 304.442 222.185C304.415 222.235 304.374 222.276 304.323 222.302C304.273 222.329 304.215 222.339 304.159 222.332Z" fill="#263238"/>
<path d="M338.681 259.072L345.473 261.461C345.473 261.461 354.392 261.777 355.377 262.162C356.361 262.547 356.508 269.769 356.599 270.55C356.69 271.331 347.861 271.772 346.876 271.082C345.891 270.391 344.952 267.505 344.952 267.505L335.897 263.577L338.681 259.072Z" fill="#CC6633"/>
<path d="M343.718 260.193L341.455 266.101C341.455 266.101 330.136 263.838 320.402 261.472C314.018 259.91 308.313 258.303 306.989 257.239C305.155 255.779 300.877 246.667 297.356 238.676C294.402 231.953 291.98 225.999 291.98 225.999L295.161 222.762C302.28 225.218 313.871 249.644 313.871 249.644L343.718 260.193Z" fill="#407BFF"/>
<path opacity="0.2" d="M320.424 261.473C314.04 259.911 308.335 258.303 307.011 257.24C305.178 255.779 300.899 246.668 297.379 238.677L300.175 234.059C300.175 234.059 312.716 247.053 320.424 261.473Z" fill="black"/>
<path d="M439.815 356.369L434.778 360.421L428.315 354.071L422.396 348.242L427.591 342.458L434.065 349.827L439.815 356.369Z" fill="#CC6633"/>
<path d="M433.51 361.598C432.956 361.146 438.728 354.547 438.728 354.547C438.728 354.547 446.357 353.607 450.522 350.212C454.688 346.816 455.389 351.038 451.835 355.679L443.018 367.156C440.505 370.45 439.283 366.25 433.51 361.598Z" fill="#2E353A"/>
<path d="M440.143 354.525H440.087C440.014 354.505 439.95 354.461 439.905 354.4C439.905 354.321 438.672 352.476 439.011 351.22C439.062 351.025 439.154 350.843 439.281 350.687C439.408 350.531 439.567 350.403 439.747 350.314C439.889 350.208 440.062 350.151 440.239 350.151C440.417 350.151 440.589 350.208 440.732 350.314C440.893 350.563 440.998 350.843 441.041 351.136C441.084 351.429 441.064 351.728 440.981 352.012C441.287 351.486 441.729 351.052 442.26 350.756C442.383 350.702 442.516 350.675 442.65 350.675C442.785 350.675 442.918 350.702 443.041 350.756C443.561 350.982 443.675 351.299 443.686 351.537C443.686 352.668 440.845 354.219 440.29 354.513L440.143 354.525ZM442.667 351.208C442.6 351.195 442.531 351.195 442.464 351.208C441.83 351.469 441.139 352.691 440.709 353.585C441.841 352.906 443.154 351.989 443.131 351.48C443.131 351.378 443.029 351.276 442.826 351.197C442.773 351.189 442.719 351.193 442.667 351.208ZM440.302 350.699C440.193 350.708 440.088 350.743 439.996 350.801C439.884 350.853 439.785 350.931 439.706 351.027C439.628 351.123 439.572 351.235 439.543 351.355C439.468 352.146 439.65 352.941 440.064 353.619C440.449 352.329 440.641 351.005 440.37 350.767L440.302 350.699Z" fill="#577AFA"/>
<path opacity="0.2" d="M434.189 349.974L428.428 354.207L422.452 348.31L427.613 342.492L434.189 349.974Z" fill="black"/>
<path d="M313.441 263.838L319.949 275.089C319.949 275.089 376.781 285.661 385.134 290.55C393.487 295.44 430.409 345.469 430.409 345.469L423.324 350.891L366.311 305.978L301.273 299.651L313.441 263.838Z" fill="#2E353A"/>
<path opacity="0.3" d="M313.441 263.838L319.949 275.089C319.949 275.089 376.781 285.661 385.134 290.55C393.487 295.44 430.409 345.469 430.409 345.469L423.324 350.891L366.311 305.978L301.273 299.651L313.441 263.838Z" fill="black"/>
<path d="M426.9 358.599L422.112 362.946L415.276 356.992L409.017 351.514L413.861 345.436L420.766 352.408L426.9 358.599Z" fill="#CC6633"/>
<path d="M420.901 362.731C420.437 362.187 427.33 356.766 427.33 356.766C427.33 356.766 435.005 357.241 439.713 354.672C444.422 352.102 444.354 356.381 439.996 360.331L429.232 369.997C426.131 372.725 425.701 368.356 420.901 362.731Z" fill="#2E353A"/>
<path d="M428.745 357.003H428.655L428.575 356.947C428.551 356.93 428.531 356.906 428.519 356.879C428.519 356.8 427.659 354.762 428.225 353.585C428.309 353.403 428.431 353.241 428.584 353.11C428.736 352.979 428.915 352.883 429.107 352.827C429.662 352.668 429.945 352.827 430.081 353.008C430.352 353.347 430.251 354.027 430.013 354.728C430.408 354.266 430.92 353.918 431.496 353.721C431.628 353.691 431.766 353.687 431.9 353.711C432.034 353.734 432.162 353.784 432.277 353.857C432.437 353.937 432.569 354.065 432.654 354.223C432.739 354.381 432.773 354.561 432.752 354.74C432.582 355.872 429.47 356.856 428.847 357.003H428.745ZM431.711 354.196H431.586C430.918 354.344 430.013 355.407 429.424 356.211C430.703 355.758 432.118 355.079 432.197 354.593C432.197 354.491 432.13 354.377 431.948 354.253C431.877 354.211 431.794 354.191 431.711 354.196ZM429.447 353.268C429.361 353.255 429.273 353.255 429.187 353.268C429.065 353.298 428.951 353.355 428.855 353.435C428.759 353.516 428.683 353.617 428.632 353.732C428.431 354.48 428.47 355.272 428.745 355.996C429.356 354.796 429.798 353.529 429.571 353.246C429.548 353.249 429.524 353.256 429.504 353.268H429.447Z" fill="#577AFA"/>
<path opacity="0.2" d="M420.901 352.554L415.4 357.116L409.073 351.581L413.895 345.469L420.901 352.554Z" fill="black"/>
<path d="M418.094 347.201L410.171 354.988C383.334 334.615 358.863 313.041 358.863 313.041C319.915 318.383 290.339 312.305 286.977 310.404C271.855 301.824 279.054 271.829 279.054 271.829L311.607 260.193C314.346 264.076 316.134 273.074 317.028 278.813C317.504 281.812 317.73 283.918 317.73 283.918C354.641 291.637 366.763 291.479 373.192 298.87C378.829 305.355 418.094 347.201 418.094 347.201Z" fill="#2E353A"/>
<path d="M408.926 354.071L417.528 344.699L420.097 349.589L413.012 357.082L408.926 354.071Z" fill="#407BFF"/>
<path opacity="0.5" d="M279.054 271.818L278.635 275.678L313.441 263.838L311.494 259.809L279.054 271.818Z" fill="black"/>
<path d="M297.323 265.23L298.839 268.988C298.922 269.185 299.078 269.343 299.273 269.429C299.469 269.515 299.691 269.524 299.892 269.452L304.94 267.562C305.042 267.524 305.136 267.466 305.215 267.392C305.295 267.318 305.359 267.229 305.404 267.131C305.45 267.032 305.475 266.925 305.479 266.816C305.483 266.708 305.465 266.599 305.427 266.498L303.967 262.774C303.888 262.576 303.735 262.416 303.541 262.329C303.346 262.243 303.125 262.236 302.925 262.31L297.809 264.143C297.705 264.181 297.609 264.239 297.527 264.315C297.446 264.39 297.38 264.482 297.335 264.583C297.289 264.685 297.265 264.794 297.263 264.905C297.261 265.016 297.281 265.127 297.323 265.23Z" fill="white"/>
<path d="M288.799 268.162L289.682 272.837L288.403 273.21L287.305 268.581L288.799 268.162Z" fill="#263238"/>
<path d="M307.011 261.472L308.879 266.102L310.056 265.762L308.234 260.906L307.011 261.472Z" fill="#263238"/>
<path opacity="0.3" d="M317.73 283.917L310.056 282.582L317.029 278.812C317.504 281.812 317.73 283.917 317.73 283.917Z" fill="black"/>
<path d="M421.286 350.937L430.013 341.678L432.514 346.601L425.327 354.004L421.286 350.937Z" fill="#407BFF"/>
<path d="M312.23 261.325L279.054 271.829C273.037 265.037 267.478 257.853 262.415 250.323C259.793 246.408 257.458 242.307 255.432 238.053C253.293 233.435 251.934 228.998 252.036 225.331C252.036 225.331 254.209 224.584 257.877 223.724C268.011 221.252 278.497 220.563 288.868 221.686C291.002 221.955 293.121 222.333 295.217 222.818L312.23 261.325Z" fill="#407BFF"/>
<path d="M269.931 217.884C270.433 220.406 270.433 223.002 269.931 225.524L281.419 223.26C279.212 221.959 278.126 213.662 277.582 210.266C277.311 208.648 277.175 207.142 277.107 206.101C277.039 205.06 277.039 204.652 277.039 204.652L272.896 206.792L266.105 210.278C267.842 212.553 269.14 215.133 269.931 217.884Z" fill="#CC6633"/>
<path opacity="0.2" d="M266.185 210.3C267.891 212.574 269.162 215.146 269.931 217.883C273.319 216.352 276.046 213.658 277.617 210.288C277.345 208.67 277.209 207.164 277.141 206.123C275.658 206.338 274.255 206.576 272.931 206.813L266.185 210.3Z" fill="black"/>
<path d="M269.727 177.079C269.727 177.079 250.802 170.922 245.878 188.941C240.955 206.961 255.431 205.659 255.431 205.659L269.727 177.079Z" fill="#263238"/>
<path d="M261.464 183.769C252.534 186.327 251.028 191.93 253.009 201.324C255.477 213.062 260.366 220.498 270.836 214.907C285.087 207.165 276.326 179.49 261.464 183.769Z" fill="#CC6633"/>
<path d="M258.669 199.162C258.338 200.705 257.821 202.203 257.129 203.622C257.497 203.916 257.94 204.103 258.407 204.161C258.875 204.219 259.349 204.146 259.778 203.95L258.669 199.162Z" fill="#CC6633"/>
<path d="M263.932 196.876C264.125 197.612 264.679 198.11 265.166 198.008C265.653 197.906 265.902 197.182 265.709 196.446C265.517 195.71 264.962 195.212 264.475 195.314C263.989 195.416 263.728 196.129 263.932 196.876Z" fill="#263238"/>
<path d="M264.69 195.337L262.913 195.133C262.913 195.133 264.068 196.219 264.69 195.337Z" fill="#263238"/>
<path d="M254.673 199.117C254.865 199.853 255.42 200.351 255.907 200.249C256.393 200.147 256.643 199.411 256.45 198.675C256.258 197.94 255.703 197.442 255.216 197.543C254.73 197.645 254.515 198.381 254.673 199.117Z" fill="#263238"/>
<path d="M255.466 197.532L253.688 197.317C253.688 197.317 254.843 198.461 255.466 197.532Z" fill="#263238"/>
<path d="M266.513 191.33C266.429 191.329 266.347 191.305 266.275 191.262C265.689 190.938 265.037 190.751 264.369 190.715C263.7 190.68 263.032 190.797 262.415 191.058C262.314 191.098 262.202 191.097 262.102 191.057C262.001 191.017 261.919 190.941 261.872 190.843C261.83 190.743 261.829 190.629 261.869 190.528C261.909 190.426 261.988 190.345 262.087 190.3C262.833 189.982 263.643 189.841 264.452 189.89C265.262 189.94 266.049 190.177 266.751 190.583C266.837 190.649 266.896 190.744 266.915 190.852C266.934 190.959 266.912 191.069 266.852 191.16C266.813 191.213 266.762 191.256 266.703 191.286C266.644 191.315 266.579 191.33 266.513 191.33Z" fill="#263238"/>
<path d="M252.296 194.317C252.201 194.32 252.108 194.288 252.036 194.227C251.998 194.189 251.968 194.144 251.947 194.095C251.927 194.045 251.916 193.992 251.916 193.938C251.916 193.885 251.927 193.831 251.947 193.782C251.968 193.732 251.998 193.687 252.036 193.65C252.466 193.074 253.022 192.603 253.662 192.274C254.301 191.944 255.007 191.764 255.726 191.748C255.834 191.748 255.938 191.791 256.014 191.867C256.09 191.944 256.133 192.047 256.133 192.156C256.133 192.264 256.09 192.367 256.014 192.444C255.938 192.52 255.834 192.563 255.726 192.563C255.135 192.59 254.557 192.75 254.036 193.03C253.515 193.31 253.064 193.704 252.715 194.182C252.666 194.242 252.6 194.287 252.526 194.311C252.451 194.335 252.372 194.337 252.296 194.317Z" fill="#263238"/>
<path d="M275.568 196.027C275.568 196.027 269.286 189.881 268.256 184.018C268.256 184.018 248.482 181.845 252.76 200.068C252.76 200.068 246.456 184.606 261.714 179.852C276.971 175.099 283.333 197.589 277.322 206.554C277.368 206.576 279.462 199.864 275.568 196.027Z" fill="#263238"/>
<path d="M261.838 207.957C261.756 207.955 261.676 207.929 261.607 207.883C261.539 207.837 261.486 207.772 261.453 207.696C261.417 207.593 261.422 207.479 261.469 207.379C261.515 207.28 261.599 207.203 261.702 207.164C264.781 206.033 264.849 203.859 264.849 203.769C264.849 203.715 264.859 203.662 264.88 203.613C264.9 203.563 264.93 203.519 264.968 203.481C265.006 203.443 265.051 203.413 265.1 203.392C265.15 203.372 265.203 203.361 265.256 203.361C265.364 203.361 265.468 203.404 265.544 203.481C265.621 203.557 265.664 203.661 265.664 203.769C265.664 203.882 265.664 206.587 261.985 207.934C261.938 207.952 261.888 207.96 261.838 207.957Z" fill="#263238"/>
<path d="M253.688 204.086C255.078 202.969 256.71 202.194 258.454 201.822C262.221 201.573 266 201.524 269.772 201.675L274.617 211.262C274.617 211.262 270.452 216.582 261.385 216.775C261.34 216.775 254.673 213.696 253.688 204.086Z" fill="#407BFF"/>
<path opacity="0.5" d="M253.688 204.086C255.078 202.969 256.71 202.194 258.454 201.822C262.221 201.573 266 201.524 269.772 201.675L274.617 211.262C274.617 211.262 270.452 216.582 261.385 216.775C261.34 216.775 254.673 213.696 253.688 204.086Z" fill="white"/>
<path d="M273.847 211.545C273.773 211.541 273.701 211.513 273.643 211.466C273.591 211.411 273.561 211.338 273.561 211.262C273.561 211.186 273.591 211.113 273.643 211.058C276.661 208.265 278.451 204.391 278.624 200.283C278.731 198.46 278.126 196.666 276.937 195.28C276.807 195.132 276.64 195.021 276.453 194.957C276.267 194.894 276.067 194.88 275.873 194.918C273.757 195.314 270.893 200.781 269.976 202.841C269.944 202.911 269.886 202.966 269.814 202.993C269.742 203.021 269.662 203.019 269.591 202.988C269.524 202.956 269.472 202.899 269.447 202.829C269.421 202.759 269.424 202.682 269.455 202.615C269.591 202.298 272.93 194.884 275.76 194.352C276.044 194.293 276.338 194.31 276.614 194.399C276.89 194.488 277.138 194.647 277.333 194.861C278.629 196.356 279.295 198.296 279.19 200.272C279.018 204.533 277.166 208.554 274.04 211.455C273.986 211.504 273.919 211.536 273.847 211.545Z" fill="white"/>
<path d="M274.651 198.325C274.441 197.267 274.659 196.169 275.257 195.271C275.855 194.374 276.785 193.75 277.843 193.537C280.695 193.05 283.638 198.359 277.152 201.687C276.179 202.128 275.386 201.37 274.651 198.325Z" fill="#CC6633"/>
<path d="M282.642 230.821C271.538 231.659 261.419 225.977 257.842 223.691C267.976 221.219 278.463 220.529 288.833 221.653C290.531 225.343 291.063 230.176 282.642 230.821Z" fill="#CC6633"/>
<path opacity="0.2" d="M262.415 250.289C259.792 246.375 257.458 242.274 255.432 238.02C256.539 236.703 257.954 235.681 259.552 235.043C259.552 235.043 265.426 243 262.415 250.289Z" fill="black"/>
<path d="M236.721 268.162H281.08C283.046 268.162 284.932 268.943 286.322 270.334C287.713 271.724 288.494 273.61 288.494 275.576V321.983C288.494 324.108 287.649 326.147 286.147 327.65C284.644 329.152 282.605 329.997 280.48 329.997H237.876C235.603 329.997 233.424 329.094 231.817 327.487C230.21 325.88 229.308 323.701 229.308 321.428V275.576C229.308 273.61 230.089 271.724 231.479 270.334C232.869 268.943 234.755 268.162 236.721 268.162Z" fill="#407BFF"/>
<path opacity="0.5" d="M288.494 275.576V321.983C288.498 323.882 287.828 325.721 286.603 327.172C285.378 328.623 283.677 329.592 281.804 329.906C281.371 329.983 280.931 330.021 280.491 330.019H237.876C235.603 330.019 233.424 329.116 231.817 327.509C230.21 325.903 229.308 323.723 229.308 321.451V275.576C229.308 273.609 230.089 271.724 231.479 270.333C232.869 268.943 234.755 268.162 236.721 268.162H281.091C281.242 268.151 281.393 268.151 281.544 268.162C283.43 268.277 285.2 269.109 286.492 270.488C287.784 271.866 288.5 273.686 288.494 275.576Z" fill="white"/>
<path opacity="0.2" d="M288.494 275.576V321.983C288.498 323.882 287.828 325.721 286.603 327.172C285.378 328.623 283.677 329.592 281.804 329.906C279.79 329.59 277.955 328.564 276.63 327.014C275.306 325.463 274.58 323.49 274.583 321.451V275.576C274.516 274.622 274.647 273.664 274.966 272.762C275.285 271.86 275.787 271.034 276.439 270.334C277.091 269.635 277.881 269.077 278.758 268.695C279.635 268.314 280.582 268.117 281.538 268.117C282.495 268.117 283.441 268.314 284.319 268.695C285.196 269.077 285.985 269.635 286.638 270.334C287.29 271.034 287.791 271.86 288.111 272.762C288.43 273.664 288.56 274.622 288.494 275.576Z" fill="black"/>
<path d="M259.008 264.506L265.8 266.894C265.8 266.894 274.73 267.211 275.704 267.596C276.677 267.981 276.836 275.202 276.926 275.983C277.017 276.764 268.188 277.217 267.215 276.526C266.241 275.836 265.29 272.938 265.29 272.938L256.235 269.826L259.008 264.506Z" fill="#CC6633"/>
<path d="M252.002 225.298C245.641 227.675 232.59 254.795 232.59 260.194C232.59 265.593 264.079 271.513 264.079 271.513L267.09 266.985C267.09 266.985 245.335 258.7 244.645 256.798C243.954 254.897 257.605 239.48 257.605 239.48C257.605 239.48 259.02 233.504 257.605 230.878C256.19 228.252 252.002 225.298 252.002 225.298Z" fill="#CC6633"/>
<path d="M252.002 225.298C249.399 224.245 243.196 233.357 243.196 233.357L256.631 242.876L258.804 241.144C258.804 241.144 263.049 229.78 252.002 225.298Z" fill="#407BFF"/>
<path d="M241.623 234.058L242.687 230.9L257.525 242.898L256.473 244.177L241.623 234.058Z" fill="#407BFF"/>
<path opacity="0.6" d="M241.623 234.058L242.687 230.9L257.525 242.898L256.473 244.177L241.623 234.058Z" fill="white"/>
<path d="M197.966 220.397L190.801 225.095L188.232 218.439L195.612 214.727L197.966 220.397Z" fill="#CC6633"/>
<path d="M160.127 224.54C160.241 224.8 167.417 232.984 171.718 233.923C176.019 234.863 192.42 225.479 192.42 225.479L188.719 216.187C188.719 216.187 175.397 220.997 174.276 221.552C173.155 222.106 169.126 216.673 169.126 216.673L160.127 224.54Z" fill="#407BFF"/>
<path opacity="0.1" d="M160.127 224.54C160.241 224.8 167.417 232.984 171.718 233.923C176.019 234.863 192.42 225.479 192.42 225.479L188.719 216.187C188.719 216.187 175.397 220.997 174.276 221.552C173.155 222.106 169.126 216.673 169.126 216.673L160.127 224.54Z" fill="white"/>
<path d="M193.484 214.579L196.766 223.068L199.302 221.246L202.403 220.884C203.988 220.703 210.813 215.937 211.164 215.224C211.515 214.511 206.444 203.645 206.15 203.837C205.855 204.03 196.223 209.803 195.702 210.006C195.182 210.21 194.944 213.957 194.944 213.957L193.484 214.579Z" fill="#407BFF"/>
<path opacity="0.8" d="M193.484 214.579L196.766 223.068L199.302 221.246L202.403 220.884C203.988 220.703 210.813 215.937 211.164 215.224C211.515 214.511 206.444 203.645 206.15 203.837C205.855 204.03 196.223 209.803 195.702 210.006C195.182 210.21 194.944 213.957 194.944 213.957L193.484 214.579Z" fill="white"/>
<path d="M201.352 213.956L202.657 214.834L207.742 207.273L206.436 206.395L201.352 213.956Z" fill="#407BFF"/>
<path opacity="0.3" d="M201.352 213.956L202.657 214.834L207.742 207.273L206.436 206.395L201.352 213.956Z" fill="white"/>
<path d="M200.281 213.879L203.127 215.793L203.569 215.135L200.723 213.222L200.281 213.879Z" fill="#407BFF"/>
<path opacity="0.5" d="M200.281 213.879L203.127 215.793L203.569 215.135L200.723 213.222L200.281 213.879Z" fill="white"/>
<path d="M202.324 206.894L208.821 211.263L207.462 208.456L205.448 207.097L202.324 206.894Z" fill="#407BFF"/>
<path d="M202.147 207.189L208.637 211.554L208.833 211.263L202.343 206.898L202.147 207.189Z" fill="#407BFF"/>
<path opacity="0.6" d="M202.147 207.189L208.637 211.554L208.833 211.263L202.343 206.898L202.147 207.189Z" fill="white"/>
<path opacity="0.5" d="M202.324 206.894L208.821 211.263L207.462 208.456L205.448 207.097L202.324 206.894Z" fill="white"/>
<path d="M213.869 197.159L213.484 196.899L218.023 190.164L217.898 191.16L213.869 197.159Z" fill="#407BFF"/>
<path d="M212.636 197.451L213.688 198.158L214.73 196.608L213.678 195.901L212.636 197.451Z" fill="#407BFF"/>
<path opacity="0.5" d="M212.636 197.451L213.688 198.158L214.73 196.608L213.678 195.901L212.636 197.451Z" fill="white"/>
<path d="M207.976 209.51L204.294 207.034L211.463 196.373C211.543 196.254 211.668 196.171 211.809 196.143C211.951 196.116 212.097 196.145 212.217 196.226L215.035 198.121C215.154 198.201 215.237 198.326 215.265 198.467C215.292 198.608 215.263 198.755 215.182 198.875L208.045 209.488L207.976 209.51Z" fill="#407BFF"/>
<path opacity="0.6" d="M207.976 209.51L204.294 207.034L211.463 196.373C211.543 196.254 211.668 196.171 211.809 196.143C211.951 196.116 212.097 196.145 212.217 196.226L215.035 198.121C215.154 198.201 215.237 198.326 215.265 198.467C215.292 198.608 215.263 198.755 215.182 198.875L208.045 209.488L207.976 209.51Z" fill="white"/>
<path d="M195.057 157.498C195.057 157.498 190.688 187.006 189.239 188.387C187.79 189.768 169.839 184.403 169.839 184.403L172.386 155.562L195.057 157.498Z" fill="#407BFF"/>
<path opacity="0.8" d="M195.057 157.498C195.057 157.498 190.688 187.006 189.239 188.387C187.79 189.768 169.839 184.403 169.839 184.403L172.386 155.562L195.057 157.498Z" fill="white"/>
<path d="M188.447 171.703C188.117 173.243 187.6 174.737 186.908 176.151C187.276 176.445 187.717 176.632 188.184 176.692C188.652 176.752 189.126 176.683 189.556 176.491L188.447 171.703Z" fill="#CC6633"/>
<path d="M190.36 166.135C190.277 166.136 190.197 166.108 190.133 166.056C189.545 165.732 188.891 165.546 188.22 165.513C187.549 165.48 186.88 165.599 186.262 165.863C186.166 165.887 186.064 165.876 185.975 165.832C185.887 165.788 185.816 165.714 185.777 165.623C185.737 165.532 185.731 165.43 185.76 165.335C185.789 165.24 185.851 165.158 185.934 165.105C186.68 164.786 187.49 164.646 188.299 164.695C189.109 164.744 189.896 164.981 190.597 165.388C190.686 165.449 190.746 165.544 190.765 165.65C190.784 165.756 190.761 165.865 190.699 165.954C190.664 166.011 190.613 166.058 190.554 166.09C190.494 166.121 190.427 166.137 190.36 166.135Z" fill="#263238"/>
<path d="M188.322 169.032C188.096 169.756 188.322 170.469 188.787 170.628C189.251 170.786 189.851 170.311 190.088 169.586C190.326 168.862 190.088 168.149 189.624 167.99C189.16 167.832 188.56 168.307 188.322 169.032Z" fill="#263238"/>
<path d="M184.836 180.928C183.062 183.783 180.336 185.92 177.139 186.961C176.456 187.185 175.755 187.355 175.045 187.47C172.315 187.953 169.502 187.531 167.034 186.269C164.566 185.006 162.578 182.972 161.372 180.475C158.135 174.035 160.093 168.443 162.651 158.743C163.212 156.467 164.345 154.372 165.944 152.658C167.542 150.944 169.553 149.667 171.784 148.949C174.015 148.231 176.393 148.095 178.692 148.556C180.99 149.016 183.132 150.056 184.915 151.578C193.019 158.438 189.692 173.027 184.836 180.928Z" fill="#CC6633"/>
<path opacity="0.2" d="M177.139 186.961C176.456 187.185 175.756 187.356 175.045 187.471C173.174 187.798 171.252 187.703 169.422 187.194C167.591 186.685 165.897 185.774 164.462 184.528C165.26 183.523 166.185 182.625 167.213 181.856C170.944 182.569 174.39 184.341 177.139 186.961Z" fill="black"/>
<path d="M146.975 190.64C148.616 197.103 163.228 197.974 163.228 197.974C163.228 197.974 170.665 200.408 170.642 197.567C167.348 194.5 166.692 191.591 167.416 188.885C167.919 187.232 168.742 185.693 169.839 184.358C170.425 183.604 171.052 182.882 171.718 182.196L165.356 164.776C162.991 171.93 153.936 188.885 146.975 190.64Z" fill="#CC6633"/>
<path d="M183.546 146.598C183.546 146.598 186.568 145.874 189.545 151.329C192.057 155.925 187.519 157.476 188.277 162.58C189.035 167.685 184.689 171.024 184.689 171.024C184.689 171.024 181.123 174.85 177.581 173.379C177.581 173.379 173.449 176.004 172.714 179.876C171.978 183.747 164.462 177.736 158.463 179.491C158.463 179.491 153.936 176.095 153.189 166.7C152.97 162.595 153.531 158.486 154.841 154.589C154.841 154.589 155.973 148.828 162.629 144.946C169.284 141.063 181.712 142.071 183.546 146.598Z" fill="#263238"/>
<path d="M185.232 172.699C185.232 172.699 181.723 181.596 178.283 183.282C178.445 184.591 178.345 185.918 177.988 187.187C177.988 187.187 188.798 185.535 189.816 174.737L185.232 172.699Z" fill="#407BFF"/>
<path opacity="0.5" d="M185.232 172.699C185.232 172.699 181.723 181.596 178.283 183.282C178.445 184.591 178.345 185.918 177.988 187.187C177.988 187.187 188.798 185.535 189.816 174.737L185.232 172.699Z" fill="white"/>
<path d="M178.645 184.132C178.593 184.131 178.542 184.115 178.498 184.087C178.454 184.059 178.419 184.02 178.396 183.973C178.26 183.701 175 177.295 175.679 172.654C175.746 171.737 176.039 170.85 176.533 170.073C177.027 169.297 177.706 168.655 178.509 168.206C179.152 167.899 179.86 167.753 180.572 167.781C181.284 167.808 181.978 168.009 182.595 168.364C184.859 169.689 185.991 173.899 186.093 174.08C186.112 174.154 186.102 174.232 186.063 174.298C186.025 174.364 185.962 174.412 185.889 174.431C185.815 174.451 185.737 174.44 185.671 174.402C185.606 174.364 185.558 174.301 185.538 174.228C185.538 174.228 184.406 170.062 182.312 168.851C181.775 168.544 181.171 168.371 180.553 168.345C179.935 168.32 179.319 168.443 178.758 168.704C178.039 169.116 177.433 169.699 176.994 170.402C176.556 171.106 176.299 171.907 176.245 172.734C175.589 177.148 178.871 183.6 178.905 183.656C178.938 183.724 178.943 183.802 178.92 183.873C178.896 183.945 178.847 184.005 178.781 184.041C178.745 184.083 178.698 184.114 178.645 184.132Z" fill="white"/>
<path d="M176.437 170.719C176.33 171.674 176.435 172.64 176.744 173.55C177.053 174.46 177.559 175.29 178.226 175.982C179.901 177.431 182.063 175.122 182.753 172.156C183.319 169.542 183.161 165.535 180.931 165.365C178.701 165.195 176.573 167.934 176.437 170.719Z" fill="#CC6633"/>
<path d="M159.108 402.935L169.012 401.577L170.382 378.045L160.501 379.414L159.108 402.935Z" fill="#CC6633"/>
<path opacity="0.2" d="M160.501 379.415L170.382 378.057L169.601 391.503L159.731 392.375L160.501 379.415Z" fill="black"/>
<path d="M192.918 291.547C190.077 322.764 176.053 388.47 176.053 388.47L157.83 387.078C157.83 387.078 157.083 326.103 164.711 294.909C152.012 293.449 108.83 300.896 100.387 286.261C100.333 286.181 100.284 286.098 100.239 286.012C95.7119 277.636 101.609 246.147 101.609 246.147L157.071 249.464L159.493 264.597C167.417 267.427 175.17 268.898 181.259 271.479C189.024 274.773 193.982 279.798 192.918 291.547Z" fill="#407BFF"/>
<path d="M169.782 400.377L158.599 399.686C158.413 399.667 158.227 399.722 158.081 399.838C157.935 399.955 157.841 400.124 157.818 400.309L156.686 409.138C156.661 409.6 156.817 410.054 157.122 410.403C157.426 410.751 157.855 410.968 158.316 411.005C162.221 411.186 164.1 411.073 169.012 411.345C172.035 411.526 177.988 412.16 182.154 411.764C186.319 411.367 185.821 407.236 184.021 407.055C179.743 406.568 174.095 403.433 171.423 401.045C170.962 400.652 170.387 400.418 169.782 400.377Z" fill="#263238"/>
<path d="M169.997 401.6H170.201C170.201 401.6 170.427 401.668 170.461 401.702C170.495 401.736 170.461 401.702 170.461 401.77C170.49 401.781 170.523 401.781 170.552 401.77C171.398 402.039 172.271 402.213 173.155 402.29C173.81 402.403 174.483 402.27 175.045 401.917C175.22 401.76 175.347 401.556 175.411 401.33C175.475 401.103 175.474 400.864 175.407 400.638C175.39 400.489 175.335 400.346 175.248 400.223C175.161 400.101 175.045 400.002 174.909 399.936C173.958 399.781 172.981 399.961 172.148 400.445C172.732 399.831 173.081 399.029 173.132 398.182C173.09 397.981 172.985 397.8 172.832 397.664C172.679 397.527 172.487 397.443 172.283 397.423C172.087 397.388 171.885 397.393 171.691 397.438C171.496 397.483 171.313 397.566 171.152 397.684C170.11 398.589 169.94 401.408 169.94 401.577L169.997 401.6ZM171.072 401.023L170.869 401.136C170.869 400.197 171.084 398.612 171.706 398.08C171.775 398.017 171.855 397.969 171.942 397.937C172.03 397.906 172.123 397.893 172.216 397.899H172.329C172.657 397.899 172.736 398.125 172.747 398.261C172.533 399.351 171.94 400.329 171.072 401.023ZM171.208 401.521C172.419 400.853 174.128 400.129 174.762 400.389C174.829 400.418 174.887 400.465 174.929 400.525C174.971 400.585 174.996 400.655 175 400.728C175.039 400.871 175.04 401.022 175.002 401.165C174.965 401.308 174.89 401.439 174.785 401.543C174.309 402.007 172.974 401.985 171.208 401.521Z" fill="#407BFF"/>
<path d="M101.609 246.17C101.609 246.17 114.49 160.305 182.516 190.142L185.232 212.417L180.512 217.907C180.512 217.907 162.73 230.482 157.094 249.486L101.609 246.17Z" fill="#407BFF"/>
<path opacity="0.2" d="M185.233 212.417L180.513 217.907C177.978 219.787 175.584 221.849 173.348 224.075C167.688 229.565 160.365 238.439 157.094 249.486L101.632 246.17C101.632 246.17 114.513 160.305 182.539 190.142L184.802 208.999L185.233 212.417Z" fill="white"/>
<path opacity="0.2" d="M185.232 212.417L180.512 217.907C177.978 219.787 175.583 221.849 173.348 224.076C172.6 216.974 173.313 209.794 175.442 202.978L184.825 208.999L185.232 212.417Z" fill="black"/>
<path d="M218.453 239.084L228.278 243.725C229.104 242.485 230.036 241.319 231.062 240.239C234.539 239.355 238.089 238.787 241.668 238.541C242.392 238.767 243.932 247.505 242.8 248.66C241.668 249.815 232.341 250.924 232.341 250.924L229.896 250.098L216.767 246.453L218.453 239.084Z" fill="#CC6633"/>
<path d="M182.516 190.142C189.16 192.677 194.684 221.008 196.619 223.555C198.555 226.101 224.112 240.612 224.112 240.612L221.849 249.328C221.849 249.328 193.042 239.254 189.16 235.971C185.278 232.689 176.03 211.919 176.03 211.919C175.076 207.202 175.076 202.341 176.03 197.623C177.705 190.436 182.516 190.142 182.516 190.142Z" fill="#407BFF"/>
<path opacity="0.2" d="M182.516 190.142C189.16 192.677 194.684 221.008 196.619 223.555C198.555 226.101 224.112 240.612 224.112 240.612L221.849 249.328C221.849 249.328 193.042 239.254 189.16 235.971C185.278 232.689 176.03 211.919 176.03 211.919C175.076 207.202 175.076 202.341 176.03 197.623C177.705 190.436 182.516 190.142 182.516 190.142Z" fill="white"/>
<path d="M154.388 153.118L195.578 158.121L195.057 162.139L153.607 156.91L154.388 153.118Z" fill="#407BFF"/>
<path d="M226.965 242.65V251.761L229.976 250.969L233.009 251.761C234.548 252.157 242.63 250.177 243.196 249.69C243.762 249.203 242.97 237.239 242.63 237.239C242.291 237.239 231.209 239.22 230.655 239.22C230.1 239.22 228.527 242.616 228.527 242.616L226.965 242.65Z" fill="white"/>
<path opacity="0.2" d="M192.918 291.547C190.077 322.764 176.053 388.47 176.053 388.47L157.83 387.077C157.83 387.077 157.083 326.103 164.712 294.908C152.012 293.448 108.831 300.896 100.387 286.261C106.046 288.604 115.939 290.041 131.095 283.725L181.282 271.479C189.024 274.772 193.982 279.798 192.918 291.547Z" fill="black"/>
<path d="M185.583 400.105L195.567 400.264L200.513 377.218L190.53 377.071L185.583 400.105Z" fill="#CC6633"/>
<path d="M196.947 400.626C196.947 400.626 196.947 400.683 196.947 400.705H197.027C197.823 401.092 198.658 401.396 199.517 401.611C200.15 401.823 200.839 401.795 201.452 401.532C201.65 401.403 201.808 401.221 201.908 401.007C202.008 400.793 202.046 400.555 202.018 400.321C202.024 400.172 201.992 400.024 201.925 399.891C201.857 399.759 201.757 399.645 201.633 399.562C200.723 399.25 199.729 399.278 198.838 399.641C199.524 399.122 200.005 398.376 200.196 397.536C200.201 397.339 200.139 397.146 200.02 396.99C199.9 396.833 199.731 396.723 199.539 396.676C199.378 396.614 199.204 396.59 199.031 396.605C198.858 396.621 198.691 396.676 198.543 396.766C197.411 397.502 197.061 400.309 197.038 400.468H197.208H197.038H196.868C196.862 400.499 196.867 400.532 196.881 400.56C196.896 400.589 196.919 400.612 196.947 400.626ZM197.649 400.038L197.434 400.117C197.615 399.189 198.034 397.661 198.736 397.231C198.811 397.175 198.898 397.136 198.99 397.119C199.082 397.101 199.177 397.104 199.268 397.129H199.37C199.687 397.231 199.743 397.412 199.732 397.547C199.721 398.261 198.634 399.438 197.683 400.038H197.649ZM197.717 400.547C199.007 400.072 200.807 399.608 201.396 400.004C201.457 400.044 201.506 400.1 201.537 400.166C201.569 400.231 201.583 400.304 201.577 400.377C201.594 400.524 201.572 400.673 201.512 400.808C201.453 400.944 201.358 401.061 201.237 401.147C200.717 401.498 199.426 401.271 197.751 400.547H197.717Z" fill="#407BFF"/>
<path opacity="0.2" d="M190.53 377.071L200.502 377.23L197.683 390.405L187.791 389.76L190.53 377.071Z" fill="black"/>
<path d="M204.531 388.413L186.76 384.259C186.76 384.259 193.846 324.643 203.286 303.567C202.471 303.352 201.407 303.08 200.083 302.763C197.694 302.198 194.525 301.496 190.812 300.681C164.949 295.078 112.611 284.834 112.611 284.834L134.92 261.495C134.92 261.495 229.613 270.448 232.975 295.078C234.537 306.872 204.531 388.413 204.531 388.413Z" fill="#407BFF"/>
<path d="M196.495 399.2L185.549 396.811C185.368 396.763 185.174 396.788 185.011 396.881C184.848 396.974 184.728 397.128 184.678 397.309L182.233 405.866C182.135 406.319 182.219 406.793 182.466 407.185C182.714 407.576 183.106 407.855 183.557 407.96C187.394 408.73 189.217 408.911 194.084 409.93C197.049 410.564 202.833 412.103 207.01 412.341C211.187 412.578 211.311 408.436 209.568 407.972C205.425 406.84 200.309 402.878 198.034 400.116C197.634 399.652 197.094 399.33 196.495 399.2Z" fill="#263238"/>
<path d="M93.8332 291.275H169.579C171.08 291.275 172.519 291.872 173.58 292.933C174.642 293.994 175.238 295.434 175.238 296.935V304.507H88.1738V296.935C88.1738 295.434 88.7701 293.994 89.8314 292.933C90.8928 291.872 92.3323 291.275 93.8332 291.275Z" fill="#407BFF"/>
<path opacity="0.3" d="M93.8332 291.275H169.579C171.08 291.275 172.519 291.872 173.58 292.933C174.642 293.994 175.238 295.434 175.238 296.935V304.507H88.1738V296.935C88.1738 295.434 88.7701 293.994 89.8314 292.933C90.8928 291.872 92.3323 291.275 93.8332 291.275Z" fill="black"/>
<path d="M79.2318 240.59H110.359C119.473 240.59 126.861 233.201 126.861 224.087V211.908C126.861 202.794 119.473 195.405 110.359 195.405H79.2318C70.1175 195.405 62.729 202.794 62.729 211.908V224.087C62.729 233.201 70.1175 240.59 79.2318 240.59Z" fill="#407BFF"/>
<g opacity="0.3">
<path opacity="0.3" d="M79.2318 240.59H110.359C119.473 240.59 126.861 233.201 126.861 224.087V211.908C126.861 202.794 119.473 195.405 110.359 195.405H79.2318C70.1175 195.405 62.729 202.794 62.729 211.908V224.087C62.729 233.201 70.1175 240.59 79.2318 240.59Z" fill="black"/>
</g>
<path d="M91.49 386.625L124.111 383.422V330.789H137.037V383.399L169.782 386.625C171.353 386.779 172.811 387.512 173.872 388.682C174.932 389.851 175.52 391.373 175.521 392.952V397.842H85.7627V392.952C85.7633 391.375 86.3496 389.854 87.4078 388.685C88.4661 387.516 89.9209 386.782 91.49 386.625Z" fill="#263238"/>
<path opacity="0.2" d="M91.49 386.625L124.111 383.422V330.789H137.037V383.399L169.782 386.625C171.353 386.779 172.811 387.512 173.872 388.682C174.932 389.851 175.52 391.373 175.521 392.952V397.842H85.7627V392.952C85.7633 391.375 86.3496 389.854 87.4078 388.685C88.4661 387.516 89.9209 386.782 91.49 386.625Z" fill="white"/>
<path d="M172.057 412.363C176.727 412.363 180.512 408.578 180.512 403.908C180.512 399.239 176.727 395.453 172.057 395.453C167.388 395.453 163.602 399.239 163.602 403.908C163.602 408.578 167.388 412.363 172.057 412.363Z" fill="#263238"/>
<path d="M89.2149 412.363C93.8846 412.363 97.6701 408.578 97.6701 403.908C97.6701 399.239 93.8846 395.453 89.2149 395.453C84.5453 395.453 80.7598 399.239 80.7598 403.908C80.7598 408.578 84.5453 412.363 89.2149 412.363Z" fill="#263238"/>
<path d="M134.581 340.637H126.556C125.316 340.637 124.127 340.144 123.25 339.268C122.374 338.391 121.881 337.202 121.881 335.962V299.821H139.255V335.962C139.255 337.202 138.763 338.391 137.886 339.268C137.01 340.144 135.821 340.637 134.581 340.637Z" fill="#263238"/>
<path opacity="0.3" d="M134.581 340.637H126.556C125.316 340.637 124.127 340.144 123.25 339.268C122.374 338.391 121.881 337.202 121.881 335.962V299.821H139.255V335.962C139.255 337.202 138.763 338.391 137.886 339.268C137.01 340.144 135.821 340.637 134.581 340.637Z" fill="white"/>
<path d="M99.6738 228.161C99.6738 228.161 97.2063 289.283 114.218 299.809H94.7954C94.7954 299.809 79.7414 278.983 83.9972 228.161H99.6738Z" fill="#263238"/>
<path opacity="0.3" d="M99.6738 228.161C99.6738 228.161 97.2063 289.283 114.218 299.809H94.7954C94.7954 299.809 79.7414 278.983 83.9972 228.161H99.6738Z" fill="white"/>
<path d="M176.596 297.886H86.8268C85.5703 297.886 84.5518 298.904 84.5518 300.161V302.221C84.5518 303.477 85.5703 304.496 86.8268 304.496H176.596C177.853 304.496 178.871 303.477 178.871 302.221V300.161C178.871 298.904 177.853 297.886 176.596 297.886Z" fill="#263238"/>
<path opacity="0.6" d="M176.596 297.886H86.8268C85.5703 297.886 84.5518 298.904 84.5518 300.161V302.221C84.5518 303.477 85.5703 304.496 86.8268 304.496H176.596C177.853 304.496 178.871 303.477 178.871 302.221V300.161C178.871 298.904 177.853 297.886 176.596 297.886Z" fill="white"/>
<path d="M99.9224 209.135H82.3443C77.1933 209.135 73.0176 213.31 73.0176 218.461V225.332C73.0176 230.483 77.1933 234.659 82.3443 234.659H99.9224C105.073 234.659 109.249 230.483 109.249 225.332V218.461C109.249 213.31 105.073 209.135 99.9224 209.135Z" fill="#263238"/>
<path opacity="0.2" d="M99.9224 209.135H82.3443C77.1933 209.135 73.0176 213.31 73.0176 218.461V225.332C73.0176 230.483 77.1933 234.659 82.3443 234.659H99.9224C105.073 234.659 109.249 230.483 109.249 225.332V218.461C109.249 213.31 105.073 209.135 99.9224 209.135Z" fill="white"/>
</svg>
