<svg width="150" height="159" viewBox="0 0 150 159" fill="none" xmlns="http://www.w3.org/2000/svg">
<g opacity="0.6">
<path opacity="0.3" d="M149.018 138.068C148.508 134.459 145.837 131.215 142.82 131.379C141.927 131.474 141.059 131.786 140.269 132.296C139.478 132.807 138.781 133.505 138.218 134.349C137.807 134.907 137.431 135.502 137.095 136.129C136.812 135.464 136.488 134.825 136.125 134.218C135.642 133.305 135.011 132.521 134.27 131.912C133.528 131.304 132.692 130.885 131.813 130.68C128.822 130.134 125.89 133.012 125.046 136.534C124.203 140.055 125.173 143.91 126.851 146.946C128.529 149.982 131.402 153.919 136.464 155.683C139.878 154.957 144.34 151.009 146.284 148.208C148.228 145.407 149.527 141.666 149.018 138.068Z" fill="#EBEBEB"/>
<path d="M148.178 144.649H147.786L146.663 144.6L142.535 144.376L142.607 144.316C142.156 145.905 141.66 147.772 141.1 149.815L141.01 150.148L140.929 149.809C140.307 147.215 139.612 144.31 138.877 141.253C138.651 140.303 138.425 139.369 138.209 138.462L138.385 138.49L135.448 143.89L135.421 143.939H135.372L128.113 143.431L126.056 143.268L125.515 143.218C125.453 143.214 125.391 143.205 125.33 143.191C125.33 143.191 125.393 143.191 125.515 143.191H126.061L128.118 143.289L135.381 143.71L135.299 143.759L138.222 138.353L138.34 138.135L138.398 138.38C138.615 139.292 138.849 140.226 139.066 141.176C139.792 144.239 140.487 147.144 141.1 149.738H140.929L142.472 144.278V144.212H142.526L146.649 144.513L147.768 144.611H148.061C148.101 144.616 148.141 144.629 148.178 144.649Z" fill="#FAFAFA"/>
<path d="M64.0599 158.332C64.1638 158.224 64.2752 158.127 64.393 158.042L65.3924 157.246C65.9446 156.839 66.4752 156.39 66.9811 155.902C67.6986 155.281 68.3886 154.615 69.0482 153.907L70.227 152.645C70.6199 152.18 71.0299 151.673 71.4484 151.156C71.899 150.622 72.3266 150.059 72.7296 149.471C73.1482 148.861 73.6265 148.261 74.0279 147.558C76.0022 144.51 77.639 141.163 78.8967 137.602C80.44 133.293 81.4032 128.714 81.7495 124.037C81.9459 121.44 81.9459 118.827 81.7495 116.23C81.4797 113.478 81.0891 110.744 80.5793 108.042C79.6056 102.5 78.3158 96.5651 78.7087 90.2685C79.1017 83.9719 81.1687 77.8614 83.9191 72.1438C86.6695 66.4262 89.8982 61.1842 93.9213 57.1932C95.8764 55.2184 98.0719 53.6211 100.43 52.4578C102.702 51.4066 105.076 50.7117 107.494 50.39C111.952 49.8797 116.435 49.7933 120.904 50.1315C124.769 50.3754 128.644 50.1746 132.478 49.5318C135.645 48.993 138.687 47.6696 141.412 45.6442C143.486 44.1133 145.275 42.0784 146.666 39.6681C147.547 38.1579 148.201 36.4707 148.596 34.6846C148.861 33.4646 148.912 32.7925 148.946 32.8029C148.908 33.4484 148.822 34.0885 148.69 34.7156C148.329 36.5325 147.695 38.2534 146.819 39.7922C145.447 42.2448 143.667 44.3227 141.592 45.8924C138.844 47.972 135.77 49.3381 132.563 49.904C128.701 50.5781 124.793 50.7963 120.896 50.5554C116.448 50.2504 111.988 50.3541 107.554 50.8656C105.174 51.1999 102.838 51.8946 100.601 52.9334C98.2886 54.0816 96.1365 55.6544 94.2203 57.5964C90.274 61.515 87.088 66.757 84.3291 72.3919C81.5702 78.0268 79.5629 84.1063 79.2041 90.2685C78.8454 96.4307 80.0583 102.324 81.0406 107.897C81.548 110.627 81.9329 113.388 82.1937 116.168C82.3988 118.799 82.3988 121.447 82.1937 124.078C81.804 128.807 80.7889 133.429 79.1871 137.767C77.8944 141.346 76.2234 144.707 74.2159 147.765C73.7973 148.468 73.3617 149.058 72.8919 149.668C72.4221 150.278 72.0378 150.846 71.5936 151.353L70.3465 152.831L69.1422 154.082C68.4717 154.783 67.7703 155.439 67.0409 156.047C66.5245 156.524 65.9824 156.96 65.418 157.35L64.393 158.094C64.2884 158.186 64.1769 158.265 64.0599 158.332Z" fill="#E0E0E0"/>
<path d="M40.8451 130.363C40.8451 130.363 40.8964 130.198 41.0159 129.898C41.1355 129.598 41.332 129.122 41.5626 128.554C41.7932 127.985 42.1691 127.282 42.5705 126.486C42.972 125.69 43.493 124.738 44.1422 123.767C45.669 121.353 47.4298 119.169 49.3867 117.263C51.9719 114.721 54.8717 112.686 57.9795 111.235C59.7921 110.407 61.6613 109.774 63.5657 109.343C65.6355 108.923 67.7283 108.692 69.8267 108.651C74.1573 108.495 78.7868 108.93 83.6213 108.578C86.0936 108.409 88.5428 107.91 90.9244 107.089C93.4002 106.204 95.778 104.958 98.0053 103.378C102.695 100.029 106.694 95.4329 109.699 89.9364C112.681 84.4105 114.714 78.215 115.678 71.7186C116.594 65.6772 116.733 59.5004 116.088 53.4078C115.481 47.5868 114.311 42.1586 113.636 36.9683C112.874 32.162 112.817 27.2309 113.466 22.4003C114.104 18.4332 115.375 14.6546 117.207 11.2752C118.58 8.72561 120.249 6.42758 122.161 4.45131C123.379 3.2246 124.682 2.12798 126.056 1.17376L127.158 0.501708L127.542 0.294922L127.183 0.553404L126.107 1.27715C124.757 2.26406 123.478 3.38453 122.281 4.62708C120.407 6.61487 118.774 8.91205 117.429 11.451C115.643 14.8093 114.405 18.5506 113.782 22.4727C113.167 27.2568 113.245 32.1339 114.012 36.8856C114.696 42.0553 115.883 47.4627 116.515 53.3354C117.174 59.4851 117.042 65.7215 116.122 71.822C115.161 78.392 113.113 84.6591 110.1 90.2466C107.058 95.8235 103.003 100.485 98.2445 103.874C95.9814 105.472 93.5664 106.733 91.0525 107.627C88.6409 108.46 86.1597 108.962 83.6555 109.126C78.7697 109.467 74.1487 109.012 69.8352 109.126C67.7575 109.162 65.6848 109.383 63.634 109.788C61.7482 110.2 59.896 110.812 58.0991 111.618C52.6643 114.135 47.8923 118.382 44.2874 123.911C43.6382 124.863 43.1513 125.803 42.6901 126.579C42.2288 127.354 41.9128 128.078 41.648 128.647C41.3832 129.215 41.2038 129.681 41.0586 129.949C40.9134 130.218 40.8451 130.363 40.8451 130.363Z" fill="#E0E0E0"/>
<path d="M116.923 10.9238C117.383 11.1841 117.823 11.492 118.239 11.844C119.093 12.4644 120.237 13.4053 121.655 14.6046C129.13 20.8867 136.048 28.0866 142.3 36.0896C143.488 37.6301 144.436 38.8915 145.068 39.791C145.418 40.2466 145.735 40.7378 146.016 41.2592C145.636 40.8582 145.282 40.4227 144.957 39.9565C144.214 39.0466 143.248 37.8886 142.078 36.3791C139.635 33.3807 136.176 29.338 132.153 25.1506C128.13 20.9632 124.32 17.4169 121.502 14.9458L118.153 12.0301C117.719 11.7022 117.308 11.3322 116.923 10.9238Z" fill="#E0E0E0"/>
<path d="M113.55 21.9668C113.896 22.2803 114.222 22.626 114.524 23.0007L117.086 25.9784C119.247 28.4909 122.271 31.9028 125.73 35.5216C129.19 39.1403 132.419 42.2525 134.793 44.4754L137.595 47.1016C137.956 47.4077 138.294 47.7538 138.603 48.1355C138.211 47.9039 137.839 47.6269 137.492 47.3084C136.792 46.7397 135.784 45.8919 134.588 44.8269C132.162 42.6867 128.882 39.6573 125.414 35.9869C121.947 32.3164 118.948 28.8838 116.873 26.299C115.822 24.9962 114.985 23.9313 114.421 23.1972C114.094 22.8278 113.802 22.4151 113.55 21.9668Z" fill="#E0E0E0"/>
<path d="M114.677 35.5234C115.456 36.0936 116.191 36.7477 116.872 37.4775C118.188 38.7389 119.973 40.5793 121.903 42.6472C123.834 44.715 125.533 46.6278 126.738 48.0443C127.428 48.7674 128.057 49.5708 128.617 50.443C127.869 49.8228 127.164 49.1313 126.507 48.3751L121.587 43.1228L116.659 37.8704C115.941 37.1619 115.278 36.3764 114.677 35.5234Z" fill="#E0E0E0"/>
<path d="M106.195 51.7969C106.792 52.2163 107.35 52.7119 107.86 53.2754L111.747 57.0287L115.676 60.7302C116.253 61.1956 116.783 61.7404 117.256 62.3535C116.623 62.0104 116.027 61.5765 115.479 61.061C114.42 60.2029 112.985 58.9931 111.456 57.4939C109.927 55.9947 108.578 54.6402 107.638 53.5959C107.096 53.073 106.611 52.4684 106.195 51.7969Z" fill="#E0E0E0"/>
<path d="M96.1244 56.7699C96.1756 56.7079 97.1836 57.8969 98.8577 59.7372C100.532 61.5776 102.889 64.0073 105.665 66.5404C108.441 69.0735 111.021 71.1724 112.934 72.6406C113.995 73.3768 115.024 74.1774 116.018 75.0392C115.702 74.918 115.398 74.755 115.112 74.5533C114.549 74.2121 113.737 73.6745 112.755 72.9921C110.199 71.175 107.735 69.176 105.375 67.0057C103.017 64.8347 100.772 62.4902 98.6527 59.9854C97.8413 59.0238 97.2006 58.2174 96.7821 57.6487C96.5303 57.3941 96.3089 57.0984 96.1244 56.7699Z" fill="#E0E0E0"/>
<path d="M89.7366 65.9815C89.8135 65.8471 94.7933 70.3033 100.841 75.9279C106.888 81.5524 111.74 86.2051 111.654 86.3292C111.569 86.4533 106.606 82.0074 100.55 76.3828C94.4943 70.7582 89.6597 66.0745 89.7366 65.9815Z" fill="#E0E0E0"/>
<path d="M82.0052 74.3457C82.3515 74.5849 82.6752 74.8692 82.9705 75.1935L85.5329 77.6439C87.6854 79.7118 90.6579 82.5654 94.0232 85.6155C97.3886 88.6656 100.464 91.3331 102.71 93.2458L105.375 95.5308C105.713 95.7862 106.028 96.0843 106.315 96.42C105.949 96.2283 105.6 95.9927 105.273 95.7169C104.606 95.231 103.667 94.5072 102.522 93.587C100.224 91.757 97.0897 89.1308 93.7328 86.0807C90.376 83.0307 87.4121 80.1253 85.3194 77.9644C84.2688 76.9305 83.4317 76 82.8594 75.3693C82.5448 75.0666 82.2584 74.7234 82.0052 74.3457Z" fill="#E0E0E0"/>
<path d="M79.6648 86.4625C79.7417 86.328 83.9356 90.1122 89.1033 94.8993C94.2709 99.6864 98.3282 103.677 98.2428 103.801C98.1574 103.926 93.972 100.152 88.8043 95.3646C83.6366 90.5775 79.5794 86.5865 79.6648 86.4625Z" fill="#E0E0E0"/>
<path d="M77.4799 99.0684C79.3916 100.283 81.2272 101.665 82.9721 103.204C84.8068 104.575 86.5567 106.106 88.208 107.784C86.2906 106.576 84.4517 105.194 82.7073 103.649C80.8703 102.286 79.1227 100.755 77.4799 99.0684Z" fill="#E0E0E0"/>
<path d="M66.6556 111.123C67.5177 111.6 68.3437 112.168 69.1242 112.819C70.6104 113.946 72.6348 115.559 74.8043 117.44C76.9739 119.322 78.8958 121.132 80.2453 122.465C81.0112 123.146 81.7207 123.914 82.3636 124.761C81.549 124.179 80.7723 123.522 80.0403 122.796C78.631 121.535 76.692 119.798 74.5225 117.916C72.3529 116.034 70.3798 114.37 68.9448 113.16C68.1362 112.559 67.3704 111.878 66.6556 111.123Z" fill="#E0E0E0"/>
<path d="M57.2435 111.338C57.5984 111.564 57.9309 111.838 58.2344 112.155C58.8579 112.713 59.7377 113.55 60.7968 114.595C62.9493 116.663 65.8705 119.661 68.9882 123.094C72.1059 126.526 74.8221 129.773 76.744 132.171C77.7092 133.371 78.4523 134.363 78.9904 135.056C79.2745 135.396 79.5292 135.77 79.7506 136.173C79.4242 135.892 79.1235 135.569 78.8537 135.211L76.5048 132.471C74.5231 130.145 71.7728 126.96 68.6636 123.528C65.5545 120.095 62.6845 117.076 60.5833 114.905L58.1062 112.33C57.7915 112.036 57.5025 111.703 57.2435 111.338Z" fill="#E0E0E0"/>
<path d="M49.3431 119.84C49.7243 120.102 50.0846 120.407 50.4194 120.75C51.0856 121.37 52.0423 122.27 53.2125 123.407C55.5614 125.682 58.7645 128.876 62.2409 132.495C65.7173 136.114 68.8179 139.454 71.0302 141.914C72.1406 143.145 73.0204 144.158 73.5926 144.861C73.9256 145.206 74.229 145.59 74.498 146.009C74.1308 145.718 73.785 145.389 73.4645 145.026L70.7739 142.224C68.4335 139.774 65.3244 136.528 61.8992 132.919L52.9648 123.717L50.2998 120.874C49.9553 120.565 49.6351 120.219 49.3431 119.84Z" fill="#E0E0E0"/>
<path d="M34.2674 14.3776C35.6082 15.7165 36.7122 17.3689 37.5135 19.2359C38.3148 21.103 38.7969 23.1464 38.9311 25.2441C39.1841 29.4494 38.6377 33.669 37.3338 37.5789C34.9934 45.1989 29.6464 51.9918 24.4361 57.058C20.1653 49.6655 21.0194 39.2331 21.6686 33.9808C22.7534 25.7094 28.8862 11.4515 34.293 14.3362" fill="#F5F5F5"/>
<path d="M28.084 71.904C28.172 69.5544 28.7713 67.2747 29.8213 65.2956C30.8712 63.3166 32.3346 61.7085 34.0631 60.6342C35.8115 59.6033 37.7122 59.0047 39.654 58.8733C41.5958 58.7419 43.5397 59.0805 45.3722 59.8691C47.0805 60.5515 48.7888 61.7302 49.4636 63.7567C49.7123 64.7279 49.7428 65.7618 49.5522 66.7521C49.3615 67.7424 48.9565 68.6534 48.3788 69.3916C47.2052 70.8618 45.7321 71.9317 44.108 72.4933C38.6499 74.6542 33.0039 75.5331 28.0925 71.9867" fill="#F5F5F5"/>
<path d="M17.9023 88.0864C18.3597 86.376 18.9608 84.7269 19.6961 83.1649C20.4503 81.4275 21.3705 79.8034 22.4379 78.3261C23.6965 76.4984 25.0517 74.7715 26.4952 73.1564C29.1596 70.1875 32.3862 68.0571 35.8909 66.9528C36.9562 66.6535 38.0435 66.4838 39.1367 66.4462C39.5382 66.4029 39.9429 66.4449 40.3325 66.5703C40.3325 66.7357 38.6242 66.684 36.0617 67.6042C32.7004 68.8697 29.6136 71.024 27.0247 73.9112C25.601 75.5147 24.2523 77.213 22.9846 78.9981C21.923 80.4153 20.9842 81.9605 20.183 83.6095C19.5052 85.161 18.7433 86.6566 17.9023 88.0864Z" fill="#E0E0E0"/>
<path d="M30.39 25.752C30.3466 26.6577 30.238 27.5572 30.0654 28.4402C29.8092 30.1668 29.4077 32.6482 28.8952 35.6776C27.8617 41.7985 26.3327 50.2353 24.5219 59.4579C22.7111 68.6805 20.7978 77.0347 19.3457 83.0624C18.6197 86.0608 18.0047 88.4802 17.5519 90.1345C17.362 91.0129 17.1046 91.8679 16.7832 92.6883C16.881 91.7904 17.044 90.9047 17.2701 90.0414C17.6715 88.1907 18.2011 85.7817 18.8332 82.8867C20.1571 76.8486 21.9424 68.5048 23.7874 59.2408L28.3742 35.4605C28.9465 32.5448 29.4163 30.1255 29.775 28.223C29.9247 27.3806 30.1304 26.5543 30.39 25.752Z" fill="#E0E0E0"/>
<path d="M19.2344 72.4318C18.989 67.4793 17.7724 62.6687 15.6855 58.3985C13.5985 54.1283 10.7012 50.5213 7.23344 47.8762C5.46533 46.5528 3.09076 45.5292 1.40807 47.018C-0.274623 48.5069 -0.197741 51.5673 0.348921 53.997C1.55826 59.058 3.97999 63.5715 7.30802 66.9668C10.6361 70.3622 14.721 72.4871 19.0465 73.0728" fill="#F5F5F5"/>
<path d="M7.92578 55.207C7.92578 55.207 8.31015 55.4448 8.90805 55.9928C9.50596 56.5408 10.3601 57.399 11.3765 58.4846C14.0556 61.3359 16.2816 64.7557 17.945 68.5757C18.816 70.7233 19.393 73.028 19.6533 75.3996C19.8436 77.3356 19.8148 79.294 19.5679 81.2206C19.4041 82.5123 19.141 83.7827 18.7821 85.0152C18.6837 85.4784 18.5282 85.9211 18.3208 86.3282C18.1756 86.3282 18.7308 84.3534 19.0383 81.1586C19.2023 79.287 19.1765 77.3981 18.9614 75.534C18.6716 73.2629 18.0954 71.0591 17.2531 68.9996C15.6173 65.277 13.5041 61.8919 10.9922 58.9705C9.9094 57.7906 8.88547 56.5339 7.92578 55.207Z" fill="#E0E0E0"/>
</g>
</svg>
