<svg width="970" height="598" viewBox="0 0 970 598" fill="none" xmlns="http://www.w3.org/2000/svg">
<g filter="url(#filter0_dddddddd_9374_162224)">
<rect x="299.532" y="26.8906" width="371.945" height="448" rx="36" fill="#E4E8EF" stroke="white" stroke-width="8"/>
<path d="M292 97.248C292 96.1435 292.895 95.248 294 95.248H295.532V112.378H294C292.895 112.378 292 111.482 292 110.378V97.248Z" fill="white"/>
<path d="M293.009 130.031C293.009 128.927 293.905 128.031 295.009 128.031H295.532V162.29H295.009C293.905 162.29 293.009 161.395 293.009 160.29V130.031Z" fill="white"/>
<path d="M293.009 173.445C293.009 172.341 293.905 171.445 295.009 171.445H295.532V205.704H295.009C293.905 205.704 293.009 204.809 293.009 203.704V173.445Z" fill="white"/>
<path d="M678 191.891C678 192.995 677.105 193.891 676 193.891L675.477 193.891L675.477 139.549L676 139.549C677.105 139.549 678 140.444 678 141.549L678 191.891Z" fill="white"/>
<rect x="464.061" y="37.6582" width="42.8889" height="4.13472" rx="2.06736" fill="#E4E8EF"/>
<ellipse cx="523.6" cy="39.7256" rx="3.53204" ry="2.06736" fill="#E4E8EF"/>
</g>
<path d="M904 382.697H346V382.947H904V382.697Z" fill="#EBEBEB"/>
<path d="M539.314 389.076H513.445V389.326H539.314V389.076Z" fill="#EBEBEB"/>
<path d="M857.987 394.438H794.744V394.688H857.987V394.438Z" fill="#EBEBEB"/>
<path d="M456.919 394.438H393.675V394.688H456.919V394.438Z" fill="#EBEBEB"/>
<path d="M610.492 338.097H395.004C393.316 338.094 391.698 337.491 390.505 336.421C389.312 335.35 388.643 333.9 388.643 332.387V60.9569C388.657 59.4529 389.334 58.0149 390.525 56.9551C391.716 55.8953 393.325 55.2995 395.004 55.2969H610.492C612.182 55.2969 613.803 55.8985 614.998 56.9693C616.193 58.0401 616.865 59.4925 616.865 61.0069V332.387C616.865 333.901 616.193 335.354 614.998 336.424C613.803 337.495 612.182 338.097 610.492 338.097ZM395.004 55.4969C393.39 55.4995 391.843 56.0759 390.702 57.0996C389.562 58.1233 388.922 59.5105 388.922 60.9569V332.387C388.922 333.833 389.562 335.22 390.702 336.244C391.843 337.268 393.39 337.844 395.004 337.847H610.492C612.106 337.842 613.653 337.265 614.794 336.242C615.936 335.219 616.58 333.833 616.586 332.387V60.9569C616.58 59.5104 615.936 58.1247 614.794 57.1019C613.653 56.0791 612.106 55.5021 610.492 55.4969H395.004Z" fill="#EBEBEB"/>
<path d="M851.894 338.097H636.394C634.706 338.092 633.089 337.488 631.895 336.419C630.701 335.349 630.028 333.9 630.022 332.387V60.9569C630.04 59.452 630.718 58.014 631.911 56.9545C633.104 55.895 634.715 55.2994 636.394 55.2969H851.894C853.57 55.3021 855.177 55.8991 856.366 56.9586C857.555 58.0181 858.229 59.4546 858.244 60.9569V332.387C858.245 333.135 858.082 333.877 857.764 334.569C857.446 335.261 856.978 335.89 856.389 336.42C855.799 336.951 855.099 337.371 854.327 337.659C853.556 337.947 852.729 338.096 851.894 338.097ZM636.394 55.4969C634.78 55.5021 633.234 56.0791 632.092 57.1019C630.951 58.1247 630.307 59.5104 630.301 60.9569V332.387C630.307 333.833 630.951 335.219 632.092 336.242C633.234 337.265 634.78 337.842 636.394 337.847H851.894C853.508 337.842 855.055 337.265 856.196 336.242C857.338 335.219 857.981 333.833 857.987 332.387V60.9569C857.981 59.5104 857.338 58.1247 856.196 57.1019C855.055 56.0791 853.508 55.5021 851.894 55.4969H636.394Z" fill="#EBEBEB"/>
<path d="M697.618 303.326H671.85V383.236H697.618V303.326Z" fill="#E6E6E6"/>
<path d="M679.371 303.326H653.603V383.236H679.371V303.326Z" fill="#E6E6E6"/>
<path d="M674.484 383.238H679.372V370.758H669.339L674.484 383.238Z" fill="#F0F0F0"/>
<path d="M549.837 303.326H524.069V383.236H549.837V303.326Z" fill="#E6E6E6"/>
<path d="M679.383 303.326H545.574V377.096H679.383V303.326Z" fill="#F0F0F0"/>
<path d="M671.046 360.497H618.594C617.243 360.492 615.95 360.009 614.994 359.153C614.039 358.297 613.5 357.137 613.494 355.927V311.017C613.497 309.807 614.036 308.647 614.992 307.792C615.948 306.937 617.244 306.457 618.594 306.457H670.99C672.341 306.457 673.637 306.937 674.593 307.792C675.549 308.647 676.088 309.807 676.091 311.017V355.927C676.085 357.129 675.553 358.281 674.61 359.135C673.667 359.99 672.387 360.479 671.046 360.497ZM618.594 307.497C617.544 307.497 616.537 307.869 615.793 308.533C615.048 309.196 614.627 310.096 614.621 311.037V355.947C614.615 356.415 614.712 356.879 614.907 357.312C615.101 357.746 615.389 358.142 615.753 358.476C616.118 358.81 616.553 359.077 617.033 359.261C617.512 359.445 618.028 359.542 618.55 359.547H671.002C672.053 359.552 673.065 359.184 673.814 358.522C674.562 357.86 674.988 356.959 674.997 356.017V311.017C674.997 310.551 674.894 310.09 674.695 309.66C674.496 309.23 674.204 308.839 673.836 308.51C673.468 308.181 673.031 307.921 672.55 307.744C672.07 307.566 671.555 307.476 671.035 307.477L618.594 307.497Z" fill="#E0E0E0"/>
<path d="M606.296 360.497H553.844C552.493 360.492 551.199 360.009 550.244 359.153C549.289 358.297 548.75 357.137 548.744 355.927V311.017C548.747 309.807 549.285 308.647 550.241 307.792C551.198 306.937 552.493 306.457 553.844 306.457H606.296C607.646 306.457 608.942 306.937 609.898 307.792C610.854 308.647 611.393 309.807 611.396 311.017V355.927C611.393 357.138 610.855 358.299 609.899 359.156C608.943 360.012 607.648 360.494 606.296 360.497ZM553.844 307.497C553.324 307.496 552.809 307.586 552.329 307.764C551.848 307.941 551.411 308.201 551.043 308.53C550.675 308.859 550.383 309.25 550.184 309.68C549.985 310.11 549.882 310.571 549.882 311.037V355.947C549.882 356.413 549.984 356.875 550.184 357.306C550.383 357.736 550.674 358.128 551.042 358.457C551.41 358.787 551.847 359.048 552.328 359.227C552.808 359.405 553.324 359.497 553.844 359.497H606.296C607.347 359.494 608.354 359.12 609.098 358.455C609.842 357.79 610.263 356.889 610.269 355.947V311.017C610.263 310.076 609.842 309.176 609.097 308.513C608.353 307.849 607.346 307.477 606.296 307.477L553.844 307.497Z" fill="#E0E0E0"/>
<path d="M601.43 320.646C600.457 320.646 599.506 320.388 598.697 319.904C597.888 319.42 597.257 318.731 596.884 317.926C596.511 317.121 596.413 316.235 596.602 315.379C596.791 314.524 597.259 313.739 597.946 313.121C598.633 312.504 599.509 312.083 600.463 311.912C601.417 311.741 602.406 311.827 603.306 312.159C604.205 312.491 604.974 313.055 605.517 313.779C606.059 314.503 606.349 315.354 606.351 316.226C606.351 317.397 605.833 318.519 604.911 319.348C603.988 320.177 602.736 320.644 601.43 320.646Z" fill="#FAFAFA"/>
<path d="M623.505 320.646C622.531 320.652 621.578 320.399 620.765 319.919C619.952 319.44 619.316 318.755 618.937 317.951C618.559 317.148 618.455 316.262 618.638 315.405C618.821 314.549 619.284 313.76 619.968 313.139C620.651 312.518 621.525 312.093 622.478 311.917C623.432 311.741 624.422 311.822 625.324 312.15C626.226 312.479 626.998 313.039 627.545 313.761C628.091 314.483 628.386 315.334 628.393 316.206V316.296C628.378 317.451 627.857 318.554 626.943 319.368C626.028 320.182 624.794 320.641 623.505 320.646Z" fill="#FAFAFA"/>
<path d="M550.462 383.238H545.563V370.758H555.596L550.462 383.238Z" fill="#F0F0F0"/>
<path d="M541.635 303.326H515.866V383.236H541.635V303.326Z" fill="#E6E6E6"/>
<path d="M536.736 383.238H541.635V370.758H531.602L536.736 383.238Z" fill="#F0F0F0"/>
<path d="M541.635 303.326H407.826V377.096H541.635V303.326Z" fill="#F0F0F0"/>
<path d="M533.298 360.497H480.846C479.494 360.497 478.196 360.016 477.24 359.159C476.283 358.301 475.746 357.139 475.746 355.927V311.017C475.749 309.807 476.288 308.647 477.244 307.792C478.2 306.937 479.496 306.457 480.846 306.457H533.242C534.593 306.457 535.889 306.937 536.845 307.792C537.801 308.647 538.34 309.807 538.343 311.017V355.927C538.343 357.13 537.813 358.285 536.869 359.141C535.924 359.997 534.641 360.484 533.298 360.497ZM480.846 307.497C480.326 307.496 479.812 307.586 479.331 307.764C478.85 307.941 478.414 308.201 478.045 308.53C477.677 308.859 477.385 309.25 477.186 309.68C476.987 310.11 476.884 310.571 476.884 311.037V355.947C476.879 356.415 476.975 356.879 477.17 357.312C477.364 357.746 477.652 358.142 478.016 358.476C478.381 358.81 478.816 359.077 479.296 359.261C479.775 359.445 480.291 359.542 480.813 359.547H533.265C534.318 359.552 535.33 359.184 536.081 358.523C536.831 357.861 537.259 356.96 537.271 356.017V311.017C537.265 310.078 536.846 309.179 536.104 308.516C535.362 307.853 534.357 307.48 533.309 307.477L480.846 307.497Z" fill="#E0E0E0"/>
<path d="M468.548 360.497H416.163C414.81 360.497 413.513 360.016 412.557 359.159C411.6 358.301 411.063 357.139 411.063 355.927V311.017C411.063 310.417 411.195 309.824 411.451 309.27C411.708 308.716 412.084 308.213 412.557 307.789C413.031 307.366 413.594 307.03 414.212 306.801C414.831 306.573 415.494 306.456 416.163 306.457H468.548C469.217 306.456 469.88 306.573 470.499 306.801C471.118 307.03 471.68 307.366 472.154 307.789C472.628 308.213 473.003 308.716 473.26 309.27C473.516 309.824 473.648 310.417 473.648 311.017V355.927C473.645 357.138 473.107 358.299 472.151 359.156C471.195 360.012 469.9 360.494 468.548 360.497ZM416.163 307.497C415.642 307.494 415.126 307.584 414.644 307.761C414.163 307.937 413.724 308.198 413.355 308.527C412.986 308.856 412.693 309.247 412.493 309.678C412.293 310.109 412.19 310.57 412.19 311.037V355.947C412.184 356.415 412.281 356.879 412.475 357.312C412.67 357.746 412.957 358.142 413.322 358.476C413.687 358.81 414.122 359.077 414.601 359.261C415.081 359.445 415.597 359.542 416.118 359.547H468.57C469.092 359.548 469.608 359.457 470.09 359.28C470.572 359.102 471.01 358.841 471.379 358.511C471.748 358.181 472.041 357.789 472.241 357.358C472.441 356.927 472.543 356.464 472.543 355.997V310.997C472.543 310.53 472.441 310.069 472.241 309.638C472.041 309.207 471.748 308.816 471.378 308.487C471.009 308.158 470.571 307.897 470.089 307.721C469.607 307.544 469.091 307.454 468.57 307.457L416.163 307.497Z" fill="#E0E0E0"/>
<path d="M463.693 320.646C462.72 320.648 461.768 320.391 460.957 319.908C460.147 319.426 459.514 318.738 459.14 317.933C458.765 317.128 458.665 316.241 458.853 315.386C459.041 314.53 459.508 313.743 460.194 313.125C460.881 312.507 461.757 312.085 462.711 311.913C463.665 311.741 464.655 311.826 465.555 312.158C466.456 312.49 467.226 313.054 467.768 313.778C468.311 314.502 468.602 315.354 468.604 316.226C468.607 316.806 468.482 317.38 468.237 317.916C467.991 318.452 467.63 318.94 467.174 319.35C466.717 319.761 466.175 320.087 465.578 320.309C464.981 320.532 464.34 320.646 463.693 320.646Z" fill="#FAFAFA"/>
<path d="M485.768 320.646C484.795 320.652 483.841 320.399 483.028 319.919C482.215 319.44 481.579 318.755 481.201 317.951C480.822 317.148 480.718 316.262 480.901 315.405C481.085 314.549 481.547 313.76 482.231 313.139C482.914 312.518 483.788 312.093 484.742 311.917C485.695 311.741 486.685 311.822 487.587 312.15C488.489 312.479 489.262 313.039 489.808 313.761C490.354 314.483 490.649 315.334 490.656 316.206V316.296C490.641 317.451 490.121 318.554 489.206 319.368C488.292 320.182 487.057 320.641 485.768 320.646Z" fill="#FAFAFA"/>
<path d="M412.714 383.238H407.826V370.758H417.848L412.714 383.238Z" fill="#F0F0F0"/>
<path d="M644.285 81.8164H596.341V124.776H644.285V81.8164Z" fill="#EBEBEB"/>
<path d="M646.416 81.8262H644.295V124.786H646.416V81.8262Z" fill="#E0E0E0"/>
<path d="M637.801 87.6465H602.848V118.966H637.801V87.6465Z" fill="white"/>
<path d="M626.172 108.536C625.403 109.226 624.491 109.773 623.487 110.146C622.482 110.52 621.406 110.712 620.318 110.712C619.231 110.712 618.154 110.52 617.15 110.146C616.145 109.773 615.233 109.226 614.465 108.536C612.916 107.145 612.047 105.261 612.047 103.296C612.047 101.331 612.916 99.4471 614.465 98.0561C616.019 96.6681 618.124 95.8887 620.318 95.8887C622.512 95.8887 624.617 96.6681 626.172 98.0561C627.72 99.4471 628.589 101.331 628.589 103.296C628.589 105.261 627.72 107.145 626.172 108.536Z" fill="#F5F5F5"/>
<path d="M597.323 137.057H541.11V187.427H597.323V137.057Z" fill="#EBEBEB"/>
<path d="M599.812 137.066H597.323V187.436H599.812V137.066Z" fill="#E0E0E0"/>
<path d="M589.712 143.887H548.732V180.607H589.712V143.887Z" fill="white"/>
<path d="M577.949 154.406H560.473V170.066H577.949V154.406Z" fill="#F5F5F5"/>
<path d="M848.758 120.857H818.325V127.227H848.758V120.857Z" fill="#E6E6E6"/>
<path d="M818.325 120.857H692.351V127.227H818.325V120.857Z" fill="#F5F5F5"/>
<path d="M763.931 87.0371H728.464V120.867H763.931V87.0371Z" fill="#E0E0E0"/>
<path d="M728.465 87.0371H719.38V120.867H728.465V87.0371Z" fill="#F0F0F0"/>
<path d="M773.227 81.8164H746.588V120.856H773.227V81.8164Z" fill="#E6E6E6"/>
<path d="M746.599 81.8164H738.899V120.856H746.599V81.8164Z" fill="#F0F0F0"/>
<path d="M776.91 87.0371H754.445V120.867H776.91V87.0371Z" fill="#F0F0F0"/>
<path d="M754.445 87.0371H749.312V120.867H754.445V87.0371Z" fill="#FAFAFA"/>
<path d="M802.288 92.7578H772.825V120.858H802.288V92.7578Z" fill="#E6E6E6"/>
<path d="M772.825 92.7578H765.281V120.858H772.825V92.7578Z" fill="#FAFAFA"/>
<path d="M810.011 88.4277H787.88V120.868H810.011V88.4277Z" fill="#E6E6E6"/>
<path d="M787.88 88.4277H781.485V120.868H787.88V88.4277Z" fill="#F0F0F0"/>
<path d="M815.892 92.7578H794.397V120.858H815.892V92.7578Z" fill="#F0F0F0"/>
<path d="M794.398 92.7578H790.135V120.858H794.398V92.7578Z" fill="#FAFAFA"/>
<path d="M800.312 309.717C809.843 298.557 832.531 294.407 840.377 287.367C850.644 278.137 850.599 264.287 841.85 259.287C834.261 254.947 809.084 284.287 806.261 287.587C796.496 298.877 793.672 307.247 791.842 315.357C792.054 308.467 792.255 302.127 792.422 297.247C792.947 281.317 793.605 276.187 793.918 274.617C795.034 273.837 796.216 272.947 796.931 272.467C803.024 268.397 816.528 263.547 823.28 257.637C833.145 248.997 831.549 238.637 824.63 234.807C817.409 230.807 804.62 240.297 797.846 249.727C791.072 259.157 793.962 268.197 792.065 275.967C791.663 277.507 791.25 283.337 790.871 291.427C789.264 283.454 784.343 276.325 777.099 271.477C767.759 264.797 759.69 256.657 751.989 257.707C744.289 258.757 748.474 269.527 754.523 277.087C759.947 283.817 786.719 290.537 790.659 295.947C790.19 306.947 789.777 320.797 789.487 333.737C787.378 327.057 788.829 326.497 780.18 316.237C775.046 310.157 753.954 302.637 751.454 306.837C748.954 311.037 752.759 318.917 760.717 324.447C767.134 328.907 781.318 328.897 784.677 331.667C785.447 332.307 788.025 334.787 789.431 336.217C789.085 351.997 788.94 365.927 789.108 370.687L790.491 370.737C790.424 369.507 790.581 361.477 790.86 350.847C794.319 345.197 817.644 341.847 824.797 336.007C832.319 329.857 837.721 322.677 834.495 317.867C831.806 313.867 810.635 319.307 801.964 325.947C796.228 330.367 792.723 335.097 791.116 341.437C791.306 334.197 791.54 326.437 791.753 319.087C793.516 317.297 797.455 313.067 800.312 309.717Z" fill="#E6E6E6"/>
<path d="M802.344 383.028H778.171C776.843 383.028 775.705 381.488 775.448 379.348L773.729 365.348H806.774L805.067 379.348C804.788 381.488 803.661 383.028 802.344 383.028Z" fill="#F0F0F0"/>
<path d="M807.466 370.758H773.037C772.212 370.758 771.52 369.758 771.43 368.378L770.727 358.018C770.616 356.428 771.363 355.018 772.334 355.018H808.18C809.14 355.018 809.888 356.408 809.776 358.018L809.073 368.378C808.995 369.738 808.292 370.758 807.466 370.758Z" fill="#F0F0F0"/>
<path d="M625 427.857C744.504 427.857 841.381 422.789 841.381 416.537C841.381 410.285 744.504 405.217 625 405.217C505.496 405.217 408.619 410.285 408.619 416.537C408.619 422.789 505.496 427.857 625 427.857Z" fill="#F5F5F5"/>
<path d="M451.595 107.477C449.129 112.847 434.61 112.477 419.399 106.857C404.188 101.237 393.842 92.3266 396.309 86.9566C396.889 85.7166 398.541 81.0666 400.193 80.4266C405.862 78.2766 416.654 83.1066 428.338 87.4266C439.219 91.4266 451.662 94.0366 453.593 99.3266C454.754 102.547 452.299 105.947 451.595 107.477Z" fill="#407BFF"/>
<path opacity="0.2" d="M453.593 99.3257C454.519 103.536 452.477 105.556 451.595 107.476C450.714 109.396 448.136 110.656 444.531 111.096C444.08 111.164 443.626 111.211 443.17 111.236C440.405 111.381 437.632 111.251 434.9 110.846C434.509 110.846 434.119 110.736 433.717 110.676C430.51 110.16 427.351 109.431 424.264 108.496L423.148 108.156C421.91 107.766 420.637 107.336 419.365 106.866C418.093 106.396 416.888 105.866 415.694 105.396L414.667 104.956C411.854 103.709 409.142 102.286 406.554 100.696L405.638 100.116C403.379 98.6844 401.308 97.0271 399.467 95.1757C399.188 94.8957 398.931 94.6257 398.686 94.3457C396.286 91.6257 395.338 89.0257 396.286 86.9557C396.911 85.6257 398.251 81.0757 400.17 80.4157C402.531 79.8198 405.03 79.8198 407.391 80.4157L408.507 80.6557C414.087 81.9357 421.117 84.7857 428.293 87.4357C436.753 90.5657 446.763 93.8157 451.673 97.5657C451.966 97.7861 452.245 98.0197 452.51 98.2657C452.902 98.5927 453.264 98.9471 453.593 99.3257Z" fill="black"/>
<g opacity="0.2">
<path opacity="0.2" d="M409.064 79.7964L408.551 80.6364L399.489 95.1664C399.21 94.8864 398.954 94.6164 398.708 94.3364L407.413 80.3964L408.094 79.3164L409.064 79.7964Z" fill="black"/>
</g>
<g opacity="0.2">
<path opacity="0.2" d="M415.917 85.7256L406.576 100.726L405.661 100.146L414.946 85.2656L415.917 85.7256Z" fill="black"/>
</g>
<g opacity="0.2">
<path opacity="0.2" d="M433.092 94.3249L424.264 108.495L423.148 108.155L432.076 93.7949L433.092 94.3249Z" fill="black"/>
</g>
<g opacity="0.2">
<path opacity="0.2" d="M425.102 90.3249L415.716 105.395L414.689 104.955L424.131 89.7949L425.102 90.3249Z" fill="black"/>
</g>
<g opacity="0.2">
<path opacity="0.2" d="M443.504 97.0664L434.9 110.846C434.509 110.846 434.119 110.736 433.717 110.676L442.522 96.5664L443.504 97.0664Z" fill="black"/>
</g>
<path d="M453.526 102.795C451.06 108.165 436.719 107.955 421.497 102.325C406.275 96.6955 395.941 87.7955 398.418 82.4255C400.896 77.0555 415.225 77.2755 430.447 82.8955C445.67 88.5155 455.993 97.3955 453.526 102.795Z" fill="#407BFF"/>
<path opacity="0.2" d="M448.348 100.846C446.607 104.636 435.424 104.106 423.383 99.6559C411.341 95.2059 402.994 88.5159 404.734 84.7259C406.475 80.9359 417.658 81.4659 429.711 85.9159C441.763 90.3659 450.1 97.0559 448.348 100.846Z" fill="white"/>
<path d="M528.51 58.9366C532.483 63.5266 524.916 74.6366 511.893 83.6666C498.869 92.6966 485.109 96.2966 481.147 91.6666C480.232 90.6066 476.527 87.0566 476.75 85.3966C477.498 79.9266 487.53 73.9466 497.53 67.0066C506.837 60.5466 515.531 52.1666 521.613 53.2966C525.307 54.0266 527.383 57.6366 528.51 58.9366Z" fill="#407BFF"/>
<path opacity="0.2" d="M521.613 53.3359C526.155 54.7159 527.093 57.3359 528.51 58.9359C529.927 60.5359 529.872 63.2059 528.51 66.2359C528.354 66.6059 528.164 66.9759 527.963 67.3559C526.74 69.579 525.243 71.6722 523.499 73.5959C523.265 73.8759 523.008 74.1459 522.751 74.4259C520.653 76.6688 518.37 78.768 515.922 80.7059L515.062 81.3759C514.069 82.1459 513.02 82.9159 511.937 83.6659C510.855 84.4159 509.772 85.1259 508.679 85.7959C508.377 85.9959 508.054 86.1859 507.752 86.3759C505.145 87.9433 502.415 89.3402 499.583 90.5559C499.237 90.7159 498.903 90.8459 498.579 90.9859C496.063 92.0288 493.424 92.8137 490.711 93.3259C490.309 93.4059 489.919 93.4659 489.528 93.5159C485.7 94.0259 482.709 93.5159 481.181 91.7059C480.198 90.5659 476.46 87.2559 476.783 85.4459C477.367 83.3062 478.608 81.3559 480.366 79.8159C480.611 79.5659 480.879 79.3159 481.158 79.0559C485.187 75.3159 491.425 71.3059 497.563 67.0559C504.806 62.0559 512.931 55.8659 518.991 53.9259C519.356 53.8056 519.729 53.7021 520.107 53.6159C520.6 53.4898 521.104 53.3962 521.613 53.3359Z" fill="black"/>
<g opacity="0.2">
<path opacity="0.2" d="M480.567 78.2363L481.125 79.0563L490.678 93.3263C490.276 93.4063 489.885 93.4663 489.495 93.5163L480.332 79.7963L479.618 78.7963L480.567 78.2363Z" fill="black"/>
</g>
<g opacity="0.2">
<path opacity="0.2" d="M489.707 75.8555L499.55 90.5555C499.204 90.7155 498.869 90.8455 498.546 90.9855L488.747 76.3655L489.707 75.8555Z" fill="black"/>
</g>
<g opacity="0.2">
<path opacity="0.2" d="M506.57 66.7949L515.888 80.7149L515.029 81.3849L505.61 67.3049L506.57 66.7949Z" fill="black"/>
</g>
<g opacity="0.2">
<path opacity="0.2" d="M498.735 71.0059L508.645 85.7959C508.344 85.9959 508.02 86.1859 507.719 86.3759L497.764 71.5159L498.735 71.0059Z" fill="black"/>
</g>
<g opacity="0.2">
<path opacity="0.2" d="M514.404 60.0449L523.466 73.5949C523.231 73.8749 522.974 74.1449 522.718 74.4249L513.444 60.5649L514.404 60.0449Z" fill="black"/>
</g>
<path d="M508.514 79.7406C521.529 70.7074 528.865 59.6645 524.898 55.0755C520.931 50.4866 507.165 54.0893 494.149 63.1225C481.134 72.1557 473.799 83.1986 477.766 87.7875C481.733 92.3765 495.499 88.7737 508.514 79.7406Z" fill="#407BFF"/>
<path opacity="0.2" d="M506.9 76.9572C517.201 69.8077 523.278 61.3821 520.474 58.1379C517.67 54.8938 507.046 58.0597 496.745 65.2091C486.444 72.3585 480.367 80.7842 483.171 84.0283C485.975 87.2725 496.599 84.1066 506.9 76.9572Z" fill="white"/>
<path d="M474.641 37.4359C473.368 44.0159 456.896 46.7959 438.237 43.7959C419.577 40.7959 405.504 33.0659 406.81 26.4859C407.111 24.9559 407.636 19.3859 409.388 18.2759C415.18 14.6159 428.639 17.6759 442.968 19.9559C456.36 22.0859 471.014 22.2559 474.641 27.7859C476.839 31.1859 475.009 35.5559 474.641 37.4359Z" fill="#407BFF"/>
<path opacity="0.2" d="M474.641 27.7953C476.873 32.3353 475.098 35.0453 474.641 37.4053C474.183 39.7653 471.628 41.7353 467.699 43.0353C467.219 43.2053 466.717 43.3453 466.204 43.4853C463.131 44.2592 459.972 44.7254 456.785 44.8753C456.327 44.8753 455.881 44.8753 455.412 44.9453C451.657 45.069 447.897 44.9454 444.163 44.5753L442.857 44.4253C441.351 44.2553 439.799 44.0553 438.248 43.8053C436.697 43.5553 435.19 43.2753 433.706 42.9653C433.282 42.8853 432.858 42.7853 432.434 42.6953C428.927 41.9195 425.489 40.9169 422.144 39.6953C421.731 39.5553 421.341 39.3953 420.95 39.2553C418.015 38.1358 415.23 36.7235 412.647 35.0453C412.256 34.7953 411.899 34.5453 411.531 34.2853C408.071 31.7553 406.297 29.0353 406.799 26.5053C407.134 24.8653 407.402 19.5053 409.366 18.2953C411.33 17.0853 414.142 16.7053 417.49 16.6953H418.83C425.526 16.8953 434.152 18.5653 442.958 19.9653C453.336 21.6253 465.49 23.0753 472.029 26.2153C472.413 26.3975 472.786 26.5978 473.145 26.8153C473.672 27.1066 474.172 27.4342 474.641 27.7953Z" fill="black"/>
<g opacity="0.2">
<path opacity="0.2" d="M419.198 15.6757L418.84 16.7257L412.636 35.0657C412.245 34.8157 411.888 34.5657 411.52 34.3057L417.479 16.7157L417.948 15.3457L419.198 15.6757Z" fill="black"/>
</g>
<g opacity="0.2">
<path opacity="0.2" d="M428.528 20.7953L422.133 39.6853C421.72 39.5453 421.33 39.3853 420.939 39.2453L427.3 20.4453L428.528 20.7953Z" fill="black"/>
</g>
<g opacity="0.2">
<path opacity="0.2" d="M450.211 26.715L444.151 44.605L442.846 44.455L448.973 26.375L450.211 26.715Z" fill="black"/>
</g>
<g opacity="0.2">
<path opacity="0.2" d="M440.134 23.9752L433.695 42.9752C433.271 42.8952 432.846 42.7952 432.422 42.7052L438.895 23.6152L440.134 23.9752Z" fill="black"/>
</g>
<g opacity="0.2">
<path opacity="0.2" d="M462.677 27.496L456.774 44.906C456.316 44.906 455.87 44.906 455.401 44.976L461.438 27.166L462.677 27.496Z" fill="black"/>
</g>
<path d="M475.51 31.6913C476.817 25.112 462.744 17.3657 444.079 14.3894C425.413 11.4132 409.222 14.334 407.916 20.9133C406.609 27.4926 420.681 35.2389 439.347 38.2152C458.013 41.1914 474.203 38.2706 475.51 31.6913Z" fill="#407BFF"/>
<path opacity="0.2" d="M469.157 30.6849C470.081 26.0359 458.856 20.358 444.086 18.0029C429.316 15.6479 416.594 17.5074 415.671 22.1565C414.747 26.8055 425.972 32.4834 440.742 34.8385C455.512 37.1935 468.234 35.3339 469.157 30.6849Z" fill="white"/>
<path d="M638.796 253.926L523.948 259.926C519.891 260.14 515.911 261.007 512.197 262.486L387.45 312.486C385.262 313.348 383.469 314.857 382.372 316.761C381.276 318.664 380.941 320.848 381.424 322.946L402.037 410.296C402.385 411.702 403.088 413.019 404.091 414.145C405.095 415.271 406.372 416.176 407.826 416.792C409.28 417.407 410.871 417.717 412.479 417.697C414.087 417.677 415.668 417.328 417.103 416.676L540.231 361.596L653.929 358.186C655.328 358.152 656.703 357.852 657.963 357.305C659.222 356.759 660.337 355.978 661.234 355.014C662.13 354.051 662.787 352.928 663.161 351.72C663.536 350.511 663.618 349.245 663.404 348.006L648.193 264.366C647.4 260.046 643.74 253.796 638.796 253.926Z" fill="#407BFF"/>
<path opacity="0.1" d="M638.796 253.926L523.948 259.926C519.891 260.14 515.911 261.007 512.197 262.486L387.45 312.486C385.262 313.348 383.469 314.857 382.372 316.761C381.276 318.664 380.941 320.848 381.424 322.946L402.037 410.296C402.385 411.702 403.088 413.019 404.091 414.145C405.095 415.271 406.372 416.176 407.826 416.792C409.28 417.407 410.871 417.717 412.479 417.697C414.087 417.677 415.668 417.328 417.103 416.676L540.231 361.596L653.929 358.186C655.328 358.152 656.703 357.852 657.963 357.305C659.222 356.759 660.337 355.978 661.234 355.014C662.13 354.051 662.787 352.928 663.161 351.72C663.536 350.511 663.618 349.245 663.404 348.006L648.193 264.366C647.4 260.046 643.74 253.796 638.796 253.926Z" fill="black"/>
<path d="M408.274 197.051L348.004 246.834L456.161 351.97L516.431 302.188L408.274 197.051Z" fill="#407BFF"/>
<path opacity="0.5" d="M516.416 302.197L456.14 351.977L348 246.847L387.551 214.177L408.275 197.057L411.724 200.417L516.416 302.197Z" fill="#FAFAFA"/>
<path d="M408.661 203.478L355.48 247.404L456.649 345.747L509.829 301.82L408.661 203.478Z" stroke="#407BFF" stroke-miterlimit="10"/>
<path d="M444.621 286.255C450.721 281.216 449.95 271.575 442.898 264.72C435.846 257.866 425.185 256.393 419.085 261.432C412.985 266.47 413.757 276.111 420.808 282.966C427.86 289.821 438.521 291.293 444.621 286.255Z" fill="#407BFF"/>
<path opacity="0.1" d="M455.505 309.307L434.088 315.937L387.551 214.177L408.275 197.057L411.724 200.417L455.505 309.307Z" fill="black"/>
<path d="M459.677 155.861L382.616 180.898L437.011 315.325L514.072 290.288L459.677 155.861Z" fill="#407BFF"/>
<path opacity="0.5" d="M459.677 155.861L382.616 180.898L437.011 315.325L514.072 290.288L459.677 155.861Z" fill="#FAFAFA"/>
<path d="M457.255 161.924L389.258 184.016L440.139 309.755L508.135 287.663L457.255 161.924Z" stroke="#407BFF" stroke-miterlimit="10"/>
<path d="M454.724 250.714C462.523 248.18 465.971 239.021 462.425 230.257C458.878 221.493 449.681 216.442 441.882 218.976C434.082 221.51 430.635 230.669 434.181 239.434C437.728 248.198 446.925 253.248 454.724 250.714Z" fill="#407BFF"/>
<path d="M639.544 257.476L526.27 263.196C522.255 263.394 518.315 264.258 514.652 265.746L391.736 315.466C389.571 316.343 387.805 317.856 386.729 319.754C385.654 321.652 385.334 323.823 385.821 325.906L406.434 413.296C406.766 414.694 407.451 416.005 408.437 417.129C409.423 418.253 410.683 419.159 412.121 419.778C413.558 420.397 415.135 420.712 416.73 420.7C418.325 420.687 419.896 420.348 421.321 419.706L542.631 364.936L654.766 361.756C656.155 361.717 657.517 361.413 658.764 360.864C660.011 360.315 661.112 359.534 661.995 358.574C662.878 357.613 663.522 356.495 663.885 355.293C664.247 354.092 664.319 352.835 664.096 351.606L648.84 267.976C648.048 263.616 644.432 257.356 639.544 257.476Z" fill="#407BFF"/>
<path opacity="0.2" d="M530.879 278.497L628.071 273.137" stroke="black" stroke-width="2" stroke-linecap="round" stroke-linejoin="round"/>
<path opacity="0.2" d="M519.239 280.746L536.995 353.826" stroke="black" stroke-width="2" stroke-linecap="round" stroke-linejoin="round"/>
<path opacity="0.2" d="M400.854 346.727L413.376 402.937C413.376 402.937 422.973 380.637 400.854 346.727Z" fill="#FAFAFA"/>
<path opacity="0.2" d="M402.494 347.387C402.929 348.387 513.715 305.787 513.715 305.787C514.015 315.445 511.32 324.989 505.93 333.357C500.539 341.725 492.664 348.589 483.181 353.187C449.835 369.937 402.494 347.387 402.494 347.387Z" fill="#FAFAFA"/>
<path d="M476.083 349.045C478.734 349.045 480.882 347.12 480.882 344.745C480.882 342.37 478.734 340.445 476.083 340.445C473.433 340.445 471.285 342.37 471.285 344.745C471.285 347.12 473.433 349.045 476.083 349.045Z" fill="#407BFF"/>
<path opacity="0.2" d="M513.771 305.787C513.771 305.787 527.508 324.317 524.183 355.877L513.771 305.787Z" fill="black"/>
<g opacity="0.2">
<path opacity="0.2" d="M395.553 324.647L398.108 323.637" stroke="#FAFAFA" stroke-linecap="round" stroke-linejoin="round"/>
<path opacity="0.2" d="M403.409 321.537L506.862 280.557" stroke="#FAFAFA" stroke-linecap="round" stroke-linejoin="round" stroke-dasharray="5.2 5.2"/>
<path opacity="0.2" d="M509.519 279.506L512.063 278.496" stroke="#FAFAFA" stroke-linecap="round" stroke-linejoin="round"/>
</g>
<path opacity="0.2" d="M534.138 294.927L631.33 289.557" stroke="black" stroke-width="2" stroke-linecap="round" stroke-linejoin="round"/>
<path opacity="0.2" d="M538.512 315.417L635.705 310.047" stroke="black" stroke-width="2" stroke-linecap="round" stroke-linejoin="round"/>
<path d="M681.447 205.268C681.447 205.268 679.003 228.598 669.327 230.608C663.336 231.767 657.088 231.207 651.471 229.008L643.604 223.588L639.765 235.588C639.765 235.588 643.961 240.698 652.721 237.158C652.721 237.158 668.345 243.318 676.983 237.158C685.621 230.998 688.389 214.098 688.389 214.098L681.447 205.268Z" fill="#B97964"/>
<path d="M689.226 193.968C689.226 193.968 682.474 183.658 685.543 164.968C688.612 146.278 706.1 143.968 712.852 145.318C719.603 146.668 725.128 152.478 729.725 163.538C734.323 174.598 736.02 177.478 743.687 175.538C751.354 173.598 771.754 167.538 777.434 172.928C779.068 174.4 780.272 176.21 780.94 178.199C781.608 180.187 781.718 182.292 781.262 184.328C781.262 184.328 809.642 178.148 807.187 200.828C804.732 223.508 763.775 244.678 724.815 222.268C685.856 199.858 689.226 193.968 689.226 193.968Z" fill="#263238"/>
<path d="M688.913 248.858C688.913 248.858 681.202 308.288 681.458 336.158C681.715 364.028 692.764 429.708 692.764 429.708H706.39C706.39 429.708 704.593 377.188 704.85 359.218C705.106 341.248 708.7 311.518 708.7 311.518C708.7 311.518 713.064 338.238 718.208 347.678C723.353 357.118 751.889 390.528 771.687 400.898L780.939 393.288C780.939 393.288 760.371 370.488 752.659 359.198C744.948 347.908 738.017 344.708 735.183 323.708C732.348 302.708 737.247 269.118 729.022 248.848L688.913 248.858Z" fill="#263238"/>
<path opacity="0.2" d="M708.7 311.518L702.774 273.848C702.774 273.848 698.098 296.488 707.305 324.138L708.7 311.518Z" fill="black"/>
<path d="M695.564 433.037L696.022 444.707L705.162 445.387L705.62 444.297V432.217L695.564 433.037Z" fill="#B97964"/>
<path d="M691.224 428.599L692.061 432.969L707.752 433.309L708.745 428.059L691.224 428.599Z" fill="#407BFF"/>
<path d="M767.391 401.708L781.932 389.568L785.135 394.138L772.647 404.378L767.391 401.708Z" fill="#407BFF"/>
<path d="M774.399 401.708L783.997 408.948L790.157 402.458L782.278 395.158L774.399 401.708Z" fill="#B97964"/>
<path d="M792.02 401.958L797.824 405.158C798.088 405.304 798.314 405.5 798.485 405.732C798.656 405.964 798.768 406.227 798.814 406.503C798.859 406.778 798.837 407.059 798.749 407.326C798.661 407.593 798.509 407.839 798.303 408.048C794.096 412.308 783.349 423.128 782.278 423.888C780.95 424.888 779.343 423.208 778.93 421.708C778.93 421.708 781.976 418.088 782.278 415.768C782.405 413.976 782.405 412.179 782.278 410.388C782.254 409.939 782.422 409.5 782.746 409.158L789.23 402.338C789.565 401.982 790.033 401.748 790.546 401.678C791.059 401.608 791.583 401.708 792.02 401.958Z" fill="#263238"/>
<path d="M707.394 445.708L708.6 451.708C708.655 451.983 708.643 452.265 708.564 452.534C708.484 452.804 708.34 453.055 708.141 453.269C707.943 453.484 707.694 453.657 707.412 453.776C707.131 453.895 706.824 453.957 706.513 453.958C700.163 453.958 684.003 454.018 682.653 453.818C680.967 453.568 681.269 451.408 682.262 450.148C682.262 450.148 687.295 449.768 689.404 448.398C690.973 447.296 692.464 446.107 693.868 444.838C694.227 444.524 694.706 444.342 695.208 444.328L705.196 444.118C705.715 444.102 706.223 444.253 706.627 444.545C707.031 444.837 707.303 445.251 707.394 445.708Z" fill="#263238"/>
<path d="M730.484 215.897L744.412 207.137C744.412 207.137 740.707 193.857 735.216 193.197C729.725 192.537 702.472 187.887 685.141 193.197C685.141 193.197 678.914 194.787 676.994 210.457L684.404 212.577C684.404 212.577 687.06 241.917 688.701 246.437H728.252C728.252 246.437 728.698 221.207 730.484 215.897Z" fill="#407BFF"/>
<path d="M733.486 214.008C733.486 214.008 738.765 227.508 739.703 234.768C739.703 234.768 727.159 230.288 723.922 228.238L721.467 220.338L713.164 216.708L710.698 222.708L717.628 230.408C717.628 230.408 736.522 246.248 746.097 242.628C755.673 239.008 742.314 208.488 742.314 208.488L733.486 214.008Z" fill="#B97964"/>
<path d="M698.053 154.897C698.053 154.897 693.221 163.537 693.589 170.567C693.958 177.597 697.919 180.467 705.452 181.457C705.452 181.457 708.667 190.457 700.23 191.367C699.582 191.437 699.359 193.727 699.404 194.097C699.627 195.557 701.245 196.357 702.752 196.697C704.339 197.012 705.959 197.173 707.584 197.177C709.291 197.23 710.988 196.934 712.549 196.312C714.109 195.69 715.491 194.758 716.59 193.587C716.769 193.397 718.465 191.457 718.465 191.457C718.465 191.457 714.436 189.667 715.854 177.947C717.776 176.826 719.253 175.187 720.072 173.267C720.842 172.901 721.522 172.401 722.074 171.797C722.626 171.193 723.038 170.496 723.286 169.747C723.889 167.407 721.579 164.167 717.36 167.407C717.36 167.407 709.414 163.807 706.401 151.197C704.167 153.242 701.223 154.547 698.053 154.897Z" fill="#B97964"/>
<path d="M700.319 168.647L700.999 164.027L697.35 167.647C697.727 168.006 698.19 168.283 698.705 168.457C699.219 168.63 699.771 168.695 700.319 168.647Z" fill="#A24E3F"/>
<path d="M702.439 172.028C702.439 172.028 706.29 172.558 708.142 170.348" stroke="#222221" stroke-width="0.75" stroke-linecap="round" stroke-linejoin="round"/>
<path d="M706.29 157.557C707.164 157.334 708.088 157.327 708.967 157.537C709.845 157.746 710.643 158.164 711.278 158.747" stroke="#222221" stroke-linecap="round" stroke-linejoin="round"/>
<path d="M699.627 156.558C699.627 156.558 697.395 156.248 696.402 157.378" stroke="#222221" stroke-linecap="round" stroke-linejoin="round"/>
<path d="M707.841 163.638C707.74 164.338 707.238 164.848 706.725 164.788C706.211 164.728 705.865 164.118 705.966 163.418C706.066 162.718 706.568 162.208 707.082 162.268C707.595 162.328 707.941 162.938 707.841 163.638Z" fill="#222221"/>
<path d="M698.932 162.09C699.032 161.395 698.693 160.782 698.173 160.721C697.654 160.661 697.151 161.176 697.05 161.871C696.949 162.567 697.289 163.18 697.808 163.24C698.328 163.301 698.831 162.786 698.932 162.09Z" fill="#222221"/>
<path d="M707.093 162.268L705.33 161.578C705.353 161.751 705.426 161.916 705.542 162.055C705.658 162.195 705.813 162.305 705.991 162.375C706.169 162.445 706.365 162.472 706.558 162.453C706.751 162.434 706.936 162.37 707.093 162.268Z" fill="#222221"/>
<path d="M698.343 160.788L696.58 160.098C696.603 160.271 696.677 160.435 696.793 160.575C696.909 160.715 697.063 160.825 697.241 160.895C697.42 160.964 697.615 160.991 697.808 160.972C698.002 160.954 698.186 160.89 698.343 160.788Z" fill="#222221"/>
<path d="M687.317 244.878V249.048L730.172 249.368L729.022 244.408L687.317 244.878Z" fill="#407BFF"/>
<path opacity="0.4" d="M687.317 244.878V249.048L730.172 249.368L729.022 244.408L687.317 244.878Z" fill="white"/>
<path d="M616.627 140.726L593.057 214.186C592.273 216.646 590.685 218.839 588.497 220.483C586.309 222.126 583.621 223.144 580.781 223.406C578.973 223.561 577.149 223.412 575.402 222.966L530.349 211.356C526.707 210.414 523.63 208.217 521.793 205.246C519.957 202.275 519.51 198.772 520.55 195.506L544.131 122.026C545.185 118.767 547.637 116.015 550.95 114.373C554.264 112.731 558.168 112.333 561.809 113.266L606.895 124.866C610.529 125.818 613.594 128.022 615.418 130.994C617.242 133.967 617.677 137.466 616.627 140.726Z" fill="#407BFF"/>
<path opacity="0.2" d="M616.627 140.726L593.057 214.186C592.273 216.646 590.685 218.839 588.497 220.483C586.309 222.126 583.621 223.144 580.781 223.406C578.973 223.561 577.149 223.412 575.402 222.966L530.349 211.356C526.707 210.414 523.63 208.217 521.793 205.246C519.957 202.275 519.51 198.772 520.55 195.506L544.131 122.026C545.185 118.767 547.637 116.015 550.95 114.373C554.264 112.731 558.168 112.333 561.809 113.266L606.895 124.866C610.529 125.818 613.594 128.022 615.418 130.994C617.242 133.967 617.677 137.466 616.627 140.726Z" fill="black"/>
<path d="M612.71 141.596L589.14 215.066C588.544 216.936 587.479 218.66 586.026 220.105C584.574 221.55 582.772 222.679 580.759 223.406C578.951 223.561 577.126 223.411 575.379 222.966L530.349 211.356C526.707 210.414 523.63 208.217 521.793 205.246C519.957 202.274 519.51 198.772 520.55 195.506L544.131 122.026C544.728 120.158 545.793 118.437 547.246 116.995C548.699 115.553 550.5 114.428 552.513 113.706C554.321 113.541 556.147 113.69 557.892 114.146L602.889 125.796C606.524 126.731 609.598 128.919 611.438 131.88C613.279 134.84 613.736 138.334 612.71 141.596Z" fill="#407BFF"/>
<path opacity="0.5" d="M612.71 141.596L589.14 215.066C588.544 216.936 587.479 218.66 586.026 220.105C584.574 221.55 582.772 222.679 580.759 223.406C578.951 223.561 577.126 223.411 575.379 222.966L530.349 211.356C526.707 210.414 523.63 208.217 521.793 205.246C519.957 202.274 519.51 198.772 520.55 195.506L544.131 122.026C544.728 120.158 545.793 118.437 547.246 116.995C548.699 115.553 550.5 114.428 552.513 113.706C554.321 113.541 556.147 113.69 557.892 114.146L602.889 125.796C606.524 126.731 609.598 128.919 611.438 131.88C613.279 134.84 613.736 138.334 612.71 141.596Z" fill="#FAFAFA"/>
<path d="M549.344 147.843L544.521 146.625L527.162 201.815L531.985 203.033L549.344 147.843Z" fill="#FAFAFA"/>
<path d="M538.909 204.785L534.087 203.535L551.441 148.365L556.251 149.605L538.909 204.785Z" fill="#FAFAFA"/>
<path d="M545.917 206.586L541.096 205.346L558.449 150.176L563.271 151.416L545.917 206.586Z" fill="#FAFAFA"/>
<path opacity="0.5" d="M591.336 158.646L586.513 157.428L569.154 212.618L573.977 213.836L591.336 158.646Z" fill="black"/>
<path d="M590.724 143.046L588.381 150.536L585.524 149.816C584.14 149.465 582.968 148.635 582.265 147.511C581.562 146.386 581.386 145.058 581.774 143.816L583.337 138.816L589.106 140.296C589.728 140.469 590.247 140.856 590.55 141.371C590.854 141.887 590.916 142.489 590.724 143.046Z" fill="#FAFAFA"/>
<path d="M589.352 139.376L583.582 137.896L585.312 132.416C585.505 131.801 585.831 131.227 586.273 130.725C586.714 130.224 587.261 129.805 587.883 129.493C588.504 129.181 589.189 128.981 589.897 128.907C590.605 128.832 591.322 128.883 592.008 129.056L594.976 129.806L592.387 137.876C592.301 138.155 592.154 138.416 591.954 138.643C591.754 138.871 591.505 139.06 591.222 139.199C590.939 139.339 590.628 139.427 590.307 139.457C589.986 139.488 589.661 139.46 589.352 139.376Z" fill="#FAFAFA"/>
<path d="M594.82 141.796L600.623 143.286L599.083 148.176C598.893 148.792 598.568 149.368 598.127 149.871C597.687 150.374 597.14 150.794 596.517 151.107C595.894 151.419 595.209 151.618 594.5 151.691C593.791 151.765 593.073 151.712 592.387 151.536L589.374 150.776L591.773 143.296C591.862 143.017 592.011 142.757 592.213 142.53C592.414 142.304 592.664 142.115 592.947 141.976C593.231 141.836 593.542 141.748 593.864 141.718C594.185 141.687 594.51 141.713 594.82 141.796Z" fill="#FAFAFA"/>
<path d="M602.677 136.796L600.925 142.356L595.122 140.866C594.5 140.703 593.976 140.327 593.662 139.82C593.349 139.312 593.271 138.714 593.448 138.156L596.037 130.086L598.927 130.816C599.612 130.988 600.251 131.279 600.81 131.673C601.369 132.066 601.836 132.555 602.184 133.11C602.532 133.665 602.755 134.277 602.84 134.909C602.924 135.542 602.869 136.183 602.677 136.796Z" fill="#FAFAFA"/>
<defs>
<filter id="filter0_dddddddd_9374_162224" x="0" y="22.8906" width="970" height="1248" filterUnits="userSpaceOnUse" color-interpolation-filters="sRGB">
<feFlood flood-opacity="0" result="BackgroundImageFix"/>
<feColorMatrix in="SourceAlpha" type="matrix" values="0 0 0 0 0 0 0 0 0 0 0 0 0 0 0 0 0 0 127 0" result="hardAlpha"/>
<feOffset dy="9.96621"/>
<feGaussianBlur stdDeviation="2.91013"/>
<feColorMatrix type="matrix" values="0 0 0 0 0.0705882 0 0 0 0 0.0980392 0 0 0 0 0.133333 0 0 0 0.01 0"/>
<feBlend mode="normal" in2="BackgroundImageFix" result="effect1_dropShadow_9374_162224"/>
<feColorMatrix in="SourceAlpha" type="matrix" values="0 0 0 0 0 0 0 0 0 0 0 0 0 0 0 0 0 0 127 0" result="hardAlpha"/>
<feOffset dy="22.644"/>
<feGaussianBlur stdDeviation="6.61205"/>
<feColorMatrix type="matrix" values="0 0 0 0 0.0705882 0 0 0 0 0.0980392 0 0 0 0 0.133333 0 0 0 0.0104523 0"/>
<feBlend mode="normal" in2="effect1_dropShadow_9374_162224" result="effect2_dropShadow_9374_162224"/>
<feColorMatrix in="SourceAlpha" type="matrix" values="0 0 0 0 0 0 0 0 0 0 0 0 0 0 0 0 0 0 127 0" result="hardAlpha"/>
<feOffset dy="39.4109"/>
<feGaussianBlur stdDeviation="11.508"/>
<feColorMatrix type="matrix" values="0 0 0 0 0.0705882 0 0 0 0 0.0980392 0 0 0 0 0.133333 0 0 0 0.0128732 0"/>
<feBlend mode="normal" in2="effect2_dropShadow_9374_162224" result="effect3_dropShadow_9374_162224"/>
<feColorMatrix in="SourceAlpha" type="matrix" values="0 0 0 0 0 0 0 0 0 0 0 0 0 0 0 0 0 0 127 0" result="hardAlpha"/>
<feOffset dy="62.6078"/>
<feGaussianBlur stdDeviation="18.2815"/>
<feColorMatrix type="matrix" values="0 0 0 0 0.0705882 0 0 0 0 0.0980392 0 0 0 0 0.133333 0 0 0 0.015 0"/>
<feBlend mode="normal" in2="effect3_dropShadow_9374_162224" result="effect4_dropShadow_9374_162224"/>
<feColorMatrix in="SourceAlpha" type="matrix" values="0 0 0 0 0 0 0 0 0 0 0 0 0 0 0 0 0 0 127 0" result="hardAlpha"/>
<feOffset dy="96.5991"/>
<feGaussianBlur stdDeviation="28.2069"/>
<feColorMatrix type="matrix" values="0 0 0 0 0.0705882 0 0 0 0 0.0980392 0 0 0 0 0.133333 0 0 0 0.0171268 0"/>
<feBlend mode="normal" in2="effect4_dropShadow_9374_162224" result="effect5_dropShadow_9374_162224"/>
<feColorMatrix in="SourceAlpha" type="matrix" values="0 0 0 0 0 0 0 0 0 0 0 0 0 0 0 0 0 0 127 0" result="hardAlpha"/>
<feOffset dy="150.735"/>
<feGaussianBlur stdDeviation="44.0147"/>
<feColorMatrix type="matrix" values="0 0 0 0 0.0705882 0 0 0 0 0.0980392 0 0 0 0 0.133333 0 0 0 0.0195477 0"/>
<feBlend mode="normal" in2="effect5_dropShadow_9374_162224" result="effect6_dropShadow_9374_162224"/>
<feColorMatrix in="SourceAlpha" type="matrix" values="0 0 0 0 0 0 0 0 0 0 0 0 0 0 0 0 0 0 127 0" result="hardAlpha"/>
<feOffset dy="250.244"/>
<feGaussianBlur stdDeviation="73.0713"/>
<feColorMatrix type="matrix" values="0 0 0 0 0.0705882 0 0 0 0 0.0980392 0 0 0 0 0.133333 0 0 0 0.02281 0"/>
<feBlend mode="normal" in2="effect6_dropShadow_9374_162224" result="effect7_dropShadow_9374_162224"/>
<feColorMatrix in="SourceAlpha" type="matrix" values="0 0 0 0 0 0 0 0 0 0 0 0 0 0 0 0 0 0 127 0" result="hardAlpha"/>
<feOffset dy="500"/>
<feGaussianBlur stdDeviation="146"/>
<feColorMatrix type="matrix" values="0 0 0 0 0.0705882 0 0 0 0 0.0980392 0 0 0 0 0.133333 0 0 0 0.03 0"/>
<feBlend mode="normal" in2="effect7_dropShadow_9374_162224" result="effect8_dropShadow_9374_162224"/>
<feBlend mode="normal" in="SourceGraphic" in2="effect8_dropShadow_9374_162224" result="shape"/>
</filter>
</defs>
</svg>
