<svg width="982" height="576" viewBox="0 0 982 576" fill="none" xmlns="http://www.w3.org/2000/svg">
<g filter="url(#filter0_dddddddd_9374_162816)">
<rect x="171.775" y="4.26562" width="510.78" height="448" rx="36" fill="#E4E8EF" stroke="white" stroke-width="8"/>
<path d="M162.952 74.623C162.952 73.5185 163.848 72.623 164.952 72.623H167.775V89.7526H164.952C163.848 89.7526 162.952 88.8572 162.952 87.7526V74.623Z" fill="white"/>
<path d="M164.33 107.406C164.33 106.302 165.226 105.406 166.33 105.406H167.775V139.665H166.33C165.226 139.665 164.33 138.77 164.33 137.665V107.406Z" fill="white"/>
<path d="M164.33 150.82C164.33 149.716 165.226 148.82 166.33 148.82H167.775V183.079H166.33C165.226 183.079 164.33 182.184 164.33 181.079V150.82Z" fill="white"/>
<path d="M690 169.266C690 170.37 689.105 171.266 688 171.266L686.555 171.266L686.555 116.924L688 116.924C689.105 116.924 690 117.819 690 118.924L690 169.266Z" fill="white"/>
<rect x="397.885" y="15.0332" width="58.5609" height="4.13472" rx="2.06736" fill="#E4E8EF"/>
<ellipse cx="479.182" cy="17.1006" rx="4.82269" ry="2.06736" fill="#E4E8EF"/>
</g>
<path d="M85.5259 376.883L269.169 301.178L432.59 388.069" stroke="#292D3D" stroke-miterlimit="10" stroke-linecap="round"/>
<path d="M269.17 301.177V66.3574" stroke="#292D3D" stroke-miterlimit="10" stroke-linecap="round"/>
<path d="M175.677 180.025L85.2734 219.976V104.942L175.677 65V180.025Z" stroke="#292D3D" stroke-miterlimit="10"/>
<path d="M100.47 130.618C100.47 130.618 102.991 129.75 103.863 129.856C104.734 129.963 104.342 131.339 105.897 130.782C107.452 130.225 108.896 129.086 109.823 129.635C110.75 130.184 111.182 131.585 111.763 131.577C112.344 131.569 113.985 130.348 115.438 128.127C116.891 125.906 118.289 123.48 118.289 123.48L118.132 128.643C118.132 128.643 117.346 127.889 115.619 129.627C113.891 131.364 112.422 133.355 112.132 134.454C111.52 136.711 110.338 138.755 108.708 140.37C106.486 142.567 103.211 142.927 101.546 143.411C99.8812 143.894 99.1195 144.845 97.5724 142.976C96.6557 141.758 96.0652 140.307 95.861 138.772C95.6568 137.238 95.8463 135.674 96.4102 134.241C96.7903 133.363 97.3512 132.583 98.0529 131.957C98.7547 131.331 99.58 130.874 100.47 130.618Z" fill="#D9D9D9"/>
<path d="M158.798 104.879C157.601 105.505 156.465 106.252 155.406 107.108C154.534 107.976 154.927 109.025 153.372 109.828C151.817 110.632 150.372 110.787 149.445 112.189C148.519 113.59 148.087 115.344 147.506 115.844C146.934 116.168 146.287 116.321 145.638 116.286C144.988 116.252 144.36 116.03 143.823 115.647C142.842 114.993 141.905 114.27 141.019 113.483L141.208 118.507C141.473 118.073 141.85 117.726 142.296 117.507C142.742 117.288 143.239 117.206 143.728 117.269C145.472 117.474 146.925 118.171 147.215 119.015C147.451 119.787 147.898 120.471 148.5 120.984C149.103 121.496 149.835 121.814 150.608 121.9C152.83 122.129 156.105 119.58 157.77 118.622C159.434 117.663 160.188 117.917 161.743 114.672C163.298 111.426 164.217 106.706 162.89 104.879C161.563 103.051 158.798 104.879 158.798 104.879Z" fill="#D9D9D9"/>
<path d="M166.475 98.3199C166.475 98.3199 166.185 91.6328 163.57 89.8708C160.955 88.1089 157.664 89.9282 155.921 91.6737C154.178 93.4193 152.725 97.7053 150.306 98.6559C147.887 99.6065 146.434 98.1724 144.11 100.787C141.785 103.401 140.969 108.719 139.649 109.563C138.33 110.407 133.508 109.981 130.037 111.727C126.566 113.046 121.745 117.717 120.417 118.062C119.09 118.406 118.289 113.776 115.965 113.218C113.64 112.661 112.187 115.374 109.769 116.57C107.35 117.767 105.897 114.71 104.154 114.513C102.41 114.317 99.1122 115.398 96.4972 119.479C93.8821 123.56 93.5994 130.493 93.5994 130.493C93.3064 132.769 93.1751 135.065 93.2068 137.361C93.4031 139.459 95.0444 142.278 95.0444 144.212C95.0444 146.146 95.437 145.621 95.7276 144.515C96.0181 143.409 95.5312 141.565 95.5312 140.95C95.5312 140.336 95.8218 141.188 96.3165 142.196C96.8113 143.204 98.4447 144.294 99.4106 143.745C100.377 143.196 97.573 141.639 97.573 140.295C97.573 138.951 100.479 141.327 101.547 141.114C102.615 140.901 98.8295 137.934 98.8295 137.934C98.8295 137.934 103.094 137.754 103.478 137.115C103.863 136.476 99.8033 135.574 99.8033 135.574C101.3 135.096 102.758 134.493 104.162 133.771C105.222 133.058 99.7012 133.427 99.7012 133.427L101.547 132.608C102.803 132.05 104.06 130.969 102.803 131.198C101.547 131.428 99.0258 131.895 99.0258 131.895C99.0258 131.895 102.026 130.567 102.167 130.035C102.308 129.502 99.0258 130.92 97.4552 130.313C95.8846 129.707 95.8846 125.519 97.6516 121.225C99.4185 116.931 102.363 117.054 103.659 117.226C104.955 117.398 106.172 119.889 108.787 119.586C111.402 119.283 113.342 116.357 114.598 116.308C115.855 116.259 118.085 118.906 118.179 120.405C118.194 122.695 117.999 124.981 117.598 127.232C117.213 129.69 117.7 131.329 118.179 133.542C118.658 135.755 123.025 143.081 123.991 145.58C124.956 148.08 124.477 153.267 124.383 156.717C124.289 160.167 127.092 160.512 127.092 160.512C126.16 161.356 125.423 162.409 124.936 163.593C124.449 164.776 124.225 166.06 124.281 167.346C124.281 169.42 125.852 173.23 126.637 177.877C127.422 182.523 128.286 186.891 128.286 188.711C128.286 190.53 129.158 189.53 129.158 189.53L129.268 189.432C130.139 188.532 131.309 188.015 132.535 187.99H132.645C132.645 187.99 133.516 188.211 133.516 186.391C133.656 182.751 134.02 179.124 134.608 175.533C135.393 170.198 136.901 163.847 136.901 161.774C136.924 161.255 136.844 160.737 136.666 160.252C136.489 159.767 136.217 159.325 135.868 158.954C135.52 158.583 135.102 158.292 134.64 158.097C134.179 157.903 133.684 157.81 133.186 157.824C133.186 157.824 135.99 154.996 135.896 151.637C135.801 148.277 135.315 143.499 136.281 140.164C137.246 136.828 141.613 125.65 142.092 123.003C142.571 120.356 143.066 118.316 142.673 116.177C142.265 114.098 142.071 111.98 142.092 109.858C142.194 108.219 144.448 103.606 145.681 102.557C146.913 101.508 148.869 102.729 151.484 100.721C154.099 98.7132 155.363 95.1156 156.62 93.829C157.876 92.5424 160.884 89.7315 162.627 92.5178C164.371 95.3041 164.465 99.3688 162.816 101.434C161.167 103.499 157.978 104.909 158.104 105.351C158.23 105.794 161.206 104.474 161.206 104.474C161.206 104.474 158.685 106.195 157.429 107.113C156.172 108.031 157.429 107.933 158.685 107.408L160.523 106.589C160.523 106.589 155.026 111.096 156.07 110.866C157.571 110.301 159.028 109.616 160.429 108.818C160.429 108.818 156.361 113.292 156.745 113.612C157.13 113.931 161.394 110.334 161.394 110.334C161.394 110.334 157.617 116.619 158.685 115.906C159.753 115.193 162.659 110.26 162.659 111.596C162.659 112.932 159.847 116.98 160.813 116.668C161.779 116.357 163.428 113.808 163.955 112.382C164.481 110.957 164.74 109.85 164.74 110.457C164.74 111.063 164.253 113.35 164.544 114.194C164.834 115.038 165.219 115.234 165.219 113.284C165.219 111.334 166.868 107.08 167.064 104.81C167.041 102.634 166.844 100.463 166.475 98.3199Z" fill="#FE4D3C"/>
<path d="M165.247 109.283C165.734 108.587 166.409 105.006 166.315 103.096C166.169 101.7 165.874 100.326 165.435 98.9988C165.27 93.0492 164.155 90.3285 161.791 89.9843C158.964 89.5909 157.425 91.148 155.211 93.7622C154.512 94.5817 153.923 95.4421 153.357 96.2616C152.211 97.9006 151.221 99.3266 149.768 99.892C149.043 100.158 148.297 100.358 147.538 100.49C146.338 100.606 145.206 101.123 144.311 101.965C142.551 103.654 141.656 107.251 141.617 107.407C141.578 107.563 140.769 109.382 140.298 110.554C139.805 111.534 139.218 112.459 138.546 113.315C137.094 114.954 131.675 118.667 130.316 119.265C130.316 119.265 124.411 122.117 121.505 120.355C120.621 119.825 119.794 119.195 119.04 118.478C118.757 118.06 118.529 117.724 118.506 117.659C118.482 117.593 117.547 114.709 115.773 114.602C114.658 114.52 113.676 115.2 112.545 115.979C111.834 116.493 111.089 116.953 110.315 117.356C108.854 118.077 107.865 117.528 106.726 116.897C106.14 116.551 105.518 116.276 104.873 116.077C102.658 115.413 101.111 115.258 98.2841 118.11C95.9281 120.568 94.813 124.239 94.6481 130.328C94.2366 131.924 93.9477 133.552 93.7843 135.196C93.69 137.179 94.3654 140.17 94.8523 140.441C95.3392 140.711 95.0408 138.531 95.5276 139.171C96.0145 139.81 96.3129 141.629 96.6899 140.965C97.0668 140.302 96.203 138.261 96.8862 138.572C97.5694 138.884 98.5275 139.908 98.339 138.9C98.1506 137.892 96.9805 137.31 97.9464 137.122C98.9123 136.933 100.082 136.917 99.517 136.442C98.9516 135.966 98.0485 135.196 98.4961 134.876C98.9437 134.557 100.239 134.876 99.6583 134.245C99.2416 133.834 98.7894 133.464 98.3076 133.139C98.3076 133.139 100.145 132.574 99.4699 132.508C98.7945 132.443 98.7866 131.467 98.0171 131.566C97.4754 131.514 96.9499 131.345 96.4741 131.07C95.9982 130.795 95.5823 130.419 95.2528 129.968C95.4177 124.231 96.4229 120.838 98.5353 118.675C101.135 116.003 102.509 116.216 104.543 116.856C105.163 117.062 105.761 117.337 106.326 117.675C107.511 118.339 108.634 118.962 110.331 118.118C111.148 117.703 111.936 117.226 112.686 116.692C113.77 115.946 114.618 115.356 115.561 115.43C117.061 115.544 120.571 123.502 120.814 124.305C121.49 126.567 122.558 131.566 124.592 135.171C126.626 138.777 129.044 141.113 129.429 144.186C129.814 147.259 129.429 155.134 129.335 156.478C129.241 157.822 129.625 159.756 129.044 161.109C128.463 162.461 126.626 162.42 126.139 165.796C125.652 169.173 126.924 172.024 127.497 175.179C128.031 178.113 129.248 187.808 129.413 189.111C130.21 188.374 131.224 187.943 132.288 187.89C132.429 185.333 132.924 177.704 133.858 173.663C135.02 168.746 135.892 163.518 135.123 161.797C134.353 160.076 132.696 160.314 131.981 159.273C131.267 158.232 130.921 150.373 130.921 147.939C130.921 145.505 131.212 141.244 132.076 139.4C132.939 137.556 134.502 132.975 136.63 126.075C138.758 119.175 140.785 111.635 140.792 111.578C140.8 111.521 142.999 103.949 144.499 102.514C145.302 101.78 146.309 101.335 147.373 101.244C148.176 101.112 148.965 100.901 149.729 100.613C151.425 99.9576 152.548 98.3432 153.734 96.6304C154.284 95.8109 154.857 94.9914 155.517 94.2293C157.551 91.8281 158.925 90.3776 161.524 90.7464C163.637 91.0414 164.666 93.5901 164.807 99.1381C164.132 100.651 163.195 102.021 162.043 103.178C161.257 103.768 161.257 104.735 160.59 105.407C159.922 106.079 161.752 105.014 161.752 105.014C161.752 105.014 160.967 106.202 160.394 107.317C159.82 108.431 161.077 107.013 161.556 106.923C162.035 106.833 161.171 108.308 160.59 109.3C160.009 110.291 161.171 109.3 162.16 108.611C163.15 107.923 161.972 109.546 161.776 110.726C161.579 111.906 162.561 110.021 163.228 109.087C163.896 108.153 163.032 110.996 163.425 111.316C163.817 111.635 164.1 109.554 164.587 108.489C165.074 107.423 164.768 109.988 165.247 109.283Z" fill="#417BFF"/>
<path d="M150.436 87.166L146.557 88.887L133.741 111.62" stroke="#292D3D" stroke-miterlimit="10"/>
<path d="M151.994 148.195L147.918 149.99L131.804 149.31" stroke="#292D3D" stroke-miterlimit="10"/>
<path d="M112.191 178.703L116.267 176.9L129.28 180.424" stroke="#292D3D" stroke-miterlimit="10"/>
<path d="M96.6611 153.128L103.266 150.211" stroke="#292D3D" stroke-miterlimit="10"/>
<path d="M96.6611 155.572L103.266 152.654" stroke="#292D3D" stroke-miterlimit="10"/>
<path d="M153.155 147.435L159.76 144.518" stroke="#292D3D" stroke-miterlimit="10"/>
<path d="M153.155 150.115L159.76 147.197" stroke="#292D3D" stroke-miterlimit="10"/>
<path d="M102.872 182.581L109.476 179.664" stroke="#292D3D" stroke-miterlimit="10"/>
<path d="M102.872 185.261L109.476 182.344" stroke="#292D3D" stroke-miterlimit="10"/>
<path d="M151.992 86.4877L158.596 83.5703" stroke="#292D3D" stroke-miterlimit="10"/>
<path d="M151.992 89.1655L158.596 86.248" stroke="#292D3D" stroke-miterlimit="10"/>
<path d="M104.624 152.291L108.315 150.66L119.765 133.164" stroke="#292D3D" stroke-miterlimit="10"/>
<path d="M162.674 126.396L159.564 127.772L153.934 118.799" stroke="#292D3D" stroke-miterlimit="10"/>
<path d="M181.93 413.061L177.517 420.109C177.401 420.289 177.32 420.491 177.28 420.704C177.24 420.917 177.241 421.137 177.282 421.349C177.324 421.562 177.406 421.764 177.523 421.944C177.64 422.123 177.79 422.277 177.964 422.395L179.197 423.255C179.52 423.487 179.914 423.584 180.302 423.528C180.69 423.472 181.044 423.266 181.294 422.952C186.422 416.593 211.63 385.477 216.091 382.28C221.054 378.716 267.921 371.586 267.921 371.586C267.838 370.866 267.508 370.2 266.993 369.713C266.478 369.225 265.812 368.947 265.117 368.931C255.976 368.718 224.8 367.972 223.205 367.693C221.344 367.374 219.169 367.374 219.483 365.104C219.703 363.465 222.711 356.704 224.336 353.115C224.458 352.848 224.519 352.555 224.515 352.26C224.51 351.964 224.441 351.673 224.312 351.41C224.183 351.147 223.998 350.919 223.77 350.743C223.543 350.566 223.28 350.447 223.001 350.394C222.687 350.333 222.364 350.358 222.062 350.467C221.761 350.577 221.492 350.766 221.281 351.017C218.431 354.426 207.499 367.407 204.264 369.644C201.029 371.881 161.135 384.108 150.636 387.304C150.37 387.38 150.128 387.527 149.934 387.732C149.74 387.936 149.601 388.19 149.531 388.469C149.461 388.747 149.462 389.039 149.535 389.317C149.608 389.594 149.749 389.847 149.945 390.049C150.128 390.251 150.358 390.4 150.612 390.483C150.866 390.566 151.137 390.58 151.398 390.525C157.444 389.238 193.553 381.576 195.264 380.977C197.126 380.33 202.717 380.658 196.191 391.352C189.665 402.047 181.93 413.061 181.93 413.061Z" fill="#292D3D"/>
<path d="M207.776 383.77C205.832 383.768 203.969 382.96 202.595 381.525C201.221 380.09 200.449 378.144 200.449 376.116V313.195C200.512 311.209 201.311 309.327 202.679 307.945C204.047 306.563 205.876 305.791 207.78 305.791C209.684 305.791 211.513 306.563 212.881 307.945C214.249 309.327 215.049 311.209 215.111 313.195V376.132C215.107 378.159 214.332 380.102 212.957 381.534C211.582 382.966 209.719 383.77 207.776 383.77Z" fill="#292D3D"/>
<path d="M133.773 271.926L140.417 294.675" stroke="#292D3D" stroke-width="4" stroke-miterlimit="10" stroke-linecap="round"/>
<path d="M114.842 278.611C114.489 279.734 128.475 285.323 128.475 285.323L151.484 272.408C151.484 272.408 148.162 265.573 136.045 263.598C123.928 261.623 116.358 273.899 114.842 278.611Z" fill="#8C8C8C" stroke="#292D3D" stroke-linecap="round" stroke-linejoin="round"/>
<path d="M128.474 285.354C128.474 285.354 130.366 273.881 137.56 269.161C144.753 264.44 151.483 272.439 151.483 272.439L128.474 285.354Z" fill="#417BFF" stroke="#292D3D" stroke-linecap="round" stroke-linejoin="round"/>
<path d="M189.283 324.201C189.283 324.201 176.978 382.386 174.363 389.138C169.871 400.816 157.219 404.34 146.469 400.489C130.998 394.981 128.014 378.78 128.069 363.464C128.124 349.532 131.116 336.42 134.273 323.038C135.789 316.588 137.131 310.09 138.521 303.616C138.757 302.534 139.448 295.199 140.422 294.675L193.524 266.148C193.524 266.148 222.714 181.961 232.483 162.637C242.252 143.313 258.932 138.224 273.114 140.633C285.31 142.707 295.747 154.565 291.632 181.428C287.517 208.291 249.225 294.519 248.197 298.797C247.168 303.075 189.283 324.201 189.283 324.201Z" fill="#8C8C8C" stroke="#292D3D" stroke-linecap="round" stroke-linejoin="round"/>
<path d="M189.28 325.807C189.005 325.807 188.734 325.734 188.494 325.594L139.633 296.092C139.42 296.007 139.227 295.874 139.068 295.703C138.908 295.533 138.787 295.328 138.711 295.103C138.636 294.878 138.608 294.639 138.63 294.402C138.653 294.164 138.724 293.935 138.84 293.73C138.956 293.525 139.113 293.348 139.301 293.213C139.489 293.077 139.702 292.986 139.927 292.946C140.152 292.905 140.383 292.917 140.603 292.979C140.824 293.041 141.029 293.152 141.203 293.306L190.065 322.808C190.339 322.999 190.548 323.275 190.664 323.597C190.779 323.919 190.794 324.271 190.708 324.602C190.621 324.934 190.436 325.229 190.18 325.445C189.924 325.661 189.609 325.788 189.28 325.807Z" fill="#8C8C8C" stroke="#292D3D" stroke-linecap="round" stroke-linejoin="round"/>
<path d="M246.374 301.255C246.098 301.254 245.827 301.178 245.589 301.034L192.738 268.213C192.454 267.964 192.263 267.617 192.2 267.235C192.137 266.853 192.206 266.46 192.394 266.126C192.582 265.792 192.878 265.539 193.229 265.411C193.579 265.282 193.962 265.288 194.309 265.426L247.159 298.206C247.51 298.425 247.765 298.778 247.87 299.189C247.976 299.601 247.924 300.039 247.725 300.411C247.591 300.663 247.395 300.874 247.158 301.022C246.921 301.17 246.651 301.251 246.374 301.255Z" fill="#8C8C8C" stroke="#292D3D" stroke-linecap="round" stroke-linejoin="round"/>
<path d="M247.709 300.441L189.283 324.199L178.831 372.672" stroke="#292D3D" stroke-width="4" stroke-miterlimit="10" stroke-linecap="round"/>
<path d="M234.201 159.07L291.897 179.681" stroke="#292D3D" stroke-linecap="round" stroke-linejoin="round"/>
<path d="M238.159 165.751L278.044 180.993L282.756 169.635L245.847 155.703C245.847 155.703 239.753 153.327 238.159 165.751Z" fill="#8C8C8C" stroke="#292D3D" stroke-linecap="round" stroke-linejoin="round"/>
<path d="M278.043 180.995C278.043 180.995 274.769 170.169 282.755 169.637L278.043 180.995Z" fill="#417BFF" stroke="#292D3D" stroke-linecap="round" stroke-linejoin="round"/>
<path d="M203.659 123.505C203.659 123.505 200.887 116.826 192.131 113.671C183.374 110.516 169.962 118.809 164.378 126.185C158.795 133.56 156.046 145.124 157.546 152.917C159.046 160.71 166.726 167.627 167.794 170.299C168.862 172.97 169.074 173.863 166.294 175.42C163.514 176.978 163.31 176.092 163.522 176.977C163.734 177.863 167.15 179.879 169.93 180.1C171.748 180.194 173.564 179.889 175.262 179.207L174.838 182.329C174.838 182.329 177.398 183.443 182.306 182.108C187.215 180.772 189.374 178.543 189.374 178.543C189.374 178.543 193.214 180.321 195.35 180.321C197.224 180.206 199.083 179.907 200.902 179.428L201.114 177.207C202.606 177.338 204.106 177.338 205.598 177.207C207.954 176.977 212.431 173.863 212.431 173.863L210.295 170.52C210.984 170.789 211.718 170.908 212.453 170.87C213.187 170.832 213.907 170.637 214.567 170.299C217.127 169.184 219.051 166.283 219.051 166.283C219.051 166.283 214.779 166.955 214.779 163.39C214.779 159.825 219.899 151.36 216.915 137.986C213.931 124.611 208.999 119.719 203.659 123.505Z" fill="#292D3D" stroke="#292D3D" stroke-miterlimit="10"/>
<path d="M165.186 233.627L164.165 247.927C164.165 247.927 166.521 254.983 170.934 254.106C175.348 253.229 176.683 248.984 177.531 245.28C178.144 242.249 178.594 239.185 178.882 236.102L165.186 233.627Z" fill="white" stroke="#292D3D" stroke-linecap="round" stroke-linejoin="round"/>
<path d="M140.419 284.209C140.419 284.209 133.995 287.16 130.909 292.265C127.823 297.371 129.912 306.475 130.65 313.998C131.388 321.521 136.563 364.717 136.563 370.355C136.563 375.993 134.765 380.558 133.736 381.361C132.708 382.164 124.218 387.532 119.075 389.679C113.931 391.826 110.845 390.499 110.075 392.629C109.306 394.76 110.86 396.12 112.431 396.653C114.002 397.186 122.97 399.341 126.567 398.292C130.163 397.243 132.221 395.875 138.652 394.531C145.084 393.187 147.911 394.801 148.17 388.097C148.429 381.394 147.652 374.166 147.911 366.627C148.17 359.087 151.256 339.788 151.516 327.979C151.775 316.17 151.767 305.705 151.767 305.705L168.486 295.502C166.622 291.022 163.358 287.333 159.227 285.037C152.505 281.53 140.419 284.209 140.419 284.209Z" fill="white" stroke="#292D3D" stroke-miterlimit="10" stroke-linecap="round"/>
<path d="M115.589 391.704C115.589 391.704 112.566 391.302 112.369 393.433C112.173 395.564 112.762 396.383 114.419 396.793" stroke="#292D3D" stroke-miterlimit="10" stroke-linecap="round"/>
<path d="M161.451 290.814C161.451 290.814 150.252 298.001 149.396 301.598C148.54 305.196 145.737 333.952 145.737 340.934C145.737 347.916 142.289 382.729 141.425 385.654C140.562 388.58 137.978 389.695 133.243 391.268C128.507 392.841 122.908 394.161 121.4 394.161C119.892 394.161 115.801 393.038 115.377 394.841C115.315 395.09 115.283 395.346 115.283 395.603C115.298 396.353 115.523 397.081 115.93 397.699C116.338 398.317 116.91 398.796 117.576 399.078L117.741 399.152C117.741 399.152 124.416 402.97 125.924 403.421C127.329 403.814 128.773 404.039 130.227 404.093C131.091 404.093 134.106 403.864 138.41 403.864C142.713 403.864 148.744 403.864 151.116 402.298C153.488 400.733 153.056 397.381 153.056 394.202C153.056 391.022 154.344 377.574 157.579 369.043C160.814 360.512 167.914 347.244 169.201 337.132C170.489 327.019 170.277 313.989 170.277 313.989L178.028 310.17C177.591 305.235 175.796 300.537 172.861 296.64C167.914 289.912 161.451 290.814 161.451 290.814Z" fill="white" stroke="#292D3D" stroke-miterlimit="10" stroke-linecap="round"/>
<path d="M117.741 399.12C117.741 399.12 117.961 396.866 121.189 396.424" stroke="#292D3D" stroke-miterlimit="10" stroke-linecap="round"/>
<path d="M120.11 400.242C120.11 400.242 120.322 398.217 123.126 397.996" stroke="#292D3D" stroke-miterlimit="10" stroke-linecap="round"/>
<path d="M122.907 401.816C123.094 401.184 123.463 400.628 123.966 400.224C124.468 399.82 125.077 399.589 125.711 399.562" stroke="#292D3D" stroke-miterlimit="10" stroke-linecap="round"/>
<path d="M125.924 403.388C125.924 403.388 125.06 401.364 128.719 401.585" stroke="#292D3D" stroke-miterlimit="10" stroke-linecap="round"/>
<path d="M183.885 175.52C183.885 175.52 185.942 181.158 185.455 183.034C184.969 184.911 176.974 186.525 173.37 188.132C169.765 189.738 164.881 213.364 162.572 218.732C160.865 222.929 159.4 227.228 158.182 231.606C158.182 231.606 163.067 235.638 166.922 236.712C170.778 237.785 172.317 238.047 172.317 238.047C172.317 238.047 177.202 247.177 178.231 250.397C179.259 253.618 180.288 257.371 179.259 258.445C178.231 259.518 171.289 265.689 169.749 266.763C168.21 267.836 146.347 279.645 142.264 282.333L138.149 285.013C138.149 285.013 151.263 286.086 160.522 291.454C169.781 296.822 176.464 312.122 176.464 312.122C176.464 312.122 213.239 304.878 223.009 296.551C232.778 288.225 232.786 283.439 232.786 273.745C232.786 264.05 230.987 237.244 230.987 230.803C230.987 224.362 225.584 190.82 222.498 187.599C219.412 184.378 201.664 184.108 201.154 182.502C200.643 180.895 199.583 175.52 199.583 175.52H183.885Z" fill="#417BFF" stroke="#292D3D" stroke-miterlimit="10"/>
<path d="M187.389 242.045C190.617 245.044 195.957 249.535 201.399 252.018" stroke="#292D3D" stroke-miterlimit="10" stroke-linecap="round"/>
<path d="M184.293 238.988C184.293 238.988 184.686 239.406 185.385 240.103" stroke="#292D3D" stroke-miterlimit="10" stroke-linecap="round"/>
<path d="M191.083 249.469C191.083 249.469 198.685 254.853 203.302 256.549" stroke="#292D3D" stroke-miterlimit="10" stroke-linecap="round"/>
<path d="M228.758 279.086C229.036 279.958 229.238 280.855 229.362 281.766" stroke="#292D3D" stroke-miterlimit="10" stroke-linecap="round"/>
<path d="M222.576 272.416C224.841 273.169 226.738 274.808 227.869 276.989" stroke="#292D3D" stroke-miterlimit="10" stroke-linecap="round"/>
<path d="M198.139 263.041C198.924 263.287 199.71 263.484 200.314 263.606" stroke="#292D3D" stroke-miterlimit="10" stroke-linecap="round"/>
<path d="M186.734 258.535C186.734 258.535 191.077 260.535 195.2 262.067" stroke="#292D3D" stroke-miterlimit="10" stroke-linecap="round"/>
<path d="M191.857 197.523C202.364 196.58 206.864 188.721 208.615 184.148C204.641 183.624 201.335 183.181 201.115 182.509C200.597 180.87 199.545 175.527 199.545 175.527H183.839C183.839 175.527 185.896 181.165 185.409 183.042C185.205 183.796 183.784 184.509 181.931 185.197C181.035 188.844 179.7 198.621 191.857 197.523Z" fill="white" stroke="#292D3D" stroke-miterlimit="10"/>
<path d="M192.376 183.067C195.459 182.315 198.173 180.415 200.01 177.724C199.758 176.487 199.57 175.52 199.57 175.52H183.864C183.864 175.52 185.725 180.641 185.434 182.739C187.697 183.379 190.067 183.491 192.376 183.067Z" fill="#292D3D" stroke="#292D3D" stroke-miterlimit="10"/>
<path d="M198.966 134.873C194.314 138.68 189.389 142.107 184.234 145.125C176.121 149.796 172.281 152.5 172.281 152.5C172.281 152.5 176.757 167.874 177.825 171.66C179.537 177.676 189.142 181.683 195.338 180.347C201.534 179.011 205.586 172.324 206.01 167.235C206.434 162.146 205.162 147.854 205.162 147.854C205.162 147.854 198.966 144.215 198.966 134.873Z" fill="white" stroke="#292D3D" stroke-miterlimit="10"/>
<path d="M181.867 159.359L186.155 158.613" stroke="#292D3D" stroke-width="0.5" stroke-miterlimit="10"/>
<path d="M200.174 155.629L196.311 157.268" stroke="#292D3D" stroke-width="0.5" stroke-miterlimit="10"/>
<path d="M192.194 149.459C192.194 149.459 192.374 155.638 192.728 156.761C193.081 157.883 195.602 158.637 194.346 161.26C193.089 163.882 189.861 164.636 188.605 162.014" stroke="#292D3D" stroke-miterlimit="10"/>
<path d="M185.15 155.021C185.488 156.39 185.26 157.636 184.632 157.808C184.004 157.98 183.218 156.988 182.873 155.636C182.527 154.284 182.771 153.022 183.391 152.85C184.011 152.678 184.805 153.653 185.15 155.021Z" fill="#292D3D"/>
<path d="M197.765 152.81C197.914 154.211 197.514 155.416 196.87 155.49C196.226 155.563 195.582 154.482 195.433 153.08C195.283 151.679 195.684 150.466 196.336 150.392C196.987 150.318 197.624 151.4 197.765 152.81Z" fill="#292D3D"/>
<path d="M179.112 151.36C179.112 151.36 180.18 147.123 184.445 148.016" stroke="#292D3D" stroke-width="2" stroke-miterlimit="10" stroke-linecap="round"/>
<path d="M192.778 147.793C192.778 147.793 197.042 145.121 199.61 148.235" stroke="#292D3D" stroke-width="2" stroke-miterlimit="10" stroke-linecap="round"/>
<path d="M187.241 168.068C187.241 168.068 192.793 170.527 197.057 166.061" stroke="#292D3D" stroke-miterlimit="10"/>
<path d="M173.104 155.588C173.104 155.588 170.544 152.474 169.476 156.038C168.408 159.603 170.12 160.955 171.4 162.054C172.68 163.152 175.672 164.061 175.672 164.061L173.104 155.588Z" stroke="#292D3D" stroke-miterlimit="10"/>
<path d="M205.371 151.361C205.371 151.361 207.727 146.682 208.787 151.361C209.847 156.04 206.187 160.572 205.975 161.236L205.371 151.361Z" stroke="#292D3D" stroke-miterlimit="10"/>
<path d="M214.489 243.955L213.97 254.691C213.97 254.691 195.712 273.473 191.087 276.424C186.461 279.374 181.569 281.791 181.569 281.791C181.569 281.791 176.268 283.873 174.368 284.668C171.831 285.725 166.248 287.126 164.559 288.192C162.871 289.257 159.149 293.314 157.287 295.78C155.426 298.247 153.055 300.197 153.738 301.082C154.421 301.967 155.937 300.369 155.937 300.369C155.937 300.369 154.076 302.828 154.916 303.729C155.756 304.631 157.272 303.377 157.272 303.377C157.272 303.377 156.259 305.672 157.437 306.024C158.615 306.376 160.484 304.606 160.484 304.606C160.484 304.606 160.146 306.548 162.839 304.959C165.533 303.369 170.614 298.788 170.614 298.788C170.614 298.788 175.012 298.075 177.548 295.961C179.304 294.319 180.741 292.341 181.781 290.134L184.365 288.495C184.365 288.495 197.715 283.93 208.544 278.833C219.373 273.736 228.341 266.491 228.601 265.721C228.86 264.951 229.111 244.521 229.111 244.521C229.111 244.521 217.866 244.193 214.489 243.955Z" fill="white" stroke="#292D3D" stroke-linecap="round" stroke-linejoin="round"/>
<path d="M155.935 300.37C155.935 300.37 160.647 295.256 161.848 294.018C162.556 293.275 163.347 292.623 164.204 292.076" stroke="#292D3D" stroke-linecap="round" stroke-linejoin="round"/>
<path d="M157.289 303.378C157.289 303.378 161.852 298.256 163.037 297.019C164.206 295.925 165.45 294.923 166.76 294.02" stroke="#292D3D" stroke-linecap="round" stroke-linejoin="round"/>
<path d="M160.538 304.607C161.724 303.55 166.459 297.904 167.983 297.371C168.688 297.162 169.368 296.868 170.009 296.494" stroke="#292D3D" stroke-linecap="round" stroke-linejoin="round"/>
<path d="M214.726 205.576L209.857 245.011C213.59 246.698 217.625 247.536 221.692 247.469C228.893 247.469 236.094 242.905 236.094 242.905C236.094 242.905 228.375 195.669 226.836 191.375C225.296 187.08 219.634 186.548 218.347 186.818" fill="#417BFF"/>
<path d="M214.726 205.576L209.857 245.011C213.59 246.698 217.625 247.536 221.692 247.469C228.893 247.469 236.094 242.905 236.094 242.905C236.094 242.905 228.375 195.669 226.836 191.375C225.296 187.08 219.634 186.548 218.347 186.818" stroke="#292D3D" stroke-miterlimit="10"/>
<path d="M171.797 198.064C171.797 198.064 171.012 209.333 169.74 215.512C168.467 221.691 168.711 232.418 172.308 238.048" stroke="#292D3D" stroke-miterlimit="10"/>
<path d="M140.662 286.756C140.662 286.756 136.091 291.878 135.416 293.312C134.484 295.47 133.748 297.714 133.217 300.015C133.217 300.728 133.39 301.253 134.568 300.368C135.746 299.483 136.602 296.311 137.277 295.074C137.953 293.836 140.151 290.157 140.151 290.157" stroke="#292D3D" stroke-linecap="round" stroke-linejoin="round"/>
<path d="M165.016 245.988C165.016 245.988 159.77 255.871 157.571 261.518C155.835 265.992 153.032 273.458 151.94 276.367C150.629 277.539 143.828 283.628 141.841 285.701C139.42 288.321 137.675 291.538 136.768 295.052C136.093 298.231 135.245 301.608 135.928 302.64C136.013 302.783 136.125 302.907 136.258 303.003C136.39 303.099 136.54 303.166 136.698 303.2C136.856 303.234 137.019 303.234 137.177 303.199C137.335 303.165 137.484 303.098 137.616 303.001L138.967 302.821C138.967 302.821 140.153 304.763 141.676 302.468C143.2 300.174 145.736 295.912 146.577 295.052C147.417 294.191 150.81 291.348 150.81 291.348C149.796 293.595 148.666 295.784 147.425 297.904C146.412 299.313 147.935 300.362 148.948 299.141C149.961 297.92 153.519 294.019 155.034 291.02C156.55 288.02 156.731 283.431 156.896 282.726C156.998 282.3 157.461 280.948 157.814 279.916C157.814 279.916 163.83 271.606 168.228 267.189C172.625 262.772 173.984 253.429 175.162 250.422" fill="white"/>
<path d="M165.016 245.988C165.016 245.988 159.77 255.871 157.571 261.518C155.835 265.992 153.032 273.458 151.94 276.367C150.629 277.539 143.828 283.628 141.841 285.701C139.42 288.321 137.675 291.538 136.768 295.052C136.093 298.231 135.245 301.608 135.928 302.64C136.013 302.783 136.125 302.907 136.258 303.003C136.39 303.099 136.54 303.166 136.698 303.2C136.856 303.234 137.019 303.234 137.177 303.199C137.335 303.165 137.484 303.098 137.616 303.001L138.967 302.821C138.967 302.821 140.153 304.763 141.676 302.468C143.2 300.174 145.736 295.912 146.577 295.052C147.417 294.191 150.81 291.348 150.81 291.348C149.796 293.595 148.666 295.784 147.425 297.904C146.412 299.313 147.935 300.362 148.948 299.141C149.961 297.92 153.519 294.019 155.034 291.02C156.55 288.02 156.731 283.431 156.896 282.726C156.998 282.3 157.461 280.948 157.814 279.916C157.814 279.916 163.83 271.606 168.228 267.189C172.625 262.772 173.984 253.429 175.162 250.422" stroke="#292D3D" stroke-linecap="round" stroke-linejoin="round"/>
<path d="M138.964 302.821C138.964 302.821 142.184 295.765 143.535 293.995C144.569 292.581 145.528 291.109 146.409 289.586" stroke="#292D3D" stroke-linecap="round" stroke-linejoin="round"/>
<path d="M137.615 303.001C137.615 303.001 137.788 297.699 138.966 294.88C140.144 292.061 143.364 287.996 143.364 287.996" stroke="#292D3D" stroke-linecap="round" stroke-linejoin="round"/>
<path d="M187.538 302.346L191.7 323.685" stroke="#292D3D" stroke-width="4" stroke-miterlimit="10" stroke-linecap="round"/>
<path d="M167.473 305.114C167.111 306.236 181.098 311.825 181.098 311.825L204.107 298.918C204.107 298.918 200.785 292.075 188.676 290.1C176.566 288.125 168.988 300.369 167.473 305.114Z" fill="#8C8C8C" stroke="#292D3D" stroke-linecap="round" stroke-linejoin="round"/>
<path d="M181.099 311.825C181.099 311.825 182.991 300.352 190.185 295.631C197.378 290.911 204.108 298.909 204.108 298.909L181.099 311.825Z" fill="#417BFF" stroke="#292D3D" stroke-linecap="round" stroke-linejoin="round"/>
<path d="M363.929 286.419C361.518 285.026 359.256 284.026 357.953 284.78L341.014 294.499C334.44 298.27 329.549 304.587 327.397 312.086L307.764 380.448L342.726 398.158L395.341 302.793L363.929 286.419Z" fill="white" stroke="#292D3D" stroke-miterlimit="10" stroke-linecap="round"/>
<path d="M375.645 379.277L342.749 398.126L362.381 329.755C364.543 322.271 369.432 315.971 375.998 312.209L392.929 302.498C393.393 302.229 393.923 302.111 394.451 302.159C394.98 302.206 395.483 302.418 395.895 302.765C396.308 303.113 396.612 303.582 396.767 304.111C396.923 304.64 396.924 305.206 396.769 305.735L375.645 379.277Z" fill="#8C8C8C" stroke="#292D3D" stroke-linecap="round" stroke-linejoin="round"/>
<path d="M322.348 342.518L350.634 357.006L342.923 381.157L315.146 366.668L322.348 342.518Z" fill="#8C8C8C" stroke="#292D3D" stroke-linecap="round" stroke-linejoin="round"/>
<path d="M353.138 328.672L351.975 332.549L348.269 330.623L349.353 326.845L345.026 324.755L343.95 328.361L340.243 326.435L341.248 322.928L336.96 320.862L335.916 324.337L332.209 322.403L333.183 319.035L329.547 317.281L327.49 323.19L355.776 337.146L357.842 330.942L353.138 328.672Z" fill="#8C8C8C" stroke="#292D3D" stroke-linecap="round" stroke-linejoin="round"/>
<path d="M311.031 277.027L301.466 282.616C301.062 282.855 300.711 283.18 300.438 283.572C300.164 283.963 299.974 284.411 299.88 284.885C299.787 285.36 299.791 285.849 299.894 286.322C299.997 286.794 300.195 287.238 300.476 287.623C300.778 288.032 301.164 288.362 301.607 288.59L348.576 313.028C351.77 314.663 355.422 315.044 358.863 314.101C363.143 312.848 376.493 305.21 382.776 301.555C383.803 300.956 384.671 300.099 385.3 299.061C385.93 298.024 386.301 296.839 386.38 295.614L386.64 291.516L379.949 289.877L354.238 308.127C353.137 308.767 351.898 309.102 350.637 309.102C349.377 309.102 348.138 308.767 347.037 308.127C342.922 305.98 306.916 286.124 306.916 286.124C306.916 286.124 305.212 284.665 307.701 282.961C309.421 281.78 314.651 278.609 314.651 278.609L311.031 277.027Z" fill="white" stroke="#292D3D" stroke-miterlimit="10" stroke-linecap="round"/>
<path d="M386.12 239.451L377.38 256.095L391.782 262.536L403.098 245.892L386.12 239.451Z" fill="white" stroke="#292D3D" stroke-miterlimit="10" stroke-linecap="round"/>
<path d="M382.391 246.564L398.246 253.022L403.099 245.892L386.121 239.451L382.391 246.564Z" fill="#292D3D" stroke="#292D3D" stroke-miterlimit="10" stroke-linecap="round"/>
<path d="M364.713 245.937L407.748 265.253C408.703 265.683 409.48 266.453 409.942 267.425C410.404 268.398 410.519 269.51 410.269 270.563L409.036 275.685C408.605 277.487 407.805 279.169 406.688 280.615C405.572 282.062 404.168 283.237 402.573 284.06L364.234 303.818C362.647 304.636 360.9 305.062 359.13 305.062C357.359 305.062 355.613 304.636 354.025 303.818L309.381 280.774C308.931 280.541 308.55 280.186 308.279 279.745C308.007 279.305 307.854 278.796 307.838 278.273C307.821 277.749 307.94 277.23 308.183 276.772C308.425 276.313 308.782 275.932 309.216 275.668L357.284 246.404C358.402 245.726 359.656 245.331 360.946 245.25C362.236 245.169 363.526 245.404 364.713 245.937Z" fill="white" stroke="#292D3D" stroke-miterlimit="10" stroke-linecap="round"/>
<path d="M417.597 257.097L359.39 233.373C358.554 233.034 357.835 232.44 357.328 231.668C356.82 230.896 356.548 229.982 356.547 229.046V174.623C356.548 173.866 356.725 173.121 357.064 172.452C357.402 171.782 357.892 171.21 358.491 170.783C359.09 170.356 359.779 170.087 360.5 170.001C361.22 169.915 361.95 170.013 362.626 170.288L420.832 194.053C421.668 194.393 422.386 194.987 422.893 195.759C423.4 196.531 423.673 197.444 423.675 198.38V252.803C423.668 253.556 423.486 254.297 423.145 254.96C422.804 255.624 422.313 256.192 421.715 256.614C421.117 257.036 420.43 257.301 419.713 257.385C418.996 257.469 418.269 257.37 417.597 257.097Z" fill="white" stroke="#292D3D" stroke-miterlimit="10" stroke-linecap="round"/>
<path d="M418.79 195.322L402.181 188.553L396.127 190.413L384.245 186.135L379.816 179.448L364.463 173.187C363.832 172.929 363.15 172.837 362.477 172.917C361.804 172.997 361.159 173.247 360.6 173.646C360.04 174.045 359.582 174.58 359.266 175.206C358.95 175.831 358.785 176.528 358.786 177.235V228.044C358.786 228.917 359.038 229.77 359.51 230.491C359.983 231.212 360.652 231.767 361.432 232.084L415.759 254.211C416.39 254.468 417.071 254.561 417.744 254.481C418.416 254.402 419.06 254.152 419.62 253.754C420.179 253.356 420.637 252.822 420.954 252.197C421.27 251.573 421.436 250.877 421.437 250.171V199.362C421.437 198.488 421.184 197.636 420.712 196.915C420.24 196.194 419.57 195.639 418.79 195.322Z" fill="white" stroke="#292D3D" stroke-miterlimit="10" stroke-linecap="round"/>
<path d="M368.506 254.584L389.552 263.738L370.257 275.334L348.033 266.18L368.506 254.584Z" fill="#8C8C8C" stroke="#292D3D" stroke-linecap="round" stroke-linejoin="round"/>
<path d="M368.508 300.964C367.958 297.563 322.175 274.977 315.304 271.945L309.226 275.666C308.792 275.93 308.435 276.311 308.192 276.769C307.95 277.228 307.83 277.746 307.847 278.27C307.864 278.793 308.017 279.302 308.288 279.743C308.56 280.183 308.941 280.539 309.391 280.771L354.035 303.816C355.623 304.634 357.369 305.059 359.14 305.059C360.91 305.059 362.657 304.634 364.244 303.816L368.579 301.587C368.563 301.374 368.54 301.16 368.508 300.964Z" fill="#8C8C8C" stroke="#292D3D" stroke-linecap="round" stroke-linejoin="round"/>
<path d="M335.637 267.552C336.79 267.552 337.726 266.899 337.726 266.093C337.726 265.288 336.79 264.635 335.637 264.635C334.483 264.635 333.548 265.288 333.548 266.093C333.548 266.899 334.483 267.552 335.637 267.552Z" fill="white" stroke="#292D3D" stroke-miterlimit="10" stroke-linecap="round"/>
<path d="M343.306 271.193C344.459 271.193 345.395 270.54 345.395 269.734C345.395 268.928 344.459 268.275 343.306 268.275C342.152 268.275 341.217 268.928 341.217 269.734C341.217 270.54 342.152 271.193 343.306 271.193Z" fill="white" stroke="#292D3D" stroke-miterlimit="10" stroke-linecap="round"/>
<path d="M350.98 274.83C352.133 274.83 353.068 274.176 353.068 273.371C353.068 272.565 352.133 271.912 350.98 271.912C349.826 271.912 348.891 272.565 348.891 273.371C348.891 274.176 349.826 274.83 350.98 274.83Z" fill="white" stroke="#292D3D" stroke-miterlimit="10" stroke-linecap="round"/>
<path d="M358.651 278.472C359.805 278.472 360.74 277.819 360.74 277.013C360.74 276.208 359.805 275.555 358.651 275.555C357.497 275.555 356.562 276.208 356.562 277.013C356.562 277.819 357.497 278.472 358.651 278.472Z" fill="white" stroke="#292D3D" stroke-miterlimit="10" stroke-linecap="round"/>
<path d="M368.412 280.65C368.412 281.469 367.477 282.108 366.315 282.108C365.153 282.108 364.226 281.453 364.226 280.65C364.226 279.847 365.161 279.199 366.315 279.199C367.469 279.199 368.412 279.847 368.412 280.65Z" fill="white" stroke="#292D3D" stroke-miterlimit="10" stroke-linecap="round"/>
<path d="M373.989 285.747C375.142 285.747 376.078 285.094 376.078 284.289C376.078 283.483 375.142 282.83 373.989 282.83C372.835 282.83 371.9 283.483 371.9 284.289C371.9 285.094 372.835 285.747 373.989 285.747Z" fill="white" stroke="#292D3D" stroke-miterlimit="10" stroke-linecap="round"/>
<path d="M330.404 271.921C331.558 271.921 332.493 271.268 332.493 270.463C332.493 269.657 331.558 269.004 330.404 269.004C329.25 269.004 328.315 269.657 328.315 270.463C328.315 271.268 329.25 271.921 330.404 271.921Z" fill="white" stroke="#292D3D" stroke-miterlimit="10" stroke-linecap="round"/>
<path d="M338.078 275.56C339.231 275.56 340.167 274.907 340.167 274.101C340.167 273.296 339.231 272.643 338.078 272.643C336.924 272.643 335.989 273.296 335.989 274.101C335.989 274.907 336.924 275.56 338.078 275.56Z" fill="white" stroke="#292D3D" stroke-miterlimit="10" stroke-linecap="round"/>
<path d="M345.747 279.201C346.9 279.201 347.836 278.548 347.836 277.742C347.836 276.936 346.9 276.283 345.747 276.283C344.593 276.283 343.658 276.936 343.658 277.742C343.658 278.548 344.593 279.201 345.747 279.201Z" fill="white" stroke="#292D3D" stroke-miterlimit="10" stroke-linecap="round"/>
<path d="M353.42 282.837C354.574 282.837 355.509 282.184 355.509 281.379C355.509 280.573 354.574 279.92 353.42 279.92C352.267 279.92 351.332 280.573 351.332 281.379C351.332 282.184 352.267 282.837 353.42 282.837Z" fill="white" stroke="#292D3D" stroke-miterlimit="10" stroke-linecap="round"/>
<path d="M361.087 286.476C362.241 286.476 363.176 285.823 363.176 285.017C363.176 284.212 362.241 283.559 361.087 283.559C359.933 283.559 358.998 284.212 358.998 285.017C358.998 285.823 359.933 286.476 361.087 286.476Z" fill="white" stroke="#292D3D" stroke-miterlimit="10" stroke-linecap="round"/>
<path d="M368.761 290.115C369.915 290.115 370.85 289.462 370.85 288.656C370.85 287.85 369.915 287.197 368.761 287.197C367.608 287.197 366.672 287.85 366.672 288.656C366.672 289.462 367.608 290.115 368.761 290.115Z" fill="white" stroke="#292D3D" stroke-miterlimit="10" stroke-linecap="round"/>
<path d="M272.087 382.08C270.027 384.659 267.835 387.121 265.522 389.456C262.892 391.914 257.897 394.668 255.533 395.766C253.169 396.864 258.949 399.863 262.365 399.863C265.781 399.863 270.509 398.765 276.03 398.765C281.55 398.765 286.545 398.765 287.33 394.373C288.115 389.98 283.404 377.098 283.404 377.098L271.318 379.556L272.087 382.08Z" fill="#417BFF" stroke="#292D3D" stroke-miterlimit="10"/>
<path d="M264.194 397.168C259.381 397.709 256.483 396.832 255.054 396.168C254.268 397.455 259.279 399.914 262.357 399.914C265.773 399.914 270.5 398.815 276.021 398.815C281.542 398.815 286.536 398.815 287.322 394.423C287.422 393.737 287.44 393.04 287.377 392.35C286.233 393.369 284.981 394.249 283.646 394.972C279.971 396.898 271.561 396.349 264.194 397.168Z" fill="white" stroke="#292D3D" stroke-miterlimit="10" stroke-linecap="round"/>
<path d="M254.771 322.045L265.812 381.869C268.565 383.62 271.855 384.206 275.008 383.508C280.505 382.409 286.576 378.845 286.576 378.845L275.503 327.782C275.503 327.782 260.786 314.891 254.771 322.045Z" fill="#292D3D" stroke="#292D3D" stroke-miterlimit="10" stroke-linecap="round"/>
<path d="M238.454 392.239C238.454 392.239 236.349 398.27 235.312 399.614C234.276 400.958 223.227 410.858 220.855 412.234C218.483 413.611 221.381 415.25 223.486 415.799C225.59 416.348 234.001 414.98 239.781 412.521C245.56 410.063 254.497 409.243 256.076 406.49C257.654 403.736 252.66 390.305 252.66 390.305C252.66 390.305 239.765 393.878 238.454 392.239Z" fill="#417BFF" stroke="#292D3D" stroke-miterlimit="10"/>
<path d="M227.669 413.621C223.963 414.875 221.756 414.801 220.429 414.293C221.32 415.032 222.358 415.552 223.468 415.817C225.572 416.366 233.983 414.998 239.763 412.539C245.543 410.081 254.479 409.261 256.058 406.508C256.482 405.762 256.427 404.229 256.121 402.41C255.1 403 254 403.566 252.901 404.049C249.226 405.631 236.606 410.605 227.669 413.621Z" fill="white" stroke="#292D3D" stroke-miterlimit="10" stroke-linecap="round"/>
<path d="M261.84 301.728C261.84 301.728 242.396 296.516 238.98 298.164C235.564 299.811 230.341 307.76 230.341 315.168C230.341 322.577 233.757 391.382 233.757 391.382C237.241 393.097 240.971 394.204 244.799 394.66C246.566 394.782 248.339 394.529 250.01 393.916C251.68 393.303 253.215 392.344 254.521 391.095L252.165 320.331L262.939 306.621C262.939 306.621 264.981 304.195 261.84 301.728Z" fill="#292D3D" stroke="#292D3D" stroke-miterlimit="10" stroke-linecap="round"/>
<path d="M250.279 320.921C250.279 320.921 242.426 319.553 237.926 314.365" stroke="white" stroke-miterlimit="10" stroke-linecap="round"/>
<path d="M293.433 403.093C292.926 403.093 292.425 402.989 291.957 402.786C291.489 402.584 291.064 402.288 290.706 401.914C290.348 401.54 290.064 401.097 289.87 400.609C289.676 400.121 289.577 399.597 289.577 399.069V370.493C289.553 369.949 289.636 369.405 289.819 368.895C290.002 368.385 290.283 367.919 290.644 367.525C291.004 367.131 291.438 366.818 291.918 366.604C292.398 366.39 292.914 366.279 293.436 366.279C293.958 366.279 294.475 366.39 294.955 366.604C295.435 366.818 295.869 367.131 296.229 367.525C296.59 367.919 296.871 368.385 297.054 368.895C297.237 369.405 297.32 369.949 297.296 370.493V399.077C297.295 399.606 297.194 400.129 297 400.616C296.805 401.104 296.52 401.547 296.161 401.92C295.803 402.293 295.377 402.588 294.909 402.79C294.44 402.991 293.939 403.094 293.433 403.093Z" fill="#292D3D"/>
<path d="M293.432 378.14C291.489 378.14 289.626 377.334 288.251 375.9C286.877 374.466 286.105 372.521 286.105 370.494V338.287C286.073 337.262 286.239 336.24 286.593 335.282C286.947 334.325 287.482 333.451 288.166 332.714C288.85 331.976 289.669 331.39 290.574 330.99C291.48 330.589 292.453 330.383 293.436 330.383C294.42 330.383 295.393 330.589 296.298 330.99C297.204 331.39 298.023 331.976 298.707 332.714C299.391 333.451 299.926 334.325 300.28 335.282C300.633 336.24 300.799 337.262 300.767 338.287V370.494C300.765 372.522 299.991 374.467 298.616 375.901C297.241 377.334 295.376 378.14 293.432 378.14Z" fill="#292D3D"/>
<path d="M286.873 398.669L252.085 415.469C251.818 415.594 251.592 415.796 251.434 416.052C251.275 416.308 251.191 416.606 251.191 416.911C251.191 417.216 251.275 417.514 251.434 417.77C251.592 418.026 251.818 418.228 252.085 418.353H252.14C254.071 419.173 260.22 416.6 260.22 416.6L284.934 407.888C286.383 407.338 287.953 407.235 289.457 407.591C290.961 407.947 292.335 408.747 293.415 409.896L310.393 431.638C310.393 431.638 313.095 434.096 313.864 431.236C314.634 428.376 301.519 405.831 301.519 405.831C301.519 405.831 301.904 401.808 306.537 400.202C310.001 399.079 324.662 391.826 324.662 391.826C324.662 391.826 326.233 390.187 323.877 389.81C321.521 389.433 295.331 396.252 295.331 396.252L290.313 385.385C290.313 385.385 288.389 384.983 288.742 387.802C289.096 390.622 289.575 396.62 286.873 398.669Z" fill="#292D3D" stroke="#292D3D" stroke-miterlimit="10" stroke-linecap="round"/>
<path d="M260.646 419.172C260.646 419.924 260.432 420.659 260.031 421.284C259.631 421.909 259.062 422.397 258.396 422.685C257.73 422.972 256.998 423.048 256.291 422.901C255.584 422.754 254.935 422.392 254.425 421.86C253.916 421.329 253.569 420.651 253.428 419.913C253.287 419.176 253.359 418.411 253.635 417.716C253.911 417.022 254.378 416.428 254.977 416.01C255.577 415.592 256.281 415.369 257.002 415.369C257.968 415.369 258.895 415.77 259.578 416.483C260.262 417.196 260.646 418.163 260.646 419.172Z" fill="#292D3D" stroke="#292D3D" stroke-miterlimit="10" stroke-linecap="round"/>
<path d="M325.387 394.472C325.387 395.224 325.173 395.96 324.773 396.585C324.372 397.21 323.803 397.698 323.137 397.985C322.472 398.273 321.739 398.349 321.032 398.202C320.325 398.055 319.676 397.693 319.166 397.161C318.657 396.629 318.31 395.952 318.169 395.214C318.029 394.477 318.101 393.712 318.376 393.017C318.652 392.322 319.119 391.729 319.719 391.311C320.318 390.893 321.022 390.67 321.743 390.67C322.222 390.669 322.696 390.766 323.139 390.957C323.581 391.148 323.983 391.428 324.322 391.781C324.66 392.135 324.929 392.554 325.111 393.016C325.294 393.478 325.388 393.973 325.387 394.472Z" fill="#292D3D" stroke="#292D3D" stroke-miterlimit="10" stroke-linecap="round"/>
<path d="M311.833 429.308C311.833 430.06 311.619 430.796 311.218 431.421C310.818 432.046 310.249 432.534 309.583 432.821C308.917 433.109 308.185 433.184 307.478 433.038C306.771 432.891 306.122 432.529 305.612 431.997C305.103 431.465 304.756 430.788 304.615 430.05C304.474 429.313 304.546 428.548 304.822 427.853C305.098 427.158 305.565 426.565 306.164 426.147C306.764 425.729 307.468 425.506 308.189 425.506C308.668 425.505 309.142 425.602 309.584 425.793C310.027 425.984 310.429 426.264 310.768 426.617C311.106 426.97 311.375 427.39 311.557 427.852C311.74 428.314 311.834 428.809 311.833 429.308Z" fill="#292D3D" stroke="#292D3D" stroke-miterlimit="10" stroke-linecap="round"/>
<path d="M254.771 322.046C254.771 322.046 243.149 326.143 247.177 329.856C248.654 331.216 284.872 352.146 288.798 352.4C301.143 353.22 336.631 331.872 338.563 327.037C340.495 322.201 328.919 317.375 320.815 312.548C312.711 307.721 296.125 303.287 292.269 305.303C288.413 307.319 254.771 322.046 254.771 322.046Z" fill="#417BFF" stroke="#292D3D" stroke-miterlimit="10"/>
<path d="M287.823 154.785C287.823 154.785 284.423 160.939 284.423 164.25C284.423 167.561 284.651 168.028 283.292 169.921C281.934 171.814 277.402 172.052 277.402 174.182C277.402 176.313 278.533 178.673 279.892 179.386L281.25 180.091C281.25 180.091 281.023 187.893 281.023 191.679C281.023 195.465 281.023 198.538 283.064 199.251C285.106 199.964 293.941 199.956 293.941 199.956L297.341 212.961C297.341 212.961 305.728 208.946 310.487 206.34C313.209 204.839 316.009 203.499 318.874 202.324C318.874 202.324 314.791 192.154 315.921 190.261C317.052 188.368 325.667 186.475 328.84 177.255C332.012 168.036 330.206 153.842 323.853 148.876C317.5 143.91 304.817 142.255 304.817 142.255C304.817 142.255 299.838 136.338 294.852 134.682C289.865 133.027 278.078 137.051 277.622 146.041C277.167 155.031 287.823 154.785 287.823 154.785Z" fill="white" stroke="#292D3D" stroke-miterlimit="10" stroke-linecap="round"/>
<path d="M297.115 186.475L294.892 186.819C294.775 189.179 294.012 191.454 292.693 193.375" stroke="#292D3D" stroke-miterlimit="10" stroke-linecap="round"/>
<path d="M323.877 148.876C317.532 143.91 304.841 142.255 304.841 142.255C304.841 142.255 299.863 136.338 294.876 134.682C289.889 133.027 278.102 137.051 277.647 146.041C277.191 155.031 287.855 154.785 287.855 154.785C287.855 154.785 286.497 159.522 287.18 162.595C287.863 165.668 291.711 172.527 292.842 173.945C293.973 175.362 293.745 175.584 296.698 174.182C299.651 172.781 301.677 177.018 300.546 181.271C299.415 185.524 297.146 186.475 297.146 186.475C298.923 188.657 301.177 190.36 303.718 191.441C307.802 193.08 315.953 190.261 315.953 190.261C317.092 188.368 325.699 186.475 328.872 177.255C332.044 168.036 330.207 153.842 323.877 148.876Z" fill="#292D3D" stroke="#292D3D" stroke-miterlimit="10" stroke-linecap="round"/>
<path d="M279.974 171.862C279.74 170.612 279.74 169.326 279.974 168.076C280.516 164.798 282.33 162.339 283.971 162.675C284.2 162.722 284.419 162.814 284.615 162.946" stroke="#292D3D" stroke-miterlimit="10" stroke-linecap="round"/>
<path d="M280.315 166.865L296.665 174.183" stroke="#292D3D" stroke-miterlimit="10" stroke-linecap="round"/>
<path d="M320.682 147.224C320.208 147.328 319.764 147.547 319.387 147.864C319.01 148.181 318.71 148.587 318.511 149.048C318.313 149.509 318.222 150.013 318.246 150.518C318.269 151.022 318.407 151.514 318.648 151.953C320.219 155.739 323.635 153.592 324.766 158.812C326.617 167.193 325.574 175.986 321.821 183.643C316.834 193.813 313.661 192.657 315.02 195.231C316.378 197.804 323.179 199.492 327.483 198.066C331.786 196.64 334.55 192.395 334.55 192.395C334.55 192.395 332.736 198.066 333.639 198.304C334.542 198.541 340.896 201.147 347.469 189.289C354.042 177.431 350.61 172.26 350.61 172.26C350.61 172.26 352.424 177.226 352.644 174.391C352.864 171.555 355.785 160.672 342.435 151.682C329.085 142.692 320.682 147.224 320.682 147.224Z" fill="#292D3D" stroke="#292D3D" stroke-miterlimit="10" stroke-linecap="round"/>
<path d="M281.699 235.382C281.699 235.382 276.586 228.711 275.094 226.49C273.602 224.269 271.474 224.032 268.49 222.712C265.506 221.393 263.378 219.156 262.105 219.82C261.819 219.934 261.566 220.127 261.375 220.378C261.183 220.628 261.059 220.927 261.015 221.245C260.971 221.562 261.009 221.886 261.124 222.182C261.24 222.479 261.43 222.739 261.674 222.934C262.742 223.819 264.658 224.712 265.514 225.392C266.109 225.878 266.678 226.397 267.218 226.949L260.825 230.948L257.841 230.727C257.841 230.727 255.485 223.614 254.645 224.728C253.805 225.843 254.221 229.4 255.289 232.727C256.357 236.054 257.205 238.291 259.121 238.291C261.037 238.291 272.118 236.283 272.118 236.283L278.33 246.494L285.79 239.832L281.699 235.382Z" fill="white" stroke="#292D3D" stroke-miterlimit="10" stroke-linecap="round"/>
<path d="M261.056 233.606L258.503 233.385C258.503 233.385 254.663 225.6 253.603 226.935C252.543 228.271 254.663 233.164 254.663 233.164C254.663 233.164 257.019 237.384 258.715 237.384C260.412 237.384 264.04 235.163 264.04 235.163" fill="white"/>
<path d="M261.056 233.606L258.503 233.385C258.503 233.385 254.663 225.6 253.603 226.935C252.543 228.271 254.663 233.164 254.663 233.164C254.663 233.164 257.019 237.384 258.715 237.384C260.412 237.384 264.04 235.163 264.04 235.163" stroke="#292D3D" stroke-miterlimit="10" stroke-linecap="round"/>
<path d="M261.054 235.824H257.206C257.206 235.824 253.373 228.047 252.305 229.383C251.237 230.719 253.373 235.603 253.373 235.603C253.373 235.603 255.729 239.831 257.418 239.831C259.106 239.831 262.742 237.602 262.742 237.602" fill="white"/>
<path d="M261.054 235.824H257.206C257.206 235.824 253.373 228.047 252.305 229.383C251.237 230.719 253.373 235.603 253.373 235.603C253.373 235.603 255.729 239.831 257.418 239.831C259.106 239.831 262.742 237.602 262.742 237.602" stroke="#292D3D" stroke-miterlimit="10" stroke-linecap="round"/>
<path d="M273.619 236.937C273.619 236.937 257.638 242.051 256.57 241.379C255.502 240.707 249.973 235.38 250.609 233.602C251.245 231.824 253.162 233.159 253.806 234.266C254.45 235.372 257.426 238.044 257.426 238.044C257.426 238.044 267.219 232.717 269.135 232.717C271.051 232.717 272.755 234.946 272.755 234.946" fill="white"/>
<path d="M273.619 236.937C273.619 236.937 257.638 242.051 256.57 241.379C255.502 240.707 249.973 235.38 250.609 233.602C251.245 231.824 253.162 233.159 253.806 234.266C254.45 235.372 257.426 238.044 257.426 238.044C257.426 238.044 267.219 232.717 269.135 232.717C271.051 232.717 272.755 234.946 272.755 234.946" stroke="#292D3D" stroke-miterlimit="10" stroke-linecap="round"/>
<path d="M293.119 221.65C289.132 225.352 285.439 229.386 282.078 233.713C277.083 240.269 275.795 244.137 275.795 246.874C275.795 249.611 275.528 292.127 275.528 292.127C275.528 292.127 274.476 297.339 275.002 298.437L275.528 299.535C275.528 299.535 265.021 300.633 259.5 299.535C253.98 298.437 250.823 300.355 250.038 307.492C249.556 312.502 249.38 317.538 249.511 322.571C249.511 322.571 268.437 333.266 275.269 336.281C282.101 339.297 293.143 344.476 301.286 341.198C309.43 337.92 322.05 333.52 326.777 327.21C331.505 320.899 332.039 316.515 332.039 309.934C332.039 303.354 331.253 299.24 332.039 294.848C332.824 290.455 338.078 263.854 339.892 250.693C341.706 237.532 343.567 227.657 338.839 219.978C334.112 212.299 329.911 208.48 327.021 207.661C324.131 206.841 305.205 215.34 300.477 217.257C297.808 218.285 295.321 219.77 293.119 221.65Z" fill="white" stroke="#292D3D" stroke-miterlimit="10" stroke-linecap="round"/>
<path d="M276.155 309.471C276.155 309.471 276.155 315.019 282.995 321.362" stroke="#292D3D" stroke-miterlimit="10" stroke-linecap="round"/>
<path d="M275.505 315.438C275.505 315.438 276.918 323.215 282.997 328.238" stroke="#292D3D" stroke-miterlimit="10" stroke-linecap="round"/>
<path d="M326.311 240.582C323.822 247.245 318.961 256.972 310.26 263.618" stroke="#292D3D" stroke-miterlimit="10" stroke-linecap="round"/>
<path d="M328.589 233.145C328.589 233.145 328.346 234.357 327.757 236.357" stroke="#292D3D" stroke-miterlimit="10" stroke-linecap="round"/>
<path d="M325.034 250.748C325.034 250.748 321.516 257.722 312.721 263.967" stroke="#292D3D" stroke-miterlimit="10" stroke-linecap="round"/>
<path d="M321.759 200.801C321.759 200.801 300.21 208.996 294.164 214.241C288.117 219.485 286.02 227.68 286.02 227.68C286.02 227.68 297.061 219.174 308.095 215.888C315.162 213.712 322.022 210.864 328.591 207.381L321.759 200.801Z" fill="white" stroke="#292D3D" stroke-miterlimit="10" stroke-linecap="round"/>
<path d="M255.005 294.321C255.005 294.321 249.508 291.043 248.173 290.224C246.838 289.404 244.49 288.855 243.964 289.953C243.66 290.546 243.481 291.2 243.438 291.871C243.438 291.871 239.237 292.141 238.726 293.51C238.216 294.878 237.941 295.698 237.941 295.698C237.941 295.698 235.585 296.247 235.585 298.156C235.585 300.066 234.274 302.541 235.326 303.073C235.546 303.218 235.793 303.312 236.05 303.349C236.308 303.386 236.57 303.365 236.82 303.288C237.069 303.21 237.299 303.077 237.495 302.899C237.692 302.721 237.849 302.501 237.957 302.254C238.273 301.592 238.625 300.949 239.009 300.328L241.365 301.426C241.365 301.426 243.721 303.885 245.833 304.442C247.563 304.804 249.323 304.988 251.087 304.991L256.584 295.976L255.005 294.321Z" fill="white" stroke="#292D3D" stroke-miterlimit="10" stroke-linecap="round"/>
<path d="M282.335 235.355C282.335 235.355 276.838 238.101 274.482 242.485C272.126 246.869 262.137 295.417 262.137 295.417L255.069 294.318C255.069 294.318 252.179 292.122 249.289 297.596C246.399 303.071 248.504 306.922 248.504 306.922C248.504 306.922 265.066 313.773 267.43 314.601C269.794 315.429 273.21 318.436 275.573 315.421C277.937 312.405 292.135 260.293 292.135 260.293" fill="white"/>
<path d="M282.335 235.355C282.335 235.355 276.838 238.101 274.482 242.485C272.126 246.869 262.137 295.417 262.137 295.417L255.069 294.318C255.069 294.318 252.179 292.122 249.289 297.596C246.399 303.071 248.504 306.922 248.504 306.922C248.504 306.922 265.066 313.773 267.43 314.601C269.794 315.429 273.21 318.436 275.573 315.421C277.937 312.405 292.135 260.293 292.135 260.293" stroke="#292D3D" stroke-miterlimit="10" stroke-linecap="round"/>
<path d="M299.147 279.553L297.506 308.998C297.462 309.795 297.617 310.589 297.956 311.305C298.295 312.02 298.806 312.631 299.44 313.078C300.073 313.525 300.807 313.793 301.569 313.855C302.331 313.916 303.096 313.771 303.788 313.431L349.618 290.944C350.312 290.605 350.908 290.082 351.349 289.428C351.79 288.774 352.059 288.012 352.131 287.216L354.927 256.575C354.999 255.777 354.87 254.973 354.553 254.243C354.235 253.513 353.741 252.882 353.118 252.413C352.495 251.944 351.765 251.654 351.001 251.57C350.237 251.486 349.465 251.613 348.762 251.936L303.71 272.702C302.418 273.294 301.308 274.247 300.502 275.456C299.697 276.665 299.228 278.083 299.147 279.553Z" fill="#417BFF" stroke="#292D3D" stroke-miterlimit="10"/>
<path d="M354.928 256.338C354.386 256.362 353.853 256.493 353.358 256.723L308.305 277.489C307.015 278.081 305.907 279.033 305.103 280.24C304.299 281.448 303.831 282.864 303.75 284.332L302.109 313.785V313.867C302.694 313.839 303.267 313.692 303.797 313.432L349.627 290.945C350.321 290.605 350.917 290.083 351.358 289.429C351.799 288.775 352.068 288.012 352.14 287.217L354.936 256.576C354.928 256.485 354.928 256.412 354.928 256.338Z" fill="#417BFF" stroke="#292D3D" stroke-miterlimit="10"/>
<path d="M329.499 284.232H329.421C328.206 284.232 327.04 284.731 326.175 285.62C325.309 286.509 324.814 287.718 324.795 288.986L323.955 341.024C323.953 341.438 323.847 341.845 323.647 342.203C323.447 342.561 323.161 342.858 322.816 343.064C322.475 343.279 322.087 343.397 321.689 343.407C321.291 343.417 320.897 343.318 320.547 343.122L317.893 341.647C314.704 343.4 311.398 345.088 308.155 346.564C308.562 347.178 309.099 347.686 309.725 348.047L316.165 351.62C317.914 352.591 319.873 353.077 321.855 353.032C323.836 352.986 325.772 352.411 327.479 351.361C329.187 350.311 330.607 348.821 331.604 347.034C332.601 345.247 333.142 343.222 333.174 341.155L334.015 289.117C334.03 287.846 333.564 286.621 332.718 285.707C331.873 284.792 330.716 284.263 329.499 284.232Z" fill="#292D3D"/>
<defs>
<filter id="filter0_dddddddd_9374_162816" x="-129.048" y="0.265625" width="1111.05" height="1248" filterUnits="userSpaceOnUse" color-interpolation-filters="sRGB">
<feFlood flood-opacity="0" result="BackgroundImageFix"/>
<feColorMatrix in="SourceAlpha" type="matrix" values="0 0 0 0 0 0 0 0 0 0 0 0 0 0 0 0 0 0 127 0" result="hardAlpha"/>
<feOffset dy="9.96621"/>
<feGaussianBlur stdDeviation="2.91013"/>
<feColorMatrix type="matrix" values="0 0 0 0 0.0705882 0 0 0 0 0.0980392 0 0 0 0 0.133333 0 0 0 0.01 0"/>
<feBlend mode="normal" in2="BackgroundImageFix" result="effect1_dropShadow_9374_162816"/>
<feColorMatrix in="SourceAlpha" type="matrix" values="0 0 0 0 0 0 0 0 0 0 0 0 0 0 0 0 0 0 127 0" result="hardAlpha"/>
<feOffset dy="22.644"/>
<feGaussianBlur stdDeviation="6.61205"/>
<feColorMatrix type="matrix" values="0 0 0 0 0.0705882 0 0 0 0 0.0980392 0 0 0 0 0.133333 0 0 0 0.0104523 0"/>
<feBlend mode="normal" in2="effect1_dropShadow_9374_162816" result="effect2_dropShadow_9374_162816"/>
<feColorMatrix in="SourceAlpha" type="matrix" values="0 0 0 0 0 0 0 0 0 0 0 0 0 0 0 0 0 0 127 0" result="hardAlpha"/>
<feOffset dy="39.4109"/>
<feGaussianBlur stdDeviation="11.508"/>
<feColorMatrix type="matrix" values="0 0 0 0 0.0705882 0 0 0 0 0.0980392 0 0 0 0 0.133333 0 0 0 0.0128732 0"/>
<feBlend mode="normal" in2="effect2_dropShadow_9374_162816" result="effect3_dropShadow_9374_162816"/>
<feColorMatrix in="SourceAlpha" type="matrix" values="0 0 0 0 0 0 0 0 0 0 0 0 0 0 0 0 0 0 127 0" result="hardAlpha"/>
<feOffset dy="62.6078"/>
<feGaussianBlur stdDeviation="18.2815"/>
<feColorMatrix type="matrix" values="0 0 0 0 0.0705882 0 0 0 0 0.0980392 0 0 0 0 0.133333 0 0 0 0.015 0"/>
<feBlend mode="normal" in2="effect3_dropShadow_9374_162816" result="effect4_dropShadow_9374_162816"/>
<feColorMatrix in="SourceAlpha" type="matrix" values="0 0 0 0 0 0 0 0 0 0 0 0 0 0 0 0 0 0 127 0" result="hardAlpha"/>
<feOffset dy="96.5991"/>
<feGaussianBlur stdDeviation="28.2069"/>
<feColorMatrix type="matrix" values="0 0 0 0 0.0705882 0 0 0 0 0.0980392 0 0 0 0 0.133333 0 0 0 0.0171268 0"/>
<feBlend mode="normal" in2="effect4_dropShadow_9374_162816" result="effect5_dropShadow_9374_162816"/>
<feColorMatrix in="SourceAlpha" type="matrix" values="0 0 0 0 0 0 0 0 0 0 0 0 0 0 0 0 0 0 127 0" result="hardAlpha"/>
<feOffset dy="150.735"/>
<feGaussianBlur stdDeviation="44.0147"/>
<feColorMatrix type="matrix" values="0 0 0 0 0.0705882 0 0 0 0 0.0980392 0 0 0 0 0.133333 0 0 0 0.0195477 0"/>
<feBlend mode="normal" in2="effect5_dropShadow_9374_162816" result="effect6_dropShadow_9374_162816"/>
<feColorMatrix in="SourceAlpha" type="matrix" values="0 0 0 0 0 0 0 0 0 0 0 0 0 0 0 0 0 0 127 0" result="hardAlpha"/>
<feOffset dy="250.244"/>
<feGaussianBlur stdDeviation="73.0713"/>
<feColorMatrix type="matrix" values="0 0 0 0 0.0705882 0 0 0 0 0.0980392 0 0 0 0 0.133333 0 0 0 0.02281 0"/>
<feBlend mode="normal" in2="effect6_dropShadow_9374_162816" result="effect7_dropShadow_9374_162816"/>
<feColorMatrix in="SourceAlpha" type="matrix" values="0 0 0 0 0 0 0 0 0 0 0 0 0 0 0 0 0 0 127 0" result="hardAlpha"/>
<feOffset dy="500"/>
<feGaussianBlur stdDeviation="146"/>
<feColorMatrix type="matrix" values="0 0 0 0 0.0705882 0 0 0 0 0.0980392 0 0 0 0 0.133333 0 0 0 0.03 0"/>
<feBlend mode="normal" in2="effect7_dropShadow_9374_162816" result="effect8_dropShadow_9374_162816"/>
<feBlend mode="normal" in="SourceGraphic" in2="effect8_dropShadow_9374_162816" result="shape"/>
</filter>
</defs>
</svg>
