<svg width="950" height="576" viewBox="0 0 950 576" fill="none" xmlns="http://www.w3.org/2000/svg">
<g filter="url(#filter0_dddddddd_9374_166347)">
<rect x="303.313" y="4.26562" width="348.322" height="448" rx="36" fill="#E4E8EF" stroke="white" stroke-width="8"/>
<path d="M296 74.623C296 73.5185 296.895 72.623 298 72.623H299.312V89.7526H298C296.895 89.7526 296 88.8572 296 87.7526V74.623Z" fill="white"/>
<path d="M296.946 107.406C296.946 106.302 297.842 105.406 298.946 105.406H299.312V139.665H298.946C297.842 139.665 296.946 138.77 296.946 137.665V107.406Z" fill="white"/>
<path d="M296.946 150.82C296.946 149.716 297.842 148.82 298.946 148.82H299.312V183.079H298.946C297.842 183.079 296.946 182.184 296.946 181.079V150.82Z" fill="white"/>
<path d="M658 169.266C658 170.37 657.105 171.266 656 171.266L655.634 171.266L655.634 116.924L656 116.924C657.105 116.924 658 117.819 658 118.924L658 169.266Z" fill="white"/>
<rect x="457.362" y="15.0332" width="40.2222" height="4.13472" rx="2.06736" fill="#E4E8EF"/>
<ellipse cx="513.2" cy="17.1006" rx="3.31243" ry="2.06736" fill="#E4E8EF"/>
</g>
<path d="M149.817 198.562H51.7559V131.482H149.817V198.562ZM52.5302 197.788H149.042V132.257H52.5302V197.788Z" fill="#EBEBEB"/>
<path d="M59.4221 135.801C59.4221 136.187 59.3077 136.564 59.0933 136.885C58.8789 137.206 58.5741 137.456 58.2176 137.604C57.861 137.751 57.4687 137.79 57.0902 137.715C56.7116 137.639 56.3639 137.454 56.0911 137.181C55.8182 136.908 55.6323 136.56 55.557 136.182C55.4817 135.803 55.5204 135.411 55.6681 135.054C55.8158 134.698 56.0659 134.393 56.3867 134.178C56.7076 133.964 57.0849 133.85 57.4708 133.85C57.9884 133.85 58.4847 134.055 58.8506 134.421C59.2166 134.787 59.4221 135.283 59.4221 135.801Z" fill="#A6A6A6"/>
<path d="M67.3899 135.801C67.3899 136.187 67.2755 136.564 67.0611 136.885C66.8466 137.206 66.5419 137.456 66.1853 137.604C65.8288 137.751 65.4364 137.79 65.0579 137.715C64.6794 137.639 64.3317 137.454 64.0588 137.181C63.7859 136.908 63.6001 136.56 63.5248 136.182C63.4495 135.803 63.4881 135.411 63.6358 135.054C63.7835 134.698 64.0336 134.393 64.3545 134.178C64.6754 133.964 65.0527 133.85 65.4386 133.85C65.9561 133.85 66.4524 134.055 66.8184 134.421C67.1843 134.787 67.3899 135.283 67.3899 135.801Z" fill="#EBEBEB"/>
<path d="M75.3668 135.801C75.3683 136.189 75.2546 136.569 75.0399 136.892C74.8252 137.216 74.5193 137.468 74.161 137.617C73.8028 137.766 73.4082 137.806 73.0275 137.73C72.6467 137.655 72.297 137.468 72.0225 137.194C71.7481 136.919 71.5613 136.57 71.486 136.189C71.4107 135.808 71.4501 135.414 71.5993 135.055C71.7486 134.697 72.0009 134.391 72.3242 134.177C72.6476 133.962 73.0274 133.848 73.4155 133.85C73.933 133.85 74.4293 134.055 74.7953 134.421C75.1612 134.787 75.3668 135.283 75.3668 135.801Z" fill="#080056"/>
<path d="M149.431 139.23H52.144V140.005H149.431V139.23Z" fill="#EBEBEB"/>
<path d="M470.629 355.237H469.854V257.803L490.552 229.555V176.77H491.327V229.811L470.629 258.058V355.237Z" fill="#EBEBEB"/>
<path d="M490.939 177.189C490.498 177.189 490.067 177.058 489.7 176.813C489.333 176.568 489.048 176.219 488.879 175.812C488.71 175.404 488.666 174.956 488.752 174.524C488.838 174.091 489.05 173.694 489.362 173.382C489.674 173.07 490.071 172.857 490.504 172.771C490.937 172.685 491.385 172.729 491.792 172.898C492.2 173.067 492.548 173.353 492.793 173.72C493.038 174.086 493.169 174.518 493.169 174.959C493.169 175.55 492.934 176.117 492.516 176.535C492.098 176.954 491.53 177.189 490.939 177.189ZM490.939 173.511C490.651 173.511 490.369 173.596 490.13 173.756C489.89 173.917 489.703 174.145 489.593 174.411C489.483 174.677 489.455 174.971 489.512 175.253C489.569 175.536 489.708 175.795 489.912 175.998C490.117 176.202 490.377 176.34 490.66 176.395C490.943 176.45 491.236 176.42 491.502 176.309C491.767 176.198 491.994 176.01 492.153 175.769C492.312 175.529 492.396 175.247 492.395 174.959C492.385 174.58 492.227 174.22 491.954 173.957C491.682 173.693 491.318 173.547 490.939 173.549V173.511Z" fill="#EBEBEB"/>
<path d="M475.965 355.24H475.19V261.221L495.888 232.973V196.123H496.663V233.221L475.965 261.476V355.24Z" fill="#EBEBEB"/>
<path d="M496.276 196.55C495.835 196.551 495.403 196.422 495.035 196.178C494.667 195.934 494.38 195.586 494.21 195.179C494.04 194.771 493.995 194.323 494.08 193.89C494.165 193.456 494.377 193.058 494.689 192.746C495 192.433 495.397 192.22 495.83 192.133C496.263 192.047 496.712 192.09 497.12 192.259C497.528 192.427 497.876 192.713 498.122 193.08C498.367 193.447 498.498 193.879 498.498 194.32C498.498 194.91 498.264 195.476 497.848 195.894C497.431 196.312 496.866 196.548 496.276 196.55ZM496.276 192.864C495.988 192.863 495.705 192.947 495.465 193.106C495.225 193.265 495.037 193.492 494.925 193.757C494.814 194.023 494.784 194.316 494.839 194.599C494.895 194.882 495.033 195.142 495.236 195.346C495.439 195.551 495.699 195.69 495.981 195.747C496.264 195.804 496.557 195.775 496.823 195.666C497.09 195.556 497.318 195.369 497.478 195.129C497.638 194.89 497.724 194.608 497.724 194.32C497.724 193.935 497.572 193.566 497.3 193.293C497.029 193.02 496.661 192.866 496.276 192.864Z" fill="#EBEBEB"/>
<path d="M465.495 226.387H464.721V355.243H465.495V226.387Z" fill="#EBEBEB"/>
<path d="M465.109 226.771C464.668 226.772 464.236 226.643 463.868 226.399C463.5 226.154 463.213 225.807 463.043 225.399C462.873 224.992 462.828 224.543 462.913 224.11C462.998 223.677 463.21 223.279 463.522 222.966C463.833 222.654 464.23 222.441 464.663 222.354C465.096 222.267 465.545 222.311 465.953 222.48C466.361 222.648 466.709 222.934 466.955 223.301C467.2 223.668 467.331 224.099 467.331 224.541C467.331 225.131 467.097 225.697 466.681 226.115C466.264 226.533 465.699 226.769 465.109 226.771ZM465.109 223.093C464.82 223.091 464.538 223.175 464.297 223.335C464.057 223.494 463.869 223.721 463.758 223.988C463.647 224.254 463.617 224.547 463.673 224.83C463.729 225.114 463.868 225.374 464.072 225.578C464.276 225.782 464.536 225.921 464.819 225.976C465.102 226.032 465.395 226.003 465.662 225.892C465.928 225.781 466.155 225.593 466.315 225.352C466.474 225.112 466.558 224.829 466.557 224.541C466.551 224.16 466.396 223.797 466.125 223.529C465.854 223.261 465.49 223.11 465.109 223.108V223.093Z" fill="#EBEBEB"/>
<path d="M460.548 355.243H459.774V289.851L445.728 263.346V215.732H446.502V263.152L460.548 289.657V355.243Z" fill="#EBEBEB"/>
<path d="M446.106 216.138C445.665 216.138 445.234 216.007 444.867 215.762C444.5 215.517 444.215 215.169 444.046 214.761C443.877 214.354 443.833 213.905 443.919 213.473C444.005 213.04 444.217 212.643 444.529 212.331C444.841 212.019 445.238 211.807 445.671 211.721C446.104 211.635 446.552 211.679 446.959 211.847C447.367 212.016 447.715 212.302 447.96 212.669C448.205 213.036 448.336 213.467 448.336 213.908C448.336 214.499 448.101 215.066 447.683 215.485C447.265 215.903 446.698 216.138 446.106 216.138ZM446.106 212.46C445.818 212.46 445.536 212.545 445.296 212.706C445.057 212.866 444.87 213.094 444.76 213.36C444.65 213.627 444.622 213.92 444.679 214.202C444.736 214.485 444.875 214.744 445.079 214.948C445.284 215.151 445.544 215.289 445.827 215.344C446.11 215.4 446.403 215.37 446.669 215.258C446.934 215.147 447.161 214.959 447.32 214.719C447.479 214.478 447.563 214.196 447.562 213.908C447.565 213.715 447.529 213.524 447.458 213.345C447.386 213.166 447.279 213.003 447.143 212.866C447.008 212.729 446.846 212.62 446.668 212.547C446.49 212.473 446.299 212.436 446.106 212.437V212.46Z" fill="#EBEBEB"/>
<path d="M455.63 355.242H454.856V292.684L438.293 263.383V231.984H439.067V263.182L455.63 292.483V355.242Z" fill="#EBEBEB"/>
<path d="M438.682 232.398C438.24 232.399 437.808 232.269 437.44 232.025C437.072 231.781 436.785 231.432 436.615 231.025C436.445 230.617 436.401 230.168 436.486 229.734C436.572 229.301 436.785 228.903 437.097 228.591C437.409 228.278 437.807 228.066 438.241 227.98C438.674 227.894 439.123 227.939 439.531 228.109C439.939 228.278 440.287 228.566 440.531 228.933C440.776 229.301 440.905 229.734 440.904 230.175C440.902 230.764 440.667 231.328 440.251 231.744C439.834 232.161 439.27 232.396 438.682 232.398ZM438.682 228.72C438.393 228.718 438.111 228.802 437.871 228.961C437.63 229.12 437.443 229.347 437.331 229.613C437.22 229.879 437.19 230.172 437.245 230.455C437.3 230.737 437.439 230.998 437.642 231.202C437.845 231.406 438.104 231.546 438.387 231.602C438.67 231.659 438.963 231.631 439.229 231.521C439.496 231.411 439.723 231.224 439.884 230.985C440.044 230.745 440.13 230.464 440.13 230.175C440.134 229.982 440.099 229.79 440.029 229.61C439.958 229.431 439.852 229.267 439.717 229.129C439.582 228.99 439.421 228.88 439.244 228.805C439.066 228.729 438.875 228.69 438.682 228.689V228.72Z" fill="#EBEBEB"/>
<path d="M35.1401 355.24H34.3657V304.522L13.668 276.274V246.463H14.4423V276.019L35.1401 304.266V355.24Z" fill="#EBEBEB"/>
<path d="M14.0542 246.882C13.6128 246.884 13.1809 246.754 12.8132 246.51C12.4454 246.266 12.1584 245.918 11.9884 245.511C11.8184 245.103 11.7731 244.655 11.8583 244.222C11.9435 243.789 12.1553 243.39 12.4668 243.078C12.7784 242.765 13.1757 242.552 13.6085 242.465C14.0413 242.379 14.4901 242.422 14.8981 242.591C15.306 242.759 15.6548 243.045 15.9002 243.412C16.1455 243.779 16.2765 244.211 16.2765 244.652C16.2765 245.242 16.0426 245.808 15.6261 246.226C15.2096 246.644 14.6443 246.88 14.0542 246.882ZM14.0542 243.204C13.7656 243.202 13.4831 243.287 13.2426 243.446C13.002 243.605 12.8142 243.833 12.703 244.099C12.5919 244.365 12.5624 244.659 12.6183 244.942C12.6743 245.225 12.8131 245.485 13.0171 245.689C13.2212 245.893 13.4813 246.032 13.7644 246.088C14.0475 246.144 14.3408 246.114 14.6071 246.003C14.8735 245.892 15.1007 245.704 15.2601 245.464C15.4195 245.223 15.5037 244.941 15.5022 244.652C15.4902 244.275 15.3326 243.918 15.0625 243.655C14.7925 243.392 14.431 243.244 14.0542 243.243V243.204Z" fill="#EBEBEB"/>
<path d="M29.8046 355.238H29.0303V307.934L8.33252 279.679V265.811H9.10685V279.431L29.8046 307.678V355.238Z" fill="#EBEBEB"/>
<path d="M8.73446 266.239C8.29339 266.239 7.86224 266.109 7.4955 265.864C7.12877 265.619 6.84294 265.27 6.67415 264.863C6.50536 264.455 6.4612 264.007 6.54725 263.574C6.63329 263.142 6.84569 262.744 7.15757 262.432C7.46945 262.121 7.86681 261.908 8.2994 261.822C8.73199 261.736 9.18038 261.78 9.58787 261.949C9.99536 262.118 10.3436 262.404 10.5887 262.77C10.8337 263.137 10.9645 263.568 10.9645 264.009C10.9645 264.601 10.7296 265.168 10.3114 265.586C9.89313 266.004 9.32591 266.239 8.73446 266.239ZM8.73446 262.554C8.44654 262.554 8.16509 262.639 7.9257 262.799C7.6863 262.959 7.49972 263.186 7.38954 263.452C7.27935 263.718 7.25053 264.011 7.3067 264.293C7.36286 264.576 7.50151 264.835 7.7051 265.039C7.90869 265.242 8.16807 265.381 8.45046 265.437C8.73284 265.493 9.02554 265.464 9.29154 265.354C9.55755 265.244 9.7849 265.058 9.94486 264.818C10.1048 264.579 10.1902 264.297 10.1902 264.009C10.1902 263.623 10.0368 263.253 9.76382 262.98C9.49082 262.707 9.12054 262.554 8.73446 262.554Z" fill="#EBEBEB"/>
<path d="M40.2738 272.846H39.4995V355.242H40.2738V272.846Z" fill="#EBEBEB"/>
<path d="M39.8863 273.23C39.4452 273.23 39.0141 273.099 38.6474 272.854C38.2806 272.609 37.9948 272.26 37.826 271.853C37.6572 271.446 37.6131 270.997 37.6991 270.565C37.7851 270.132 37.9975 269.735 38.3094 269.423C38.6213 269.111 39.0187 268.898 39.4512 268.812C39.8838 268.726 40.3322 268.77 40.7397 268.939C41.1472 269.108 41.4955 269.394 41.7405 269.761C41.9856 270.127 42.1164 270.559 42.1164 271C42.1164 271.591 41.8814 272.158 41.4632 272.576C41.045 272.995 40.4778 273.23 39.8863 273.23ZM39.8863 269.552C39.5981 269.552 39.3163 269.637 39.0767 269.797C38.8372 269.958 38.6506 270.186 38.5407 270.452C38.4307 270.719 38.4023 271.012 38.4591 271.294C38.5159 271.577 38.6554 271.836 38.8597 272.039C39.0641 272.243 39.3242 272.381 39.6071 272.436C39.89 272.491 40.1829 272.461 40.4488 272.35C40.7146 272.239 40.9415 272.051 41.1005 271.81C41.2595 271.57 41.3436 271.288 41.342 271C41.338 270.617 41.1825 270.251 40.9098 269.983C40.637 269.715 40.269 269.565 39.8863 269.567V269.552Z" fill="#EBEBEB"/>
<path d="M45.2211 355.238H44.4468V312.882L44.4855 312.797L58.4931 286.377V238.957H59.2674V286.57L59.2287 286.656L45.2211 313.076V355.238Z" fill="#EBEBEB"/>
<path d="M58.8814 239.372C58.4404 239.372 58.0092 239.241 57.6425 238.996C57.2757 238.751 56.9899 238.403 56.8211 237.996C56.6523 237.588 56.6082 237.14 56.6942 236.707C56.7803 236.275 56.9927 235.877 57.3045 235.565C57.6164 235.253 58.0138 235.041 58.4464 234.955C58.879 234.869 59.3273 234.913 59.7348 235.082C60.1423 235.251 60.4906 235.536 60.7357 235.903C60.9807 236.27 61.1115 236.701 61.1115 237.142C61.1115 237.734 60.8765 238.301 60.4583 238.719C60.0401 239.137 59.4729 239.372 58.8814 239.372ZM58.8814 235.694C58.5932 235.694 58.3114 235.78 58.0719 235.94C57.8323 236.1 57.6457 236.328 57.5358 236.595C57.4258 236.861 57.3975 237.154 57.4543 237.437C57.5111 237.719 57.6505 237.979 57.8548 238.182C58.0592 238.385 58.3193 238.523 58.6022 238.579C58.8851 238.634 59.178 238.604 59.4439 238.493C59.7098 238.381 59.9366 238.193 60.0956 237.953C60.2546 237.713 60.3387 237.43 60.3372 237.142C60.3403 236.949 60.3048 236.758 60.233 236.579C60.1611 236.4 60.0542 236.238 59.9186 236.1C59.7831 235.963 59.6215 235.855 59.4434 235.781C59.2653 235.707 59.0742 235.67 58.8814 235.671V235.694Z" fill="#EBEBEB"/>
<path d="M50.1386 355.241H49.3643V315.711L49.4107 315.618L65.9271 286.411V255.213H66.7015V286.612L66.6472 286.697L50.1386 315.912V355.241Z" fill="#EBEBEB"/>
<path d="M66.3149 255.632C65.8732 255.634 65.441 255.504 65.0731 255.259C64.7052 255.015 64.4181 254.667 64.2484 254.259C64.0786 253.851 64.0338 253.402 64.1196 252.969C64.2054 252.535 64.418 252.137 64.7303 251.825C65.0427 251.513 65.4407 251.3 65.874 251.214C66.3074 251.129 66.7564 251.173 67.1642 251.343C67.572 251.513 67.9202 251.8 68.1646 252.168C68.4091 252.536 68.5388 252.968 68.5373 253.41C68.5352 253.998 68.3004 254.563 67.8841 254.979C67.4678 255.395 66.9037 255.63 66.3149 255.632ZM66.3149 251.954C66.0267 251.952 65.7445 252.036 65.5041 252.195C65.2637 252.355 65.0759 252.581 64.9645 252.847C64.8531 253.113 64.8232 253.406 64.8785 253.689C64.9338 253.972 65.0718 254.232 65.2751 254.436C65.4784 254.641 65.7377 254.78 66.0203 254.837C66.3029 254.894 66.596 254.865 66.8625 254.755C67.1289 254.645 67.3568 254.459 67.5171 254.219C67.6774 253.98 67.7629 253.698 67.7629 253.41C67.767 253.217 67.7327 253.025 67.6619 252.845C67.591 252.665 67.4851 252.501 67.3504 252.363C67.2156 252.225 67.0547 252.114 66.8769 252.039C66.6991 251.963 66.5081 251.924 66.3149 251.923V251.954Z" fill="#EBEBEB"/>
<path d="M491.916 182.647L497.336 173.936L494.672 172.287C494.284 172.046 493.972 171.699 493.772 171.288C493.572 170.877 493.492 170.418 493.542 169.964C493.583 169.448 493.598 168.931 493.588 168.415C493.574 167.966 493.686 167.521 493.91 167.131C494.134 166.742 494.462 166.422 494.858 166.208L497.622 164.722L492.69 155.739L489.926 157.226C489.527 157.436 489.077 157.531 488.628 157.501C488.178 157.471 487.745 157.317 487.378 157.056C486.96 156.769 486.526 156.498 486.077 156.281C485.679 156.07 485.347 155.751 485.12 155.361C484.893 154.971 484.779 154.526 484.792 154.075L484.892 150.931L474.648 150.613L474.547 153.765C474.53 154.216 474.388 154.653 474.136 155.028C473.885 155.403 473.534 155.7 473.123 155.886C472.89 155.995 472.666 156.103 472.449 156.227C472.232 156.351 472.008 156.467 471.791 156.599C471.408 156.834 470.967 156.959 470.517 156.959C470.067 156.959 469.626 156.834 469.243 156.599L466.556 154.934L461.136 163.645L463.807 165.31C464.196 165.551 464.509 165.896 464.709 166.308C464.909 166.719 464.989 167.178 464.938 167.633C464.895 168.148 464.879 168.665 464.892 169.182C464.903 169.633 464.79 170.078 464.565 170.469C464.339 170.86 464.01 171.181 463.614 171.396L460.896 172.775L465.743 181.811L468.508 180.332C468.906 180.121 469.355 180.025 469.804 180.053C470.254 180.082 470.687 180.235 471.055 180.495C471.475 180.776 471.909 181.034 472.356 181.269C472.754 181.481 473.086 181.799 473.313 182.189C473.54 182.579 473.654 183.025 473.641 183.476L473.549 186.62L483.793 186.937L483.894 183.793C483.91 183.343 484.053 182.907 484.304 182.533C484.556 182.16 484.907 181.864 485.318 181.679L485.992 181.339L486.65 180.959C487.035 180.724 487.477 180.599 487.928 180.599C488.379 180.599 488.821 180.724 489.205 180.959L491.916 182.647ZM483.243 176.182C481.778 176.966 480.114 177.299 478.46 177.137C476.807 176.976 475.238 176.328 473.953 175.275C472.667 174.222 471.723 172.812 471.239 171.222C470.755 169.633 470.753 167.935 471.234 166.345C471.715 164.754 472.656 163.342 473.94 162.287C475.223 161.231 476.79 160.58 478.444 160.416C480.097 160.251 481.762 160.58 483.228 161.362C484.695 162.143 485.896 163.342 486.681 164.807C487.201 165.782 487.523 166.849 487.63 167.949C487.736 169.049 487.625 170.159 487.302 171.215C486.979 172.272 486.451 173.254 485.748 174.107C485.045 174.959 484.18 175.664 483.204 176.182H483.243Z" fill="#EBEBEB"/>
<path d="M20.4896 260.092L26.6842 256.499L25.5847 254.595C25.4271 254.32 25.3495 254.007 25.3604 253.691C25.3714 253.375 25.4705 253.069 25.6466 252.806C25.8428 252.506 26.0209 252.197 26.1809 251.877C26.3245 251.59 26.5459 251.349 26.8197 251.182C27.0936 251.015 27.4088 250.928 27.7295 250.932H29.9286V243.746H27.7295C27.4088 243.75 27.0936 243.663 26.8197 243.496C26.5459 243.329 26.3245 243.088 26.1809 242.802C26.0209 242.481 25.8428 242.172 25.6466 241.872C25.4705 241.61 25.3714 241.303 25.3604 240.987C25.3495 240.671 25.4271 240.358 25.5847 240.084L26.6842 238.179L20.4896 234.586L19.39 236.499C19.2345 236.767 19.0073 236.988 18.734 237.136C18.4606 237.283 18.1516 237.352 17.8414 237.335H16.7496C16.4404 237.351 16.1326 237.283 15.8596 237.137C15.5866 236.991 15.3588 236.773 15.2009 236.506L14.0936 234.586L7.89901 238.179L8.99855 240.091C9.15606 240.366 9.23372 240.679 9.22277 240.995C9.21183 241.311 9.1127 241.617 8.93661 241.88C8.74201 242.177 8.56365 242.485 8.40232 242.802C8.25866 243.088 8.03729 243.329 7.76347 243.496C7.48965 243.663 7.17439 243.75 6.85367 243.746H4.63135V250.932H6.83044C7.15117 250.928 7.46642 251.015 7.74024 251.182C8.01406 251.349 8.23543 251.59 8.37909 251.877C8.54042 252.193 8.71878 252.501 8.91338 252.798C9.08931 253.062 9.18827 253.37 9.19921 253.688C9.21015 254.005 9.13264 254.319 8.97533 254.595L7.87578 256.499L14.0704 260.092L15.1777 258.18C15.3352 257.913 15.5627 257.693 15.8357 257.546C16.1086 257.399 16.4165 257.329 16.7263 257.343C16.8967 257.343 17.0748 257.343 17.2529 257.343C17.431 257.343 17.6091 257.343 17.7872 257.343C18.0968 257.329 18.4045 257.4 18.6772 257.547C18.95 257.694 19.1776 257.913 19.3358 258.18L20.4896 260.092ZM17.2529 253.224C16.0893 253.222 14.9523 252.876 13.9855 252.228C13.0188 251.581 12.2657 250.661 11.8215 249.586C11.3773 248.51 11.2618 247.327 11.4898 246.186C11.7177 245.045 12.2788 243.997 13.1021 243.175C13.9254 242.353 14.974 241.793 16.1154 241.567C17.2567 241.34 18.4396 241.457 19.5145 241.903C20.5893 242.349 21.508 243.103 22.1543 244.07C22.8006 245.038 23.1455 246.176 23.1455 247.339C23.1465 248.113 22.9948 248.879 22.6989 249.594C22.403 250.309 21.9689 250.959 21.4214 251.505C20.8739 252.052 20.2239 252.485 19.5085 252.78C18.7932 253.075 18.0266 253.226 17.2529 253.224Z" fill="#EBEBEB"/>
<path d="M460.231 188.953L456.646 182.758L454.749 183.834C454.473 183.992 454.159 184.069 453.842 184.058C453.525 184.047 453.217 183.948 452.952 183.772C452.654 183.576 452.343 183.398 452.023 183.238C451.737 183.094 451.496 182.873 451.329 182.599C451.162 182.325 451.075 182.01 451.079 181.689V179.49H443.908V181.689C443.912 182.01 443.825 182.325 443.658 182.599C443.491 182.873 443.25 183.094 442.964 183.238C442.642 183.399 442.329 183.578 442.027 183.772C441.764 183.948 441.457 184.047 441.141 184.058C440.825 184.069 440.512 183.992 440.238 183.834L438.333 182.735L434.748 188.929L436.661 190.029C436.932 190.191 437.154 190.425 437.301 190.705C437.449 190.985 437.516 191.3 437.497 191.616C437.497 191.794 437.497 191.972 437.497 192.143C437.497 192.313 437.497 192.499 437.497 192.677C437.513 192.987 437.443 193.295 437.295 193.568C437.148 193.841 436.928 194.069 436.661 194.226L434.748 195.333L438.333 201.528L440.246 200.428C440.52 200.271 440.833 200.193 441.149 200.204C441.465 200.215 441.772 200.314 442.034 200.49C442.339 200.686 442.649 200.864 442.964 201.024C443.25 201.168 443.491 201.389 443.658 201.663C443.825 201.937 443.912 202.252 443.908 202.573V204.772H451.086V202.573C451.083 202.252 451.17 201.937 451.337 201.663C451.504 201.389 451.744 201.168 452.031 201.024C452.351 200.859 452.661 200.681 452.96 200.49C453.223 200.314 453.53 200.215 453.846 200.204C454.162 200.193 454.475 200.271 454.749 200.428L456.662 201.528L460.247 195.333L458.334 194.233C458.068 194.075 457.851 193.847 457.705 193.574C457.559 193.301 457.49 192.994 457.506 192.685C457.506 192.507 457.506 192.329 457.506 192.15C457.506 191.972 457.506 191.802 457.506 191.624C457.485 191.308 457.553 190.993 457.7 190.713C457.848 190.432 458.07 190.198 458.342 190.037L460.231 188.953ZM453.363 192.135C453.363 193.299 453.018 194.437 452.371 195.405C451.724 196.373 450.804 197.127 449.728 197.573C448.652 198.018 447.469 198.134 446.327 197.906C445.185 197.679 444.137 197.117 443.314 196.294C442.491 195.47 441.931 194.42 441.705 193.278C441.479 192.136 441.597 190.953 442.043 189.878C442.49 188.802 443.245 187.884 444.214 187.238C445.183 186.592 446.321 186.249 447.486 186.25C448.258 186.25 449.023 186.402 449.737 186.698C450.45 186.994 451.098 187.428 451.644 187.974C452.19 188.521 452.623 189.17 452.918 189.884C453.213 190.597 453.364 191.363 453.363 192.135Z" fill="#EBEBEB"/>
<path d="M481.362 329.487L471.203 329.704L466.046 329.789C464.319 329.828 462.585 329.789 460.858 329.836H460.517V329.487L460.471 320.823V320.436H460.858L471.11 320.49C474.532 320.49 477.947 320.575 481.362 320.614H481.579V320.823C481.579 322.294 481.517 323.757 481.478 325.205L481.362 329.487ZM481.362 329.487L481.254 325.112C481.215 323.672 481.168 322.24 481.153 320.823L481.362 321.032C477.947 321.078 474.532 321.156 471.11 321.163L460.858 321.21L461.245 320.823V329.487L460.897 329.147C462.585 329.147 464.273 329.147 465.968 329.185L471.063 329.271L481.362 329.487Z" fill="#EBEBEB"/>
<path d="M469.924 340.411L459.765 340.628L454.601 340.713C452.882 340.752 451.147 340.713 449.42 340.76H449.08V340.411V331.747V331.359H449.467L459.719 331.414C463.134 331.414 466.556 331.499 469.971 331.537H470.188V331.747C470.188 333.218 470.126 334.681 470.087 336.129L469.924 340.411ZM469.924 340.411L469.816 336.036C469.777 334.588 469.731 333.164 469.715 331.747L469.924 331.956C466.51 332.002 463.087 332.08 459.672 332.087L449.42 332.134L449.807 331.747V340.411L449.459 340.071C451.147 340.071 452.835 340.071 454.531 340.109L459.618 340.194L469.924 340.411Z" fill="#EBEBEB"/>
<path d="M492.799 340.411L482.64 340.628L477.483 340.713C475.756 340.752 474.022 340.713 472.295 340.76H471.954V340.411L471.908 331.747V331.359H472.295L482.547 331.414C485.97 331.414 489.384 331.499 492.799 331.537H493.016V331.747C493.016 333.218 492.946 334.681 492.915 336.129L492.799 340.411ZM492.799 340.411L492.691 336.036C492.691 334.588 492.606 333.164 492.59 331.747L492.799 331.956C489.384 332.002 485.97 332.08 482.547 332.087L472.295 332.134L472.682 331.747V340.411L472.334 340.071C474.022 340.071 475.71 340.071 477.405 340.109L482.501 340.194L492.799 340.411Z" fill="#EBEBEB"/>
<path d="M188.991 234.122L178.832 234.339L173.675 234.432C171.949 234.432 170.214 234.432 168.487 234.432H168.147V234.083L168.1 225.434V225.047H168.487L178.739 225.093C182.162 225.093 185.577 225.179 188.991 225.217H189.208V225.434C189.208 226.905 189.139 228.369 189.1 229.817L188.991 234.122ZM188.991 234.122L188.883 229.747C188.883 228.307 188.798 226.882 188.782 225.457L188.991 225.674C185.577 225.713 182.162 225.798 178.739 225.798L168.487 225.844L168.874 225.457L168.836 234.122L168.487 233.781C170.175 233.781 171.863 233.781 173.559 233.82L178.654 233.913L188.991 234.122Z" fill="#EBEBEB"/>
<path d="M177.54 245.048L167.38 245.265L162.216 245.35C160.497 245.389 158.762 245.35 157.035 245.396H156.695V245.048L156.633 236.383V235.996H157.02L167.272 236.05C170.687 236.05 174.109 236.135 177.524 236.174H177.741V236.383C177.741 237.854 177.679 239.318 177.64 240.766L177.54 245.048ZM177.54 245.048L177.431 240.673C177.393 239.233 177.346 237.808 177.331 236.383L177.54 236.6C174.125 236.639 170.702 236.724 167.288 236.724L157.035 236.77L157.423 236.383V245.048L157.074 244.707C158.762 244.707 160.45 244.707 162.146 244.746L167.241 244.839L177.54 245.048Z" fill="#EBEBEB"/>
<path d="M41.3412 329.122L31.1898 329.339L26.0327 329.432C24.3137 329.432 22.5792 329.432 20.8525 329.471H20.504V329.122L20.4653 320.457V320.07H20.8525L31.1046 320.117C34.5194 320.117 37.9419 320.202 41.3567 320.241H41.5658V320.45C41.5658 321.921 41.5038 323.384 41.4651 324.832L41.3412 329.122ZM41.3412 329.122L41.2328 324.747C41.2328 323.307 41.1399 321.882 41.1321 320.457L41.3412 320.674C37.9264 320.713 34.5039 320.798 31.0891 320.798L20.837 320.845L21.2242 320.457L21.1777 329.122L20.837 328.781C22.525 328.781 24.2131 328.781 25.9011 328.781L30.9962 328.874L41.3412 329.122Z" fill="#EBEBEB"/>
<path d="M29.9049 340.032L19.738 340.249L14.5809 340.334C12.8619 340.334 11.1274 340.334 9.40069 340.381H9.05225V340.032V331.368V330.98H9.44715L19.6993 331.027C23.114 331.027 26.5288 331.112 29.9513 331.151H30.1604V331.36C30.1604 332.831 30.0907 334.295 30.0598 335.743L29.9049 340.032ZM29.9049 340.032L29.7965 335.657C29.7965 334.217 29.7036 332.792 29.6881 331.368L29.9049 331.584C26.4824 331.623 23.0676 331.708 19.6528 331.708L9.40069 331.755L9.78786 331.368L9.7414 340.032L9.40069 339.692C11.0887 339.692 12.769 339.692 14.4648 339.73L19.5599 339.823L29.9049 340.032Z" fill="#EBEBEB"/>
<path d="M200.428 245.048L190.269 245.265L185.112 245.35C183.386 245.389 181.659 245.35 179.924 245.396H179.584V245.048L179.537 236.383V235.996H179.924L190.176 236.05C193.599 236.05 197.014 236.135 200.428 236.174H200.645V236.383C200.645 237.854 200.576 239.318 200.545 240.766L200.428 245.048ZM200.428 245.048L200.32 240.673C200.32 239.233 200.235 237.808 200.219 236.383L200.428 236.6C197.014 236.639 193.599 236.724 190.176 236.724L179.924 236.77L180.311 236.383L180.273 245.048L179.924 244.707C181.62 244.707 183.3 244.707 184.996 244.746L190.091 244.839L200.428 245.048Z" fill="#EBEBEB"/>
<path d="M435.545 220.382L425.386 220.599L420.229 220.684C418.502 220.684 416.768 220.684 415.041 220.73H414.7V220.382L414.654 211.717V211.33H415.041L425.293 211.384C428.708 211.384 432.13 211.469 435.545 211.508H435.762V211.717C435.762 213.188 435.7 214.652 435.661 216.1L435.545 220.382ZM435.545 220.382L435.437 216.007C435.437 214.567 435.352 213.134 435.336 211.717L435.545 211.926C432.13 211.973 428.708 212.05 425.293 212.058L415.041 212.104L415.428 211.717L415.389 220.382L415.041 220.041C416.729 220.041 418.417 220.041 420.113 220.08L425.208 220.165L435.545 220.382Z" fill="#EBEBEB"/>
<path d="M480.177 142.223L470.018 142.44L464.853 142.525C463.134 142.525 461.4 142.525 459.673 142.525H459.333V142.177V133.512V133.125H459.72L469.972 133.171C473.387 133.171 476.809 133.257 480.224 133.295H480.441V133.504C480.441 134.976 480.379 136.431 480.34 137.879L480.177 142.223ZM480.177 142.223L480.069 137.841C480.03 136.4 479.984 134.976 479.968 133.559L480.177 133.768C476.763 133.768 473.34 133.892 469.925 133.892L459.673 133.946L460.06 133.559L460.022 142.223L459.673 141.875C461.361 141.875 463.049 141.875 464.745 141.921L469.832 142.007L480.177 142.223Z" fill="#EBEBEB"/>
<path d="M491.613 153.148L481.454 153.365L476.297 153.45C474.57 153.45 472.836 153.45 471.109 153.45H470.768V153.101L470.722 144.437V144.127H471.109L481.361 144.173C484.783 144.173 488.198 144.259 491.613 144.297H491.83V144.506C491.83 145.978 491.76 147.433 491.721 148.881L491.613 153.148ZM491.613 153.148L491.505 148.773C491.505 147.333 491.419 145.908 491.404 144.491L491.613 144.7C488.198 144.7 484.783 144.824 481.361 144.824L471.109 144.901L471.496 144.514V153.179L471.148 152.83C472.836 152.83 474.524 152.83 476.219 152.877L481.314 152.962L491.613 153.148Z" fill="#EBEBEB"/>
<path d="M29.9049 142.229L19.738 142.446L14.5809 142.531C12.8619 142.531 11.1274 142.531 9.40069 142.531H9.05225V142.183V133.518V133.131H9.44715L19.6993 133.177C23.114 133.177 26.5288 133.262 29.9513 133.309H30.1604V133.518C30.1604 134.989 30.0907 136.453 30.0598 137.893L29.9049 142.229ZM29.9049 142.229L29.7965 137.854C29.7965 136.406 29.7036 134.982 29.6881 133.564L29.9049 133.774C26.4824 133.812 23.0676 133.897 19.6528 133.905L9.40069 133.952L9.78786 133.564L9.7414 142.229L9.40069 141.881C11.0887 141.881 12.769 141.881 14.4648 141.927L19.5599 142.012L29.9049 142.229Z" fill="#EBEBEB"/>
<path d="M488.366 277.61C477.757 291.982 466.685 308.653 463.998 326.672C463.985 326.734 463.998 326.799 464.034 326.852C464.07 326.905 464.125 326.942 464.187 326.954C464.25 326.967 464.315 326.954 464.368 326.918C464.421 326.883 464.458 326.827 464.47 326.765C465.691 321.852 467.256 317.032 469.155 312.339C476.124 310.419 482.976 308.839 486.639 301.917C490.379 294.801 489.907 285.524 489.194 277.773C489.14 277.355 488.583 277.308 488.366 277.61Z" fill="#080056"/>
<path d="M469.263 312.197C474.033 301.504 480.15 290.764 487.924 281.998C487.978 281.944 488.056 281.998 488.009 282.083C482.922 288.348 479.05 295.17 475.272 302.115C478.787 298.546 482.635 295.355 485.957 291.569C486.027 291.499 486.128 291.569 486.066 291.677C482.767 295.642 479.151 299.947 474.853 302.882C473.692 305.014 472.525 307.148 471.353 309.286C471.64 309.123 471.942 308.984 472.236 308.836C472.241 308.832 472.247 308.828 472.254 308.826C472.261 308.823 472.268 308.823 472.275 308.823C472.282 308.824 472.288 308.827 472.294 308.831C472.3 308.834 472.305 308.84 472.309 308.846C472.312 308.852 472.314 308.858 472.315 308.865C472.316 308.872 472.315 308.88 472.312 308.886C472.31 308.893 472.306 308.899 472.301 308.903C472.295 308.908 472.289 308.912 472.283 308.914C471.95 309.077 471.632 309.255 471.291 309.394C470.734 310.408 470.176 311.423 469.603 312.429C469.456 312.623 469.162 312.422 469.263 312.197Z" fill="#417BFF"/>
<path d="M472.811 308.467C475.665 306.877 478.388 305.065 480.957 303.047C481.027 302.993 481.127 303.047 481.058 303.147C478.568 305.298 475.84 307.156 472.927 308.684C472.898 308.699 472.865 308.703 472.833 308.693C472.802 308.684 472.776 308.662 472.761 308.634C472.745 308.605 472.742 308.571 472.751 308.54C472.761 308.509 472.782 308.483 472.811 308.467Z" fill="#417BFF"/>
<path d="M462.775 323.991C462.775 324.207 463.163 324.207 463.163 323.991C463.217 318.059 463.163 312.097 463.255 306.135C464.804 303.037 468.041 301.365 470.31 298.91C471.941 297.115 473.359 295.138 474.537 293.017C477.275 287.954 478.945 282.383 479.447 276.648C480.074 270.299 477.666 249.353 474.994 250.081C473.601 250.46 469.109 260.836 467.925 264.267C465.995 269.922 464.58 275.74 463.697 281.65C461.529 295.604 461.715 309.937 462.775 323.991Z" fill="#080056"/>
<path d="M462.729 298.393C463.055 290.89 464.743 283.309 466.33 276.023C468.033 268.179 470.023 260.792 474.073 253.792C474.143 253.668 474.336 253.792 474.274 253.908C471.591 259.342 469.513 265.055 468.08 270.943C468.351 270.517 468.676 270.122 468.963 269.72C469.071 269.565 469.327 269.72 469.218 269.875C468.857 270.508 468.434 271.105 467.956 271.655H467.91C466.516 277.262 465.517 282.999 464.665 288.691C464.725 288.612 464.79 288.537 464.859 288.466C464.897 288.42 464.975 288.466 464.944 288.536L464.603 289.101C464.17 292.005 463.775 294.901 463.372 297.774C468.545 293.36 472.958 288.149 475.451 281.729C475.451 281.729 475.513 281.729 475.498 281.729C473.059 288.381 469.21 294.305 463.287 298.339C463.189 299.113 463.08 299.887 462.962 300.662C462.962 300.824 462.683 300.778 462.691 300.623C462.691 299.942 462.691 299.253 462.753 298.571C462.732 298.547 462.718 298.517 462.714 298.486C462.71 298.454 462.715 298.422 462.729 298.393Z" fill="#417BFF"/>
<path d="M465.166 287.514C469.115 281.621 472.809 275.899 475.697 269.371C475.697 269.301 475.852 269.371 475.829 269.425C473.39 275.906 469.975 282.465 465.36 287.668C465.267 287.777 465.081 287.637 465.166 287.514Z" fill="#417BFF"/>
<path d="M470.418 267.913C472.051 265.017 473.778 262.199 475.319 259.249C475.366 259.163 475.474 259.249 475.443 259.318C474.179 262.399 472.579 265.33 470.673 268.06C470.654 268.094 470.621 268.119 470.584 268.129C470.546 268.139 470.506 268.134 470.472 268.115C470.438 268.095 470.413 268.063 470.403 268.025C470.393 267.987 470.398 267.947 470.418 267.913Z" fill="#417BFF"/>
<path d="M469.776 269.178C469.815 269.178 469.815 269.225 469.776 269.225V269.178Z" fill="#417BFF"/>
<path d="M458.756 306.833C458.676 310.766 458.212 314.682 457.37 318.525C457.432 318.943 457.494 319.369 457.556 319.803C458.764 315.557 459.466 311.182 459.647 306.771C459.681 306.71 459.7 306.64 459.7 306.57C459.7 306.499 459.681 306.43 459.647 306.368C459.814 300.454 459.376 294.538 458.338 288.714C456.503 277.811 452.484 267.342 444.88 259.173C444.818 259.118 444.743 259.079 444.663 259.057C444.582 259.036 444.498 259.033 444.416 259.05C444.335 259.066 444.258 259.101 444.192 259.152C444.126 259.203 444.073 259.269 444.036 259.343C440.939 267.149 442.039 276.456 444.656 284.246C446.08 288.46 448.112 292.443 450.688 296.07C453.313 299.763 456.635 302.861 458.756 306.833Z" fill="#080056"/>
<path d="M445.794 262.804C453.003 274.504 458.021 288.357 458.632 302.194C458.632 302.434 458.23 302.503 458.191 302.256C458.021 301.009 457.835 299.778 457.633 298.554C454.644 295.705 451.586 292.685 449.449 289.115C449.444 289.101 449.444 289.086 449.449 289.072C449.453 289.058 449.462 289.045 449.474 289.037C449.486 289.028 449.501 289.023 449.516 289.024C449.531 289.024 449.545 289.029 449.557 289.038C452.151 292.004 454.567 295.039 457.502 297.687C456.983 294.629 456.371 291.624 455.643 288.659L455.078 287.993C454.954 287.845 455.163 287.629 455.287 287.776L455.465 287.969C454.45 283.909 453.191 279.914 451.694 276.006C449.859 273.815 447.823 271.925 446.475 269.285C446.475 269.223 446.53 269.176 446.568 269.231C447.645 270.741 448.682 272.258 449.898 273.652C450.386 274.21 450.92 274.736 451.446 275.278C449.786 271.037 447.814 266.924 445.546 262.974C445.539 262.943 445.542 262.91 445.554 262.88C445.566 262.85 445.586 262.824 445.613 262.806C445.64 262.788 445.671 262.778 445.703 262.777C445.735 262.777 445.767 262.786 445.794 262.804Z" fill="#417BFF"/>
<path d="M447.25 277.239C449.573 280.375 452.237 283.364 454.405 286.609C454.467 286.701 454.327 286.794 454.25 286.725C451.47 284.115 449.116 280.53 447.095 277.332C447.002 277.231 447.18 277.146 447.25 277.239Z" fill="#417BFF"/>
<path d="M454.745 287.373L454.846 287.466C454.907 287.536 454.807 287.644 454.737 287.575L454.636 287.474C454.551 287.373 454.66 287.265 454.745 287.373Z" fill="#417BFF"/>
<path d="M434.504 285.294C435.077 291.311 438.244 298.496 442.108 303.104C443.815 305.123 445.925 306.764 448.303 307.92C450.974 309.236 453.777 310.762 456.534 311.846C457.829 315.198 458.786 318.671 459.391 322.214L459.654 321.3C457.881 306.061 448.039 293.037 435.41 284.675C435.311 284.618 435.197 284.591 435.083 284.596C434.969 284.601 434.859 284.638 434.765 284.702C434.67 284.767 434.596 284.857 434.55 284.961C434.504 285.066 434.488 285.181 434.504 285.294Z" fill="#080056"/>
<path d="M438.855 289.796C438.77 289.719 438.856 289.556 438.987 289.634C445.917 294.783 451.442 301.591 455.054 309.433C455.147 309.642 454.861 309.828 454.745 309.619C454.156 308.587 453.557 307.585 452.948 306.615C450.076 306.073 447.342 304.044 445.205 302.124C445.143 302.069 445.205 301.984 445.29 302.038C446.39 303.041 447.613 303.9 448.929 304.594C450.123 305.138 451.342 305.621 452.584 306.042C451.524 304.354 450.408 302.728 449.247 301.148C446.138 299.965 443.223 298.327 440.598 296.285C440.513 296.231 440.598 296.092 440.675 296.146C443.278 297.722 445.963 299.156 448.72 300.443C446.96 298.129 445.065 295.921 443.045 293.831C442.061 293.312 441.07 292.793 440.125 292.235C440.106 292.227 440.09 292.212 440.082 292.192C440.074 292.172 440.075 292.15 440.083 292.131C440.091 292.111 440.107 292.096 440.126 292.088C440.146 292.08 440.168 292.08 440.187 292.088C440.975 292.367 441.726 292.739 442.425 293.196C441.287 292.019 440.11 290.904 438.855 289.796Z" fill="#417BFF"/>
<path d="M439.126 295.053C439.295 295.16 439.457 295.277 439.614 295.401C439.66 295.448 439.614 295.502 439.552 295.479C439.373 295.399 439.202 295.303 439.041 295.192C438.955 295.115 439.041 294.999 439.126 295.053Z" fill="#417BFF"/>
<path d="M479.368 355.235H444.81L447.597 323.758L448.209 316.82H475.969L476.58 323.758L479.368 355.235Z" fill="#455A64"/>
<path d="M476.581 323.758H447.598L448.21 316.82H475.969L476.581 323.758Z" fill="#417BFF"/>
<path d="M477.628 311.967H446.562V318.835H477.628V311.967Z" fill="#455A64"/>
<path d="M0 355.237L62.7747 355.043L125.549 354.981L251.099 354.85L376.648 354.981L439.423 355.043L502.198 355.237L439.423 355.423L376.648 355.492L251.099 355.624L125.549 355.492L62.7747 355.423L0 355.237Z" fill="#417BFF"/>
<path d="M425.292 135.736H75.6055V369.653H425.292V135.736Z" fill="#EBEBEB"/>
<path d="M422.751 138.586H78.1445V366.796H422.751V138.586Z" fill="#417BFF"/>
<path d="M470.838 387.191H30.0596V403.243H470.838V387.191Z" fill="#DBDBDB"/>
<path d="M30.0596 387.191L75.6055 369.652H425.292L470.838 387.191H30.0596Z" fill="#EBEBEB"/>
<path d="M79.6709 380.973L109.064 369.652H391.833L421.227 380.973H79.6709Z" fill="#417BFF"/>
<path d="M403.279 155.93H97.6206V349.465H403.279V155.93Z" fill="white"/>
<path d="M403.279 155.93H97.3652V163.379H403.279V155.93Z" fill="#455A64"/>
<path d="M103.28 159.646C103.281 160.012 103.174 160.371 102.971 160.677C102.768 160.982 102.48 161.221 102.141 161.362C101.803 161.503 101.43 161.54 101.07 161.469C100.71 161.398 100.38 161.221 100.121 160.962C99.8614 160.703 99.685 160.372 99.6138 160.013C99.5426 159.653 99.5799 159.28 99.721 158.942C99.862 158.603 100.1 158.314 100.406 158.111C100.711 157.909 101.07 157.801 101.437 157.803C101.925 157.805 102.393 158 102.738 158.345C103.083 158.69 103.278 159.158 103.28 159.646Z" fill="#C7C7C7"/>
<path d="M110.821 159.646C110.822 160.012 110.715 160.371 110.512 160.677C110.309 160.982 110.021 161.221 109.682 161.362C109.344 161.503 108.971 161.54 108.611 161.469C108.251 161.398 107.921 161.221 107.662 160.962C107.402 160.703 107.226 160.372 107.155 160.013C107.084 159.653 107.121 159.28 107.262 158.942C107.403 158.603 107.641 158.314 107.947 158.111C108.252 157.909 108.611 157.801 108.978 157.803C109.466 157.805 109.934 158 110.279 158.345C110.624 158.69 110.819 159.158 110.821 159.646Z" fill="white"/>
<path d="M118.364 159.646C118.365 160.012 118.258 160.371 118.056 160.676C117.853 160.981 117.565 161.22 117.227 161.361C116.889 161.502 116.516 161.54 116.157 161.469C115.797 161.399 115.467 161.223 115.207 160.965C114.948 160.706 114.771 160.376 114.699 160.017C114.627 159.658 114.663 159.286 114.803 158.947C114.943 158.608 115.18 158.319 115.484 158.115C115.789 157.911 116.147 157.803 116.513 157.803C117.003 157.803 117.472 157.997 117.819 158.342C118.166 158.687 118.362 159.156 118.364 159.646Z" fill="#080056"/>
<path d="M403.277 163.371H397.849V349.457H403.277V163.371Z" fill="#DBDBDB"/>
<path d="M400.545 227.89C400.173 227.89 399.817 227.742 399.554 227.48C399.291 227.217 399.144 226.86 399.144 226.488V165.866C399.144 165.495 399.291 165.138 399.554 164.875C399.817 164.613 400.173 164.465 400.545 164.465C400.917 164.465 401.273 164.613 401.536 164.875C401.799 165.138 401.947 165.495 401.947 165.866V226.488C401.947 226.86 401.799 227.217 401.536 227.48C401.273 227.742 400.917 227.89 400.545 227.89Z" fill="#A6A6A6"/>
<path d="M312.689 278.941H189.455V297.618H312.689V278.941Z" fill="white"/>
<path d="M312.898 297.829H189.246V278.734H312.898V297.829ZM189.664 297.442H312.48V279.153H189.664V297.442Z" fill="#DBDBDB"/>
<path d="M200.335 283.998C200.575 284.693 200.739 285.412 200.823 286.143C200.915 286.852 200.962 287.565 200.962 288.28C200.961 288.994 200.917 289.708 200.83 290.417C200.743 291.145 200.577 291.862 200.335 292.554C200.093 291.862 199.927 291.145 199.839 290.417C199.753 289.708 199.709 288.994 199.708 288.28C199.708 287.565 199.754 286.852 199.847 286.143C199.931 285.412 200.094 284.693 200.335 283.998Z" fill="#37474F"/>
<path d="M204.639 288.28C203.947 288.519 203.23 288.682 202.502 288.767C201.793 288.856 201.08 288.903 200.365 288.907C199.65 288.907 198.937 288.86 198.228 288.767C197.5 288.682 196.783 288.519 196.091 288.28C196.783 288.038 197.5 287.872 198.228 287.784C199.647 287.608 201.083 287.608 202.502 287.784C203.23 287.872 203.947 288.038 204.639 288.28Z" fill="#37474F"/>
<path d="M203.362 285.25C203.039 285.909 202.647 286.532 202.193 287.108C201.756 287.675 201.283 288.213 200.776 288.719C200.271 289.224 199.736 289.697 199.173 290.136C198.595 290.59 197.97 290.98 197.307 291.297C197.628 290.637 198.02 290.014 198.476 289.439C198.913 288.875 199.387 288.339 199.893 287.836C200.395 287.325 200.933 286.852 201.504 286.419C202.078 285.961 202.701 285.569 203.362 285.25Z" fill="#37474F"/>
<path d="M203.362 291.297C202.701 290.981 202.078 290.592 201.504 290.136C200.937 289.699 200.399 289.226 199.893 288.719C199.385 288.215 198.911 287.677 198.476 287.108C198.02 286.533 197.628 285.91 197.307 285.25C197.97 285.568 198.595 285.957 199.173 286.411C199.735 286.851 200.268 287.327 200.768 287.836C201.273 288.341 201.746 288.876 202.185 289.439C202.64 290.017 203.034 290.64 203.362 291.297Z" fill="#37474F"/>
<path d="M217.029 283.998C217.271 284.693 217.438 285.412 217.524 286.143C217.7 287.562 217.7 288.998 217.524 290.417C217.441 291.146 217.274 291.863 217.029 292.554C216.789 291.862 216.626 291.145 216.541 290.417C216.447 289.709 216.403 288.995 216.409 288.28C216.407 287.566 216.451 286.852 216.541 286.143C216.629 285.413 216.792 284.694 217.029 283.998Z" fill="#37474F"/>
<path d="M221.286 288.278C220.593 288.517 219.877 288.681 219.149 288.766C218.445 288.859 217.737 288.911 217.027 288.92C216.313 288.92 215.599 288.874 214.89 288.781C214.162 288.696 213.446 288.533 212.753 288.293C213.445 288.051 214.162 287.885 214.89 287.798C216.312 287.622 217.75 287.622 219.172 287.798C219.892 287.882 220.601 288.043 221.286 288.278Z" fill="#37474F"/>
<path d="M220.034 285.25C219.716 285.91 219.326 286.533 218.873 287.108C217.997 288.243 216.979 289.26 215.845 290.136C215.27 290.59 214.647 290.979 213.987 291.297C214.305 290.638 214.695 290.014 215.148 289.439C215.587 288.876 216.061 288.341 216.565 287.836C217.067 287.325 217.605 286.852 218.176 286.419C218.751 285.963 219.374 285.571 220.034 285.25Z" fill="#37474F"/>
<path d="M220.034 291.297C219.374 290.979 218.751 290.59 218.176 290.136C217.042 289.26 216.024 288.243 215.148 287.108C214.695 286.533 214.305 285.91 213.987 285.25C214.647 285.568 215.27 285.958 215.845 286.411C216.414 286.849 216.952 287.325 217.456 287.836C217.96 288.341 218.434 288.876 218.873 289.439C219.325 290.015 219.714 290.638 220.034 291.297Z" fill="#37474F"/>
<path d="M233.684 283.998C233.925 284.693 234.088 285.412 234.172 286.143C234.265 286.852 234.311 287.565 234.312 288.28C234.31 288.994 234.266 289.708 234.18 290.417C234.092 291.145 233.926 291.862 233.684 292.554C233.442 291.862 233.276 291.145 233.189 290.417C233.008 288.998 233.008 287.562 233.189 286.143C233.271 285.411 233.438 284.692 233.684 283.998Z" fill="#37474F"/>
<path d="M237.936 288.28C237.243 288.519 236.527 288.682 235.799 288.767C235.09 288.856 234.376 288.903 233.662 288.907C232.947 288.907 232.233 288.86 231.524 288.767C230.796 288.682 230.08 288.519 229.387 288.28C230.08 288.038 230.796 287.872 231.524 287.784C232.944 287.608 234.379 287.608 235.799 287.784C236.527 287.872 237.243 288.038 237.936 288.28Z" fill="#37474F"/>
<path d="M236.713 285.25C236.389 285.909 235.997 286.532 235.544 287.108C235.107 287.675 234.633 288.213 234.127 288.719C233.622 289.224 233.087 289.697 232.524 290.136C231.946 290.59 231.32 290.98 230.658 291.297C230.979 290.637 231.371 290.014 231.827 289.439C232.264 288.875 232.737 288.339 233.244 287.836C233.745 287.327 234.28 286.854 234.847 286.419C235.425 285.963 236.05 285.571 236.713 285.25Z" fill="#37474F"/>
<path d="M236.713 291.297C236.05 290.98 235.425 290.59 234.847 290.136C234.284 289.697 233.749 289.224 233.244 288.719C232.735 288.215 232.262 287.677 231.827 287.108C231.371 286.533 230.979 285.91 230.658 285.25C231.32 285.568 231.946 285.957 232.524 286.411C233.089 286.851 233.624 287.327 234.127 287.836C234.631 288.341 235.105 288.876 235.544 289.439C235.996 290.017 236.387 290.64 236.713 291.297Z" fill="#37474F"/>
<path d="M250.325 283.998C250.567 284.693 250.734 285.412 250.82 286.143C250.996 287.562 250.996 288.998 250.82 290.417C250.736 291.146 250.57 291.863 250.325 292.554C250.085 291.862 249.922 291.145 249.837 290.417C249.743 289.709 249.699 288.995 249.705 288.28C249.703 287.566 249.747 286.852 249.837 286.143C249.924 285.413 250.088 284.694 250.325 283.998Z" fill="#37474F"/>
<path d="M254.637 288.278C253.944 288.517 253.227 288.681 252.499 288.766C251.778 288.861 251.051 288.913 250.324 288.92C249.609 288.92 248.895 288.874 248.186 288.781C247.459 288.696 246.742 288.533 246.049 288.293C246.742 288.051 247.458 287.885 248.186 287.798C249.608 287.622 251.047 287.622 252.468 287.798C253.207 287.878 253.934 288.039 254.637 288.278Z" fill="#37474F"/>
<path d="M253.422 285.25C253.103 285.91 252.714 286.533 252.26 287.108C251.384 288.243 250.367 289.26 249.232 290.136C248.657 290.59 248.034 290.979 247.374 291.297C247.692 290.638 248.082 290.014 248.536 289.439C248.975 288.876 249.448 288.341 249.953 287.836C250.454 287.325 250.993 286.852 251.563 286.419C252.138 285.963 252.761 285.571 253.422 285.25Z" fill="#37474F"/>
<path d="M253.422 291.297C252.762 290.979 252.138 290.59 251.563 290.136C250.429 289.26 249.412 288.243 248.536 287.108C248.082 286.533 247.692 285.91 247.374 285.25C248.034 285.568 248.657 285.958 249.232 286.411C249.801 286.849 250.339 287.325 250.843 287.836C251.348 288.341 251.821 288.876 252.26 289.439C252.712 290.015 253.102 290.638 253.422 291.297Z" fill="#37474F"/>
<path d="M267.036 283.998C267.276 284.693 267.44 285.412 267.523 286.143C267.709 287.562 267.709 288.999 267.523 290.417C267.442 291.146 267.279 291.863 267.036 292.554C266.794 291.862 266.628 291.145 266.54 290.417C266.45 289.708 266.406 288.995 266.408 288.28C266.41 287.566 266.454 286.852 266.54 286.143C266.627 285.412 266.793 284.693 267.036 283.998Z" fill="#37474F"/>
<path d="M271.309 288.28C270.616 288.519 269.9 288.682 269.172 288.767C268.463 288.856 267.749 288.903 267.034 288.907C266.32 288.907 265.606 288.86 264.897 288.767C264.167 288.682 263.448 288.518 262.752 288.28C263.448 288.038 264.167 287.872 264.897 287.784C266.317 287.608 267.752 287.608 269.172 287.784C269.9 287.872 270.616 288.038 271.309 288.28Z" fill="#37474F"/>
<path d="M270.055 285.25C269.737 285.91 269.347 286.533 268.894 287.108C268.457 287.675 267.983 288.213 267.477 288.719C266.972 289.224 266.437 289.697 265.874 290.136C265.296 290.59 264.67 290.98 264.008 291.297C264.329 290.637 264.721 290.014 265.177 289.439C266.056 288.312 267.07 287.298 268.197 286.419C268.773 285.965 269.396 285.573 270.055 285.25Z" fill="#37474F"/>
<path d="M270.055 291.297C269.396 290.978 268.773 290.588 268.197 290.136C267.634 289.697 267.099 289.224 266.594 288.719C266.083 288.217 265.61 287.679 265.177 287.108C264.721 286.533 264.329 285.91 264.008 285.25C264.67 285.568 265.296 285.957 265.874 286.411C266.439 286.851 266.974 287.327 267.477 287.836C267.981 288.341 268.455 288.876 268.894 289.439C269.346 290.015 269.735 290.638 270.055 291.297Z" fill="#37474F"/>
<path d="M283.706 283.998C283.949 284.693 284.115 285.412 284.201 286.143C284.377 287.562 284.377 288.998 284.201 290.417C284.114 291.145 283.948 291.862 283.706 292.554C283.466 291.862 283.303 291.145 283.218 290.417C283.125 289.709 283.079 288.995 283.079 288.28C283.083 287.566 283.129 286.852 283.218 286.143C283.302 285.412 283.465 284.693 283.706 283.998Z" fill="#37474F"/>
<path d="M287.988 288.28C287.296 288.519 286.579 288.683 285.851 288.767C285.14 288.856 284.423 288.903 283.706 288.907C282.992 288.907 282.278 288.86 281.569 288.767C280.841 288.683 280.125 288.519 279.432 288.28C280.125 288.038 280.841 287.872 281.569 287.784C282.278 287.694 282.992 287.65 283.706 287.652C284.423 287.65 285.14 287.694 285.851 287.784C286.579 287.872 287.296 288.038 287.988 288.28Z" fill="#37474F"/>
<path d="M286.717 285.25C286.397 285.91 286.005 286.533 285.548 287.108C285.116 287.679 284.642 288.217 284.131 288.719C283.626 289.224 283.091 289.697 282.528 290.136C281.953 290.59 281.33 290.979 280.67 291.297C280.988 290.638 281.378 290.014 281.831 289.439C282.271 288.876 282.744 288.341 283.248 287.836C283.75 287.325 284.288 286.852 284.859 286.419C285.434 285.963 286.057 285.571 286.717 285.25Z" fill="#37474F"/>
<path d="M286.717 291.297C286.058 290.979 285.434 290.59 284.859 290.136C283.725 289.26 282.707 288.243 281.831 287.108C281.378 286.533 280.988 285.91 280.67 285.25C281.33 285.568 281.953 285.958 282.528 286.411C283.093 286.851 283.628 287.327 284.131 287.836C284.64 288.337 285.114 288.873 285.548 289.439C286.003 290.015 286.395 290.638 286.717 291.297Z" fill="#37474F"/>
<path d="M266.538 263.276C261.11 266.545 254.785 268.011 248.472 267.463C242.159 266.915 236.182 264.382 231.397 260.227C226.612 256.072 223.266 250.509 221.839 244.335C220.411 238.161 220.976 231.694 223.451 225.861C225.926 220.027 230.185 215.127 235.617 211.864C241.049 208.601 247.374 207.141 253.687 207.695C259.999 208.249 265.974 210.787 270.755 214.947C275.536 219.106 278.876 224.672 280.298 230.848C281.755 237.014 281.205 243.484 278.731 249.316C276.256 255.149 271.985 260.039 266.538 263.276Z" fill="#455A64"/>
<path d="M260.236 234.246C260.216 236.052 259.66 237.811 258.64 239.302C257.62 240.792 256.181 241.946 254.505 242.618C252.829 243.29 250.991 243.45 249.224 243.078C247.457 242.706 245.84 241.817 244.578 240.526C243.316 239.234 242.465 237.598 242.133 235.823C241.801 234.047 242.003 232.214 242.714 230.553C243.424 228.893 244.611 227.481 246.124 226.495C247.637 225.51 249.409 224.995 251.215 225.016C253.635 225.045 255.944 226.033 257.636 227.764C259.327 229.495 260.262 231.826 260.236 234.246Z" fill="white"/>
<path d="M266.587 259.495L266.548 263.266C261.771 266.136 256.289 267.62 250.716 267.552C245.143 267.483 239.7 265.865 234.994 262.879L235.041 259.123C235.09 254.94 236.799 250.948 239.792 248.025C242.785 245.101 246.816 243.487 250.999 243.536C255.183 243.586 259.175 245.295 262.098 248.287C265.021 251.28 266.636 255.312 266.587 259.495Z" fill="white"/>
<path d="M276.736 252.334C276.841 267.261 275.454 282.161 272.593 296.812C271.169 304.145 269 311.314 266.12 318.206C264.678 321.663 262.788 324.915 260.498 327.878C259.345 329.37 257.969 330.676 256.418 331.749C254.87 332.872 253.006 333.477 251.094 333.477C249.182 333.477 247.319 332.872 245.771 331.749C244.212 330.677 242.828 329.371 241.667 327.878C239.366 324.918 237.463 321.669 236.006 318.214C233.104 311.324 230.911 304.155 229.463 296.82C226.546 282.165 225.109 267.254 225.173 252.311C225.109 237.366 226.546 222.453 229.463 207.795C230.911 200.46 233.104 193.291 236.006 186.4C237.465 182.949 239.367 179.703 241.667 176.745C242.825 175.251 244.207 173.946 245.763 172.873C247.312 171.751 249.177 171.146 251.09 171.146C253.004 171.146 254.868 171.751 256.418 172.873C257.968 173.947 259.345 175.252 260.498 176.745C262.79 179.704 264.68 182.953 266.12 186.408C269 193.301 271.169 200.47 272.593 207.803C275.461 222.471 276.848 237.389 276.736 252.334ZM276.736 252.334C276.796 237.411 275.361 222.518 272.454 207.88C271.008 200.565 268.818 193.417 265.919 186.548C264.475 183.115 262.588 179.887 260.305 176.946C259.161 175.488 257.8 174.213 256.27 173.167C254.768 172.075 252.959 171.487 251.102 171.487C249.245 171.487 247.435 172.075 245.933 173.167C244.41 174.217 243.058 175.494 241.922 176.954C239.652 179.898 237.775 183.126 236.339 186.555C233.469 193.431 231.308 200.581 229.889 207.896C227.028 222.528 225.64 237.41 225.747 252.319C225.641 267.228 227.028 282.11 229.889 296.742C231.307 304.054 233.468 311.202 236.339 318.075C237.772 321.506 239.649 324.734 241.922 327.676C243.059 329.137 244.412 330.416 245.933 331.471C247.435 332.563 249.245 333.151 251.102 333.151C252.959 333.151 254.768 332.563 256.27 331.471C257.801 330.422 259.161 329.145 260.305 327.684C262.591 324.748 264.478 321.522 265.919 318.09C268.817 311.22 271.007 304.072 272.454 296.758C275.359 282.13 276.794 267.248 276.736 252.334Z" fill="#080056"/>
<path d="M263.921 230.127C276.902 237.5 289.112 246.153 300.369 255.959C306.005 260.847 311.129 266.295 315.662 272.22C317.934 275.206 319.803 278.479 321.221 281.953C321.929 283.696 322.365 285.537 322.515 287.412C322.673 289.31 322.272 291.213 321.361 292.886C320.368 294.517 318.924 295.824 317.203 296.65C315.504 297.462 313.692 298.01 311.829 298.276C308.116 298.791 304.351 298.814 300.632 298.345C293.211 297.418 285.905 295.734 278.827 293.32C264.68 288.511 251.049 282.301 238.136 274.783C225.169 267.362 212.977 258.661 201.743 248.812C196.118 243.887 191.01 238.402 186.496 232.442C184.232 229.455 182.371 226.182 180.96 222.709C180.254 220.961 179.821 219.114 179.674 217.235C179.48 215.332 179.892 213.416 180.852 211.761C181.811 210.106 183.269 208.797 185.017 208.02C186.715 207.209 188.527 206.666 190.391 206.41C194.102 205.918 197.861 205.918 201.572 206.41C208.976 207.36 216.264 209.062 223.323 211.489C237.444 216.331 251.045 222.575 263.921 230.127ZM263.921 230.127C251.025 222.615 237.409 216.413 223.277 211.613C216.22 209.21 208.938 207.531 201.541 206.603C197.848 206.135 194.109 206.158 190.422 206.673C188.588 206.933 186.805 207.471 185.133 208.268C183.439 209.027 182.028 210.302 181.102 211.911C180.175 213.52 179.782 215.381 179.976 217.227C180.127 219.073 180.557 220.885 181.254 222.601C182.665 226.041 184.524 229.28 186.783 232.233C191.298 238.159 196.406 243.608 202.029 248.494C213.27 258.286 225.461 266.93 238.423 274.295C251.284 281.841 264.869 288.08 278.974 292.917C286.009 295.344 293.274 297.043 300.655 297.989C304.34 298.481 308.074 298.481 311.759 297.989C313.59 297.744 315.374 297.222 317.048 296.441C318.746 295.689 320.162 294.419 321.093 292.812C322.024 291.205 322.421 289.344 322.228 287.497C322.086 285.649 321.66 283.834 320.966 282.116C319.566 278.667 317.717 275.418 315.468 272.452C310.968 266.508 305.872 261.038 300.26 256.129C289.045 246.271 276.871 237.56 263.921 230.127Z" fill="#080056"/>
<path d="M238.276 230.129C251.153 222.578 264.753 216.334 278.874 211.491C285.942 209.053 293.24 207.344 300.656 206.388C304.366 205.897 308.126 205.897 311.837 206.388C313.699 206.652 315.511 207.195 317.211 207.999C318.959 208.775 320.417 210.085 321.376 211.74C322.336 213.394 322.748 215.31 322.554 217.213C322.407 219.093 321.974 220.939 321.268 222.688C319.857 226.161 317.996 229.433 315.732 232.421C311.22 238.38 306.111 243.862 300.485 248.783C289.25 258.633 277.058 267.335 264.092 274.761C251.183 282.287 237.551 288.497 223.401 293.299C216.306 295.727 208.982 297.421 201.542 298.355C197.823 298.824 194.058 298.8 190.345 298.285C188.481 298.02 186.669 297.471 184.971 296.659C183.25 295.833 181.806 294.526 180.813 292.896C179.902 291.223 179.501 289.32 179.659 287.421C179.809 285.546 180.245 283.705 180.952 281.962C182.372 278.498 184.241 275.236 186.512 272.26C191.045 266.335 196.169 260.887 201.805 255.999C213.067 246.179 225.285 237.512 238.276 230.129ZM238.276 230.129C225.323 237.542 213.144 246.232 201.921 256.069C196.31 260.978 191.214 266.448 186.713 272.392C184.464 275.357 182.616 278.607 181.216 282.055C180.521 283.774 180.095 285.589 179.953 287.437C179.76 289.284 180.158 291.145 181.088 292.752C182.019 294.359 183.435 295.629 185.134 296.38C186.808 297.162 188.591 297.684 190.422 297.929C194.107 298.421 197.841 298.421 201.526 297.929C208.908 296.984 216.174 295.282 223.207 292.849C237.31 288.027 250.892 281.801 263.751 274.266C276.71 266.9 288.902 258.26 300.145 248.473C305.771 243.588 310.883 238.139 315.399 232.212C317.654 229.257 319.51 226.018 320.92 222.579C321.616 220.863 322.047 219.051 322.197 217.205C322.392 215.359 321.998 213.498 321.072 211.889C320.146 210.28 318.735 209.005 317.04 208.246C315.37 207.446 313.586 206.908 311.752 206.651C308.065 206.136 304.326 206.113 300.632 206.582C293.233 207.509 285.948 209.188 278.889 211.592C264.766 216.397 251.16 222.608 238.276 230.129Z" fill="#080056"/>
<path d="M301.484 224.651C301.484 224.651 294.128 277.971 282.025 289.965C267.506 304.406 256.968 302.262 251.098 309.68C245.237 302.246 234.698 304.36 220.164 289.957C208.061 277.979 200.713 224.651 200.713 224.651C232.584 210.659 251.098 194.971 251.098 194.971C251.671 195.459 270.1 210.883 301.484 224.651Z" fill="#080056"/>
<path opacity="0.1" d="M251.098 194.978V309.68C245.237 302.246 234.698 304.36 220.164 289.957C208.061 277.979 200.713 224.651 200.713 224.651C232.584 210.659 251.098 194.971 251.098 194.971V194.978Z" fill="black"/>
<path d="M293.685 228.955C293.685 228.955 287.491 273.99 277.254 284.134C264.973 296.306 256.068 294.518 251.113 300.79C246.157 294.518 237.252 296.306 224.971 284.134C214.704 273.99 208.509 228.955 208.509 228.955C235.433 217.124 251.097 203.867 251.097 203.867C251.097 203.867 266.739 217.124 293.685 228.955Z" fill="#080056"/>
<path opacity="0.1" d="M293.687 228.957C293.687 228.957 287.493 273.992 277.256 284.136C264.991 296.301 256.086 294.528 251.13 300.776V203.885C251.579 204.287 267.159 217.312 293.687 228.957Z" fill="black"/>
<path d="M255.087 248.774L259.028 267.482H242.295L246.236 248.774C244.692 247.813 243.504 246.375 242.85 244.678C242.197 242.98 242.114 241.117 242.614 239.368C243.114 237.619 244.169 236.081 245.622 234.986C247.074 233.891 248.843 233.299 250.661 233.299C252.48 233.299 254.249 233.891 255.701 234.986C257.153 236.081 258.209 237.619 258.709 239.368C259.209 241.117 259.126 242.98 258.473 244.678C257.819 246.375 256.631 247.813 255.087 248.774Z" fill="#417BFF"/>
<path d="M99.634 370.5C99.634 370.5 85.9206 397.718 85.9051 397.733C83.2569 402.929 81.0269 407.521 80.0977 410.006C80.0943 410.021 80.0943 410.037 80.0977 410.053C79.8125 410.609 79.6639 411.224 79.6641 411.849C79.6641 411.849 79.6641 411.888 79.6641 411.896C80.6784 413.731 121.54 436.117 123.228 436.419C124.916 436.72 125.907 431.935 125.016 429.798C124.126 427.661 112.302 412.097 112.302 412.097L125.752 384.763L99.634 370.5Z" fill="#D3766A"/>
<path d="M88.7237 392.15C88.7237 392.15 85.9206 397.718 85.9051 397.733C83.2569 402.929 81.0269 407.521 80.0977 410.006C80.0943 410.022 80.0943 410.038 80.0977 410.053C79.8825 410.632 79.737 411.235 79.6641 411.849C79.6641 411.849 79.6641 411.888 79.6641 411.896C80.6784 413.731 121.54 436.117 123.228 436.419C124.916 436.721 125.907 431.935 125.016 429.798C124.126 427.661 112.302 412.097 112.302 412.097L115.237 406.46L88.7237 392.15Z" fill="white"/>
<path d="M114.818 413.412C112.294 411.538 108.693 410.315 105.604 411.252C105.48 411.252 105.534 411.461 105.604 411.476C108.678 411.925 111.694 412.704 114.601 413.799C114.627 413.814 114.655 413.823 114.684 413.826C114.713 413.83 114.742 413.827 114.77 413.819C114.798 413.811 114.824 413.798 114.847 413.78C114.87 413.762 114.889 413.74 114.903 413.714C114.918 413.689 114.927 413.661 114.93 413.632C114.934 413.603 114.931 413.574 114.923 413.546C114.915 413.518 114.902 413.491 114.884 413.469C114.866 413.446 114.844 413.427 114.818 413.412Z" fill="#417BFF"/>
<path d="M116.243 415.597C113.718 413.731 110.11 412.5 107.028 413.436C106.904 413.475 106.958 413.646 107.028 413.661C110.102 414.112 113.118 414.89 116.026 415.984C116.051 415.998 116.079 416.007 116.108 416.011C116.137 416.014 116.166 416.012 116.194 416.004C116.222 415.996 116.249 415.983 116.272 415.965C116.294 415.947 116.313 415.924 116.328 415.899C116.342 415.873 116.351 415.845 116.354 415.816C116.358 415.788 116.356 415.758 116.348 415.73C116.34 415.702 116.326 415.676 116.308 415.653C116.29 415.63 116.268 415.611 116.243 415.597Z" fill="#417BFF"/>
<path d="M117.66 417.789C115.136 415.915 111.527 414.692 108.438 415.629C108.321 415.629 108.376 415.83 108.476 415.846C111.549 416.284 114.565 417.049 117.474 418.13C117.519 418.155 117.572 418.16 117.622 418.146C117.671 418.131 117.713 418.098 117.737 418.053C117.762 418.007 117.768 417.954 117.753 417.905C117.739 417.855 117.705 417.814 117.66 417.789Z" fill="#417BFF"/>
<path d="M123.22 436.42C121.532 436.118 80.6709 413.74 79.6565 411.897C79.2616 411.208 82.1731 405.059 85.9131 397.734L86.0293 397.51L112.55 411.657L112.294 412.098C112.294 412.098 124.103 427.662 125.009 429.799C125.915 431.936 124.885 436.729 123.22 436.42Z" fill="#080056"/>
<path d="M123.631 434.585C116.832 430.644 89.0568 415.382 82.0336 412.006C81.9794 412.006 81.9562 412.006 82.0336 412.045C88.6851 416.102 116.592 431.132 123.592 434.701C123.716 434.771 123.77 434.67 123.631 434.585Z" fill="#417BFF"/>
<path d="M118.69 403.137C119.015 402.982 136.84 369.539 143.538 352.535C150.236 335.53 158.769 299.16 160.442 291.711C160.442 291.711 165.785 275.21 167.372 261.156H131.312C131.312 261.156 125.38 275.636 126.735 295.846C126.82 297.093 116.088 338.643 113.053 344.172C108.407 352.635 89.2579 387 88.6616 387.31L118.69 403.137Z" fill="#455A64"/>
<path d="M153.147 272.193C151.25 280.37 149.601 288.609 147.859 296.817C146.116 305.024 144.366 313.317 142.616 321.595C141.757 325.66 140.921 329.741 140.022 333.798C139.177 337.8 137.999 341.724 136.499 345.529C134.951 349.285 133.216 352.955 131.489 356.618C129.763 360.28 127.989 363.982 126.201 367.644C122.587 375.006 118.888 382.315 115.105 389.573C114.64 390.471 114.168 391.362 113.695 392.252C113.657 392.322 113.757 392.384 113.796 392.314C117.807 385.175 121.694 377.958 125.411 370.633C129.128 363.308 132.744 356.006 136.058 348.534C137.708 344.841 139.031 341.012 140.015 337.089C140.998 333.094 141.772 329.036 142.616 325.002L147.797 300.107C149.516 291.845 151.242 283.591 152.923 275.329C153.132 274.307 153.333 273.292 153.527 272.232C153.534 272.046 153.201 271.953 153.147 272.193Z" fill="#417BFF"/>
<path d="M93.1387 382.803C93.9131 383.105 94.7493 383.578 95.5314 383.949C96.3135 384.321 97.2814 384.832 98.1641 385.258C99.8677 386.079 101.563 386.923 103.251 387.79C106.643 389.517 110.011 391.329 113.318 393.21L116.043 394.759C117.011 395.316 117.948 395.928 118.939 396.447C119.017 396.447 118.939 396.579 118.893 396.54C117.197 395.634 115.401 394.875 113.674 394.031C111.947 393.187 110.282 392.351 108.602 391.491C105.211 389.749 101.842 387.929 98.5358 386.017C97.6221 385.49 96.7006 384.987 95.7947 384.468C95.3069 384.189 94.8268 383.903 94.3467 383.616C93.8998 383.381 93.4656 383.123 93.0458 382.842C92.9684 382.865 93.0303 382.772 93.1387 382.803Z" fill="#417BFF"/>
<path d="M152.412 390.91C152.412 390.91 152.667 421.38 152.667 421.403C152.667 427.226 152.807 432.337 153.116 434.977C153.111 434.99 153.111 435.003 153.116 435.016C153.117 435.641 153.26 436.258 153.534 436.82C155.277 437.989 201.852 439.205 203.494 438.694C205.136 438.183 203.819 433.483 202.054 431.996C200.288 430.509 182.703 422.108 182.703 422.108L182.185 391.638L152.412 390.91Z" fill="#D3766A"/>
<path d="M152.613 415.141C152.613 415.141 152.667 421.374 152.667 421.397C152.667 427.22 152.807 432.331 153.117 434.971C153.112 434.984 153.112 434.997 153.117 435.01C153.185 435.628 153.325 436.236 153.535 436.822C155.277 437.991 201.853 439.207 203.494 438.696C205.136 438.185 203.82 433.484 202.054 431.998C200.289 430.511 182.704 422.11 182.704 422.11V415.752L152.613 415.141Z" fill="white"/>
<path d="M185.553 422.108C182.456 421.597 178.685 422.147 176.37 424.431C176.285 424.516 176.408 424.648 176.509 424.609C179.441 423.594 182.473 422.896 185.553 422.526C185.609 422.526 185.662 422.504 185.701 422.465C185.74 422.426 185.762 422.372 185.762 422.317C185.762 422.261 185.74 422.208 185.701 422.169C185.662 422.13 185.609 422.108 185.553 422.108Z" fill="#417BFF"/>
<path d="M187.815 423.412C184.718 422.901 180.947 423.458 178.631 425.735C178.538 425.82 178.631 425.944 178.763 425.913C181.696 424.894 184.731 424.195 187.815 423.83C187.87 423.83 187.923 423.808 187.963 423.769C188.002 423.729 188.024 423.676 188.024 423.621C188.024 423.565 188.002 423.512 187.963 423.473C187.923 423.434 187.87 423.412 187.815 423.412Z" fill="#417BFF"/>
<path d="M190.076 424.709C186.979 424.198 183.208 424.748 180.893 427.032C180.8 427.118 180.893 427.249 181.024 427.21C183.956 426.196 186.988 425.498 190.068 425.128C190.124 425.129 190.177 425.108 190.217 425.069C190.257 425.031 190.28 424.978 190.281 424.922C190.282 424.867 190.261 424.813 190.223 424.773C190.184 424.733 190.132 424.71 190.076 424.709Z" fill="#417BFF"/>
<path d="M203.549 438.735C201.907 439.238 155.331 438.03 153.589 436.853C152.923 436.42 152.698 429.621 152.667 421.367V421.111L182.719 421.553V422.064C182.719 422.064 200.343 430.496 202.124 431.991C203.905 433.485 205.19 438.232 203.549 438.735Z" fill="#080056"/>
<path d="M203.092 436.915C195.248 436.513 163.563 435.653 155.773 435.862C155.711 435.862 155.711 435.909 155.773 435.909C163.516 436.474 195.264 437.078 203.092 437.039C203.232 437.039 203.232 436.923 203.092 436.915Z" fill="#417BFF"/>
<path d="M146.9 293.419C146.9 293.419 152.033 343.82 152.119 345.004C152.119 345.477 151.429 411.542 151.429 411.542L183.308 412.448C183.308 412.448 183.579 350.657 183.061 343.533C182.999 342.705 179.909 290.159 170.021 261.152H132.28C132.28 261.152 132.613 278.188 140.364 290.515C142.595 291.36 144.777 292.329 146.9 293.419Z" fill="#455A64"/>
<path d="M174.892 350.646C174.745 341.355 174.358 332.016 173.63 322.724C172.902 313.432 171.764 304.373 170.261 295.267C168.823 286.098 166.822 277.026 164.268 268.103C163.935 266.988 163.602 265.873 163.262 264.758C163.248 264.733 163.226 264.714 163.2 264.703C163.174 264.692 163.144 264.69 163.117 264.699C163.09 264.707 163.066 264.724 163.05 264.748C163.034 264.771 163.027 264.799 163.029 264.828C165.43 273.764 167.505 282.769 169.077 291.883C170.649 300.997 171.686 310.281 172.468 319.534C173.25 328.787 173.699 338.118 173.932 347.41C174.164 356.702 174.187 365.994 174.094 375.286C174.001 384.578 173.645 388.201 173.614 397.493C173.614 398.663 173.614 399.816 173.576 400.986C173.576 401.071 173.699 401.063 173.699 400.986C173.87 396.34 174.149 391.694 174.303 386.993C174.458 382.293 174.598 383.315 174.706 378.638C174.923 369.354 175.039 360 174.892 350.646Z" fill="#417BFF"/>
<path d="M151.939 295.733C150.081 294.718 148.184 293.805 146.24 292.976C144.297 292.148 142.299 291.389 140.363 290.521C140.286 290.521 140.224 290.599 140.301 290.638C142.206 291.621 144.072 292.674 146 293.603C147.895 294.512 149.851 295.288 151.854 295.926C151.986 295.981 152.048 295.795 151.939 295.733Z" fill="#417BFF"/>
<path d="M149.593 315.823C149.121 311.069 148.61 306.322 148.044 301.583C147.874 300.244 147.704 298.904 147.526 297.572C147.396 296.282 147.184 295.002 146.891 293.739C146.891 293.67 146.774 293.693 146.774 293.739C146.781 294.956 146.861 296.171 147.014 297.379C147.131 298.525 147.231 299.702 147.347 300.817C147.572 303.14 147.781 305.532 148.021 307.886C148.501 312.61 148.919 317.333 149.399 322.049C149.678 324.736 149.926 327.415 150.313 330.086C150.313 330.127 150.329 330.167 150.358 330.196C150.387 330.225 150.427 330.241 150.468 330.241C150.509 330.241 150.548 330.225 150.577 330.196C150.607 330.167 150.623 330.127 150.623 330.086C150.514 325.316 150.058 320.562 149.593 315.823Z" fill="#417BFF"/>
<path d="M153.597 405.077C154.449 405 155.378 405.077 156.245 405.077C157.229 405.077 158.212 405.116 159.196 405.116C161.085 405.116 162.977 405.137 164.871 405.178C168.681 405.263 172.499 405.434 176.301 405.705L179.444 405.937C180.559 406.022 181.674 406.161 182.789 406.2C182.875 406.2 182.867 406.309 182.789 406.301C180.869 406.223 178.918 406.301 177.005 406.301C175.093 406.301 173.219 406.254 171.329 406.208C167.52 406.115 163.695 405.937 159.9 405.65C158.847 405.565 157.802 405.511 156.757 405.441L155.084 405.302C154.581 405.263 154.085 405.302 153.59 405.201C153.535 405.163 153.535 405.077 153.597 405.077Z" fill="#417BFF"/>
<path d="M155.317 223.357C156.912 228.777 165.383 245.123 174.025 247.361C181.768 249.351 202.675 231.611 208.405 222.737C210.426 219.64 194.746 215.768 191.501 216.651C188.714 217.426 176.541 229.815 175.465 229.42C173.645 228.723 169.402 224.983 162.503 219.152C156.014 213.655 154.194 219.539 155.317 223.357Z" fill="#D3766A"/>
<path d="M187.746 218.199L207.05 226.322C207.05 226.322 185.067 250.388 173.808 248.057C171.214 247.523 159.801 238.703 155.147 224.936C153.707 220.669 153.97 211.772 163.618 219.67C173.266 227.568 175.272 228.738 175.651 228.699C176.031 228.66 187.746 218.199 187.746 218.199Z" fill="#A6A6A6"/>
<path d="M203.092 229.168C201.668 228.332 200.119 227.681 198.625 226.992C197.13 226.303 195.674 225.637 194.195 224.971C191.199 223.632 188.218 222.207 185.143 221.1C185.13 221.096 185.115 221.097 185.102 221.103C185.089 221.109 185.079 221.119 185.072 221.132C185.066 221.145 185.064 221.159 185.067 221.173C185.07 221.187 185.078 221.199 185.089 221.208C187.962 222.85 191.013 224.197 194.025 225.568C195.527 226.249 197.042 226.915 198.57 227.565C200.031 228.233 201.527 228.817 203.054 229.315C203.092 229.3 203.139 229.199 203.092 229.168Z" fill="#417BFF"/>
<path d="M251.317 237.502L251.588 236.403C251.823 235.424 251.661 234.392 251.137 233.533C250.613 232.674 249.77 232.057 248.792 231.819L150.066 207.814L148.006 216.293L246.733 240.297C247.217 240.415 247.72 240.436 248.213 240.36C248.706 240.283 249.178 240.11 249.604 239.85C250.03 239.59 250.4 239.249 250.694 238.847C250.988 238.444 251.199 237.987 251.317 237.502Z" fill="#080056"/>
<path opacity="0.2" d="M251.317 237.502L251.588 236.403C251.823 235.424 251.661 234.392 251.137 233.533C250.613 232.674 249.77 232.057 248.792 231.819L150.066 207.814L148.006 216.293L246.733 240.297C247.217 240.415 247.72 240.436 248.213 240.36C248.706 240.283 249.178 240.11 249.604 239.85C250.03 239.59 250.4 239.249 250.694 238.847C250.988 238.444 251.199 237.987 251.317 237.502Z" fill="black"/>
<path opacity="0.1" d="M150.058 207.83L147.999 216.311L159.956 219.214L162.015 210.734L150.058 207.83Z" fill="black"/>
<path d="M123.289 234.165C125.815 234.779 128.438 234.89 131.007 234.49C133.576 234.091 136.042 233.189 138.262 231.836C140.483 230.484 142.415 228.707 143.949 226.607C145.482 224.507 146.587 222.126 147.2 219.599L150.855 204.562C151.525 202.016 151.681 199.362 151.314 196.755C150.946 194.148 150.062 191.641 148.714 189.38C147.365 187.118 145.579 185.149 143.461 183.586C141.342 182.023 138.933 180.899 136.374 180.278C133.816 179.658 131.159 179.554 128.56 179.973C125.961 180.391 123.471 181.324 121.237 182.716C119.002 184.109 117.068 185.933 115.547 188.082C114.026 190.231 112.949 192.661 112.379 195.231L108.724 210.277C107.49 215.376 108.331 220.756 111.062 225.235C113.793 229.715 118.191 232.926 123.289 234.165ZM124.737 228.21C117.768 226.522 113.3 220.304 114.756 214.319C115.848 209.843 119.936 206.769 124.822 206.211C120.718 203.462 118.488 198.855 119.58 194.38C121.028 188.402 127.85 184.91 134.819 186.598C141.788 188.286 146.248 194.527 144.8 200.536C143.716 205.011 139.627 208.077 134.733 208.643C138.845 211.392 141.067 215.999 139.983 220.474C138.528 226.429 131.698 229.906 124.737 228.21Z" fill="#080056"/>
<path opacity="0.2" d="M123.289 234.165C125.815 234.779 128.438 234.89 131.007 234.49C133.576 234.091 136.042 233.189 138.262 231.836C140.483 230.484 142.415 228.707 143.949 226.607C145.482 224.507 146.587 222.126 147.2 219.599L150.855 204.562C151.525 202.016 151.681 199.362 151.314 196.755C150.946 194.148 150.062 191.641 148.714 189.38C147.365 187.118 145.579 185.149 143.461 183.586C141.342 182.023 138.933 180.899 136.374 180.278C133.816 179.658 131.159 179.554 128.56 179.973C125.961 180.391 123.471 181.324 121.237 182.716C119.002 184.109 117.068 185.933 115.547 188.082C114.026 190.231 112.949 192.661 112.379 195.231L108.724 210.277C107.49 215.376 108.331 220.756 111.062 225.235C113.793 229.715 118.191 232.926 123.289 234.165ZM124.737 228.21C117.768 226.522 113.3 220.304 114.756 214.319C115.848 209.843 119.936 206.769 124.822 206.211C120.718 203.462 118.488 198.855 119.58 194.38C121.028 188.402 127.85 184.91 134.819 186.598C141.788 188.286 146.248 194.527 144.8 200.536C143.716 205.011 139.627 208.077 134.733 208.643C138.845 211.392 141.067 215.999 139.983 220.474C138.528 226.429 131.698 229.906 124.737 228.21Z" fill="black"/>
<path d="M151.019 220.97L154.873 205.101C155.101 204.162 154.525 203.215 153.586 202.987L153.074 202.863C152.135 202.635 151.188 203.212 150.96 204.151L147.107 220.02C146.878 220.959 147.455 221.905 148.394 222.134L148.906 222.258C149.845 222.486 150.791 221.909 151.019 220.97Z" fill="#080056"/>
<path opacity="0.2" d="M151.019 220.97L154.873 205.101C155.101 204.162 154.525 203.215 153.586 202.987L153.074 202.863C152.135 202.635 151.188 203.212 150.96 204.151L147.107 220.02C146.878 220.959 147.455 221.905 148.394 222.134L148.906 222.258C149.845 222.486 150.791 221.909 151.019 220.97Z" fill="black"/>
<path d="M154.933 221.916L158.787 206.046C159.015 205.107 158.438 204.161 157.499 203.933L156.987 203.808C156.048 203.58 155.102 204.157 154.874 205.096L151.02 220.965C150.792 221.905 151.368 222.851 152.308 223.079L152.819 223.203C153.759 223.431 154.705 222.855 154.933 221.916Z" fill="#080056"/>
<path opacity="0.2" d="M154.933 221.916L158.787 206.046C159.015 205.107 158.438 204.161 157.499 203.933L156.987 203.808C156.048 203.58 155.102 204.157 154.874 205.096L151.02 220.965C150.792 221.905 151.368 222.851 152.308 223.079L152.819 223.203C153.759 223.431 154.705 222.855 154.933 221.916Z" fill="black"/>
<path d="M221.831 237.936L224.781 238.656L222.698 247.22L225.215 247.831L226.307 243.364L229.241 244.084L228.165 248.544L230.395 249.086L232.106 242.032L235.057 242.744L233.345 249.806L236.512 250.573L238.804 241.141L241.755 241.861L239.463 251.293L242.451 252.021L245.386 239.964L219.036 233.568L216.109 245.617L219.748 246.507L221.831 237.936Z" fill="#080056"/>
<path opacity="0.2" d="M221.831 237.936L224.781 238.656L222.698 247.22L225.215 247.831L226.307 243.364L229.241 244.084L228.165 248.544L230.395 249.086L232.106 242.032L235.057 242.744L233.345 249.806L236.512 250.573L238.804 241.141L241.755 241.861L239.463 251.293L242.451 252.021L245.386 239.964L219.036 233.568L216.109 245.617L219.748 246.507L221.831 237.936Z" fill="black"/>
<path d="M184.322 213.575C187.365 212.654 191.407 209.789 193.769 209.859C194.353 209.854 194.923 210.038 195.394 210.382C195.865 210.727 196.213 211.214 196.386 211.771C196.386 211.771 197.888 209.634 200.026 210.052C201.117 210.261 201.745 212.205 201.745 212.205C202.111 211.738 202.599 211.381 203.155 211.174C203.711 210.966 204.313 210.916 204.896 211.028C206.391 211.423 206.793 213.312 206.793 213.312C206.793 213.312 208.768 212.282 210.162 213.173C212.988 214.961 211.021 228.079 205.887 229.372C203.495 229.983 204.145 226.801 204.145 226.801C204.145 226.801 202.101 231.145 199.391 230.804C196.681 230.464 197.78 226.391 197.78 226.391C197.78 226.391 195.759 230.58 192.979 229.945C190.199 229.31 191.887 225.399 191.887 225.399C191.887 225.399 189.472 228.017 187.458 227.049C184.129 225.446 189.348 220.583 189.1 217.602L184.586 215.279L184.322 213.575Z" fill="#D3766A"/>
<path d="M188.844 211.572C185.886 212.191 182.944 208.203 180.024 208.389C176.083 208.645 179.18 213.507 184.585 215.296L189.03 215.947L188.844 211.572Z" fill="#D3766A"/>
<path d="M206.901 213.599C206.901 213.553 206.963 213.553 206.971 213.599C207.406 218.245 206.414 222.912 204.129 226.98C204.059 227.111 203.819 227.042 203.874 226.887C205.521 222.628 206.541 218.152 206.901 213.599Z" fill="#417BFF"/>
<path d="M201.784 212.151C201.784 212.097 201.869 212.105 201.877 212.151C202.305 217.278 200.885 222.39 197.873 226.561C197.765 226.701 197.525 226.716 197.633 226.561C199.546 223.627 201.544 216.425 201.784 212.151Z" fill="#417BFF"/>
<path d="M191.563 225.633C194.466 221.529 195.759 216.906 196.41 211.966C196.41 211.896 196.51 211.919 196.518 211.966C196.859 214.467 196.116 217.572 195.334 219.941C194.648 222.153 193.396 224.147 191.702 225.726C191.632 225.795 191.477 225.718 191.563 225.633Z" fill="#417BFF"/>
<path d="M161.588 226.12C159.544 226.027 155.672 221.853 154.317 218.501C154.597 216.744 154.964 215.002 155.417 213.282C155.773 211.609 156.129 209.743 156.331 208.016C156.331 207.66 157.5 208.45 157.5 208.45L159.676 209.224L166.869 211.888C166 213.977 165.386 216.163 165.042 218.4C165.023 218.639 165.023 218.88 165.042 219.12C165.042 219.12 165.042 219.19 165.042 219.236C165.104 220.645 164.779 226.275 161.588 226.12Z" fill="#D3766A"/>
<path d="M165.035 219.152C165.035 219.152 165.035 219.221 165.035 219.268C164.659 219.274 164.284 219.25 163.912 219.198C156.625 218.184 156.796 208.791 156.796 208.791L159.669 209.256L166.862 211.919C165.992 214.008 165.379 216.195 165.035 218.431C165.015 218.671 165.015 218.912 165.035 219.152Z" fill="#417BFF"/>
<path d="M157.847 193.335C155.787 196.819 155.145 208.171 157.235 211.245C160.271 215.697 166.527 217.563 170.654 213.622C174.642 209.805 175.215 194.999 172.753 192.072C169.137 187.759 160.89 188.185 157.847 193.335Z" fill="#D3766A"/>
<path d="M167.55 202.33C167.55 202.33 167.496 202.33 167.496 202.392C167.496 203.166 167.387 204.041 166.721 204.281C166.721 204.281 166.721 204.328 166.721 204.32C167.542 204.219 167.689 203.05 167.55 202.33Z" fill="#417BFF"/>
<path d="M166.884 201.52C165.652 201.403 165.513 203.843 166.651 203.974C167.79 204.106 167.914 201.613 166.884 201.52Z" fill="#417BFF"/>
<path d="M171.631 202.426C171.631 202.426 171.685 202.465 171.685 202.495C171.615 203.27 171.685 204.145 172.343 204.439C172.343 204.439 172.343 204.485 172.343 204.478C171.499 204.315 171.445 203.138 171.631 202.426Z" fill="#417BFF"/>
<path d="M172.36 201.666C173.591 201.666 173.553 204.113 172.407 204.136C171.261 204.159 171.346 201.689 172.36 201.666Z" fill="#417BFF"/>
<path d="M165.97 200.335C166.3 200.256 166.626 200.161 166.946 200.049C167.304 199.999 167.636 199.833 167.891 199.576C167.955 199.48 167.984 199.365 167.975 199.249C167.965 199.134 167.916 199.026 167.836 198.941C167.659 198.795 167.446 198.698 167.218 198.661C166.991 198.624 166.758 198.649 166.543 198.732C166.077 198.836 165.668 199.113 165.397 199.507C165.345 199.598 165.319 199.703 165.323 199.808C165.328 199.913 165.362 200.015 165.422 200.102C165.482 200.189 165.565 200.257 165.662 200.298C165.759 200.339 165.866 200.352 165.97 200.335Z" fill="#417BFF"/>
<path d="M173.273 200.752C172.945 200.665 172.622 200.562 172.305 200.442C171.95 200.378 171.624 200.201 171.376 199.939C171.316 199.84 171.291 199.724 171.303 199.61C171.316 199.495 171.366 199.387 171.446 199.304C171.627 199.161 171.844 199.07 172.073 199.04C172.302 199.01 172.534 199.042 172.746 199.133C173.203 199.245 173.603 199.52 173.869 199.908C173.929 200.001 173.96 200.11 173.957 200.221C173.955 200.332 173.919 200.44 173.855 200.531C173.791 200.621 173.702 200.691 173.598 200.73C173.494 200.77 173.381 200.777 173.273 200.752Z" fill="#417BFF"/>
<path d="M165.986 209.379C166.164 209.572 166.327 209.828 166.606 209.867C166.892 209.879 167.177 209.829 167.442 209.719C167.442 209.719 167.489 209.719 167.442 209.719C167.324 209.865 167.169 209.976 166.993 210.04C166.817 210.104 166.627 210.119 166.443 210.083C166.289 210.034 166.153 209.939 166.053 209.813C165.952 209.686 165.891 209.532 165.878 209.371C165.924 209.363 165.963 209.356 165.986 209.379Z" fill="#417BFF"/>
<path d="M169.201 208.17C168.852 208.572 168.407 208.878 167.908 209.061C167.633 209.15 167.338 209.15 167.064 209.061C166.46 208.867 166.475 208.286 166.614 207.837C166.691 207.586 166.798 207.344 166.932 207.117C167.557 207.701 168.352 208.07 169.201 208.17Z" fill="#417BFF"/>
<path d="M167.908 209.061C167.633 209.151 167.338 209.151 167.064 209.061C166.46 208.868 166.475 208.287 166.614 207.838C166.936 207.866 167.239 208.002 167.474 208.224C167.709 208.446 167.862 208.741 167.908 209.061Z" fill="#D3766A"/>
<path d="M156.107 205.243C158.259 204.662 159.452 197.5 159.452 197.5C159.452 197.5 159.39 200.558 159.963 200.489C160.536 200.419 162.944 196.307 163.246 193.342C164.927 194.481 166.749 195.397 168.666 196.067C171.369 196.919 174.381 196.78 174.389 196.315C174.389 194.937 173.204 191.328 171.353 190.027C170.003 188.978 168.401 188.303 166.707 188.071C165.013 187.838 163.288 188.057 161.705 188.703C157.237 190.345 156.037 193.187 155.348 195.386C154.659 197.585 155.317 205.46 156.107 205.243Z" fill="#417BFF"/>
<path d="M165.149 206.329C164.491 206.193 163.884 205.876 163.397 205.412C162.91 204.949 162.563 204.358 162.395 203.708C162.227 203.057 162.245 202.372 162.447 201.731C162.648 201.09 163.026 200.518 163.537 200.081C164.047 199.644 164.67 199.358 165.335 199.257C165.999 199.157 166.679 199.244 167.296 199.51C167.913 199.776 168.443 200.21 168.826 200.763C169.209 201.315 169.43 201.964 169.462 202.635C169.506 203.588 169.171 204.519 168.529 205.225C167.888 205.93 166.992 206.352 166.04 206.398C165.741 206.415 165.442 206.391 165.149 206.329ZM166.497 199.747C166.242 199.698 165.982 199.679 165.722 199.693C164.936 199.737 164.195 200.079 163.652 200.649C163.109 201.22 162.803 201.976 162.798 202.763C162.792 203.551 163.087 204.311 163.622 204.89C164.157 205.468 164.893 205.82 165.679 205.875C166.464 205.93 167.242 205.684 167.852 205.186C168.463 204.688 168.861 203.976 168.965 203.195C169.069 202.414 168.872 201.623 168.413 200.982C167.955 200.342 167.269 199.9 166.497 199.747Z" fill="#080056"/>
<path d="M173.374 206.985C172.027 206.707 171.051 205.08 171.245 203.207C171.304 202.312 171.643 201.459 172.213 200.767C172.44 200.456 172.744 200.208 173.095 200.048C173.446 199.888 173.832 199.821 174.217 199.854C174.601 199.886 174.971 200.018 175.29 200.235C175.609 200.452 175.866 200.747 176.038 201.093C176.479 201.873 176.668 202.771 176.58 203.663C176.41 205.638 175.078 207.148 173.606 207.016C173.528 207.014 173.45 207.003 173.374 206.985ZM174.358 200.357C174.296 200.35 174.233 200.35 174.172 200.357C173.863 200.348 173.557 200.413 173.279 200.548C173.001 200.683 172.76 200.883 172.577 201.131C172.074 201.749 171.774 202.506 171.717 203.3C171.578 205.011 172.437 206.49 173.645 206.59C174.853 206.691 175.968 205.39 176.1 203.679C176.189 202.874 176.024 202.062 175.627 201.356C175.498 201.109 175.318 200.893 175.099 200.721C174.88 200.549 174.628 200.425 174.358 200.357Z" fill="#080056"/>
<path d="M169.3 203.039L169.021 202.644C169.61 202.234 170.919 201.73 171.708 202.737L171.337 203.039C170.624 202.133 169.354 202.977 169.3 203.039Z" fill="#080056"/>
<path d="M153.248 202.595L152.845 202.34C152.961 202.154 154.045 200.482 155.129 200.404C156.214 200.327 162.517 201.48 162.788 201.527L162.695 201.999C160.875 201.666 155.95 200.822 155.16 200.884C154.371 200.946 153.534 202.139 153.248 202.595Z" fill="#080056"/>
<path d="M158.026 202.759C158.026 202.759 156.338 198.678 154.542 199.212C152.745 199.747 153.473 205.268 155.2 206.383C155.412 206.54 155.653 206.654 155.91 206.716C156.166 206.778 156.432 206.788 156.693 206.744C156.953 206.701 157.202 206.605 157.425 206.463C157.647 206.321 157.839 206.136 157.988 205.918L158.026 202.759Z" fill="#D3766A"/>
<path d="M154.789 200.791C154.789 200.791 154.742 200.791 154.789 200.837C155.997 201.658 156.415 203.037 156.624 204.415C156.578 204.261 156.498 204.12 156.39 204.001C156.282 203.882 156.15 203.789 156.002 203.727C155.853 203.666 155.694 203.638 155.533 203.646C155.373 203.653 155.217 203.697 155.075 203.772C155.037 203.772 155.075 203.85 155.075 203.857C155.322 203.833 155.57 203.886 155.786 204.01C156.001 204.134 156.172 204.321 156.275 204.547C156.45 204.926 156.582 205.323 156.67 205.731C156.67 205.863 156.926 205.847 156.918 205.731V205.693C157.344 203.997 156.554 201.356 154.789 200.791Z" fill="#417BFF"/>
<path d="M169.076 188.611C167.717 187.732 166.234 187.059 164.678 186.613C162.936 186.149 157.275 185.839 155.773 186.753C154.271 187.666 153.203 192.947 153.063 193.722C152.924 194.496 152.63 199.204 154.163 200.559C155.696 201.914 156.943 194.008 159.97 191.747C162.998 189.486 169.076 188.611 169.076 188.611Z" fill="#080056"/>
<path opacity="0.1" d="M169.076 188.611C169.076 188.611 162.997 189.448 159.978 191.709C156.958 193.97 155.703 201.875 154.162 200.52C153.465 199.81 153.078 198.852 153.086 197.857C153.76 195.588 155.184 192.119 157.461 189.897C159.583 187.814 162.881 187.055 166.242 187.132C167.226 187.546 168.174 188.041 169.076 188.611Z" fill="black"/>
<path d="M153.985 205.299C154.426 203.208 157.345 197.842 160.04 194.907C162.735 191.972 169.618 190.989 170.54 191.167C172.77 191.609 173.018 192.801 173.405 192.646C173.792 192.491 172.12 190.075 171.539 189.611C170.958 189.146 169.378 188.023 168.403 187.915C167.427 187.807 161.31 187.574 158.77 189.851C156.23 192.127 152.142 198.895 152.459 200.823C152.537 201.28 153.087 201.644 153.187 202.302C153.319 203.154 153.358 204.129 153.528 204.741C153.667 205.237 153.946 205.477 153.985 205.299Z" fill="#080056"/>
<path d="M160.759 193.528C160.283 193.142 159.843 192.714 159.443 192.25C159.027 191.795 158.668 191.29 158.375 190.748C158.375 190.709 158.289 190.748 158.313 190.748C158.528 191.348 158.842 191.908 159.242 192.405C159.647 192.89 160.138 193.297 160.69 193.605C160.752 193.682 160.806 193.566 160.759 193.528Z" fill="#417BFF"/>
<path d="M154.247 203.185C154.199 203.027 154.142 202.872 154.077 202.72C154.017 202.542 153.975 202.358 153.953 202.171C153.958 201.814 153.925 201.459 153.853 201.11C153.748 200.837 153.613 200.577 153.45 200.335C153.248 200.074 153.144 199.751 153.156 199.422C153.156 199.375 153.094 199.36 153.086 199.422C153.099 200.031 153.264 200.627 153.566 201.156C153.651 201.527 153.698 201.906 153.705 202.287C153.745 202.646 153.9 202.983 154.147 203.247C154.185 203.27 154.263 203.239 154.247 203.185Z" fill="#417BFF"/>
<path d="M155.294 201.001C155.115 200.752 154.949 200.494 154.798 200.227C154.663 199.951 154.546 199.666 154.45 199.375C154.357 199.088 154.279 198.794 154.186 198.508C154.093 198.221 153.931 197.834 153.846 197.493C153.846 197.447 153.768 197.493 153.776 197.493C153.869 197.849 153.9 198.221 153.985 198.585C154.058 198.899 154.154 199.207 154.272 199.507C154.376 199.795 154.508 200.072 154.666 200.335C154.815 200.604 155.018 200.838 155.263 201.024C155.263 201.024 155.301 201.024 155.294 201.001Z" fill="#417BFF"/>
<path d="M156.339 199.043C155.948 198.607 155.622 198.116 155.371 197.587C155.131 197.069 154.914 196.534 154.713 196.039C154.713 196 154.635 196.039 154.643 196.039C154.739 196.626 154.911 197.199 155.154 197.742C155.27 198.017 155.418 198.277 155.596 198.517C155.801 198.751 156.032 198.962 156.285 199.144C156.285 199.144 156.37 199.105 156.339 199.043Z" fill="#417BFF"/>
<path d="M157.445 197.173C157.245 196.992 157.082 196.773 156.965 196.53C156.818 196.275 156.67 196.004 156.531 195.756C156.392 195.508 156.268 195.245 156.136 194.982C155.986 194.729 155.894 194.446 155.865 194.153C155.865 194.114 155.795 194.107 155.795 194.153C155.778 194.445 155.82 194.738 155.919 195.013C156.016 195.323 156.14 195.623 156.291 195.911C156.436 196.192 156.599 196.464 156.779 196.724C156.922 196.97 157.138 197.165 157.398 197.281C157.405 197.284 157.413 197.286 157.421 197.286C157.429 197.286 157.436 197.285 157.443 197.282C157.451 197.279 157.457 197.275 157.463 197.269C157.468 197.264 157.473 197.258 157.476 197.25C157.479 197.243 157.48 197.236 157.481 197.228C157.481 197.22 157.479 197.212 157.476 197.205C157.473 197.198 157.469 197.192 157.464 197.186C157.458 197.18 157.452 197.176 157.445 197.173Z" fill="#417BFF"/>
<path d="M158.398 194.751C158.228 194.535 158.057 194.318 157.903 194.085C157.748 193.853 157.616 193.613 157.477 193.373C157.337 193.133 157.182 192.87 157.059 192.599C157.059 192.552 156.981 192.599 156.989 192.599C157.065 192.879 157.16 193.153 157.275 193.42C157.397 193.687 157.537 193.946 157.693 194.194C157.845 194.433 158.011 194.663 158.189 194.883C158.359 195.113 158.572 195.307 158.816 195.456C158.816 195.456 158.901 195.456 158.878 195.394C158.74 195.164 158.579 194.949 158.398 194.751Z" fill="#417BFF"/>
<path d="M162.541 192.546C162.375 192.258 162.194 191.979 161.999 191.71C161.796 191.438 161.576 191.179 161.341 190.935C160.894 190.44 160.396 189.993 159.854 189.604C159.854 189.604 159.777 189.604 159.808 189.658C160.683 190.649 161.612 191.601 162.487 192.608C162.51 192.623 162.564 192.585 162.541 192.546Z" fill="#417BFF"/>
<path d="M164.065 190.912C163.887 190.63 163.676 190.37 163.438 190.137C162.93 189.657 162.369 189.236 161.765 188.883C161.726 188.883 161.688 188.883 161.726 188.937C162.222 189.371 162.725 189.804 163.198 190.269C163.43 190.501 163.662 190.741 163.871 190.997C164.08 191.252 164.22 191.546 164.421 191.81H164.468C164.391 191.488 164.254 191.183 164.065 190.912Z" fill="#417BFF"/>
<path d="M167.349 189.447C167.155 189.238 166.946 189.037 166.737 188.835C166.539 188.633 166.312 188.46 166.064 188.324C166.025 188.324 165.994 188.324 166.025 188.386C166.412 188.789 166.799 189.199 167.163 189.61C167.486 190.012 167.763 190.448 167.992 190.91C167.992 190.91 168.038 190.91 168.03 190.91C167.961 190.364 167.722 189.852 167.349 189.447Z" fill="#417BFF"/>
<path d="M169.023 189.322C168.665 188.887 168.229 188.521 167.737 188.246C167.699 188.246 167.668 188.285 167.699 188.308C168.136 188.627 168.523 189.011 168.845 189.446C169.174 189.88 169.457 190.347 169.689 190.84C169.689 190.84 169.743 190.84 169.735 190.84C169.623 190.284 169.379 189.764 169.023 189.322Z" fill="#417BFF"/>
<path d="M170.934 190.585C170.897 190.465 170.85 190.349 170.795 190.237C170.682 190.011 170.55 189.796 170.4 189.594C170.081 189.197 169.723 188.834 169.331 188.51C169.331 188.51 169.254 188.51 169.285 188.564C169.659 188.889 169.992 189.258 170.276 189.664C170.417 189.863 170.544 190.073 170.655 190.291C170.709 190.399 170.756 190.508 170.802 190.616C170.835 190.729 170.879 190.838 170.934 190.941H170.996C170.997 190.82 170.976 190.699 170.934 190.585Z" fill="#417BFF"/>
<path d="M172.188 190.838C171.99 190.476 171.754 190.136 171.483 189.824C171.344 189.669 171.197 189.522 171.058 189.359C171.058 189.359 170.972 189.359 171.011 189.406C171.153 189.563 171.282 189.732 171.398 189.909L171.731 190.405L172.064 190.9C172.162 191.079 172.273 191.25 172.397 191.411C172.397 191.411 172.451 191.411 172.444 191.411C172.384 191.21 172.298 191.017 172.188 190.838Z" fill="#417BFF"/>
<path d="M126.279 276.535C126.38 276.674 174.582 280.616 175.062 280.151C175.24 279.981 176.758 276.411 176.216 270.983C174.713 256.124 168.991 227.682 163.826 219.606C162.069 216.85 155.309 214.62 152.32 217.121C146.079 222.285 133.519 250.122 127.983 265.795C125.799 272.09 126.179 276.419 126.279 276.535Z" fill="#A6A6A6"/>
<path d="M158.111 225.586C160.504 231.897 172.56 255.343 181.341 256.923C191.98 258.836 205.786 257.442 211.942 254.979C215.396 253.601 207.931 236.667 204.671 237.518C199.538 238.858 189.727 238.99 187.776 238.99C185.824 238.99 173.156 226.98 166.025 220.785C159.606 215.225 156.702 221.869 158.111 225.586Z" fill="#D3766A"/>
<path d="M208.613 255.791C218.431 253.716 226.81 246.367 227.971 244.826C228.947 243.51 229.435 242.829 229.435 242.829C231.231 240.506 230.914 238.794 230.914 238.794C230.914 238.794 233.779 236.719 232.811 234.783C231.734 232.608 227.925 235.945 224.704 236.495C217.324 237.765 206.484 237.501 204.323 237.656L208.613 255.791Z" fill="#D3766A"/>
<path d="M217.881 243.239C220.043 242.892 222.18 242.401 224.277 241.768C226.524 240.926 228.705 239.919 230.804 238.756C230.817 238.753 230.831 238.753 230.843 238.758C230.855 238.763 230.865 238.772 230.872 238.783C230.879 238.795 230.882 238.808 230.881 238.821C230.88 238.834 230.875 238.846 230.866 238.856C227.047 241.536 222.567 243.119 217.912 243.433C217.803 243.448 217.803 243.278 217.881 243.239Z" fill="#417BFF"/>
<path d="M217.998 247.814C220.081 247.295 223.736 246.359 229.373 242.766C229.373 242.766 229.419 242.766 229.373 242.766C226.149 245.526 222.221 247.335 218.029 247.992C217.928 248.047 217.858 247.884 217.998 247.814Z" fill="#417BFF"/>
<path d="M215.69 237.462C214.668 237.246 214.777 236.688 216.465 235.914C218.153 235.139 225.455 233.235 224.587 230.741C223.72 228.248 213.445 231.005 210.773 232.6C208.485 234.116 206.328 235.82 204.323 237.695C206.406 237.517 211.555 237.672 215.69 237.462Z" fill="#D3766A"/>
<path d="M200.598 237.292L206.413 258.013C206.413 258.013 187.055 260.622 179.653 257.199C172.25 253.777 163.237 238.035 159.102 228.913C154.967 219.792 158.018 212.606 169.594 223.284C181.17 233.962 186.831 238.151 187.675 238.391C188.519 238.631 200.598 237.292 200.598 237.292Z" fill="#A6A6A6"/>
<path d="M171.755 250.107C171.198 249.186 166.529 242.364 166.087 241.59C165.181 240.095 164.283 238.601 163.408 237.091C161.635 234.048 159.924 230.958 157.988 228.031L157.934 228.07C158.832 230.137 159.862 232.158 160.961 234.141L160.698 233.87C159.911 233.136 159.164 232.36 158.46 231.547C158.414 231.492 158.329 231.547 158.375 231.632C159.08 232.406 159.707 233.297 160.388 234.11C160.713 234.512 161.046 234.884 161.403 235.271L161.844 235.705C162.192 236.309 162.549 236.913 162.913 237.509C163.826 239.058 164.833 240.498 165.785 242C167.458 244.641 171.206 249.465 171.693 250.169C171.717 250.254 171.802 250.208 171.755 250.107Z" fill="#417BFF"/>
<path d="M202.086 257.713C201.83 256.087 201.311 254.484 200.916 252.889C200.521 251.293 200.072 249.753 199.639 248.188C198.756 245.029 197.943 241.823 196.859 238.734C196.862 238.725 196.863 238.714 196.862 238.705C196.861 238.695 196.857 238.685 196.852 238.677C196.846 238.669 196.838 238.662 196.829 238.657C196.821 238.653 196.811 238.65 196.801 238.65C196.791 238.65 196.781 238.653 196.772 238.657C196.763 238.662 196.756 238.669 196.75 238.677C196.744 238.685 196.741 238.695 196.739 238.705C196.738 238.714 196.739 238.725 196.743 238.734C197.316 241.994 198.222 245.2 199.066 248.39C199.507 249.993 199.964 251.58 200.436 253.167C200.858 254.716 201.362 256.241 201.946 257.736C202 257.829 202.101 257.782 202.086 257.713Z" fill="#417BFF"/>
<path d="M194.938 237.756C193.026 237.81 191.129 238.073 189.216 238.12C188.367 238.161 187.527 237.924 186.824 237.446C186.049 236.919 177.741 230.578 176.316 229.331C176.262 229.277 176.177 229.37 176.231 229.416C177.733 230.663 183.084 235.332 184.632 236.586C185.307 237.18 186.027 237.721 186.785 238.205C187.498 238.619 188.332 238.774 189.147 238.646C191.082 238.414 193.018 238.228 194.962 237.91C195.047 237.895 195.024 237.756 194.938 237.756Z" fill="#417BFF"/>
<path d="M161.906 217.825C158.205 215.502 147.744 213.954 143.322 216.548C137.747 219.8 131.521 240.289 133.628 241.652C137.383 244.091 151.615 232.855 154.86 228.078C158.104 223.3 161.906 217.825 161.906 217.825Z" fill="#A6A6A6"/>
<path d="M158.792 223.88C158.064 224.553 157.306 225.219 156.585 225.908C157.577 224.522 158.583 223.144 159.536 221.735C159.536 221.688 159.497 221.626 159.458 221.673C158.17 223.089 156.958 224.573 155.827 226.117C154.626 227.666 153.411 229.215 152.125 230.655C150.865 232.141 149.496 233.531 148.029 234.813C146.449 236.121 144.778 237.314 143.027 238.383C142.041 238.992 141.045 239.583 140.038 240.156C138.954 240.758 137.825 241.276 136.662 241.705C136.453 241.774 136.585 241.852 136.662 241.828C137.653 241.533 138.615 241.147 139.535 240.675C140.495 240.202 141.463 239.73 142.415 239.234C144.251 238.323 146.007 237.258 147.665 236.052C150.886 233.644 153.325 230.508 155.617 227.24C155.666 227.179 155.71 227.114 155.749 227.047C156.183 226.636 156.609 226.21 157.019 225.769C157.615 225.134 158.235 224.538 158.877 223.949C158.88 223.938 158.879 223.927 158.875 223.916C158.871 223.905 158.865 223.896 158.856 223.888C158.847 223.881 158.837 223.877 158.825 223.875C158.814 223.873 158.803 223.875 158.792 223.88Z" fill="#417BFF"/>
<defs>
<filter id="filter0_dddddddd_9374_166347" x="4" y="0.265625" width="946" height="1248" filterUnits="userSpaceOnUse" color-interpolation-filters="sRGB">
<feFlood flood-opacity="0" result="BackgroundImageFix"/>
<feColorMatrix in="SourceAlpha" type="matrix" values="0 0 0 0 0 0 0 0 0 0 0 0 0 0 0 0 0 0 127 0" result="hardAlpha"/>
<feOffset dy="9.96621"/>
<feGaussianBlur stdDeviation="2.91013"/>
<feColorMatrix type="matrix" values="0 0 0 0 0.0705882 0 0 0 0 0.0980392 0 0 0 0 0.133333 0 0 0 0.01 0"/>
<feBlend mode="normal" in2="BackgroundImageFix" result="effect1_dropShadow_9374_166347"/>
<feColorMatrix in="SourceAlpha" type="matrix" values="0 0 0 0 0 0 0 0 0 0 0 0 0 0 0 0 0 0 127 0" result="hardAlpha"/>
<feOffset dy="22.644"/>
<feGaussianBlur stdDeviation="6.61205"/>
<feColorMatrix type="matrix" values="0 0 0 0 0.0705882 0 0 0 0 0.0980392 0 0 0 0 0.133333 0 0 0 0.0104523 0"/>
<feBlend mode="normal" in2="effect1_dropShadow_9374_166347" result="effect2_dropShadow_9374_166347"/>
<feColorMatrix in="SourceAlpha" type="matrix" values="0 0 0 0 0 0 0 0 0 0 0 0 0 0 0 0 0 0 127 0" result="hardAlpha"/>
<feOffset dy="39.4109"/>
<feGaussianBlur stdDeviation="11.508"/>
<feColorMatrix type="matrix" values="0 0 0 0 0.0705882 0 0 0 0 0.0980392 0 0 0 0 0.133333 0 0 0 0.0128732 0"/>
<feBlend mode="normal" in2="effect2_dropShadow_9374_166347" result="effect3_dropShadow_9374_166347"/>
<feColorMatrix in="SourceAlpha" type="matrix" values="0 0 0 0 0 0 0 0 0 0 0 0 0 0 0 0 0 0 127 0" result="hardAlpha"/>
<feOffset dy="62.6078"/>
<feGaussianBlur stdDeviation="18.2815"/>
<feColorMatrix type="matrix" values="0 0 0 0 0.0705882 0 0 0 0 0.0980392 0 0 0 0 0.133333 0 0 0 0.015 0"/>
<feBlend mode="normal" in2="effect3_dropShadow_9374_166347" result="effect4_dropShadow_9374_166347"/>
<feColorMatrix in="SourceAlpha" type="matrix" values="0 0 0 0 0 0 0 0 0 0 0 0 0 0 0 0 0 0 127 0" result="hardAlpha"/>
<feOffset dy="96.5991"/>
<feGaussianBlur stdDeviation="28.2069"/>
<feColorMatrix type="matrix" values="0 0 0 0 0.0705882 0 0 0 0 0.0980392 0 0 0 0 0.133333 0 0 0 0.0171268 0"/>
<feBlend mode="normal" in2="effect4_dropShadow_9374_166347" result="effect5_dropShadow_9374_166347"/>
<feColorMatrix in="SourceAlpha" type="matrix" values="0 0 0 0 0 0 0 0 0 0 0 0 0 0 0 0 0 0 127 0" result="hardAlpha"/>
<feOffset dy="150.735"/>
<feGaussianBlur stdDeviation="44.0147"/>
<feColorMatrix type="matrix" values="0 0 0 0 0.0705882 0 0 0 0 0.0980392 0 0 0 0 0.133333 0 0 0 0.0195477 0"/>
<feBlend mode="normal" in2="effect5_dropShadow_9374_166347" result="effect6_dropShadow_9374_166347"/>
<feColorMatrix in="SourceAlpha" type="matrix" values="0 0 0 0 0 0 0 0 0 0 0 0 0 0 0 0 0 0 127 0" result="hardAlpha"/>
<feOffset dy="250.244"/>
<feGaussianBlur stdDeviation="73.0713"/>
<feColorMatrix type="matrix" values="0 0 0 0 0.0705882 0 0 0 0 0.0980392 0 0 0 0 0.133333 0 0 0 0.02281 0"/>
<feBlend mode="normal" in2="effect6_dropShadow_9374_166347" result="effect7_dropShadow_9374_166347"/>
<feColorMatrix in="SourceAlpha" type="matrix" values="0 0 0 0 0 0 0 0 0 0 0 0 0 0 0 0 0 0 127 0" result="hardAlpha"/>
<feOffset dy="500"/>
<feGaussianBlur stdDeviation="146"/>
<feColorMatrix type="matrix" values="0 0 0 0 0.0705882 0 0 0 0 0.0980392 0 0 0 0 0.133333 0 0 0 0.03 0"/>
<feBlend mode="normal" in2="effect7_dropShadow_9374_166347" result="effect8_dropShadow_9374_166347"/>
<feBlend mode="normal" in="SourceGraphic" in2="effect8_dropShadow_9374_166347" result="shape"/>
</filter>
</defs>
</svg>
