<svg width="32" height="332" viewBox="0 0 32 332" fill="none" xmlns="http://www.w3.org/2000/svg">
<g opacity="0.2">
<path d="M15.1454 3.72752L1.01891 48.3775C0.50607 49.9985 0.301066 53.9049 0.561018 57.1027L15.0791 235.698C15.339 238.895 15.9655 240.174 16.4783 238.553L30.6048 193.903C31.1176 192.282 31.3226 188.376 31.0627 185.178L16.5446 6.58272C16.2847 3.38489 15.6582 2.10658 15.1454 3.72752Z" fill="#EBEBEB"/>
<path d="M7.95207 78.2677C8.5519 75.7525 8.71116 70.6814 8.30779 66.9412C7.90442 63.201 7.09117 62.2079 6.49135 64.7231C5.89153 67.2383 5.73227 72.3094 6.13564 76.0496C6.53901 79.7899 7.35225 80.7829 7.95207 78.2677Z" fill="#FAFAFA"/>
<path d="M14.601 58.3381C15.2805 56.7606 15.6262 52.0471 15.3732 47.8102C15.1202 43.5734 14.3643 41.4176 13.6849 42.9952C13.0054 44.5727 12.6597 49.2862 12.9127 53.5231C13.1657 57.7599 13.9216 59.9157 14.601 58.3381Z" fill="#FAFAFA"/>
<path d="M11.5941 107.202C11.711 108.641 11.7569 110.265 11.7259 111.867C11.6949 113.469 11.5884 114.978 11.4199 116.203C11.2514 117.427 11.0285 118.313 10.7793 118.748C10.5301 119.183 10.2658 119.148 10.0198 118.647C9.77383 118.145 9.55721 117.2 9.39733 115.931C9.23745 114.662 9.14148 113.127 9.12156 111.518C9.10164 109.909 9.15866 108.299 9.28541 106.892C9.41216 105.485 9.60295 104.344 9.83367 103.613C10.1435 102.636 10.5029 102.464 10.8329 103.137C11.163 103.81 11.4367 105.272 11.5941 107.202Z" fill="#FAFAFA"/>
<path d="M18.5296 89.6852C18.554 85.1805 17.9882 81.4051 17.2658 81.2525C16.5434 81.0999 15.9379 84.628 15.9134 89.1327C15.889 93.6373 16.4548 97.4128 17.1772 97.5653C17.8996 97.7179 18.5051 94.1899 18.5296 89.6852Z" fill="#FAFAFA"/>
<path d="M14.7954 146.598C14.9137 148.035 14.961 149.657 14.9313 151.261C14.9016 152.865 14.7962 154.378 14.6286 155.609C14.4609 156.839 14.2385 157.732 13.9895 158.174C13.7404 158.617 13.476 158.588 13.2295 158.093C12.9831 157.597 12.7657 156.657 12.605 155.391C12.4442 154.126 12.3473 152.591 12.3265 150.981C12.3057 149.372 12.3619 147.76 12.488 146.35C12.6141 144.94 12.8045 143.795 13.035 143.06C13.3438 142.075 13.7026 141.894 14.0326 142.558C14.3627 143.221 14.6371 144.674 14.7954 146.598Z" fill="#FAFAFA"/>
<path d="M21.5912 125.117C21.7084 126.557 21.7544 128.181 21.7235 129.784C21.6926 131.386 21.5862 132.896 21.4176 134.122C21.2491 135.347 21.0261 136.234 20.7768 136.669C20.5274 137.104 20.263 137.068 20.017 136.566C19.7709 136.064 19.5542 135.118 19.3944 133.848C19.2346 132.578 19.1387 131.041 19.119 129.431C19.0993 127.821 19.1566 126.211 19.2837 124.805C19.4107 123.398 19.6018 122.258 19.8328 121.529C20.1423 120.551 20.5014 120.38 20.8311 121.053C21.1609 121.726 21.4343 123.188 21.5912 125.117Z" fill="#FAFAFA"/>
<path d="M17.9987 185.997C18.1153 187.437 18.1608 189.061 18.1295 190.663C18.0982 192.264 17.9914 193.772 17.8227 194.995C17.654 196.219 17.431 197.103 17.1817 197.536C16.9325 197.969 16.6682 197.932 16.4223 197.429C16.1765 196.926 15.96 195.98 15.8004 194.711C15.6407 193.441 15.545 191.905 15.5253 190.296C15.5056 188.687 15.5628 187.078 15.6897 185.672C15.8166 184.266 16.0075 183.126 16.2383 182.396C16.3918 181.911 16.5591 181.619 16.7307 181.537C16.9022 181.456 17.0747 181.586 17.2382 181.92C17.4018 182.255 17.5531 182.787 17.6836 183.487C17.8141 184.186 17.9211 185.039 17.9987 185.997Z" fill="#FAFAFA"/>
<path d="M24.7943 164.518C24.9112 165.958 24.9571 167.581 24.9261 169.183C24.8951 170.785 24.7886 172.294 24.6201 173.519C24.4516 174.744 24.2287 175.63 23.9795 176.065C23.7303 176.5 23.466 176.464 23.22 175.963C22.974 175.461 22.7574 174.517 22.5975 173.248C22.4376 171.979 22.3417 170.443 22.3218 168.834C22.3018 167.225 22.3589 165.615 22.4856 164.209C22.6124 162.802 22.8031 161.661 23.0339 160.93C23.3437 159.952 23.7031 159.781 24.0331 160.453C24.3631 161.126 24.6369 162.588 24.7943 164.518Z" fill="#FAFAFA"/>
<path d="M7.59801 64.0781C7.51372 66.5919 7.39678 69.0588 7.24833 71.4544C7.13127 73.914 6.98225 76.3101 6.80273 78.6188C6.88485 76.103 7.00117 73.6353 7.15042 71.2425C7.26654 68.7791 7.41628 66.3822 7.59801 64.0781Z" fill="#E0E0E0"/>
<path d="M14.2435 42.6855C14.162 45.2023 14.0457 47.6702 13.8958 50.0618C13.7795 52.5287 13.6297 54.9297 13.4482 57.2386C13.5311 54.7226 13.6481 52.2549 13.7979 49.8624C13.9152 47.3992 14.0642 44.9991 14.2435 42.6855Z" fill="#E0E0E0"/>
<path d="M10.8651 103.414C10.8057 106.017 10.7114 108.584 10.5834 111.089C10.4891 113.644 10.3608 116.144 10.1997 118.565C10.2619 115.969 10.3588 113.41 10.4894 110.915C10.5818 108.355 10.7075 105.847 10.8651 103.414Z" fill="#E0E0E0"/>
<path d="M17.573 81.9219C17.5327 84.45 17.4572 86.9514 17.3472 89.3977C17.2725 91.8772 17.1635 94.3117 17.0215 96.6741C17.0614 94.1466 17.1363 91.6454 17.2453 89.1983C17.3218 86.7202 17.4314 84.2862 17.573 81.9219Z" fill="#E0E0E0"/>
<path d="M13.8503 142.824C13.7985 145.21 13.7123 147.562 13.5926 149.852C13.5055 152.202 13.3851 154.499 13.2329 156.717C13.2849 154.33 13.3718 151.978 13.4927 149.69C13.5786 147.339 13.6983 145.041 13.8503 142.824Z" fill="#E0E0E0"/>
<path d="M20.8358 121.879C20.7541 124.27 20.6377 126.609 20.4881 128.869C20.3708 131.203 20.2217 133.471 20.0425 135.647C20.1241 133.256 20.2405 130.916 20.3902 128.657C20.5079 126.324 20.6569 124.056 20.8358 121.879Z" fill="#E0E0E0"/>
<path d="M17.261 182.635C17.1673 185.121 17.0409 187.554 16.8834 189.911C16.7552 192.337 16.5948 194.692 16.4038 196.951C16.4973 194.466 16.625 192.035 16.7855 189.687C16.9106 187.254 17.0697 184.894 17.261 182.635Z" fill="#E0E0E0"/>
<path d="M24.0088 159.844C23.9518 162.601 23.8596 165.326 23.7331 167.992C23.6415 170.712 23.5159 173.382 23.3574 175.979C23.4156 173.223 23.5078 170.499 23.6332 167.831C23.7247 165.111 23.8503 162.441 24.0088 159.844Z" fill="#E0E0E0"/>
<path d="M27.2383 184.976C27.2503 185.138 25.1722 191.866 22.5966 200.002C20.0209 208.138 17.9208 214.618 17.9068 214.468C17.8928 214.319 19.9729 207.578 22.5486 199.429C25.1243 191.28 27.2244 184.814 27.2383 184.976Z" fill="#E0E0E0"/>
<path d="M13.7525 27.1853C13.7645 27.3473 11.6864 34.0756 9.11071 42.2242C6.53505 50.3729 4.43496 56.8395 4.42097 56.6775C4.40698 56.5155 6.49309 49.725 9.06275 41.5763C11.6324 33.4277 13.7385 26.9611 13.7525 27.1853Z" fill="#E0E0E0"/>
<path d="M9.41389 50.049C9.40213 50.0653 9.38994 50.0653 9.37818 50.049C9.37818 50.049 9.36627 50.049 9.3623 50.049L9.45358 49.75C9.45358 49.8497 9.45358 49.9992 9.42183 50.0864C9.39008 50.1736 9.37024 50.1487 9.3623 50.0864L9.45358 49.7874C9.45423 49.8163 9.45423 49.8457 9.45358 49.8746C9.44366 49.9579 9.42975 50.0191 9.41389 50.049Z" fill="#E0E0E0"/>
<path d="M22.2465 200.374C22.2206 200.461 19.3032 164.876 15.7305 120.93C12.1577 76.9846 9.2823 41.2624 9.30828 41.1876C9.33426 41.1129 12.2496 76.6482 15.8244 120.631C19.3991 164.614 22.2785 200.287 22.2465 200.374Z" fill="#E0E0E0"/>
<path d="M2.87804 225.906C2.85406 253.816 2.83808 298.883 2.83008 319.591C2.82902 322.524 3.01467 325.339 3.34626 327.418C3.67784 329.497 4.12823 330.671 4.59848 330.68L16.8254 331.029C17.2963 331.039 17.7487 329.884 18.0832 327.817C18.4178 325.749 18.6071 322.939 18.6098 320.002L18.6777 227.14C18.6819 220.618 18.2708 214.352 17.5345 209.719C16.7983 205.086 15.7972 202.465 14.7513 202.432V188.726L6.74453 188.502V201.41H6.71456C5.68984 201.582 4.71614 204.236 3.99993 208.809C3.28371 213.382 2.88131 219.514 2.87804 225.906Z" fill="#F5F5F5"/>
<path d="M6.75502 190.283L6.74902 196.501L14.7537 198.494L14.7617 190.507L6.75502 190.283Z" fill="#E0E0E0"/>
<path d="M6.44901 169.482L15.131 169.727C15.29 169.732 15.4422 170.13 15.5541 170.834C15.666 171.538 15.7285 172.491 15.7278 173.482L15.7142 192.172C15.7137 192.809 15.6726 193.42 15.6 193.869C15.5273 194.318 15.4291 194.568 15.3268 194.565L6.21914 194.308C6.11686 194.305 6.01895 194.049 5.94696 193.596C5.87496 193.143 5.83478 192.53 5.83524 191.892L5.84884 173.203C5.84956 172.211 5.91341 171.262 6.02634 170.565C6.13927 169.867 6.29203 169.477 6.45101 169.482L6.44901 169.482Z" fill="#F5F5F5"/>
<path d="M7.09214 194.383C7.03415 194.383 6.99015 188.851 6.99615 182.048C7.00215 175.245 7.05214 169.713 7.11014 169.713C7.16813 169.713 7.21212 175.233 7.20612 182.048C7.20012 188.864 7.15413 194.383 7.09214 194.383Z" fill="#E0E0E0"/>
<path d="M8.15171 194.407C8.09372 194.407 8.04972 188.887 8.05572 182.071C8.06172 175.256 8.11172 169.736 8.16971 169.736C8.2277 169.736 8.27169 175.268 8.2657 182.084C8.2597 188.899 8.2097 194.407 8.15171 194.407Z" fill="#E0E0E0"/>
<path d="M9.2064 194.446C9.14841 194.446 9.10441 188.914 9.11041 182.111C9.11641 175.308 9.1664 169.775 9.2244 169.775C9.28239 169.775 9.32638 175.295 9.32038 182.111C9.31439 188.926 9.26439 194.446 9.2064 194.446Z" fill="#E0E0E0"/>
<path d="M10.2611 194.469C10.2031 194.469 10.1591 188.949 10.1651 182.134C10.1711 175.318 10.2211 169.799 10.2791 169.799C10.3371 169.799 10.3811 175.331 10.3751 182.134C10.3691 188.937 10.3191 194.469 10.2611 194.469Z" fill="#E0E0E0"/>
<path d="M11.3167 194.506C11.2588 194.506 11.2148 188.974 11.2208 182.159C11.2268 175.343 11.2768 169.823 11.3347 169.836C11.3927 169.848 11.4367 175.356 11.4307 182.171C11.4247 188.987 11.3747 194.506 11.3167 194.506Z" fill="#E0E0E0"/>
<path d="M12.3714 194.533C12.3134 194.533 12.2695 189.001 12.2755 182.198C12.2814 175.395 12.3314 169.863 12.3894 169.863C12.4474 169.863 12.4914 175.383 12.4854 182.198C12.4794 189.014 12.4294 194.533 12.3714 194.533Z" fill="#E0E0E0"/>
<path d="M13.4266 194.557C13.3686 194.557 13.3246 189.037 13.3306 182.222C13.3366 175.406 13.3866 169.887 13.4446 169.887C13.5026 169.887 13.5466 175.419 13.5406 182.234C13.5346 189.05 13.4866 194.569 13.4266 194.557Z" fill="#E0E0E0"/>
<path d="M14.4857 194.594C14.4277 194.594 14.3837 189.062 14.3897 182.259C14.3957 175.456 14.4457 169.924 14.5037 169.924C14.5617 169.924 14.6057 175.443 14.5997 182.259C14.5937 189.074 14.5397 194.594 14.4857 194.594Z" fill="#E0E0E0"/>
<path d="M16.2832 239.721L5.40315 239.413C5.23982 239.408 5.10682 240.23 5.10608 241.248L5.07433 284.87C5.07359 285.888 5.20539 286.717 5.36872 286.722L16.2487 287.03C16.4121 287.034 16.5451 286.213 16.5458 285.194L16.5775 241.573C16.5783 240.555 16.4465 239.725 16.2832 239.721Z" fill="#EBEBEB"/>
<path d="M15.7766 283.782C15.7727 283.521 15.7727 283.258 15.7766 282.997C15.7766 282.411 15.7766 281.676 15.7766 280.791C15.7766 278.761 15.7766 275.982 15.7626 272.493C15.7626 265.267 15.7486 255.05 15.7406 242.714L15.8226 243.238L5.7697 243.088L5.87361 242.44V247.86C5.87361 249.667 5.87361 251.449 5.87361 253.231C5.87361 256.782 5.8736 260.283 5.86361 263.722C5.86361 270.587 5.84963 277.203 5.84363 283.495L5.74772 282.885L12.9612 283.383L15.0413 283.607L15.6008 283.695L15.8006 283.769C15.7411 283.829 15.6809 283.854 15.6208 283.844H15.0812L13.0231 283.956L5.74372 284.043H5.64781V283.433C5.64781 277.203 5.64781 270.537 5.64781 263.659C5.64781 260.22 5.64781 256.732 5.64781 253.168C5.64781 251.399 5.64781 249.605 5.64781 247.798V242.378C5.5539 242.964 5.77569 241.581 5.75371 241.73L15.8086 242.141H15.8845V242.739C15.8585 255.199 15.8346 265.541 15.8186 272.842C15.8186 276.281 15.7986 279.072 15.7926 281.028C15.7926 281.875 15.7926 282.561 15.7806 283.134C15.783 283.35 15.7817 283.567 15.7766 283.782Z" fill="#E0E0E0"/>
<path d="M14.2396 255.959C14.2396 256.333 12.709 256.582 10.8227 256.52C8.93637 256.457 7.40576 256.133 7.40576 255.772C7.40576 255.411 8.93637 255.162 10.8247 255.211C12.7129 255.261 14.2396 255.598 14.2396 255.959Z" fill="#E0E0E0"/>
<path d="M14.2337 263.212C14.2337 263.573 12.705 263.822 10.8168 263.772C8.92847 263.723 7.40186 263.374 7.40186 263.012C7.40186 262.651 8.93047 262.402 10.8188 262.452C12.707 262.501 14.2356 262.85 14.2337 263.212Z" fill="#E0E0E0"/>
<path d="M14.2303 270.152C14.2303 270.514 12.6997 270.763 10.8134 270.713C8.9271 270.663 7.39648 270.327 7.39648 269.965C7.39648 269.604 8.9271 269.355 10.8134 269.405C12.6997 269.455 14.2303 269.803 14.2303 270.152Z" fill="#E0E0E0"/>
<path d="M14.2853 201.996C14.2853 202.357 12.6169 202.594 10.5567 202.544C8.49661 202.494 6.82812 202.146 6.82812 201.784C6.82812 201.423 8.49861 201.174 10.5587 201.236C12.6189 201.298 14.2853 201.622 14.2853 201.996Z" fill="#E0E0E0"/>
<path d="M3.4954 314.233C3.46338 312.776 3.45135 311.305 3.45943 309.835C3.45943 306.782 3.44745 302.745 3.43945 297.849C3.43945 287.731 3.43945 273.752 3.45744 258.314C3.46943 250.601 3.48141 243.263 3.49141 236.547C3.5014 229.831 3.6093 223.651 3.96697 218.941C4.22799 215.175 4.67449 212.024 5.24182 209.945C5.39713 209.409 5.56215 208.991 5.73337 208.699C5.79314 208.592 5.85502 208.537 5.91721 208.537C5.7024 209.041 5.494 209.645 5.29377 210.344C4.75672 212.501 4.33836 215.632 4.09486 219.315C3.77715 223.875 3.69522 229.906 3.69522 236.509C3.69522 243.113 3.68323 250.564 3.67724 258.277C3.65925 273.714 3.62928 287.694 3.59931 297.799C3.57933 302.696 3.56334 306.745 3.55135 309.785C3.55098 311.275 3.53228 312.762 3.4954 314.233Z" fill="white"/>
<path d="M18.0464 327.466C17.8584 327.208 17.6745 326.845 17.4969 326.382C17.3251 325.984 17.1133 325.51 16.8615 325.049C16.6097 324.588 16.33 323.953 16.0103 323.467C15.2684 322.186 14.5151 321.179 13.7543 320.451C12.8217 319.607 11.8812 319.149 10.9389 319.081C9.99629 319.099 9.05498 319.515 8.12143 320.327C7.35908 321.01 6.6038 321.971 5.85948 323.205C5.53977 323.678 5.26003 324.276 5.00626 324.738C4.75249 325.199 4.54268 325.647 4.36884 326.046C4.19132 326.501 4.00735 326.851 3.81934 327.092C3.98415 326.478 4.15814 325.965 4.33886 325.56C4.50871 325.099 4.71852 324.563 4.96829 324.052C5.21807 323.541 5.49781 322.806 5.81952 322.308C6.56469 320.942 7.3237 319.889 8.09146 319.155C9.03348 318.281 9.98447 317.835 10.9369 317.822C11.8899 317.881 12.8409 318.377 13.7823 319.305C14.5491 320.099 15.3067 321.206 16.0502 322.619C16.3699 323.168 16.6497 323.865 16.8975 324.401C17.1452 324.937 17.357 325.485 17.5249 325.959C17.7062 326.353 17.8809 326.858 18.0464 327.466Z" fill="white"/>
</g>
</svg>
