<svg width="99" height="167" viewBox="0 0 99 167" fill="none" xmlns="http://www.w3.org/2000/svg">
<g opacity="0.2">
<path d="M47.3239 1.64457L3.10191 24.1679C1.49651 24.9856 0.854756 26.9561 1.66852 28.5692L47.1164 118.66C47.9301 120.273 49.8913 120.918 51.4967 120.1L95.7186 97.5771C97.324 96.7594 97.9658 94.7888 97.152 93.1757L51.7041 3.08485C50.8904 1.47173 48.9293 0.826894 47.3239 1.64457Z" fill="#EBEBEB"/>
<path d="M24.8063 39.2461C26.684 37.9773 27.1826 35.4192 25.9199 33.5325C24.6571 31.6457 22.1113 31.1448 20.2336 32.4136C18.3559 33.6824 17.8574 36.2404 19.1201 38.1272C20.3828 40.0139 22.9286 40.5148 24.8063 39.2461Z" fill="#FAFAFA"/>
<path d="M45.6197 29.1933C47.7467 28.3975 48.829 26.0198 48.037 23.8826C47.2451 21.7453 44.8787 20.6579 42.7517 21.4536C40.6247 22.2494 39.5424 24.6271 40.3344 26.7643C41.1264 28.9016 43.4927 29.9891 45.6197 29.1933Z" fill="#FAFAFA"/>
<path d="M36.2068 53.8424C36.5728 54.5686 36.7164 55.3875 36.6194 56.1957C36.5224 57.0038 36.1891 57.7649 35.6616 58.3828C35.1342 59.0007 34.4363 59.4476 33.6562 59.667C32.8761 59.8865 32.0487 59.8686 31.2787 59.6156C30.5086 59.3627 29.8305 58.8861 29.33 58.246C28.8295 57.6059 28.5291 56.8311 28.4667 56.0195C28.4044 55.2079 28.5829 54.3959 28.9797 53.6862C29.3764 52.9765 29.9737 52.4009 30.696 52.0322C31.6658 51.539 32.7908 51.4526 33.824 51.792C34.8572 52.1314 35.7142 52.8688 36.2068 53.8424Z" fill="#FAFAFA"/>
<path d="M57.9174 45.006C57.994 42.7337 56.2228 40.8292 53.9613 40.7522C51.6998 40.6752 49.8044 42.455 49.7278 44.7273C49.6512 46.9997 51.4224 48.9042 53.6839 48.9812C55.9454 49.0581 57.8408 47.2784 57.9174 45.006Z" fill="#FAFAFA"/>
<path d="M46.2282 73.7152C46.5984 74.4398 46.7463 75.2585 46.6533 76.0676C46.5604 76.8767 46.2306 77.6399 45.7058 78.2606C45.1811 78.8814 44.4848 79.3318 43.7052 79.5548C42.9256 79.7779 42.0977 79.7635 41.3262 79.5136C40.5547 79.2637 39.8743 78.7895 39.3711 78.151C38.8679 77.5124 38.5645 76.7382 38.4994 75.9264C38.4342 75.1146 38.6101 74.3015 39.0049 73.5902C39.3998 72.8788 39.9957 72.3012 40.7173 71.9302C41.6838 71.4334 42.807 71.3424 43.8403 71.6771C44.8735 72.0118 45.7324 72.7448 46.2282 73.7152Z" fill="#FAFAFA"/>
<path d="M67.5021 62.8791C67.8689 63.6054 68.013 64.4246 67.9162 65.2331C67.8195 66.0417 67.4863 66.8032 66.9588 67.4215C66.4312 68.0397 65.733 68.4869 64.9525 68.7063C64.172 68.9258 63.3443 68.9077 62.574 68.6544C61.8037 68.4011 61.1255 67.924 60.6252 67.2833C60.1248 66.6426 59.8248 65.8673 59.7631 65.0552C59.7014 64.2432 59.8808 63.4311 60.2785 62.7215C60.6763 62.0119 61.2745 61.4369 61.9976 61.069C62.9665 60.576 64.0906 60.4898 65.1227 60.8292C66.1549 61.1686 67.0108 61.906 67.5021 62.8791Z" fill="#FAFAFA"/>
<path d="M56.2552 93.5898C56.6202 94.3163 56.7627 95.1354 56.6647 95.9433C56.5666 96.7512 56.2324 97.5118 55.7044 98.1289C55.1763 98.7461 54.478 99.1921 53.6977 99.4106C52.9175 99.6291 52.0902 99.6104 51.3206 99.3567C50.5509 99.103 49.8734 98.6258 49.3736 97.9853C48.8737 97.3448 48.574 96.5699 48.5124 95.7583C48.4507 94.9468 48.6298 94.1351 49.0271 93.4258C49.4244 92.7165 50.022 92.1415 50.7444 91.7734C51.2248 91.5285 51.7486 91.3813 52.2857 91.3401C52.8229 91.2989 53.3628 91.3645 53.8747 91.5332C54.3866 91.7019 54.8603 91.9704 55.2688 92.3233C55.6773 92.6762 56.0125 93.1066 56.2552 93.5898Z" fill="#FAFAFA"/>
<path d="M77.5291 82.7545C77.8951 83.4807 78.0387 84.2996 77.9417 85.1078C77.8446 85.9159 77.5113 86.677 76.9839 87.2949C76.4565 87.9128 75.7586 88.3597 74.9785 88.5791C74.1983 88.7985 73.371 88.7807 72.6009 88.5277C71.8309 88.2748 71.1528 87.7982 70.6523 87.1581C70.1518 86.518 69.8514 85.7432 69.789 84.9316C69.7267 84.12 69.9051 83.308 70.3019 82.5983C70.6987 81.8886 71.296 81.3131 72.0182 80.9444C72.9881 80.4511 74.1131 80.3647 75.1463 80.7041C76.1795 81.0435 77.0364 81.7809 77.5291 82.7545Z" fill="#FAFAFA"/>
<path d="M23.6968 32.0879C23.433 33.356 23.0669 34.6004 22.6022 35.8088C22.2357 37.0495 21.7692 38.2582 21.2073 39.4228C21.4643 38.1537 21.8285 36.9089 22.2957 35.7019C22.6592 34.4592 23.128 33.2502 23.6968 32.0879Z" fill="#E0E0E0"/>
<path d="M44.5015 21.2969C44.2463 22.5664 43.8821 23.8113 43.4131 25.0177C43.0489 26.2622 42.5801 27.4733 42.012 28.638C42.2713 27.3688 42.6375 26.124 43.1066 24.9172C43.4738 23.6746 43.9403 22.4639 44.5015 21.2969Z" fill="#E0E0E0"/>
<path d="M33.9243 51.9316C33.7382 53.2446 33.4432 54.5397 33.0423 55.8033C32.7473 57.0918 32.3456 58.3532 31.8413 59.5744C32.0361 58.2649 32.3395 56.9741 32.7483 55.7153C33.0375 54.4241 33.4308 53.1587 33.9243 51.9316Z" fill="#E0E0E0"/>
<path d="M54.9232 41.0898C54.7972 42.3652 54.5607 43.627 54.2164 44.861C53.9825 46.1118 53.6414 47.3399 53.1968 48.5316C53.3218 47.2566 53.5562 45.9948 53.8974 44.7604C54.137 43.5103 54.4801 42.2825 54.9232 41.0898Z" fill="#E0E0E0"/>
<path d="M43.2693 71.8105C43.1071 73.0142 42.837 74.2006 42.4624 75.3554C42.1897 76.541 41.8129 77.6999 41.3364 78.8185C41.4991 77.6144 41.7713 76.4279 42.1496 75.2737C42.4186 74.0879 42.7933 72.9288 43.2693 71.8105Z" fill="#E0E0E0"/>
<path d="M65.1374 61.2441C64.8817 62.4502 64.5174 63.6304 64.049 64.7702C63.6819 65.9478 63.2152 67.0917 62.6541 68.1893C62.9097 66.9833 63.274 65.8031 63.7425 64.6633C64.111 63.4862 64.5776 62.3425 65.1374 61.2441Z" fill="#E0E0E0"/>
<path d="M53.9464 91.8926C53.6528 93.1465 53.2574 94.3742 52.7642 95.5632C52.3629 96.7868 51.8607 97.9746 51.2629 99.1143C51.5556 97.8607 51.9554 96.6347 52.4577 95.45C52.8494 94.2227 53.3476 93.0324 53.9464 91.8926Z" fill="#E0E0E0"/>
<path d="M75.0707 80.3965C74.8921 81.7875 74.6034 83.1621 74.2075 84.507C73.9209 85.8788 73.5277 87.2259 73.0315 88.5359C73.2137 87.1455 73.5023 85.7712 73.8947 84.4253C74.1813 83.0536 74.5745 81.7065 75.0707 80.3965Z" fill="#E0E0E0"/>
<path d="M85.1797 93.0738C85.2173 93.1555 78.7119 96.5495 70.6489 100.654C62.586 104.758 56.0118 108.026 55.968 107.951C55.9242 107.876 62.4359 104.475 70.4988 100.365C78.5617 96.2541 85.136 92.9921 85.1797 93.0738Z" fill="#E0E0E0"/>
<path d="M42.9632 13.4775C43.0007 13.5592 36.4953 16.9532 28.4324 21.0637C20.3694 25.1743 13.7952 28.4363 13.7514 28.3546C13.7077 28.2729 20.2381 24.8475 28.2822 20.7369C36.3264 16.6264 42.9194 13.3643 42.9632 13.4775Z" fill="#E0E0E0"/>
<path d="M29.3837 25.0122C29.3465 25.0203 29.308 25.0203 29.2709 25.0122C29.2709 25.0122 29.2332 25.0122 29.2207 25.0122L29.5091 24.8613C29.5091 24.9116 29.5091 24.987 29.4088 25.031C29.3085 25.075 29.2458 25.0624 29.2207 25.031L29.5091 24.8802C29.5112 24.8948 29.5112 24.9096 29.5091 24.9242C29.4778 24.9662 29.4338 24.997 29.3837 25.0122Z" fill="#E0E0E0"/>
<path d="M69.5537 100.841C69.4724 100.885 60.3398 82.9347 49.1555 60.7666C37.9712 38.5986 28.97 20.5788 29.0513 20.5411C29.1326 20.5034 38.259 38.4289 49.4495 60.6158C60.64 82.8027 69.6538 100.797 69.5537 100.841Z" fill="#E0E0E0"/>
<path d="M8.92162 113.72C8.84656 127.799 8.79652 150.532 8.7715 160.979C8.76817 162.458 9.34935 163.878 10.3873 164.927C11.4253 165.975 12.8353 166.567 14.3073 166.572L52.5829 166.748C54.0572 166.753 55.4733 166.171 56.5205 165.128C57.5677 164.085 58.1605 162.667 58.1687 161.186L58.3814 114.342C58.3947 111.052 57.1076 107.891 54.8028 105.554C52.4981 103.217 49.3643 101.895 46.09 101.878V94.9647L21.0254 94.8516V101.363H20.9316C17.7238 101.45 14.6757 102.788 12.4336 105.095C10.1916 107.402 8.93185 110.495 8.92162 113.72Z" fill="#F5F5F5"/>
<path d="M21.0576 95.752L21.0388 98.8883L46.0971 99.8939L46.1221 95.8651L21.0576 95.752Z" fill="#E0E0E0"/>
<path d="M20.1003 85.2566L47.2788 85.3805C47.7765 85.3828 48.2529 85.5836 48.6032 85.9388C48.9535 86.294 49.1491 86.7745 49.1468 87.2746L49.1042 96.7024C49.1028 97.0241 48.9742 97.3321 48.7468 97.5585C48.5193 97.785 48.2117 97.9114 47.8915 97.9099L19.3806 97.7799C19.0605 97.7784 18.754 97.6492 18.5286 97.4207C18.3032 97.1922 18.1774 96.8831 18.1789 96.5614L18.2215 87.1336C18.2237 86.6335 18.4236 86.1548 18.7771 85.8028C19.1306 85.4508 19.6088 85.2543 20.1065 85.2566L20.1003 85.2566Z" fill="#F5F5F5"/>
<path d="M22.1142 97.8197C21.9327 97.8197 21.7949 95.0291 21.8137 91.5974C21.8325 88.1656 21.989 85.375 22.1705 85.375C22.3521 85.375 22.4898 88.1593 22.471 91.5974C22.4522 95.0354 22.3083 97.8197 22.1142 97.8197Z" fill="#E0E0E0"/>
<path d="M25.4301 97.8315C25.2486 97.8315 25.1109 95.0471 25.1296 91.6091C25.1484 88.1711 25.3049 85.3867 25.4865 85.3867C25.668 85.3867 25.8057 88.1774 25.7869 91.6154C25.7682 95.0534 25.6117 97.8315 25.4301 97.8315Z" fill="#E0E0E0"/>
<path d="M28.7324 97.851C28.5508 97.851 28.4131 95.0604 28.4319 91.6286C28.4507 88.1969 28.6072 85.4062 28.7887 85.4062C28.9703 85.4062 29.108 88.1906 29.0892 91.6286C29.0704 95.0667 28.9139 97.851 28.7324 97.851Z" fill="#E0E0E0"/>
<path d="M32.0346 97.8627C31.8531 97.8627 31.7154 95.0784 31.7341 91.6403C31.7529 88.2023 31.9094 85.418 32.091 85.418C32.2725 85.418 32.4102 88.2086 32.3914 91.6403C32.3727 95.0721 32.2162 97.8627 32.0346 97.8627Z" fill="#E0E0E0"/>
<path d="M35.3383 97.8823C35.1568 97.8823 35.0191 95.0916 35.0378 91.6536C35.0566 88.2156 35.2131 85.4312 35.3947 85.4375C35.5762 85.4438 35.7139 88.2219 35.6951 91.6599C35.6764 95.0979 35.5199 97.8823 35.3383 97.8823Z" fill="#E0E0E0"/>
<path d="M38.6406 97.8959C38.459 97.8959 38.3213 95.1053 38.3401 91.6735C38.3589 88.2418 38.5154 85.4512 38.6969 85.4512C38.8785 85.4512 39.0162 88.2355 38.9974 91.6735C38.9786 95.1116 38.8221 97.8959 38.6406 97.8959Z" fill="#E0E0E0"/>
<path d="M41.944 97.9076C41.7625 97.9076 41.6248 95.1233 41.6436 91.6853C41.6623 88.2472 41.8188 85.4629 42.0004 85.4629C42.1819 85.4629 42.3196 88.2535 42.3009 91.6916C42.2821 95.1296 42.1318 97.9139 41.944 97.9076Z" fill="#E0E0E0"/>
<path d="M45.2585 97.9252C45.077 97.9252 44.9392 95.1346 44.958 91.7029C44.9768 88.2711 45.1333 85.4805 45.3148 85.4805C45.4964 85.4805 45.6341 88.2648 45.6153 91.7029C45.5966 95.1409 45.4275 97.9252 45.2585 97.9252Z" fill="#E0E0E0"/>
<path d="M50.8851 120.689L16.8259 120.534C16.3146 120.531 15.8983 120.946 15.8959 121.46L15.7966 143.464C15.7942 143.978 16.2068 144.396 16.7181 144.398L50.7773 144.554C51.2886 144.556 51.7049 144.141 51.7072 143.628L51.8066 121.623C51.8089 121.11 51.3963 120.691 50.8851 120.689Z" fill="#EBEBEB"/>
<path d="M49.2995 142.916C49.2874 142.784 49.2874 142.651 49.2995 142.52C49.2995 142.224 49.2995 141.853 49.2995 141.407C49.2995 140.383 49.2995 138.981 49.2558 137.221C49.2558 133.576 49.212 128.422 49.1869 122.2L49.4434 122.464L17.9735 122.388L18.2988 122.061V124.795C18.2988 125.707 18.2988 126.606 18.2988 127.504C18.2988 129.296 18.2988 131.062 18.2675 132.796C18.2675 136.26 18.2238 139.597 18.205 142.771L17.9047 142.463L40.486 142.715L46.9976 142.828L48.7491 142.872L49.3746 142.909C49.1885 142.94 49 142.952 48.8116 142.947H47.1227L40.6799 143.004L17.8922 143.048H17.592V142.74C17.592 139.597 17.592 136.234 17.592 132.765C17.592 131.03 17.592 129.27 17.592 127.473C17.592 126.58 17.592 125.675 17.592 124.764V122.03C17.298 122.325 17.9923 121.628 17.9235 121.703L49.3996 121.91H49.6373V122.212C49.556 128.497 49.4809 133.714 49.4309 137.397C49.4309 139.132 49.3683 140.54 49.3496 141.527C49.3496 141.954 49.3496 142.3 49.312 142.589C49.3196 142.698 49.3154 142.808 49.2995 142.916Z" fill="#E0E0E0"/>
<path d="M44.4889 128.88C44.4889 129.069 39.6975 129.195 33.7926 129.163C27.8877 129.132 23.0962 128.968 23.0962 128.786C23.0962 128.604 27.8877 128.478 33.7988 128.503C39.71 128.528 44.4889 128.698 44.4889 128.88Z" fill="#E0E0E0"/>
<path d="M44.4705 132.539C44.4705 132.721 39.6853 132.847 33.7741 132.822C27.863 132.797 23.084 132.621 23.084 132.438C23.084 132.256 27.8692 132.13 33.7804 132.156C39.6915 132.181 44.4767 132.357 44.4705 132.539Z" fill="#E0E0E0"/>
<path d="M44.4584 136.04C44.4584 136.223 39.667 136.348 33.7621 136.323C27.8572 136.298 23.0657 136.128 23.0657 135.946C23.0657 135.764 27.8572 135.638 33.7621 135.663C39.667 135.688 44.4584 135.864 44.4584 136.04Z" fill="#E0E0E0"/>
<path d="M44.6325 101.66C44.6325 101.842 39.4094 101.961 32.9603 101.936C26.5112 101.911 21.2881 101.735 21.2881 101.553C21.2881 101.371 26.5174 101.245 32.9665 101.276C39.4156 101.308 44.6325 101.471 44.6325 101.66Z" fill="#E0E0E0"/>
<path d="M10.8551 158.277C10.7548 157.542 10.7172 156.799 10.7425 156.058C10.7425 154.518 10.705 152.482 10.6799 150.012C10.6799 144.908 10.6799 137.856 10.7362 130.069C10.7738 126.178 10.8113 122.476 10.8426 119.088C10.8738 115.7 11.2116 112.583 12.3313 110.207C13.1484 108.307 14.5461 106.718 16.3221 105.669C16.8083 105.399 17.3249 105.188 17.8609 105.041C18.048 104.987 18.2417 104.959 18.4364 104.959C17.7639 105.213 17.1116 105.518 16.4848 105.87C14.8035 106.959 13.4939 108.538 12.7316 110.396C11.7371 112.696 11.4806 115.738 11.4806 119.069C11.4806 122.401 11.4431 126.159 11.4243 130.05C11.368 137.837 11.2742 144.889 11.1803 149.986C11.1178 152.457 11.0678 154.499 11.0302 156.033C11.0291 156.784 10.9705 157.534 10.8551 158.277Z" fill="white"/>
<path d="M56.4056 164.953C55.8172 164.822 55.2415 164.639 54.6854 164.406C54.1475 164.205 53.4844 163.966 52.6963 163.733C51.9081 163.501 51.0324 163.18 50.0316 162.935C47.7093 162.289 45.3512 161.781 42.9695 161.414C40.05 160.988 37.1057 160.757 34.1559 160.723C31.2052 160.732 28.2585 160.942 25.3361 161.351C22.9496 161.696 20.5852 162.181 18.2552 162.803C17.2544 163.042 16.3786 163.344 15.5842 163.576C14.7898 163.809 14.133 164.035 13.5888 164.236C13.0331 164.466 12.4572 164.643 11.8687 164.764C12.3846 164.454 12.9293 164.195 13.495 163.991C14.0267 163.758 14.6835 163.488 15.4654 163.231C16.2473 162.973 17.123 162.602 18.1301 162.351C20.4628 161.661 22.8388 161.13 25.2423 160.76C28.1912 160.319 31.1682 160.094 34.1496 160.088C37.133 160.118 40.1102 160.368 43.057 160.836C45.4575 161.236 47.8291 161.795 50.1567 162.508C51.1575 162.784 52.0332 163.136 52.8089 163.407C53.5845 163.677 54.2476 163.953 54.773 164.192C55.3407 164.391 55.8875 164.646 56.4056 164.953Z" fill="white"/>
</g>
</svg>
