<svg width="721" height="476" viewBox="0 0 721 476" fill="none" xmlns="http://www.w3.org/2000/svg">
<g filter="url(#filter0_dddd_11035_189557)">
<rect x="238.156" y="100" width="438.878" height="300" rx="36" fill="#E4E8EF" stroke="white" stroke-width="8"/>
<path d="M230 146.873C230 145.768 230.895 144.873 232 144.873H234.154V156.443H232C230.895 156.443 230 155.548 230 154.443V146.873Z" fill="white"/>
<path d="M231.188 169.016C231.188 167.911 232.083 167.016 233.187 167.016H234.155V190.156H233.188C232.083 190.156 231.188 189.26 231.188 188.156V169.016Z" fill="white"/>
<path d="M231.188 198.34C231.188 197.235 232.083 196.34 233.187 196.34H234.155V219.48H233.188C232.083 219.48 231.188 218.584 231.188 217.48V198.34Z" fill="white"/>
<path d="M684 209.5C684 210.605 683.105 211.5 682 211.5L681.033 211.5L681.033 174.795L682 174.795C683.105 174.795 684 175.691 684 176.795L684 209.5Z" fill="white"/>
<rect x="432.371" y="105.975" width="50.4444" height="2.79275" rx="1.39637" fill="#E4E8EF"/>
<ellipse cx="502.4" cy="107.371" rx="4.15425" ry="1.39637" fill="#E4E8EF"/>
</g>
<path d="M665.522 326.463H166.953V326.712H665.522V326.463Z" fill="#EBEBEB"/>
<path d="M615.564 342.506H582.539V342.755H615.564V342.506Z" fill="#EBEBEB"/>
<path d="M497.228 345.221H488.562V345.47H497.228V345.221Z" fill="#EBEBEB"/>
<path d="M581.545 333.254H562.41V333.503H581.545V333.254Z" fill="#EBEBEB"/>
<path d="M262.328 334.93H219.262V335.179H262.328V334.93Z" fill="#EBEBEB"/>
<path d="M277.527 334.93H271.215V335.179H277.527V334.93Z" fill="#EBEBEB"/>
<path d="M391.463 339.137H298.051V339.386H391.463V339.137Z" fill="#EBEBEB"/>
<path d="M403.276 281.991H210.738C209.23 281.988 207.784 281.387 206.719 280.319C205.653 279.252 205.055 277.805 205.055 276.297V5.6438C205.068 4.14413 205.672 2.7102 206.736 1.65347C207.8 0.596745 209.239 0.00256901 210.738 0H403.276C404.786 0 406.234 0.599866 407.302 1.66763C408.37 2.7354 408.969 4.1836 408.969 5.69366V276.297C408.969 277.807 408.37 279.255 407.302 280.323C406.234 281.391 404.786 281.991 403.276 281.991ZM210.738 0.199428C209.296 0.20207 207.914 0.776835 206.895 1.79757C205.876 2.8183 205.304 4.20159 205.304 5.6438V276.297C205.304 277.739 205.876 279.122 206.895 280.143C207.914 281.164 209.296 281.739 210.738 281.741H403.276C404.719 281.739 406.102 281.164 407.123 280.144C408.143 279.123 408.718 277.74 408.72 276.297V5.6438C408.718 4.20067 408.143 2.81741 407.123 1.79696C406.102 0.776511 404.719 0.202064 403.276 0.199428H210.738Z" fill="#EBEBEB"/>
<path d="M618.964 281.991H426.416C424.907 281.988 423.46 281.387 422.393 280.32C421.326 279.253 420.725 277.806 420.723 276.297V5.6438C420.738 4.14322 421.345 2.7093 422.411 1.65285C423.476 0.596397 424.916 0.002541 426.416 0H618.964C620.462 0.0051896 621.897 0.600525 622.959 1.65697C624.021 2.71342 624.624 4.14585 624.637 5.6438V276.297C624.637 277.804 624.04 279.249 622.977 280.316C621.913 281.383 620.47 281.985 618.964 281.991ZM426.416 0.199428C424.973 0.202064 423.59 0.776511 422.569 1.79696C421.549 2.81741 420.975 4.20067 420.972 5.6438V276.297C420.975 277.74 421.549 279.123 422.569 280.144C423.59 281.164 424.973 281.739 426.416 281.741H618.964C620.407 281.739 621.79 281.164 622.81 280.144C623.831 279.123 624.405 277.74 624.408 276.297V5.6438C624.405 4.20067 623.831 2.81741 622.81 1.79696C621.79 0.776511 620.407 0.202064 618.964 0.199428H426.416Z" fill="#EBEBEB"/>
<path d="M389.01 128.361H232.918V326.014H389.01V128.361Z" fill="#F0F0F0"/>
<path d="M383.483 135.57H238.43V177.839H383.483V135.57Z" fill="#E0E0E0"/>
<path d="M246.666 142.412H238.43V177.83H246.666V142.412Z" fill="#EBEBEB"/>
<path d="M286.51 142.412H278.273V177.83H286.51V142.412Z" fill="#EBEBEB"/>
<path d="M331.742 141.511L323.625 142.91L329.641 177.814L337.758 176.415L331.742 141.511Z" fill="#EBEBEB"/>
<path d="M256.873 147.076H248.637V177.828H256.873V147.076Z" fill="#EBEBEB"/>
<path d="M275.814 147.076H267.578V177.828H275.814V147.076Z" fill="#EBEBEB"/>
<path d="M323.611 147.076H315.375V177.828H323.611V147.076Z" fill="#EBEBEB"/>
<path d="M297.329 146.018L289.289 147.805L295.961 177.824L304.001 176.037L297.329 146.018Z" fill="#EBEBEB"/>
<path d="M264.001 140.646H259.883V177.83H264.001V140.646Z" fill="#EBEBEB"/>
<path d="M313.013 140.646H308.895V177.83H313.013V140.646Z" fill="#EBEBEB"/>
<path d="M238.431 226.789L383.484 226.789V184.52L238.431 184.52V226.789Z" fill="#E0E0E0"/>
<path d="M375.248 226.789H383.484V191.371H375.248V226.789Z" fill="#EBEBEB"/>
<path d="M335.396 226.789H343.633V191.371H335.396V226.789Z" fill="#EBEBEB"/>
<path d="M284.157 225.396L292.273 226.795L298.29 191.891L290.173 190.492L284.157 225.396Z" fill="#EBEBEB"/>
<path d="M365.021 226.789H373.258V196.037H365.021V226.789Z" fill="#EBEBEB"/>
<path d="M346.1 226.789H354.336V196.037H346.1V226.789Z" fill="#EBEBEB"/>
<path d="M298.287 226.789H306.523V196.037H298.287V226.789Z" fill="#EBEBEB"/>
<path d="M317.921 224.996L325.961 226.783L332.633 196.764L324.592 194.977L317.921 224.996Z" fill="#EBEBEB"/>
<path d="M357.905 226.789H362.023V189.606H357.905V226.789Z" fill="#EBEBEB"/>
<path d="M308.894 226.789H313.012V189.606H308.894V226.789Z" fill="#EBEBEB"/>
<path d="M246.666 191.371H238.43V226.789H246.666V191.371Z" fill="#EBEBEB"/>
<path d="M256.873 196.039H248.637V226.791H256.873V196.039Z" fill="#EBEBEB"/>
<path d="M275.814 196.039H267.578V226.791H275.814V196.039Z" fill="#EBEBEB"/>
<path d="M264.001 189.605H259.883V226.789H264.001V189.605Z" fill="#EBEBEB"/>
<path d="M383.483 233.479H238.43V275.747H383.483V233.479Z" fill="#E0E0E0"/>
<path d="M329.916 240.32H321.68V275.739H329.916V240.32Z" fill="#EBEBEB"/>
<path d="M375.152 239.429L367.035 240.828L373.052 275.732L381.168 274.333L375.152 239.429Z" fill="#EBEBEB"/>
<path d="M300.283 244.996H292.047V275.748H300.283V244.996Z" fill="#EBEBEB"/>
<path d="M319.229 244.996H310.992V275.748H319.229V244.996Z" fill="#EBEBEB"/>
<path d="M367.029 244.996H358.793V275.748H367.029V244.996Z" fill="#EBEBEB"/>
<path d="M340.755 243.934L332.715 245.721L339.386 275.74L347.427 273.953L340.755 243.934Z" fill="#EBEBEB"/>
<path d="M307.411 238.564H303.293V275.748H307.411V238.564Z" fill="#EBEBEB"/>
<path d="M356.419 238.564H352.301V275.748H356.419V238.564Z" fill="#EBEBEB"/>
<path d="M280.359 239.439L272.242 240.838L278.259 275.741L286.375 274.342L280.359 239.439Z" fill="#EBEBEB"/>
<path d="M272.229 244.996H263.992V275.748H272.229V244.996Z" fill="#EBEBEB"/>
<path d="M245.95 243.94L237.91 245.727L244.582 275.746L252.622 273.959L245.95 243.94Z" fill="#EBEBEB"/>
<path d="M261.618 238.564H257.5V275.748H261.618V238.564Z" fill="#EBEBEB"/>
<path d="M471.359 208.031H559.327C561.599 208.031 563.849 208.48 565.948 209.351C568.046 210.222 569.952 211.498 571.557 213.107C573.161 214.716 574.432 216.626 575.297 218.727C576.162 220.828 576.604 223.079 576.597 225.352V294.034H454.129V225.352C454.118 220.77 455.927 216.372 459.159 213.124C462.39 209.876 466.778 208.044 471.359 208.031Z" fill="#E6E6E6"/>
<path d="M428.087 258.947H443.822C445.175 258.942 446.515 259.204 447.767 259.719C449.018 260.233 450.155 260.99 451.113 261.945C452.072 262.9 452.831 264.035 453.349 265.285C453.867 266.535 454.133 267.875 454.132 269.228V326.065H417.816V269.228C417.815 267.878 418.08 266.542 418.595 265.294C419.111 264.047 419.867 262.914 420.821 261.959C421.775 261.004 422.908 260.247 424.154 259.73C425.401 259.213 426.737 258.947 428.087 258.947Z" fill="#E0E0E0"/>
<path d="M428.087 258.947H428.416C429.766 258.947 431.102 259.213 432.349 259.73C433.595 260.247 434.728 261.004 435.682 261.959C436.636 262.914 437.392 264.047 437.908 265.294C438.423 266.542 438.688 267.878 438.687 269.228V326.065H417.816V269.228C417.815 267.878 418.08 266.542 418.595 265.294C419.111 264.047 419.867 262.914 420.821 261.959C421.775 261.004 422.908 260.247 424.154 259.73C425.401 259.213 426.737 258.947 428.087 258.947Z" fill="#EBEBEB"/>
<path d="M563.78 299.92H443.066V326.015H563.78V299.92Z" fill="#E6E6E6"/>
<path d="M559.317 276.059H442.901C437.135 276.059 432.461 280.733 432.461 286.499V292.99C432.461 298.756 437.135 303.43 442.901 303.43H559.317C565.083 303.43 569.757 298.756 569.757 292.99V286.499C569.757 280.733 565.083 276.059 559.317 276.059Z" fill="#F5F5F5"/>
<path d="M559.119 276.059H544.69C538.924 276.059 534.25 280.733 534.25 286.499V292.99C534.25 298.756 538.924 303.43 544.69 303.43H559.119C564.884 303.43 569.559 298.756 569.559 292.99V286.499C569.559 280.733 564.884 276.059 559.119 276.059Z" fill="#E0E0E0"/>
<path d="M560.682 258.947H576.427C577.776 258.947 579.112 259.213 580.358 259.73C581.605 260.247 582.737 261.005 583.69 261.96C584.643 262.914 585.398 264.048 585.912 265.295C586.427 266.542 586.69 267.879 586.688 269.228V326.065H550.422V269.228C550.419 267.879 550.683 266.542 551.197 265.295C551.712 264.048 552.467 262.914 553.42 261.96C554.373 261.005 555.505 260.247 556.751 259.73C557.997 259.213 559.333 258.947 560.682 258.947Z" fill="#E0E0E0"/>
<path d="M560.682 258.947H561.021C562.371 258.947 563.706 259.213 564.953 259.73C566.199 260.247 567.331 261.005 568.284 261.96C569.237 262.914 569.992 264.048 570.507 265.295C571.021 266.542 571.285 267.879 571.282 269.228V326.065H550.422V269.228C550.419 267.879 550.683 266.542 551.197 265.295C551.712 264.048 552.467 262.914 553.42 261.96C554.373 261.005 555.505 260.247 556.751 259.73C557.997 259.213 559.333 258.947 560.682 258.947Z" fill="#F0F0F0"/>
<path d="M316.778 104.334C329.58 102.256 338.273 90.194 336.195 77.3925C334.117 64.5909 322.055 55.8978 309.253 57.9758C296.452 60.0537 287.759 72.116 289.837 84.9175C291.915 97.719 303.977 106.412 316.778 104.334Z" fill="#E0E0E0"/>
<path d="M316.216 100.87C327.105 99.1024 334.498 88.8431 332.731 77.955C330.964 67.0669 320.704 59.6731 309.816 61.4405C298.928 63.2079 291.534 73.4672 293.302 84.3553C295.069 95.2433 305.328 102.637 316.216 100.87Z" fill="#F0F0F0"/>
<path d="M312.064 94.8662V80.9062L302.82 86.1412" fill="#F0F0F0"/>
<path d="M312.065 95.8646C311.801 95.8646 311.547 95.7595 311.36 95.5725C311.173 95.3855 311.068 95.1319 311.068 94.8675V82.6126L303.31 87.01C303.08 87.1392 302.808 87.1719 302.554 87.1008C302.3 87.0298 302.084 86.8609 301.954 86.6311C301.824 86.4021 301.79 86.1311 301.859 85.877C301.928 85.6229 302.095 85.4065 302.323 85.275L311.577 80.04C311.728 79.9548 311.899 79.9107 312.073 79.9121C312.247 79.9136 312.418 79.9605 312.568 80.0482C312.718 80.1358 312.843 80.2613 312.93 80.4121C313.016 80.5628 313.062 80.7336 313.062 80.9075V94.8675C313.062 95.1319 312.957 95.3855 312.77 95.5725C312.583 95.7595 312.33 95.8646 312.065 95.8646Z" fill="#E0E0E0"/>
<path d="M594.338 51.5332H444.02V184.92H594.338V51.5332Z" fill="#E6E6E6"/>
<path d="M590.374 55.1914H447.773V181.339H590.374V55.1914Z" fill="#F0F0F0"/>
<path d="M481.237 55.1914L447.773 181.06V121.92L465.443 55.1914H481.237Z" fill="white"/>
<path d="M493.097 55.1914L459.334 181.339H453.949L487.712 55.1914H493.097Z" fill="white"/>
<path d="M590.375 134.793V154.945L583.545 181.339H578.16L590.375 134.793Z" fill="white"/>
<path d="M497.512 52.9277H495.109V184.161H497.512V52.9277Z" fill="#E6E6E6"/>
<path d="M544.071 52.9277H541.668V184.161H544.071V52.9277Z" fill="#E6E6E6"/>
<path d="M163.62 343.752V347.219C163.62 347.321 163.6 347.423 163.56 347.518C163.521 347.613 163.463 347.699 163.391 347.772C163.318 347.844 163.232 347.902 163.137 347.941C163.042 347.981 162.94 348.001 162.838 348.001H64.8906C64.0552 348.001 63.2325 347.796 62.4946 347.404C61.7568 347.013 61.1262 346.446 60.6582 345.754C60.1902 345.062 59.899 344.266 59.8102 343.435C59.7214 342.605 59.8376 341.765 60.1487 340.989L91.1882 264.115L141.35 264.453L139.64 274.43L128.573 338.99C128.49 339.48 128.515 339.981 128.645 340.46C128.776 340.939 129.009 341.384 129.329 341.763C129.649 342.143 130.048 342.448 130.497 342.658C130.947 342.868 131.437 342.977 131.933 342.979H162.838C162.94 342.978 163.041 342.997 163.136 343.035C163.231 343.073 163.317 343.13 163.39 343.202C163.463 343.274 163.521 343.359 163.56 343.454C163.6 343.548 163.62 343.649 163.62 343.752Z" fill="#263238"/>
<path opacity="0.5" d="M163.62 343.752V347.219C163.62 347.321 163.6 347.423 163.56 347.518C163.521 347.613 163.463 347.699 163.391 347.772C163.318 347.844 163.232 347.902 163.137 347.941C163.042 347.981 162.94 348.001 162.838 348.001H64.8906C64.0552 348.001 63.2325 347.796 62.4946 347.404C61.7568 347.013 61.1262 346.446 60.6582 345.754C60.1902 345.062 59.899 344.266 59.8102 343.435C59.7214 342.605 59.8376 341.765 60.1487 340.989L79.3963 293.329L91.1882 264.115L141.35 264.453L139.64 274.43L134.811 302.504L128.563 338.99C128.48 339.48 128.505 339.981 128.636 340.46C128.766 340.939 129 341.384 129.319 341.763C129.639 342.143 130.038 342.448 130.488 342.658C130.937 342.868 131.427 342.977 131.924 342.979H162.828C162.931 342.976 163.034 342.994 163.13 343.032C163.226 343.07 163.313 343.126 163.387 343.198C163.461 343.27 163.519 343.356 163.559 343.451C163.599 343.546 163.62 343.648 163.62 343.752Z" fill="white"/>
<path opacity="0.2" d="M131.931 342.965H68.1912C67.824 342.964 67.4626 342.873 67.139 342.7C66.8153 342.526 66.5393 342.276 66.3351 341.97C66.131 341.665 66.005 341.314 65.9683 340.949C65.9315 340.584 65.9852 340.215 66.1245 339.875L93.3395 274.416H139.628L128.561 338.977C128.478 339.467 128.503 339.969 128.634 340.449C128.765 340.928 128.999 341.374 129.32 341.753C129.641 342.133 130.041 342.438 130.492 342.648C130.943 342.857 131.434 342.965 131.931 342.965Z" fill="black"/>
<path opacity="0.1" d="M141.352 264.442L139.642 274.418L134.823 302.492L79.3984 293.327L91.1903 264.104L141.352 264.442Z" fill="black"/>
<path d="M238.878 121.143H6.66206C5.88209 121.143 5.10975 121.296 4.38914 121.595C3.66854 121.893 3.01379 122.331 2.46227 122.882C1.91074 123.434 1.47325 124.088 1.17477 124.809C0.876282 125.53 0.722656 126.302 0.722656 127.082V284.298C0.722656 285.873 1.34841 287.383 2.46227 288.497C3.57612 289.611 5.08683 290.237 6.66206 290.237H238.878C240.454 290.237 241.966 289.611 243.081 288.498C244.197 287.384 244.825 285.874 244.827 284.298V127.082C244.825 125.506 244.197 123.995 243.081 122.882C241.966 121.768 240.454 121.143 238.878 121.143Z" fill="#263238"/>
<path opacity="0.6" d="M238.878 121.143H6.66206C5.88209 121.143 5.10975 121.296 4.38914 121.595C3.66854 121.893 3.01379 122.331 2.46227 122.882C1.91074 123.434 1.47325 124.088 1.17477 124.809C0.876282 125.53 0.722656 126.302 0.722656 127.082V284.298C0.722656 285.873 1.34841 287.383 2.46227 288.497C3.57612 289.611 5.08683 290.237 6.66206 290.237H238.878C240.454 290.237 241.966 289.611 243.081 288.498C244.197 287.384 244.825 285.874 244.827 284.298V127.082C244.825 125.506 244.197 123.995 243.081 122.882C241.966 121.768 240.454 121.143 238.878 121.143Z" fill="white"/>
<path opacity="0.2" d="M11.5874 290.227H6.66207C5.08851 290.227 3.57926 289.603 2.46569 288.491C1.35211 287.379 0.725223 285.871 0.722664 284.298V127.092C0.721395 126.311 0.874088 125.538 1.172 124.816C1.46992 124.094 1.9072 123.438 2.45886 122.886C3.01051 122.333 3.66569 121.895 4.38692 121.596C5.10815 121.297 5.88128 121.143 6.66207 121.143H11.5874C10.8042 121.139 10.028 121.29 9.30338 121.587C8.5788 121.885 7.92019 122.322 7.36547 122.875C6.81074 123.428 6.37085 124.086 6.07113 124.809C5.77141 125.533 5.61777 126.308 5.61905 127.092V284.298C5.61903 285.08 5.77368 285.854 6.07409 286.576C6.3745 287.298 6.81474 287.953 7.36947 288.504C7.92419 289.055 8.58245 289.491 9.30635 289.787C10.0302 290.083 10.8055 290.232 11.5874 290.227Z" fill="black"/>
<path d="M239.481 126.25H11.0117V277.845H239.481V126.25Z" fill="#407BFF"/>
<path opacity="0.4" d="M122.091 183.955C133.046 183.955 141.927 175.073 141.927 164.118C141.927 153.162 133.046 144.281 122.091 144.281C111.135 144.281 102.254 153.162 102.254 164.118C102.254 175.073 111.135 183.955 122.091 183.955Z" fill="white"/>
<path d="M117.354 161.105V159.289C117.354 158.424 117.698 157.593 118.31 156.981C118.922 156.369 119.752 156.025 120.618 156.025H123.515C123.947 156.02 124.376 156.101 124.776 156.262C125.177 156.424 125.541 156.664 125.848 156.967C126.156 157.271 126.4 157.633 126.566 158.031C126.732 158.43 126.818 158.857 126.818 159.289V161.144H128.933V159.289C128.931 157.864 128.363 156.497 127.355 155.489C126.347 154.48 124.98 153.913 123.554 153.91H120.657C119.231 153.913 117.864 154.48 116.856 155.489C115.847 156.497 115.28 157.864 115.277 159.289V161.144L117.354 161.105Z" fill="white"/>
<path d="M112.574 163.548V173.293C112.574 173.435 112.602 173.576 112.657 173.707C112.711 173.838 112.791 173.957 112.891 174.058C112.991 174.158 113.111 174.238 113.242 174.292C113.373 174.347 113.514 174.375 113.656 174.375H130.518C130.66 174.375 130.801 174.347 130.932 174.292C131.063 174.238 131.182 174.158 131.283 174.058C131.383 173.957 131.463 173.838 131.517 173.707C131.572 173.576 131.6 173.435 131.6 173.293V163.548C131.6 163.262 131.486 162.986 131.283 162.784C131.08 162.581 130.805 162.467 130.518 162.467H113.656C113.514 162.467 113.373 162.495 113.242 162.549C113.111 162.604 112.991 162.683 112.891 162.784C112.791 162.884 112.711 163.003 112.657 163.135C112.602 163.266 112.574 163.406 112.574 163.548ZM122.695 169.063V170.994H121.507V169.063C121.334 168.966 121.188 168.827 121.083 168.658C120.978 168.489 120.918 168.296 120.909 168.097C120.909 167.777 121.036 167.47 121.262 167.244C121.489 167.017 121.796 166.89 122.116 166.89C122.436 166.89 122.743 167.017 122.97 167.244C123.196 167.47 123.323 167.777 123.323 168.097C123.311 168.299 123.246 168.494 123.136 168.663C123.026 168.832 122.874 168.97 122.695 169.063Z" fill="white"/>
<path d="M73.6955 200.383H54.9598C53.8451 200.383 52.9414 201.287 52.9414 202.401V221.137C52.9414 222.252 53.8451 223.155 54.9598 223.155H73.6955C74.8103 223.155 75.7139 222.252 75.7139 221.137V202.401C75.7139 201.287 74.8103 200.383 73.6955 200.383Z" fill="white"/>
<path d="M102.578 200.354H83.8426C82.7279 200.354 81.8242 201.257 81.8242 202.372V221.108C81.8242 222.222 82.7279 223.126 83.8426 223.126H102.578C103.693 223.126 104.597 222.222 104.597 221.108V202.372C104.597 201.257 103.693 200.354 102.578 200.354Z" fill="white"/>
<path d="M131.457 200.324H112.722C111.607 200.324 110.703 201.228 110.703 202.343V221.078C110.703 222.193 111.607 223.097 112.722 223.097H131.457C132.572 223.097 133.476 222.193 133.476 221.078V202.343C133.476 201.228 132.572 200.324 131.457 200.324Z" fill="white"/>
<path d="M160.336 200.289H141.6C140.486 200.289 139.582 201.193 139.582 202.307V221.043C139.582 222.158 140.486 223.062 141.6 223.062H160.336C161.451 223.062 162.355 222.158 162.355 221.043V202.307C162.355 201.193 161.451 200.289 160.336 200.289Z" fill="white"/>
<path d="M189.207 200.26H170.472C169.357 200.26 168.453 201.163 168.453 202.278V221.014C168.453 222.129 169.357 223.032 170.472 223.032H189.207C190.322 223.032 191.226 222.129 191.226 221.014V202.278C191.226 201.163 190.322 200.26 189.207 200.26Z" fill="white"/>
<path d="M174.828 212.086C174.828 208.078 176.972 205.799 179.85 205.799C182.728 205.799 184.862 208.078 184.862 212.086C184.862 216.094 182.718 218.373 179.85 218.373C176.982 218.373 174.828 216.094 174.828 212.086ZM183.105 212.086C183.105 208.938 181.762 207.363 179.85 207.363C177.938 207.363 176.586 208.938 176.586 212.086C176.586 215.234 177.919 216.808 179.85 216.808C181.782 216.808 183.105 215.225 183.105 212.086Z" fill="#263238"/>
<path d="M68.905 211.933C68.905 216.125 66.5292 218.375 63.1104 218.375C62.0434 218.413 60.9858 218.163 60.049 217.651L60.6671 216.269C61.3844 216.684 62.2053 216.885 63.0332 216.849C65.5248 216.849 67.1087 215.284 67.1087 212.204V211.769C66.6965 212.309 66.157 212.737 65.5385 213.017C64.9199 213.297 64.2416 213.419 63.5643 213.372C61.121 213.372 59.3633 211.914 59.3633 209.654C59.3633 207.394 61.2948 205.791 63.6995 205.791C67.0411 205.801 68.905 208.012 68.905 211.933ZM66.7417 209.596C66.7417 208.331 65.7759 207.22 63.8444 207.22C63.5063 207.179 63.1634 207.211 62.8382 207.312C62.513 207.413 62.2128 207.581 61.9574 207.807C61.7021 208.032 61.4972 208.309 61.3564 208.619C61.2156 208.929 61.1419 209.265 61.1403 209.606C61.1403 211.054 62.2123 211.982 63.941 211.982C65.6697 211.982 66.7417 210.948 66.7417 209.596Z" fill="#263238"/>
<path d="M88.1875 212.086C88.1875 208.078 90.3315 205.799 93.2094 205.799C96.0874 205.799 98.2217 208.078 98.2217 212.086C98.2217 216.094 96.0777 218.373 93.2094 218.373C90.3411 218.373 88.1875 216.094 88.1875 212.086ZM96.464 212.086C96.464 208.938 95.1313 207.363 93.2094 207.363C91.2876 207.363 89.9452 208.938 89.9452 212.086C89.9452 215.234 91.2779 216.808 93.2094 216.808C95.1409 216.808 96.464 215.234 96.464 212.086Z" fill="#263238"/>
<path d="M126.535 216.706V218.203H117.699V217.044L122.701 212.215C124.005 210.95 124.246 210.177 124.246 209.404C124.246 208.139 123.358 207.367 121.629 207.367C121.039 207.334 120.449 207.437 119.905 207.668C119.361 207.899 118.877 208.252 118.49 208.699L117.293 207.666C117.858 207.041 118.555 206.549 119.333 206.227C120.112 205.905 120.952 205.76 121.793 205.802C124.353 205.802 126.004 207.116 126.004 209.221C126.004 210.419 125.656 211.491 123.986 213.084L120.229 216.696L126.535 216.706Z" fill="#263238"/>
<path d="M152.414 205.938V218.203H150.676V207.473H147.895V205.938H152.414Z" fill="#263238"/>
<g opacity="0.6">
<path opacity="0.6" d="M100.484 194.819V195.254H97.1328V190.512H100.378V190.946H97.635V192.636H100.078V193.09H97.635V194.848L100.484 194.819Z" fill="white"/>
<path opacity="0.6" d="M104.833 193.185V195.252H104.35V193.233C104.378 193.084 104.371 192.929 104.329 192.782C104.286 192.636 104.209 192.501 104.105 192.39C104 192.279 103.87 192.194 103.727 192.143C103.583 192.091 103.429 192.074 103.278 192.094C103.108 192.082 102.937 192.107 102.778 192.168C102.618 192.229 102.474 192.324 102.356 192.446C102.237 192.568 102.146 192.715 102.09 192.876C102.034 193.037 102.014 193.209 102.032 193.378V195.252H101.559V191.688H102.013V192.345C102.158 192.122 102.359 191.943 102.597 191.824C102.835 191.705 103.099 191.652 103.365 191.669C103.566 191.652 103.768 191.68 103.958 191.751C104.147 191.821 104.318 191.933 104.458 192.079C104.599 192.224 104.705 192.398 104.77 192.59C104.835 192.781 104.856 192.985 104.833 193.185Z" fill="white"/>
<path opacity="0.6" d="M107.988 195.021C107.776 195.193 107.508 195.282 107.235 195.272C107.096 195.283 106.956 195.265 106.825 195.217C106.694 195.169 106.575 195.094 106.476 194.996C106.376 194.897 106.3 194.779 106.251 194.648C106.202 194.517 106.182 194.378 106.192 194.239V192.124H105.555V191.718H106.192V190.945H106.675V191.718H107.757V192.124H106.675V194.248C106.675 194.673 106.887 194.895 107.283 194.895C107.475 194.901 107.663 194.84 107.815 194.721L107.988 195.021Z" fill="white"/>
<path opacity="0.6" d="M111.851 193.623H108.876C108.899 193.972 109.059 194.299 109.321 194.53C109.584 194.762 109.927 194.88 110.277 194.859C110.481 194.866 110.685 194.828 110.873 194.748C111.062 194.668 111.231 194.548 111.368 194.396L111.638 194.705C111.375 194.952 111.047 195.12 110.693 195.191C110.338 195.261 109.971 195.231 109.633 195.103C109.295 194.975 109 194.755 108.781 194.468C108.562 194.181 108.427 193.838 108.393 193.478C108.38 193.243 108.415 193.008 108.497 192.787C108.579 192.567 108.705 192.365 108.868 192.196C109.032 192.026 109.228 191.892 109.445 191.802C109.663 191.712 109.896 191.668 110.132 191.672C110.366 191.668 110.599 191.712 110.815 191.802C111.032 191.893 111.227 192.027 111.389 192.197C111.551 192.367 111.675 192.568 111.755 192.789C111.834 193.009 111.867 193.244 111.851 193.478C111.851 193.478 111.851 193.565 111.851 193.623ZM108.876 193.266H111.397C111.369 192.95 111.225 192.657 110.991 192.443C110.758 192.23 110.453 192.111 110.137 192.111C109.82 192.111 109.515 192.23 109.282 192.443C109.049 192.657 108.904 192.95 108.876 193.266Z" fill="white"/>
<path opacity="0.6" d="M114.622 191.671V192.125H114.506C114.337 192.116 114.167 192.145 114.01 192.21C113.852 192.274 113.711 192.373 113.597 192.499C113.482 192.624 113.397 192.774 113.347 192.936C113.298 193.099 113.284 193.27 113.309 193.439V195.254H112.816V191.691H113.28V192.386C113.404 192.144 113.599 191.946 113.839 191.818C114.079 191.691 114.352 191.639 114.622 191.671Z" fill="white"/>
<path opacity="0.6" d="M120.301 191.688L118.524 195.676C118.225 196.371 117.848 196.594 117.336 196.594C117.178 196.599 117.021 196.573 116.873 196.517C116.725 196.46 116.59 196.375 116.477 196.265L116.699 195.908C116.781 195.996 116.881 196.066 116.993 196.113C117.105 196.16 117.225 196.182 117.346 196.178C117.664 196.178 117.877 196.033 118.08 195.589L118.234 195.241L116.679 191.688H117.182L118.514 194.71L119.857 191.688H120.301Z" fill="white"/>
<path opacity="0.6" d="M120.544 193.476C120.542 193.116 120.647 192.764 120.845 192.464C121.044 192.165 121.326 191.93 121.658 191.791C121.99 191.652 122.355 191.615 122.708 191.684C123.061 191.753 123.385 191.925 123.64 192.179C123.895 192.432 124.069 192.756 124.14 193.108C124.21 193.461 124.175 193.826 124.038 194.159C123.901 194.491 123.668 194.775 123.369 194.975C123.071 195.175 122.719 195.282 122.36 195.282C122.119 195.291 121.88 195.251 121.656 195.164C121.432 195.076 121.229 194.944 121.058 194.774C120.888 194.605 120.754 194.402 120.666 194.179C120.577 193.955 120.536 193.716 120.544 193.476ZM123.673 193.476C123.662 193.216 123.574 192.966 123.422 192.756C123.269 192.546 123.058 192.386 122.815 192.295C122.572 192.204 122.308 192.186 122.055 192.244C121.802 192.302 121.571 192.434 121.392 192.622C121.214 192.81 121.094 193.046 121.049 193.302C121.003 193.558 121.034 193.821 121.137 194.059C121.24 194.297 121.411 194.5 121.628 194.642C121.846 194.784 122.1 194.858 122.36 194.857C122.536 194.856 122.711 194.819 122.873 194.748C123.035 194.677 123.18 194.573 123.3 194.444C123.421 194.315 123.513 194.162 123.572 193.995C123.632 193.829 123.656 193.652 123.644 193.476H123.673Z" fill="white"/>
<path opacity="0.6" d="M128.315 191.688V195.251H127.861V194.594C127.729 194.814 127.54 194.994 127.314 195.114C127.087 195.235 126.833 195.292 126.577 195.28C126.373 195.3 126.167 195.274 125.974 195.205C125.781 195.135 125.606 195.022 125.463 194.876C125.319 194.729 125.21 194.553 125.144 194.358C125.078 194.164 125.056 193.958 125.08 193.754V191.688H125.553V193.706C125.524 193.856 125.532 194.011 125.574 194.157C125.617 194.304 125.693 194.438 125.798 194.549C125.903 194.661 126.032 194.745 126.176 194.797C126.32 194.848 126.474 194.865 126.625 194.846C126.793 194.855 126.961 194.828 127.117 194.766C127.273 194.703 127.414 194.608 127.529 194.485C127.644 194.363 127.731 194.217 127.783 194.057C127.835 193.897 127.852 193.728 127.832 193.561V191.688H128.315Z" fill="white"/>
<path opacity="0.6" d="M131.456 191.67V192.124H131.341C131.171 192.115 131.001 192.144 130.844 192.209C130.687 192.273 130.546 192.372 130.431 192.498C130.316 192.623 130.231 192.773 130.181 192.935C130.132 193.098 130.119 193.269 130.143 193.438V195.253H129.66V191.69H130.124V192.385C130.247 192.145 130.441 191.948 130.679 191.82C130.917 191.693 131.188 191.64 131.456 191.67Z" fill="white"/>
<path opacity="0.6" d="M133.822 192.887C133.805 192.391 133.936 191.901 134.199 191.48C134.462 191.059 134.845 190.726 135.298 190.524C135.752 190.322 136.255 190.26 136.744 190.346C137.233 190.432 137.685 190.663 138.042 191.007C138.399 191.352 138.646 191.796 138.749 192.281C138.852 192.767 138.808 193.272 138.623 193.733C138.437 194.193 138.118 194.587 137.706 194.865C137.295 195.143 136.81 195.292 136.313 195.292C135.99 195.305 135.667 195.252 135.365 195.137C135.062 195.022 134.787 194.847 134.554 194.622C134.321 194.397 134.136 194.128 134.01 193.83C133.884 193.531 133.82 193.211 133.822 192.887ZM138.293 192.887C138.305 192.489 138.196 192.097 137.982 191.761C137.768 191.425 137.458 191.161 137.092 191.003C136.726 190.845 136.322 190.801 135.931 190.876C135.539 190.951 135.18 191.142 134.898 191.423C134.616 191.705 134.426 192.065 134.351 192.456C134.276 192.847 134.32 193.252 134.478 193.618C134.635 193.983 134.899 194.294 135.235 194.508C135.571 194.722 135.964 194.83 136.362 194.819C136.874 194.819 137.365 194.615 137.728 194.253C138.09 193.891 138.293 193.399 138.293 192.887Z" fill="white"/>
<path opacity="0.6" d="M140.77 190.946H139.109V190.512H142.972V190.946H141.302V195.254H140.799L140.77 190.946Z" fill="white"/>
<path opacity="0.6" d="M147.445 192.122C147.445 193.088 146.711 193.735 145.513 193.735H144.248V195.232H143.727V190.49H145.494C146.711 190.51 147.445 191.157 147.445 192.122ZM146.943 192.122C146.943 191.359 146.44 190.925 145.494 190.925H144.238V193.291H145.494C146.44 193.31 146.943 192.885 146.943 192.122Z" fill="white"/>
</g>
<g opacity="0.6">
<path opacity="0.6" d="M103.301 235.479L103.494 235.102C103.927 235.478 104.485 235.681 105.058 235.672C105.937 235.672 106.324 235.305 106.324 234.832C106.324 233.538 103.426 234.33 103.426 232.581C103.426 231.886 103.967 231.287 105.165 231.287C105.684 231.28 106.194 231.425 106.633 231.703L106.468 232.099C106.079 231.85 105.627 231.716 105.165 231.712C104.305 231.712 103.919 232.099 103.919 232.572C103.919 233.866 106.816 233.084 106.816 234.803C106.816 235.508 106.266 236.097 105.058 236.097C104.415 236.121 103.787 235.9 103.301 235.479Z" fill="white"/>
<path opacity="0.6" d="M110.881 234.424H107.907C107.929 234.773 108.089 235.1 108.352 235.331C108.614 235.563 108.958 235.681 109.307 235.66C109.512 235.667 109.716 235.629 109.904 235.549C110.093 235.469 110.261 235.349 110.399 235.197L110.669 235.506C110.499 235.7 110.288 235.854 110.05 235.956C109.813 236.058 109.556 236.105 109.298 236.095C109.053 236.11 108.807 236.073 108.577 235.988C108.347 235.903 108.137 235.771 107.961 235.6C107.784 235.429 107.646 235.223 107.553 234.996C107.461 234.769 107.417 234.524 107.424 234.279C107.412 234.045 107.449 233.81 107.531 233.59C107.613 233.37 107.74 233.169 107.902 233C108.065 232.831 108.261 232.697 108.478 232.606C108.695 232.515 108.928 232.47 109.162 232.473C109.398 232.467 109.632 232.511 109.849 232.6C110.067 232.69 110.263 232.824 110.426 232.994C110.589 233.164 110.714 233.366 110.794 233.587C110.874 233.809 110.907 234.044 110.891 234.279C110.891 234.279 110.881 234.376 110.881 234.424ZM107.907 234.067H110.428C110.4 233.751 110.255 233.458 110.022 233.244C109.789 233.031 109.484 232.912 109.167 232.912C108.851 232.912 108.546 233.031 108.313 233.244C108.079 233.458 107.935 233.751 107.907 234.067Z" fill="white"/>
<path opacity="0.6" d="M115.156 233.991V236.057H114.683V234.039C114.71 233.89 114.702 233.736 114.658 233.591C114.615 233.446 114.538 233.313 114.433 233.202C114.329 233.092 114.2 233.009 114.057 232.958C113.914 232.907 113.762 232.89 113.611 232.909C113.441 232.897 113.27 232.922 113.111 232.983C112.952 233.044 112.808 233.139 112.689 233.261C112.57 233.384 112.48 233.53 112.424 233.692C112.368 233.853 112.348 234.024 112.365 234.194V236.057H111.844V232.503H112.307V233.16C112.451 232.936 112.652 232.754 112.89 232.634C113.128 232.513 113.393 232.458 113.659 232.475C113.863 232.453 114.069 232.477 114.262 232.546C114.455 232.615 114.629 232.726 114.773 232.872C114.917 233.018 115.026 233.194 115.093 233.388C115.159 233.581 115.181 233.787 115.156 233.991Z" fill="white"/>
<path opacity="0.6" d="M119.733 231.035V236.057H119.269V235.352C119.128 235.587 118.926 235.78 118.685 235.911C118.444 236.042 118.172 236.106 117.898 236.096C117.441 236.062 117.013 235.857 116.701 235.521C116.388 235.185 116.215 234.744 116.215 234.285C116.215 233.826 116.388 233.385 116.701 233.049C117.013 232.713 117.441 232.508 117.898 232.474C118.165 232.465 118.43 232.525 118.667 232.648C118.904 232.772 119.105 232.955 119.25 233.179V231.035H119.733ZM119.26 234.28C119.248 234.021 119.161 233.771 119.009 233.561C118.857 233.352 118.647 233.191 118.404 233.1C118.162 233.008 117.898 232.99 117.645 233.048C117.392 233.105 117.162 233.236 116.983 233.423C116.803 233.61 116.683 233.846 116.636 234.1C116.59 234.355 116.619 234.618 116.721 234.857C116.823 235.095 116.992 235.299 117.208 235.442C117.424 235.585 117.678 235.661 117.937 235.661C118.116 235.664 118.295 235.63 118.46 235.561C118.626 235.492 118.776 235.389 118.9 235.259C119.024 235.13 119.12 234.976 119.182 234.807C119.244 234.639 119.271 234.459 119.26 234.28Z" fill="white"/>
<path opacity="0.6" d="M125.527 233.855V236.057H125.064V235.506C124.929 235.704 124.745 235.863 124.53 235.966C124.314 236.07 124.075 236.114 123.837 236.095C123.036 236.095 122.543 235.671 122.543 235.052C122.543 234.434 122.891 234.087 123.914 234.087H125.044V233.874C125.058 233.744 125.042 233.612 124.999 233.489C124.955 233.366 124.884 233.254 124.792 233.161C124.699 233.069 124.587 232.998 124.464 232.954C124.34 232.91 124.209 232.895 124.079 232.909C123.644 232.902 123.222 233.053 122.891 233.333L122.678 232.976C123.086 232.65 123.596 232.479 124.117 232.493C124.303 232.471 124.492 232.491 124.67 232.551C124.848 232.61 125.01 232.709 125.145 232.839C125.28 232.97 125.385 233.129 125.451 233.304C125.517 233.48 125.543 233.668 125.527 233.855ZM125.044 234.985V234.405H123.924C123.238 234.405 123.016 234.676 123.016 235.043C123.016 235.41 123.345 235.709 123.914 235.709C124.155 235.725 124.395 235.663 124.599 235.533C124.802 235.403 124.958 235.211 125.044 234.985Z" fill="white"/>
<path opacity="0.6" d="M130.128 232.502V235.583C130.166 235.825 130.146 236.072 130.07 236.305C129.994 236.538 129.865 236.75 129.691 236.923C129.518 237.096 129.306 237.226 129.073 237.302C128.841 237.378 128.593 237.398 128.351 237.36C127.751 237.383 127.161 237.192 126.69 236.819L126.931 236.452C127.327 236.772 127.823 236.943 128.332 236.935C129.239 236.935 129.645 236.529 129.645 235.651V235.197C129.492 235.419 129.285 235.599 129.044 235.719C128.802 235.839 128.534 235.895 128.264 235.882C128.027 235.9 127.788 235.869 127.564 235.79C127.339 235.712 127.133 235.587 126.959 235.426C126.785 235.264 126.646 235.068 126.55 234.85C126.455 234.632 126.406 234.396 126.406 234.158C126.406 233.92 126.455 233.685 126.55 233.467C126.646 233.249 126.785 233.053 126.959 232.891C127.133 232.729 127.339 232.605 127.564 232.527C127.788 232.448 128.027 232.417 128.264 232.435C128.538 232.421 128.812 232.479 129.057 232.603C129.302 232.726 129.512 232.911 129.664 233.14V232.463L130.128 232.502ZM129.664 234.192C129.674 233.923 129.603 233.657 129.46 233.428C129.318 233.2 129.11 233.019 128.864 232.909C128.618 232.799 128.345 232.766 128.079 232.812C127.814 232.859 127.569 232.984 127.375 233.171C127.181 233.358 127.047 233.598 126.991 233.862C126.935 234.125 126.958 234.4 127.059 234.65C127.16 234.899 127.333 235.114 127.556 235.264C127.78 235.415 128.043 235.496 128.312 235.496C128.489 235.507 128.665 235.481 128.831 235.42C128.997 235.359 129.148 235.264 129.275 235.141C129.402 235.019 129.502 234.871 129.569 234.708C129.636 234.544 129.669 234.369 129.664 234.192Z" fill="white"/>
<path opacity="0.6" d="M134.156 233.858V236.06H133.702V235.509C133.567 235.706 133.383 235.864 133.168 235.968C132.952 236.071 132.714 236.116 132.476 236.098C131.664 236.098 131.172 235.673 131.172 235.055C131.172 234.437 131.529 234.09 132.553 234.09H133.673V233.877C133.673 233.269 133.335 232.911 132.707 232.911C132.276 232.906 131.858 233.057 131.529 233.336L131.307 232.979C131.719 232.653 132.231 232.482 132.756 232.496C132.941 232.475 133.129 232.496 133.306 232.557C133.482 232.617 133.643 232.716 133.777 232.846C133.911 232.977 134.014 233.135 134.08 233.31C134.145 233.484 134.171 233.672 134.156 233.858ZM133.673 234.988V234.408H132.563C131.867 234.408 131.645 234.679 131.645 235.046C131.645 235.413 131.983 235.712 132.553 235.712C132.793 235.729 133.032 235.667 133.234 235.537C133.436 235.406 133.59 235.213 133.673 234.988Z" fill="white"/>
<path opacity="0.6" d="M135.355 231.373C135.369 231.29 135.412 231.214 135.477 231.159C135.541 231.104 135.623 231.074 135.708 231.074C135.793 231.074 135.874 231.104 135.939 231.159C136.004 231.214 136.047 231.29 136.06 231.373C136.047 231.456 136.004 231.532 135.939 231.587C135.874 231.642 135.793 231.672 135.708 231.672C135.623 231.672 135.541 231.642 135.477 231.587C135.412 231.532 135.369 231.456 135.355 231.373ZM135.462 232.503H135.945V236.057H135.462V232.503Z" fill="white"/>
<path opacity="0.6" d="M140.549 233.989V236.056H140.076V234.037C140.103 233.888 140.095 233.735 140.051 233.589C140.008 233.444 139.931 233.311 139.826 233.201C139.722 233.091 139.593 233.007 139.45 232.956C139.308 232.905 139.155 232.888 139.004 232.907C138.834 232.895 138.663 232.921 138.504 232.981C138.345 233.042 138.201 233.137 138.082 233.259C137.963 233.382 137.873 233.529 137.817 233.69C137.761 233.851 137.741 234.022 137.758 234.192V236.056H137.285V232.502H137.739V233.159C137.883 232.934 138.084 232.752 138.322 232.632C138.56 232.511 138.825 232.456 139.091 232.473C139.292 232.457 139.493 232.486 139.681 232.558C139.869 232.629 140.039 232.742 140.178 232.887C140.318 233.031 140.423 233.206 140.488 233.396C140.552 233.587 140.573 233.789 140.549 233.989Z" fill="white"/>
</g>
<path opacity="0.4" d="M148.998 260.203H95.1759C93.0491 260.201 91.0103 259.354 89.5074 257.849C88.0044 256.344 87.1602 254.305 87.1602 252.178C87.1602 250.051 88.0044 248.011 89.5074 246.506C91.0103 245.002 93.0491 244.155 95.1759 244.152H148.998C151.126 244.152 153.167 244.998 154.672 246.503C156.177 248.008 157.023 250.049 157.023 252.178C157.023 254.306 156.177 256.348 154.672 257.853C153.167 259.358 151.126 260.203 148.998 260.203Z" fill="white"/>
<path d="M101.094 251.772C101.089 251.396 101.162 251.023 101.308 250.677C101.453 250.33 101.669 250.017 101.94 249.757C102.212 249.497 102.534 249.296 102.887 249.166C103.24 249.035 103.616 248.979 103.991 249C104.375 248.987 104.757 249.056 105.112 249.202C105.467 249.349 105.786 249.57 106.048 249.85L105.546 250.333C105.352 250.124 105.115 249.959 104.852 249.849C104.589 249.739 104.305 249.687 104.02 249.696C103.677 249.699 103.341 249.787 103.04 249.952C102.74 250.118 102.485 250.355 102.298 250.642C102.111 250.93 101.999 251.259 101.971 251.601C101.943 251.943 101.999 252.286 102.136 252.601C102.273 252.915 102.486 253.191 102.755 253.403C103.024 253.615 103.342 253.757 103.68 253.817C104.018 253.876 104.365 253.851 104.69 253.744C105.016 253.637 105.31 253.45 105.546 253.201L106.048 253.684C105.785 253.966 105.464 254.187 105.107 254.334C104.751 254.48 104.367 254.549 103.982 254.534C103.607 254.555 103.233 254.499 102.881 254.37C102.53 254.24 102.208 254.04 101.938 253.781C101.667 253.522 101.452 253.21 101.307 252.864C101.162 252.519 101.089 252.147 101.094 251.772Z" fill="white"/>
<path d="M106.57 251.773C106.543 251.195 106.689 250.622 106.991 250.128C107.292 249.634 107.735 249.242 108.261 249.002C108.788 248.761 109.374 248.684 109.945 248.78C110.515 248.876 111.044 249.141 111.463 249.54C111.882 249.94 112.171 250.455 112.295 251.021C112.418 251.586 112.369 252.175 112.154 252.713C111.939 253.25 111.569 253.711 111.09 254.036C110.611 254.36 110.045 254.534 109.467 254.535C109.093 254.554 108.718 254.498 108.367 254.368C108.015 254.237 107.694 254.037 107.423 253.778C107.151 253.52 106.936 253.208 106.789 252.864C106.642 252.519 106.568 252.148 106.57 251.773ZM111.543 251.773C111.549 251.355 111.43 250.944 111.202 250.594C110.974 250.244 110.646 249.97 110.262 249.806C109.877 249.643 109.452 249.597 109.042 249.676C108.631 249.755 108.253 249.954 107.956 250.248C107.659 250.542 107.457 250.918 107.374 251.328C107.292 251.738 107.333 252.163 107.493 252.549C107.653 252.936 107.924 253.265 108.272 253.497C108.62 253.728 109.029 253.851 109.448 253.849C109.724 253.858 109.999 253.811 110.256 253.71C110.513 253.61 110.747 253.457 110.943 253.263C111.139 253.068 111.294 252.836 111.397 252.58C111.5 252.323 111.55 252.049 111.543 251.773Z" fill="white"/>
<path d="M118.147 249.105V254.514H117.51L114.265 250.477V254.514H113.492V249.105H114.13L117.375 253.133V249.105H118.147Z" fill="white"/>
<path d="M120.843 249.733H118.988V249.105H123.44V249.772H121.605V254.514H120.843V249.733Z" fill="white"/>
<path d="M124.305 249.105H125.077V254.514H124.305V249.105Z" fill="white"/>
<path d="M131.354 249.105V254.514H130.717L127.472 250.477V254.514H126.699V249.105H127.308L130.553 253.133V249.105H131.354Z" fill="white"/>
<path d="M132.922 252.138V249.105H133.694V252.148C133.694 253.345 134.245 253.886 135.22 253.886C136.196 253.886 136.746 253.345 136.746 252.148V249.105H137.5V252.177C137.5 252.784 137.258 253.366 136.829 253.795C136.4 254.224 135.818 254.465 135.211 254.465C134.604 254.465 134.021 254.224 133.592 253.795C133.163 253.366 132.922 252.784 132.922 252.177V252.138Z" fill="white"/>
<path d="M143.011 253.799V254.475H139.09V249.105H142.953V249.772H139.862V251.433H142.567V252.09H139.862V253.838L143.011 253.799Z" fill="white"/>
<path opacity="0.1" d="M215.665 126.955C184.075 158.603 102.942 229.045 11.0117 223.83V126.955H215.665Z" fill="white"/>
<path opacity="0.1" d="M239.465 185.125V278.562H101.922C107.195 259.691 117.741 233.847 138.196 215.382C174.991 182.16 217.697 182.256 239.465 185.125Z" fill="white"/>
<path d="M298.18 115.758L301.49 130.376L304.801 115.758H298.18Z" fill="#407BFF"/>
<path opacity="0.7" d="M298.18 115.758L301.49 130.376L304.801 115.758H298.18Z" fill="white"/>
<path d="M338.542 74.3672H264.444C259.714 74.3672 255.879 78.2021 255.879 82.9326V110.434C255.879 115.164 259.714 118.999 264.444 118.999H338.542C343.272 118.999 347.107 115.164 347.107 110.434V82.9326C347.107 78.2021 343.272 74.3672 338.542 74.3672Z" fill="#407BFF"/>
<path opacity="0.7" d="M338.542 74.3672H264.444C259.714 74.3672 255.879 78.2021 255.879 82.9326V110.434C255.879 115.164 259.714 118.999 264.444 118.999H338.542C343.272 118.999 347.107 115.164 347.107 110.434V82.9326C347.107 78.2021 343.272 74.3672 338.542 74.3672Z" fill="white"/>
<g opacity="0.5">
<path opacity="0.5" d="M274.099 90.739V92.6634H273.311V90.739L271.098 87.1094H271.955L273.74 90.1008L275.535 87.1094H276.323L274.099 90.739Z" fill="#263238"/>
<path opacity="0.5" d="M276.145 90.56C276.138 90.1225 276.26 89.6926 276.497 89.325C276.735 88.9574 277.076 88.6687 277.478 88.4958C277.88 88.3229 278.324 88.2735 278.754 88.354C279.184 88.4345 279.581 88.6412 279.893 88.9477C280.205 89.2542 280.419 89.6468 280.507 90.0753C280.595 90.5038 280.554 90.9489 280.389 91.3539C280.223 91.7589 279.941 92.1055 279.577 92.3494C279.214 92.5934 278.787 92.7237 278.349 92.7238C278.059 92.7376 277.77 92.6915 277.499 92.5882C277.228 92.4849 276.981 92.3266 276.774 92.1235C276.567 91.9203 276.405 91.6765 276.297 91.4074C276.188 91.1384 276.137 90.8499 276.145 90.56ZM279.765 90.56C279.782 90.3634 279.757 90.1655 279.693 89.9788C279.629 89.7922 279.527 89.6208 279.394 89.4756C279.26 89.3304 279.098 89.2145 278.917 89.1352C278.737 89.0559 278.541 89.0149 278.344 89.0149C278.147 89.0149 277.952 89.0559 277.771 89.1352C277.59 89.2145 277.428 89.3304 277.295 89.4756C277.161 89.6208 277.059 89.7922 276.995 89.9788C276.931 90.1655 276.907 90.3634 276.923 90.56C276.907 90.7566 276.931 90.9545 276.995 91.1411C277.059 91.3278 277.161 91.4991 277.295 91.6443C277.428 91.7896 277.59 91.9055 277.771 91.9848C277.952 92.0641 278.147 92.105 278.344 92.105C278.541 92.105 278.737 92.0641 278.917 91.9848C279.098 91.9055 279.26 91.7896 279.394 91.6443C279.527 91.4991 279.629 91.3278 279.693 91.1411C279.757 90.9545 279.782 90.7566 279.765 90.56Z" fill="#263238"/>
<path opacity="0.5" d="M285.532 88.4473V92.6751H284.814V92.037C284.648 92.2592 284.431 92.4379 284.181 92.5577C283.931 92.6775 283.656 92.7349 283.378 92.725C283.131 92.7504 282.881 92.72 282.646 92.636C282.412 92.552 282.199 92.4165 282.024 92.2396C281.849 92.0626 281.716 91.8486 281.635 91.6134C281.553 91.3781 281.526 91.1276 281.554 90.8803V88.4473H282.321V90.8005C282.321 91.6281 282.74 92.037 283.468 92.037C283.651 92.0489 283.833 92.0201 284.003 91.9529C284.174 91.8856 284.327 91.7815 284.451 91.6479C284.576 91.5144 284.67 91.3548 284.726 91.1807C284.782 91.0066 284.798 90.8222 284.774 90.641V88.4473H285.532Z" fill="#263238"/>
<path opacity="0.5" d="M289.274 88.4072V89.1551H289.094C288.908 89.143 288.722 89.1724 288.549 89.2413C288.375 89.3101 288.22 89.4167 288.093 89.5532C287.966 89.6897 287.871 89.8527 287.815 90.0305C287.759 90.2083 287.743 90.3963 287.768 90.581V92.685H286.98V88.4471H287.718V89.1651C287.878 88.9034 288.11 88.6929 288.385 88.5586C288.661 88.4243 288.969 88.3718 289.274 88.4072Z" fill="#263238"/>
<path opacity="0.5" d="M292.077 89.8828C292.051 89.2863 292.204 88.6957 292.517 88.187C292.83 87.6783 293.287 87.2748 293.831 87.0284C294.375 86.782 294.98 86.7039 295.569 86.8043C296.157 86.9047 296.702 87.1789 297.134 87.5916C297.565 88.0043 297.863 88.5367 297.989 89.1202C298.116 89.7037 298.064 90.3117 297.842 90.8659C297.62 91.4201 297.237 91.8952 296.743 92.23C296.249 92.5648 295.665 92.744 295.068 92.7445C294.681 92.7664 294.293 92.7084 293.929 92.574C293.564 92.4397 293.232 92.2318 292.951 91.9635C292.671 91.6951 292.448 91.3719 292.298 91.0139C292.147 90.656 292.072 90.271 292.077 89.8828ZM297.212 89.8828C297.218 89.4512 297.096 89.0276 296.86 88.666C296.624 88.3044 296.286 88.0211 295.889 87.8523C295.492 87.6835 295.053 87.6367 294.629 87.718C294.206 87.7993 293.815 88.0049 293.509 88.3087C293.202 88.6125 292.993 89.0007 292.908 89.4238C292.823 89.8469 292.865 90.2858 293.03 90.6846C293.196 91.0834 293.476 91.4239 293.835 91.6629C294.194 91.9019 294.617 92.0285 295.049 92.0266C295.334 92.0362 295.618 91.9875 295.883 91.8834C296.149 91.7793 296.39 91.6221 296.593 91.4213C296.795 91.2206 296.955 90.9806 297.061 90.716C297.168 90.4514 297.219 90.1679 297.212 89.8828Z" fill="#263238"/>
<path opacity="0.5" d="M300.266 87.7505H298.352V87.0625H302.938V87.7505H301.024V92.6365H300.236L300.266 87.7505Z" fill="#263238"/>
<path opacity="0.5" d="M308.343 89.046C308.343 90.2525 307.466 90.9904 306.01 90.9904H304.634V92.6756H303.836V87.1016H306.01C307.466 87.1016 308.343 87.8295 308.343 89.046ZM307.545 89.046C307.545 88.2483 307.007 87.7896 305.99 87.7896H304.634V90.2924H305.99C307.007 90.2924 307.545 89.8437 307.545 89.046Z" fill="#263238"/>
<path opacity="0.5" d="M311.281 89.8819C311.308 89.3048 311.501 88.7479 311.838 88.2783C312.174 87.8088 312.64 87.4467 313.177 87.2358C313.715 87.0249 314.302 86.9742 314.868 87.0899C315.434 87.2055 315.955 87.4826 316.367 87.8876L315.848 88.3961C315.648 88.1791 315.404 88.0072 315.133 87.892C314.861 87.7768 314.568 87.7209 314.273 87.728C313.704 87.728 313.159 87.9539 312.757 88.356C312.355 88.758 312.129 89.3033 312.129 89.8719C312.129 90.4405 312.355 90.9858 312.757 91.3878C313.159 91.7899 313.704 92.0157 314.273 92.0157C314.568 92.0229 314.861 91.967 315.133 91.8518C315.404 91.7365 315.648 91.5647 315.848 91.3476L316.367 91.8562C315.955 92.2612 315.434 92.5382 314.868 92.6539C314.302 92.7696 313.715 92.7189 313.177 92.508C312.64 92.2971 312.174 91.935 311.838 91.4654C311.501 90.9959 311.308 90.4389 311.281 89.8619V89.8819Z" fill="#263238"/>
<path opacity="0.5" d="M316.825 90.56C316.817 90.1225 316.94 89.6926 317.177 89.325C317.414 88.9574 317.756 88.6687 318.157 88.4958C318.559 88.3229 319.004 88.2735 319.434 88.354C319.864 88.4345 320.26 88.6412 320.572 88.9477C320.885 89.2542 321.098 89.6468 321.187 90.0753C321.275 90.5038 321.234 90.9489 321.068 91.3539C320.903 91.7589 320.62 92.1055 320.257 92.3494C319.894 92.5934 319.466 92.7237 319.029 92.7238C318.739 92.7376 318.45 92.6915 318.179 92.5882C317.908 92.4849 317.661 92.3266 317.454 92.1235C317.247 91.9203 317.084 91.6765 316.976 91.4074C316.868 91.1384 316.817 90.8499 316.825 90.56ZM320.445 90.56C320.461 90.3634 320.437 90.1655 320.373 89.9788C320.309 89.7922 320.207 89.6208 320.073 89.4756C319.94 89.3304 319.778 89.2145 319.597 89.1352C319.416 89.0559 319.221 89.0149 319.024 89.0149C318.827 89.0149 318.631 89.0559 318.451 89.1352C318.27 89.2145 318.108 89.3304 317.974 89.4756C317.841 89.6208 317.739 89.7922 317.675 89.9788C317.611 90.1655 317.586 90.3634 317.603 90.56C317.586 90.7566 317.611 90.9545 317.675 91.1411C317.739 91.3278 317.841 91.4991 317.974 91.6443C318.108 91.7896 318.27 91.9055 318.451 91.9848C318.631 92.0641 318.827 92.105 319.024 92.105C319.221 92.105 319.416 92.0641 319.597 91.9848C319.778 91.9055 319.94 91.7896 320.073 91.6443C320.207 91.4991 320.309 91.3278 320.373 91.1411C320.437 90.9545 320.461 90.7566 320.445 90.56Z" fill="#263238"/>
<path opacity="0.5" d="M326.274 86.752V92.665H325.546V91.9969C325.372 92.2295 325.144 92.4164 324.882 92.5414C324.619 92.6665 324.331 92.726 324.04 92.7148C323.493 92.6776 322.981 92.434 322.606 92.0333C322.232 91.6325 322.023 91.1045 322.023 90.556C322.023 90.0076 322.232 89.4796 322.606 89.0788C322.981 88.6781 323.493 88.4344 324.04 88.3972C324.322 88.3886 324.602 88.4454 324.858 88.563C325.114 88.6807 325.339 88.856 325.516 89.0753V86.752H326.274ZM325.516 90.551C325.503 90.272 325.407 90.0031 325.242 89.7778C325.077 89.5524 324.849 89.3806 324.587 89.2836C324.325 89.1866 324.04 89.1688 323.768 89.2322C323.496 89.2957 323.249 89.4377 323.056 89.6406C322.864 89.8435 322.736 90.0984 322.688 90.3735C322.639 90.6487 322.673 90.932 322.784 91.1883C322.895 91.4447 323.079 91.6627 323.313 91.8153C323.547 91.9679 323.821 92.0484 324.1 92.0468C324.293 92.0514 324.486 92.0156 324.664 91.9417C324.843 91.8677 325.004 91.7573 325.137 91.6174C325.27 91.4774 325.373 91.3112 325.438 91.1293C325.504 90.9473 325.53 90.7538 325.516 90.561V90.551Z" fill="#263238"/>
<path opacity="0.5" d="M331.525 90.8198H328.105C328.153 91.1822 328.337 91.5125 328.621 91.7425C328.905 91.9726 329.267 92.0849 329.631 92.0563C329.858 92.0644 330.085 92.0232 330.295 91.9354C330.505 91.8476 330.693 91.7153 330.847 91.5477L331.276 92.0363C330.964 92.353 330.566 92.5724 330.132 92.6681C329.698 92.7638 329.245 92.7316 328.828 92.5756C328.412 92.4195 328.049 92.1462 327.785 91.7886C327.52 91.431 327.365 91.0045 327.337 90.5606C327.327 90.2773 327.374 89.9948 327.476 89.7305C327.579 89.4662 327.734 89.2257 327.933 89.0239C328.132 88.822 328.371 88.6631 328.633 88.557C328.896 88.4509 329.178 88.3997 329.461 88.4068C329.747 88.3925 330.033 88.4401 330.299 88.5462C330.565 88.6523 330.805 88.8145 331.003 89.0217C331.201 89.2289 331.352 89.4763 331.445 89.747C331.539 90.0177 331.573 90.3054 331.545 90.5905C331.543 90.6673 331.537 90.7438 331.525 90.8198ZM328.105 90.2714H330.857C330.828 89.9331 330.673 89.618 330.423 89.3884C330.173 89.1589 329.846 89.0315 329.506 89.0315C329.167 89.0315 328.84 89.1589 328.589 89.3884C328.339 89.618 328.184 89.9331 328.155 90.2714H328.105Z" fill="#263238"/>
</g>
<g opacity="0.5">
<path opacity="0.5" d="M289.967 101.411C289.967 104.552 288.202 106.228 285.619 106.228C284.824 106.256 284.035 106.07 283.336 105.689L283.834 104.692C284.374 104.999 284.989 105.148 285.609 105.121C287.474 105.121 288.661 103.954 288.661 101.651V101.332C288.352 101.736 287.949 102.058 287.486 102.268C287.023 102.479 286.516 102.571 286.008 102.538C285.615 102.581 285.218 102.542 284.841 102.422C284.464 102.302 284.117 102.105 283.821 101.843C283.525 101.581 283.288 101.26 283.123 100.901C282.959 100.541 282.872 100.151 282.867 99.7561C282.877 99.3481 282.969 98.9464 283.14 98.5756C283.31 98.2049 283.555 97.8729 283.859 97.6002C284.162 97.3275 284.518 97.1197 284.905 96.9898C285.292 96.8598 285.701 96.8103 286.108 96.8445C288.571 96.8245 289.967 98.4798 289.967 101.411ZM288.341 99.7162C288.341 98.7689 287.584 97.9413 286.148 97.9413C285.897 97.9148 285.643 97.9412 285.404 98.0187C285.164 98.0962 284.943 98.2231 284.755 98.3913C284.567 98.5595 284.416 98.7651 284.313 98.9951C284.209 99.225 284.155 99.474 284.154 99.7262C284.154 100.803 284.951 101.501 286.238 101.501C286.494 101.527 286.753 101.501 286.999 101.425C287.245 101.348 287.473 101.223 287.669 101.056C287.866 100.89 288.026 100.685 288.142 100.455C288.258 100.225 288.325 99.9733 288.341 99.7162Z" fill="#263238"/>
<path opacity="0.5" d="M291.223 101.531C291.223 98.5393 292.828 96.8242 294.982 96.8242C297.136 96.8242 298.721 98.5393 298.721 101.531C298.721 104.522 297.116 106.227 294.982 106.227C292.848 106.227 291.223 104.522 291.223 101.531ZM297.405 101.531C297.405 99.1775 296.408 98.0008 294.982 98.0008C293.556 98.0008 292.539 99.1775 292.539 101.531C292.539 103.884 293.536 105.061 294.982 105.061C296.428 105.061 297.405 103.884 297.405 101.531Z" fill="#263238"/>
<path opacity="0.5" d="M306.411 104.98V106.127H299.8V105.229L303.549 101.62C304.546 100.672 304.696 100.094 304.696 99.5157C304.696 98.5784 304.028 98.0001 302.702 98.0001C302.261 97.9741 301.82 98.0506 301.413 98.2236C301.006 98.3966 300.645 98.6614 300.358 98.9972L299.461 98.2194C299.883 97.7523 300.403 97.3848 300.984 97.1434C301.565 96.902 302.193 96.7927 302.821 96.8234C304.736 96.8234 305.972 97.8206 305.972 99.3861C305.957 99.9508 305.814 100.505 305.553 101.006C305.292 101.507 304.921 101.942 304.467 102.278L301.655 104.98H306.411Z" fill="#263238"/>
<path opacity="0.5" d="M310.338 96.9316V106.125H309.032V98.0783H306.918V96.9316H310.338Z" fill="#263238"/>
<path opacity="0.5" d="M312.344 101.531C312.344 98.5393 313.949 96.8242 316.103 96.8242C318.257 96.8242 319.842 98.5393 319.842 101.531C319.842 104.522 318.247 106.227 316.103 106.227C313.959 106.227 312.344 104.522 312.344 101.531ZM318.536 101.531C318.536 99.1775 317.539 98.0008 316.103 98.0008C314.667 98.0008 313.66 99.1775 313.66 101.531C313.66 103.884 314.657 105.061 316.103 105.061C317.549 105.061 318.536 103.884 318.536 101.531Z" fill="#263238"/>
</g>
<path d="M293.296 158.638C299.249 162.758 305.907 165.749 312.94 167.463H313.01C312.483 167.448 311.965 167.594 311.524 167.882C311.089 168.153 310.743 168.544 310.527 169.009C310.454 169.151 310.413 169.308 310.407 169.467C310.567 167.373 309.659 165.02 309.021 162.757C307.874 159.177 306.528 155.507 305.182 151.908L309.031 149.844C312.212 154.72 322.831 170.155 315.582 174.623C314.339 175.347 312.871 175.582 311.464 175.281C303.565 174.111 296.032 171.173 289.427 166.685C288.969 166.366 288.57 166.087 288.031 165.688L293.316 158.619L293.296 158.638Z" fill="#A26760"/>
<path d="M292.179 157.552C295.67 157.973 298.985 159.319 301.782 161.451L297.793 173.795C297.793 173.795 278.409 155.926 292.179 157.552Z" fill="#407BFF"/>
<path opacity="0.6" d="M292.137 167.929C293.911 169.961 295.788 171.902 297.761 173.743L299.406 168.667L301.779 161.398C298.986 159.268 295.674 157.922 292.187 157.499C283.711 156.552 287.759 162.894 292.137 167.929Z" fill="white"/>
<path opacity="0.2" d="M292.141 167.931C293.915 169.963 295.792 171.903 297.765 173.744L299.41 168.669C297.341 167.057 294.794 166.179 292.171 166.176C292.111 166.759 292.101 167.346 292.141 167.931Z" fill="black"/>
<path d="M249.09 139.293C249.09 139.293 239.817 170.124 259.351 174.263C278.885 178.401 280.999 164.211 280.999 164.211C280.999 164.211 264.945 139.921 249.09 139.293Z" fill="#263238"/>
<path d="M244.512 149.505C244.477 149.515 244.439 149.515 244.403 149.505C244.375 149.491 244.349 149.472 244.329 149.448C244.309 149.424 244.293 149.397 244.284 149.367C244.275 149.337 244.271 149.305 244.275 149.274C244.278 149.243 244.288 149.213 244.303 149.186C244.595 148.654 245.006 148.197 245.504 147.851C246.003 147.504 246.574 147.279 247.175 147.191C247.237 147.193 247.296 147.218 247.342 147.26C247.388 147.302 247.417 147.359 247.424 147.421C247.427 147.452 247.423 147.484 247.414 147.514C247.404 147.544 247.389 147.572 247.368 147.596C247.348 147.62 247.323 147.64 247.295 147.654C247.267 147.669 247.236 147.677 247.205 147.68C246.685 147.765 246.191 147.967 245.761 148.271C245.331 148.575 244.975 148.973 244.722 149.435C244.696 149.464 244.663 149.486 244.627 149.498C244.59 149.51 244.55 149.513 244.512 149.505Z" fill="#263238"/>
<path d="M247.304 153.332C247.179 154.534 246.907 155.716 246.496 156.852C246.805 157.036 247.158 157.134 247.518 157.134C247.878 157.134 248.231 157.036 248.54 156.852L247.304 153.332Z" fill="#A26760"/>
<path d="M245.422 151.987C245.631 152.536 246.1 152.865 246.419 152.725C246.738 152.586 246.917 152.037 246.708 151.489C246.499 150.94 246.03 150.611 245.711 150.751C245.392 150.89 245.222 151.439 245.422 151.987Z" fill="#263238"/>
<path d="M245.866 150.721H244.5C244.5 150.721 245.477 151.479 245.866 150.721Z" fill="#263238"/>
<path d="M265.277 157.162C265.243 157.251 265.196 157.335 265.138 157.411C265.048 157.58 264.948 157.74 264.848 157.909C264.264 158.96 263.486 159.891 262.555 160.652C259.564 163.035 256.961 163.753 254.697 163.065L254.368 162.955C251.008 161.589 248.386 157.57 246.302 152.256C245.377 150.176 244.794 147.96 244.577 145.695C244.577 145.695 244.577 145.615 244.577 145.595C244.577 145.575 244.577 145.415 244.577 145.336C244.499 144.037 244.746 142.74 245.296 141.561C245.846 140.382 246.682 139.359 247.727 138.585C248.621 137.883 249.591 137.285 250.619 136.8C260.581 131.944 270.273 147.759 265.277 157.162Z" fill="#A26760"/>
<path opacity="0.2" d="M264.846 157.909C264.262 158.96 263.484 159.89 262.553 160.651C259.561 163.034 256.959 163.752 254.695 163.064C256.896 162.531 258.878 161.329 260.369 159.624C260.944 159.028 261.644 158.566 262.417 158.269C263.191 157.973 264.02 157.85 264.846 157.909Z" fill="black"/>
<path d="M244.525 145.636C244.525 145.636 247.307 152.955 255.433 152.826C255.433 152.826 261.775 158.808 266.053 156.904C271.886 154.321 273.083 143.712 267.14 136.303C259.422 126.691 242.59 133.621 244.525 145.636Z" fill="#263238"/>
<path d="M251.084 152.405C250.566 151.298 250.576 149.034 252.4 148.476C254.225 147.918 257.386 151.796 253.457 154.828C252.899 155.266 252.161 154.698 251.084 152.405Z" fill="#A26760"/>
<path d="M253.27 132.313C253.27 132.313 245.731 133.798 243.298 138.296C240.446 143.521 240.307 147.569 247.885 150.261C247.885 150.261 257.468 141.287 261.596 140.29C264.001 139.693 266.453 139.299 268.925 139.113C266.173 131.146 256.311 129.012 253.27 132.313Z" fill="#263238"/>
<path d="M260.58 160.84C260.58 160.84 265.765 164.43 267.111 170.353L283.275 160.92C283.275 160.92 270.621 158.039 268.448 153.143C268.448 153.143 259.992 154.19 260.58 160.84Z" fill="#A26760"/>
<path d="M276.631 199.68C276.631 199.68 255.691 179.109 253.438 172.648C253.438 172.648 262.242 158.937 279.842 158.359C297.441 157.781 309.417 191.265 309.417 191.265L276.631 199.68Z" fill="#407BFF"/>
<path opacity="0.6" d="M309.419 191.275L276.643 199.691C276.643 199.691 272.076 195.194 266.97 189.72C265.395 188.014 263.75 186.22 262.164 184.445C258.006 179.728 254.337 175.121 253.449 172.619C253.449 172.619 262.244 158.908 279.843 158.33C297.443 157.751 309.419 191.275 309.419 191.275Z" fill="white"/>
<path d="M257.071 149.314C257.071 149.314 260.132 159.484 270.881 162.855C281.63 166.225 278.928 177.204 289.348 175.907C294.892 175.219 299.639 163.942 282.637 153.97C272.726 148.177 276.575 129.131 255.535 130.916C255.515 130.926 259.883 143.979 257.071 149.314Z" fill="#263238"/>
<path d="M267.505 354.714L262.52 353.577C263.267 328.649 266.867 298.505 270.048 275.86C270.546 272.31 271.045 268.96 271.504 265.829C271.733 264.343 271.942 262.917 272.152 261.541C273.149 254.751 274.066 249.386 274.615 246.066C275.024 243.643 275.253 242.316 275.253 242.316L293.201 246.694L291.915 251.221L287.677 266.178L287.199 267.883L284.387 277.745L279.62 294.527C279.92 319.864 267.505 354.714 267.505 354.714Z" fill="#A26760"/>
<path d="M310.187 350.544L305.082 350.285C301.193 323.482 299.558 289.958 298.85 266.655C298.75 263.046 298.66 259.675 298.59 256.604C298.59 256.455 298.59 256.305 298.59 256.155C298.461 250.083 298.401 245.257 298.371 242.195C298.371 239.802 298.371 238.496 298.371 238.496L316.788 239.703L316 247.381L314.844 258.648L314.614 260.862L313.817 268.54L311.663 289.171C316.369 314.099 310.187 350.544 310.187 350.544Z" fill="#A26760"/>
<path d="M312.099 349.548C312.099 348.909 304.222 349.408 304.222 349.408C304.222 349.408 299.386 354.324 294.689 355.391C289.992 356.458 292.625 359.32 297.87 359.32H310.833C314.582 359.359 312.249 356.179 312.099 349.548Z" fill="#263238"/>
<path d="M299.398 351.234C299.284 351.131 299.205 350.995 299.171 350.846C299.137 350.696 299.15 350.539 299.208 350.397C299.239 350.285 299.292 350.181 299.364 350.09C299.436 349.999 299.525 349.924 299.627 349.868C300.186 349.64 300.797 349.571 301.392 349.669C300.754 349.33 300.195 348.921 300.166 348.502C300.166 348.233 300.325 348.014 300.684 347.844C300.841 347.773 301.011 347.736 301.183 347.736C301.355 347.736 301.525 347.773 301.681 347.844C302.748 348.293 303.406 350.128 303.436 350.197C303.457 350.249 303.457 350.306 303.436 350.357V350.407C303.417 350.429 303.393 350.446 303.366 350.457C302.35 350.977 301.249 351.315 300.116 351.454C299.858 351.471 299.602 351.393 299.398 351.234ZM299.836 350.237C299.782 350.265 299.734 350.303 299.695 350.349C299.655 350.395 299.626 350.449 299.607 350.507C299.527 350.816 299.607 350.895 299.607 350.925C299.986 351.234 301.422 350.796 302.599 350.307C301.703 350.025 300.747 349.997 299.836 350.227V350.237ZM300.834 348.243C300.724 348.243 300.544 348.393 300.554 348.502C300.554 348.851 301.701 349.499 302.858 349.908C302.6 349.217 302.128 348.627 301.512 348.223C301.412 348.176 301.303 348.152 301.193 348.153C301.079 348.153 300.967 348.177 300.864 348.223L300.834 348.243Z" fill="#263238"/>
<path d="M270.033 349.548C270.033 348.909 262.166 349.408 262.166 349.408C262.166 349.408 257.33 354.324 252.633 355.391C247.937 356.458 250.559 359.32 255.804 359.32H268.767C272.526 359.359 270.203 356.179 270.033 349.548Z" fill="#263238"/>
<path d="M257.339 351.234C257.228 351.13 257.15 350.994 257.117 350.845C257.083 350.695 257.094 350.539 257.15 350.397C257.181 350.285 257.234 350.181 257.306 350.09C257.378 349.999 257.467 349.924 257.569 349.868C258.127 349.641 258.738 349.572 259.334 349.669C258.695 349.33 258.137 348.921 258.117 348.502C258.117 348.236 258.287 348.017 258.626 347.844C258.782 347.773 258.952 347.736 259.124 347.736C259.296 347.736 259.466 347.773 259.623 347.844C260.69 348.293 261.348 350.128 261.378 350.197C261.39 350.222 261.396 350.249 261.396 350.277C261.396 350.305 261.39 350.332 261.378 350.357C261.378 350.357 261.378 350.357 261.378 350.407L261.308 350.457C260.287 350.976 259.184 351.313 258.047 351.454C257.793 351.467 257.542 351.389 257.339 351.234ZM257.778 350.237C257.725 350.265 257.678 350.303 257.641 350.349C257.603 350.396 257.575 350.449 257.559 350.507C257.479 350.816 257.559 350.895 257.609 350.925C257.978 351.234 259.413 350.796 260.6 350.307C259.686 350.013 258.707 349.985 257.778 350.227V350.237ZM258.775 348.243C258.666 348.243 258.486 348.393 258.496 348.502C258.496 348.851 259.643 349.499 260.809 349.908C260.548 349.217 260.073 348.626 259.453 348.223C259.354 348.175 259.245 348.151 259.134 348.153C259.021 348.153 258.909 348.177 258.805 348.223L258.775 348.243Z" fill="#263238"/>
<path d="M272.383 249.816L276.631 219.902V199.66C287.828 191.244 309.417 191.244 309.417 191.244C309.417 191.244 325.999 214.248 317.942 252.07L297.122 255.061L295.796 248.001L293.183 255.061L272.383 249.816Z" fill="#263238"/>
<path opacity="0.2" d="M272.383 249.816L276.631 219.902V199.66C287.828 191.244 309.417 191.244 309.417 191.244C309.417 191.244 325.999 214.248 317.942 252.07L297.122 255.061L295.796 248.001L293.183 255.061L272.383 249.816Z" fill="white"/>
<path opacity="0.2" d="M295.797 248.11L299.785 235.656C299.785 235.656 303.993 234.379 309.398 226.023C309.418 226.023 308.48 240.243 295.797 248.11Z" fill="black"/>
<path opacity="0.2" d="M286.922 205.411L296.265 204.523C297.756 208.016 298.273 211.848 297.761 215.612L291.778 219.211L287.44 216.13C287.44 216.13 287.301 208.223 286.922 205.411Z" fill="black"/>
<path opacity="0.2" d="M309.418 203.127C310.672 206.209 311.598 209.414 312.18 212.69L315.491 214.096L317.275 211.872C317.275 211.872 316.069 205.361 314.025 202.17L309.418 203.127Z" fill="black"/>
<path d="M271.994 248.109L294.091 254.591L292.705 257.562L271.715 251.101L271.994 248.109Z" fill="#263238"/>
<path d="M296.266 254.163L296.635 256.895L318.302 254.163L318.631 250.723L296.266 254.163Z" fill="#263238"/>
<path d="M300.809 195.442C304.353 194.843 307.935 194.493 311.528 194.395L310.192 192.191C306.698 192.099 303.202 192.306 299.742 192.81L300.809 195.442Z" fill="#263238"/>
<path d="M280.941 198.154C278.079 199.391 276.434 200.318 276.434 200.318V203.04C278.042 202.229 279.654 201.488 281.27 200.817L280.941 198.154Z" fill="#263238"/>
<path d="M282.319 200.429C287.861 198.256 293.612 196.655 299.48 195.652L298.483 193C292.794 193.949 287.233 195.548 281.91 197.766L282.319 200.429Z" fill="#263238"/>
<path d="M222.411 208.215L216.747 205.941L215.75 211.286C215.75 211.286 220.855 214.377 222.989 210.698L222.411 208.215Z" fill="#A26760"/>
<path d="M213.932 206.27L212.117 210.399L215.787 211.286L216.744 205.941L213.932 206.27Z" fill="#A26760"/>
<path d="M309.327 150.77L308.659 144.707L303.494 146.382C303.494 146.382 303.175 152.365 307.432 152.485L309.327 150.77Z" fill="#A26760"/>
<path d="M307.036 142.383L302.539 142.742L303.496 146.381L308.661 144.706L307.036 142.383Z" fill="#A26760"/>
<path opacity="0.2" d="M266.967 189.749C265.392 188.044 263.747 186.249 262.161 184.474C261.553 180.765 261.164 177.494 261.164 177.494C263.063 178.903 264.586 180.758 265.599 182.896C266.611 185.033 267.081 187.387 266.967 189.749Z" fill="black"/>
<path d="M261.744 175.777C259.46 184.985 256.012 193.865 251.483 202.201C246.996 210.727 229.935 211.754 221.36 211.973L220.961 207.625C226.126 206.409 242.18 203.208 244.374 198.551C247.955 190.484 250.902 182.149 253.188 173.623L261.744 175.757V175.777Z" fill="#A26760"/>
<path d="M256.863 168.258C251.987 171.449 249.374 179.745 248.547 183.803L258.678 191.262L263.793 186.276C265.867 174.829 258.718 167.051 256.863 168.258Z" fill="#407BFF"/>
<path opacity="0.6" d="M256.863 168.258C251.987 171.449 249.374 179.745 248.547 183.803L258.678 191.262L263.793 186.276C265.867 174.829 258.718 167.051 256.863 168.258Z" fill="white"/>
<path d="M306.317 152.713L299.077 153.491C298.975 153.494 298.874 153.476 298.779 153.438C298.685 153.399 298.599 153.342 298.528 153.269C298.457 153.195 298.401 153.108 298.365 153.013C298.33 152.917 298.314 152.815 298.32 152.713L297.881 137.387C297.867 137.171 297.932 136.956 298.064 136.784C298.196 136.612 298.386 136.493 298.599 136.45L305.828 135.682C305.93 135.678 306.033 135.695 306.128 135.733C306.223 135.771 306.309 135.828 306.381 135.902C306.453 135.975 306.508 136.063 306.543 136.159C306.578 136.255 306.593 136.358 306.586 136.46L307.025 151.786C307.039 152 306.975 152.212 306.844 152.382C306.714 152.553 306.527 152.671 306.317 152.713Z" fill="#263238"/>
<path opacity="0.6" d="M306.317 152.713L299.077 153.491C298.975 153.494 298.874 153.476 298.779 153.438C298.685 153.399 298.599 153.342 298.528 153.269C298.457 153.195 298.401 153.108 298.365 153.013C298.33 152.917 298.314 152.815 298.32 152.713L297.881 137.387C297.867 137.171 297.932 136.956 298.064 136.784C298.196 136.612 298.386 136.493 298.599 136.45L305.828 135.682C305.93 135.678 306.033 135.695 306.128 135.733C306.223 135.771 306.309 135.828 306.381 135.902C306.453 135.975 306.508 136.063 306.543 136.159C306.578 136.255 306.593 136.358 306.586 136.46L307.025 151.786C307.039 152 306.975 152.212 306.844 152.382C306.714 152.553 306.527 152.671 306.317 152.713Z" fill="white"/>
<path d="M305.675 152.786L298.446 153.553C298.343 153.559 298.241 153.543 298.145 153.507C298.05 153.47 297.963 153.414 297.89 153.341C297.818 153.269 297.761 153.182 297.725 153.086C297.688 152.99 297.672 152.888 297.678 152.786L297.249 137.45C297.231 137.235 297.293 137.021 297.424 136.849C297.555 136.678 297.745 136.561 297.957 136.522L305.187 135.755C305.288 135.75 305.389 135.767 305.484 135.804C305.578 135.842 305.664 135.898 305.736 135.97C305.807 136.043 305.862 136.129 305.898 136.224C305.934 136.319 305.95 136.421 305.944 136.522L306.383 151.858C306.401 152.073 306.339 152.287 306.208 152.459C306.077 152.63 305.887 152.747 305.675 152.786Z" fill="#263238"/>
<path opacity="0.7" d="M305.675 152.786L298.446 153.553C298.343 153.559 298.241 153.543 298.145 153.507C298.05 153.47 297.963 153.414 297.89 153.341C297.818 153.269 297.761 153.182 297.725 153.086C297.688 152.99 297.672 152.888 297.678 152.786L297.249 137.45C297.231 137.235 297.293 137.021 297.424 136.849C297.555 136.678 297.745 136.561 297.957 136.522L305.187 135.755C305.288 135.75 305.389 135.767 305.484 135.804C305.578 135.842 305.664 135.898 305.736 135.97C305.807 136.043 305.862 136.129 305.898 136.224C305.934 136.319 305.95 136.421 305.944 136.522L306.383 151.858C306.401 152.073 306.339 152.287 306.208 152.459C306.077 152.63 305.887 152.747 305.675 152.786Z" fill="white"/>
<path d="M305.201 136.053L303.307 136.253L303.067 136.841L300.136 137.15L299.867 136.622L297.972 136.821C297.835 136.85 297.713 136.927 297.628 137.039C297.544 137.151 297.503 137.289 297.513 137.429L297.942 152.755C297.938 152.822 297.947 152.889 297.971 152.951C297.994 153.014 298.031 153.07 298.078 153.118C298.125 153.165 298.182 153.201 298.245 153.225C298.307 153.248 298.374 153.258 298.441 153.254L305.67 152.486C305.806 152.46 305.928 152.384 306.013 152.274C306.097 152.164 306.138 152.026 306.129 151.888L305.7 136.552C305.703 136.486 305.692 136.419 305.668 136.358C305.643 136.296 305.607 136.24 305.56 136.193C305.513 136.146 305.457 136.109 305.395 136.085C305.333 136.061 305.267 136.05 305.201 136.053Z" fill="#407BFF"/>
<path opacity="0.8" d="M304.235 141.596L298.921 142.164C298.856 142.167 298.791 142.156 298.73 142.133C298.67 142.109 298.615 142.073 298.569 142.028C298.523 141.982 298.487 141.927 298.463 141.866C298.44 141.805 298.429 141.741 298.432 141.676V140.2C298.42 140.062 298.458 139.925 298.541 139.815C298.624 139.704 298.745 139.628 298.881 139.602L304.205 139.033C304.27 139.032 304.335 139.044 304.395 139.069C304.455 139.093 304.509 139.13 304.554 139.177C304.599 139.224 304.634 139.28 304.656 139.341C304.679 139.402 304.688 139.467 304.684 139.532L304.734 141.008C304.742 141.151 304.695 141.292 304.602 141.402C304.51 141.511 304.378 141.581 304.235 141.596Z" fill="white"/>
<defs>
<filter id="filter0_dddd_11035_189557" x="193.437" y="96" width="527.126" height="407.171" filterUnits="userSpaceOnUse" color-interpolation-filters="sRGB">
<feFlood flood-opacity="0" result="BackgroundImageFix"/>
<feColorMatrix in="SourceAlpha" type="matrix" values="0 0 0 0 0 0 0 0 0 0 0 0 0 0 0 0 0 0 127 0" result="hardAlpha"/>
<feOffset dy="9.96621"/>
<feGaussianBlur stdDeviation="2.91013"/>
<feColorMatrix type="matrix" values="0 0 0 0 0.0705882 0 0 0 0 0.0980392 0 0 0 0 0.133333 0 0 0 0.01 0"/>
<feBlend mode="normal" in2="BackgroundImageFix" result="effect1_dropShadow_11035_189557"/>
<feColorMatrix in="SourceAlpha" type="matrix" values="0 0 0 0 0 0 0 0 0 0 0 0 0 0 0 0 0 0 127 0" result="hardAlpha"/>
<feOffset dy="22.644"/>
<feGaussianBlur stdDeviation="6.61205"/>
<feColorMatrix type="matrix" values="0 0 0 0 0.0705882 0 0 0 0 0.0980392 0 0 0 0 0.133333 0 0 0 0.0104523 0"/>
<feBlend mode="normal" in2="effect1_dropShadow_11035_189557" result="effect2_dropShadow_11035_189557"/>
<feColorMatrix in="SourceAlpha" type="matrix" values="0 0 0 0 0 0 0 0 0 0 0 0 0 0 0 0 0 0 127 0" result="hardAlpha"/>
<feOffset dy="39.4109"/>
<feGaussianBlur stdDeviation="11.508"/>
<feColorMatrix type="matrix" values="0 0 0 0 0.0705882 0 0 0 0 0.0980392 0 0 0 0 0.133333 0 0 0 0.0128732 0"/>
<feBlend mode="normal" in2="effect2_dropShadow_11035_189557" result="effect3_dropShadow_11035_189557"/>
<feColorMatrix in="SourceAlpha" type="matrix" values="0 0 0 0 0 0 0 0 0 0 0 0 0 0 0 0 0 0 127 0" result="hardAlpha"/>
<feOffset dy="62.6078"/>
<feGaussianBlur stdDeviation="18.2815"/>
<feColorMatrix type="matrix" values="0 0 0 0 0.0705882 0 0 0 0 0.0980392 0 0 0 0 0.133333 0 0 0 0.015 0"/>
<feBlend mode="normal" in2="effect3_dropShadow_11035_189557" result="effect4_dropShadow_11035_189557"/>
<feBlend mode="normal" in="SourceGraphic" in2="effect4_dropShadow_11035_189557" result="shape"/>
</filter>
</defs>
</svg>
