<svg width="605" height="418" viewBox="0 0 605 418" fill="none" xmlns="http://www.w3.org/2000/svg">
<g filter="url(#filter0_dddd_11049_193608)">
<rect x="64.3594" y="4" width="353.475" height="314.427" rx="36" fill="#E4E8EF" stroke="white" stroke-width="8"/>
<path d="M57 53.1621C57 52.0575 57.8954 51.1621 59 51.1621H60.3603V63.274H59C57.8954 63.274 57 62.3786 57 61.274V53.1621Z" fill="white"/>
<path d="M57.9609 76.3418C57.9609 75.2372 58.8564 74.3418 59.9609 74.3418H60.3612V98.5656H59.9609C58.8564 98.5656 57.9609 97.6702 57.9609 96.5656V76.3418Z" fill="white"/>
<path d="M57.9609 107.039C57.9609 105.934 58.8564 105.039 59.9609 105.039H60.3612V129.263H59.9609C58.8564 129.263 57.9609 128.367 57.9609 127.263V107.039Z" fill="white"/>
<path d="M424.234 118.91C424.234 120.015 423.339 120.91 422.234 120.91L421.834 120.91L421.834 82.4862L422.234 82.4862C423.339 82.4862 424.234 83.3816 424.234 84.4862L424.234 118.91Z" fill="white"/>
<rect x="220.695" y="10.4414" width="40.8039" height="2.92356" rx="1.46178" fill="#E4E8EF"/>
<ellipse cx="277.341" cy="11.9032" rx="3.36032" ry="1.46178" fill="#E4E8EF"/>
</g>
<path d="M491.36 49.4377C495.158 32.4138 485.172 15.3611 469.056 11.3494C452.939 7.3377 436.796 17.8861 432.998 34.91C429.2 51.9338 439.186 68.9865 455.302 72.9982C471.419 77.01 487.562 66.4616 491.36 49.4377Z" fill="#E0E0E0"/>
<path d="M475.813 43.1617C475.463 43.2204 475.109 43.2467 474.755 43.2404L471.834 43.2955C469.368 43.2955 465.919 43.3584 462.03 43.3663H461.836V41.1076C461.836 36.5194 461.836 32.3641 461.896 29.3656C461.896 27.9097 461.94 26.7135 461.955 25.8006C461.949 25.3637 461.974 24.927 462.03 24.4941C462.09 24.9265 462.115 25.3636 462.104 25.8006C462.104 26.7135 462.141 27.9097 462.171 29.3656C462.171 32.3641 462.223 36.5194 462.223 41.1076V43.1617L462.03 42.9571C465.919 42.9571 469.368 42.9571 471.834 43.0279L474.755 43.0909C475.109 43.0851 475.463 43.1088 475.813 43.1617Z" fill="#FAFAFA"/>
<path d="M462.127 15.7188C462.326 16.5887 462.394 17.4865 462.328 18.3788C462.394 19.2711 462.326 20.1689 462.127 21.0388C461.936 20.1674 461.871 19.2707 461.933 18.3788C461.871 17.4869 461.936 16.5902 462.127 15.7188Z" fill="#FAFAFA"/>
<path d="M475.79 19.9922C475.351 20.7416 474.806 21.4157 474.174 21.9912C473.629 22.6589 472.991 23.2348 472.281 23.6989C472.721 22.9496 473.266 22.2755 473.898 21.7C474.443 21.0323 475.081 20.4564 475.79 19.9922Z" fill="#FAFAFA"/>
<path d="M483.774 29.207C483.144 29.7782 482.452 30.2671 481.711 30.663C481.036 31.1754 480.306 31.6007 479.535 31.93C480.737 30.6983 482.186 29.7677 483.774 29.207Z" fill="#FAFAFA"/>
<path d="M488.455 42.8882C486.173 43.161 483.868 43.161 481.586 42.8882C483.868 42.6154 486.173 42.6154 488.455 42.8882Z" fill="#FAFAFA"/>
<path d="M440.826 42.4058C438.673 42.6786 436.497 42.6786 434.344 42.4058C436.497 42.133 438.673 42.133 440.826 42.4058Z" fill="#FAFAFA"/>
<path d="M444.207 52.5918C443.479 53.4758 442.656 54.268 441.756 54.9528C440.935 55.7392 440.03 56.4207 439.059 56.9832C439.785 56.0969 440.607 55.3044 441.51 54.6222C442.328 53.833 443.234 53.1512 444.207 52.5918Z" fill="#FAFAFA"/>
<path d="M452.509 60.4609C452.028 61.523 451.47 62.544 450.84 63.5145C450.327 64.5611 449.734 65.5613 449.066 66.5051C449.391 65.3698 449.876 64.2926 450.504 63.3099C451.03 62.2571 451.706 61.2962 452.509 60.4609Z" fill="#FAFAFA"/>
<path d="M462.127 70.6194C461.936 69.4213 461.871 68.2045 461.933 66.9913C461.871 65.7781 461.936 64.5614 462.127 63.3633C462.327 64.5602 462.395 65.7778 462.328 66.9913C462.395 68.2048 462.327 69.4224 462.127 70.6194Z" fill="#FAFAFA"/>
<path d="M476.93 65.7865C475.884 65.2752 474.926 64.5808 474.099 63.7324C473.191 62.988 472.412 62.0826 471.797 61.0566C472.691 61.7939 473.547 62.5821 474.36 63.4176C475.259 64.1549 476.117 64.9458 476.93 65.7865Z" fill="#FAFAFA"/>
<path d="M483.88 57.8826C483.053 57.2792 482.302 56.5679 481.645 55.7656C480.883 55.0588 480.209 54.2521 479.641 53.3652C480.481 53.9652 481.247 54.6737 481.92 55.4744C482.667 56.1866 483.326 56.9957 483.88 57.8826Z" fill="#FAFAFA"/>
<path d="M443.916 32.648C443.168 32.1443 442.493 31.5294 441.912 30.8222C441.239 30.2056 440.655 29.49 440.176 28.6973C440.926 29.2033 441.604 29.8208 442.187 30.531C442.857 31.1452 443.439 31.8582 443.916 32.648Z" fill="#FAFAFA"/>
<path d="M452.458 23.0907C451.72 22.6022 451.054 22.0001 450.484 21.3042C449.821 20.7063 449.249 20.0058 448.785 19.2266C449.522 19.7181 450.187 20.3198 450.76 21.013C451.418 21.615 451.99 22.3149 452.458 23.0907Z" fill="#FAFAFA"/>
<path d="M117.146 116.469H117.623H118.986L124.142 116.406L142.5 116.233L142.343 116.406C142.299 106.742 142.239 95.1103 142.18 82.5656L142.373 82.7702H138.968H135.616H129.097H117.019L117.191 82.5813C117.191 92.5919 117.191 101.021 117.191 106.978C117.191 109.945 117.191 112.29 117.191 113.92C117.191 114.707 117.191 115.32 117.191 115.761C117.191 115.966 117.191 116.115 117.191 116.241C117.198 116.299 117.198 116.357 117.191 116.414C117.187 116.365 117.187 116.315 117.191 116.265C117.191 116.147 117.191 115.997 117.191 115.808C117.191 115.375 117.191 114.769 117.191 113.998C117.191 112.377 117.154 110.063 117.124 107.104C117.079 101.123 117.012 92.6549 116.938 82.6049V82.4161H117.109L129.193 82.3452H135.713H139.065H142.463C142.291 82.1642 142.709 82.5971 142.664 82.5577C142.664 95.071 142.731 106.703 142.761 116.399V116.572H124.135H119.024H117.69L117.146 116.469Z" fill="#E0E0E0"/>
<path d="M131.114 115.904H127.598V116.809H131.114V115.904Z" fill="#EBEBEB"/>
<path d="M133.201 94.6777H125.512V106.412H133.201V94.6777Z" fill="#E0E0E0"/>
<path d="M132.103 82.1355L128.586 82.1504L128.589 82.9216L132.105 82.9067L132.103 82.1355Z" fill="#EBEBEB"/>
<path d="M553.017 23.3457L527.02 25.9512L528.682 44.4569L554.679 41.8514L553.017 23.3457Z" fill="white"/>
<path d="M554.671 41.8687C554.648 41.7545 554.633 41.6388 554.626 41.5224C554.626 41.2705 554.559 40.9479 554.514 40.5308C554.432 39.6493 554.306 38.3901 554.142 36.8004C553.836 33.5659 553.397 28.9304 552.853 23.3743L553.024 23.5238L527.037 26.1681L527.208 25.9477V26.0815V26.2389V26.5458L527.261 27.1597L527.372 28.3874C527.439 29.1744 527.514 30.0086 527.588 30.8114C527.732 32.4168 527.872 33.9908 528.006 35.5333C528.281 38.6341 528.55 41.609 528.795 44.4343L528.602 44.2611L547.295 42.4825L552.667 41.9946L554.105 41.8765H554.477C554.566 41.8765 554.611 41.8765 554.611 41.8765C554.459 41.9119 554.305 41.9356 554.149 41.9474L552.749 42.1048L547.429 42.6871L528.639 44.6704H528.46V44.4815C528.199 41.664 527.931 38.6813 527.648 35.5884C527.504 34.0144 527.36 32.4404 527.216 30.8665C527.149 30.0795 527.074 29.2925 527 28.4425L526.888 27.2148L526.836 26.6009V26.294V26.1366V26.0028L527.015 25.7746L553.009 23.209H553.166V23.3664C553.635 29.0091 554.023 33.6524 554.298 36.9106C554.425 38.4846 554.522 39.7359 554.589 40.6173C554.589 41.0187 554.641 41.3335 554.663 41.5775C554.671 41.6743 554.674 41.7715 554.671 41.8687Z" fill="#E0E0E0"/>
<path d="M553.01 23.3574C552.778 23.7311 552.513 24.0814 552.22 24.4041L549.941 27.1744C548.003 29.5353 545.299 32.6833 542.267 36.272L542.162 36.398L542.021 36.3035L541.328 35.8392C537.349 33.1634 533.758 30.7158 531.166 28.9294L528.103 26.7966L527.284 26.1985C527.098 26.0568 527.001 25.9781 527.008 25.9624C527.119 26.0031 527.224 26.0587 527.321 26.1277L528.185 26.6628L531.307 28.6854C533.93 30.4089 537.551 32.8171 541.529 35.4929L542.222 35.9651H541.976C545.016 32.4394 547.758 29.2599 549.71 27.0248L552.079 24.3412C552.366 23.99 552.678 23.6612 553.01 23.3574Z" fill="#E0E0E0"/>
<path d="M407.611 19.9868C407.842 19.9502 408.063 19.8617 408.259 19.727C408.482 19.545 408.641 19.2905 408.713 19.003C408.758 18.5956 408.77 18.1849 408.751 17.7753C408.751 15.855 408.751 13.1399 408.795 9.79516C408.795 8.95307 408.795 8.07163 408.795 7.15085C408.795 6.69439 408.795 6.22219 408.795 5.74212C408.814 5.51434 408.814 5.28523 408.795 5.05744C408.749 4.84796 408.652 4.65511 408.512 4.49867C408.368 4.34526 408.184 4.24107 407.983 4.19962C407.755 4.18717 407.526 4.18717 407.298 4.19962H402.738H389.022C388.767 4.21262 388.527 4.32413 388.345 4.51286C388.164 4.70158 388.055 4.95429 388.038 5.22271C388.038 5.85231 388.038 6.4819 388.038 7.10363C388.038 8.35495 388.038 9.58267 387.986 10.7946C387.949 13.2186 387.912 15.5166 387.874 17.7832C387.874 18.0665 387.874 18.3419 387.874 18.6174C387.856 18.8549 387.911 19.0924 388.031 19.2942C388.141 19.4944 388.312 19.6496 388.515 19.7349C388.738 19.8009 388.97 19.8249 389.201 19.8057H392.106H397.322L404.876 19.8687H406.933H407.462H407.648H407.462H406.933L404.876 19.9081L397.322 19.971H392.106H389.201C388.929 19.9915 388.657 19.9595 388.396 19.8766C388.12 19.7654 387.887 19.5605 387.733 19.2942C387.58 19.0293 387.505 18.7226 387.517 18.4128C387.517 18.1373 387.517 17.8619 387.517 17.6258C387.517 15.3907 387.576 13.0533 387.606 10.6372C387.606 9.42527 387.606 8.18969 387.651 6.93836C387.651 6.30876 387.651 5.6713 387.651 5.03383C387.679 4.66135 387.837 4.31311 388.094 4.05704C388.352 3.80096 388.691 3.65539 389.044 3.64872H402.76H407.32C407.568 3.63012 407.817 3.63012 408.065 3.64872C408.329 3.70502 408.571 3.84503 408.758 4.05008C408.943 4.25153 409.067 4.50615 409.116 4.78199C409.143 5.04352 409.143 5.30747 409.116 5.56899C409.116 6.04906 409.116 6.51338 409.116 6.97771C409.116 7.89062 409.078 8.77206 409.063 9.62201C408.996 12.9589 408.937 15.674 408.9 17.5943C408.905 18.0157 408.878 18.4368 408.818 18.8535C408.739 19.1737 408.554 19.4533 408.296 19.6405C408.142 19.748 407.966 19.8155 407.782 19.8372C407.735 19.899 407.677 19.9499 407.611 19.9868Z" fill="#E0E0E0"/>
<path d="M399.121 10.6369L401.662 12.266L399.061 13.8793L396.469 15.4848L396.521 12.2502L396.573 9.00781L399.121 10.6369Z" fill="#E0E0E0"/>
<path d="M187.402 2.88281H150.492V53.7149L187.402 54.6908V2.88281Z" fill="#EBEBEB"/>
<path d="M184.751 4.69336H152.461V50.7956L184.751 51.9446V4.69336Z" fill="#FAFAFA"/>
<path d="M179.318 13.0668L157.883 12.209V44.4286H179.318V13.0668Z" fill="#E0E0E0"/>
<path d="M157.883 44.4286L179.318 27.8781L157.883 12.209V44.4286Z" fill="#F5F5F5"/>
<path d="M462.407 274.296C448.9 264.332 445.837 245.83 446.374 229.201C446.463 226.423 446.173 223.495 447.424 221.063C448.676 218.631 451.589 216.963 453.943 218.128C455.895 219.104 456.745 221.496 457.84 223.479C459.295 226.126 461.432 228.282 464.002 229.697C465.678 230.617 467.727 231.176 469.396 230.216C471.631 228.894 471.929 225.589 471.914 222.826L471.824 207.385C471.824 204.631 471.824 201.805 472.614 199.185C473.404 196.564 475.222 194.132 477.71 193.4C480.199 192.668 483.268 194.187 483.797 196.879C483.893 198.022 483.918 199.171 483.872 200.318C483.939 201.459 484.446 202.734 485.474 203.049C486.502 203.364 487.567 202.592 488.35 201.782C491.047 198.996 492.879 195.407 494.586 191.834C496.292 188.261 497.961 184.602 500.404 181.564C502.848 178.526 506.238 176.118 509.986 175.89C513.733 175.661 517.712 178.109 518.658 181.989C519.604 185.869 517.458 189.859 515.119 193.007C511.648 197.679 507.558 201.798 502.975 205.237C502.08 205.755 501.367 206.563 500.941 207.543C500.375 209.384 502.021 211.21 503.742 211.816C505.694 212.501 507.81 212.288 509.844 212.54C511.878 212.792 514.091 213.744 514.858 215.783C515.931 218.6 513.696 221.559 511.498 223.495C507.096 227.378 502.093 230.429 496.709 232.514C494.787 233.262 492.76 233.915 491.21 235.339C489.661 236.764 492.067 241.816 493.006 243.76C493.945 245.704 493.006 243.76 495.018 243.367C497.029 242.973 498.832 241.793 500.754 241.053C504.346 239.621 508.95 239.88 511.282 243.162C512.772 245.319 512.928 248.317 512.161 250.89C511.287 253.421 509.942 255.742 508.205 257.714C502.51 264.935 495.103 270.432 486.74 273.642C478.411 276.696 470.692 277.522 462.407 274.319" fill="#EBEBEB"/>
<path d="M462.211 286.627C462.941 278.914 464.37 271.292 466.48 263.868C469.094 254.809 472.199 245.918 475.778 237.236C476.709 234.922 477.641 232.64 478.55 230.389C479.459 228.138 480.375 225.911 481.388 223.794C483.345 219.731 485.512 215.785 487.878 211.973C490.113 208.321 492.348 204.937 494.494 201.789C496.639 198.641 498.666 195.745 500.633 193.195C503.72 189.152 507.106 185.373 510.758 181.894C512.047 180.666 513.075 179.746 513.783 179.132L514.587 178.439C514.678 178.356 514.775 178.283 514.878 178.219C514.798 178.312 514.71 178.399 514.617 178.478L513.872 179.21C513.187 179.848 512.181 180.784 510.892 182.044C507.3 185.569 503.963 189.373 500.908 193.424C498.964 195.989 496.937 198.885 494.821 202.033C492.706 205.181 490.478 208.581 488.25 212.264C485.902 216.073 483.751 220.014 481.806 224.069C480.8 226.178 479.898 228.382 478.982 230.641C478.065 232.899 477.142 235.174 476.21 237.487C472.636 246.152 469.526 255.022 466.897 264.056C464.779 271.43 463.322 278.997 462.546 286.659" fill="#E0E0E0"/>
<path d="M481.522 223.776C481.399 223.396 481.314 223.003 481.268 222.604C481.127 221.817 480.963 220.731 480.784 219.354C480.412 216.607 480.039 212.79 479.614 208.58C479.19 204.369 478.758 200.576 478.355 197.837C478.154 196.468 477.983 195.366 477.849 194.602C477.759 194.211 477.711 193.809 477.707 193.406C477.852 193.78 477.962 194.167 478.035 194.563C478.221 195.311 478.445 196.413 478.683 197.774C479.182 200.505 479.674 204.314 480.091 208.524C480.508 212.735 480.836 216.434 481.119 219.306C481.246 220.605 481.358 221.667 481.447 222.572C481.514 222.97 481.539 223.373 481.522 223.776Z" fill="#E0E0E0"/>
<path d="M515.125 217.135C514.685 217.239 514.235 217.297 513.784 217.308C512.927 217.387 511.676 217.497 510.141 217.686C507.064 218.04 502.825 218.678 498.22 219.606C493.616 220.535 489.362 221.574 486.381 222.408C484.891 222.817 483.677 223.195 482.843 223.431C482.418 223.591 481.978 223.705 481.531 223.769C481.933 223.555 482.352 223.379 482.783 223.242C483.602 222.935 484.802 222.518 486.292 222.062C489.272 221.125 493.444 220.039 498.101 219.095C502.074 218.291 506.082 217.7 510.111 217.324C511.661 217.182 512.92 217.127 513.784 217.111C514.231 217.079 514.68 217.087 515.125 217.135Z" fill="#E0E0E0"/>
<path d="M466.885 263.214C466.792 263.08 466.714 262.934 466.654 262.781L466.08 261.498C465.588 260.381 464.91 258.744 464.106 256.713C462.482 252.644 460.381 246.954 458.205 240.643C456.029 234.331 453.973 228.617 452.438 224.525C451.693 222.534 451.06 220.897 450.598 219.677L450.106 218.355C450.041 218.204 449.993 218.046 449.965 217.883C450.061 218.014 450.139 218.16 450.196 218.316C450.352 218.662 450.546 219.103 450.77 219.598C451.269 220.716 451.939 222.353 452.751 224.383C454.375 228.452 456.477 234.142 458.652 240.462C460.828 246.781 462.876 252.479 464.419 256.572L466.251 261.419C466.453 261.947 466.609 262.387 466.743 262.742C466.812 262.891 466.86 263.05 466.885 263.214Z" fill="#E0E0E0"/>
<path d="M511.54 248.016C511.398 248.096 511.249 248.159 511.093 248.205L509.797 248.669L505.006 250.306C500.968 251.683 495.418 253.666 489.278 255.854C483.139 258.042 477.566 259.978 473.498 261.277C471.464 261.922 469.818 262.426 468.671 262.756L467.344 263.118C467.194 263.176 467.035 263.208 466.875 263.213C467.017 263.132 467.167 263.069 467.322 263.024L468.618 262.567L473.394 260.93C477.432 259.545 482.99 257.562 489.129 255.374C495.269 253.186 500.841 251.25 504.909 249.952C506.943 249.306 508.59 248.803 509.737 248.472L511.063 248.11C511.216 248.051 511.378 248.019 511.54 248.016Z" fill="#E0E0E0"/>
<path d="M117.02 305.101C117.02 304.983 226.265 304.896 360.999 304.896C495.732 304.896 605 304.983 605 305.101C605 305.219 495.777 305.306 360.999 305.306C226.22 305.306 117.02 305.211 117.02 305.101Z" fill="#263238"/>
<path d="M203.382 92.7706C203.382 92.7706 189.427 251.909 218.506 303.072L477.141 306.298C477.141 306.298 434.301 168.354 438.011 88.6074L203.382 92.7706Z" fill="#E0E0E0"/>
<path d="M203.38 92.7715C203.38 92.7715 186.989 256.868 238.062 291.937H487.323C487.323 291.937 443.083 211.828 439.596 92.7715H203.38Z" fill="#EBEBEB"/>
<path d="M444.614 54.3984H202.117V95.4718H444.614V54.3984Z" fill="#263238"/>
<path d="M223.793 54.7201C223.793 54.7201 226.237 45.4414 235.147 45.4414C242.739 45.4414 246.502 51.879 246.502 57.7815C246.502 63.684 243.052 69.9249 235.147 70.3734" stroke="#E0E0E0" stroke-width="3" stroke-linecap="round" stroke-linejoin="round"/>
<path d="M232.149 54.2539H220.184V59.8967H232.149V54.2539Z" fill="#263238"/>
<path d="M269.855 54.7201C269.855 54.7201 272.299 45.4414 281.21 45.4414C288.802 45.4414 292.564 51.879 292.564 57.7815C292.564 63.684 289.115 69.9249 281.21 70.3734" stroke="#E0E0E0" stroke-width="3" stroke-linecap="round" stroke-linejoin="round"/>
<path d="M278.219 54.2539H266.254V59.8967H278.219V54.2539Z" fill="#263238"/>
<path d="M315.93 54.7201C315.93 54.7201 318.373 45.4414 327.284 45.4414C334.876 45.4414 338.639 51.879 338.639 57.7815C338.639 63.684 335.189 69.9249 327.284 70.3734" stroke="#E0E0E0" stroke-width="3" stroke-linecap="round" stroke-linejoin="round"/>
<path d="M324.286 54.2539H312.32V59.8967H324.286V54.2539Z" fill="#263238"/>
<path d="M361.992 54.7201C361.992 54.7201 364.436 45.4414 373.347 45.4414C380.939 45.4414 384.701 51.879 384.701 57.7815C384.701 63.684 381.252 69.9249 373.347 70.3734" stroke="#E0E0E0" stroke-width="3" stroke-linecap="round" stroke-linejoin="round"/>
<path d="M370.364 54.2539H358.398V59.8967H370.364V54.2539Z" fill="#263238"/>
<path d="M408.066 54.7201C408.066 54.7201 410.51 45.4414 419.421 45.4414C427.013 45.4414 430.775 51.879 430.775 57.7815C430.775 63.684 427.326 69.9249 419.421 70.3734" stroke="#E0E0E0" stroke-width="3" stroke-linecap="round" stroke-linejoin="round"/>
<path d="M416.43 54.2539H404.465V59.8967H416.43V54.2539Z" fill="#263238"/>
<path d="M202.138 96.998C202.138 96.998 199.455 279.872 255.572 279.872L486.081 279.959C486.081 279.959 453.135 244.45 443.375 96.998H202.138Z" fill="#F5F5F5"/>
<path d="M453.196 257.299C453.144 257.142 452.898 256.402 452.354 254.796C451.811 253.191 450.969 250.736 449.963 247.509C447.899 241.095 445.016 231.612 441.715 219.358C435.077 194.867 427.075 159.176 420.854 115.191L421.011 115.333H225.563H223.701L223.895 115.097C227.411 141.571 231.025 167.377 236.873 191.546C239.675 203.36 243.217 214.965 247.475 226.284C251.517 237.009 256.417 247.351 262.123 257.197L261.974 257.11L453.189 257.299L261.974 257.48H261.877L261.825 257.394C256.1 247.544 251.18 237.197 247.118 226.465C242.853 215.133 239.303 203.515 236.493 191.687C230.63 167.487 227.016 141.674 223.492 115.191V114.955H225.578L421.025 114.994H421.16V115.136C427.351 159.121 435.315 194.812 441.887 219.303C445.165 231.564 448.011 241.055 450.082 247.477C452.153 253.899 453.1 256.976 453.196 257.299Z" fill="#263238"/>
<path d="M432.49 186.123C432.49 186.241 388.473 186.327 334.189 186.327C279.906 186.327 235.844 186.241 235.844 186.123C235.844 186.005 279.853 185.918 334.189 185.918C388.525 185.918 432.49 185.997 432.49 186.123Z" fill="#263238"/>
<path d="M443.086 224.113C443.086 224.223 399.054 224.317 344.74 224.317C290.427 224.317 246.395 224.223 246.395 224.113C246.395 224.003 290.412 223.908 344.74 223.908C399.069 223.908 443.086 223.995 443.086 224.113Z" fill="#263238"/>
<path d="M425.834 149.521C425.834 149.631 381.817 149.726 327.533 149.726C273.249 149.726 229.188 149.631 229.188 149.521C229.188 149.411 273.197 149.316 327.533 149.316C381.869 149.316 425.834 149.403 425.834 149.521Z" fill="#263238"/>
<path d="M294.011 257.302C294.011 257.302 293.967 257.183 293.892 256.947C293.818 256.711 293.706 256.341 293.572 255.893C293.289 254.941 292.886 253.571 292.365 251.824C291.322 248.29 289.861 243.167 288.096 236.816C284.586 224.114 279.937 206.501 275.43 186.873C273.195 177.059 271.191 167.671 269.47 159.108C267.748 150.546 266.34 142.809 265.245 136.285C264.671 133.027 264.202 130.076 263.755 127.487C263.308 124.897 263.01 122.662 262.727 120.836C262.444 119.011 262.258 117.602 262.116 116.626C262.056 116.154 262.004 115.792 261.967 115.524C261.93 115.257 261.93 115.154 261.93 115.154C261.964 115.273 261.991 115.394 262.012 115.516C262.056 115.784 262.116 116.146 262.198 116.61L262.876 120.805C263.159 122.631 263.532 124.866 263.971 127.447C264.411 130.029 264.895 132.956 265.461 136.23C266.594 142.739 268.069 150.459 269.768 159.053C271.466 167.647 273.493 176.989 275.728 186.802C280.198 206.422 284.825 224.043 288.267 236.761C289.995 243.112 291.411 248.251 292.417 251.8C292.901 253.563 293.281 254.948 293.549 255.885L293.832 256.955C293.989 257.176 294.011 257.302 294.011 257.302Z" fill="#263238"/>
<path d="M332.158 257.301C332.158 257.301 332.113 257.183 332.039 256.939L331.726 255.885L330.549 251.808C329.528 248.275 328.097 243.151 326.354 236.784C322.897 224.067 318.218 206.461 313.688 186.85C309.158 167.238 305.56 149.333 303.355 136.309C302.788 133.058 302.297 130.107 301.909 127.51C301.522 124.913 301.164 122.686 300.903 120.852C300.643 119.018 300.456 117.625 300.322 116.642C300.263 116.169 300.218 115.807 300.181 115.54C300.143 115.272 300.121 115.17 300.121 115.17C300.121 115.17 300.121 115.288 300.196 115.54L300.374 116.626C300.531 117.61 300.747 118.987 301.03 120.828C301.313 122.67 301.671 124.889 302.095 127.479C302.52 130.068 303.019 132.988 303.586 136.261C305.858 149.263 309.442 167.151 314.016 186.755C318.591 206.359 323.195 223.964 326.585 236.698L330.668 251.769C331.145 253.532 331.51 254.917 331.771 255.861L332.046 256.932C332.092 257.052 332.129 257.176 332.158 257.301Z" fill="#263238"/>
<path d="M372.016 257.303C371.968 257.187 371.926 257.069 371.89 256.949C371.815 256.689 371.703 256.343 371.562 255.894L370.347 251.826C369.282 248.3 367.799 243.169 365.989 236.873C362.413 224.186 357.577 206.621 352.958 187.016C348.339 167.412 344.822 149.453 342.796 136.42C342.282 133.162 341.827 130.203 341.485 127.598C341.142 124.993 340.814 122.758 340.613 120.917C340.412 119.075 340.24 117.674 340.129 116.683C340.076 116.218 340.039 115.848 340.009 115.581C339.98 115.313 340.009 115.211 340.009 115.211C340.009 115.211 340.009 115.329 340.069 115.581L340.225 116.675C340.359 117.658 340.546 119.036 340.784 120.893C341.023 122.75 341.343 124.97 341.723 127.567C342.103 130.164 342.557 133.115 343.086 136.373C345.187 149.422 348.704 167.334 353.353 186.922C358.002 206.51 362.763 224.092 366.28 236.794C368.06 243.129 369.506 248.253 370.511 251.818C371.003 253.581 371.391 254.966 371.659 255.91C371.783 256.361 371.88 256.715 371.949 256.973C371.994 257.177 372.016 257.303 372.016 257.303Z" fill="#263238"/>
<path d="M411.873 257.301C411.825 257.186 411.783 257.068 411.746 256.947L411.411 255.893C411.113 254.948 410.666 253.587 410.152 251.84C409.064 248.322 407.529 243.183 405.681 236.887C401.956 224.232 396.994 206.698 392.271 187.109C389.887 177.319 387.8 167.938 386.161 159.352C385.282 155.071 384.589 150.97 383.926 147.146C383.613 145.225 383.313 143.373 383.025 141.589C382.734 139.811 382.466 138.095 382.28 136.458C380.298 123.355 379.836 115.17 379.836 115.17C379.836 115.17 379.836 115.296 379.888 115.54C379.94 115.784 379.963 116.169 380.015 116.642C380.119 117.633 380.261 119.058 380.454 120.884C380.648 122.709 380.924 124.968 381.244 127.573C381.564 130.178 381.989 133.145 382.458 136.411C382.682 138.048 382.965 139.764 383.263 141.542C383.561 143.321 383.867 145.17 384.18 147.09C384.887 150.907 385.595 155 386.474 159.273C388.166 167.844 390.237 177.225 392.613 187.015C397.344 206.587 402.299 224.13 405.92 236.8L410.286 251.792C410.8 253.548 411.202 254.94 411.478 255.869C411.605 256.326 411.701 256.656 411.776 256.932C411.85 257.207 411.873 257.301 411.873 257.301Z" fill="#263238"/>
<path d="M267.951 129.241C267.951 129.241 269.627 146.484 276.109 157.25H314.278C314.278 157.25 305.002 139.81 303.847 127.69L303.013 120.898H267.34L267.951 129.241Z" fill="#455A64"/>
<path d="M299.629 132.263C299.629 132.381 294.198 132.468 287.492 132.468C280.787 132.468 275.355 132.381 275.355 132.263C275.355 132.145 280.787 132.059 287.492 132.059C294.198 132.059 299.629 132.153 299.629 132.263Z" fill="#FAFAFA"/>
<path d="M300.863 136.621C300.863 136.739 295.432 136.825 288.727 136.825C282.021 136.825 276.59 136.739 276.59 136.621C276.59 136.503 282.021 136.416 288.727 136.416C295.432 136.416 300.863 136.51 300.863 136.621Z" fill="#FAFAFA"/>
<path d="M302.054 140.984C302.054 141.094 296.623 141.189 289.917 141.189C283.212 141.189 277.766 141.094 277.766 140.984C277.766 140.874 283.197 140.779 289.902 140.779C296.608 140.779 302.054 140.874 302.054 140.984Z" fill="#FAFAFA"/>
<path d="M303.27 145.341C303.27 145.452 297.838 145.546 291.133 145.546C284.427 145.546 278.996 145.452 278.996 145.341C278.996 145.231 284.427 145.137 291.133 145.137C297.838 145.137 303.27 145.223 303.27 145.341Z" fill="#FAFAFA"/>
<path d="M398.934 171.745C398.934 171.745 400.61 188.988 407.092 199.746H445.246C445.246 199.746 435.97 182.314 434.815 170.194L433.981 163.395H398.293L398.934 171.745Z" fill="#263238"/>
<path d="M430.609 173.902C430.609 174.02 425.178 174.107 418.473 174.107C411.767 174.107 406.336 174.02 406.336 173.902C406.336 173.784 411.775 173.697 418.473 173.697C425.171 173.697 430.609 173.792 430.609 173.902Z" fill="#E0E0E0"/>
<path d="M431.828 178.265C431.828 178.375 426.397 178.47 419.691 178.47C412.986 178.47 407.555 178.375 407.555 178.265C407.555 178.155 412.986 178.061 419.691 178.061C426.397 178.061 431.828 178.131 431.828 178.265Z" fill="#E0E0E0"/>
<path d="M433.047 182.625C433.047 182.735 427.616 182.829 420.91 182.829C414.205 182.829 408.773 182.735 408.773 182.625C408.773 182.514 414.205 182.42 420.91 182.42C427.616 182.42 433.047 182.514 433.047 182.625Z" fill="#E0E0E0"/>
<path d="M434.227 186.984C434.227 187.094 428.795 187.189 422.09 187.189C415.384 187.189 409.953 187.094 409.953 186.984C409.953 186.874 415.384 186.779 422.09 186.779C428.795 186.779 434.227 186.866 434.227 186.984Z" fill="#E0E0E0"/>
<path d="M374.308 118.388C374.703 118.726 369.764 125.676 362.298 132.869C354.833 140.062 347.874 144.674 347.591 144.241C347.308 143.808 353.648 138.48 361.002 131.358C368.356 124.235 373.876 118.002 374.308 118.388Z" fill="#FF725E"/>
<path d="M381.546 144.895C381.233 145.359 372.896 139.63 362.629 132.555C352.362 125.479 344.055 119.711 344.331 119.176C344.607 118.64 353.391 123.685 363.702 130.8C374.013 137.914 381.851 144.438 381.546 144.895Z" fill="#FF725E"/>
<path d="M309.549 141.691C309.221 141.242 314.712 136.253 321.805 130.547C328.898 124.841 334.91 120.584 335.216 121.032C335.521 121.481 330.053 126.471 322.96 132.176C315.867 137.882 309.869 142.14 309.549 141.691Z" fill="#FF725E"/>
<path d="M339.691 144.124C339.348 144.596 332.047 139.158 322.771 132.909C313.495 126.66 305.784 121.891 306.037 121.395C306.291 120.899 314.479 124.858 323.821 131.186C333.164 137.513 340.011 143.699 339.691 144.124Z" fill="#FF725E"/>
<path d="M341.79 190.054C341.79 189.991 342.17 189.897 342.915 189.841C344.013 189.804 345.11 189.92 346.179 190.188C347.887 190.606 349.512 191.341 350.977 192.36C352.951 193.71 354.601 195.526 355.797 197.664C357.238 200.295 357.997 203.281 357.995 206.321C358.007 208.005 357.807 209.683 357.399 211.311C356.949 213.042 356.261 214.693 355.358 216.214C353.308 219.583 350.359 222.235 346.884 223.836C343.409 225.437 339.562 225.915 335.83 225.209C331.955 224.51 328.371 222.59 325.549 219.7C322.94 216.964 321.203 213.438 320.579 209.611C319.991 206.178 320.301 202.641 321.473 199.38C322.499 196.544 324.247 194.063 326.525 192.21C328.373 190.697 330.499 189.606 332.768 189.007C334.469 188.539 336.233 188.385 337.983 188.551C338.321 188.569 338.657 188.614 338.989 188.685C339.302 188.74 339.593 188.779 339.861 188.85C340.39 189.007 340.837 189.117 341.187 189.267C341.88 189.566 342.23 189.755 342.208 189.818C342.148 190.015 340.718 189.361 337.946 189.346C336.296 189.341 334.654 189.606 333.081 190.133C331.003 190.799 329.073 191.899 327.404 193.367C325.395 195.118 323.873 197.41 323 200.002C322.002 202.98 321.781 206.188 322.36 209.288C322.955 212.701 324.531 215.836 326.875 218.268C329.437 220.851 332.673 222.564 336.165 223.187C339.647 223.861 343.241 223.391 346.462 221.841C349.469 220.403 352.031 218.098 353.853 215.191C354.682 213.842 355.322 212.373 355.753 210.831C356.15 209.363 356.363 207.847 356.386 206.321C356.434 203.581 355.821 200.872 354.605 198.451C353.565 196.446 352.114 194.712 350.358 193.375C349.028 192.344 347.549 191.546 345.978 191.014C343.37 190.101 341.783 190.243 341.79 190.054Z" fill="#FF725E"/>
<path d="M235.801 181.56C235.399 181.206 240.093 174.477 246.686 166.843C253.168 159.343 259.114 153.567 259.591 154.078C260.067 154.59 254.666 160.65 248.117 168.244C241.568 175.839 236.226 181.922 235.801 181.56Z" fill="#FF725E"/>
<path d="M266.016 178.349C265.733 178.829 258.111 174.414 248.992 168.441C239.873 162.468 232.705 157.266 232.989 156.786C233.272 156.306 240.804 160.721 249.931 166.694C259.058 172.667 266.299 177.869 266.016 178.349Z" fill="#FF725E"/>
<path d="M338.492 196.294L341.405 200.709C341.521 200.891 341.679 201.04 341.864 201.142C342.049 201.244 342.254 201.295 342.463 201.291H347.559C347.799 201.29 348.034 201.36 348.239 201.493C348.443 201.625 348.609 201.816 348.716 202.042C348.824 202.269 348.87 202.523 348.848 202.775C348.827 203.028 348.739 203.269 348.594 203.471L345.517 207.76C345.392 207.936 345.309 208.14 345.275 208.357C345.241 208.574 345.258 208.796 345.324 209.004L346.926 214.111C347.002 214.352 347.013 214.61 346.957 214.856C346.901 215.103 346.781 215.328 346.611 215.506C346.44 215.684 346.225 215.807 345.991 215.863C345.757 215.918 345.513 215.903 345.286 215.819L340.474 214.056C340.276 213.987 340.066 213.968 339.86 214.001C339.654 214.033 339.458 214.117 339.289 214.245L335.184 217.44C334.991 217.591 334.761 217.681 334.522 217.701C334.283 217.72 334.043 217.668 333.83 217.551C333.618 217.434 333.44 217.256 333.319 217.037C333.197 216.819 333.136 216.568 333.142 216.315L333.239 210.94C333.243 210.719 333.196 210.501 333.102 210.304C333.009 210.106 332.872 209.936 332.703 209.807L328.568 206.659C328.38 206.511 328.234 206.311 328.147 206.082C328.059 205.853 328.034 205.602 328.072 205.358C328.111 205.114 328.212 204.886 328.365 204.699C328.518 204.512 328.717 204.373 328.94 204.298L333.82 202.724C334.019 202.658 334.2 202.543 334.348 202.389C334.496 202.234 334.606 202.044 334.67 201.834L336.212 196.711C336.28 196.467 336.411 196.248 336.591 196.078C336.77 195.909 336.991 195.796 337.229 195.752C337.466 195.709 337.71 195.737 337.934 195.832C338.157 195.928 338.35 196.088 338.492 196.294Z" fill="#FF725E"/>
<path d="M417.835 118.578C418.193 118.995 411.703 125.755 403.336 133.664C394.97 141.574 387.899 147.641 387.541 147.216C387.184 146.791 393.673 140.047 402.04 132.138C410.407 124.228 417.47 118.153 417.835 118.578Z" fill="#FF725E"/>
<path d="M422.694 142.888C422.456 143.392 413.359 139.087 402.384 133.279C391.41 127.471 382.693 122.34 382.939 121.828C383.185 121.317 392.267 125.629 403.249 131.445C414.23 137.261 422.933 142.385 422.694 142.888Z" fill="#FF725E"/>
<path d="M408.773 127.637H453.2L463.862 136.349L454.459 144.494L411.865 144.447L408.773 127.637Z" fill="#455A64"/>
<path opacity="0.2" d="M338.492 196.294L341.405 200.709C341.521 200.891 341.679 201.04 341.864 201.142C342.049 201.244 342.254 201.295 342.463 201.291H347.559C347.799 201.29 348.034 201.36 348.239 201.493C348.443 201.625 348.609 201.816 348.716 202.042C348.824 202.269 348.87 202.523 348.848 202.775C348.827 203.028 348.739 203.269 348.594 203.471L345.517 207.76C345.392 207.936 345.309 208.14 345.275 208.357C345.241 208.574 345.258 208.796 345.324 209.004L346.926 214.111C347.002 214.352 347.013 214.61 346.957 214.856C346.901 215.103 346.781 215.328 346.611 215.506C346.44 215.684 346.225 215.807 345.991 215.863C345.757 215.918 345.513 215.903 345.286 215.819L340.474 214.056C340.276 213.987 340.066 213.968 339.86 214.001C339.654 214.033 339.458 214.117 339.289 214.245L335.184 217.44C334.991 217.591 334.761 217.681 334.522 217.701C334.283 217.72 334.043 217.668 333.83 217.551C333.618 217.434 333.44 217.256 333.319 217.037C333.197 216.819 333.136 216.568 333.142 216.315L333.239 210.94C333.243 210.719 333.196 210.501 333.102 210.304C333.009 210.106 332.872 209.936 332.703 209.807L328.568 206.659C328.38 206.511 328.234 206.311 328.147 206.082C328.059 205.853 328.034 205.602 328.072 205.358C328.111 205.114 328.212 204.886 328.365 204.699C328.518 204.512 328.717 204.373 328.94 204.298L333.82 202.724C334.019 202.658 334.2 202.543 334.348 202.389C334.496 202.234 334.606 202.044 334.67 201.834L336.212 196.711C336.28 196.467 336.411 196.248 336.591 196.078C336.77 195.909 336.991 195.796 337.229 195.752C337.466 195.709 337.71 195.737 337.934 195.832C338.157 195.928 338.35 196.088 338.492 196.294Z" fill="white"/>
<path d="M525.818 342.046L525.855 335.42H537.604L537.649 345.108L536.904 345.163C533.663 345.352 520.409 345.903 518.278 345.21C515.841 344.423 525.818 342.046 525.818 342.046Z" fill="#FF725E"/>
<g opacity="0.6">
<path opacity="0.6" d="M533.402 345.16C533.572 344.114 534.103 343.172 534.892 342.516C535.667 341.864 536.645 341.541 537.634 341.611V345.082L533.402 345.16Z" fill="white"/>
</g>
<g opacity="0.6">
<path opacity="0.6" d="M520.968 343.385C520.968 343.385 517.474 344.455 517.913 345.061C518.353 345.667 531.756 345.651 537.672 345.061V344.786L522.026 344.951C522.026 344.951 521.653 343.385 520.968 343.385Z" fill="white"/>
</g>
<path d="M537.731 344.719H537.53H536.948L534.81 344.813C533.007 344.884 530.519 344.947 527.762 344.955C525.005 344.963 522.547 344.908 520.714 344.845L518.583 344.758L518.002 344.719H517.801H518.583L520.721 344.766C522.524 344.766 525.013 344.837 527.762 344.829C530.511 344.821 532.977 344.774 534.81 344.735L536.948 344.68H537.693L537.731 344.719Z" fill="#263238"/>
<path d="M521.999 345.217C521.905 344.845 521.77 344.486 521.597 344.147C521.378 343.832 521.128 343.541 520.852 343.281C521.216 343.425 521.518 343.705 521.701 344.068C521.931 344.399 522.038 344.808 521.999 345.217Z" fill="#263238"/>
<path d="M525.688 343.066C525.688 343.066 525.487 342.877 525.316 342.586C525.144 342.295 525.032 342.059 525.07 342.035C525.107 342.011 525.263 342.224 525.435 342.507C525.558 342.671 525.645 342.862 525.688 343.066Z" fill="#263238"/>
<path d="M526.623 342.533C526.623 342.533 526.407 342.431 526.205 342.242C526.004 342.053 525.863 341.872 525.885 341.841C525.907 341.809 526.094 341.943 526.302 342.132C526.511 342.321 526.667 342.502 526.623 342.533Z" fill="#263238"/>
<path d="M527.241 341.362C527.241 341.409 526.965 341.44 526.63 341.448C526.295 341.456 526.012 341.448 526.012 341.377C526.21 341.303 526.421 341.276 526.63 341.299C526.836 341.271 527.044 341.293 527.241 341.362Z" fill="#263238"/>
<path d="M527.454 340.536C527.251 340.677 527.012 340.751 526.768 340.748C526.517 340.795 526.258 340.762 526.023 340.654C526.252 340.609 526.484 340.591 526.716 340.599C526.96 340.553 527.207 340.532 527.454 340.536Z" fill="#263238"/>
<path d="M525.286 341.983C525.039 342.027 524.788 342.027 524.541 341.983C524.268 341.946 523.998 341.883 523.736 341.794C523.576 341.746 523.421 341.68 523.274 341.597C523.184 341.542 523.117 341.451 523.088 341.345C523.076 341.286 523.082 341.225 523.103 341.169C523.124 341.113 523.16 341.065 523.207 341.031C523.494 340.881 523.821 340.842 524.133 340.92C524.444 340.997 524.72 341.187 524.913 341.456C525.031 341.61 525.115 341.79 525.159 341.983C525.197 342.125 525.159 342.203 525.159 342.203C525.085 341.955 524.969 341.723 524.817 341.519C524.641 341.314 524.417 341.162 524.168 341.078C524.022 341.027 523.868 341.007 523.715 341.019C523.561 341.031 523.412 341.075 523.274 341.149C523.155 341.243 523.2 341.393 523.334 341.471C523.468 341.552 523.611 341.615 523.759 341.66C524 341.755 524.25 341.826 524.504 341.873C525.003 341.959 525.286 341.959 525.286 341.983Z" fill="#263238"/>
<path d="M525.135 342.023C525.042 341.857 525.01 341.661 525.045 341.472C525.072 341.264 525.143 341.064 525.254 340.89C525.318 340.772 525.409 340.674 525.518 340.602C525.627 340.531 525.751 340.489 525.88 340.48C525.956 340.498 526.024 340.546 526.067 340.615C526.11 340.684 526.126 340.769 526.111 340.85C526.1 340.978 526.056 341.101 525.984 341.205C525.886 341.381 525.768 341.545 525.634 341.692C525.517 341.835 525.368 341.946 525.202 342.015C525.202 342.015 525.351 341.873 525.559 341.614C525.677 341.467 525.782 341.309 525.872 341.142C525.976 340.968 526.043 340.669 525.872 340.63C525.701 340.591 525.492 340.811 525.373 340.968C525.269 341.124 525.198 341.301 525.164 341.488C525.137 341.665 525.127 341.844 525.135 342.023Z" fill="#263238"/>
<path d="M537.797 341.556C537.797 341.556 537.462 341.556 536.933 341.595C536.246 341.67 535.591 341.942 535.041 342.382C534.502 342.846 534.093 343.455 533.856 344.145C533.677 344.68 533.662 345.035 533.632 345.035C533.623 344.951 533.623 344.866 533.632 344.783C533.656 344.556 533.699 344.333 533.759 344.114C533.971 343.385 534.386 342.741 534.949 342.265C535.513 341.79 536.199 341.504 536.918 341.446C537.134 341.424 537.351 341.424 537.566 341.446C537.648 341.469 537.726 341.507 537.797 341.556Z" fill="#263238"/>
<path d="M536.584 336.008C536.701 337.705 536.723 339.408 536.651 341.108C536.535 339.41 536.512 337.708 536.584 336.008Z" fill="#263238"/>
<path d="M532.138 343.547C531.577 343.687 531.001 343.748 530.425 343.728C529.85 343.762 529.274 343.714 528.711 343.587C528.711 343.539 529.456 343.587 530.425 343.587C531.393 343.587 532.138 343.5 532.138 343.547Z" fill="#263238"/>
<path d="M534.448 343.54C534.448 343.54 534.389 343.713 534.314 343.902C534.24 344.091 534.187 344.248 534.15 344.248C534.113 344.248 534.09 344.052 534.15 343.839C534.21 343.627 534.426 343.509 534.448 343.54Z" fill="#263238"/>
<path d="M535.315 342.403C535.315 342.403 535.263 342.561 535.144 342.695C535.024 342.828 534.898 342.907 534.875 342.876C534.853 342.844 534.92 342.718 535.039 342.584C535.158 342.451 535.285 342.372 535.315 342.403Z" fill="#263238"/>
<path d="M536.555 341.879C536.555 341.918 536.391 341.918 536.22 341.981C536.048 342.044 535.922 342.147 535.892 342.115C535.862 342.084 535.959 341.918 536.175 341.84C536.391 341.761 536.57 341.808 536.555 341.879Z" fill="#263238"/>
<path d="M537.442 341.629C537.442 341.668 537.389 341.731 537.293 341.771C537.196 341.81 537.099 341.818 537.084 341.771C537.069 341.724 537.144 341.668 537.24 341.629C537.337 341.59 537.427 341.59 537.442 341.629Z" fill="#263238"/>
<path d="M485.988 123.348L589.385 127.747V152.931L484.461 148.862L485.988 123.348Z" fill="#FF725E"/>
<path d="M467.525 132.709C467.525 132.709 461.639 131.969 460.246 134.645C460.246 134.645 461.438 138.045 467.272 137.793L467.525 132.709Z" fill="#FF725E"/>
<path d="M467.014 131.54L466.426 138.505L473.511 139.237C473.511 139.237 476.424 139.489 479.784 143.306C483.145 147.123 484.471 148.862 484.471 148.862L485.998 123.348L481.342 127.959C480.416 128.871 479.354 129.613 478.197 130.155C476.797 130.884 475.311 131.413 473.779 131.729C471.523 131.826 469.263 131.763 467.014 131.54Z" fill="#263238"/>
<path d="M589.387 127.744C589.387 127.744 595.623 131.514 594.379 141.257C593.313 149.654 589.387 152.936 589.387 152.936V127.744Z" fill="#263238"/>
<path opacity="0.4" d="M485.497 132.652L589.386 136.666V143.481L485.109 139.098L485.497 132.652Z" fill="white"/>
<g opacity="0.3">
<path opacity="0.3" d="M545.252 127.502C546.869 127.628 547.949 129.281 549.372 130.107C550.795 130.933 552.486 130.894 553.842 131.736C554.445 132.099 554.959 132.605 555.344 133.215C555.729 133.824 555.974 134.519 556.061 135.246C556.148 135.973 556.073 136.711 555.843 137.402C555.613 138.093 555.234 138.718 554.736 139.228C553.522 140.448 551.562 141.117 551.205 142.848C551.048 143.635 550.944 144.8 550.207 144.674C549.797 144.611 549.596 144.123 549.298 143.824C548.664 143.179 547.562 143.462 546.928 144.108C546.352 144.818 545.852 145.594 545.438 146.421C545.232 146.831 544.927 147.176 544.554 147.422C544.181 147.668 543.754 147.806 543.315 147.822C543.315 148.861 543.315 150.112 543.315 151.151L538.219 150.884L538.792 128.966L545.252 127.502Z" fill="black"/>
</g>
<path d="M561.816 342.441V335.822H550.029L549.984 345.51L550.729 345.557C553.97 345.754 567.217 346.297 569.355 345.605C571.792 344.825 561.816 342.441 561.816 342.441Z" fill="#FF725E"/>
<g opacity="0.6">
<path opacity="0.6" d="M554.236 345.562C554.067 344.514 553.536 343.569 552.746 342.91C551.971 342.257 550.992 341.937 550.004 342.013V345.476L554.236 345.562Z" fill="white"/>
</g>
<g opacity="0.6">
<path opacity="0.6" d="M566.68 343.775C566.68 343.775 570.175 344.846 569.735 345.452C569.295 346.058 555.892 346.042 549.977 345.491V345.208L565.622 345.373C565.622 345.373 565.995 343.807 566.68 343.775Z" fill="white"/>
</g>
<path d="M549.906 345.115C549.973 345.125 550.041 345.125 550.107 345.115H550.689L552.827 345.218C554.63 345.288 557.118 345.351 559.875 345.359C562.632 345.367 565.09 345.312 566.923 345.249L569.054 345.155H569.635H569.836H569.091L566.953 345.194C565.15 345.233 562.661 345.265 559.912 345.257C557.163 345.249 554.697 345.21 552.864 345.162L550.726 345.115H550.145H549.906Z" fill="#263238"/>
<path d="M565.634 345.618C565.726 345.242 565.861 344.88 566.036 344.54C566.255 344.224 566.505 343.934 566.781 343.674C566.418 343.821 566.117 344.1 565.932 344.461C565.699 344.793 565.592 345.206 565.634 345.618Z" fill="#263238"/>
<path d="M561.948 343.462C561.948 343.462 562.149 343.274 562.321 342.99C562.492 342.707 562.604 342.455 562.567 342.431C562.529 342.408 562.373 342.62 562.202 342.904C562.03 343.187 561.911 343.439 561.948 343.462Z" fill="#263238"/>
<path d="M560.987 342.928C560.987 342.928 561.203 342.833 561.404 342.636C561.605 342.44 561.747 342.267 561.724 342.235C561.702 342.204 561.508 342.337 561.307 342.526C561.106 342.715 560.964 342.904 560.987 342.928Z" fill="#263238"/>
<path d="M560.391 341.762C560.586 341.836 560.795 341.863 561.002 341.841C561.212 341.88 561.429 341.87 561.635 341.809C561.635 341.762 561.359 341.731 561.016 341.723C560.674 341.715 560.391 341.715 560.391 341.762Z" fill="#263238"/>
<path d="M560.191 340.938C560.398 341.071 560.635 341.142 560.877 341.142C561.116 341.189 561.364 341.156 561.585 341.048C561.358 341.014 561.128 341.006 560.899 341.024C560.667 340.97 560.43 340.941 560.191 340.938Z" fill="#263238"/>
<path d="M562.383 342.385C562.629 342.432 562.881 342.432 563.128 342.385C563.4 342.348 563.669 342.287 563.933 342.204C564.092 342.152 564.247 342.084 564.394 342C564.484 341.947 564.551 341.859 564.581 341.756C564.592 341.695 564.587 341.633 564.566 341.576C564.544 341.519 564.508 341.469 564.461 341.433C564.175 341.284 563.847 341.245 563.536 341.322C563.225 341.4 562.949 341.589 562.755 341.858C562.639 342.018 562.553 342.199 562.502 342.393C562.484 342.463 562.484 342.536 562.502 342.606C562.576 342.36 562.692 342.13 562.845 341.929C563.015 341.717 563.24 341.564 563.493 341.488C563.638 341.434 563.792 341.411 563.946 341.422C564.1 341.433 564.25 341.477 564.387 341.551C564.506 341.645 564.461 341.795 564.327 341.882C564.192 341.959 564.05 342.022 563.903 342.07C563.659 342.158 563.41 342.229 563.158 342.283C562.629 342.354 562.383 342.362 562.383 342.385Z" fill="#263238"/>
<path d="M562.538 342.423C562.627 342.253 562.659 342.056 562.628 341.865C562.6 341.657 562.529 341.458 562.419 341.282C562.356 341.164 562.266 341.065 562.156 340.995C562.047 340.924 561.922 340.885 561.793 340.881C561.717 340.896 561.649 340.943 561.604 341.01C561.56 341.078 561.542 341.162 561.555 341.243C561.573 341.373 561.619 341.496 561.689 341.605C561.789 341.778 561.907 341.939 562.039 342.085C562.156 342.228 562.305 342.339 562.471 342.408C562.471 342.408 562.322 342.266 562.114 342.014C561.993 341.867 561.888 341.706 561.801 341.534C561.697 341.361 561.629 341.062 561.801 341.023C561.972 340.983 562.181 341.204 562.3 341.369C562.405 341.521 562.476 341.695 562.509 341.88C562.532 342.06 562.542 342.242 562.538 342.423Z" fill="#263238"/>
<path d="M549.828 341.958C549.828 341.958 550.163 341.958 550.692 341.958C551.379 342.032 552.034 342.305 552.585 342.745C553.124 343.211 553.533 343.823 553.769 344.516C553.856 344.805 553.928 345.099 553.985 345.397C553.985 345.397 553.985 345.31 553.985 345.145C553.961 344.918 553.916 344.694 553.851 344.476C553.643 343.748 553.23 343.103 552.668 342.628C552.105 342.153 551.418 341.87 550.7 341.816C550.484 341.79 550.267 341.79 550.052 341.816C549.97 341.85 549.895 341.898 549.828 341.958Z" fill="#263238"/>
<path d="M551.058 336.404C550.979 337.252 550.945 338.103 550.954 338.954C550.918 339.804 550.93 340.656 550.991 341.504C551.108 339.807 551.13 338.104 551.058 336.404Z" fill="#263238"/>
<path d="M555.48 343.943C556.042 344.082 556.618 344.142 557.194 344.124C557.771 344.158 558.35 344.11 558.915 343.982C558.915 343.943 558.17 343.982 557.202 343.982C556.233 343.982 555.488 343.903 555.48 343.943Z" fill="#263238"/>
<path d="M553.184 343.935C553.184 343.935 553.251 344.108 553.325 344.297C553.4 344.486 553.452 344.651 553.489 344.643C553.526 344.635 553.549 344.446 553.489 344.234C553.429 344.021 553.213 343.911 553.184 343.935Z" fill="#263238"/>
<path d="M552.316 342.793C552.316 342.793 552.369 342.958 552.488 343.084C552.607 343.21 552.726 343.297 552.756 343.265C552.786 343.234 552.711 343.108 552.592 342.982C552.473 342.856 552.346 342.769 552.316 342.793Z" fill="#263238"/>
<path d="M551.087 342.274C551.087 342.314 551.251 342.314 551.422 342.377C551.593 342.439 551.72 342.542 551.75 342.51C551.78 342.479 551.683 342.314 551.467 342.235C551.251 342.156 551.072 342.235 551.087 342.274Z" fill="#263238"/>
<path d="M550.195 342.03C550.195 342.069 550.247 342.132 550.344 342.171C550.441 342.211 550.538 342.211 550.545 342.171C550.553 342.132 550.493 342.069 550.396 342.03C550.3 341.99 550.21 341.99 550.195 342.03Z" fill="#263238"/>
<path d="M519.453 156.8C519.453 156.8 501.237 164.938 500.656 164.67C500.075 164.402 499.65 149.489 499.65 149.489L490.561 149.135C490.561 149.135 488.862 171.847 494.286 175.531C501.736 180.567 519.826 170.092 519.826 170.092L519.453 156.8Z" fill="#A26760"/>
<path d="M528.619 151.472C528.619 149.063 528.619 146.97 528.619 146.97C528.619 146.97 524.022 146.458 523.739 141.642C523.456 136.826 523.739 125.721 523.739 125.721L532.113 121.4L541.322 128.767L540.354 151.692C540.285 153.281 539.638 154.782 538.549 155.881C537.46 156.98 536.011 157.594 534.505 157.594C532.956 157.605 531.467 156.966 530.364 155.818C529.26 154.67 528.633 153.107 528.619 151.472Z" fill="#A26760"/>
<path d="M524.684 133.823C524.682 133.947 524.716 134.068 524.78 134.171C524.844 134.275 524.936 134.356 525.044 134.404C525.151 134.452 525.27 134.465 525.385 134.441C525.5 134.417 525.606 134.358 525.688 134.27C525.771 134.183 525.827 134.071 525.85 133.95C525.872 133.829 525.86 133.703 525.815 133.589C525.769 133.475 525.692 133.378 525.595 133.311C525.497 133.243 525.382 133.207 525.265 133.209C525.111 133.209 524.963 133.274 524.854 133.389C524.745 133.504 524.684 133.66 524.684 133.823Z" fill="#263238"/>
<path d="M524.119 133.146C524.194 133.232 524.626 132.839 525.259 132.807C525.892 132.776 526.354 133.091 526.421 133.004C526.488 132.917 526.377 132.815 526.168 132.666C525.89 132.474 525.561 132.383 525.229 132.406C524.9 132.424 524.586 132.557 524.335 132.784C524.149 132.957 524.082 133.114 524.119 133.146Z" fill="#263238"/>
<path d="M531.453 133.823C531.453 133.944 531.487 134.063 531.551 134.164C531.615 134.265 531.706 134.344 531.812 134.39C531.918 134.436 532.035 134.449 532.148 134.425C532.26 134.401 532.364 134.343 532.445 134.257C532.526 134.171 532.582 134.062 532.604 133.943C532.627 133.824 532.615 133.7 532.571 133.588C532.527 133.476 532.453 133.38 532.357 133.312C532.262 133.245 532.149 133.209 532.034 133.209C531.88 133.209 531.732 133.274 531.623 133.389C531.514 133.504 531.453 133.66 531.453 133.823Z" fill="#263238"/>
<path d="M531.09 133.145C531.164 133.232 531.597 132.838 532.222 132.807C532.848 132.775 533.325 133.09 533.392 133.003C533.459 132.917 533.34 132.814 533.139 132.665C532.86 132.475 532.531 132.384 532.2 132.405C531.869 132.427 531.553 132.559 531.299 132.783C531.09 132.956 531.045 133.114 531.09 133.145Z" fill="#263238"/>
<path d="M528.857 138.765C528.52 138.863 528.17 138.897 527.821 138.867C527.725 138.877 527.627 138.877 527.531 138.867C527.464 138.85 527.402 138.816 527.35 138.768C527.298 138.72 527.258 138.66 527.233 138.592C527.169 138.349 527.187 138.09 527.285 137.86L527.687 136.475C527.996 135.272 528.42 134.107 528.954 132.996C528.784 134.229 528.484 135.438 528.06 136.601L527.59 137.978C527.515 138.127 527.481 138.297 527.494 138.466C527.494 138.552 527.628 138.592 527.792 138.6C528.425 138.631 528.857 138.694 528.857 138.765Z" fill="#263238"/>
<path d="M531.836 139.08C531.836 139.631 532.648 140.025 533.617 140.048C534.585 140.072 535.397 139.71 535.42 139.167C535.442 138.624 534.675 138.089 533.639 138.065C532.603 138.042 531.836 138.537 531.836 139.08Z" fill="#A26760"/>
<path d="M530.892 139.378C531.532 138.937 529.141 140.487 527.859 140.487C528.088 140.824 528.419 141.068 528.796 141.181C529.173 141.294 529.576 141.269 529.938 141.109C531.279 140.511 530.892 139.378 530.892 139.378Z" fill="white"/>
<path d="M528.363 146.975C530.529 146.881 532.623 146.132 534.398 144.818C534.398 144.818 533.027 148.36 528.438 148.155L528.363 146.975Z" fill="#A26760"/>
<path d="M548.021 132.783V133.641C547.924 132.752 547.685 130.721 547.551 130.17C545.063 120.128 536.711 118.255 535.057 118.255C533.284 118.255 530.184 117.232 525.662 122.19C524.382 123.488 523.505 125.164 523.144 126.999C522.784 128.833 522.958 130.74 523.643 132.468L524.388 131.729L531.093 129.911C530.564 128.014 531.339 125.653 531.779 124.559L531.823 124.512C533.15 131.721 540.667 132.468 540.667 132.468L540.034 145.847C548.974 143.856 548.021 132.783 548.021 132.783Z" fill="#263238"/>
<path d="M547.797 132.296C547.787 131.717 547.962 131.151 548.295 130.691C548.628 130.231 549.098 129.904 549.63 129.762C550.71 129.509 551.841 129.698 552.796 130.289C553.302 130.521 553.753 130.868 554.116 131.306C554.48 131.745 554.746 132.263 554.897 132.823C555.15 134.208 554.301 135.53 553.452 136.632C552.963 137.34 552.367 137.957 551.686 138.458C551.342 138.705 550.95 138.868 550.539 138.935C550.128 139.001 549.708 138.97 549.309 138.844C548.66 138.548 548.132 138.018 547.819 137.348C547.249 136.213 547.055 134.91 547.267 133.645C547.479 132.381 548.085 131.227 548.989 130.368" fill="#263238"/>
<path d="M531.384 120.803C530.693 121.094 529.986 121.341 529.268 121.543C527.614 122.161 526.127 123.192 524.932 124.549C523.737 125.906 522.87 127.547 522.406 129.334C522.026 130.704 521.981 131.617 521.855 131.609C521.728 131.601 521.616 130.688 521.855 129.2C522.204 127.251 523.069 125.445 524.349 123.992C525.63 122.54 527.273 121.5 529.089 120.992C530.49 120.614 531.384 120.709 531.384 120.803Z" fill="#263238"/>
<path d="M541.844 138.553C541.775 137.757 541.856 136.955 542.083 136.192C542.206 135.81 542.424 135.47 542.713 135.207C543.003 134.944 543.354 134.768 543.729 134.697C544.166 134.678 544.593 134.828 544.933 135.117C545.273 135.407 545.502 135.817 545.577 136.271C545.625 136.73 545.543 137.195 545.343 137.606C545.143 138.017 544.833 138.358 544.452 138.585C544.063 138.799 543.633 138.917 543.194 138.931C542.755 138.945 542.319 138.853 541.919 138.663" fill="#A26760"/>
<path d="M543.184 138.173C543.184 138.11 543.362 138.047 543.578 137.843C543.716 137.718 543.829 137.565 543.91 137.394C543.99 137.222 544.037 137.035 544.048 136.843C544.046 136.652 544.007 136.463 543.933 136.288C543.858 136.113 543.75 135.957 543.616 135.828C543.407 135.616 543.221 135.537 543.236 135.474C543.251 135.411 543.467 135.395 543.78 135.592C543.983 135.723 544.15 135.908 544.265 136.128C544.38 136.349 544.438 136.597 544.433 136.849C544.429 137.101 544.362 137.346 544.239 137.562C544.117 137.778 543.943 137.956 543.735 138.079C543.415 138.26 543.184 138.221 543.184 138.173Z" fill="#A26760"/>
<path d="M529.208 133.514C529.208 133.514 529.208 133.435 529.208 133.278C529.203 133.042 529.225 132.807 529.275 132.577C529.45 131.716 529.907 130.948 530.564 130.405C531.056 130.001 531.637 129.733 532.253 129.627C532.868 129.521 533.499 129.581 534.088 129.799C534.82 130.067 535.455 130.569 535.904 131.235C536.353 131.902 536.595 132.7 536.595 133.518C536.595 134.336 536.353 135.134 535.904 135.8C535.455 136.467 534.82 136.969 534.088 137.236C533.499 137.455 532.868 137.514 532.253 137.408C531.637 137.303 531.056 137.035 530.564 136.63C529.907 136.088 529.45 135.319 529.275 134.458C529.225 134.229 529.203 133.993 529.208 133.758C529.208 133.601 529.208 133.514 529.208 133.514C529.208 133.514 529.208 133.852 529.394 134.419C529.611 135.215 530.073 135.913 530.705 136.402C531.212 136.801 531.813 137.042 532.442 137.101C533.071 137.159 533.703 137.031 534.267 136.732C534.831 136.433 535.306 135.974 535.637 135.406C535.969 134.839 536.144 134.185 536.144 133.518C536.144 132.851 535.969 132.197 535.637 131.63C535.306 131.062 534.831 130.603 534.267 130.304C533.703 130.004 533.071 129.877 532.442 129.935C531.813 129.993 531.212 130.235 530.705 130.634C530.073 131.123 529.611 131.821 529.394 132.617C529.245 133.183 529.245 133.522 529.208 133.514Z" fill="#263238"/>
<path d="M520.973 133.514C520.973 133.514 520.973 133.435 520.973 133.278C520.968 133.042 520.991 132.807 521.04 132.577C521.216 131.716 521.672 130.948 522.329 130.405C522.822 130.001 523.402 129.733 524.018 129.627C524.634 129.521 525.265 129.581 525.853 129.799C526.585 130.067 527.22 130.569 527.67 131.235C528.119 131.902 528.36 132.7 528.36 133.518C528.36 134.336 528.119 135.134 527.67 135.8C527.22 136.467 526.585 136.969 525.853 137.236C525.265 137.455 524.634 137.514 524.018 137.408C523.402 137.303 522.822 137.035 522.329 136.63C521.672 136.088 521.216 135.319 521.04 134.458C520.991 134.229 520.968 133.993 520.973 133.758C520.973 133.601 520.973 133.514 520.973 133.514C520.973 133.514 520.973 133.852 521.16 134.419C521.377 135.213 521.835 135.91 522.463 136.402C522.924 136.759 523.461 136.99 524.027 137.074C524.592 137.158 525.169 137.092 525.704 136.882C526.355 136.627 526.915 136.168 527.311 135.567C527.707 134.966 527.92 134.25 527.92 133.518C527.92 132.785 527.707 132.07 527.311 131.469C526.915 130.867 526.355 130.408 525.704 130.153C525.169 129.944 524.592 129.878 524.027 129.962C523.461 130.045 522.924 130.276 522.463 130.634C521.835 131.126 521.377 131.823 521.16 132.617C521.003 133.183 521.011 133.522 520.973 133.514Z" fill="#263238"/>
<path d="M528.109 133.642C528.109 133.524 528.4 133.438 528.765 133.438C529.13 133.438 529.421 133.524 529.421 133.642C529.421 133.76 529.123 133.847 528.765 133.847C528.407 133.847 528.109 133.752 528.109 133.642Z" fill="#263238"/>
<path d="M536.23 134.311C537.309 134.329 538.382 134.482 539.427 134.767C540.498 134.92 541.549 135.208 542.556 135.625C541.474 135.611 540.398 135.458 539.352 135.168C538.283 135.015 537.235 134.727 536.23 134.311Z" fill="#263238"/>
<path d="M515.582 212.504L521.289 339.785L539.58 340.194L534.834 230.204L547.217 339.73L565.895 340.218L551.277 211.111" fill="#263238"/>
<path d="M529.901 339.985C529.797 339.985 528.478 311.543 526.966 276.45C525.453 241.358 524.306 212.908 524.418 212.9C524.529 212.893 525.878 241.335 527.368 276.435C528.858 311.535 530.013 339.977 529.901 339.985Z" fill="#455A64"/>
<path d="M557.207 338.952C557.095 338.952 553.809 311.344 549.86 277.259C545.912 243.175 542.797 215.527 542.909 215.512C543.021 215.496 546.299 243.12 550.248 277.212C554.197 311.305 557.311 338.944 557.207 338.952Z" fill="#455A64"/>
<path d="M555.938 182.878L565.311 170.499L553.793 158.229C551.578 155.79 548.857 153.928 545.843 152.791C544.374 152.241 542.839 151.915 541.283 151.823V150.839L536.232 150.942C536.232 150.942 535.971 151.784 535.696 152.736C535.427 153.523 535.293 155.05 534.95 155.05C534.608 155.05 534.116 153.476 533.624 152.689L532.76 150.855L528.096 150.619V151.855C525.043 152.273 522.074 153.211 519.305 154.633L502.102 161.999L507.615 178.062L519.282 173.914C519.208 174.135 519.126 174.355 519.066 174.583C518.708 175.927 518.694 177.347 519.026 178.698C519.359 180.05 520.026 181.283 520.959 182.272L520.735 195.226L515.52 212.477L551.215 212.871L547.154 194.242L549.002 175.779L555.938 182.878Z" fill="#455A64"/>
<path d="M532.666 151.064C532.651 151.458 532.568 151.844 532.421 152.206L532.055 153.394C531.974 153.622 531.914 153.843 531.81 154.11C531.754 154.277 531.643 154.417 531.497 154.504C531.411 154.547 531.315 154.567 531.22 154.56C531.125 154.553 531.032 154.52 530.953 154.464C529.885 153.788 528.887 152.996 527.973 152.103C529.1 152.659 530.171 153.334 531.169 154.118C531.445 154.393 531.579 153.693 531.75 153.284L532.197 152.119C532.297 151.742 532.456 151.386 532.666 151.064Z" fill="#263238"/>
<path d="M541.701 152.072C540.915 153.382 539.873 154.5 538.647 155.354L538.386 155.55L538.23 155.668L538.118 155.495C537.301 154.342 536.729 153.016 536.441 151.607C536.546 151.607 537.186 153.331 538.438 155.267L538.17 155.212L538.416 155.023C540.353 153.559 541.612 151.993 541.701 152.072Z" fill="#263238"/>
<path d="M533.491 212.742C533.457 212.55 533.442 212.354 533.447 212.159C533.447 211.734 533.447 211.175 533.395 210.475C533.395 209.019 533.395 206.902 533.395 204.289C533.484 199.064 533.715 191.855 534.005 183.89C534.296 175.926 534.549 168.756 534.75 163.499C534.81 160.918 534.862 158.777 534.899 157.313C534.899 156.616 534.899 156.057 534.899 155.637C534.891 155.44 534.904 155.242 534.937 155.047C534.937 155.047 534.937 155.251 534.981 155.629C535.026 156.007 534.981 156.613 535.034 157.313C535.034 158.777 535.034 160.894 535.034 163.499C534.944 168.725 534.713 175.942 534.415 183.906C534.117 191.87 533.879 199.04 533.67 204.297C533.603 206.871 533.551 208.972 533.514 210.475C533.514 211.175 533.514 211.734 533.514 212.159C533.523 212.354 533.515 212.549 533.491 212.742Z" fill="#263238"/>
<path d="M537.956 164.549C537.956 164.502 538.262 164.447 538.537 164.825C538.618 164.935 538.673 165.063 538.699 165.2C538.725 165.336 538.72 165.477 538.686 165.612C538.635 165.784 538.537 165.937 538.405 166.052C538.272 166.166 538.111 166.238 537.941 166.257C537.775 166.288 537.605 166.268 537.45 166.198C537.295 166.128 537.163 166.012 537.069 165.863C537.003 165.746 536.963 165.615 536.95 165.479C536.937 165.343 536.952 165.205 536.995 165.076C537.159 164.636 537.479 164.589 537.479 164.636C537.479 164.683 537.308 164.825 537.263 165.155C537.236 165.334 537.273 165.516 537.367 165.667C537.43 165.743 537.51 165.801 537.601 165.834C537.691 165.867 537.788 165.875 537.882 165.856C537.978 165.847 538.07 165.81 538.148 165.748C538.226 165.687 538.286 165.604 538.321 165.509C538.373 165.338 538.36 165.151 538.284 164.99C538.172 164.675 537.941 164.612 537.956 164.549Z" fill="#263238"/>
<path d="M538.073 177.579C538.073 177.532 538.341 177.485 538.594 177.799C538.665 177.894 538.715 178.003 538.742 178.12C538.769 178.237 538.772 178.358 538.751 178.476C538.715 178.628 538.637 178.766 538.527 178.871C538.417 178.976 538.279 179.044 538.132 179.066C537.989 179.09 537.842 179.07 537.71 179.007C537.577 178.944 537.465 178.842 537.387 178.712C537.331 178.604 537.301 178.482 537.301 178.358C537.301 178.234 537.331 178.112 537.387 178.004C537.596 177.634 537.909 177.689 537.886 177.744C537.864 177.799 537.708 177.862 537.633 178.122C537.604 178.19 537.594 178.264 537.604 178.338C537.613 178.411 537.642 178.48 537.688 178.537C537.733 178.594 537.792 178.636 537.859 178.659C537.926 178.681 537.997 178.684 538.065 178.665C538.137 178.652 538.205 178.621 538.262 178.574C538.32 178.527 538.365 178.466 538.395 178.396C538.424 178.325 538.437 178.249 538.431 178.172C538.426 178.095 538.403 178.021 538.363 177.957C538.252 177.713 538.065 177.642 538.073 177.579Z" fill="#263238"/>
<path d="M510.479 176.878C510.122 176.142 509.818 175.379 509.57 174.596C509.004 173.061 508.288 171.156 507.506 169.047L505.345 163.538C505.007 162.794 504.723 162.023 504.496 161.232C504.924 161.925 505.29 162.657 505.591 163.42C506.217 164.798 507.037 166.734 507.864 168.929C508.691 171.125 509.354 173.085 509.831 174.541C510.116 175.296 510.333 176.079 510.479 176.878Z" fill="#263238"/>
<path d="M563.875 168.818C563.95 168.897 561.64 171.573 558.66 174.784C556.929 176.774 555.104 178.67 553.191 180.466C554.832 178.384 556.572 176.393 558.407 174.5C561.342 171.289 563.793 168.739 563.875 168.818Z" fill="#263238"/>
<path d="M530.436 205.64L529.718 201.971C529.424 200.487 529.41 198.956 529.678 197.466C529.946 195.977 530.49 194.558 531.279 193.291C532.067 192.024 533.085 190.934 534.274 190.084C535.463 189.234 536.799 188.641 538.205 188.338L561.86 183.178L566.984 209.382L543.329 214.543C541.929 214.853 540.485 214.868 539.08 214.588C537.674 214.309 536.334 213.739 535.137 212.912C533.939 212.085 532.908 211.018 532.101 209.77C531.295 208.522 530.729 207.119 530.436 205.64Z" fill="#FF725E"/>
<path d="M581.011 178.978L542.954 187.289C542.8 186.5 542.949 185.679 543.368 185.006C543.787 184.333 544.442 183.863 545.189 183.7L577.621 176.617C578.368 176.455 579.145 176.612 579.782 177.055C580.419 177.497 580.864 178.189 581.018 178.978H581.011Z" fill="#FF725E"/>
<g opacity="0.4">
<path opacity="0.4" d="M562.342 183.049C561.679 183.311 560.996 183.508 560.3 183.639C559.034 183.962 557.275 184.363 555.331 184.796C553.386 185.229 551.606 185.583 550.324 185.827C549.637 185.999 548.936 186.104 548.23 186.142C548.889 185.875 549.57 185.675 550.264 185.544C551.538 185.229 553.297 184.82 555.241 184.395C557.186 183.97 558.967 183.608 560.241 183.364C560.93 183.192 561.634 183.086 562.342 183.049Z" fill="black"/>
</g>
<g opacity="0.3">
<path opacity="0.3" d="M563.773 193.392C563.684 192.771 563.594 192.149 563.512 191.535C559.067 195.341 554.969 199.577 551.271 204.19C550.146 205.442 549.231 206.887 548.567 208.463C548.237 209.255 548.083 210.115 548.118 210.979C548.153 211.843 548.375 212.687 548.768 213.445L558.655 211.084L563.773 193.392Z" fill="black"/>
</g>
<path d="M573.66 199.072C575.476 196.867 576.472 194.04 576.462 191.117C576.452 188.194 575.438 185.374 573.608 183.183L564.101 171.818L556.553 181.695C556.889 181.931 564.689 191.714 564.689 191.714L552.769 207.398C550.936 209.822 549.937 213.222 550.891 216.158L552.478 219.676C553.031 220.89 554.01 221.83 555.208 222.294C556.406 222.758 557.728 222.711 558.893 222.163L561.746 220.809C561.909 220.733 562.052 220.615 562.16 220.465C562.268 220.316 562.339 220.14 562.366 219.954C562.392 219.768 562.374 219.578 562.313 219.401C562.251 219.225 562.149 219.067 562.015 218.944L561.314 218.306C561.063 218.072 560.768 217.895 560.449 217.787C560.13 217.679 559.793 217.641 559.459 217.677L555.831 218.07L555.659 217.362L573.66 199.072Z" fill="#A26760"/>
<path d="M562.327 219.439C561.956 219.622 561.572 219.775 561.179 219.895C560.256 220.323 559.266 220.568 558.259 220.62C557.673 220.563 557.128 220.283 556.724 219.833C556.398 219.488 556.13 219.085 555.934 218.644C555.712 218.26 555.615 217.809 555.658 217.361C555.726 217.361 555.793 217.841 556.173 218.51C556.389 218.898 556.657 219.251 556.97 219.557C557.323 219.931 557.785 220.17 558.281 220.234C559.24 220.166 560.186 219.967 561.097 219.644C561.486 219.472 561.907 219.402 562.327 219.439Z" fill="#A26760"/>
<path d="M561.308 218.252C560.446 218.724 559.526 219.066 558.574 219.267C557.873 219.472 557.126 219.399 556.473 219.063C555.981 218.771 555.839 218.401 555.877 218.386C555.914 218.37 556.137 218.614 556.622 218.803C557.234 219.027 557.897 219.049 558.522 218.866C559.422 218.536 560.358 218.33 561.308 218.252Z" fill="#A26760"/>
<path d="M146.469 162.123C146.126 162.029 139.354 172.535 139.13 181.578C139.112 182.463 139.142 183.349 139.22 184.23C139.511 187.394 140.231 190.498 141.358 193.446C147.08 208.721 152.988 226.838 153.085 230.962C153.383 243.68 158.591 300.768 158.591 300.768L170.012 301.083L171.83 230.97L167.777 161.549L146.469 162.123Z" fill="#A26760"/>
<path d="M168.281 171.141C168.281 171.141 183.726 224.09 182.757 241.183C181.789 258.277 170.017 300.838 170.017 300.838L168.281 171.141Z" fill="#A26760"/>
<path d="M141.848 162.201C141.848 162.201 133.25 173.896 139.285 192.296C145.245 210.562 140.976 232.873 140.976 232.873C140.976 232.873 148.583 226.845 153.977 229.505C160.116 232.535 164.206 236.155 171.858 232.653C179.808 228.986 186.126 226.924 193.39 234.101L182.154 192.705L175.658 166.349L141.848 162.201Z" fill="#263238"/>
<path d="M186.91 148.514C185.025 148.333 181.635 130.066 181.635 130.066L167.703 134.985C167.703 134.985 167.285 137.763 175.675 155.447C175.675 155.447 180.614 164.734 186.783 164.309L186.91 148.514Z" fill="#A26760"/>
<path d="M166.849 112.597C166.849 112.597 177.399 111.503 182.309 125.039L182.354 125.165C182.443 125.417 182.525 125.677 182.614 125.952L186.719 138.159L175.41 144.116V145.47L176.639 169.953L140.564 162.752L143.477 158.321C146.279 154.237 145.645 148.5 144.498 143.605L144.11 141.936L139.223 144.636C137.005 139.285 136.097 133.431 136.586 127.613C136.586 127.463 136.586 127.322 136.586 127.18C136.974 122.728 138.998 118.613 142.223 115.717C145.448 112.821 149.618 111.373 153.841 111.684L166.849 112.597Z" fill="#FF725E"/>
<g opacity="0.3">
<path opacity="0.3" d="M149.562 126.719C151.552 134.66 155.225 142.6 158.92 149.817C159.278 150.518 160.06 151.305 160.626 150.793C161.059 150.407 160.828 149.668 160.567 149.14L149.562 126.719Z" fill="black"/>
</g>
<path d="M174.508 131.039C174.811 131.632 175.061 132.254 175.253 132.896C175.648 134.061 176.207 135.651 176.743 137.477C177.003 138.348 177.097 139.266 177.019 140.176C176.923 140.912 176.709 141.625 176.385 142.285C176.124 142.903 175.78 143.478 175.365 143.993C175.579 143.369 175.827 142.76 176.11 142.167C176.386 141.524 176.564 140.839 176.639 140.137C176.695 139.275 176.596 138.41 176.348 137.587C175.841 135.863 175.38 134.305 174.985 132.983C174.759 132.355 174.599 131.703 174.508 131.039Z" fill="#263238"/>
<path d="M171.534 90.4922C171.536 92.0791 171.922 93.6392 172.657 95.0237C173.391 96.4082 174.449 97.5711 175.729 98.4015C176.445 98.7869 177.137 99.2206 177.8 99.7C178.131 99.9439 178.404 100.266 178.598 100.64C178.792 101.014 178.902 101.43 178.918 101.856C178.865 103.186 177.591 104.036 176.466 104.642C176.799 104.94 177.069 105.309 177.259 105.724C177.448 106.139 177.554 106.591 177.568 107.052C177.582 107.512 177.504 107.971 177.34 108.398C177.176 108.825 176.929 109.211 176.615 109.531C176.302 109.851 175.928 110.097 175.518 110.255C175.108 110.413 174.671 110.479 174.236 110.448C173.801 110.416 173.377 110.289 172.991 110.074C172.605 109.859 172.266 109.561 171.996 109.199C171.905 110.446 171.451 111.633 170.696 112.597C169.941 113.561 168.922 114.254 167.779 114.582C166.629 114.88 165.431 114.903 164.271 114.651C163.112 114.4 162.019 113.879 161.074 113.126C159.187 111.606 157.714 109.586 156.805 107.271" fill="#263238"/>
<path d="M177.65 95.5661C177.65 95.5661 177.799 95.7392 177.791 96.1406C177.778 96.4191 177.704 96.6905 177.575 96.9336C177.446 97.1766 177.265 97.3847 177.046 97.5414C176.7 97.7483 176.308 97.8571 175.91 97.8571C175.512 97.8571 175.121 97.7483 174.774 97.5414C173.944 97.0758 173.261 96.3647 172.807 95.4952C171.964 93.9769 171.424 92.2922 171.22 90.545C171.104 89.8315 171.104 89.1022 171.22 88.3887C171.28 88.3887 171.302 89.1757 171.526 90.5057C171.812 92.1868 172.372 93.803 173.18 95.2828C173.573 96.101 174.174 96.7877 174.916 97.266C175.212 97.4453 175.546 97.5448 175.888 97.5557C176.23 97.5667 176.569 97.4888 176.875 97.3289C177.071 97.2022 177.238 97.0326 177.367 96.8317C177.495 96.6308 177.582 96.4032 177.62 96.1642C177.687 95.7786 177.613 95.5739 177.65 95.5661Z" fill="#263238"/>
<path d="M165.731 113.234C165.895 110.211 166.096 107.213 166.096 107.213C166.096 107.213 170.67 106.701 170.946 101.909C171.222 97.1158 170.946 86.0821 170.946 86.0821L162.616 81.7852L153.438 89.1121L154.376 113.139C154.433 114.623 155.009 116.031 155.994 117.092C156.978 118.152 158.3 118.788 159.703 118.876C160.451 118.928 161.201 118.823 161.909 118.567C162.618 118.311 163.272 117.909 163.832 117.384C164.393 116.859 164.849 116.222 165.175 115.51C165.501 114.797 165.69 114.024 165.731 113.234Z" fill="#A26760"/>
<path d="M170.041 94.1353C170.041 94.2567 170.007 94.3754 169.943 94.4764C169.879 94.5773 169.789 94.656 169.682 94.7025C169.576 94.7489 169.459 94.7611 169.347 94.7374C169.234 94.7137 169.13 94.6553 169.049 94.5694C168.968 94.4836 168.912 94.3742 168.89 94.2551C168.868 94.136 168.879 94.0126 168.923 93.9004C168.967 93.7883 169.042 93.6924 169.137 93.6249C169.233 93.5575 169.345 93.5215 169.46 93.5215C169.614 93.5215 169.762 93.5862 169.871 93.7013C169.98 93.8164 170.041 93.9725 170.041 94.1353Z" fill="#263238"/>
<path d="M170.572 93.4653C170.498 93.544 170.073 93.1583 169.447 93.1269C168.822 93.0954 168.352 93.4023 168.285 93.3157C168.218 93.2292 168.33 93.1347 168.538 92.9852C168.814 92.7954 169.141 92.7044 169.47 92.7257C169.798 92.7469 170.112 92.8793 170.364 93.1033C170.572 93.2764 170.632 93.4259 170.572 93.4653Z" fill="#263238"/>
<path d="M163.311 94.1353C163.312 94.2156 163.298 94.2952 163.27 94.3697C163.241 94.4441 163.199 94.5118 163.146 94.5689C163.092 94.626 163.029 94.6714 162.959 94.7023C162.889 94.7333 162.813 94.7492 162.737 94.7492C162.583 94.7492 162.435 94.6845 162.326 94.5694C162.217 94.4543 162.156 94.2981 162.156 94.1353C162.156 93.9725 162.217 93.8164 162.326 93.7013C162.435 93.5862 162.583 93.5215 162.737 93.5215C162.813 93.5215 162.889 93.5374 162.959 93.5684C163.029 93.5993 163.092 93.6446 163.146 93.7017C163.199 93.7589 163.241 93.8266 163.27 93.901C163.298 93.9754 163.312 94.0551 163.311 94.1353Z" fill="#263238"/>
<path d="M163.682 93.4653C163.607 93.544 163.175 93.1583 162.549 93.1269C161.923 93.0954 161.461 93.4023 161.394 93.3157C161.327 93.2292 161.439 93.1347 161.648 92.9852C161.924 92.7954 162.25 92.7044 162.579 92.7257C162.908 92.7469 163.221 92.8793 163.473 93.1033C163.659 93.2764 163.719 93.4259 163.682 93.4653Z" fill="#263238"/>
<path d="M165.924 98.9968C166.258 98.9056 166.601 98.8606 166.945 98.863C167.101 98.863 167.265 98.863 167.303 98.7056C167.326 98.5243 167.295 98.3399 167.213 98.1783C167.072 97.7297 166.93 97.289 166.789 96.8168C166.49 95.8567 166.23 94.9752 166.043 94.3378C165.925 93.9978 165.847 93.6435 165.812 93.2832C165.98 93.5964 166.113 93.9292 166.207 94.2748C166.423 94.9044 166.707 95.778 167.005 96.746C167.139 97.2103 167.273 97.6589 167.414 98.1075C167.507 98.3222 167.526 98.5645 167.466 98.7922C167.411 98.884 167.332 98.9568 167.238 99.0015C167.144 99.0463 167.039 99.061 166.938 99.044C166.599 99.0655 166.26 99.0497 165.924 98.9968Z" fill="#263238"/>
<path d="M163.873 99.6593C163.247 99.2186 165.623 100.761 166.897 100.761C166.669 101.096 166.34 101.339 165.964 101.452C165.588 101.565 165.187 101.541 164.826 101.383C163.485 100.785 163.873 99.6593 163.873 99.6593Z" fill="white"/>
<path d="M166.103 107.213C163.948 107.115 161.865 106.37 160.098 105.064C160.098 105.064 161.461 108.582 166.006 108.386L166.103 107.213Z" fill="#A26760"/>
<path d="M169.043 82.5655C164.573 77.6389 161.466 78.6305 159.701 78.6305C157.761 78.86 155.888 79.5105 154.198 80.5411C152.508 81.5717 151.039 82.9603 149.881 84.6195C148.629 85.9968 146.841 90.4827 146.633 92.0645C146.551 93.6615 146.566 95.2624 146.677 96.8573C146.677 98.4313 146.32 100.178 145.187 101.241C144.442 101.91 143.459 102.295 143.027 103.201C142.828 103.755 142.819 104.365 143.002 104.925C143.184 105.486 143.546 105.961 144.025 106.27C145.008 106.853 146.138 107.098 147.258 106.97C147.168 108.162 147.498 109.347 148.186 110.296C148.874 111.245 149.871 111.891 150.984 112.109C152.118 112.267 153.267 111.954 154.187 111.236C154.949 112.017 155.755 112.747 156.601 113.424C156.79 106.456 156.651 99.4912 156.184 92.5289C159.209 91.9622 164.633 90.2387 165.579 85.1232C166.786 88.0351 168.619 89.6248 171.055 91.8284C171.07 91.8363 173.558 87.5 169.043 82.5655Z" fill="#263238"/>
<path d="M156.531 90.6875C157.147 90.6058 157.77 90.6058 158.386 90.6875C159.839 90.8559 161.309 90.6729 162.685 90.1523C163.412 89.8359 164.036 89.3026 164.481 88.6177C164.843 88.0451 165.096 87.4036 165.226 86.7289C165.442 85.572 165.338 84.8165 165.405 84.8086C165.594 85.4477 165.63 86.1266 165.509 86.7839C165.418 87.5102 165.182 88.2077 164.816 88.8301C164.345 89.5951 163.668 90.1928 162.872 90.5458C161.442 91.0951 159.903 91.2468 158.401 90.9865C157.77 90.9491 157.144 90.849 156.531 90.6875Z" fill="#263238"/>
<path d="M144.73 102.407C144.983 102.413 145.234 102.375 145.476 102.296C145.79 102.165 146.067 101.952 146.282 101.677C146.497 101.402 146.643 101.073 146.705 100.722C146.827 99.6535 146.634 98.5709 146.154 97.6216C145.894 97.0187 145.68 96.395 145.513 95.7565C145.354 95.0533 145.311 94.3265 145.386 93.608C145.539 92.2277 146.002 90.9058 146.735 89.7517C147.324 88.8225 148.011 87.967 148.784 87.2018C149.432 86.5407 149.99 86.0528 150.378 85.7223C150.566 85.5303 150.779 85.3685 151.011 85.2422C151.056 85.2973 150.266 86.0764 148.985 87.4143C148.259 88.1899 147.61 89.0416 147.048 89.9563C146.368 91.0704 145.935 92.332 145.781 93.6473C145.716 94.3209 145.754 95.0011 145.893 95.662C146.051 96.2804 146.253 96.8854 146.496 97.4721C146.992 98.4953 147.161 99.66 146.981 100.793C146.896 101.177 146.718 101.531 146.463 101.818C146.207 102.106 145.885 102.317 145.528 102.43C145.332 102.479 145.128 102.479 144.932 102.43C144.79 102.454 144.73 102.422 144.73 102.407Z" fill="#263238"/>
<path d="M169.639 302.642V301.068L157.859 300.832V305.688L158.604 305.735C161.845 305.932 175.092 306.475 177.23 305.782C179.615 305.027 169.639 302.642 169.639 302.642Z" fill="#FF725E"/>
<g opacity="0.6">
<path opacity="0.6" d="M162.064 305.767C161.89 304.722 161.36 303.781 160.573 303.122C159.797 302.467 158.816 302.144 157.824 302.217V305.68L162.064 305.767Z" fill="white"/>
</g>
<g opacity="0.6">
<path opacity="0.6" d="M174.493 303.988C174.493 303.988 177.987 305.051 177.555 305.665C177.123 306.278 163.705 306.247 157.789 305.665V305.389L173.435 305.547C173.435 305.547 173.807 304.051 174.493 303.988Z" fill="white"/>
</g>
<path d="M157.73 305.316H157.932L158.513 305.356L160.644 305.458C162.447 305.529 164.942 305.592 167.692 305.6C170.441 305.608 172.907 305.553 174.74 305.49L176.878 305.395H177.459H177.66H176.871L174.74 305.434C172.937 305.434 170.441 305.505 167.692 305.505C164.942 305.505 162.476 305.45 160.644 305.403L158.513 305.356H157.932L157.73 305.316Z" fill="#263238"/>
<path d="M173.448 305.819C173.544 305.445 173.679 305.083 173.85 304.741C174.065 304.422 174.315 304.132 174.595 303.875C174.231 304.02 173.929 304.3 173.746 304.662C173.52 304.998 173.414 305.408 173.448 305.819Z" fill="#263238"/>
<path d="M169.763 303.666C169.8 303.666 169.964 303.477 170.135 303.194C170.259 303.03 170.345 302.839 170.388 302.635C170.351 302.635 170.187 302.824 170.016 303.115C169.845 303.406 169.733 303.642 169.763 303.666Z" fill="#263238"/>
<path d="M168.812 303.139C168.812 303.139 169.021 303.036 169.222 302.847C169.423 302.659 169.572 302.47 169.543 302.438C169.513 302.407 169.334 302.54 169.133 302.729C168.932 302.918 168.783 303.107 168.812 303.139Z" fill="#263238"/>
<path d="M168.215 301.964C168.413 302.039 168.624 302.065 168.833 302.043C169.039 302.07 169.248 302.049 169.444 301.98C169.248 301.906 169.04 301.877 168.833 301.893C168.491 301.893 168.215 301.917 168.215 301.964Z" fill="#263238"/>
<path d="M168.008 301.139C168.211 301.28 168.45 301.354 168.693 301.351C168.931 301.394 169.176 301.359 169.394 301.249C169.164 301.213 168.932 301.198 168.701 301.202C168.472 301.159 168.24 301.137 168.008 301.139Z" fill="#263238"/>
<path d="M170.164 302.587C170.411 302.633 170.663 302.633 170.909 302.587C171.182 302.555 171.452 302.495 171.714 302.406C171.875 302.357 172.03 302.288 172.176 302.202C172.265 302.149 172.332 302.061 172.362 301.958C172.373 301.898 172.369 301.837 172.349 301.78C172.329 301.723 172.295 301.673 172.25 301.635C171.962 301.485 171.634 301.446 171.321 301.523C171.009 301.601 170.731 301.79 170.537 302.06C170.42 302.218 170.336 302.4 170.291 302.595C170.276 302.665 170.276 302.738 170.291 302.808C170.372 302.563 170.49 302.335 170.641 302.131C170.808 301.919 171.031 301.766 171.282 301.69C171.578 301.584 171.902 301.607 172.183 301.753C172.302 301.847 172.258 301.997 172.124 302.084C171.987 302.158 171.845 302.221 171.699 302.272C171.444 302.365 171.182 302.436 170.917 302.485C170.455 302.564 170.164 302.564 170.164 302.587Z" fill="#263238"/>
<path d="M170.357 302.625C170.454 302.46 170.486 302.263 170.446 302.074C170.424 301.865 170.355 301.666 170.245 301.491C170.183 301.371 170.091 301.269 169.98 301.197C169.869 301.126 169.742 301.086 169.612 301.082C169.535 301.099 169.467 301.147 169.424 301.217C169.381 301.286 169.365 301.371 169.381 301.452C169.4 301.578 169.443 301.698 169.507 301.806C169.606 301.982 169.726 302.144 169.865 302.286C169.982 302.429 170.131 302.54 170.297 302.609C170.297 302.609 170.148 302.467 169.94 302.215C169.817 302.068 169.71 301.907 169.619 301.735C169.522 301.57 169.448 301.263 169.619 301.232C169.791 301.2 169.999 301.405 170.111 301.57C170.218 301.724 170.292 301.902 170.327 302.089C170.353 302.266 170.363 302.446 170.357 302.625Z" fill="#263238"/>
<path d="M157.648 302.162C157.648 302.162 157.984 302.162 158.52 302.162C159.21 302.251 159.864 302.537 160.413 302.989C160.952 303.453 161.359 304.066 161.59 304.759C161.769 305.287 161.783 305.649 161.813 305.641C161.828 305.56 161.828 305.477 161.813 305.397C161.794 305.17 161.751 304.945 161.687 304.728C161.47 304.001 161.059 303.355 160.502 302.871C159.934 302.405 159.246 302.131 158.528 302.084C158.312 302.058 158.095 302.058 157.879 302.084C157.799 302.097 157.721 302.124 157.648 302.162Z" fill="#263238"/>
<path d="M163.309 304.153C164.442 304.381 165.605 304.394 166.743 304.192C166.743 304.145 165.998 304.192 165.022 304.192C164.046 304.192 163.316 304.106 163.309 304.153Z" fill="#263238"/>
<path d="M161.008 304.144C161.008 304.144 161.067 304.309 161.149 304.498C161.231 304.687 161.269 304.852 161.306 304.844C161.343 304.837 161.373 304.648 161.306 304.435C161.239 304.223 161.03 304.112 161.008 304.144Z" fill="#263238"/>
<path d="M160.148 303.005C160.148 303.005 160.193 303.162 160.312 303.288C160.432 303.414 160.558 303.5 160.588 303.477C160.618 303.453 160.536 303.311 160.417 303.186C160.297 303.06 160.148 302.973 160.148 303.005Z" fill="#263238"/>
<path d="M158.895 302.475C158.895 302.522 159.059 302.514 159.23 302.585C159.401 302.656 159.528 302.742 159.558 302.719C159.588 302.695 159.491 302.514 159.282 302.435C159.074 302.357 158.887 302.475 158.895 302.475Z" fill="#263238"/>
<path d="M158.02 302.231C158.02 302.27 158.072 302.333 158.169 302.372C158.265 302.412 158.355 302.412 158.37 302.372C158.385 302.333 158.318 302.27 158.221 302.231C158.124 302.191 158.034 302.191 158.02 302.231Z" fill="#263238"/>
<path opacity="0.3" d="M144.852 155.348C144.852 155.348 146.193 166.263 156.251 165.87C162.978 165.55 169.678 164.761 176.307 163.509L176.203 161.439L144.852 155.348Z" fill="black"/>
<path d="M203.121 148.413C202.227 146.894 196.081 150.514 195.537 150.774C194.993 151.034 194.613 150.215 195.112 149.987C195.857 149.68 203.308 146.28 202.466 144.785C201.989 143.998 200.663 144.997 200.663 144.997C200.663 144.997 193.868 148.728 193.488 148.004C193.108 147.28 197.012 144.942 198.383 144.258C199.754 143.573 199.992 142.621 199.202 142.235C198.673 141.975 194.419 143.974 193.078 144.683C191.737 145.391 188.079 147.421 189.115 144.879C190.15 142.337 190.031 139.968 189.576 139.37C189.459 139.24 189.305 139.152 189.137 139.118C188.97 139.084 188.796 139.106 188.641 139.182C188.486 139.257 188.357 139.382 188.272 139.538C188.188 139.695 188.151 139.876 188.168 140.055C188.102 140.985 187.914 141.902 187.61 142.778C187.39 143.493 187.058 144.164 186.626 144.761C186.119 145.462 185.665 146.028 185.263 146.5C181.344 147.949 170.161 151.608 159.715 150.601C157.823 150.42 153.01 137.072 153.01 137.072L140.001 144.155C140.001 144.155 139.763 144.903 145.693 157.093C153.77 173.691 190.254 156.472 190.254 156.472V156.432C193.021 155.853 195.757 155.117 198.45 154.229C202.116 152.828 202.004 152.474 201.773 152.057C201.162 150.916 195.231 154.26 196.111 152.757C196.99 151.254 203.807 149.57 203.121 148.413Z" fill="#A26760"/>
<defs>
<filter id="filter0_dddd_11049_193608" x="0.586113" y="0" width="480.062" height="475.441" filterUnits="userSpaceOnUse" color-interpolation-filters="sRGB">
<feFlood flood-opacity="0" result="BackgroundImageFix"/>
<feColorMatrix in="SourceAlpha" type="matrix" values="0 0 0 0 0 0 0 0 0 0 0 0 0 0 0 0 0 0 127 0" result="hardAlpha"/>
<feOffset dy="22.644"/>
<feGaussianBlur stdDeviation="6.61205"/>
<feColorMatrix type="matrix" values="0 0 0 0 0.0705882 0 0 0 0 0.0980392 0 0 0 0 0.133333 0 0 0 0.0104523 0"/>
<feBlend mode="normal" in2="BackgroundImageFix" result="effect1_dropShadow_11049_193608"/>
<feColorMatrix in="SourceAlpha" type="matrix" values="0 0 0 0 0 0 0 0 0 0 0 0 0 0 0 0 0 0 127 0" result="hardAlpha"/>
<feOffset dy="39.4109"/>
<feGaussianBlur stdDeviation="11.508"/>
<feColorMatrix type="matrix" values="0 0 0 0 0.0705882 0 0 0 0 0.0980392 0 0 0 0 0.133333 0 0 0 0.0128732 0"/>
<feBlend mode="normal" in2="effect1_dropShadow_11049_193608" result="effect2_dropShadow_11049_193608"/>
<feColorMatrix in="SourceAlpha" type="matrix" values="0 0 0 0 0 0 0 0 0 0 0 0 0 0 0 0 0 0 127 0" result="hardAlpha"/>
<feOffset dy="62.6078"/>
<feGaussianBlur stdDeviation="18.2815"/>
<feColorMatrix type="matrix" values="0 0 0 0 0.0705882 0 0 0 0 0.0980392 0 0 0 0 0.133333 0 0 0 0.015 0"/>
<feBlend mode="normal" in2="effect2_dropShadow_11049_193608" result="effect3_dropShadow_11049_193608"/>
<feColorMatrix in="SourceAlpha" type="matrix" values="0 0 0 0 0 0 0 0 0 0 0 0 0 0 0 0 0 0 127 0" result="hardAlpha"/>
<feOffset dy="96.5991"/>
<feGaussianBlur stdDeviation="28.2069"/>
<feColorMatrix type="matrix" values="0 0 0 0 0.0705882 0 0 0 0 0.0980392 0 0 0 0 0.133333 0 0 0 0.0171268 0"/>
<feBlend mode="normal" in2="effect3_dropShadow_11049_193608" result="effect4_dropShadow_11049_193608"/>
<feBlend mode="normal" in="SourceGraphic" in2="effect4_dropShadow_11049_193608" result="shape"/>
</filter>
</defs>
</svg>
