<svg width="752" height="420" viewBox="0 0 752 420" fill="none" xmlns="http://www.w3.org/2000/svg">
<g filter="url(#filter0_dddd_11049_194722)">
<rect x="64.5312" y="4" width="371.945" height="330.902" rx="36" fill="#E4E8EF" stroke="white" stroke-width="8"/>
<path d="M57 55.7773C57 54.6728 57.8954 53.7773 59 53.7773H60.532V66.5081H59C57.8954 66.5081 57 65.6127 57 64.5081V55.7773Z" fill="white"/>
<path d="M58.0078 80.1426C58.0078 79.038 58.9032 78.1426 60.0078 78.1426H60.5307V103.604H60.0078C58.9032 103.604 58.0078 102.709 58.0078 101.604V80.1426Z" fill="white"/>
<path d="M58.0078 112.408C58.0078 111.304 58.9032 110.408 60.0078 110.408H60.5307V135.87H60.0078C58.9032 135.87 58.0078 134.974 58.0078 133.87V112.408Z" fill="white"/>
<path d="M443 125.09C443 126.194 442.105 127.09 441 127.09L440.477 127.09L440.477 86.7025L441 86.7025C442.105 86.7025 443 87.5979 443 88.7025L443 125.09Z" fill="white"/>
<rect x="229.059" y="10.9746" width="42.8889" height="3.07295" rx="1.53647" fill="#E4E8EF"/>
<ellipse cx="288.598" cy="12.5111" rx="3.53203" ry="1.53647" fill="#E4E8EF"/>
</g>
<path d="M644.597 64.2346C649.291 54.3625 645.093 42.5544 635.221 37.8604C625.349 33.1665 613.541 37.3642 608.847 47.2363C604.153 57.1084 608.351 68.9165 618.223 73.6105C628.095 78.3045 639.903 74.1067 644.597 64.2346Z" fill="#EBEBEB"/>
<path d="M634.733 73.6486C644.394 69.716 649.037 58.6966 645.104 49.036C641.172 39.3755 630.153 34.732 620.492 38.6646C610.831 42.5972 606.188 53.6166 610.121 63.2771C614.053 72.9377 625.073 77.5811 634.733 73.6486Z" fill="#DBDBDB"/>
<path d="M634.291 72.5523C643.341 68.8646 647.688 58.5389 644 49.4891C640.313 40.4392 629.987 36.0923 620.937 39.78C611.887 43.4676 607.54 53.7934 611.228 62.8432C614.915 71.893 625.241 76.2399 634.291 72.5523Z" fill="white"/>
<path opacity="0.5" d="M644.911 52.4162C636.848 57.2971 623.612 65.3064 616.21 69.6954C614.115 67.9327 612.46 65.7063 611.375 63.1926L635.849 40.5098C638.136 41.714 640.132 43.4036 641.697 45.4603C643.263 47.517 644.36 49.891 644.911 52.4162Z" fill="#EBEBEB"/>
<path opacity="0.5" d="M645.296 56.7891C645.231 58.7574 644.836 60.7009 644.128 62.5386L622.06 72.9768C621.097 72.6567 620.164 72.2556 619.27 71.7777C625.941 67.9268 638.117 60.9167 645.296 56.7891Z" fill="#EBEBEB"/>
<path d="M627.784 39.7617H627.445V42.4443H627.784V39.7617Z" fill="#C7C7C7"/>
<path d="M619.553 41.8661L619.254 42.0391L620.595 44.3623L620.895 44.1893L619.553 41.8661Z" fill="#C7C7C7"/>
<path d="M613.474 47.8028L613.305 48.0957L615.628 49.437L615.797 49.1441L613.474 47.8028Z" fill="#C7C7C7"/>
<path d="M613.89 55.9961H611.207V56.3343H613.89V55.9961Z" fill="#C7C7C7"/>
<path d="M615.643 62.8833L613.32 64.2246L613.489 64.5175L615.813 63.1762L615.643 62.8833Z" fill="#C7C7C7"/>
<path d="M620.606 67.9808L619.266 70.3047L619.565 70.4775L620.905 68.1536L620.606 67.9808Z" fill="#C7C7C7"/>
<path d="M627.784 69.8926H627.445V72.5752H627.784V69.8926Z" fill="#C7C7C7"/>
<path d="M635.567 68.3134L635.266 68.4863L636.607 70.8202L636.908 70.6472L635.567 68.3134Z" fill="#C7C7C7"/>
<path d="M639.568 62.877L639.398 63.1699L641.722 64.5112L641.891 64.2183L639.568 62.877Z" fill="#C7C7C7"/>
<path d="M644.022 55.9961H641.34V56.3343H644.022V55.9961Z" fill="#C7C7C7"/>
<path d="M641.741 47.8169L639.418 49.1582L639.587 49.4511L641.91 48.1098L641.741 47.8169Z" fill="#C7C7C7"/>
<path d="M635.66 41.8597L634.32 44.1836L634.62 44.3564L635.96 42.0325L635.66 41.8597Z" fill="#C7C7C7"/>
<path d="M627.865 40.9707L628.449 57.366L626.773 57.343L627.411 40.9707H627.865Z" fill="#C7C7C7"/>
<path d="M638.083 50.4524L627.053 57.4933L626.254 56.0175L637.861 50.0527L638.083 50.4524Z" fill="#A6A6A6"/>
<path d="M628.184 56.1664C628.185 56.2417 628.171 56.3165 628.143 56.3864C628.115 56.4563 628.073 56.5199 628.021 56.5736C627.968 56.6272 627.905 56.6698 627.835 56.6989C627.766 56.7279 627.691 56.7429 627.616 56.7429C627.535 56.7523 627.453 56.7444 627.375 56.7199C627.298 56.6954 627.226 56.6548 627.166 56.6007C627.105 56.5467 627.056 56.4803 627.023 56.4061C626.99 56.3319 626.973 56.2516 626.973 56.1702C626.973 56.0889 626.99 56.0085 627.023 55.9343C627.056 55.8601 627.105 55.7938 627.166 55.7397C627.226 55.6857 627.298 55.645 627.375 55.6205C627.453 55.596 627.535 55.5882 627.616 55.5976C627.766 55.5976 627.911 55.6575 628.018 55.7642C628.124 55.8709 628.184 56.0155 628.184 56.1664Z" fill="#C7C7C7"/>
<path d="M751.784 51.3223H666.156V158.165H751.784V51.3223Z" fill="#EBEBEB"/>
<path d="M748.119 55.0957H669.832V154.459H748.119V55.0957Z" fill="white"/>
<path d="M699.423 82.2379C692.99 81.5692 688.193 89.6246 684.05 102.223C679.907 114.821 680.33 121.954 680.876 124.022C681.422 126.089 683.681 130.455 688.14 130.94C692.598 131.424 695.911 128.042 698.301 126.112C700.692 124.183 705.557 123.307 706.572 118.895C707.586 114.483 705.803 99.6786 705.519 96.9729C705.234 94.2673 705.127 82.8374 699.423 82.2379Z" fill="#DBDBDB"/>
<path d="M704.525 120.04C703.356 122.676 698.768 122.915 697.353 124.513C695.939 126.112 691.904 129.41 688.775 129.594C685.647 129.779 683.318 126.228 682.526 124.39C681.942 123.045 681.688 118.549 682.903 111.792C683.415 108.938 684.088 106.116 684.917 103.337C685.609 100.991 686.422 98.6817 687.353 96.4192C690.343 89.1709 693.787 84.8126 696.193 83.9979C704.217 81.3076 703.18 93.2217 704.033 98.2794C704.317 99.9627 704.594 102.63 704.802 105.535C704.909 107.173 705.001 108.894 705.055 110.562C705.194 114.851 705.086 118.795 704.525 120.04Z" fill="#EBEBEB"/>
<path d="M688.816 98.1496C688.816 98.0462 688.79 97.9445 688.74 97.8541C688.69 97.7636 688.617 97.6875 688.53 97.6328C688.442 97.5782 688.342 97.5468 688.238 97.5417C688.135 97.5367 688.032 97.5581 687.939 97.6039C687.716 97.7409 687.526 97.9257 687.382 98.145C687.239 98.3642 687.146 98.6126 687.109 98.8721C687.017 99.2795 687.109 99.9636 687.655 99.9021C688.009 99.856 688.232 99.4871 688.424 99.2103C688.667 98.9089 688.804 98.5365 688.816 98.1496Z" fill="#DBDBDB"/>
<path d="M689.48 93.9368C689.066 94.2514 688.791 94.7144 688.712 95.2282C688.589 95.6279 688.404 96.3504 689.011 96.435C689.496 96.4964 689.734 95.9584 689.888 95.6048C690.077 95.2287 690.202 94.8233 690.257 94.4057C690.261 94.3128 690.241 94.2204 690.197 94.1383C690.153 94.0562 690.088 93.9875 690.009 93.9394C689.929 93.8913 689.838 93.8657 689.745 93.8652C689.652 93.8648 689.56 93.8895 689.48 93.9368Z" fill="#DBDBDB"/>
<path d="M690.782 96.981C690.766 96.9182 690.736 96.8597 690.695 96.8101C690.653 96.7604 690.601 96.7208 690.542 96.6942C690.483 96.6676 690.418 96.6547 690.353 96.6564C690.289 96.6582 690.225 96.6745 690.167 96.7043C689.871 96.8641 689.635 97.1169 689.496 97.4238C689.357 97.7307 689.323 98.0748 689.399 98.403C689.416 98.4712 689.449 98.5345 689.494 98.5883C689.54 98.6421 689.597 98.685 689.661 98.7138C689.725 98.7426 689.795 98.7566 689.865 98.7547C689.936 98.7528 690.005 98.735 690.067 98.7028C690.337 98.5128 690.548 98.2501 690.674 97.9454C690.801 97.6406 690.838 97.3062 690.782 96.981Z" fill="#DBDBDB"/>
<path d="M692.798 92.4675C692.814 92.3715 692.802 92.2728 692.763 92.1836C692.723 92.0944 692.659 92.0186 692.577 91.9655C692.496 91.9124 692.4 91.8843 692.303 91.8848C692.205 91.8852 692.11 91.9141 692.029 91.9679C691.735 92.1815 691.507 92.4736 691.371 92.8107C691.235 93.1478 691.197 93.5163 691.26 93.8742C691.295 93.9701 691.366 94.0487 691.458 94.0932C691.55 94.1377 691.655 94.1446 691.752 94.1124C692.045 93.9418 692.293 93.7033 692.475 93.4171C692.657 93.1309 692.768 92.8053 692.798 92.4675Z" fill="#DBDBDB"/>
<path d="M690.767 90.9533C690.479 91.113 690.25 91.3609 690.114 91.6605C689.958 91.936 689.916 92.2618 689.998 92.5675C690.008 92.6043 690.026 92.6384 690.05 92.6673C690.075 92.6963 690.105 92.7194 690.14 92.7349C690.175 92.7504 690.213 92.7579 690.251 92.7569C690.288 92.7558 690.326 92.7463 690.36 92.7289C690.627 92.5922 690.858 92.3942 691.034 92.151C691.211 91.9079 691.327 91.6266 691.374 91.33C691.428 91.0072 691.013 90.8304 690.767 90.9533Z" fill="#DBDBDB"/>
<path d="M692.761 88.6866C692.473 88.8192 692.227 89.0272 692.049 89.2884C691.87 89.5496 691.766 89.8543 691.746 90.1701C691.746 90.25 691.766 90.3287 691.804 90.3987C691.843 90.4687 691.899 90.5277 691.966 90.57C692.034 90.6124 692.112 90.6367 692.192 90.6407C692.271 90.6447 692.351 90.6282 692.423 90.5929C692.896 90.2435 693.217 89.7265 693.322 89.1478C693.341 89.0739 693.339 88.9959 693.316 88.9232C693.292 88.8504 693.248 88.7859 693.189 88.7374C693.13 88.6888 693.058 88.6583 692.982 88.6493C692.906 88.6403 692.83 88.6532 692.761 88.6866Z" fill="#DBDBDB"/>
<path d="M694.611 86.8193C694.586 86.716 694.521 86.6268 694.43 86.5708C694.34 86.5147 694.231 86.4964 694.127 86.5196C693.85 86.5887 693.719 86.8116 693.573 87.0346C693.494 87.1229 693.435 87.2286 693.403 87.3433C693.371 87.4581 693.366 87.5786 693.389 87.6956C693.404 87.7588 693.439 87.8155 693.489 87.8571C693.539 87.8987 693.601 87.9229 693.666 87.9262C693.794 87.926 693.921 87.8935 694.034 87.8317C694.146 87.77 694.242 87.6809 694.311 87.5726C694.389 87.4909 694.461 87.4035 694.527 87.3113C694.619 87.1649 694.649 86.988 694.611 86.8193Z" fill="#DBDBDB"/>
<path d="M694.318 90.631C694.305 90.5772 694.282 90.5265 694.249 90.4818C694.217 90.4371 694.176 90.3993 694.129 90.3707C694.081 90.342 694.029 90.3231 693.974 90.315C693.92 90.3069 693.864 90.3098 693.81 90.3236C693.667 90.3712 693.537 90.4526 693.431 90.5609C693.325 90.6692 693.247 90.8014 693.203 90.9462C693.08 91.2075 693.011 91.7148 693.388 91.7994C693.764 91.8839 693.926 91.638 694.087 91.392C694.133 91.3074 694.195 91.2229 694.241 91.1383C694.324 90.983 694.351 90.8039 694.318 90.631Z" fill="#DBDBDB"/>
<path d="M692.657 95.1507C692.658 95.0679 692.638 94.9863 692.598 94.9137C692.558 94.8411 692.5 94.7799 692.43 94.736C692.36 94.692 692.28 94.6668 692.197 94.6627C692.114 94.6586 692.032 94.6758 691.958 94.7126C691.709 94.8736 691.517 95.1083 691.408 95.3839C691.299 95.6596 691.279 95.9623 691.351 96.2499C691.366 96.3095 691.395 96.3649 691.434 96.4122C691.474 96.4594 691.523 96.4973 691.579 96.523C691.635 96.5488 691.696 96.5618 691.757 96.5611C691.819 96.5603 691.88 96.5459 691.935 96.5189C692.149 96.3796 692.32 96.1824 692.427 95.9501C692.576 95.7099 692.655 95.4333 692.657 95.1507Z" fill="#DBDBDB"/>
<path d="M688.664 100.109C688.363 100.434 688.191 100.858 688.18 101.301C688.18 101.562 688.272 102.277 688.71 102.116C688.842 102.051 688.959 101.96 689.053 101.847C689.147 101.735 689.216 101.603 689.256 101.462C689.409 101.168 689.515 100.851 689.571 100.524C689.572 100.419 689.543 100.315 689.486 100.226C689.43 100.137 689.348 100.066 689.252 100.022C689.156 99.9782 689.05 99.9631 688.945 99.9786C688.841 99.994 688.743 100.039 688.664 100.109Z" fill="#DBDBDB"/>
<path d="M686.569 101.369C686.37 101.567 686.225 101.811 686.147 102.08C686.069 102.349 686.061 102.633 686.123 102.907C686.144 102.98 686.185 103.045 686.242 103.096C686.299 103.146 686.369 103.179 686.444 103.192C686.519 103.204 686.596 103.194 686.666 103.164C686.735 103.134 686.795 103.085 686.838 103.022C687.125 102.64 687.305 102.189 687.361 101.715C687.358 101.624 687.33 101.536 687.28 101.461C687.229 101.386 687.158 101.326 687.075 101.29C686.992 101.254 686.9 101.242 686.81 101.256C686.721 101.27 686.637 101.309 686.569 101.369Z" fill="#DBDBDB"/>
<path d="M687.855 105.007C687.839 104.935 687.806 104.868 687.76 104.811C687.713 104.754 687.654 104.708 687.587 104.678C687.52 104.647 687.447 104.633 687.373 104.635C687.3 104.638 687.228 104.657 687.163 104.692C686.97 104.801 686.817 104.968 686.725 105.169C686.659 105.351 686.622 105.543 686.617 105.738C686.617 106.13 686.894 106.621 687.347 106.437C687.461 106.37 687.56 106.281 687.637 106.173C687.714 106.066 687.767 105.944 687.793 105.814C687.89 105.557 687.912 105.277 687.855 105.007Z" fill="#DBDBDB"/>
<path d="M685.616 107.418C685.616 107.336 685.592 107.255 685.547 107.185C685.502 107.116 685.438 107.061 685.362 107.026C685.287 106.992 685.203 106.981 685.121 106.993C685.039 107.005 684.963 107.041 684.901 107.096C684.753 107.237 684.643 107.413 684.58 107.607C684.517 107.802 684.503 108.009 684.539 108.21C684.559 108.283 684.596 108.349 684.648 108.403C684.7 108.456 684.765 108.496 684.837 108.518C684.908 108.539 684.984 108.542 685.058 108.526C685.131 108.51 685.198 108.475 685.254 108.425C685.491 108.144 685.62 107.787 685.616 107.418Z" fill="#DBDBDB"/>
<path d="M686.033 109.234C685.944 109.205 685.848 109.206 685.76 109.238C685.672 109.27 685.597 109.331 685.548 109.411C685.484 109.517 685.46 109.642 685.479 109.764C685.495 109.854 685.538 109.938 685.602 110.003C685.65 110.062 685.715 110.103 685.789 110.121C685.863 110.139 685.94 110.133 686.01 110.103C686.053 110.084 686.094 110.061 686.133 110.033C686.192 109.988 686.24 109.93 686.275 109.863C686.309 109.797 686.329 109.724 686.332 109.649C686.336 109.556 686.308 109.465 686.254 109.39C686.2 109.315 686.122 109.26 686.033 109.234Z" fill="#DBDBDB"/>
<path d="M696.312 85.1204C696.222 85.0931 696.125 85.0955 696.037 85.1274C695.948 85.1592 695.872 85.2188 695.82 85.2972C695.759 85.4072 695.735 85.5337 695.751 85.6584C695.768 85.7475 695.814 85.8285 695.882 85.889C695.929 85.948 695.995 85.9898 696.068 86.0078C696.142 86.0259 696.219 86.0192 696.289 85.989L696.404 85.9275C696.465 85.8829 696.514 85.8251 696.549 85.7585C696.583 85.6919 696.602 85.6182 696.604 85.5431C696.607 85.4506 696.581 85.3596 696.528 85.2834C696.475 85.2073 696.4 85.1501 696.312 85.1204Z" fill="#DBDBDB"/>
<path d="M718.513 82.2379C724.947 81.5692 729.743 89.6246 733.886 102.223C738.029 114.821 737.606 121.954 737.061 124.022C736.515 126.089 734.255 130.455 729.797 130.94C725.339 131.424 722.026 128.042 719.635 126.112C717.245 124.183 712.372 123.307 711.365 118.895C710.358 114.483 712.133 99.6786 712.418 96.9729C712.702 94.2673 712.81 82.8374 718.513 82.2379Z" fill="#DBDBDB"/>
<path d="M713.413 120.04C714.574 122.676 719.17 122.915 720.584 124.513C721.999 126.112 726.034 129.41 729.163 129.594C732.291 129.779 734.62 126.228 735.412 124.39C735.996 123.045 736.25 118.549 735.035 111.792C734.523 108.938 733.85 106.116 733.021 103.337C732.329 100.991 731.515 98.6817 730.585 96.4192C727.595 89.1709 724.151 84.8126 721.745 83.9979C713.72 81.3076 714.758 93.2217 713.905 98.2794C713.62 99.9627 713.344 102.63 713.136 105.535C713.029 107.173 712.936 108.894 712.883 110.562C712.744 114.851 712.852 118.795 713.413 120.04Z" fill="#EBEBEB"/>
<path d="M715.343 100.648C715.258 100.565 715.143 100.52 715.024 100.52C714.906 100.52 714.791 100.565 714.705 100.648C714.252 101.086 713.937 102.792 714.921 102.838C715.905 102.884 715.805 101.117 715.343 100.648Z" fill="#DBDBDB"/>
<path d="M717.065 102.656C717.001 102.592 716.914 102.557 716.823 102.557C716.733 102.557 716.646 102.592 716.581 102.656C716.378 102.9 716.244 103.194 716.194 103.508C716.144 103.822 716.179 104.143 716.297 104.439C716.35 104.541 716.433 104.625 716.534 104.681C716.636 104.737 716.751 104.762 716.866 104.753C716.982 104.744 717.092 104.702 717.183 104.631C717.274 104.56 717.343 104.464 717.38 104.354C717.484 104.069 717.509 103.761 717.454 103.462C717.398 103.163 717.264 102.885 717.065 102.656Z" fill="#DBDBDB"/>
<path d="M714.756 104.612C714.095 104.873 714.064 106.08 714.356 106.603C714.415 106.707 714.502 106.792 714.607 106.849C714.713 106.905 714.832 106.93 714.952 106.922C715.071 106.913 715.185 106.87 715.281 106.799C715.377 106.727 715.451 106.63 715.494 106.518C715.624 106.065 715.586 104.258 714.756 104.612Z" fill="#DBDBDB"/>
<path d="M716.793 107.696C716.751 107.619 716.69 107.554 716.615 107.507C716.541 107.46 716.456 107.433 716.368 107.428C716.28 107.424 716.192 107.442 716.113 107.481C716.034 107.519 715.967 107.578 715.917 107.65C715.792 107.823 715.715 108.025 715.694 108.237C715.672 108.449 715.707 108.663 715.794 108.857C715.842 108.944 715.912 109.017 715.996 109.069C716.081 109.121 716.177 109.151 716.277 109.156C716.376 109.161 716.475 109.14 716.564 109.096C716.653 109.051 716.729 108.985 716.785 108.903C716.89 108.72 716.946 108.512 716.947 108.301C716.949 108.089 716.896 107.881 716.793 107.696Z" fill="#DBDBDB"/>
<path d="M714.755 109.862C714.664 109.772 714.541 109.721 714.413 109.721C714.284 109.721 714.161 109.772 714.07 109.862C713.986 109.948 713.92 110.05 713.877 110.162C713.834 110.275 713.815 110.395 713.822 110.516C713.828 110.636 713.86 110.753 713.915 110.861C713.969 110.968 714.046 111.062 714.14 111.138C714.229 111.198 714.335 111.227 714.442 111.22C714.549 111.213 714.651 111.171 714.732 111.1C714.883 110.931 714.969 110.713 714.974 110.485C714.978 110.258 714.9 110.037 714.755 109.862Z" fill="#DBDBDB"/>
<path d="M715.523 112.3C715.461 112.262 715.389 112.242 715.316 112.242C715.243 112.242 715.171 112.262 715.108 112.3C715.027 112.348 714.962 112.418 714.922 112.504C714.883 112.589 714.87 112.684 714.886 112.777C714.906 112.869 714.956 112.953 715.028 113.014C715.1 113.075 715.191 113.11 715.285 113.115C715.369 113.119 715.452 113.099 715.524 113.057C715.597 113.014 715.655 112.952 715.693 112.877C715.741 112.777 715.751 112.662 715.72 112.556C715.688 112.449 715.618 112.358 715.523 112.3Z" fill="#DBDBDB"/>
<path d="M717.327 97.9895C717.299 97.9396 717.26 97.8965 717.213 97.8633C717.166 97.8301 717.113 97.8076 717.056 97.7973C717 97.7871 716.942 97.7893 716.886 97.8039C716.831 97.8185 716.779 97.8451 716.735 97.8819C716.515 98.172 716.36 98.5061 716.28 98.8616C716.2 99.2171 716.198 99.5855 716.274 99.9419C716.307 100.096 716.396 100.233 716.523 100.327C716.651 100.421 716.808 100.464 716.966 100.449C717.123 100.436 717.27 100.367 717.381 100.254C717.491 100.141 717.556 99.9919 717.565 99.8342C717.697 99.2101 717.613 98.5598 717.327 97.9895Z" fill="#DBDBDB"/>
<path d="M715.795 95.9898C715.752 95.91 715.68 95.8501 715.594 95.8228C715.508 95.7955 715.414 95.803 715.334 95.8438C715.108 95.9837 714.92 96.1766 714.786 96.4057C714.652 96.6348 714.576 96.8931 714.565 97.1582C714.496 97.6271 714.48 98.4034 715.057 98.5571C715.633 98.7109 715.879 97.996 715.941 97.5425C716.074 97.0237 716.022 96.4747 715.795 95.9898Z" fill="#DBDBDB"/>
<path d="M717.83 95.1052C717.836 94.7999 717.733 94.5024 717.538 94.2674C717.457 94.1776 717.344 94.1232 717.223 94.1161C717.102 94.1089 716.983 94.1494 716.892 94.229C716.672 94.4432 716.539 94.7302 716.515 95.0361C716.458 95.328 716.458 95.6281 716.515 95.92C716.546 96.0506 716.618 96.1677 716.721 96.2539C716.824 96.3402 716.951 96.391 717.085 96.3988C717.219 96.4065 717.352 96.3709 717.464 96.2971C717.576 96.2233 717.661 96.1153 717.707 95.9892C717.805 95.7054 717.847 95.4051 717.83 95.1052Z" fill="#DBDBDB"/>
<path d="M716.386 91.6857C716.372 91.6265 716.342 91.572 716.301 91.5273C716.26 91.4827 716.207 91.4494 716.149 91.4309C716.091 91.4123 716.03 91.4091 715.97 91.4214C715.91 91.4337 715.855 91.4612 715.809 91.5013C715.586 91.6807 715.426 91.9262 715.351 92.2024C715.277 92.4786 715.292 92.7714 715.394 93.0386C715.437 93.1195 715.499 93.1882 715.576 93.2378C715.653 93.2874 715.741 93.3163 715.832 93.3217C715.924 93.3271 716.015 93.3089 716.097 93.2687C716.179 93.2285 716.249 93.1678 716.301 93.0924C716.42 92.8794 716.489 92.6423 716.504 92.3987C716.519 92.1552 716.478 91.9115 716.386 91.6857Z" fill="#DBDBDB"/>
<path d="M718.598 106.112C718.606 106.041 718.606 105.969 718.598 105.897C718.583 105.817 718.546 105.742 718.491 105.682C718.436 105.588 718.348 105.518 718.243 105.487C718.139 105.456 718.027 105.465 717.93 105.513C717.736 105.615 717.59 105.789 717.522 105.997C717.445 106.25 717.458 106.522 717.561 106.766C717.612 106.864 717.691 106.945 717.788 106.998C717.885 107.052 717.996 107.075 718.106 107.065C718.214 107.054 718.317 107.012 718.402 106.946C718.488 106.879 718.553 106.79 718.591 106.689C718.634 106.499 718.637 106.303 718.598 106.112Z" fill="#DBDBDB"/>
<path d="M719.303 101.179C719.219 100.895 719.003 100.41 718.619 100.602C717.997 100.887 717.935 102.017 718.196 102.547C718.253 102.647 718.336 102.728 718.437 102.782C718.537 102.835 718.651 102.859 718.765 102.85C718.879 102.841 718.988 102.8 719.079 102.732C719.17 102.663 719.24 102.57 719.28 102.463C719.418 102.047 719.426 101.599 719.303 101.179Z" fill="#DBDBDB"/>
<path d="M719.203 97.2105C719.126 96.9338 718.834 96.6417 718.534 96.7724C718.449 96.8016 718.372 96.8518 718.311 96.9184C718.203 97.0337 718.138 97.1831 718.127 97.3412C718.103 97.4451 718.104 97.553 718.127 97.6568C718.151 97.7606 718.199 97.8577 718.265 97.9407C718.315 97.9918 718.375 98.0325 718.441 98.0602C718.507 98.0879 718.578 98.1022 718.65 98.1022C718.721 98.1022 718.792 98.0879 718.858 98.0602C718.924 98.0325 718.984 97.9918 719.034 97.9407C719.157 97.8234 719.231 97.6643 719.241 97.4949C719.238 97.3991 719.225 97.3038 719.203 97.2105Z" fill="#DBDBDB"/>
<path d="M718.879 91.455C718.879 91.1552 718.625 90.5633 718.226 90.6325C717.826 90.7017 717.588 91.186 717.534 91.5318C717.476 91.7479 717.478 91.9758 717.542 92.1903C717.606 92.4048 717.728 92.5973 717.895 92.7463C717.97 92.7934 718.057 92.8184 718.145 92.8184C718.233 92.8184 718.32 92.7934 718.395 92.7463C718.583 92.5932 718.726 92.393 718.811 92.1661C718.897 91.9392 718.92 91.6938 718.879 91.455Z" fill="#DBDBDB"/>
<path d="M717.526 88.0487C717.471 87.9927 717.4 87.9552 717.323 87.9414C717.246 87.9276 717.166 87.9383 717.095 87.9718C716.869 88.1083 716.686 88.3068 716.569 88.5438C716.452 88.7809 716.405 89.0465 716.434 89.3093C716.429 89.4634 716.479 89.6144 716.575 89.7353C716.67 89.8563 716.806 89.9396 716.957 89.9703C717.108 90.0005 717.265 89.9741 717.398 89.8962C717.532 89.8183 717.632 89.6943 717.679 89.5476C717.758 89.3006 717.785 89.04 717.759 88.7821C717.733 88.5242 717.653 88.2745 717.526 88.0487Z" fill="#DBDBDB"/>
<path d="M717.91 85.8135C717.888 85.709 717.827 85.6165 717.741 85.554C717.654 85.4915 717.547 85.4634 717.441 85.4753C717.328 85.4994 717.224 85.5555 717.141 85.6367C717.011 85.7623 716.934 85.9328 716.926 86.1133C716.923 86.2317 716.962 86.3472 717.037 86.4394C717.111 86.5315 717.216 86.5943 717.332 86.6164C717.448 86.6386 717.569 86.6187 717.672 86.5604C717.775 86.502 717.854 86.4089 717.894 86.2978C717.961 86.1441 717.966 85.9711 717.91 85.8135Z" fill="#DBDBDB"/>
<path d="M716.294 104.193C715.458 104.081 714.665 103.758 713.988 103.256L713.558 102.979C712.952 102.587 712.379 102.147 711.843 101.664L711.767 101.595C711.573 101.411 711.391 101.216 711.221 101.011C710.852 100.581 710.452 100.058 710.076 99.5199C709.991 99.397 709.906 99.2817 709.83 99.1587C709.607 98.8435 709.391 98.5207 709.184 98.2132C709.069 98.0441 708.953 97.875 708.853 97.7059C708.545 97.1546 708.176 96.6391 707.754 96.1686C707.517 96.4074 707.298 96.6644 707.101 96.9373L706.663 97.483L706.378 97.8289C706.225 98.0134 706.063 98.2056 705.902 98.3823C705.711 98.6107 705.508 98.8287 705.295 99.0357C705.068 99.2726 704.809 99.4769 704.526 99.6429C704.439 99.6922 704.341 99.7162 704.241 99.7121C703.388 99.6199 702.389 97.7751 702.435 96.9527C702.465 96.7698 702.542 96.5978 702.658 96.453C702.817 96.2229 702.989 96.0022 703.173 95.792C703.404 95.5307 703.673 95.2386 703.942 94.9542L704.288 94.5852L704.78 94.0779L705.049 93.7858C705.405 93.4436 705.702 93.0434 705.925 92.6021C705.934 92.5203 705.934 92.4379 705.925 92.3561C705.925 92.2408 705.925 92.0794 705.879 91.8949C705.879 91.5414 705.794 91.0802 705.733 90.5421C705.733 90.373 705.733 90.1962 705.679 90.0117C705.625 89.5505 705.564 89.0586 705.51 88.5436C705.51 88.3515 705.471 88.1516 705.448 87.9517C705.379 87.3061 705.31 86.6374 705.248 86.0071L705.202 85.5689C705.202 85.1769 705.133 84.8003 705.11 84.439C705.087 84.0778 705.064 83.7857 705.049 83.5013C704.996 83.0528 705.014 82.5989 705.102 82.1561C705.31 81.6873 707.408 81.2261 709.207 81.0185C710.567 80.8571 711.767 80.834 711.905 81.0185C711.99 81.5109 712.008 82.0125 711.959 82.5097C711.959 82.7557 711.959 83.0324 711.959 83.3245C711.959 83.8395 711.905 84.4006 711.874 85.0001C711.874 85.2 711.874 85.4075 711.836 85.6074C711.836 86.1839 711.767 86.7757 711.728 87.3676C711.728 87.6443 711.69 87.921 711.674 88.1977C711.674 88.6743 711.613 89.1432 711.582 89.5736C711.582 89.8811 711.544 90.1732 711.521 90.4499C711.498 90.7266 711.521 91.0955 711.467 91.3646C711.413 91.6336 711.467 91.8565 711.428 92.041C711.413 92.2174 711.413 92.3949 711.428 92.5713C711.759 93.4173 712.212 94.2099 712.773 94.9234C712.92 95.1233 713.081 95.3154 713.242 95.5076C713.404 95.6997 713.673 95.9918 713.896 96.2147C714.119 96.4377 714.188 96.5145 714.334 96.6529C714.618 96.9296 714.91 97.1986 715.195 97.4215L715.963 98.0595L716.809 98.7513L717.332 99.1817C717.485 99.3124 717.639 99.4354 717.77 99.5584C718.062 99.7857 718.307 100.068 718.492 100.389C718.9 101.641 716.917 104.078 716.294 104.193Z" fill="#A6A6A6"/>
<path d="M711.969 82.584C711.969 82.83 711.969 83.1067 711.969 83.3988C710.816 83.6601 709.617 83.7985 708.487 83.9676L705.843 84.3826C705.605 84.3826 705.374 84.4595 705.144 84.4826C705.144 84.1443 705.097 83.8292 705.082 83.5448L705.928 83.3603C706.742 83.1912 707.565 83.0529 708.387 82.9299C709.572 82.7336 710.769 82.618 711.969 82.584Z" fill="#C7C7C7"/>
<path d="M711.86 85.0742C711.86 85.2741 711.86 85.4816 711.821 85.6814C710.968 85.766 710.115 85.7967 709.269 85.8582C707.947 85.9428 706.587 86.0888 705.257 86.0504L705.211 85.6123C706.433 85.4124 707.686 85.3586 708.908 85.2741C709.884 85.2126 710.868 85.1127 711.86 85.0742Z" fill="#C7C7C7"/>
<path d="M711.682 87.4434C711.682 87.7201 711.644 87.9968 711.629 88.2735C709.59 88.5323 707.534 88.6377 705.479 88.5886C705.479 88.3965 705.441 88.1966 705.418 87.9968C707.487 87.6407 709.583 87.4556 711.682 87.4434Z" fill="#C7C7C7"/>
<path d="M711.564 89.6469C711.564 89.9543 711.525 90.2464 711.502 90.5231C709.584 90.6756 707.658 90.6961 705.737 90.5846C705.737 90.4155 705.737 90.2387 705.684 90.0542C707.631 89.7746 709.596 89.6384 711.564 89.6469Z" fill="#C7C7C7"/>
<path d="M711.452 91.4395C711.452 91.7085 711.452 91.9314 711.413 92.1159C710.683 92.185 709.945 92.2235 709.223 92.2696C708.123 92.3388 707.024 92.4387 705.933 92.4003C705.933 92.285 705.933 92.1235 705.887 91.9391C706.871 91.7777 707.862 91.7238 708.861 91.647C709.715 91.5778 710.583 91.4933 711.452 91.4395Z" fill="#C7C7C7"/>
<path d="M705.32 99.0803C705.093 99.3172 704.835 99.5215 704.552 99.6875C704.146 99.2061 703.781 98.6919 703.46 98.1502C703.149 97.6401 702.891 97.0992 702.691 96.536C702.85 96.3059 703.022 96.0852 703.206 95.875C703.537 96.4899 703.875 97.1048 704.244 97.689C704.577 98.1721 704.936 98.6365 705.32 99.0803Z" fill="#C7C7C7"/>
<path d="M706.401 97.8726C706.247 98.0571 706.086 98.2493 705.925 98.426C705.196 97.3251 704.537 96.1802 703.949 94.9979L704.295 94.6289C704.902 95.5743 705.732 96.8349 706.401 97.8726Z" fill="#C7C7C7"/>
<path d="M707.122 96.9815L706.684 97.5273C706.399 97.0738 706.138 96.5895 705.877 96.1514C705.485 95.4904 705.108 94.8063 704.785 94.1222L705.054 93.8301C705.485 94.5142 705.923 95.1906 706.361 95.867C706.599 96.2359 706.868 96.6049 707.122 96.9815Z" fill="#C7C7C7"/>
<path d="M713.222 95.5822C711.981 96.604 710.636 97.4928 709.209 98.2341C709.094 98.065 708.979 97.8959 708.879 97.7268C709.763 97.0119 711.531 95.759 712.722 94.998C712.899 95.1979 713.06 95.3901 713.222 95.5822Z" fill="#C7C7C7"/>
<path d="M714.31 96.7272C712.972 97.7613 711.565 98.7013 710.098 99.5405C710.013 99.4175 709.928 99.3022 709.852 99.1792C710.958 98.4105 712.673 97.1269 713.872 96.2891C714.02 96.4325 714.166 96.5786 714.31 96.7272Z" fill="#C7C7C7"/>
<path d="M715.908 98.1575C714.664 99.4569 713.283 100.617 711.788 101.616C711.595 101.433 711.413 101.237 711.242 101.032C712.488 99.7923 713.799 98.6198 715.17 97.5195L715.908 98.1575Z" fill="#C7C7C7"/>
<path d="M717.713 99.6559C716.672 101.046 715.422 102.267 714.009 103.276L713.578 103C714.239 102.346 714.923 101.724 715.584 101.063C716.245 100.402 716.714 99.8712 717.275 99.2793C717.429 99.41 717.583 99.533 717.713 99.6559Z" fill="#C7C7C7"/>
<path d="M728.05 59.7637H689.879V62.6615H728.05V59.7637Z" fill="#C7C7C7"/>
<path d="M719.744 64.8828H698.184V67.7806H719.744V64.8828Z" fill="#C7C7C7"/>
<path d="M406.496 339.224C497.432 339.224 571.151 332.624 571.151 324.483C571.151 316.342 497.432 309.742 406.496 309.742C315.559 309.742 241.84 316.342 241.84 324.483C241.84 332.624 315.559 339.224 406.496 339.224Z" fill="#EBEBEB"/>
<path d="M192 275.707H343.949L343.949 32.4774L192 32.4774L192 275.707Z" fill="#C7C7C7"/>
<path d="M199.749 100.096L336.211 100.096V41.2026L199.749 41.2026V100.096Z" fill="#A6A6A6"/>
<path d="M199.749 169.598L336.211 169.598V110.705L199.749 110.705V169.598Z" fill="#A6A6A6"/>
<path d="M199.749 239.094L336.211 239.094V180.201H199.749V239.094Z" fill="#A6A6A6"/>
<path d="M248.596 115.104H234.617V169.599H248.596V115.104Z" fill="white"/>
<path d="M248.596 133.088H234.617V144.083H248.596V133.088Z" fill="#407BFF"/>
<path d="M248.596 148.676H234.617V155.069H248.596V148.676Z" fill="#407BFF"/>
<path d="M232.725 115.104H218.746V169.599H232.725V115.104Z" fill="white"/>
<path d="M232.725 133.088H218.746V144.083H232.725V133.088Z" fill="#455A64"/>
<path d="M232.725 148.676H218.746V155.069H232.725V148.676Z" fill="#455A64"/>
<path d="M216.854 115.104H202.875V169.599H216.854V115.104Z" fill="white"/>
<path d="M216.854 133.088H202.875V144.083H216.854V133.088Z" fill="#407BFF"/>
<path d="M216.854 148.676H202.875V155.069H216.854V148.676Z" fill="#407BFF"/>
<path d="M202.356 100.102H214.953V79.1407H202.356V100.102Z" fill="white"/>
<path d="M200.631 79.1328H216.684V75.5673H200.631V79.1328Z" fill="#407BFF"/>
<path d="M203.982 96.6797H213.344V83.7529H203.982V96.6797Z" fill="#455A64"/>
<path d="M202.356 74.752H214.953V53.7911H202.356V74.752Z" fill="white"/>
<path d="M200.631 53.7832H216.684V50.2177H200.631V53.7832Z" fill="#407BFF"/>
<path d="M203.982 71.3184H213.344V58.3916H203.982V71.3184Z" fill="#455A64"/>
<path d="M219.446 100.102H232.043V79.1407H219.446V100.102Z" fill="white"/>
<path d="M217.721 79.1328H233.773V75.5673H217.721V79.1328Z" fill="#407BFF"/>
<path d="M221.064 96.6797H230.426V83.7529H221.064V96.6797Z" fill="#455A64"/>
<path d="M219.446 74.752H232.043V53.7911H219.446V74.752Z" fill="white"/>
<path d="M217.721 53.7832H233.773V50.2177H217.721V53.7832Z" fill="#407BFF"/>
<path d="M221.064 71.3184H230.426V58.3916H221.064V71.3184Z" fill="#455A64"/>
<path d="M236.52 100.102H249.117V79.1407H236.52V100.102Z" fill="white"/>
<path d="M234.791 79.1328H250.844V75.5673H234.791V79.1328Z" fill="#407BFF"/>
<path d="M238.135 96.6797H247.496V83.7529H238.135V96.6797Z" fill="#455A64"/>
<path d="M236.52 74.752H249.117V53.7911H236.52V74.752Z" fill="white"/>
<path d="M234.791 53.7832H250.844V50.2177H234.791V53.7832Z" fill="#407BFF"/>
<path d="M238.135 71.3184H247.496V58.3916H238.135V71.3184Z" fill="#455A64"/>
<path d="M253.598 100.102H266.195V79.1407H253.598V100.102Z" fill="white"/>
<path d="M251.873 79.1328H267.926V75.5673H251.873V79.1328Z" fill="#407BFF"/>
<path d="M255.217 96.6797H264.578V83.7529H255.217V96.6797Z" fill="#455A64"/>
<path d="M253.598 74.752H266.195V53.7911H253.598V74.752Z" fill="white"/>
<path d="M251.873 53.7832H267.926V50.2177H251.873V53.7832Z" fill="#407BFF"/>
<path d="M255.217 71.3184H264.578V58.3916H255.217V71.3184Z" fill="#455A64"/>
<path d="M333.473 169.598H318.944V154.071C318.944 152.965 319.383 151.905 320.165 151.123C320.947 150.341 322.008 149.901 323.114 149.901H329.302C330.408 149.901 331.469 150.341 332.251 151.123C333.033 151.905 333.473 152.965 333.473 154.071V169.598Z" fill="white"/>
<path d="M322.011 149.957H330.43V147.947H322.011V149.957Z" fill="white"/>
<path d="M319.871 147.947H332.578V145.803H319.871V147.947Z" fill="#407BFF"/>
<path d="M321.292 165.303H333.488V154.669H321.292V165.303Z" fill="#455A64"/>
<path d="M317.711 169.598H303.182V154.071C303.182 152.965 303.621 151.905 304.403 151.123C305.186 150.341 306.246 149.901 307.352 149.901H313.541C314.647 149.901 315.707 150.341 316.49 151.123C317.272 151.905 317.711 152.965 317.711 154.071V169.598Z" fill="white"/>
<path d="M306.237 149.957H314.656V147.947H306.237V149.957Z" fill="white"/>
<path d="M304.094 147.947H316.801V145.803H304.094V147.947Z" fill="#407BFF"/>
<path d="M305.503 165.303H317.699V154.669H305.503V165.303Z" fill="#455A64"/>
<path d="M301.93 169.598H287.401V154.071C287.401 152.967 287.839 151.907 288.619 151.125C289.4 150.344 290.458 149.903 291.563 149.901H297.752C298.858 149.901 299.918 150.341 300.7 151.123C301.482 151.905 301.922 152.965 301.922 154.071V169.598H301.93Z" fill="white"/>
<path d="M290.46 149.957H298.879V147.947H290.46V149.957Z" fill="white"/>
<path d="M288.313 147.947H301.02V145.803H288.313V147.947Z" fill="#407BFF"/>
<path d="M289.733 165.303H301.93V154.669H289.733V165.303Z" fill="#455A64"/>
<path d="M286.16 169.598H271.631V154.071C271.631 152.965 272.071 151.905 272.853 151.123C273.635 150.341 274.695 149.901 275.801 149.901H282.006C283.112 149.901 284.172 150.341 284.954 151.123C285.736 151.905 286.176 152.965 286.176 154.071V169.598H286.16Z" fill="white"/>
<path d="M274.687 149.957H283.105V147.947H274.687V149.957Z" fill="white"/>
<path d="M272.547 147.947H285.254V145.803H272.547V147.947Z" fill="#407BFF"/>
<path d="M273.956 165.303H286.152V154.669H273.956V165.303Z" fill="#455A64"/>
<path d="M270.375 169.598H255.846V154.071C255.846 152.965 256.285 151.905 257.068 151.123C257.85 150.341 258.91 149.901 260.016 149.901H266.205C267.311 149.901 268.372 150.341 269.154 151.123C269.936 151.905 270.375 152.965 270.375 154.071V169.598Z" fill="white"/>
<path d="M258.909 149.957H267.328V147.947H258.909V149.957Z" fill="white"/>
<path d="M256.766 147.947H269.473V145.803H256.766V147.947Z" fill="#407BFF"/>
<path d="M258.179 165.303H270.375V154.669H258.179V165.303Z" fill="#455A64"/>
<path d="M333.473 144.986H318.944V129.46C318.944 128.354 319.383 127.293 320.165 126.511C320.947 125.729 322.008 125.29 323.114 125.29H329.302C330.408 125.29 331.469 125.729 332.251 126.511C333.033 127.293 333.473 128.354 333.473 129.46V144.986Z" fill="white"/>
<path d="M322.011 125.344H330.43V123.333H322.011V125.344Z" fill="white"/>
<path d="M319.871 123.342H332.578V121.198H319.871V123.342Z" fill="#407BFF"/>
<path d="M321.292 140.697H333.488V130.064H321.292V140.697Z" fill="#455A64"/>
<path d="M317.711 144.986H303.182V129.46C303.182 128.354 303.621 127.293 304.403 126.511C305.186 125.729 306.246 125.29 307.352 125.29H313.541C314.647 125.29 315.707 125.729 316.49 126.511C317.272 127.293 317.711 128.354 317.711 129.46V144.986Z" fill="white"/>
<path d="M306.237 125.344H314.656V123.333H306.237V125.344Z" fill="white"/>
<path d="M304.094 123.342H316.801V121.198H304.094V123.342Z" fill="#407BFF"/>
<path d="M305.503 140.697H317.699V130.064H305.503V140.697Z" fill="#455A64"/>
<path d="M301.93 144.986H287.401V129.46C287.401 128.354 287.84 127.293 288.622 126.511C289.404 125.729 290.465 125.29 291.571 125.29H297.76C298.866 125.29 299.926 125.729 300.708 126.511C301.49 127.293 301.93 128.354 301.93 129.46V144.986Z" fill="white"/>
<path d="M290.46 125.344H298.879V123.333H290.46V125.344Z" fill="white"/>
<path d="M288.313 123.342H301.02V121.198H288.313V123.342Z" fill="#407BFF"/>
<path d="M289.733 140.697H301.93V130.064H289.733V140.697Z" fill="#455A64"/>
<path d="M286.16 144.986H271.631V129.46C271.631 128.354 272.071 127.293 272.853 126.511C273.635 125.729 274.695 125.29 275.801 125.29H282.006C283.112 125.29 284.172 125.729 284.954 126.511C285.736 127.293 286.176 128.354 286.176 129.46V144.986H286.16Z" fill="white"/>
<path d="M274.687 125.344H283.105V123.333H274.687V125.344Z" fill="white"/>
<path d="M272.547 123.342H285.254V121.198H272.547V123.342Z" fill="#407BFF"/>
<path d="M273.956 140.697H286.152V130.064H273.956V140.697Z" fill="#455A64"/>
<path d="M270.375 144.986H255.846V129.46C255.846 128.354 256.285 127.293 257.068 126.511C257.85 125.729 258.91 125.29 260.016 125.29H266.205C267.311 125.29 268.372 125.729 269.154 126.511C269.936 127.293 270.375 128.354 270.375 129.46V144.986Z" fill="white"/>
<path d="M258.909 125.344H267.328V123.333H258.909V125.344Z" fill="white"/>
<path d="M256.766 123.342H269.473V121.198H256.766V123.342Z" fill="#407BFF"/>
<path d="M258.179 140.697H270.375V130.064H258.179V140.697Z" fill="#455A64"/>
<path d="M300.512 238.984H268.752V212.73C268.752 211.585 269.207 210.486 270.017 209.676C270.827 208.866 271.926 208.411 273.072 208.411H296.192C297.338 208.411 298.437 208.866 299.247 209.676C300.057 210.486 300.512 211.585 300.512 212.73V238.984Z" fill="white"/>
<path d="M268.752 208.41H300.512V203.109H268.752V208.41Z" fill="#263238"/>
<path d="M282.61 204.381H286.655C287.618 204.381 288.398 203.6 288.398 202.637V201.326C288.398 200.363 287.618 199.582 286.655 199.582H282.61C281.648 199.582 280.867 200.363 280.867 201.326V202.637C280.867 203.6 281.648 204.381 282.61 204.381Z" fill="#263238"/>
<path d="M270.477 232.277H298.789V218.125H270.477V232.277Z" fill="#455A64"/>
<path d="M267.258 238.984H235.498V212.73C235.498 211.585 235.953 210.486 236.764 209.676C237.574 208.866 238.672 208.411 239.818 208.411H262.938C264.084 208.411 265.183 208.866 265.993 209.676C266.803 210.486 267.258 211.585 267.258 212.73V238.984Z" fill="white"/>
<path d="M235.498 208.41H267.258V203.109H235.498V208.41Z" fill="#263238"/>
<path d="M249.353 204.381H253.397C254.36 204.381 255.141 203.6 255.141 202.637V201.326C255.141 200.363 254.36 199.582 253.397 199.582H249.353C248.39 199.582 247.609 200.363 247.609 201.326V202.637C247.609 203.6 248.39 204.381 249.353 204.381Z" fill="#263238"/>
<path d="M237.22 232.277H265.531V218.125H237.22V232.277Z" fill="#455A64"/>
<path d="M333.707 238.984H301.948V212.73C301.948 211.585 302.403 210.486 303.213 209.676C304.023 208.866 305.121 208.411 306.267 208.411H329.388C330.533 208.411 331.632 208.866 332.442 209.676C333.252 210.486 333.707 211.585 333.707 212.73V238.984Z" fill="white"/>
<path d="M301.948 208.41H333.707V203.109H301.948V208.41Z" fill="#263238"/>
<path d="M315.798 204.381H319.842C320.805 204.381 321.586 203.6 321.586 202.637V201.326C321.586 200.363 320.805 199.582 319.842 199.582H315.798C314.835 199.582 314.054 200.363 314.054 201.326V202.637C314.054 203.6 314.835 204.381 315.798 204.381Z" fill="#263238"/>
<path d="M303.665 232.277H331.977V218.125H303.665V232.277Z" fill="#455A64"/>
<path d="M234 238.984H202.241V212.73C202.241 211.585 202.696 210.486 203.506 209.676C204.316 208.866 205.414 208.411 206.56 208.411H229.681C230.826 208.411 231.925 208.866 232.735 209.676C233.545 210.486 234 211.585 234 212.73V238.984Z" fill="white"/>
<path d="M202.241 208.41H234V203.109H202.241V208.41Z" fill="#263238"/>
<path d="M216.099 204.381H220.143C221.106 204.381 221.887 203.6 221.887 202.637V201.326C221.887 200.363 221.106 199.582 220.143 199.582H216.099C215.136 199.582 214.355 200.363 214.355 201.326V202.637C214.355 203.6 215.136 204.381 216.099 204.381Z" fill="#263238"/>
<path d="M203.966 232.277H232.277V218.125H203.966V232.277Z" fill="#455A64"/>
<path d="M270.96 100.102H289.164V76.549H270.96V100.102Z" fill="white"/>
<path d="M270.953 76.5505H289.165L285.671 71.7441H274.448L270.953 76.5505Z" fill="white"/>
<path d="M272.369 71.7441H287.746V67.0713H272.369V71.7441Z" fill="#455A64"/>
<path d="M273.559 92.375H289.164V81.7885H273.559V92.375Z" fill="#407BFF"/>
<path d="M291.745 100.102H309.949V76.549H291.745V100.102Z" fill="white"/>
<path d="M291.754 76.5505H309.958L306.463 71.7441H295.241L291.754 76.5505Z" fill="white"/>
<path d="M293.166 71.7441H308.543V67.0713H293.166V71.7441Z" fill="#455A64"/>
<path d="M294.352 92.375H309.957V81.7885H294.352V92.375Z" fill="#407BFF"/>
<path d="M312.542 100.102H330.746V76.549H312.542V100.102Z" fill="white"/>
<path d="M312.551 76.5505H330.755L327.26 71.7441H316.038L312.551 76.5505Z" fill="white"/>
<path d="M313.963 71.7441H329.34V67.0713H313.963V71.7441Z" fill="#455A64"/>
<path d="M315.149 92.375H330.754V81.7885H315.149V92.375Z" fill="#407BFF"/>
<path d="M236.863 275.705L279.272 275.517L321.681 275.446L406.498 275.312L491.315 275.446L533.724 275.517L576.133 275.705L533.724 275.894L491.315 275.964L406.498 276.098L321.681 275.964L279.272 275.894L236.863 275.705Z" fill="#263238"/>
<path d="M401.761 78.0934C395.059 81.2559 394.414 90.4414 396.959 98.2001C398.77 103.805 394.016 104.1 392.905 111.996C392.513 114.837 392.799 117.732 393.74 120.442C394.68 123.152 396.248 125.601 398.316 127.59C400.383 129.579 402.892 131.05 405.636 131.884C408.381 132.719 411.284 132.892 414.109 132.39C425.935 130.202 414.486 105.746 418.828 97.2191C423.171 88.6921 408.964 74.7046 401.761 78.0934Z" fill="#263238"/>
<path d="M424.277 271.264L431.899 271.819C430.849 277.89 429.841 287.467 429.841 287.467H423.797C423.797 287.467 424.503 275.414 424.277 271.264Z" fill="#A26760"/>
<path d="M384.603 271.264L392.149 271.819C390.448 277.89 388.438 287.467 388.438 287.467H382.395C382.395 287.467 384.391 275.414 384.603 271.264Z" fill="#A26760"/>
<path d="M417.28 293.464C422.534 293.464 422.157 293.381 425.121 293.285C427.652 293.189 428.235 293.512 430.266 293.464C431.967 293.429 432.022 291.803 431.638 289.937C431.494 289.217 431.267 288.38 431.061 287.344C431.003 287.058 430.846 286.8 430.618 286.616C430.39 286.432 430.106 286.333 429.813 286.336H423.673C423.447 286.337 423.224 286.39 423.022 286.491C422.82 286.592 422.643 286.739 422.507 286.919C421.777 287.877 420.859 288.675 419.809 289.265C418.759 289.855 417.599 290.224 416.402 290.349C413.534 290.726 415.174 293.464 417.28 293.464Z" fill="#407BFF"/>
<path d="M376.015 293.464C381.269 293.464 380.899 293.381 383.856 293.285C386.387 293.189 386.97 293.512 389.001 293.464C390.702 293.429 390.757 291.803 390.373 289.938C390.222 289.217 390.002 288.38 389.79 287.344C389.733 287.058 389.578 286.8 389.351 286.615C389.125 286.431 388.84 286.332 388.548 286.336H382.374C382.149 286.336 381.926 286.388 381.725 286.49C381.524 286.591 381.349 286.738 381.215 286.919C380.484 287.876 379.565 288.674 378.515 289.263C377.466 289.853 376.307 290.222 375.109 290.349C372.283 290.726 373.922 293.464 376.015 293.464Z" fill="#407BFF"/>
<path d="M392.493 152.764C392.493 152.764 387.691 189.904 388.13 213.488C386.319 235.626 383.41 277.972 383.41 277.972C383.499 279.104 389.468 278.658 390.531 277.972C390.531 277.972 404.203 249.394 401.98 213.488C417.168 176.033 416.263 152.764 416.263 152.764H392.493Z" fill="#263238"/>
<path opacity="0.2" d="M412.034 182.758C410.854 187.594 409.338 192.959 407.403 198.797C406.841 187.039 403.658 171.295 403.555 170.76L412.034 182.758Z" fill="black"/>
<path d="M398.965 152.764C398.965 152.764 409.824 194.678 414.125 215.265C418.646 236.881 424.978 263.614 423.729 277.979C424.937 278.665 429.259 278.734 431.701 277.979C431.701 277.979 441.003 237.032 429.176 216.239C433.457 165.036 419.908 152.784 419.908 152.784L398.965 152.764Z" fill="#263238"/>
<path d="M423.198 274.991C423.15 275.982 423.029 276.968 422.834 277.941C422.817 278.021 422.816 278.105 422.832 278.186C422.847 278.268 422.88 278.345 422.927 278.413C422.974 278.481 423.034 278.539 423.105 278.583C423.175 278.627 423.253 278.656 423.335 278.668C426.237 279.134 430.483 278.455 431.835 278.215C431.96 278.19 432.075 278.129 432.166 278.038C432.256 277.948 432.318 277.833 432.342 277.707L432.85 274.963C432.863 274.878 432.857 274.791 432.833 274.708C432.809 274.624 432.767 274.548 432.71 274.482C432.653 274.417 432.583 274.365 432.504 274.33C432.425 274.294 432.34 274.276 432.253 274.277L423.815 274.442C423.664 274.444 423.518 274.501 423.405 274.601C423.291 274.702 423.218 274.84 423.198 274.991Z" fill="#263238"/>
<path opacity="0.1" d="M423.198 274.991C423.15 275.982 423.029 276.968 422.834 277.941C422.817 278.021 422.816 278.105 422.832 278.186C422.847 278.268 422.88 278.345 422.927 278.413C422.974 278.481 423.034 278.539 423.105 278.583C423.175 278.627 423.253 278.656 423.335 278.668C426.237 279.134 430.483 278.455 431.835 278.215C431.96 278.19 432.075 278.129 432.166 278.038C432.256 277.948 432.318 277.833 432.342 277.707L432.85 274.963C432.863 274.878 432.857 274.791 432.833 274.708C432.809 274.624 432.767 274.548 432.71 274.482C432.653 274.417 432.583 274.365 432.504 274.33C432.425 274.294 432.34 274.276 432.253 274.277L423.815 274.442C423.664 274.444 423.518 274.501 423.405 274.601C423.291 274.702 423.218 274.84 423.198 274.991Z" fill="white"/>
<path d="M382.834 274.859C382.752 275.628 382.601 277 382.457 278.008C382.444 278.086 382.447 278.167 382.466 278.244C382.485 278.321 382.519 278.394 382.566 278.458C382.614 278.522 382.673 278.575 382.742 278.616C382.81 278.657 382.886 278.683 382.964 278.694C385.582 278.911 388.214 278.881 390.826 278.605C390.955 278.593 391.077 278.542 391.177 278.458C391.276 278.375 391.347 278.263 391.382 278.138L392.116 275.394C392.141 275.308 392.146 275.217 392.13 275.128C392.115 275.039 392.079 274.955 392.026 274.882C391.973 274.81 391.904 274.75 391.825 274.708C391.745 274.666 391.657 274.642 391.567 274.64L383.486 274.317C383.329 274.309 383.175 274.36 383.054 274.461C382.933 274.561 382.855 274.703 382.834 274.859Z" fill="#263238"/>
<path opacity="0.1" d="M382.834 274.859C382.752 275.628 382.601 277 382.457 278.008C382.444 278.086 382.447 278.167 382.466 278.244C382.485 278.321 382.519 278.394 382.566 278.458C382.614 278.522 382.673 278.575 382.742 278.616C382.81 278.657 382.886 278.683 382.964 278.694C385.582 278.911 388.214 278.881 390.826 278.605C390.955 278.593 391.077 278.542 391.177 278.458C391.276 278.375 391.347 278.263 391.382 278.138L392.116 275.394C392.141 275.308 392.146 275.217 392.13 275.128C392.115 275.039 392.079 274.955 392.026 274.882C391.973 274.81 391.904 274.75 391.825 274.708C391.745 274.666 391.657 274.642 391.567 274.64L383.486 274.317C383.329 274.309 383.175 274.36 383.054 274.461C382.933 274.561 382.855 274.703 382.834 274.859Z" fill="white"/>
<path d="M355.615 124.213L356.939 125.859C357.185 126.163 357.5 126.405 357.858 126.563C358.216 126.722 358.606 126.793 358.997 126.771L362.708 126.552C363.439 126.508 364.149 126.29 364.778 125.915C365.407 125.54 365.937 125.02 366.323 124.398L366.817 123.616C364.8 120.735 360.499 119.109 360.499 119.109L359.319 118.512C358.84 118.254 358.277 118.196 357.755 118.351C357.233 118.507 356.794 118.863 356.534 119.342L355.313 121.654C355.109 122.064 355.029 122.524 355.083 122.978C355.136 123.433 355.321 123.862 355.615 124.213Z" fill="#A26760"/>
<path d="M363.023 111.465L356.729 112.802C356.184 112.918 355.836 113.453 355.952 113.998L357.588 121.702C357.703 122.246 358.239 122.594 358.784 122.479L365.078 121.142C365.623 121.026 365.971 120.491 365.855 119.946L364.219 112.242C364.103 111.698 363.568 111.35 363.023 111.465Z" fill="#407BFF"/>
<path d="M343.973 96.7739L343.465 97.2344L345.118 99.0599L345.626 98.5995L343.973 96.7739Z" fill="#407BFF"/>
<path d="M368.105 103.782L365.191 107.176L365.712 107.623L368.625 104.229L368.105 103.782Z" fill="#407BFF"/>
<path d="M347.348 100.506L346.84 100.967L353.995 108.869L354.504 108.409L347.348 100.506Z" fill="#407BFF"/>
<path d="M344.315 108.411L344.09 109.059L352.641 112.037L352.867 111.389L344.315 108.411Z" fill="#407BFF"/>
<path d="M361.494 110.14L357.589 110.97C357.348 111.021 357.194 111.258 357.245 111.499L357.878 114.478C357.929 114.719 358.166 114.873 358.407 114.822L362.312 113.992C362.553 113.941 362.707 113.704 362.655 113.463L362.023 110.484C361.972 110.243 361.735 110.089 361.494 110.14Z" fill="#407BFF"/>
<path d="M361.561 107.9L356.609 108.952C356.382 109 356.238 109.222 356.286 109.448L356.717 111.475C356.765 111.701 356.987 111.845 357.213 111.797L362.165 110.746C362.391 110.698 362.535 110.475 362.487 110.249L362.057 108.223C362.009 107.997 361.787 107.852 361.561 107.9Z" fill="#263238"/>
<path opacity="0.8" d="M364.424 113.196L357.586 114.648L358.755 120.151L365.592 118.699L364.424 113.196Z" fill="white"/>
<path d="M399.856 120.839C399.657 121.176 399.534 121.354 399.376 121.601L398.923 122.287L398.018 123.57C397.407 124.42 396.776 125.237 396.124 126.039C394.821 127.638 393.463 129.195 392.008 130.663C389.078 133.698 385.748 136.32 382.109 138.456C381.176 138.991 380.223 139.492 379.235 139.951L378.487 140.281L378.302 140.363L378.199 140.411L378.035 140.473C377.811 140.564 377.582 140.642 377.349 140.706C376.435 140.981 375.482 141.099 374.529 141.056C372.924 140.968 371.361 140.513 369.96 139.725C368.85 139.111 367.804 138.387 366.839 137.564C365.182 136.109 363.653 134.514 362.27 132.796C361.584 131.973 360.953 131.157 360.322 130.32C360.006 129.901 359.698 129.483 359.396 129.051C359.094 128.619 358.799 128.228 358.449 127.679L367.203 122.904C367.312 123.186 367.504 123.631 367.69 123.995C367.875 124.359 368.074 124.756 368.28 125.134C368.677 125.89 369.115 126.625 369.59 127.336C370.446 128.686 371.454 129.934 372.595 131.054C373.045 131.498 373.544 131.889 374.083 132.22C374.335 132.383 374.614 132.499 374.906 132.563C374.941 132.563 374.906 132.563 374.906 132.563H374.968L375.105 132.501L375.661 132.254C376.395 131.911 377.122 131.527 377.836 131.116C379.27 130.255 380.635 129.282 381.917 128.207C383.222 127.097 384.452 125.903 385.601 124.633C386.76 123.329 387.837 121.954 388.825 120.517C389.312 119.831 389.793 119.076 390.238 118.342C390.465 117.972 390.677 117.608 390.883 117.238L391.171 116.696C391.254 116.531 391.37 116.305 391.398 116.223L399.856 120.839Z" fill="#407BFF"/>
<path opacity="0.7" d="M399.856 120.839C399.657 121.176 399.534 121.354 399.376 121.601L398.923 122.287L398.018 123.57C397.407 124.42 396.776 125.237 396.124 126.039C394.821 127.638 393.463 129.195 392.008 130.663C389.078 133.698 385.748 136.32 382.109 138.456C381.176 138.991 380.223 139.492 379.235 139.951L378.487 140.281L378.302 140.363L378.199 140.411L378.035 140.473C377.811 140.564 377.582 140.642 377.349 140.706C376.435 140.981 375.482 141.099 374.529 141.056C372.924 140.968 371.361 140.513 369.96 139.725C368.85 139.111 367.804 138.387 366.839 137.564C365.182 136.109 363.653 134.514 362.27 132.796C361.584 131.973 360.953 131.157 360.322 130.32C360.006 129.901 359.698 129.483 359.396 129.051C359.094 128.619 358.799 128.228 358.449 127.679L367.203 122.904C367.312 123.186 367.504 123.631 367.69 123.995C367.875 124.359 368.074 124.756 368.28 125.134C368.677 125.89 369.115 126.625 369.59 127.336C370.446 128.686 371.454 129.934 372.595 131.054C373.045 131.498 373.544 131.889 374.083 132.22C374.335 132.383 374.614 132.499 374.906 132.563C374.941 132.563 374.906 132.563 374.906 132.563H374.968L375.105 132.501L375.661 132.254C376.395 131.911 377.122 131.527 377.836 131.116C379.27 130.255 380.635 129.282 381.917 128.207C383.222 127.097 384.452 125.903 385.601 124.633C386.76 123.329 387.837 121.954 388.825 120.517C389.312 119.831 389.793 119.076 390.238 118.342C390.465 117.972 390.677 117.608 390.883 117.238L391.171 116.696C391.254 116.531 391.37 116.305 391.398 116.223L399.856 120.839Z" fill="white"/>
<path d="M389.949 121.344C389.79 125.41 389.852 129.482 390.134 133.541C390.353 138.837 391.506 144.408 392.947 152.983C395.848 154.677 410.515 153.977 419.899 152.763C419.33 145.251 420.263 136.663 425.353 119.76C426.533 115.843 423.899 112.076 419.701 111.678C418.575 111.569 417.382 111.48 416.161 111.425C411.876 111.14 407.576 111.14 403.291 111.425C401.919 111.548 400.438 111.713 399.052 111.891C394.051 112.543 390.1 116.645 389.949 121.344Z" fill="#407BFF"/>
<path d="M392.438 154.789C401.9 155.834 411.449 155.815 420.907 154.734C421.002 154.712 421.092 154.671 421.17 154.612C421.248 154.553 421.312 154.479 421.359 154.393C421.406 154.307 421.434 154.213 421.441 154.115C421.448 154.018 421.434 153.92 421.401 153.828C421.167 153.279 420.934 152.738 420.715 152.189C420.667 152.069 420.581 151.967 420.472 151.9C420.362 151.832 420.233 151.801 420.104 151.811C411.008 152.813 401.829 152.813 392.733 151.811C392.65 151.801 392.566 151.808 392.485 151.831C392.405 151.854 392.331 151.894 392.266 151.947C392.202 152.001 392.149 152.067 392.112 152.141C392.074 152.216 392.052 152.297 392.047 152.381C391.985 152.95 391.93 153.513 391.875 154.082C391.866 154.165 391.873 154.25 391.896 154.331C391.919 154.411 391.958 154.486 392.01 154.552C392.062 154.618 392.127 154.672 392.2 154.713C392.274 154.754 392.354 154.779 392.438 154.789Z" fill="#407BFF"/>
<path d="M415.256 96.9453C414.138 101.061 412.766 108.676 415.455 111.44C415.455 111.44 416.271 115.495 405.165 115.117C396.61 114.829 402.592 111.44 402.592 111.44C407.298 110.336 407.436 106.913 406.866 103.696L415.256 96.9453Z" fill="#A26760"/>
<path d="M415.747 110.795C415.747 110.795 410.876 115.124 409.422 125.558C406.678 145.493 410.856 227.12 410.856 227.12C410.856 227.12 428.692 221.296 435.168 215.719C435.469 210.135 424.685 158.698 425.632 143.936C426.579 129.173 428.41 116.31 426.503 113.532C424.596 110.754 415.747 110.795 415.747 110.795Z" fill="#407BFF"/>
<path opacity="0.7" d="M415.747 110.795C415.747 110.795 410.876 115.124 409.422 125.558C406.678 145.493 410.856 227.12 410.856 227.12C410.856 227.12 428.692 221.296 435.168 215.719C435.469 210.135 424.685 158.698 425.632 143.936C426.579 129.173 428.41 116.31 426.503 113.532C424.596 110.754 415.747 110.795 415.747 110.795Z" fill="white"/>
<path d="M402.936 111.207C395.514 120.736 395.569 182.668 397.716 227.141C391.123 226.345 384.078 212.975 384.078 212.975C384.078 212.975 391.213 165.799 389.841 145.836C388.469 125.874 388.661 118.87 391.899 115.179C395.136 111.488 402.936 111.207 402.936 111.207Z" fill="#407BFF"/>
<path opacity="0.7" d="M402.936 111.207C395.514 120.736 395.569 182.668 397.716 227.141C391.123 226.345 384.078 212.975 384.078 212.975C384.078 212.975 391.213 165.799 389.841 145.836C388.469 125.874 388.661 118.87 391.899 115.179C395.136 111.488 402.936 111.207 402.936 111.207Z" fill="white"/>
<path d="M415.127 110.439C413.851 111.537 407.753 117.025 408.576 139.663C409.194 137.104 412.006 124.975 414.976 119.199C414.372 118.776 413.657 118.537 412.918 118.513C413.72 118.083 414.639 117.922 415.539 118.054C416.376 116.366 418.091 112.819 419.758 110.912C417.967 109.76 415.127 110.439 415.127 110.439Z" fill="white"/>
<path d="M397.502 139.661C397.502 139.661 398.826 118.622 403.189 111.117C401.497 110.731 399.722 111.009 398.229 111.892C397.317 112.989 396.123 117.208 396.123 118.121C396.826 117.946 397.568 118.029 398.215 118.354C397.46 118.499 396.734 118.771 396.068 119.157C395.78 120.645 395.643 128.596 397.502 139.661Z" fill="white"/>
<path d="M418.541 136.775H412.648C412.543 136.768 412.44 136.739 412.346 136.689C412.253 136.639 412.171 136.57 412.106 136.487C412.041 136.403 411.995 136.307 411.97 136.204C411.945 136.101 411.943 135.994 411.962 135.89L412.202 133.091C412.211 132.867 412.301 132.653 412.454 132.489C412.608 132.325 412.816 132.222 413.039 132.199H418.932C419.038 132.207 419.141 132.237 419.234 132.288C419.328 132.338 419.41 132.408 419.474 132.492C419.539 132.576 419.585 132.673 419.61 132.776C419.635 132.879 419.638 132.987 419.618 133.091L419.371 135.89C419.362 136.113 419.274 136.325 419.121 136.487C418.969 136.65 418.763 136.752 418.541 136.775Z" fill="white"/>
<path opacity="0.1" d="M415.094 136.775H413.488L414.723 132.199H416.328L415.094 136.775Z" fill="#407BFF"/>
<path opacity="0.1" d="M417.321 136.775H415.723L416.957 132.199H418.556L417.321 136.775Z" fill="#407BFF"/>
<path d="M415.853 132.679C415.565 132.679 415.352 132.514 415.386 132.301L415.572 131.019C415.61 130.899 415.688 130.797 415.793 130.728C415.898 130.66 416.023 130.629 416.148 130.641C416.436 130.641 416.649 130.806 416.621 131.019L416.436 132.301C416.395 132.421 416.315 132.522 416.21 132.591C416.104 132.659 415.978 132.69 415.853 132.679Z" fill="#407BFF"/>
<path opacity="0.2" d="M411.833 99.6953L406.859 103.688C407.002 104.441 407.078 105.206 407.086 105.972C408.869 105.718 411.435 103.784 411.764 101.932C411.92 101.196 411.943 100.439 411.833 99.6953Z" fill="black"/>
<path d="M418.796 88.6304C417.54 95.3189 417.149 98.1727 413.308 101.376C407.566 106.178 399.677 103.654 398.902 96.835C398.216 90.6953 400.39 80.7894 407.285 78.5805C408.751 78.0446 410.335 77.9123 411.87 78.1974C413.405 78.4826 414.835 79.1749 416.012 80.2018C417.188 81.2287 418.067 82.5527 418.557 84.0353C419.046 85.518 419.129 87.105 418.796 88.6304Z" fill="#A26760"/>
<path d="M406.855 94.152C405.099 94.152 403.631 92.3684 403.562 90.1252C403.521 89.0846 403.82 88.0589 404.413 87.2028C404.666 86.825 405.004 86.5113 405.399 86.2863C405.794 86.0613 406.236 85.9312 406.69 85.9062H406.766C408.522 85.9062 409.99 87.6967 410.059 89.9331C410.12 92.2037 408.687 94.0971 406.931 94.152H406.855ZM406.766 86.2492H406.697C406.297 86.2734 405.908 86.39 405.56 86.59C405.213 86.79 404.916 87.0678 404.694 87.4017C404.131 88.2023 403.854 89.1685 403.905 90.1457C403.967 92.2037 405.346 93.8776 406.924 93.8364C408.501 93.7952 409.777 92.0528 409.716 89.9742C409.654 87.8888 408.364 86.2492 406.766 86.2492Z" fill="white"/>
<path d="M403.739 89.9343C403.702 89.9343 403.666 89.9222 403.636 89.9C403.636 89.9 403.115 89.5158 402.854 89.7902C402.84 89.8102 402.822 89.8269 402.801 89.8392C402.779 89.8515 402.756 89.8591 402.731 89.8615C402.707 89.8639 402.682 89.8611 402.659 89.8531C402.636 89.8452 402.615 89.8324 402.597 89.8155C402.579 89.7987 402.565 89.7782 402.556 89.7555C402.546 89.7328 402.542 89.7083 402.543 89.6838C402.544 89.6593 402.55 89.6353 402.561 89.6134C402.573 89.5915 402.588 89.5723 402.607 89.557C402.978 89.1591 403.554 89.4129 403.842 89.6256C403.878 89.6528 403.903 89.6935 403.909 89.7385C403.915 89.7835 403.904 89.8293 403.876 89.8657C403.859 89.8859 403.839 89.9024 403.815 89.9142C403.791 89.9261 403.766 89.9329 403.739 89.9343Z" fill="white"/>
<path d="M399.701 93.5221C397.945 93.5221 396.477 91.7385 396.409 89.5021C396.34 87.2657 397.74 85.3381 399.53 85.2832H399.605C401.362 85.2832 402.83 87.0668 402.898 89.31C402.967 91.5532 401.567 93.474 399.777 93.5221H399.701ZM399.605 85.6262H399.544C397.938 85.6742 396.69 87.4029 396.752 89.4884C396.813 91.5738 398.124 93.1791 399.701 93.1791H399.763C401.368 93.131 402.617 91.4023 402.555 89.3169C402.493 87.2314 401.176 85.6262 399.605 85.6262Z" fill="white"/>
<path d="M414.125 82.3958C411.381 88.5012 415.942 91.3138 416.622 93.2346C417.575 98.5305 405.508 109.047 409.076 125.518C414.275 116.312 421.424 116.751 422.199 110.556C422.974 104.176 419.777 100.952 423.173 94.8535C426.569 88.755 427.769 81.504 421.801 80.3721C415.833 79.2402 414.125 82.3958 414.125 82.3958Z" fill="#263238"/>
<path d="M417.738 117.938C417.714 117.939 417.689 117.934 417.667 117.925C417.644 117.915 417.624 117.901 417.608 117.883C417.576 117.851 417.559 117.808 417.559 117.763C417.559 117.718 417.576 117.675 417.608 117.643C421.072 114.501 421.333 110.398 421.614 106.049C421.799 103.202 421.991 100.253 423.123 97.4811C425.112 92.6105 426.766 85.7642 424.859 82.5194C424.586 82.0373 424.201 81.6282 423.737 81.3272C423.272 81.0261 422.741 80.842 422.19 80.7907C422.145 80.7839 422.105 80.7602 422.077 80.7245C422.049 80.6888 422.035 80.6438 422.039 80.5986C422.041 80.5756 422.047 80.5533 422.058 80.5329C422.069 80.5126 422.084 80.4947 422.102 80.4805C422.12 80.4663 422.141 80.456 422.163 80.4504C422.185 80.4447 422.209 80.4438 422.231 80.4477C422.835 80.5025 423.417 80.7035 423.926 81.0334C424.435 81.3632 424.857 81.812 425.154 82.341C427.122 85.6956 425.558 92.4321 423.439 97.6114C422.327 100.355 422.142 103.25 421.957 106.07C421.676 110.488 421.408 114.659 417.841 117.896C417.812 117.92 417.776 117.935 417.738 117.938Z" fill="#263238"/>
<path d="M415.691 83.1356C411.17 83.6501 403.178 83.1356 401.34 80.7895C399.501 78.4433 401.895 72.5575 407.212 71.6314C411.534 70.8905 414.127 76.207 414.127 76.207C414.127 76.207 418.243 74.149 421.83 78.8618C425.103 83.1356 417.968 87.9787 415.691 83.1356Z" fill="#263238"/>
<path d="M417.389 91.8825L409.809 90.5791C409.787 90.5759 409.765 90.568 409.746 90.5561C409.727 90.5441 409.71 90.5283 409.697 90.5096C409.684 90.4909 409.675 90.4698 409.671 90.4475C409.667 90.4252 409.667 90.4023 409.672 90.3801C409.68 90.3357 409.706 90.2963 409.743 90.2706C409.78 90.2449 409.826 90.2349 409.871 90.2429L417.417 91.5463C417.456 91.5542 417.491 91.5753 417.516 91.6059C417.541 91.6365 417.554 91.6749 417.554 91.7144C417.554 91.754 417.541 91.7923 417.516 91.823C417.491 91.8536 417.456 91.8746 417.417 91.8825H417.389Z" fill="white"/>
<path d="M408.202 89.7481C408.12 90.3107 407.757 90.7497 407.4 90.7223C407.043 90.6948 406.81 90.2146 406.885 89.6521C406.961 89.0896 407.331 88.6437 407.688 88.6711C408.045 88.6986 408.278 89.1788 408.202 89.7481Z" fill="#263238"/>
<path d="M401.37 89.3429C401.288 89.9054 400.931 90.3444 400.568 90.317C400.204 90.2895 399.978 89.8093 400.06 89.2468C400.142 88.6843 400.499 88.2453 400.862 88.2727C401.226 88.3001 401.452 88.7735 401.37 89.3429Z" fill="#263238"/>
<path d="M401.018 88.3142L399.742 87.8203C399.742 87.8203 400.277 88.9385 401.018 88.3142Z" fill="#263238"/>
<path d="M403.135 90.4141C402.455 91.6699 401.618 92.8341 400.645 93.8784C401.276 94.6261 402.565 94.3997 402.565 94.3997L403.135 90.4141Z" fill="#BA4D3C"/>
<path d="M405.452 96.7257C405.14 96.7568 404.825 96.7568 404.513 96.7257C404.491 96.724 404.47 96.718 404.451 96.708C404.432 96.698 404.416 96.6842 404.402 96.6675C404.389 96.6508 404.379 96.6316 404.373 96.6109C404.367 96.5902 404.366 96.5686 404.369 96.5473C404.375 96.5025 404.399 96.4619 404.435 96.4338C404.47 96.4058 404.515 96.3924 404.561 96.3964C405.269 96.4502 405.981 96.3444 406.644 96.0868C407.306 95.8292 407.902 95.4263 408.389 94.9078C408.404 94.8925 408.422 94.8803 408.442 94.872C408.462 94.8637 408.484 94.8594 408.505 94.8594C408.527 94.8594 408.548 94.8637 408.568 94.872C408.588 94.8803 408.607 94.8925 408.622 94.9078C408.637 94.9231 408.649 94.9413 408.658 94.9613C408.666 94.9813 408.67 95.0028 408.67 95.0244C408.67 95.0461 408.666 95.0675 408.658 95.0876C408.649 95.1076 408.637 95.1257 408.622 95.141C407.797 96.0425 406.668 96.607 405.452 96.7257Z" fill="#263238"/>
<path d="M418.398 95.4024C418.054 95.9556 417.598 96.4307 417.059 96.797C416.52 97.1632 415.911 97.4126 415.27 97.529C413.678 97.7485 413.212 95.8963 413.953 94.1882C414.639 92.6515 416.237 90.6896 417.698 91.2589C419.159 91.8283 419.338 93.9412 418.398 95.4024Z" fill="#A26760"/>
<path d="M410.419 87.2233C410.377 87.2154 410.337 87.1984 410.303 87.1735C410.269 87.1486 410.24 87.1164 410.22 87.0792C410.031 86.7209 409.756 86.4153 409.419 86.1901C409.083 85.965 408.695 85.8273 408.292 85.7895C408.249 85.7898 408.207 85.781 408.168 85.7637C408.129 85.7465 408.094 85.7211 408.066 85.6894C408.037 85.6576 408.016 85.6201 408.003 85.5794C407.99 85.5388 407.985 85.4958 407.99 85.4534C407.999 85.3636 408.041 85.2805 408.109 85.2207C408.176 85.1609 408.264 85.1288 408.354 85.131C408.865 85.1695 409.359 85.3369 409.788 85.6176C410.218 85.8983 410.569 86.2831 410.81 86.7362C410.848 86.8147 410.855 86.9051 410.828 86.9884C410.801 87.0717 410.743 87.1411 410.666 87.1821C410.629 87.2054 410.589 87.2211 410.546 87.2282C410.504 87.2353 410.46 87.2336 410.419 87.2233Z" fill="#263238"/>
<path d="M400.075 84.9388C400.01 84.9455 399.945 84.9317 399.889 84.8993C399.833 84.8668 399.788 84.8175 399.761 84.7582C399.735 84.6988 399.728 84.6327 399.741 84.569C399.754 84.5054 399.787 84.4475 399.835 84.4037C400.177 83.9898 400.61 83.6605 401.1 83.4416C401.591 83.2226 402.125 83.1199 402.661 83.1415C402.703 83.1464 402.744 83.1599 402.781 83.1812C402.817 83.2025 402.849 83.231 402.874 83.2651C402.899 83.2992 402.917 83.3381 402.926 83.3794C402.936 83.4207 402.937 83.4635 402.929 83.5051C402.914 83.5935 402.866 83.6731 402.795 83.7277C402.723 83.7824 402.634 83.8082 402.545 83.8C402.12 83.7895 401.698 83.8761 401.312 84.0532C400.925 84.2303 400.585 84.4933 400.315 84.8222C400.253 84.8901 400.167 84.9318 400.075 84.9388Z" fill="#263238"/>
<path d="M407.846 88.7185L406.57 88.2246C406.57 88.2246 407.105 89.3359 407.846 88.7185Z" fill="#263238"/>
<path d="M419.103 160.07L419.591 158.012C419.68 157.63 419.859 157.275 420.113 156.977C420.367 156.678 420.689 156.445 421.052 156.297L424.482 154.89C425.16 154.614 425.894 154.504 426.623 154.569C427.353 154.635 428.055 154.874 428.673 155.268L429.455 155.761C428.879 159.226 425.703 162.553 425.703 162.553L424.907 163.602C424.748 163.822 424.548 164.009 424.317 164.151C424.086 164.293 423.83 164.388 423.562 164.431C423.294 164.474 423.021 164.463 422.757 164.4C422.493 164.336 422.245 164.222 422.026 164.062L419.934 162.505C419.574 162.223 419.305 161.842 419.157 161.41C419.01 160.978 418.991 160.512 419.103 160.07Z" fill="#A26760"/>
<path d="M425.778 113.053C426.142 113.286 426.348 113.437 426.608 113.629L427.336 114.171C427.809 114.534 428.275 114.857 428.708 115.262C429.622 115.993 430.507 116.753 431.362 117.539C433.094 119.104 434.736 120.764 436.281 122.513C437.847 124.289 439.282 126.175 440.575 128.158C441.22 129.167 441.844 130.216 442.393 131.273C442.97 132.349 443.49 133.455 443.951 134.586L444.287 135.444L444.328 135.554L444.403 135.766L444.534 136.185C444.602 136.466 444.671 136.747 444.712 137.022C444.871 138.005 444.871 139.008 444.712 139.992C444.447 141.486 443.952 142.93 443.244 144.273C442.085 146.45 440.706 148.503 439.128 150.399C437.68 152.23 436.158 153.918 434.614 155.571C433.839 156.394 433.071 157.217 432.275 158.02L431.074 159.221C430.656 159.625 430.285 160.009 429.812 160.455L423.453 152.779C423.803 152.539 424.242 152.216 424.633 151.915L425.826 150.968C426.615 150.33 427.404 149.685 428.159 148.999C429.652 147.673 431.069 146.265 432.405 144.78C433.639 143.432 434.718 141.95 435.622 140.362C435.931 139.814 436.162 139.225 436.308 138.613C436.308 138.435 436.308 138.352 436.308 138.394C436.306 138.407 436.306 138.421 436.308 138.435C436.306 138.448 436.306 138.462 436.308 138.476V138.4L436.055 137.762C434.567 134.273 432.441 131.093 429.785 128.385C428.437 126.968 426.988 125.652 425.449 124.447C424.681 123.844 423.885 123.267 423.089 122.718C422.685 122.444 422.287 122.17 421.882 121.923L421.278 121.566L420.75 121.271L425.778 113.053Z" fill="#407BFF"/>
<path opacity="0.7" d="M425.778 113.053C426.142 113.286 426.348 113.437 426.608 113.629L427.336 114.171C427.809 114.534 428.275 114.857 428.708 115.262C429.622 115.993 430.507 116.753 431.362 117.539C433.094 119.104 434.736 120.764 436.281 122.513C437.847 124.289 439.282 126.175 440.575 128.158C441.22 129.167 441.844 130.216 442.393 131.273C442.97 132.349 443.49 133.455 443.951 134.586L444.287 135.444L444.328 135.554L444.403 135.766L444.534 136.185C444.602 136.466 444.671 136.747 444.712 137.022C444.871 138.005 444.871 139.008 444.712 139.992C444.447 141.486 443.952 142.93 443.244 144.273C442.085 146.45 440.706 148.503 439.128 150.399C437.68 152.23 436.158 153.918 434.614 155.571C433.839 156.394 433.071 157.217 432.275 158.02L431.074 159.221C430.656 159.625 430.285 160.009 429.812 160.455L423.453 152.779C423.803 152.539 424.242 152.216 424.633 151.915L425.826 150.968C426.615 150.33 427.404 149.685 428.159 148.999C429.652 147.673 431.069 146.265 432.405 144.78C433.639 143.432 434.718 141.95 435.622 140.362C435.931 139.814 436.162 139.225 436.308 138.613C436.308 138.435 436.308 138.352 436.308 138.394C436.306 138.407 436.306 138.421 436.308 138.435C436.306 138.448 436.306 138.462 436.308 138.476V138.4L436.055 137.762C434.567 134.273 432.441 131.093 429.785 128.385C428.437 126.968 426.988 125.652 425.449 124.447C424.681 123.844 423.885 123.267 423.089 122.718C422.685 122.444 422.287 122.17 421.882 121.923L421.278 121.566L420.75 121.271L425.778 113.053Z" fill="white"/>
<path d="M663.047 174.467H306.883V199.971H663.047V174.467Z" fill="#FF725E"/>
<path d="M656.025 199.971H313.891V348H656.025V199.971Z" fill="#FF725E"/>
<path d="M656.025 199.971H313.891V215.608H656.025V199.971Z" fill="#263238"/>
<path d="M405.102 276.253C405.104 276.076 405.175 275.908 405.3 275.783C405.425 275.658 405.594 275.586 405.771 275.584H411.29C412.768 275.584 414.186 276.171 415.232 277.217C416.277 278.262 416.864 279.68 416.864 281.159C416.864 282.637 416.277 284.055 415.232 285.101C414.186 286.146 412.768 286.734 411.29 286.734L406.467 286.789V294.455C406.448 294.622 406.367 294.776 406.242 294.888C406.116 295.001 405.953 295.062 405.784 295.062C405.616 295.062 405.453 295.001 405.327 294.888C405.201 294.776 405.121 294.622 405.102 294.455V276.253ZM411.29 285.396C412.375 285.345 413.4 284.878 414.15 284.091C414.9 283.305 415.319 282.26 415.319 281.173C415.319 280.086 414.9 279.041 414.15 278.254C413.4 277.468 412.375 277.001 411.29 276.95H406.467V285.396H411.29Z" fill="white"/>
<path d="M435.543 286.01H425.499V294.428C425.479 294.595 425.399 294.75 425.273 294.862C425.147 294.974 424.984 295.036 424.816 295.036C424.647 295.036 424.485 294.974 424.359 294.862C424.233 294.75 424.152 294.595 424.133 294.428V276.254C424.152 276.087 424.233 275.932 424.359 275.82C424.485 275.708 424.647 275.646 424.816 275.646C424.984 275.646 425.147 275.708 425.273 275.82C425.399 275.932 425.479 276.087 425.499 276.254V284.672H435.533V276.254C435.553 276.087 435.633 275.932 435.759 275.82C435.885 275.708 436.048 275.646 436.216 275.646C436.385 275.646 436.547 275.708 436.673 275.82C436.799 275.932 436.88 276.087 436.899 276.254V294.428C436.88 294.595 436.799 294.75 436.673 294.862C436.547 294.974 436.385 295.036 436.216 295.036C436.048 295.036 435.885 294.974 435.759 294.862C435.633 294.75 435.553 294.595 435.533 294.428L435.543 286.01Z" fill="white"/>
<path d="M455.552 290.05H446.66L444.932 294.696C444.883 294.826 444.795 294.939 444.681 295.018C444.566 295.098 444.43 295.141 444.291 295.142H444.04C443.865 295.069 443.727 294.931 443.653 294.757C443.58 294.583 443.579 294.387 443.65 294.212L450.423 276.122C450.484 275.997 450.579 275.891 450.698 275.817C450.816 275.743 450.953 275.704 451.092 275.704C451.233 275.697 451.373 275.733 451.492 275.808C451.612 275.882 451.706 275.992 451.761 276.122L458.534 294.212C458.573 294.297 458.594 294.388 458.596 294.481C458.599 294.574 458.583 294.667 458.549 294.753C458.515 294.84 458.464 294.919 458.4 294.985C458.335 295.052 458.258 295.105 458.172 295.142C458.061 295.142 458.005 295.142 457.921 295.142C457.783 295.137 457.648 295.093 457.534 295.014C457.421 294.935 457.332 294.824 457.28 294.696L455.552 290.05ZM447.19 288.684H455.078L451.148 278.203L447.19 288.684Z" fill="white"/>
<path d="M475.372 290.692C475.373 290.106 475.229 289.529 474.952 289.013C474.674 288.497 474.272 288.059 473.783 287.737C473.102 287.265 472.335 286.933 471.525 286.761C471.441 286.761 471.414 286.706 471.386 286.706H466.647V294.427C466.628 294.594 466.547 294.749 466.421 294.861C466.295 294.973 466.133 295.035 465.964 295.035C465.796 295.035 465.633 294.973 465.507 294.861C465.381 294.749 465.301 294.594 465.281 294.427V276.253C465.285 276.086 465.349 275.926 465.462 275.803C465.575 275.68 465.728 275.602 465.894 275.584H471.469C472.734 275.591 473.959 276.028 474.943 276.822C475.927 277.617 476.611 278.723 476.883 279.958C477.156 281.194 477 282.485 476.441 283.62C475.883 284.755 474.955 285.666 473.811 286.204C473.901 286.256 473.994 286.303 474.089 286.343C474.879 286.763 475.54 287.389 476.002 288.155C476.463 288.921 476.708 289.797 476.71 290.692C476.678 291.453 476.762 292.214 476.96 292.949C477.008 293.13 477.105 293.294 477.239 293.423C477.396 293.407 477.554 293.442 477.689 293.522C477.825 293.602 477.931 293.724 477.992 293.869C478.047 294.052 478.032 294.249 477.95 294.421C477.867 294.593 477.723 294.728 477.546 294.798C477.434 294.805 477.323 294.805 477.211 294.798H477.156C476.883 294.768 476.623 294.666 476.403 294.503C476.183 294.34 476.01 294.121 475.901 293.869C475.476 292.867 475.295 291.778 475.372 290.692ZM471.469 276.95H466.647V285.368H471.581C472.697 285.353 473.762 284.895 474.541 284.096C475.319 283.296 475.749 282.219 475.734 281.103C475.719 279.987 475.262 278.922 474.462 278.143C473.662 277.364 472.586 276.935 471.469 276.95Z" fill="white"/>
<path d="M500.931 278.373L494.687 287.042C494.628 287.136 494.546 287.214 494.448 287.268C494.351 287.321 494.241 287.349 494.13 287.348H494.074C493.957 287.356 493.841 287.332 493.738 287.278C493.635 287.223 493.548 287.142 493.489 287.042L487.245 278.401V294.428C487.225 294.596 487.145 294.75 487.019 294.862C486.893 294.974 486.73 295.036 486.562 295.036C486.393 295.036 486.231 294.974 486.105 294.862C485.979 294.75 485.898 294.596 485.879 294.428V276.366C485.878 276.262 485.903 276.158 485.952 276.066C486 275.974 486.071 275.895 486.158 275.836C486.158 275.836 486.158 275.836 486.213 275.781C486.362 275.689 486.539 275.655 486.71 275.686C486.882 275.717 487.036 275.81 487.143 275.948L494.083 285.564L500.996 275.948C501.102 275.808 501.256 275.714 501.428 275.683C501.6 275.652 501.777 275.687 501.925 275.781C501.998 275.848 502.063 275.923 502.12 276.004C502.182 276.115 502.22 276.239 502.232 276.366V294.428C502.229 294.605 502.158 294.774 502.033 294.899C501.908 295.024 501.739 295.095 501.563 295.097C501.474 295.098 501.387 295.082 501.305 295.049C501.223 295.016 501.149 294.966 501.087 294.904C501.024 294.842 500.975 294.767 500.942 294.686C500.909 294.604 500.892 294.516 500.894 294.428L500.931 278.373Z" fill="white"/>
<path d="M521.056 290.05H512.164L510.436 294.696C510.387 294.826 510.299 294.939 510.185 295.018C510.07 295.098 509.934 295.141 509.795 295.142H509.544C509.369 295.069 509.23 294.931 509.157 294.757C509.084 294.583 509.083 294.387 509.154 294.212L515.927 276.122C515.988 275.997 516.083 275.891 516.201 275.817C516.32 275.743 516.456 275.704 516.596 275.704C516.737 275.697 516.877 275.733 516.996 275.808C517.116 275.882 517.21 275.992 517.265 276.122L524.038 294.212C524.077 294.297 524.098 294.388 524.1 294.481C524.103 294.574 524.087 294.667 524.053 294.753C524.019 294.84 523.968 294.919 523.904 294.985C523.839 295.052 523.761 295.105 523.676 295.142C523.564 295.142 523.509 295.142 523.425 295.142C523.286 295.137 523.152 295.093 523.038 295.014C522.924 294.935 522.836 294.824 522.784 294.696L521.056 290.05ZM512.694 288.684H520.582L516.652 278.203L512.694 288.684Z" fill="white"/>
<path d="M539.341 275.307C541.62 275.309 543.834 276.064 545.641 277.453C545.713 277.509 545.773 277.579 545.818 277.659C545.862 277.739 545.891 277.826 545.901 277.917C545.912 278.008 545.904 278.1 545.878 278.188C545.853 278.276 545.81 278.358 545.752 278.429C545.701 278.5 545.637 278.561 545.562 278.607C545.487 278.653 545.404 278.684 545.317 278.697C545.23 278.71 545.142 278.705 545.057 278.683C544.972 278.661 544.892 278.622 544.823 278.568C543.259 277.358 541.337 276.704 539.36 276.71C537.098 276.71 534.928 277.608 533.328 279.208C531.729 280.807 530.83 282.977 530.83 285.239C530.83 287.501 531.729 289.671 533.328 291.27C534.928 292.87 537.098 293.768 539.36 293.768C541.325 293.809 543.242 293.151 544.767 291.91C544.913 291.812 545.092 291.774 545.266 291.806C545.439 291.837 545.594 291.934 545.696 292.077C545.759 292.145 545.807 292.225 545.838 292.312C545.868 292.399 545.879 292.492 545.871 292.584C545.863 292.676 545.836 292.765 545.792 292.846C545.747 292.927 545.686 292.997 545.613 293.053C543.804 294.434 541.589 295.179 539.313 295.171C536.689 295.171 534.172 294.129 532.316 292.273C530.46 290.417 529.418 287.901 529.418 285.276C529.418 282.652 530.46 280.135 532.316 278.279C534.172 276.424 536.689 275.381 539.313 275.381L539.341 275.307Z" fill="white"/>
<path d="M559.128 285.73L552.578 276.782C552.487 276.636 552.451 276.463 552.477 276.292C552.502 276.122 552.588 275.966 552.717 275.853C552.785 275.797 552.863 275.755 552.947 275.73C553.031 275.705 553.119 275.697 553.206 275.708C553.293 275.718 553.377 275.746 553.453 275.791C553.529 275.835 553.595 275.894 553.647 275.965L559.751 284.327L565.883 275.965C565.935 275.894 566.001 275.835 566.077 275.791C566.152 275.746 566.237 275.718 566.324 275.708C566.411 275.697 566.499 275.705 566.583 275.73C566.667 275.755 566.745 275.797 566.812 275.853C566.953 275.959 567.046 276.115 567.073 276.289C567.099 276.463 567.055 276.64 566.952 276.782L560.448 285.674V294.427C560.449 294.515 560.433 294.602 560.399 294.684C560.366 294.766 560.317 294.84 560.255 294.902C560.192 294.965 560.118 295.014 560.036 295.047C559.955 295.08 559.867 295.097 559.779 295.096C559.602 295.093 559.433 295.022 559.308 294.897C559.183 294.772 559.112 294.603 559.11 294.427L559.128 285.73Z" fill="white"/>
<path d="M656.025 267.008H313.891V267.937H656.025V267.008Z" fill="white"/>
<path d="M656.025 264.332H313.891V265.261H656.025V264.332Z" fill="white"/>
<path d="M656.025 305.381H313.891V306.31H656.025V305.381Z" fill="white"/>
<path d="M656.025 302.695H313.891V303.624H656.025V302.695Z" fill="white"/>
<path d="M487.803 228.598H482.117V252.922H487.803V228.598Z" fill="#EBEBEB"/>
<path d="M497.125 243.602V237.916H472.8V243.602H497.125Z" fill="#EBEBEB"/>
<path d="M484.815 260.642C496.111 260.642 505.267 251.486 505.267 240.19C505.267 228.895 496.111 219.738 484.815 219.738C473.52 219.738 464.363 228.895 464.363 240.19C464.363 251.486 473.52 260.642 484.815 260.642Z" fill="white"/>
<path d="M486.905 227.959H482.731C481.967 227.959 481.348 228.578 481.348 229.342V251.037C481.348 251.801 481.967 252.42 482.731 252.42H486.905C487.669 252.42 488.288 251.801 488.288 251.037V229.342C488.288 228.578 487.669 227.959 486.905 227.959Z" fill="#407BFF"/>
<path d="M497.047 242.272V238.098C497.047 237.334 496.428 236.715 495.664 236.715H473.969C473.205 236.715 472.586 237.334 472.586 238.098V242.272C472.586 243.036 473.205 243.655 473.969 243.655H495.664C496.428 243.655 497.047 243.036 497.047 242.272Z" fill="#407BFF"/>
<path d="M661.434 290.076C661.434 290.076 676.653 286.618 684.995 278.937C693.337 271.255 698.002 257.473 698.002 257.473C692.216 258.588 686.51 260.089 680.924 261.965C678.833 264.116 677.091 266.582 675.762 269.273C675.631 267.535 675.631 265.79 675.762 264.053C673.813 264.894 671.989 266 670.341 267.338C663.387 273.381 661.434 290.076 661.434 290.076Z" fill="#35BA83"/>
<path d="M688.499 264.17C690.568 262.734 692.685 261.354 694.744 259.899C694.771 259.882 694.79 259.856 694.797 259.825C694.804 259.795 694.799 259.762 694.782 259.736C694.766 259.709 694.74 259.69 694.709 259.683C694.678 259.676 694.646 259.681 694.62 259.697C690.702 262.044 686.833 264.544 683.126 267.168C681.824 268.078 680.55 269.036 679.295 270.041L679.563 269.591C680.023 268.825 680.521 268.078 680.981 267.331C681.938 265.803 683.021 264.359 684.218 263.011C684.218 262.963 684.218 262.887 684.142 262.944C682.954 264.304 681.776 265.664 680.693 267.111C680.176 267.8 679.736 268.519 679.247 269.247C679.011 269.617 678.781 270 678.558 270.396C678.491 270.52 678.404 270.654 678.328 270.789C676.412 272.331 674.497 273.94 672.581 275.644C671.451 276.698 670.359 277.79 669.305 278.92C669.899 277.072 670.407 275.213 671.097 273.394C671.097 273.336 671.02 273.307 670.991 273.394C670.33 275.309 669.602 277.225 669.076 279.14C667.907 280.417 666.796 281.726 665.743 283.067L665.8 282.818C665.972 282.1 666.145 281.382 666.336 280.673C666.71 279.294 667.112 277.924 667.581 276.574C668.452 273.768 669.839 271.15 671.671 268.854C671.671 268.854 671.671 268.729 671.595 268.777C668.745 272.336 666.749 276.5 665.762 280.951C665.602 281.589 665.449 282.228 665.302 282.866C665.225 283.211 665.13 283.565 665.072 283.92C664.612 284.542 664.162 285.174 663.731 285.835C661.137 289.8 658.976 294.032 657.285 298.459C655.384 303.442 653.756 308.526 652.41 313.688C652.41 313.708 652.418 313.727 652.433 313.742C652.447 313.756 652.466 313.764 652.487 313.764C652.507 313.764 652.527 313.756 652.541 313.742C652.555 313.727 652.563 313.708 652.563 313.688C655.542 304.78 658.578 295.748 663.683 287.827C664.755 286.147 665.912 284.523 667.15 282.962C669.673 282.799 672.162 282.304 674.554 281.487C677.169 280.61 679.663 279.407 681.977 277.905C683.303 277.014 684.582 276.055 685.808 275.032C685.813 275.027 685.817 275.022 685.82 275.016C685.823 275.01 685.825 275.003 685.825 274.997C685.826 274.99 685.825 274.983 685.823 274.977C685.821 274.971 685.817 274.965 685.813 274.96C685.808 274.955 685.803 274.951 685.797 274.948C685.791 274.945 685.785 274.943 685.778 274.942C685.771 274.942 685.765 274.943 685.758 274.945C685.752 274.947 685.746 274.95 685.741 274.955C683.617 276.669 681.271 278.09 678.768 279.179C676.311 280.301 673.743 281.164 671.106 281.755C669.985 281.995 668.846 282.177 667.706 282.33C669.093 280.573 670.574 278.891 672.14 277.292C672.658 276.775 673.184 276.334 673.721 275.788C675.494 274.548 677.376 273.471 679.343 272.57C681.833 271.363 684.295 270.089 686.766 268.835C688.155 268.126 689.534 267.398 690.942 266.708C690.999 266.708 690.942 266.593 690.884 266.622C688.384 267.829 685.846 268.959 683.318 270.118C680.943 271.21 678.529 272.302 676.259 273.585C676.154 273.585 676.067 273.7 675.972 273.748C678.031 271.957 680.167 270.243 682.35 268.595C684.371 267.101 686.411 265.607 688.499 264.17Z" fill="#263238"/>
<path d="M687.631 272.014C686.395 272.56 685.131 273.039 683.905 273.613C682.679 274.188 681.453 274.897 680.256 275.605C680.208 275.605 680.256 275.711 680.256 275.682C681.472 275.098 682.698 274.561 683.905 273.948C685.112 273.335 686.357 272.675 687.611 272.119C687.623 272.117 687.633 272.111 687.641 272.103C687.649 272.095 687.655 272.084 687.657 272.073C687.659 272.062 687.658 272.05 687.653 272.039C687.648 272.029 687.64 272.02 687.631 272.014Z" fill="#263238"/>
<path d="M611.98 213.359C614.792 216.989 616.384 221.414 616.53 226.002C616.578 227.372 616.358 229.268 616.204 231.509C620.013 233.708 623.389 236.584 626.165 239.995C623.125 238.233 619.636 237.398 616.128 237.591C616.204 239.121 616.399 240.642 616.712 242.141C618.926 242.15 621.118 242.586 623.167 243.424C621.168 243.401 619.185 243.792 617.344 244.574C620.055 253.194 628.119 262.082 650.397 265.846C652.757 255.258 651.362 244.179 646.451 234.507C639.747 221.376 611.98 213.359 611.98 213.359Z" fill="#35BA83"/>
<path d="M658.081 302.788C657.691 299.097 657.209 295.419 656.635 291.754C655.507 284.416 654.008 277.141 652.143 269.955C651.271 266.592 650.197 263.284 648.925 260.051C648.991 259.457 649.02 258.859 649.011 258.26C649.011 257.552 649.011 256.833 649.011 256.124C649.011 254.697 648.934 253.251 648.81 251.853C648.584 249.036 648.126 246.242 647.44 243.501C647.028 241.911 646.559 240.35 646.09 238.779C646.09 238.722 645.975 238.779 645.994 238.779C646.734 241.519 647.284 244.306 647.641 247.121C648.038 249.89 648.287 252.678 648.388 255.473C648.388 256.239 648.388 257.006 648.388 257.772C648.388 258.097 648.388 258.423 648.388 258.73C647.292 256.068 646.038 253.474 644.634 250.962C642.358 246.98 639.798 243.167 636.971 239.555C636.963 239.134 636.902 238.715 636.789 238.31C636.684 237.812 636.579 237.352 636.464 236.816C636.234 235.8 635.975 234.795 635.707 233.779C635.152 231.768 634.424 229.814 633.792 227.822C633.787 227.812 633.78 227.803 633.77 227.797C633.761 227.791 633.75 227.787 633.739 227.787C633.728 227.787 633.717 227.791 633.707 227.797C633.698 227.803 633.691 227.812 633.686 227.822C634.28 229.795 634.644 231.845 635.123 233.846C635.343 234.804 635.563 235.839 635.774 236.835C635.889 237.323 635.994 237.793 636.1 238.319C636.095 238.357 636.095 238.396 636.1 238.434C635.2 237.298 634.28 236.177 633.341 235.072C629.089 230.092 624.424 225.495 619.731 220.916C619.157 220.361 618.563 219.805 617.979 219.259C617.931 219.212 617.864 219.259 617.902 219.336C622.394 224.01 626.809 228.741 630.985 233.703C631.943 234.871 632.958 236.068 633.926 237.275L632.403 236.318C631.11 235.465 629.798 234.641 628.447 233.885C627.097 233.128 625.727 232.391 624.338 231.701C622.949 231.011 621.388 230.418 620.009 229.613C619.952 229.613 619.894 229.68 619.961 229.709C621.37 230.355 622.728 231.108 624.022 231.96C625.382 232.751 626.73 233.569 628.064 234.412C629.376 235.245 630.688 236.059 631.991 236.911C633.073 237.611 634.136 238.377 635.267 239.028C637.864 242.35 640.263 245.824 642.45 249.43C643.796 251.697 645.026 254.03 646.137 256.421L645.333 256.077L643.293 255.119C641.99 254.535 640.668 253.969 639.356 253.404C636.856 252.312 634.318 251.316 631.866 250.119C630.487 249.472 629.152 248.733 627.872 247.907C627.815 247.907 627.767 247.955 627.825 247.993C632.393 251.144 637.508 253.356 642.565 255.598L644.758 256.555C645.352 256.824 645.955 257.121 646.578 257.35C648.09 260.71 649.36 264.173 650.38 267.714C652.378 274.806 653.996 281.999 655.227 289.264C656.51 296.533 657.372 303.86 658.043 311.216C658.119 312.174 658.205 313.046 658.311 313.965C658.323 314.033 658.359 314.095 658.413 314.14C658.466 314.184 658.533 314.209 658.603 314.209C658.672 314.209 658.74 314.184 658.793 314.14C658.847 314.095 658.883 314.033 658.895 313.965C658.847 310.239 658.464 306.494 658.081 302.788Z" fill="#263238"/>
<path d="M644.529 241.279C644.117 239.009 643.514 236.797 642.911 234.575C642.911 234.508 642.796 234.575 642.805 234.575C643.37 236.749 643.763 238.971 644.184 241.174C644.606 243.377 644.97 245.685 645.286 247.955C645.286 247.955 645.353 247.955 645.343 247.955C645.2 245.716 644.929 243.487 644.529 241.279Z" fill="#263238"/>
<path d="M634.933 247.417C633.382 246.398 631.762 245.486 630.087 244.688C629.273 244.266 628.449 243.873 627.635 243.471C626.821 243.069 625.901 242.724 625.058 242.303C625.001 242.303 624.953 242.36 625.058 242.389C625.873 242.801 626.648 243.289 627.443 243.73C628.238 244.17 629.091 244.688 629.914 245.08C631.552 245.952 633.152 246.929 634.857 247.638C634.882 247.637 634.906 247.629 634.927 247.614C634.947 247.599 634.963 247.578 634.971 247.554C634.98 247.53 634.98 247.504 634.974 247.48C634.967 247.455 634.953 247.433 634.933 247.417Z" fill="#263238"/>
<path opacity="0.1" d="M661.715 263.71C661.715 263.71 675.794 260.339 682.269 250.895C688.437 241.863 690.439 226.481 690.592 225.131C690.343 226.376 687.431 239.814 677.844 246.078C670.507 250.876 663.41 254.822 661.715 263.71Z" fill="#263238"/>
<path d="M674.711 239.371C672.204 241.671 670.403 244.638 669.52 247.924C669.52 247.924 669.52 247.924 669.52 247.924C670.556 244.718 672.346 241.809 674.739 239.438C674.826 239.399 674.759 239.323 674.711 239.371Z" fill="#263238"/>
<path d="M661.712 263.708C661.712 263.708 675.792 260.337 682.266 250.893C688.434 241.861 690.436 226.479 690.59 225.129C690.594 225.097 690.594 225.065 690.59 225.033C690.59 225.033 683.885 234.611 676.73 237.092C669.576 239.572 659.691 248.01 661.712 263.708Z" fill="#35BA83"/>
<path d="M688.104 230.36C686.844 232.949 685.391 235.44 683.756 237.811C682.111 240.057 680.16 242.062 677.961 243.769C676.046 245.292 674.025 246.642 672.09 248.155V248.088C672.454 247.542 672.847 247.025 673.249 246.508C674.054 245.483 674.935 244.506 675.816 243.548C677.569 241.633 679.36 239.784 680.931 237.725C681.8 236.59 682.554 235.37 683.181 234.085C683.181 234.028 683.114 233.999 683.086 234.085C680.806 238.874 676.237 241.891 672.981 245.914C672.517 246.485 672.082 247.08 671.678 247.696C671.358 248.14 671.088 248.619 670.874 249.123C669.098 250.554 667.491 252.183 666.085 253.979C666.205 253.056 666.394 252.143 666.65 251.249C666.977 249.994 667.48 248.791 668.144 247.676C668.144 247.619 668.087 247.561 668.058 247.619C667.373 248.732 666.82 249.921 666.411 251.163C666.118 252.154 665.948 253.176 665.903 254.208C665.201 255.153 664.561 256.141 663.987 257.168C664.045 256.871 664.102 256.565 664.169 256.268C664.447 254.86 664.754 253.461 665.127 252.082C665.786 249.258 666.934 246.571 668.518 244.142C668.525 244.131 668.528 244.117 668.525 244.103C668.523 244.09 668.515 244.078 668.503 244.07C668.492 244.063 668.478 244.06 668.464 244.063C668.451 244.065 668.439 244.073 668.431 244.085C666.816 246.482 665.552 249.097 664.677 251.852C664.227 253.232 663.863 254.639 663.547 256.057C663.394 256.747 663.259 257.446 663.125 258.145C663.058 258.499 662.982 258.873 662.924 259.237C661.523 262.313 660.432 265.522 659.668 268.815C658.287 274.682 657.285 280.633 656.67 286.629C655.949 292.905 655.629 299.22 655.712 305.536C655.712 306.331 655.77 307.126 655.817 307.911C655.817 308.122 656.134 308.151 656.143 307.911C656.287 304.789 656.363 301.657 656.545 298.535C656.727 295.412 657.005 292.29 657.34 289.177C657.986 283.062 658.964 276.987 660.271 270.979C661.42 265.826 662.896 260.645 665.711 256.134C667.112 253.888 668.824 251.854 670.797 250.09C672.77 248.318 674.925 246.767 677.013 245.119C679.12 243.521 681.032 241.683 682.712 239.641C684.431 237.364 685.932 234.93 687.194 232.371L688.21 230.455C688.229 230.36 688.143 230.273 688.104 230.36Z" fill="#263238"/>
<path d="M685.681 232.401C684.754 234.297 683.704 236.13 682.539 237.889C682.539 237.889 682.539 237.966 682.606 237.889C683.814 236.148 684.874 234.309 685.776 232.392C685.805 232.372 685.709 232.344 685.681 232.401Z" fill="#263238"/>
<path d="M610.02 257.473C610.02 257.473 609.79 277.49 621.762 283.266C633.735 289.041 640.152 284.224 648.283 286.139C647.967 285.66 642.163 277.318 632.959 275.019C623.419 272.673 612.893 265.796 610.02 257.473Z" fill="#35BA83"/>
<path opacity="0.1" d="M610.02 257.473C610.02 257.473 609.79 277.49 621.762 283.266C633.735 289.041 640.152 284.224 648.283 286.139C643.985 284.095 639.392 282.741 634.673 282.126C627.126 281.235 612.692 276.331 610.02 257.473Z" fill="black"/>
<path d="M649.068 286.533C647.636 285.231 646.023 284.144 644.279 283.305C644.02 283.18 643.762 283.085 643.494 282.97C643.225 282.855 643.235 282.663 643.091 282.51C642.737 282.137 642.363 281.782 641.971 281.437C641.217 280.791 640.41 280.211 639.557 279.704C637.574 278.535 635.41 277.721 633.379 276.639C633.368 276.638 633.356 276.64 633.346 276.646C633.336 276.651 633.328 276.66 633.323 276.67C633.317 276.681 633.316 276.692 633.317 276.704C633.319 276.715 633.324 276.726 633.331 276.735C634.289 277.252 635.304 277.826 636.272 278.392C637.239 278.957 638.187 279.474 639.145 280.068C639.978 280.601 640.768 281.197 641.511 281.849C641.722 282.031 641.923 282.232 642.133 282.433C640.807 281.99 639.454 281.631 638.082 281.361C635.889 280.92 633.676 280.604 631.492 280.135C630.418 279.908 629.356 279.623 628.313 279.282C627.355 278.478 626.33 277.683 625.391 276.821C624.249 275.783 623.213 274.634 622.298 273.392C622.298 273.334 622.164 273.392 622.212 273.44C623.661 275.406 625.304 277.222 627.115 278.861C626.598 278.66 626.091 278.449 625.583 278.219C621.473 276.378 617.945 273.446 615.383 269.743C615.383 269.685 615.258 269.743 615.296 269.791C617.472 272.97 620.279 275.666 623.543 277.712C625.18 278.738 626.932 279.567 628.763 280.183C630.884 280.837 633.047 281.349 635.237 281.715C637.385 282.062 639.504 282.565 641.578 283.219C643.489 283.866 645.286 284.81 646.903 286.016C649.952 288.385 652.408 291.431 654.077 294.913C656.213 299.533 657.547 304.481 658.023 309.548C658.023 309.769 658.377 309.769 658.368 309.548C657.774 301.129 655.552 292.375 649.068 286.533Z" fill="#263238"/>
<path d="M635.181 280.001C634.555 279.067 633.71 278.301 632.72 277.769C631.583 277.177 630.584 276.351 629.789 275.346C629.789 275.298 629.664 275.346 629.703 275.403C630.422 276.321 631.297 277.106 632.289 277.721C633.377 278.295 634.336 279.087 635.105 280.048C635.133 280.096 635.21 280.048 635.181 280.001Z" fill="#263238"/>
<path d="M641.527 301.301L642.073 312.306L643.74 345.943H668.853L670.519 312.306L671.065 301.301H641.527Z" fill="#455A64"/>
<path d="M641.527 301.301L642.073 312.306H670.519L671.065 301.301H641.527Z" fill="#263238"/>
<path d="M639.779 307.213H672.832V296.716H639.779V307.213Z" fill="#455A64"/>
<path d="M578.469 174.469H540.984V171.555L578.469 170.346V174.469Z" fill="#455A64"/>
<path d="M607.926 174.421H583.195C581.091 174.421 584.146 168.413 591.834 166.104C599.523 163.795 610.384 172.167 607.926 174.421Z" fill="#37474F"/>
<path d="M598.221 174.421C598.161 173.724 598.225 173.022 598.409 172.348C598.578 171.667 598.843 171.014 599.194 170.408C599.562 169.809 600.029 169.278 600.577 168.837C601.118 168.387 601.75 168.06 602.43 167.879C601.925 168.315 601.448 168.782 601.001 169.277C600.579 169.766 600.2 170.292 599.87 170.848C599.214 171.987 598.662 173.183 598.221 174.421Z" fill="#263238"/>
<path d="M601.156 168.703C601.918 168.856 602.659 169.098 603.363 169.426C604.075 169.747 604.756 170.133 605.397 170.58C606.05 171.034 606.63 171.585 607.117 172.214C607.637 172.83 607.917 173.614 607.902 174.42C607.624 173.728 607.189 173.109 606.63 172.614C606.099 172.104 605.526 171.639 604.918 171.224C603.732 170.352 602.436 169.583 601.156 168.703Z" fill="#263238"/>
<path d="M625.677 162.79H565.559L575.124 118.033H635.235L625.677 162.79Z" fill="#455A64"/>
<path d="M627.9 162.79H567.781L577.347 118.033H637.457L627.9 162.79Z" fill="#37474F"/>
<path d="M595.472 146.746H594.066L596.203 136.701H597.616L595.472 146.746Z" fill="#263238"/>
<path d="M598.261 146.746H596.848L598.992 136.701H600.397L598.261 146.746Z" fill="#263238"/>
<path d="M601.043 146.746H599.629L601.773 136.701H603.179L601.043 146.746Z" fill="#263238"/>
<path d="M603.82 146.746H602.406L604.55 136.701H605.956L603.82 146.746Z" fill="#263238"/>
<path d="M606.601 146.746H605.195L607.331 136.701H608.745L606.601 146.746Z" fill="#263238"/>
<path d="M609.378 146.746H607.973L610.109 136.701H611.522L609.378 146.746Z" fill="#263238"/>
<path d="M612.16 146.746H610.754L612.89 136.701H614.304L612.16 146.746Z" fill="#263238"/>
<path d="M610.896 174.476H581.328V172.183L610.896 171.225V174.476Z" fill="#455A64"/>
<path d="M618.93 174.476H603.058L593.5 149.4H609.372L618.93 174.476Z" fill="#455A64"/>
<path d="M621.547 174.476H605.675L596.117 149.4H611.989L621.547 174.476Z" fill="#263238"/>
<defs>
<filter id="filter0_dddd_11049_194722" x="0.586113" y="0" width="498.828" height="491.915" filterUnits="userSpaceOnUse" color-interpolation-filters="sRGB">
<feFlood flood-opacity="0" result="BackgroundImageFix"/>
<feColorMatrix in="SourceAlpha" type="matrix" values="0 0 0 0 0 0 0 0 0 0 0 0 0 0 0 0 0 0 127 0" result="hardAlpha"/>
<feOffset dy="22.644"/>
<feGaussianBlur stdDeviation="6.61205"/>
<feColorMatrix type="matrix" values="0 0 0 0 0.0705882 0 0 0 0 0.0980392 0 0 0 0 0.133333 0 0 0 0.0104523 0"/>
<feBlend mode="normal" in2="BackgroundImageFix" result="effect1_dropShadow_11049_194722"/>
<feColorMatrix in="SourceAlpha" type="matrix" values="0 0 0 0 0 0 0 0 0 0 0 0 0 0 0 0 0 0 127 0" result="hardAlpha"/>
<feOffset dy="39.4109"/>
<feGaussianBlur stdDeviation="11.508"/>
<feColorMatrix type="matrix" values="0 0 0 0 0.0705882 0 0 0 0 0.0980392 0 0 0 0 0.133333 0 0 0 0.0128732 0"/>
<feBlend mode="normal" in2="effect1_dropShadow_11049_194722" result="effect2_dropShadow_11049_194722"/>
<feColorMatrix in="SourceAlpha" type="matrix" values="0 0 0 0 0 0 0 0 0 0 0 0 0 0 0 0 0 0 127 0" result="hardAlpha"/>
<feOffset dy="62.6078"/>
<feGaussianBlur stdDeviation="18.2815"/>
<feColorMatrix type="matrix" values="0 0 0 0 0.0705882 0 0 0 0 0.0980392 0 0 0 0 0.133333 0 0 0 0.015 0"/>
<feBlend mode="normal" in2="effect2_dropShadow_11049_194722" result="effect3_dropShadow_11049_194722"/>
<feColorMatrix in="SourceAlpha" type="matrix" values="0 0 0 0 0 0 0 0 0 0 0 0 0 0 0 0 0 0 127 0" result="hardAlpha"/>
<feOffset dy="96.5991"/>
<feGaussianBlur stdDeviation="28.2069"/>
<feColorMatrix type="matrix" values="0 0 0 0 0.0705882 0 0 0 0 0.0980392 0 0 0 0 0.133333 0 0 0 0.0171268 0"/>
<feBlend mode="normal" in2="effect3_dropShadow_11049_194722" result="effect4_dropShadow_11049_194722"/>
<feBlend mode="normal" in="SourceGraphic" in2="effect4_dropShadow_11049_194722" result="shape"/>
</filter>
</defs>
</svg>
