<svg width="757" height="432" viewBox="0 0 757 432" fill="none" xmlns="http://www.w3.org/2000/svg">
<g filter="url(#filter0_dddd_11075_189944)">
<rect x="251.363" y="37.0547" width="461.518" height="300" rx="36" fill="#E4E8EF" stroke="white" stroke-width="8"/>
<path d="M243 83.9277C243 82.8232 243.895 81.9277 245 81.9277H247.365V93.4977H245C243.895 93.4977 243 92.6023 243 91.4977V83.9277Z" fill="white"/>
<path d="M244.246 106.07C244.246 104.966 245.142 104.07 246.246 104.07H247.364V127.21H246.246C245.142 127.21 244.246 126.315 244.246 125.21V106.07Z" fill="white"/>
<path d="M244.246 135.395C244.246 134.29 245.142 133.395 246.246 133.395H247.364V156.534H246.246C245.142 156.534 244.246 155.639 244.246 154.534V135.395Z" fill="white"/>
<path d="M720 146.555C720 147.659 719.105 148.555 718 148.555L716.882 148.555L716.882 111.85L718 111.85C719.105 111.85 720 112.745 720 113.85L720 146.555Z" fill="white"/>
<rect x="455.625" y="43.0293" width="53" height="2.79275" rx="1.39637" fill="#E4E8EF"/>
<ellipse cx="529.201" cy="44.4257" rx="4.36472" ry="1.39637" fill="#E4E8EF"/>
</g>
<path d="M652.569 298.757L657.927 213.477C658.398 205.977 657.327 198.46 654.781 191.39C652.235 184.319 648.267 177.846 643.122 172.368C637.978 166.89 631.765 162.525 624.868 159.541C617.971 156.557 610.536 155.017 603.021 155.018C588.969 155.019 575.451 160.399 565.24 170.051C555.028 179.704 548.897 192.898 548.105 206.928L542.516 306.529H644.29C646.399 306.528 648.429 305.724 649.967 304.28C651.504 302.837 652.435 300.862 652.569 298.757Z" fill="#407BFF"/>
<path opacity="0.1" d="M652.759 295.686L657.927 213.497C658.398 205.997 657.327 198.48 654.781 191.409C652.235 184.339 648.267 177.865 643.122 172.387C637.978 166.91 631.765 162.544 624.868 159.56C617.971 156.576 610.536 155.037 603.021 155.037C588.969 155.039 575.451 160.418 565.24 170.071C555.028 179.723 548.897 192.918 548.105 206.947L542.516 306.528H641.221C644.16 306.518 646.985 305.393 649.127 303.381C651.268 301.369 652.566 298.618 652.759 295.686Z" fill="black"/>
<path d="M636.057 306.529L641.9 213.477C642.369 205.977 641.298 198.461 638.751 191.391C636.204 184.322 632.236 177.849 627.092 172.371C621.947 166.894 615.736 162.528 608.839 159.544C601.943 156.559 594.509 155.019 586.994 155.018C572.942 155.017 559.422 160.395 549.21 170.048C538.998 179.702 532.868 192.897 532.078 206.928L526.457 306.529H636.057Z" fill="#407BFF"/>
<path d="M637.803 322.549H639.205C639.583 322.528 639.942 322.374 640.216 322.113C640.491 321.852 640.663 321.502 640.703 321.125L642.812 306.539H634.27L636.379 321.125C636.418 321.489 636.58 321.829 636.839 322.088C637.098 322.347 637.438 322.51 637.803 322.549Z" fill="#407BFF"/>
<path opacity="0.7" d="M637.803 322.549H639.205C639.583 322.528 639.942 322.374 640.216 322.113C640.491 321.852 640.663 321.502 640.703 321.125L642.812 306.539H634.27L636.379 321.125C636.418 321.489 636.58 321.829 636.839 322.088C637.098 322.347 637.438 322.51 637.803 322.549Z" fill="white"/>
<path d="M500.016 322.549H501.282C501.641 322.512 501.975 322.348 502.224 322.087C502.473 321.826 502.622 321.485 502.642 321.125L504.551 306.539H496.789L498.677 321.125C498.697 321.482 498.842 321.821 499.087 322.081C499.332 322.341 499.661 322.507 500.016 322.549Z" fill="#407BFF"/>
<path opacity="0.5" d="M500.016 322.549H501.282C501.641 322.512 501.975 322.348 502.224 322.087C502.473 321.826 502.622 321.485 502.642 321.125L504.551 306.539H496.789L498.677 321.125C498.697 321.482 498.842 321.821 499.087 322.081C499.332 322.341 499.661 322.507 500.016 322.549Z" fill="white"/>
<path d="M539.679 322.549H540.955C541.314 322.512 541.648 322.348 541.898 322.087C542.147 321.826 542.295 321.485 542.316 321.125L544.193 306.539H536.441L538.298 321.125C538.319 321.488 538.47 321.832 538.724 322.094C538.977 322.355 539.316 322.516 539.679 322.549Z" fill="#407BFF"/>
<path opacity="0.7" d="M539.679 322.549H540.955C541.314 322.512 541.648 322.348 541.898 322.087C542.147 321.826 542.295 321.485 542.316 321.125L544.193 306.539H536.441L538.298 321.125C538.319 321.488 538.47 321.832 538.724 322.094C538.977 322.355 539.316 322.516 539.679 322.549Z" fill="white"/>
<path d="M595.092 322.549H596.494C596.873 322.526 597.232 322.372 597.508 322.111C597.783 321.851 597.959 321.502 598.003 321.125L600.112 306.539H591.559L593.668 321.125C593.705 321.49 593.867 321.831 594.126 322.09C594.386 322.35 594.727 322.512 595.092 322.549Z" fill="#407BFF"/>
<path opacity="0.5" d="M595.092 322.549H596.494C596.873 322.526 597.232 322.372 597.508 322.111C597.783 321.851 597.959 321.502 598.003 321.125L600.112 306.539H591.559L593.668 321.125C593.705 321.49 593.867 321.831 594.126 322.09C594.386 322.35 594.727 322.512 595.092 322.549Z" fill="white"/>
<path d="M548.66 271.43H511.157L508.678 235.276L508.14 227.514L507.898 223.938C507.83 223 507.707 222.067 507.529 221.144C507.529 220.943 507.444 220.722 507.402 220.521C507.38 220.37 507.341 220.221 507.286 220.078C506.276 216.394 504.307 213.042 501.58 210.365C498.435 207.257 494.275 205.386 489.863 205.092H525.141C525.521 205.092 525.911 205.092 526.302 205.092C531.084 205.113 535.669 207.006 539.074 210.365C541.803 213.041 543.775 216.393 544.79 220.078C544.844 220.221 544.883 220.37 544.906 220.521C545.153 221.647 545.319 222.789 545.401 223.938L545.644 227.514L548.66 271.43Z" fill="#407BFF"/>
<path opacity="0.1" d="M548.66 271.43H511.157L508.678 235.276L508.14 227.514L507.898 223.938C507.83 223 507.707 222.067 507.529 221.144C507.529 220.943 507.444 220.722 507.402 220.521C507.38 220.37 507.341 220.221 507.286 220.078C506.276 216.394 504.307 213.042 501.58 210.365C498.435 207.257 494.275 205.386 489.863 205.092H525.141C525.521 205.092 525.911 205.092 526.302 205.092C531.084 205.113 535.669 207.006 539.074 210.365C541.803 213.041 543.775 216.393 544.79 220.078C544.844 220.221 544.883 220.37 544.906 220.521C545.153 221.647 545.319 222.789 545.401 223.938L545.644 227.514L548.66 271.43Z" fill="black"/>
<g opacity="0.1">
<path opacity="0.1" d="M578.379 252.129H593.439C597.11 252.129 600.073 254.449 600.073 257.307V266.209C600.073 269.077 597.11 271.387 593.439 271.387H578.379V252.129Z" fill="black"/>
</g>
<path d="M516.88 271.389H583.217C586.374 271.389 588.934 268.829 588.934 265.672V257.836C588.934 254.679 586.374 252.12 583.217 252.12H516.88C513.723 252.12 511.163 254.679 511.163 257.836V265.672C511.163 268.829 513.723 271.389 516.88 271.389Z" fill="#407BFF"/>
<path d="M673.294 226.362C673.302 231.405 671.528 236.288 668.283 240.148C665.039 244.008 660.534 246.597 655.565 247.455L651.715 298.849C651.378 303.215 648.203 306.558 644.407 306.558H603.043C606.84 306.558 610.004 303.215 610.341 298.849L612.45 271.428L614.233 247.424C617.484 246.865 620.56 245.559 623.22 243.608C625.879 241.657 628.049 239.114 629.557 236.181C629.764 235.809 629.951 235.425 630.116 235.032C631.335 232.304 631.96 229.349 631.951 226.362C631.949 224.899 631.801 223.44 631.508 222.007C631.392 221.437 631.244 220.868 631.086 220.309C630.335 217.797 629.134 215.442 627.543 213.358C625.546 210.759 622.98 208.652 620.042 207.201C617.104 205.749 613.872 204.991 610.594 204.985H651.958C655.273 204.972 658.544 205.746 661.502 207.241C664.395 208.681 666.92 210.763 668.885 213.327C671.755 217.065 673.306 221.649 673.294 226.362Z" fill="#407BFF"/>
<path opacity="0.1" d="M673.294 226.362C673.302 231.405 671.528 236.288 668.283 240.148C665.039 244.008 660.534 246.597 655.565 247.455L651.715 298.849C651.378 303.215 648.203 306.558 644.407 306.558H603.043C606.84 306.558 610.004 303.215 610.341 298.849L612.45 271.428L614.233 247.424C617.484 246.865 620.56 245.559 623.22 243.608C625.879 241.657 628.049 239.114 629.557 236.181C629.764 235.809 629.951 235.425 630.116 235.032C631.335 232.304 631.96 229.349 631.951 226.362C631.949 224.899 631.801 223.44 631.508 222.007C631.392 221.437 631.244 220.868 631.086 220.309C630.335 217.797 629.134 215.442 627.543 213.358C625.546 210.759 622.98 208.652 620.042 207.201C617.104 205.749 613.872 204.991 610.594 204.985H651.958C655.273 204.972 658.544 205.746 661.502 207.241C664.395 208.681 666.92 210.763 668.885 213.327C671.755 217.065 673.306 221.649 673.294 226.362Z" fill="black"/>
<path d="M631.966 226.374C631.966 236.92 625.015 245.705 615.893 247.467L612.37 298.849C612.064 303.216 609.206 306.57 605.747 306.57H495.282C491.844 306.57 488.954 303.216 488.659 298.849L485.126 247.372C476.182 245.494 469.422 236.825 469.422 226.405C469.401 222.03 470.642 217.742 472.997 214.055C474.779 211.244 477.233 208.92 480.137 207.295C482.781 205.808 485.763 205.027 488.796 205.027C493.581 205.056 498.166 206.947 501.579 210.301C504.305 212.974 506.273 216.322 507.284 220.003C507.339 220.154 507.378 220.309 507.4 220.467C507.65 221.589 507.815 222.728 507.896 223.874L508.149 227.449L511.155 271.428H589.874L593.133 223.969C593.597 217.261 596.867 211.672 601.402 209.024C604.268 206.731 607.769 205.373 611.431 205.133C611.817 205.094 612.204 205.076 612.592 205.08C615.536 205.064 618.438 205.789 621.029 207.189C621.109 207.225 621.187 207.268 621.261 207.316C623.935 208.801 626.231 210.884 627.968 213.401C630.586 217.22 631.98 221.744 631.966 226.374Z" fill="#407BFF"/>
<path opacity="0.1" d="M588.049 306.54H495.239C491.801 306.54 488.911 303.186 488.616 298.82L485.083 247.342C476.14 245.465 469.379 236.796 469.379 226.376C469.358 222.001 470.599 217.713 472.954 214.026C474.736 211.214 477.19 208.891 480.094 207.266C482.738 205.779 485.72 204.998 488.753 204.998C493.538 205.026 498.123 206.918 501.536 210.271C504.262 212.944 506.23 216.292 507.241 219.974C507.296 220.124 507.335 220.28 507.357 220.438C507.607 221.56 507.772 222.699 507.853 223.845L508.106 227.42L511.154 271.431H589.874L588.049 306.54Z" fill="white"/>
<path d="M576.015 160.396C574.18 161.45 572.503 162.326 570.742 163.222C568.98 164.119 567.251 164.941 565.468 165.764C561.925 167.378 558.339 168.928 554.648 170.267C550.927 171.651 547.14 172.848 543.3 173.853C539.305 174.927 535.226 175.657 531.108 176.036L530.232 176.121H529.821C526.098 175.688 522.797 175.066 519.485 174.328C516.174 173.589 512.894 172.862 509.645 172.029C506.397 171.195 503.17 170.341 499.943 169.413C496.715 168.485 493.52 167.525 490.324 166.439L491.79 159.12C498.424 159.541 505.047 160.174 511.607 160.86L521.405 161.841C524.632 162.157 527.933 162.431 530.823 162.537H529.547C532.857 161.947 536.12 161.122 539.313 160.069C542.614 159.014 545.915 157.812 549.216 156.399C552.517 154.985 555.787 153.53 559.035 151.98C560.701 151.22 562.315 150.419 563.897 149.628C565.479 148.837 567.166 147.993 568.611 147.244L576.015 160.396Z" fill="#263238"/>
<path opacity="0.1" d="M576.015 160.396C574.18 161.45 572.503 162.326 570.742 163.222C568.98 164.119 567.251 164.941 565.468 165.764C561.925 167.378 558.339 168.928 554.648 170.267C550.927 171.651 547.14 172.848 543.3 173.853C539.305 174.927 535.226 175.657 531.108 176.036L530.232 176.121H529.821C526.098 175.688 522.797 175.066 519.485 174.328C516.174 173.589 512.894 172.862 509.645 172.029C506.397 171.195 503.17 170.341 499.943 169.413C496.715 168.485 493.52 167.525 490.324 166.439L491.79 159.12C498.424 159.541 505.047 160.174 511.607 160.86L521.405 161.841C524.632 162.157 527.933 162.431 530.823 162.537H529.547C532.857 161.947 536.12 161.122 539.313 160.069C542.614 159.014 545.915 157.812 549.216 156.399C552.517 154.985 555.787 153.53 559.035 151.98C560.701 151.22 562.315 150.419 563.897 149.628C565.479 148.837 567.166 147.993 568.611 147.244L576.015 160.396Z" fill="black"/>
<path d="M490.453 155.102C488.894 154.008 487.171 153.168 485.349 152.613L482.617 163.276L490.801 166.714L491.729 165.575C492.359 164.814 492.826 163.933 493.104 162.986C493.381 162.038 493.463 161.044 493.344 160.064C493.224 159.084 492.906 158.139 492.409 157.286C491.912 156.432 491.247 155.69 490.453 155.102Z" fill="#A26760"/>
<path d="M482.617 163.274L485.349 152.611L477.713 148.445L475.414 155.954L482.617 163.274Z" fill="#A26760"/>
<path opacity="0.2" d="M550.332 171.238H550.627H550.754C554.783 170.805 566.626 168.812 575.19 160.364C573.914 157.896 572.163 155.987 570.022 155.555C564.116 154.437 556.881 158.666 550.332 171.238Z" fill="black"/>
<path d="M557.285 226.364C567.389 199.08 560.744 173.99 562.01 160.1C562.321 156.676 563.739 153.447 566.049 150.901C568.359 148.354 571.436 146.63 574.814 145.989C581.711 144.66 590.243 143.162 598.375 142.065C600.647 141.752 602.96 141.933 605.155 142.598C607.351 143.262 609.377 144.393 611.094 145.914C612.811 147.435 614.179 149.309 615.104 151.408C616.028 153.507 616.488 155.782 616.451 158.075C615.745 199.207 602.561 226.364 602.561 226.364L581.257 226.269L557.285 226.364Z" fill="#407BFF"/>
<path opacity="0.8" d="M557.285 226.364C567.389 199.08 560.744 173.99 562.01 160.1C562.321 156.676 563.739 153.447 566.049 150.901C568.359 148.354 571.436 146.63 574.814 145.989C581.711 144.66 590.243 143.162 598.375 142.065C600.647 141.752 602.96 141.933 605.155 142.598C607.351 143.262 609.377 144.393 611.094 145.914C612.811 147.435 614.179 149.309 615.104 151.408C616.028 153.507 616.488 155.782 616.451 158.075C615.745 199.207 602.561 226.364 602.561 226.364L581.257 226.269L557.285 226.364Z" fill="white"/>
<path d="M476.458 319.459L473.758 337.209H482.332L487.964 319.459H476.458Z" fill="#A26760"/>
<path d="M472.659 333.255L484.123 332.981C484.213 332.97 484.304 332.979 484.39 333.006C484.476 333.033 484.555 333.078 484.623 333.138C484.69 333.197 484.745 333.27 484.782 333.352C484.82 333.434 484.839 333.523 484.84 333.614V342.051C484.789 342.518 484.569 342.951 484.221 343.267C483.874 343.584 483.423 343.762 482.953 343.77C478.966 343.77 477.068 343.622 472.026 343.77C466.659 343.753 461.298 343.401 455.974 342.715C451.893 342.019 453 338.191 454.846 338.128C463.178 337.822 467.839 336.082 470.835 333.909C471.356 333.5 471.996 333.271 472.659 333.255Z" fill="#263238"/>
<path opacity="0.2" d="M475.367 326.578L476.453 319.459H487.96L485.197 328.339L475.367 326.578Z" fill="black"/>
<path d="M552.014 219.974C552.014 219.974 482.248 220.67 481.162 242.765C479.622 274.531 474.254 322.919 474.254 322.919L487.405 326.536C487.405 326.536 506.178 278.518 506.906 253.702C526.533 249.799 576.977 253.702 582.905 240.814C585.801 234.254 586.583 226.956 585.14 219.932L552.014 219.974Z" fill="#407BFF"/>
<path opacity="0.6" d="M552.014 219.974C552.014 219.974 482.248 220.67 481.162 242.765C479.622 274.531 474.254 322.919 474.254 322.919L487.405 326.536C487.405 326.536 506.178 278.518 506.906 253.702C526.533 249.799 576.977 253.702 582.905 240.814C585.801 234.254 586.583 226.956 585.14 219.932L552.014 219.974Z" fill="black"/>
<path d="M537.836 326.323L542.487 338.368H551.895L548.657 325.701L537.836 326.323Z" fill="#A26760"/>
<path opacity="0.2" d="M549.531 329.12L547.706 319.85L535.82 321.326L538.868 329.384L549.531 329.12Z" fill="black"/>
<path d="M539.937 334.383H551.95C552.144 334.368 552.336 334.431 552.484 334.558C552.632 334.684 552.724 334.864 552.74 335.058L553.321 344.054C553.309 344.541 553.108 345.004 552.758 345.343C552.409 345.682 551.941 345.871 551.454 345.868C547.235 345.794 545.274 345.562 539.99 345.562C536.752 345.562 530.192 345.879 525.71 345.879C521.227 345.879 521.354 341.66 523.242 341.333C531.784 339.625 535.086 337.273 538.091 335.005C538.626 334.609 539.272 334.391 539.937 334.383Z" fill="#263238"/>
<path d="M570.77 219.975C570.77 219.975 507.491 224.268 509.052 246.342C510.75 270.514 536.093 326.569 536.093 326.569H548.844C548.844 326.569 540.407 275.714 536.526 251.077C554.37 251.077 595.723 253.767 601.672 240.847C604.557 234.284 605.331 226.987 603.886 219.965L570.77 219.975Z" fill="#407BFF"/>
<path opacity="0.5" d="M570.77 219.975C570.77 219.975 507.491 224.268 509.052 246.342C510.75 270.514 536.093 326.569 536.093 326.569H548.844C548.844 326.569 540.407 275.714 536.526 251.077C554.37 251.077 595.723 253.767 601.672 240.847C604.557 234.284 605.331 226.987 603.886 219.965L570.77 219.975Z" fill="black"/>
<path d="M580.363 130.55C581.819 136.181 582.272 143.205 574.404 146.106C572.221 149.586 571.156 153.256 579.562 151.949C586.253 151.084 592.342 147.64 596.531 142.351C591.5 137.943 592.418 124.422 593.694 116.797L580.363 130.55Z" fill="#A26760"/>
<path d="M579.429 140.801C572.205 142.035 566.267 147.624 563.082 154.216C559.897 160.808 559.127 168.317 559.19 175.647C559.254 182.976 560.087 190.275 559.887 197.594C559.665 206.031 557.63 212.011 554.719 219.963C554.719 221.851 557.577 222.916 559.992 223.412C565.033 212.412 568.345 201.886 567.997 189.8C567.733 181.025 567.617 171.027 569.052 162.379C570.486 153.731 580.832 142.436 580.336 140.875L579.429 140.801Z" fill="#263238"/>
<path opacity="0.3" d="M586.495 134.684C585.738 135.246 584.875 135.65 583.958 135.871C583.041 136.092 582.089 136.126 581.159 135.971C581.176 134.601 581.077 133.232 580.863 131.879L589.596 124.707C589.787 125.639 589.91 126.584 589.965 127.533C590.059 128.924 589.789 130.316 589.18 131.57C588.572 132.824 587.646 133.897 586.495 134.684Z" fill="black"/>
<path d="M573.439 97.2441C564.211 102.465 564.116 117.219 566.964 125.72C567.682 127.95 569 129.94 570.773 131.473C572.546 133.005 574.706 134.02 577.017 134.408C579.328 134.795 581.701 134.54 583.877 133.67C586.053 132.8 587.947 131.349 589.354 129.474C593.868 123.769 593.214 118.01 592.992 108.096C592.771 98.1827 582.678 92.0341 573.439 97.2441Z" fill="#A26760"/>
<path opacity="0.2" d="M576.418 123.777C573.444 125.054 570.185 126.709 567.18 126.351C567.988 128.488 569.356 130.369 571.139 131.798C572.923 133.227 575.057 134.152 577.319 134.475C579.581 134.798 581.889 134.508 584.001 133.636C586.113 132.763 587.953 131.34 589.327 129.515C593.05 124.832 594.2 121.668 593.145 113.146C587.366 119.917 582.778 121.035 576.418 123.777Z" fill="black"/>
<path d="M585.338 100.575C584.379 102.132 583.953 103.958 584.122 105.778C584.291 107.598 585.047 109.314 586.276 110.668C587.109 111.543 588.132 112.218 588.934 113.115C590.184 114.521 590.835 116.361 590.748 118.24C590.935 117.031 591.538 115.924 592.452 115.11C593.366 114.297 594.535 113.826 595.758 113.779C594.506 117.653 593.254 121.52 592.003 125.38C594.48 124.225 596.621 122.456 598.223 120.241C599.825 118.026 600.835 115.439 601.157 112.724C601.959 105.236 592.72 89.1951 585.338 100.575Z" fill="#263238"/>
<path d="M563.804 101.093C563.098 101.877 562.595 102.822 562.338 103.845C562.215 104.352 562.25 104.885 562.438 105.371C562.627 105.858 562.96 106.275 563.393 106.566C564.192 106.888 565.076 106.933 565.903 106.693L574.34 105.227C579.17 104.383 584.001 103.55 588.768 102.4C590.877 101.894 593.313 101.082 594.157 99.057C596.889 92.4654 585.224 91.6112 581.322 91.7904C574.678 92.1385 567.959 95.9563 563.804 101.093Z" fill="#263238"/>
<path d="M594.491 112.092C591.728 112.714 590.547 116.69 590.62 119.242C590.62 122.143 592.73 124.031 595.177 122.28C596.994 120.929 598.23 118.939 598.636 116.711C599.132 113.98 597.265 111.47 594.491 112.092Z" fill="#A26760"/>
<path d="M574.973 122.164C574.554 122.443 574.079 122.627 573.582 122.701C573.084 122.776 572.576 122.74 572.094 122.597C573.148 120.213 573.022 120.751 573.349 116.701L574.973 122.164Z" fill="#A26760"/>
<path d="M579.832 109.014C579.041 108.128 576.879 107.79 575.708 107.959C575.59 107.974 575.47 107.943 575.374 107.873C575.277 107.802 575.212 107.697 575.191 107.579C575.176 107.453 575.208 107.325 575.282 107.221C575.357 107.118 575.467 107.046 575.592 107.02C577.069 106.799 579.526 107.242 580.528 108.349C580.615 108.438 580.664 108.557 580.664 108.681C580.664 108.806 580.615 108.925 580.528 109.014C580.469 109.075 580.397 109.122 580.317 109.151C580.232 109.177 580.14 109.178 580.054 109.154C579.968 109.129 579.891 109.081 579.832 109.014Z" fill="#263238"/>
<path d="M566.189 110.984C566.089 110.916 566.021 110.812 565.997 110.694C565.974 110.576 565.997 110.453 566.062 110.352C566.431 109.686 566.95 109.116 567.578 108.686C568.206 108.255 568.926 107.977 569.679 107.873C569.737 107.872 569.795 107.882 569.848 107.903C569.902 107.924 569.951 107.956 569.992 107.996C570.033 108.036 570.066 108.084 570.089 108.138C570.111 108.191 570.122 108.248 570.122 108.306C570.128 108.434 570.084 108.559 570 108.655C569.915 108.752 569.797 108.812 569.669 108.822C569.074 108.917 568.509 109.146 568.016 109.491C567.522 109.837 567.114 110.289 566.821 110.816C566.783 110.884 566.728 110.943 566.662 110.985C566.596 111.027 566.52 111.052 566.442 111.058C566.351 111.066 566.261 111.039 566.189 110.984Z" fill="#263238"/>
<path d="M574.16 126.456C575.174 127.748 576.108 129.1 576.955 130.506L577.609 130.232C580.583 128.945 581.427 127.153 581.469 125.56C581.433 124.293 581.042 123.062 580.34 122.006C579.286 123.83 576.618 125.286 575.162 125.992C574.54 126.298 574.16 126.456 574.16 126.456Z" fill="#2E353A"/>
<path d="M575.137 125.992L575.569 126.583C575.688 126.742 575.856 126.856 576.047 126.907C576.239 126.959 576.441 126.945 576.624 126.868C578.817 125.813 580.273 124.759 580.842 123.567C580.894 123.454 580.921 123.332 580.921 123.208C580.921 123.084 580.894 122.962 580.842 122.85C580.701 122.557 580.539 122.275 580.357 122.006C579.25 123.83 576.592 125.286 575.137 125.992Z" fill="white"/>
<path d="M577.586 130.233C580.56 128.946 581.404 127.153 581.446 125.561C580.316 126.082 579.313 126.841 578.503 127.786C577.946 128.484 577.625 129.341 577.586 130.233Z" fill="#A26760"/>
<path d="M569.572 114.287C569.055 114.382 568.77 115.12 568.918 115.911C569.065 116.702 569.624 117.272 570.141 117.166C570.658 117.061 570.943 116.344 570.795 115.553C570.647 114.762 570.088 114.287 569.572 114.287Z" fill="#263238"/>
<path d="M578.619 112.831C578.102 112.926 577.817 113.653 577.965 114.455C578.112 115.257 578.671 115.815 579.188 115.71C579.705 115.605 579.99 114.877 579.842 114.086C579.694 113.295 579.135 112.736 578.619 112.831Z" fill="#263238"/>
<path opacity="0.9" d="M565.582 118.568L572.237 117.07L572.353 119.897L566.162 121.373L565.582 118.568Z" fill="white"/>
<g opacity="0.8">
<path opacity="0.9" d="M574.262 116.626L575.053 119.221L583.595 117.386L583.089 114.391L574.262 116.626Z" fill="white"/>
</g>
<path d="M572.284 118.116L572.242 117.072L574.267 116.629L574.562 117.61L572.284 118.116Z" fill="#263238"/>
<path d="M569.855 225.152C569.855 225.152 581.868 229.804 584.621 230.711C587.785 231.949 591.115 232.713 594.503 232.978C596.22 233.093 597.943 232.842 599.556 232.24C601.169 231.638 602.635 230.7 603.858 229.487C606.726 226.429 607.623 221.788 608.371 217.432C610.565 204.643 612.766 191.854 614.974 179.064C616.028 172.736 618.802 163.244 618.57 159.669C618.138 153.025 613.908 145.178 603.14 140.864C598.922 139.188 594.819 139.81 591.297 144.028C589.187 146.538 583.049 152.592 581.541 163.255C580.339 171.797 578.461 182.861 578.577 191.541C578.715 202.952 574.158 217.337 569.855 225.152Z" fill="#263238"/>
<path d="M617.981 156.157C619.205 167.273 613.056 195.295 611.875 196.983C606.834 213.235 592.986 204.471 590.982 203.722C587.491 202.435 583.937 199.915 580.615 198.238C574.171 195.074 568.065 192.458 562.074 188.482L565.449 181.817C572.02 184.053 590.613 188.862 593.682 189.611C595.011 189.959 600.189 192.669 600.137 189.094C600.864 187.902 601.877 164.689 604.102 156.484C604.356 155.563 604.798 154.705 605.399 153.963L605.6 153.71C606.412 152.692 607.488 151.917 608.711 151.469C609.934 151.021 611.257 150.918 612.534 151.17C613.812 151.423 614.996 152.021 615.956 152.901C616.917 153.78 617.618 154.907 617.981 156.157Z" fill="#263238"/>
<path opacity="0.1" d="M617.981 156.157C619.205 167.273 613.056 195.295 611.875 196.983C606.834 213.235 592.986 204.471 590.982 203.722C587.491 202.435 583.937 199.915 580.615 198.238C574.171 195.074 568.065 192.458 562.074 188.482L565.449 181.817C572.02 184.053 590.613 188.862 593.682 189.611C595.011 189.959 600.189 192.669 600.137 189.094C600.864 187.902 601.877 164.689 604.102 156.484C604.356 155.563 604.798 154.705 605.399 153.963L605.6 153.71C606.412 152.692 607.488 151.917 608.711 151.469C609.934 151.021 611.257 150.918 612.534 151.17C613.812 151.423 614.996 152.021 615.956 152.901C616.917 153.78 617.618 154.907 617.981 156.157Z" fill="white"/>
<path d="M562.81 198.131H531.592L528.027 157.4H559.245L562.81 198.131Z" fill="#263238"/>
<path opacity="0.5" d="M562.81 198.131H531.592L528.027 157.4H559.245L562.81 198.131Z" fill="white"/>
<path d="M561.701 197.932H530.483L526.918 157.201H558.136L561.701 197.932Z" fill="#407BFF"/>
<path opacity="0.8" d="M561.701 197.932H530.483L526.918 157.201H558.136L561.701 197.932Z" fill="white"/>
<path d="M549.32 159.74H536.189L535.746 154.646H548.866L549.32 159.74Z" fill="#407BFF"/>
<path d="M535.746 154.646L537.033 154.203H550.627L550.817 156.365L549.805 157.536L549.741 159.308L549.32 159.74L548.866 154.646H535.746Z" fill="#407BFF"/>
<path opacity="0.5" d="M535.746 154.646L537.033 154.203H550.627L550.817 156.365L549.805 157.536L549.741 159.308L549.32 159.74L548.866 154.646H535.746Z" fill="black"/>
<path d="M567.937 184.023L568.644 187.83C566.956 192.228 557.285 191.068 557.285 191.068V179.814L565.817 181.797C566.347 181.926 566.828 182.205 567.203 182.599C567.579 182.994 567.834 183.488 567.937 184.023Z" fill="#A26760"/>
<path d="M557.265 179.814L557.307 191.089L548.743 191.3L546.781 181.386L557.265 179.814Z" fill="#A26760"/>
<path d="M589.871 271.429L593.13 223.969C593.594 217.262 596.864 211.672 601.399 209.025C604.265 206.732 607.766 205.373 611.429 205.133C611.814 205.094 612.201 205.077 612.589 205.081C615.534 205.064 618.435 205.79 621.026 207.19C621.107 207.226 621.184 207.268 621.258 207.316C623.932 208.801 626.228 210.884 627.966 213.402C630.595 217.231 631.994 221.771 631.973 226.416C631.973 236.963 625.023 245.748 615.9 247.509L612.367 298.85C612.061 303.216 609.203 306.57 605.744 306.57H588.047L589.871 271.429Z" fill="#407BFF"/>
<path opacity="0.1" d="M589.871 271.429L593.13 223.969C593.594 217.262 596.864 211.672 601.399 209.025C604.265 206.732 607.766 205.373 611.429 205.133C611.814 205.094 612.201 205.077 612.589 205.081C615.534 205.064 618.435 205.79 621.026 207.19C621.107 207.226 621.184 207.268 621.258 207.316C623.932 208.801 626.228 210.884 627.966 213.402C630.595 217.231 631.994 221.771 631.973 226.416C631.973 236.963 625.023 245.748 615.9 247.509L612.367 298.85C612.061 303.216 609.203 306.57 605.744 306.57H588.047L589.871 271.429Z" fill="white"/>
<path d="M377.736 359.463C397.272 359.463 413.11 355.412 413.11 350.414C413.11 345.417 397.272 341.365 377.736 341.365C358.2 341.365 342.363 345.417 342.363 350.414C342.363 355.412 358.2 359.463 377.736 359.463Z" fill="#263238"/>
<path opacity="0.3" d="M377.736 356.447C397.272 356.447 413.11 353.071 413.11 348.906C413.11 344.741 397.272 341.365 377.736 341.365C358.2 341.365 342.363 344.741 342.363 348.906C342.363 353.071 358.2 356.447 377.736 356.447Z" fill="white"/>
<path d="M380.659 348.896H374.816L368.066 276.104H387.409L380.659 348.896Z" fill="#263238"/>
<path d="M387.409 276.103C387.409 278.212 383.085 279.942 377.738 279.942C372.39 279.942 368.066 278.222 368.066 276.103C368.066 273.983 372.401 272.264 377.738 272.264C383.074 272.264 387.409 273.983 387.409 276.103Z" fill="#263238"/>
<path opacity="0.7" d="M387.409 276.103C387.409 278.212 383.085 279.942 377.738 279.942C372.39 279.942 368.066 278.222 368.066 276.103C368.066 273.983 372.401 272.264 377.738 272.264C383.074 272.264 387.409 273.983 387.409 276.103Z" fill="white"/>
<path opacity="0.7" d="M259.445 277.241C259.472 276.805 259.585 276.379 259.779 275.988C259.973 275.596 260.243 275.248 260.574 274.963C268.747 283.189 320.605 289.528 383.357 289.528C446.109 289.528 497.966 283.2 506.15 274.963C506.481 275.248 506.751 275.596 506.945 275.988C507.139 276.379 507.252 276.805 507.279 277.241C507.279 286.532 451.793 294.115 383.357 294.115C314.92 294.115 259.445 286.532 259.445 277.241Z" fill="white"/>
<path opacity="0.7" d="M260.617 279.339C268.791 271.113 320.648 264.785 383.4 264.785C446.152 264.785 498.01 271.113 506.194 279.339C498.01 287.566 446.152 293.904 383.4 293.904C320.648 293.904 268.791 287.566 260.617 279.339Z" fill="white"/>
<path opacity="0.7" d="M259.445 276.916C259.445 267.613 314.92 260.041 383.357 260.041C451.793 260.041 507.279 267.571 507.279 276.916C507.253 277.35 507.14 277.775 506.946 278.165C506.752 278.554 506.482 278.901 506.15 279.183C497.966 270.957 446.109 264.629 383.357 264.629C320.605 264.629 268.747 270.957 260.574 279.183C260.243 278.901 259.972 278.554 259.778 278.165C259.584 277.775 259.471 277.35 259.445 276.916Z" fill="white"/>
<path d="M431.196 268.719L379.349 267.738C379.209 267.724 379.074 267.682 378.951 267.614C378.827 267.547 378.719 267.455 378.631 267.345C378.544 267.235 378.479 267.109 378.441 266.973C378.403 266.838 378.393 266.696 378.411 266.557C378.399 266.417 378.416 266.276 378.46 266.142C378.504 266.008 378.574 265.885 378.666 265.779C378.759 265.672 378.871 265.586 378.998 265.524C379.124 265.462 379.262 265.426 379.402 265.418L431.249 266.399C431.39 266.412 431.526 266.453 431.651 266.52C431.775 266.587 431.885 266.678 431.974 266.788C432.062 266.899 432.128 267.025 432.166 267.161C432.205 267.297 432.216 267.44 432.198 267.58C432.21 267.721 432.192 267.863 432.148 267.997C432.103 268.132 432.032 268.256 431.939 268.362C431.845 268.468 431.731 268.555 431.604 268.616C431.476 268.677 431.338 268.712 431.196 268.719Z" fill="#263238"/>
<path opacity="0.2" d="M431.196 268.719L379.349 267.738C379.209 267.724 379.074 267.682 378.951 267.614C378.827 267.547 378.719 267.455 378.631 267.345C378.544 267.235 378.479 267.109 378.441 266.973C378.403 266.838 378.393 266.696 378.411 266.557C378.399 266.417 378.416 266.276 378.46 266.142C378.504 266.008 378.574 265.885 378.666 265.779C378.759 265.672 378.871 265.586 378.998 265.524C379.124 265.462 379.262 265.426 379.402 265.418L431.249 266.399C431.39 266.412 431.526 266.453 431.651 266.52C431.775 266.587 431.885 266.678 431.974 266.788C432.062 266.899 432.128 267.025 432.166 267.161C432.205 267.297 432.216 267.44 432.198 267.58C432.21 267.721 432.192 267.863 432.148 267.997C432.103 268.132 432.032 268.256 431.939 268.362C431.845 268.468 431.731 268.555 431.604 268.616C431.476 268.677 431.338 268.712 431.196 268.719Z" fill="white"/>
<path d="M456.368 264.934L431.583 268.678C431.313 268.678 431.052 268.574 430.856 268.388C430.659 268.201 430.542 267.946 430.529 267.676C430.486 267.392 430.549 267.103 430.707 266.863C430.865 266.624 431.106 266.451 431.383 266.379L456.168 262.635C456.438 262.634 456.699 262.738 456.895 262.925C457.092 263.111 457.209 263.366 457.222 263.637C457.265 263.92 457.202 264.21 457.044 264.449C456.886 264.689 456.645 264.862 456.368 264.934Z" fill="#263238"/>
<path d="M456.146 262.635H403.75L379.398 265.419L429.832 266.368L456.146 262.635Z" fill="#263238"/>
<path opacity="0.6" d="M456.146 262.635H403.75L379.398 265.419L429.832 266.368L456.146 262.635Z" fill="white"/>
<path opacity="0.5" d="M456.368 264.934L431.583 268.678C431.313 268.678 431.052 268.574 430.856 268.388C430.659 268.201 430.542 267.946 430.529 267.676C430.486 267.392 430.549 267.103 430.707 266.863C430.865 266.624 431.106 266.451 431.383 266.379L456.168 262.635C456.438 262.634 456.699 262.738 456.895 262.925C457.092 263.111 457.209 263.366 457.222 263.637C457.265 263.92 457.202 264.21 457.044 264.449C456.886 264.689 456.645 264.862 456.368 264.934Z" fill="white"/>
<path d="M429.833 266.367L381.487 265.459C380.576 265.343 379.739 264.897 379.134 264.205C378.53 263.513 378.2 262.624 378.207 261.705L376.752 232.512C376.647 230.477 377.965 228.842 379.663 228.873L428.008 229.791C428.922 229.903 429.761 230.348 430.367 231.041C430.972 231.734 431.3 232.626 431.288 233.546L432.754 262.728C432.849 264.763 431.541 266.398 429.833 266.367Z" fill="#407BFF"/>
<path opacity="0.2" d="M429.833 266.367L381.487 265.459C380.576 265.343 379.739 264.897 379.134 264.205C378.53 263.513 378.2 262.624 378.207 261.705L376.752 232.512C376.647 230.477 377.965 228.842 379.663 228.873L428.008 229.791C428.922 229.903 429.761 230.348 430.367 231.041C430.972 231.734 431.3 232.626 431.288 233.546L432.754 262.728C432.849 264.763 431.541 266.398 429.833 266.367Z" fill="white"/>
<path d="M428.421 266.221L380.076 265.303C379.163 265.19 378.323 264.744 377.716 264.052C377.11 263.36 376.778 262.469 376.786 261.549L375.33 232.409C375.225 230.373 376.543 228.738 378.252 228.77L426.586 229.677C427.5 229.791 428.339 230.236 428.946 230.928C429.553 231.62 429.884 232.511 429.877 233.432L431.353 262.582C431.438 264.618 430.119 266.252 428.421 266.221Z" fill="#407BFF"/>
<path opacity="0.6" d="M428.421 266.221L380.076 265.303C379.163 265.19 378.323 264.744 377.716 264.052C377.11 263.36 376.778 262.469 376.786 261.549L375.33 232.409C375.225 230.373 376.543 228.738 378.252 228.77L426.586 229.677C427.5 229.791 428.339 230.236 428.946 230.928C429.553 231.62 429.884 232.511 429.877 233.432L431.353 262.582C431.438 264.618 430.119 266.252 428.421 266.221Z" fill="white"/>
<path d="M396.93 246.993C397.071 248.382 397.718 249.671 398.746 250.615C399.774 251.56 401.113 252.095 402.509 252.119C403.165 252.13 403.817 252.001 404.42 251.742C405.023 251.482 405.564 251.097 406.006 250.612C406.449 250.127 406.784 249.554 406.988 248.93C407.193 248.306 407.262 247.646 407.191 246.993C407.038 245.611 406.388 244.333 405.361 243.396C404.334 242.458 403.002 241.926 401.612 241.899C400.959 241.888 400.31 242.016 399.71 242.274C399.109 242.532 398.57 242.914 398.128 243.395C397.685 243.876 397.35 244.446 397.143 245.066C396.937 245.686 396.864 246.343 396.93 246.993Z" fill="white"/>
<path d="M222.274 98.0977H6.7476C5.8616 98.0949 4.98378 98.2672 4.16456 98.6046C3.34534 98.9421 2.60085 99.438 1.97386 100.064C1.34687 100.69 0.84973 101.434 0.510997 102.252C0.172264 103.071 -0.00139019 103.949 8.38098e-06 104.835V257.071C8.38098e-06 258.855 0.708682 260.566 1.97013 261.827C3.23158 263.089 4.94248 263.797 6.72643 263.797H89.4704C89.4704 263.797 94.7309 280.071 78.4202 288.475H155.771C155.771 288.475 137.354 282.161 142.091 263.787H222.274C223.157 263.787 224.032 263.613 224.848 263.275C225.664 262.937 226.405 262.441 227.03 261.817C227.654 261.192 228.15 260.451 228.488 259.634C228.826 258.818 229 257.944 229 257.06V104.835C229.001 103.95 228.828 103.075 228.491 102.257C228.154 101.44 227.658 100.697 227.034 100.072C226.409 99.4458 225.667 98.9494 224.85 98.6107C224.033 98.272 223.158 98.0977 222.274 98.0977Z" fill="#455A64"/>
<path d="M117.397 247.784C120.329 251.976 115.736 256.564 111.544 253.632C111.405 253.533 111.284 253.411 111.184 253.272C108.263 249.086 112.846 244.503 117.032 247.425C117.173 247.524 117.296 247.645 117.397 247.784Z" fill="#263238"/>
<path d="M8.68815 100.908H220.002C221.363 100.908 222.669 101.449 223.631 102.412C224.594 103.374 225.135 104.68 225.135 106.042V235.966H3.55469V106.042C3.55469 104.68 4.09553 103.374 5.05824 102.412C6.02095 101.449 7.32667 100.908 8.68815 100.908Z" fill="white"/>
<path d="M162.769 116.533V128.313C162.769 128.612 162.65 128.898 162.439 129.11C162.228 129.321 161.941 129.44 161.642 129.44H149.578L145.267 132.773C145.145 132.865 144.999 132.922 144.847 132.936C144.694 132.95 144.541 132.921 144.404 132.852C144.266 132.784 144.151 132.678 144.071 132.548C143.991 132.417 143.948 132.267 143.949 132.113V129.44H143.275C142.977 129.44 142.69 129.321 142.479 129.11C142.267 128.898 142.148 128.612 142.148 128.313V116.53C142.149 116.384 142.179 116.238 142.236 116.103C142.293 115.968 142.377 115.846 142.482 115.743C142.586 115.64 142.71 115.559 142.847 115.505C142.983 115.451 143.129 115.424 143.275 115.426H161.662C161.956 115.426 162.237 115.543 162.445 115.75C162.652 115.958 162.769 116.239 162.769 116.533V116.533Z" stroke="#407BFF" stroke-miterlimit="10"/>
<path d="M151.474 113.768H149.172V114.049H151.474V113.768Z" fill="#407BFF"/>
<path d="M140.711 117.085H140.43V115.696C140.43 115.184 140.635 114.692 140.998 114.33C141.361 113.967 141.852 113.764 142.365 113.764H147.501V114.045H142.36C141.922 114.046 141.502 114.22 141.192 114.53C140.882 114.839 140.707 115.259 140.706 115.696L140.711 117.085Z" fill="#407BFF"/>
<path d="M156.987 124.056C156.865 124.057 156.743 124.032 156.631 123.984C156.519 123.935 156.417 123.864 156.334 123.775C156.25 123.685 156.186 123.579 156.145 123.464C156.104 123.348 156.088 123.226 156.097 123.104C156.398 119.669 159.12 119.354 159.461 115.449C159.559 114.322 159.148 113.899 158.362 113.899C157.576 113.899 157.091 114.325 156.993 115.449L156.936 116.091C156.911 116.381 156.778 116.651 156.563 116.848C156.348 117.045 156.067 117.154 155.776 117.153C155.614 117.153 155.455 117.119 155.307 117.054C155.16 116.989 155.027 116.894 154.919 116.775C154.81 116.656 154.727 116.516 154.675 116.363C154.623 116.211 154.604 116.049 154.618 115.888L154.643 115.606C154.863 113.093 156.224 111.662 158.627 111.662C161.03 111.662 162.137 113.099 161.918 115.606C161.56 119.678 158.587 120.309 158.334 123.18C158.335 123.194 158.335 123.208 158.334 123.222C158.321 123.45 158.222 123.664 158.056 123.821C157.891 123.978 157.672 124.066 157.444 124.067L156.987 124.056ZM158.207 126.445C158.182 126.741 158.046 127.016 157.828 127.216C157.609 127.416 157.323 127.527 157.027 127.527C156.862 127.527 156.7 127.493 156.549 127.427C156.399 127.361 156.264 127.264 156.153 127.143C156.042 127.022 155.957 126.879 155.904 126.724C155.851 126.568 155.832 126.403 155.846 126.239C155.872 125.944 156.007 125.668 156.227 125.468C156.446 125.267 156.732 125.156 157.029 125.158C157.193 125.158 157.355 125.193 157.505 125.259C157.655 125.325 157.79 125.422 157.901 125.543C158.011 125.664 158.096 125.807 158.148 125.962C158.201 126.117 158.221 126.282 158.207 126.445Z" fill="#407BFF"/>
<path d="M153.813 121.299H147.333C147.184 121.299 147.04 121.239 146.935 121.134C146.829 121.028 146.77 120.885 146.77 120.735C146.77 120.586 146.829 120.443 146.935 120.337C147.04 120.231 147.184 120.172 147.333 120.172H153.813C153.963 120.172 154.106 120.231 154.212 120.337C154.317 120.443 154.377 120.586 154.377 120.735C154.377 120.885 154.317 121.028 154.212 121.134C154.106 121.239 153.963 121.299 153.813 121.299Z" fill="#407BFF"/>
<path d="M152.918 123.529H147.345C147.195 123.529 147.052 123.47 146.946 123.364C146.841 123.259 146.781 123.115 146.781 122.966C146.781 122.816 146.841 122.673 146.946 122.567C147.052 122.462 147.195 122.402 147.345 122.402H152.918C153.067 122.402 153.21 122.462 153.316 122.567C153.422 122.673 153.481 122.816 153.481 122.966C153.481 123.115 153.422 123.259 153.316 123.364C153.21 123.47 153.067 123.529 152.918 123.529Z" fill="#407BFF"/>
<path d="M152.022 125.758H147.345C147.195 125.758 147.052 125.698 146.946 125.593C146.841 125.487 146.781 125.344 146.781 125.194C146.781 125.045 146.841 124.902 146.946 124.796C147.052 124.69 147.195 124.631 147.345 124.631H152.022C152.171 124.631 152.314 124.69 152.42 124.796C152.526 124.902 152.585 125.045 152.585 125.194C152.585 125.344 152.526 125.487 152.42 125.593C152.314 125.698 152.171 125.758 152.022 125.758Z" fill="#407BFF"/>
<path d="M8.57588 100.885H221.159C222.215 100.885 223.227 101.304 223.973 102.05C224.72 102.797 225.139 103.809 225.139 104.865V112.11H3.70703V105.733C3.70633 105.094 3.83194 104.462 4.07663 103.872C4.32133 103.282 4.68027 102.746 5.1328 102.296C5.58533 101.845 6.12252 101.488 6.71343 101.246C7.30434 101.004 7.9373 100.881 8.57588 100.885Z" fill="#EBEBEB"/>
<path d="M12.3423 106.736C12.3423 107.043 12.251 107.344 12.0801 107.6C11.9091 107.856 11.6661 108.055 11.3818 108.173C11.0975 108.291 10.7847 108.322 10.4828 108.262C10.181 108.202 9.90378 108.053 9.68619 107.836C9.46859 107.618 9.3204 107.341 9.26037 107.039C9.20033 106.737 9.23114 106.424 9.3489 106.14C9.46667 105.856 9.6661 105.613 9.92197 105.442C10.1778 105.271 10.4787 105.18 10.7864 105.18C11.199 105.18 11.5948 105.344 11.8866 105.635C12.1784 105.927 12.3423 106.323 12.3423 106.736Z" fill="#263238"/>
<path d="M16.9829 106.736C16.9829 107.043 16.8917 107.344 16.7207 107.6C16.5497 107.856 16.3067 108.055 16.0224 108.173C15.7381 108.291 15.4253 108.322 15.1235 108.262C14.8216 108.202 14.5444 108.053 14.3268 107.836C14.1092 107.618 13.961 107.341 13.901 107.039C13.841 106.737 13.8718 106.424 13.9895 106.14C14.1073 105.856 14.3067 105.613 14.5626 105.442C14.8185 105.271 15.1193 105.18 15.427 105.18C15.8397 105.18 16.2354 105.344 16.5272 105.635C16.819 105.927 16.9829 106.323 16.9829 106.736Z" fill="#263238"/>
<path d="M21.397 106.736C21.397 107.043 21.3057 107.344 21.1348 107.6C20.9638 107.856 20.7208 108.055 20.4365 108.173C20.1522 108.291 19.8393 108.322 19.5375 108.262C19.2357 108.202 18.9585 108.053 18.7409 107.836C18.5233 107.618 18.3751 107.341 18.3151 107.039C18.255 106.737 18.2858 106.424 18.4036 106.14C18.5214 105.856 18.7208 105.613 18.9767 105.442C19.2325 105.271 19.5333 105.18 19.8411 105.18C20.2537 105.18 20.6495 105.344 20.9413 105.635C21.2331 105.927 21.397 106.323 21.397 106.736Z" fill="#263238"/>
<path d="M106.263 209.668H97.562C95.4418 209.668 93.7266 210.916 93.7266 212.442V217.236C93.7266 218.779 95.4418 220.01 97.562 220.01H106.263V209.668Z" fill="#407BFF"/>
<path d="M65.821 232.244L62.7955 187.379C62.5294 183.434 63.1338 179.48 64.5714 175.761C66.0089 172.042 68.2491 168.637 71.1538 165.755C74.0585 162.874 77.5661 160.578 81.4601 159.008C85.3542 157.438 89.5521 156.629 93.795 156.629C101.731 156.628 109.367 159.458 115.134 164.536C120.902 169.615 124.365 176.557 124.812 183.939L127.981 236.339H70.4784C69.2894 236.334 68.1468 235.908 67.282 235.148C66.4173 234.387 65.895 233.349 65.821 232.244Z" fill="#407BFF"/>
<path opacity="0.1" d="M65.7138 230.618L62.7955 187.379C62.5294 183.434 63.1338 179.48 64.5714 175.761C66.0089 172.042 68.2491 168.637 71.1538 165.755C74.0585 162.874 77.5661 160.578 81.4601 159.008C85.3542 157.438 89.5521 156.629 93.795 156.629C101.731 156.628 109.367 159.458 115.134 164.536C120.902 169.615 124.365 176.557 124.812 183.939L127.981 236.339H72.2651C70.5965 236.342 68.9895 235.751 67.7721 234.688C66.5546 233.625 65.8185 232.17 65.7138 230.618Z" fill="black"/>
<path d="M75.1536 236.339L71.8541 187.379C71.588 183.433 72.1926 179.479 73.6305 175.759C75.0684 172.04 77.3091 168.635 80.2145 165.753C83.1198 162.872 86.628 160.576 90.5228 159.006C94.4176 157.437 98.6162 156.628 102.86 156.629C110.795 156.63 118.429 159.46 124.195 164.538C129.962 169.616 133.424 176.558 133.871 183.939L137.045 236.339H75.1536Z" fill="#407BFF"/>
<path d="M124.504 217.847H145.682L147.082 198.843L147.38 194.759L147.523 192.878C147.559 192.385 147.627 191.894 147.725 191.408C147.725 191.303 147.779 191.192 147.803 191.086C147.815 191.005 147.837 190.925 147.868 190.848C148.439 188.911 149.551 187.149 151.09 185.743C152.865 184.109 155.211 183.124 157.701 182.969H137.779C137.559 182.969 137.344 182.969 137.124 182.969C134.422 182.981 131.832 183.977 129.906 185.743C128.366 187.149 127.255 188.911 126.684 190.848C126.653 190.925 126.631 191.005 126.618 191.086C126.478 191.676 126.385 192.275 126.338 192.878L126.201 194.759L124.504 217.847Z" fill="#407BFF"/>
<path opacity="0.1" d="M124.504 217.847H145.682L147.082 198.843L147.38 194.759L147.523 192.878C147.559 192.385 147.627 191.894 147.725 191.408C147.725 191.303 147.779 191.192 147.803 191.086C147.815 191.005 147.837 190.925 147.868 190.848C148.439 188.911 149.551 187.149 151.09 185.743C152.865 184.109 155.211 183.124 157.701 182.969H137.779C137.559 182.969 137.344 182.969 137.124 182.969C134.422 182.981 131.832 183.977 129.906 185.743C128.366 187.149 127.255 188.911 126.684 190.848C126.653 190.925 126.631 191.005 126.618 191.086C126.478 191.676 126.385 192.275 126.338 192.878L126.201 194.759L124.504 217.847Z" fill="black"/>
<g opacity="0.1">
<path opacity="0.1" d="M107.72 207.723H99.2089C97.1423 207.723 95.4688 208.943 95.4688 210.447V215.135C95.4688 216.639 97.1423 217.86 99.2089 217.86H107.72V207.723Z" fill="black"/>
</g>
<path d="M142.447 207.715H104.986C103.203 207.715 101.758 209.061 101.758 210.722V214.845C101.758 216.506 103.203 217.852 104.986 217.852H142.447C144.23 217.852 145.675 216.506 145.675 214.845V210.722C145.675 209.061 144.23 207.715 142.447 207.715Z" fill="#407BFF"/>
<path d="M54.1016 194.167C54.0965 196.82 55.0987 199.389 56.9309 201.42C58.7631 203.451 61.3072 204.813 64.1132 205.264L66.3108 232.28C66.5014 234.577 68.2881 236.341 70.4322 236.341H93.7965C91.6524 236.341 89.8657 234.577 89.6751 232.28L88.484 217.854L87.4596 205.253C85.6265 204.954 83.8925 204.265 82.3933 203.237C80.8941 202.21 79.6704 200.874 78.8178 199.333C78.7047 199.133 78.6034 198.928 78.5081 198.723C77.8172 197.29 77.4618 195.738 77.4659 194.167C77.4661 193.395 77.5519 192.626 77.722 191.87C77.7875 191.571 77.8709 191.271 77.9542 190.983C78.3816 189.659 79.0615 188.419 79.9613 187.321C81.0744 185.974 82.4996 184.88 84.1303 184.119C85.7935 183.34 87.6289 182.933 89.4905 182.932H66.1679C64.9562 182.931 63.7514 183.101 62.5944 183.437C60.2117 184.121 58.1161 185.478 56.597 187.321C54.9765 189.283 54.0991 191.691 54.1016 194.167Z" fill="#407BFF"/>
<path opacity="0.1" d="M54.1016 194.167C54.0965 196.82 55.0987 199.389 56.9309 201.42C58.7631 203.451 61.3072 204.813 64.1132 205.264L66.3108 232.28C66.5014 234.577 68.2881 236.341 70.4322 236.341H93.7965C91.6524 236.341 89.8657 234.577 89.6751 232.28L88.484 217.854L87.4596 205.253C85.6265 204.954 83.8925 204.265 82.3933 203.237C80.8941 202.21 79.6704 200.874 78.8178 199.333C78.7047 199.133 78.6034 198.928 78.5081 198.723C77.8172 197.29 77.4618 195.738 77.4659 194.167C77.4661 193.395 77.5519 192.626 77.722 191.87C77.7875 191.571 77.8709 191.271 77.9542 190.983C78.3816 189.659 79.0615 188.419 79.9613 187.321C81.0744 185.974 82.4996 184.88 84.1303 184.119C85.7935 183.34 87.6289 182.933 89.4905 182.932H66.1679C64.9562 182.931 63.7514 183.101 62.5944 183.437C60.2117 184.121 58.1161 185.478 56.597 187.321C54.9765 189.283 54.0991 191.691 54.1016 194.167Z" fill="black"/>
<path d="M77.4611 194.164C77.4611 199.713 81.3859 204.34 86.5376 205.261L88.5269 232.299C88.6996 234.602 90.3136 236.361 92.267 236.361H154.647C156.589 236.361 158.221 234.602 158.387 232.299L160.383 205.223C165.427 204.235 169.245 199.674 169.245 194.187C169.258 191.886 168.56 189.63 167.232 187.689C166.223 186.21 164.835 184.988 163.194 184.133C161.701 183.356 160.02 182.947 158.31 182.945C155.607 182.957 153.017 183.952 151.092 185.72C149.551 187.126 148.438 188.887 147.864 190.824C147.838 190.902 147.818 190.982 147.804 191.063C147.661 191.653 147.568 192.252 147.524 192.855L147.381 194.736L145.684 217.84H101.23L99.3901 192.872C99.1221 189.343 97.2818 186.402 94.7208 185.009C93.0996 183.807 91.1242 183.093 89.0569 182.962C88.8366 182.962 88.6221 182.962 88.4018 182.962C86.7388 182.953 85.1002 183.335 83.6372 184.072C83.5893 184.087 83.5434 184.108 83.5002 184.133C81.9935 184.919 80.6983 186.013 79.7124 187.334C78.2326 189.344 77.4472 191.727 77.4611 194.164Z" fill="#407BFF"/>
<path opacity="0.1" d="M102.255 236.341H154.665C156.607 236.341 158.239 234.582 158.405 232.28L160.401 205.203C165.445 204.215 169.263 199.655 169.263 194.167C169.276 191.866 168.577 189.61 167.25 187.67C166.241 186.191 164.853 184.969 163.212 184.113C161.719 183.336 160.038 182.927 158.328 182.926C155.625 182.937 153.035 183.933 151.11 185.7C149.569 187.107 148.456 188.868 147.882 190.805C147.856 190.883 147.836 190.962 147.822 191.043C147.679 191.633 147.586 192.232 147.542 192.835L147.399 194.716L145.702 217.82H101.23L102.255 236.341Z" fill="white"/>
<path d="M110.877 193.567C110.877 193.567 141.534 193.421 140.579 202.416C139.934 208.492 136.603 214.878 134.013 221.043C130.246 229.98 126.981 237.778 126.981 237.778L119.998 235.66C119.998 235.66 126.271 209.815 130.497 207.169H104.574C95.9963 207.169 92.2896 198.917 100.64 189.295C105.744 189.311 110.877 193.567 110.877 193.567Z" fill="#407BFF"/>
<path opacity="0.6" d="M110.877 193.578C110.877 193.578 141.534 193.431 140.579 202.426C141.05 208.017 126.975 237.778 126.975 237.778L119.992 235.66C119.992 235.66 126.265 209.815 130.491 207.169H104.574C95.9963 207.169 92.2896 198.917 100.64 189.295C105.744 189.321 110.877 193.578 110.877 193.578Z" fill="black"/>
<path d="M132.459 176.521C128.695 179.722 121.304 172.143 120.112 171.244C117.563 169.302 110.071 162.788 110.464 160.524C111.655 153.866 123.376 163.299 126.765 169.802L132.459 176.521Z" fill="#263238"/>
<path d="M99.5212 156.485C97.6333 156.857 95.5904 156.225 94.2623 157.529C92.9342 158.832 92.3803 160.663 92.1897 162.45C92.022 164.946 92.1619 167.452 92.6066 169.918C93.0037 172.926 93.4186 175.931 93.8514 178.935C94.1199 181.409 94.0177 183.905 93.5476 186.353C93.4981 186.613 93.5425 186.881 93.674 187.115C93.8055 187.349 94.0166 187.536 94.2742 187.646C94.2742 187.646 108.919 188.112 113.178 187.962C115.441 187.884 113.886 182.336 114.583 179.084C114.738 178.363 116.251 175.4 116.477 174.646C117.525 171.067 116.829 168.603 115.882 165.008C115.173 162.395 114.881 158.627 113.452 158.35C110.879 157.856 104.774 155.442 99.5212 156.485Z" fill="#407BFF"/>
<path opacity="0.8" d="M99.5212 156.485C97.6333 156.857 95.5904 156.225 94.2623 157.529C92.9342 158.832 92.3803 160.663 92.1897 162.45C92.022 164.946 92.1619 167.452 92.6066 169.918C93.0037 172.926 93.4186 175.931 93.8514 178.935C94.1199 181.409 94.0177 183.905 93.5476 186.353C93.4981 186.613 93.5425 186.881 93.674 187.115C93.8055 187.349 94.0166 187.536 94.2742 187.646C94.2742 187.646 108.919 188.112 113.178 187.962C115.441 187.884 113.886 182.336 114.583 179.084C114.738 178.363 116.251 175.4 116.477 174.646C117.525 171.067 116.829 168.603 115.882 165.008C115.173 162.395 114.881 158.627 113.452 158.35C110.879 157.856 104.774 155.442 99.5212 156.485Z" fill="white"/>
<path d="M97.4285 159.049C97.232 158.772 92.0683 154.732 91.1452 159.399C89.8409 165.896 92.5388 172.288 92.5388 172.288C92.5388 172.288 93.1344 179.318 95.3499 180.022C97.5655 180.727 99.6262 180.899 100.365 179.695C100.842 178.756 101.094 177.732 101.103 176.693C101.103 176.693 100.853 163.887 97.4285 159.049Z" fill="#263238"/>
<path d="M100.996 147.568C101.526 150.559 101.973 156.024 99.6797 157.95C99.6797 157.95 105.284 160.685 108.965 165.457C109.782 164.888 110.386 164.095 110.692 163.189C110.998 162.282 110.989 161.309 110.668 160.408C110.483 159.839 110.177 159.31 109.768 158.855C109.358 158.399 108.854 158.025 108.286 157.755C106.112 156.646 106.32 154.548 106.916 152.584L100.996 147.568Z" fill="#A26760"/>
<path opacity="0.2" d="M101.734 152.646L103.825 153.396C104.72 153.718 105.678 153.862 106.636 153.817C106.487 154.427 106.487 155.06 106.636 155.67C105.886 155.861 105.094 155.846 104.354 155.625C103.614 155.404 102.958 154.988 102.467 154.428C102.129 153.871 101.882 153.271 101.734 152.646Z" fill="black"/>
<path d="M153.62 236.323H159.313L153.351 223.023L149.492 229.127L153.62 236.323Z" fill="#A26760"/>
<g opacity="0.2">
<path opacity="0.2" d="M153.351 223.021L155.889 228.687L150.767 231.35L149.492 229.13L153.351 223.021Z" fill="black"/>
</g>
<path d="M93.4346 187.707L92.839 189.516C92.7616 189.655 92.9343 189.799 93.1844 189.81L115.221 190.432C115.423 190.432 115.584 190.354 115.602 190.237L115.858 188.418C115.858 188.295 115.703 188.185 115.495 188.173L93.8157 187.563C93.7441 187.553 93.6708 187.561 93.6036 187.586C93.5365 187.611 93.478 187.653 93.4346 187.707Z" fill="#263238"/>
<path d="M120.995 202.55C113.747 205.43 105.885 208.304 101.609 208.304C93.0449 208.304 85.4395 202.545 93.5452 189.439C98.6433 189.439 107.499 189.572 107.499 189.572C107.499 189.572 124.175 185.133 136.313 186.443C139.189 186.756 141.885 187.909 144.014 189.739C146.142 191.568 147.593 193.979 148.159 196.624C151.232 211.05 155.967 226.653 155.967 226.653L149.874 230.537C149.874 230.537 140.375 211.933 134.908 197.179C132.013 198.028 126.695 200.286 120.995 202.55Z" fill="#407BFF"/>
<path opacity="0.5" d="M148.162 196.623C147.599 193.975 146.148 191.562 144.02 189.731C141.891 187.899 139.194 186.744 136.316 186.43C124.202 185.143 107.503 189.56 107.503 189.56C107.503 189.56 98.6464 189.41 93.5483 189.427C85.3116 202.477 93.048 208.292 101.612 208.292C105.889 208.292 113.75 205.417 120.998 202.538C126.698 200.274 132.016 198.016 134.911 197.15C140.378 211.92 149.878 230.53 149.878 230.53L155.97 226.646C155.97 226.646 151.235 211.049 148.162 196.623Z" fill="black"/>
<path d="M140.522 203.281C140.328 205.135 140.03 206.978 139.629 208.802C139.599 208.741 139.575 208.686 139.551 208.625C139.528 208.564 139.551 208.597 139.551 208.58C139.532 208.519 139.506 208.459 139.474 208.403C137.854 204.652 136.27 200.807 134.93 197.184H134.971C138.438 198.554 140.802 200.507 140.522 203.281Z" fill="#407BFF"/>
<path opacity="0.6" d="M140.522 203.281C140.328 205.135 140.03 206.978 139.629 208.802C139.599 208.741 139.575 208.686 139.551 208.625C139.528 208.564 139.551 208.597 139.551 208.58C139.532 208.519 139.506 208.459 139.474 208.403C137.854 204.652 136.27 200.807 134.93 197.184H134.971C138.438 198.554 140.802 200.507 140.522 203.281Z" fill="black"/>
<path d="M97.0916 144.694C98.8784 149.382 99.5335 151.402 102.881 153.161C107.925 155.813 113.702 152.728 113.452 147.612C113.226 143.035 110.337 136.133 104.739 135.578C103.504 135.448 102.254 135.615 101.107 136.063C99.9612 136.511 98.9571 137.225 98.1906 138.136C97.4241 139.048 96.9208 140.127 96.7284 141.271C96.536 142.415 96.6611 143.585 97.0916 144.672V144.694Z" fill="#A26760"/>
<path d="M106.141 144.084C106.266 144.489 106.581 144.728 106.855 144.639C107.129 144.55 107.237 144.195 107.129 143.801C107.022 143.407 106.695 143.158 106.415 143.246C106.135 143.335 106.022 143.696 106.141 144.084Z" fill="#263238"/>
<path d="M110.814 142.709C110.939 143.12 111.254 143.358 111.528 143.264C111.802 143.17 111.91 142.82 111.802 142.426C111.695 142.032 111.362 141.783 111.094 141.871C110.826 141.96 110.695 142.326 110.814 142.709Z" fill="#263238"/>
<path d="M110.98 141.932L111.898 141.377C111.898 141.377 111.606 142.248 110.98 141.932Z" fill="#263238"/>
<path d="M109.137 143.598C109.781 144.386 110.539 145.088 111.388 145.684C111.217 145.88 111.003 146.039 110.759 146.15C110.515 146.26 110.248 146.319 109.976 146.322L109.137 143.598Z" fill="#A26760"/>
<path d="M93.8018 147.798C94.1677 148.642 94.4449 149.517 94.6296 150.411C94.6803 151.31 94.3699 152.195 93.7589 152.892C93.1478 153.59 92.2799 154.05 91.3242 154.184C92.1565 154.391 93.0398 154.323 93.8245 153.992C94.6092 153.662 95.2472 153.088 95.6302 152.37C95.1749 153.499 94.2738 154.424 93.1109 154.955C93.9421 154.964 94.7641 154.793 95.513 154.458C96.2619 154.122 96.9175 153.629 97.4288 153.019C97.1489 153.696 96.8333 154.367 96.5831 155.044C97.9973 154.246 99.1585 153.113 99.9481 151.759C100.264 151.205 100.502 150.483 100.085 149.995C99.6682 149.507 99.0071 149.54 98.3996 149.529C97.7921 149.518 97.0596 149.385 96.8392 148.858C96.6189 148.33 97.0238 147.803 97.4646 147.443C97.9053 147.082 98.4354 146.749 98.5962 146.222C98.6724 145.841 98.6437 145.447 98.5128 145.079C98.2388 144.058 97.9688 143.035 97.7028 142.011C97.6305 141.649 97.4914 141.302 97.2919 140.984C96.1007 139.32 94.7726 141.761 94.314 142.588C93.4556 144.205 93.273 146.062 93.8018 147.798Z" fill="#263238"/>
<path d="M96.7358 149.289C97.4104 150.106 98.4032 150.642 99.4993 150.781C100.958 150.948 101.471 149.672 100.887 148.512C100.357 147.447 98.9632 146.087 97.5875 146.448C96.2117 146.809 95.9139 148.268 96.7358 149.289Z" fill="#A26760"/>
<path d="M106.215 140.731C106.206 140.783 106.179 140.831 106.14 140.868C106.101 140.906 106.05 140.932 105.995 140.942C104.804 141.153 104.113 142.49 104.113 142.501C104.083 142.562 104.029 142.609 103.962 142.633C103.895 142.657 103.821 142.655 103.756 142.629C103.692 142.601 103.643 142.551 103.618 142.49C103.594 142.429 103.596 142.361 103.625 142.301C103.678 142.252 104.417 140.715 105.894 140.448C105.963 140.438 106.034 140.454 106.091 140.491C106.149 140.528 106.189 140.584 106.203 140.648C106.216 140.674 106.22 140.703 106.215 140.731Z" fill="#263238"/>
<path d="M109.394 139.622C109.354 139.617 109.313 139.619 109.274 139.628C109.235 139.638 109.199 139.655 109.167 139.678C109.102 139.744 108.881 139.861 109.006 139.922C109.733 140.266 110.74 140.832 111.514 140.715C111.645 140.715 111.955 140.588 111.889 140.499C111.844 140.454 111.788 140.421 111.725 140.403C111.663 140.384 111.596 140.381 111.532 140.394C110.936 140.471 110.096 139.933 109.525 139.656C109.483 139.639 109.439 139.628 109.394 139.622Z" fill="#263238"/>
<path d="M106.297 143.303L107.22 142.748C107.22 142.748 106.928 143.63 106.297 143.303Z" fill="#263238"/>
<path d="M106.213 133.526C104.182 133.182 103.92 133.054 101.86 133.176C99.7784 133.237 97.7659 133.885 96.0887 135.035C94.5218 136.241 93.4165 137.888 92.9381 139.729C92.4699 141.563 92.4172 143.468 92.7832 145.322C92.849 146.207 93.2599 147.04 93.9386 147.663C94.0078 146.666 94.1894 145.679 94.4806 144.717C94.7843 143.746 95.4097 142.89 96.2673 142.27C96.6459 142.079 96.972 141.81 97.2202 141.482C97.3491 141.158 97.4215 140.818 97.4346 140.472C97.6214 139.696 98.12 139.015 98.8283 138.569C99.5317 138.134 100.285 137.773 101.074 137.493C103.581 136.489 106.315 135.912 108.625 134.558C107.869 134.124 107.059 133.777 106.213 133.526Z" fill="#263238"/>
<path d="M95.821 140.95C96.3664 141.567 97.1129 142.001 97.9472 142.187C98.9359 142.398 101.407 142.343 101.556 142.104C101.705 141.865 100.824 139.28 99.8233 139.124C100.514 139.745 101.338 140.222 102.241 140.523C103.263 140.713 104.316 140.713 105.338 140.523C105.862 140.412 104.689 138.392 103.837 137.815C106.404 138.314 109.12 138.886 110.984 140.589C112.848 142.293 113.652 144.989 113.557 147.503C113.994 147.175 114.345 146.759 114.583 146.286C114.822 145.813 114.941 145.295 114.933 144.773C115.383 146.072 115.547 147.443 115.417 148.803C115.287 150.163 114.865 151.485 114.177 152.69C116.904 150.604 117.923 146.959 117.208 143.741C116.493 140.523 114.23 137.721 111.485 135.662C109.102 133.903 106.267 132.588 103.248 132.522C99.2872 132.411 91.9498 136.605 95.821 140.95Z" fill="#263238"/>
<path d="M99.0308 155.786C99.0308 155.602 99.0784 155.358 99.1022 155.103C99.1542 154.517 98.9711 153.934 98.5882 153.467C98.2054 152.999 97.65 152.681 97.0297 152.573C96.8455 152.542 96.6734 152.467 96.531 152.353C96.3887 152.24 96.2812 152.094 96.2197 151.929C95.7611 150.686 95.5824 150.309 95.1417 149.088C93.9505 148.817 92.5152 149.233 91.2705 149.355C90.9253 150.747 90.9009 152.192 91.199 153.594C91.2468 153.907 91.3778 154.205 91.5802 154.459C92.7104 155.322 93.9605 156.039 95.2965 156.59C96.3686 156.895 97.8754 155.88 99.0308 155.786Z" fill="#A26760"/>
<path d="M95.4211 156.619C95.4211 156.619 92.1395 176.344 95.5224 179.368C97.5056 181.133 99.2209 180.156 100.287 179.052C100.678 178.641 100.972 178.158 101.15 177.634C101.329 177.11 101.388 176.558 101.323 176.011L99.0184 155.804C99.0184 155.804 96.7552 154.555 95.4211 156.619Z" fill="#A26760"/>
<path d="M130.68 174.429C132.027 173.333 132.994 171.888 133.455 170.279C133.561 169.711 133.601 169.134 133.574 168.559C133.545 164.985 132.461 158.433 132.461 158.433L129.346 157.473C129.346 157.473 128.375 162.466 128.155 165.196C128.113 165.751 128.048 166.367 127.976 167.038C127.839 168.259 127.672 169.602 127.523 170.717L130.68 174.429Z" fill="#A26760"/>
<path d="M132.462 176.52C133.421 175.705 133.582 174.717 134.076 172.637C134.547 170.65 134.017 168.198 133.576 168.569C133.521 168.616 133.48 168.675 133.457 168.741C132.701 170.406 129.759 168.947 128.925 168.115C128.566 167.796 128.25 167.439 127.984 167.049C127.874 166.901 127.816 166.725 127.816 166.544C127.816 166.364 127.874 166.188 127.984 166.039C127.078 165.69 126.352 169.008 126.793 169.823L127.019 170.439C127.378 171.439 127.931 172.368 128.651 173.18L130.289 175.017L132.462 176.52Z" fill="#263238"/>
<path d="M129.26 157.89L128.891 152.818C129.854 153.245 130.849 153.607 131.868 153.9C133.381 154.383 135.442 153.534 134.965 154.455C134.206 155.825 133.359 157.152 132.428 158.428L129.26 157.89Z" fill="#A26760"/>
<path d="M128.891 152.819L131.225 147.742L134.275 149.479C135.114 151.177 135.013 154.473 135.013 154.473C135.013 154.473 130.773 154.628 128.891 152.819Z" fill="#A26760"/>
<path d="M108.781 148.907C108.859 149.267 109.139 149.523 109.377 149.462C109.615 149.401 109.764 149.079 109.68 148.718C109.597 148.358 109.323 148.102 109.085 148.163C108.847 148.224 108.698 148.568 108.781 148.907Z" fill="#263238"/>
<path d="M101.231 217.847L99.3903 192.879C99.1223 189.35 97.282 186.409 94.721 185.016C93.0998 183.814 91.1244 183.1 89.0571 182.969C88.8367 182.969 88.6223 182.969 88.402 182.969C86.739 182.96 85.1004 183.342 83.6374 184.079C83.5895 184.094 83.5436 184.115 83.5004 184.14C81.9937 184.926 80.6985 186.02 79.7126 187.341C78.2251 189.354 77.4353 191.744 77.4494 194.188C77.4494 199.736 81.3742 204.364 86.5259 205.285L88.5151 232.323C88.6879 234.625 90.3019 236.384 92.2553 236.384H102.243L101.231 217.847Z" fill="#407BFF"/>
<path opacity="0.1" d="M101.231 217.847L99.3903 192.879C99.1223 189.35 97.282 186.409 94.721 185.016C93.0998 183.814 91.1244 183.1 89.0571 182.969C88.8367 182.969 88.6223 182.969 88.402 182.969C86.739 182.96 85.1004 183.342 83.6374 184.079C83.5895 184.094 83.5436 184.115 83.5004 184.14C81.9937 184.926 80.6985 186.02 79.7126 187.341C78.2251 189.354 77.4353 191.744 77.4494 194.188C77.4494 199.736 81.3742 204.364 86.5259 205.285L88.5151 232.323C88.6879 234.625 90.3019 236.384 92.2553 236.384H102.243L101.231 217.847Z" fill="white"/>
<defs>
<filter id="filter0_dddd_11075_189944" x="206.437" y="33.0547" width="550.126" height="407.171" filterUnits="userSpaceOnUse" color-interpolation-filters="sRGB">
<feFlood flood-opacity="0" result="BackgroundImageFix"/>
<feColorMatrix in="SourceAlpha" type="matrix" values="0 0 0 0 0 0 0 0 0 0 0 0 0 0 0 0 0 0 127 0" result="hardAlpha"/>
<feOffset dy="9.96621"/>
<feGaussianBlur stdDeviation="2.91013"/>
<feColorMatrix type="matrix" values="0 0 0 0 0.0705882 0 0 0 0 0.0980392 0 0 0 0 0.133333 0 0 0 0.01 0"/>
<feBlend mode="normal" in2="BackgroundImageFix" result="effect1_dropShadow_11075_189944"/>
<feColorMatrix in="SourceAlpha" type="matrix" values="0 0 0 0 0 0 0 0 0 0 0 0 0 0 0 0 0 0 127 0" result="hardAlpha"/>
<feOffset dy="22.644"/>
<feGaussianBlur stdDeviation="6.61205"/>
<feColorMatrix type="matrix" values="0 0 0 0 0.0705882 0 0 0 0 0.0980392 0 0 0 0 0.133333 0 0 0 0.0104523 0"/>
<feBlend mode="normal" in2="effect1_dropShadow_11075_189944" result="effect2_dropShadow_11075_189944"/>
<feColorMatrix in="SourceAlpha" type="matrix" values="0 0 0 0 0 0 0 0 0 0 0 0 0 0 0 0 0 0 127 0" result="hardAlpha"/>
<feOffset dy="39.4109"/>
<feGaussianBlur stdDeviation="11.508"/>
<feColorMatrix type="matrix" values="0 0 0 0 0.0705882 0 0 0 0 0.0980392 0 0 0 0 0.133333 0 0 0 0.0128732 0"/>
<feBlend mode="normal" in2="effect2_dropShadow_11075_189944" result="effect3_dropShadow_11075_189944"/>
<feColorMatrix in="SourceAlpha" type="matrix" values="0 0 0 0 0 0 0 0 0 0 0 0 0 0 0 0 0 0 127 0" result="hardAlpha"/>
<feOffset dy="62.6078"/>
<feGaussianBlur stdDeviation="18.2815"/>
<feColorMatrix type="matrix" values="0 0 0 0 0.0705882 0 0 0 0 0.0980392 0 0 0 0 0.133333 0 0 0 0.015 0"/>
<feBlend mode="normal" in2="effect3_dropShadow_11075_189944" result="effect4_dropShadow_11075_189944"/>
<feBlend mode="normal" in="SourceGraphic" in2="effect4_dropShadow_11075_189944" result="shape"/>
</filter>
</defs>
</svg>
